<?xml version="1.0" standalone="no"?>
 <!DOCTYPE svg PUBLIC "-//W3C//DTD SVG 1.1//EN" 
 "http://www.w3.org/Graphics/SVG/1.1/DTD/svg11.dtd"> 
<svg
  xmlns:svg="http://www.w3.org/2000/svg"
  xmlns="http://www.w3.org/2000/svg"
  xmlns:xlink="http://www.w3.org/1999/xlink"
  version="1.1"
  width="2.011680cm" height="12.862560cm" viewBox="0 0 20116800 128625600">
<title>SVG Picture created as untitled-F_Silkscreen.svg date 2022/11/19 23:38:17 </title>
  <desc>Picture generated by PCBNEW </desc>
<g style="fill:#000000; fill-opacity:1.000000;stroke:#000000; stroke-opacity:1.000000;
stroke-linecap:round; stroke-linejoin:round;"
 transform="translate(0 0) scale(1 1)">
</g>
<g style="fill:#000000; fill-opacity:0.0; 
stroke:#000000; stroke-width:0.000000; stroke-opacity:1; 
stroke-linecap:round; stroke-linejoin:round;">
<g >
</g>
<g >
</g>
<g >
</g>
</g>
<g style="fill:#000000; fill-opacity:0.0; 
stroke:#000000; stroke-width:0.000000; stroke-opacity:1; 
stroke-linecap:round; stroke-linejoin:round;">
</g>
<g style="fill:#000000; fill-opacity:0.0; 
stroke:#000000; stroke-width:130000.000000; stroke-opacity:1; 
stroke-linecap:round; stroke-linejoin:round;">
<path d="M5065000 98565000
L4065000 99565000
" />
<path d="M5065000 98565000
L6065000 99565000
" />
<path d="M5065000 101565000
L5065000 98565000
" />
<path d="M6727919 113565000
L6485836 113565000
" />
<path d="M7359735 111571371
L6727919 113565000
" />
<path d="M7011974 111571371
L7359735 111571371
" />
<path d="M6622991 112968410
L7011974 111571371
" />
<path d="M6205154 111571371
L6622991 112968410
" />
<path d="M5847649 111571371
L6205154 111571371
" />
<path d="M6485836 113565000
L5847649 111571371
" />
<path d="M4320200 113558629
L4320200 111571371
" />
<path d="M4645476 113558629
L4320200 113558629
" />
<path d="M4645476 112164588
L4645476 113558629
" />
<path d="M5340998 113558629
L4645476 112164588
" />
<path d="M5675643 113558629
L5340998 113558629
" />
<path d="M5675643 111718270
L5675643 113558629
" />
<path d="M5680505.618291 111643319.685366 A414197.000000 414197.000000 0.0 0 0 5675643.045060 111718269.998828" />
<path d="M5701504.054853 111600229.466145 A95373.000000 95373.000000 0.0 0 0 5680514.204053 111643321.041207" />
<path d="M5701500 111571371
L5701500 111600226
" />
<path d="M5350366 111571371
L5701500 111571371
" />
<path d="M5369478 112879221
L5350366 111571371
" />
<path d="M4696441 111571371
L5369478 112879221
" />
<path d="M4320200 111571371
L4696441 111571371
" />
<path d="M4055631 113558629
L2770265 113558629
" />
<path d="M4055631 113265206
L4055631 113558629
" />
<path d="M3121024 113265206
L4055631 113265206
" />
<path d="M3121024 112671989
L3121024 113265206
" />
<path d="M3896366 112671989
L3121024 112671989
" />
<path d="M3896366 112375193
L3896366 112671989
" />
<path d="M3121024 112375193
L3896366 112375193
" />
<path d="M3121024 111864794
L3121024 112375193
" />
<path d="M4065375 111864794
L3121024 111864794
" />
<path d="M4065375 111571371
L4065375 111864794
" />
<path d="M2770265 111571371
L4065375 111571371
" />
<path d="M2770265 113558629
L2770265 111571371
" />
<path d="M17494829 113565000
L17252746 113565000
" />
<path d="M18126645 111571371
L17494829 113565000
" />
<path d="M17778884 111571371
L18126645 111571371
" />
<path d="M17389902 112968410
L17778884 111571371
" />
<path d="M16972064 111571371
L17389902 112968410
" />
<path d="M16614560 111571371
L16972064 111571371
" />
<path d="M17252746 113565000
L16614560 111571371
" />
<path d="M15087110 113558629
L15087110 111571371
" />
<path d="M15412386 113558629
L15087110 113558629
" />
<path d="M15412386 112164588
L15412386 113558629
" />
<path d="M16107908 113558629
L15412386 112164588
" />
<path d="M16442553 113558629
L16107908 113558629
" />
<path d="M16442553 111718270
L16442553 113558629
" />
<path d="M16447416.955225 111643319.737871 A414087.000000 414087.000000 0.0 0 0 16442553.082250 111718269.997860" />
<path d="M16468416.638086 111600231.675110 A95362.000000 95362.000000 0.0 0 0 16447425.417432 111643321.084308" />
<path d="M16468410 111571371
L16468410 111600226
" />
<path d="M16117277 111571371
L16468410 111571371
" />
<path d="M16136388 112879221
L16117277 111571371
" />
<path d="M15463351 111571371
L16136388 112879221
" />
<path d="M15087110 111571371
L15463351 111571371
" />
<path d="M14822542 113558629
L13537175 113558629
" />
<path d="M14822542 113265206
L14822542 113558629
" />
<path d="M13887934 113265206
L14822542 113265206
" />
<path d="M13887934 112671989
L13887934 113265206
" />
<path d="M14663276 112671989
L13887934 112671989
" />
<path d="M14663276 112375193
L14663276 112671989
" />
<path d="M13887934 112375193
L14663276 112375193
" />
<path d="M13887934 111864794
L13887934 112375193
" />
<path d="M14832285 111864794
L13887934 111864794
" />
<path d="M14832285 111571371
L14832285 111864794
" />
<path d="M13537175 111571371
L14832285 111571371
" />
<path d="M13537175 113558629
L13537175 111571371
" />
<path d="M13138824 113558629
L12003355 113558629
" />
<path d="M13138824 113268204
L13138824 113558629
" />
<path d="M12733728 113268204
L13138824 113268204
" />
<path d="M12733728 111861796
L12733728 113268204
" />
<path d="M13122710 111861796
L12733728 111861796
" />
<path d="M13122710 111571371
L13122710 111861796
" />
<path d="M12025465 111571371
L13122710 111571371
" />
<path d="M12025465 111861796
L12025465 111571371
" />
<path d="M12392337 111861796
L12025465 111861796
" />
<path d="M12392337 113268204
L12392337 111861796
" />
<path d="M12003355 113268204
L12392337 113268204
" />
<path d="M12003355 113558629
L12003355 113268204
" />
<path d="M18136014 98556943
L16850647 98556943
" />
<path d="M18136014 98263520
L18136014 98556943
" />
<path d="M17201406 98263520
L18136014 98263520
" />
<path d="M17201406 97670303
L17201406 98263520
" />
<path d="M17976748 97670303
L17201406 97670303
" />
<path d="M17976748 97373507
L17976748 97670303
" />
<path d="M17201406 97373507
L17976748 97373507
" />
<path d="M17201406 96863108
L17201406 97373507
" />
<path d="M18145757 96863108
L17201406 96863108
" />
<path d="M18145757 96569684
L18145757 96863108
" />
<path d="M16850647 96569684
L18145757 96569684
" />
<path d="M16850647 98556943
L16850647 96569684
" />
<path d="M16047200 98556943
L15702812 98556943
" />
<path d="M16047200 96872851
L16047200 98556943
" />
<path d="M16611936 96872851
L16047200 96872851
" />
<path d="M16611936 96569684
L16611936 96872851
" />
<path d="M15166930 96569684
L16611936 96569684
" />
<path d="M15166930 96872851
L15166930 96569684
" />
<path d="M15702812 96872851
L15166930 96872851
" />
<path d="M15702812 98556943
L15702812 96872851
" />
<path d="M14478153 97835939
L14296403 97223610
" />
<path d="M14111281 97835939
L14478153 97835939
" />
<path d="M14296403 97223610
L14111281 97835939
" />
<path d="M15055631 98556943
L14691757 98556943
" />
<path d="M14382594 96556943
L15055631 98556943
" />
<path d="M14210213 96556943
L14382594 96556943
" />
<path d="M13537175 98556943
L14210213 96556943
" />
<path d="M13894305 98556943
L13537175 98556943
" />
<path d="M14034833 98094511
L13894305 98556943
" />
<path d="M14554601 98094511
L14034833 98094511
" />
<path d="M14691757 98556943
L14554601 98094511
" />
<path d="M12784692.998111 98592171.719716 A1161772.000000 1161772.000000 0.0 0 0 13110155.901801 98545887.662599" />
<path d="M13110149.573488 98545866.550013 A871949.000000 871949.000000 0.0 0 0 13413136.076208 98384562.092838" />
<path d="M13413136 97533147
L13413136 98384562
" />
<path d="M12759210 97533147
L13413136 97533147
" />
<path d="M12759210 97832941
L12759210 97533147
" />
<path d="M13087859 97832941
L12759210 97832941
" />
<path d="M13087859 98199814
L13087859 97832941
" />
<path d="M12942646.798228 98277946.263956 A367834.000000 367834.000000 0.0 0 0 13087859.161170 98199814.183874" />
<path d="M12784693.000937 98298748.969545 A611549.000000 611549.000000 0.0 0 0 12942646.933988 98277946.753416" />
<path d="M12464330.624652 98110414.017017 A369550.000000 369550.000000 0.0 0 0 12784692.999734 98298746.057549" />
<path d="M12341372.368372 97539518.024841 A1058857.000000 1058857.000000 0.0 0 0 12464288.259368 98110437.861173" />
<path d="M12403587.525486 97126366.624209 A1129284.000000 1129284.000000 0.0 0 0 12341372.120019 97539517.995606" />
<path d="M12569409.119092 96904712.574131 A455652.000000 455652.000000 0.0 0 0 12403580.113003 97126364.039172" />
<path d="M12791063.011871 96837645.070089 A400655.000000 400655.000000 0.0 0 0 12569403.097316 96904704.146303" />
<path d="M12977877.147349 96875838.192082 A396707.000000 396707.000000 0.0 0 0 12791063.017382 96837625.424321" />
<path d="M13103613.299504 96978140.233231 A423697.000000 423697.000000 0.0 0 0 12977872.197119 96875848.630844" />
<path d="M13143689.602845 97043361.655080 A243490.000000 243490.000000 0.0 0 0 13103597.887924 96978153.096155" />
<path d="M13154939.414601 97092824.814258 A273265.000000 273265.000000 0.0 0 0 13143695.610716 97043359.127476" />
<path d="M13177048 97115309
L13154938 97092825
" />
<path d="M13196160 97092825
L13177048 97115309
" />
<path d="M13406765 96885592
L13196160 97092825
" />
<path d="M13406763.171391 96885592.976401 A616765.000000 616765.000000 0.0 0 0 13146881.012412 96628705.976092" />
<path d="M13146884.289216 96628699.865862 A765577.000000 765577.000000 0.0 0 0 12781694.998097 96537830.572129" />
<path d="M12781695.360770 96537846.928522 A830466.000000 830466.000000 0.0 0 0 12535863.955349 96580926.867184" />
<path d="M12535872.247877 96580951.830004 A716374.000000 716374.000000 0.0 0 0 12272794.825844 96737193.813483" />
<path d="M12272789.210213 96737187.925198 A833299.000000 833299.000000 0.0 0 0 12065562.142412 97052915.052345" />
<path d="M12065547.499291 97052909.817812 A1406383.000000 1406383.000000 0.0 0 0 11984242.601382 97571371.012810" />
<path d="M11984235.647286 97571370.846163 A1387768.000000 1387768.000000 0.0 0 0 12079801.788860 98107252.082837" />
<path d="M12079815.060206 98107246.900793 A802439.000000 802439.000000 0.0 0 0 12355613.244597 98464568.663368" />
<path d="M12355610.995397 98464571.907250 A723305.000000 723305.000000 0.0 0 0 12784692.988569 98592168.553042" />
<path d="M18495954 81556943
L17210587 81556943
" />
<path d="M18495954 81263520
L18495954 81556943
" />
<path d="M17561346 81263520
L18495954 81263520
" />
<path d="M17561346 80670303
L17561346 81263520
" />
<path d="M18336688 80670303
L17561346 80670303
" />
<path d="M18336688 80373507
L18336688 80670303
" />
<path d="M17561346 80373507
L18336688 80373507
" />
<path d="M17561346 79863108
L17561346 80373507
" />
<path d="M18505697 79863108
L17561346 79863108
" />
<path d="M18505697 79569684
L18505697 79863108
" />
<path d="M17210587 79569684
L18505697 79569684
" />
<path d="M17210587 81556943
L17210587 79569684
" />
<path d="M16225390.997045 81592143.705935 A840596.000000 840596.000000 0.0 0 0 16627113.869302 81507663.732137" />
<path d="M16627110.542176 81507657.172651 A551567.000000 551567.000000 0.0 0 0 16856830.814732 81289189.894165" />
<path d="M16856824.246115 81289186.195539 A570684.000000 570684.000000 0.0 0 0 16930279.689789 81011317.998794" />
<path d="M16930291.186713 81011318.238709 A605529.000000 605529.000000 0.0 0 0 16883998.814426 80765862.077183" />
<path d="M16883996.027171 80765863.406188 A500564.000000 500564.000000 0.0 0 0 16722860.143954 80572869.798896" />
<path d="M16722859.577786 80572870.584559 A1705935.000000 1705935.000000 0.0 0 0 16407139.897403 80392619.234765" />
<path d="M16137696.770582 80255468.296959 A1973664.000000 1973664.000000 0.0 0 0 16407140.030594 80392618.926444" />
<path d="M16021168.336170 80147152.963801 A354325.000000 354325.000000 0.0 0 0 16137699.803087 80255463.341994" />
<path d="M15992288.996705 80032115.828092 A229439.000000 229439.000000 0.0 0 0 16021154.656657 80147162.190829" />
<path d="M16068920.296916 79891941.522850 A176279.000000 176279.000000 0.0 0 0 15992300.212111 80032116.006361" />
<path d="M16276355.686251 79831241.309112 A325133.000000 325133.000000 0.0 0 0 16068934.991473 79891962.988147" />
<path d="M16437492.351091 79850372.382371 A604030.000000 604030.000000 0.0 0 0 16276354.992182 79831253.529923" />
<path d="M16566770.261987 79927197.788747 A308068.000000 308068.000000 0.0 0 0 16437493.922967 79850366.258458" />
<path d="M16609705.123691 79989200.421829 A200891.000000 200891.000000 0.0 0 0 16566779.749078 79927188.255434" />
<path d="M16620742.409648 80038487.068602 A240953.000000 240953.000000 0.0 0 0 16609687.529731 79989208.158808" />
<path d="M16646225 80057599
L16620743 80038487
" />
<path d="M16665337 80035489
L16646225 80057599
" />
<path d="M16875942 79793031
L16665337 80035489
" />
<path d="M16875916.500544 79793054.282696 A784610.000000 784610.000000 0.0 0 0 16273357.011479 79537831.389011" />
<path d="M16273357.223736 79537819.119575 A767817.000000 767817.000000 0.0 0 0 15944708.004124 79604910.009195" />
<path d="M15944715.994297 79604928.012168 A558053.000000 558053.000000 0.0 0 0 15719861.809778 79786659.861586" />
<path d="M15719865.869061 79786662.745925 A441002.000000 441002.000000 0.0 0 0 15638543.431637 80048229.993804" />
<path d="M15638549.554288 80048230.103971 A552920.000000 552920.000000 0.0 0 0 15689507.984624 80289002.007108" />
<path d="M15689492.664944 80289009.836235 A551849.000000 551849.000000 0.0 0 0 15860015.837634 80486866.227175" />
<path d="M15860017.652509 80486863.702963 A1599316.000000 1599316.000000 0.0 0 0 16183793.060106 80666929.854383" />
<path d="M16434306.905277 80801091.281386 A1859788.000000 1859788.000000 0.0 0 0 16183793.079686 80666929.819237" />
<path d="M16547490.232362 80914254.431715 A332929.000000 332929.000000 0.0 0 0 16434309.125794 80801087.791370" />
<path d="M16576159.710182 81033803.054080 A258063.000000 258063.000000 0.0 0 0 16547481.294850 80914259.848013" />
<path d="M16482090.999692 81226986.312189 A220104.000000 220104.000000 0.0 0 0 16576148.938324 81033803.003507" />
<path d="M16238130.804670 81292379.374236 A418496.000000 418496.000000 0.0 0 0 16482087.759422 81226981.623381" />
<path d="M16025832.909917 81253979.777684 A572807.000000 572807.000000 0.0 0 0 16238131.002625 81292375.249340" />
<path d="M15848776.092937 81155216.217259 A747028.000000 747028.000000 0.0 0 0 16025838.877296 81253964.313918" />
<path d="M15799480.252282 81096018.286703 A212342.000000 212342.000000 0.0 0 0 15848774.029029 81155218.965117" />
<path d="M15782060.251057 81046546.439441 A280324.000000 280324.000000 0.0 0 0 15799494.757336 81096010.112043" />
<path d="M15753214 81030805
L15782070 81046544
" />
<path d="M15740473 81056287
L15753214 81030805
" />
<path d="M15565094 81352708
L15740473 81056287
" />
<path d="M15565105.488605 81352696.963849 A697059.000000 697059.000000 0.0 0 0 15853645.078663 81533146.756341" />
<path d="M15853641.158695 81533158.515273 A1148898.000000 1148898.000000 0.0 0 0 16225389.998632 81592168.808144" />
<path d="M14838093 80835939
L14656343 80223610
" />
<path d="M14471221 80835939
L14838093 80835939
" />
<path d="M14656343 80223610
L14471221 80835939
" />
<path d="M15415571 81556943
L15051697 81556943
" />
<path d="M14742534 79556943
L15415571 81556943
" />
<path d="M14570153 79556943
L14742534 79556943
" />
<path d="M13897115 81556943
L14570153 79556943
" />
<path d="M14254245 81556943
L13897115 81556943
" />
<path d="M14394773 81094511
L14254245 81556943
" />
<path d="M14914541 81094511
L14394773 81094511
" />
<path d="M15051697 81556943
L14914541 81094511
" />
<path d="M13712367 81556943
L12427001 81556943
" />
<path d="M13712367 81263520
L13712367 81556943
" />
<path d="M12777760 81263520
L13712367 81263520
" />
<path d="M12777760 80670303
L12777760 81263520
" />
<path d="M13553102 80670303
L12777760 80670303
" />
<path d="M13553102 80373507
L13553102 80670303
" />
<path d="M12777760 80373507
L13553102 80373507
" />
<path d="M12777760 79863108
L12777760 80373507
" />
<path d="M13722111 79863108
L12777760 79863108
" />
<path d="M13722111 79569684
L13722111 79863108
" />
<path d="M12427001 79569684
L13722111 79569684
" />
<path d="M12427001 81556943
L12427001 79569684
" />
<path d="M10851584 81556943
L10851584 79569684
" />
<path d="M12127582 81556943
L10851584 81556943
" />
<path d="M12127582 81263520
L12127582 81556943
" />
<path d="M11215459 81263520
L12127582 81263520
" />
<path d="M11215459 79716583
L11215459 81263520
" />
<path d="M11220134.276114 79641633.684622 A430376.000000 430376.000000 0.0 0 0 11215459.104288 79716582.997386" />
<path d="M11243932.456389 79598532.170197 A82634.000000 82634.000000 0.0 0 0 11220143.338592 79641635.069281" />
<path d="M11243939 79569684
L11243939 79598539
" />
<path d="M10851584 79569684
L11243939 79569684
" />
<path d="M10523310 81556943
L9237944 81556943
" />
<path d="M10523310 81263520
L10523310 81556943
" />
<path d="M9588702 81263520
L10523310 81263520
" />
<path d="M9588702 80670303
L9588702 81263520
" />
<path d="M10364044 80670303
L9588702 80670303
" />
<path d="M10364044 80373507
L10364044 80670303
" />
<path d="M9588702 80373507
L10364044 80373507
" />
<path d="M9588702 79863108
L9588702 80373507
" />
<path d="M10533053 79863108
L9588702 79863108
" />
<path d="M10533053 79569684
L10533053 79863108
" />
<path d="M9237944 79569684
L10533053 79569684
" />
<path d="M9237944 81556943
L9237944 79569684
" />
<path d="M7987803 79882219
L7987803 80430842
" />
<path d="M8278228 79882219
L7987803 79882219
" />
<path d="M8507766.534815 79965216.196428 A297339.000000 297339.000000 0.0 0 0 8278227.999697 79882218.996016" />
<path d="M8584394.387318 80162901.022684 A281432.000000 281432.000000 0.0 0 0 8507758.228060 79965224.784952" />
<path d="M8507762.489337 80359083.592832 A255739.000000 255739.000000 0.0 0 0 8584392.977099 80162901.001192" />
<path d="M8278228.067152 80430841.118024 A324979.000000 324979.000000 0.0 0 0 8507757.860762 80359078.828531" />
<path d="M7987803 80430842
L8278228 80430842
" />
<path d="M7987803 81556943
L7624303 81556943
" />
<path d="M7987803 80730636
L7987803 81556943
" />
<path d="M8227263 80730636
L7987803 80730636
" />
<path d="M8628987 81556943
L8227263 80730636
" />
<path d="M9008601 81556943
L8628987 81556943
" />
<path d="M8581395 80695785
L9008601 81556943
" />
<path d="M8581394.770874 80695784.385322 A535085.000000 535085.000000 0.0 0 0 8777384.871471 80568184.874525" />
<path d="M8777390.082186 80568190.032279 A616237.000000 616237.000000 0.0 0 0 8908169.934713 80372007.972744" />
<path d="M8908162.180076 80372004.622553 A562683.000000 562683.000000 0.0 0 0 8954263.926163 80153532.999392" />
<path d="M8954274.062155 80153533.446223 A556020.000000 556020.000000 0.0 0 0 8785255.198258 79729136.794915" />
<path d="M8785271.208293 79729116.433235 A755886.000000 755886.000000 0.0 0 0 8252746.011552 79569684.134562" />
<path d="M7624303 79569684
L8252746 79569684
" />
<path d="M7624303 81556943
L7624303 79569684
" />
<path d="M17161121 63553758
L17161121 61566499
" />
<path d="M17486398 63553758
L17161121 63553758
" />
<path d="M17486398 62159716
L17486398 63553758
" />
<path d="M18181920 63553758
L17486398 62159716
" />
<path d="M18516565 63553758
L18181920 63553758
" />
<path d="M18516565 61713398
L18516565 63553758
" />
<path d="M18521440.731618 61638450.742994 A414173.000000 414173.000000 0.0 0 0 18516565.186454 61713397.995182" />
<path d="M18542420.037395 61595352.322587 A95346.000000 95346.000000 0.0 0 0 18521435.907881 61638449.981421" />
<path d="M18542422 61566499
L18542422 61595354
" />
<path d="M18191288 61566499
L18542422 61566499
" />
<path d="M18210400 62874350
L18191288 61566499
" />
<path d="M17537363 61566499
L18210400 62874350
" />
<path d="M17161121 61566499
L17537363 61566499
" />
<path d="M16807365 63553758
L15671895 63553758
" />
<path d="M16807365 63263332
L16807365 63553758
" />
<path d="M16402268 63263332
L16807365 63263332
" />
<path d="M16402268 61856924
L16402268 63263332
" />
<path d="M16791251 61856924
L16402268 61856924
" />
<path d="M16791251 61566499
L16791251 61856924
" />
<path d="M15694005 61566499
L16791251 61566499
" />
<path d="M15694005 61856924
L15694005 61566499
" />
<path d="M16060878 61856924
L15694005 61856924
" />
<path d="M16060878 63263332
L16060878 61856924
" />
<path d="M15671895 63263332
L16060878 63263332
" />
<path d="M15671895 63553758
L15671895 63263332
" />
<path d="M14833222 62832753
L14651472 62220424
" />
<path d="M14466349 62832753
L14833222 62832753
" />
<path d="M14651472 62220424
L14466349 62832753
" />
<path d="M15410700 63553758
L15046825 63553758
" />
<path d="M14737663 61553758
L15410700 63553758
" />
<path d="M14565281 61553758
L14737663 61553758
" />
<path d="M13892244 63553758
L14565281 61553758
" />
<path d="M14249373 63553758
L13892244 63553758
" />
<path d="M14389902 63091326
L14249373 63553758
" />
<path d="M14909669 63091326
L14389902 63091326
" />
<path d="M15046825 63553758
L14909669 63091326
" />
<path d="M13213211 63553758
L12868822 63553758
" />
<path d="M13213211 61869666
L13213211 63553758
" />
<path d="M13777947 61869666
L13213211 61869666
" />
<path d="M13777947 61566499
L13777947 61869666
" />
<path d="M12332941 61566499
L13777947 61566499
" />
<path d="M12332941 61869666
L12332941 61566499
" />
<path d="M12868822 61869666
L12332941 61869666
" />
<path d="M12868822 63553758
L12868822 61869666
" />
<path d="M11436932.261546 63588977.356277 A840628.000000 840628.000000 0.0 0 0 11838655.913558 63504478.822855" />
<path d="M11838657.802031 63504482.557553 A551611.000000 551611.000000 0.0 0 0 12068373.324098 63286004.185135" />
<path d="M12068353.754153 63285993.157016 A570626.000000 570626.000000 0.0 0 0 12141821.630850 63008132.998555" />
<path d="M12141824.877990 63008133.061480 A605563.000000 605563.000000 0.0 0 0 12095541.866793 62762677.055395" />
<path d="M12095556.003497 62762670.374160 A500658.000000 500658.000000 0.0 0 0 11934401.924379 62569684.105650" />
<path d="M11934408.969067 62569674.350377 A1706123.000000 1706123.000000 0.0 0 0 11618682.195896 62389432.551720" />
<path d="M11349239.232032 62252281.539936 A1973345.000000 1973345.000000 0.0 0 0 11618682.183436 62389432.558963" />
<path d="M11232695.969300 62143977.698525 A354316.000000 354316.000000 0.0 0 0 11349241.892034 62252277.187567" />
<path d="M11203818.769426 62028930.638513 A229409.000000 229409.000000 0.0 0 0 11232697.162405 62143976.909705" />
<path d="M11280511.000290 61888826.715385 A176240.000000 176240.000000 0.0 0 0 11203841.800152 62028930.993909" />
<path d="M11487896.427173 61828079.567557 A325097.000000 325097.000000 0.0 0 0 11280477.055542 61888777.077224" />
<path d="M11649037.315431 61847175.907454 A603916.000000 603916.000000 0.0 0 0 11487896.991857 61828068.513340" />
<path d="M11778326.746368 61923998.227958 A308037.000000 308037.000000 0.0 0 0 11649035.905153 61847181.318420" />
<path d="M11821234.926247 61986020.820766 A200910.000000 200910.000000 0.0 0 0 11778321.934075 61924003.067083" />
<path d="M11832279.454303 62035302.643981 A240988.000000 240988.000000 0.0 0 0 11821229.534723 61986023.157063" />
<path d="M11857767 62054414
L11832285 62035302
" />
<path d="M11876879 62032304
L11857767 62054414
" />
<path d="M12087485 61789845
L11876879 62032304
" />
<path d="M12087487.955882 61789842.300890 A784597.000000 784597.000000 0.0 0 0 11484899.003213 61534646.108612" />
<path d="M11484898.907240 61534650.911233 A767786.000000 767786.000000 0.0 0 0 11156250.056310 61601725.125575" />
<path d="M11156246.562388 61601717.256835 A558091.000000 558091.000000 0.0 0 0 10931403.870291 61783474.905634" />
<path d="M10931406.293444 61783476.627783 A440961.000000 440961.000000 0.0 0 0 10850084.651625 62045045.005013" />
<path d="M10850090.309464 62045045.084071 A552979.000000 552979.000000 0.0 0 0 10901049.931342 62285817.031736" />
<path d="M10901050.626840 62285816.679765 A551755.000000 551755.000000 0.0 0 0 11071558.084891 62483680.881231" />
<path d="M11071553.608086 62483687.105238 A1599314.000000 1599314.000000 0.0 0 0 11395334.999482 62663745.001256" />
<path d="M11645852.467771 62797899.700559 A1859974.000000 1859974.000000 0.0 0 0 11395334.989528 62663745.023756" />
<path d="M11759015.773782 62911079.357304 A332938.000000 332938.000000 0.0 0 0 11645850.764088 62797902.391147" />
<path d="M11787700.638366 63030617.049202 A258004.000000 258004.000000 0.0 0 0 11759022.784792 62911075.110948" />
<path d="M11693611.192490 63223769.948653 A220045.000000 220045.000000 0.0 0 0 11787690.639871 63030617.020463" />
<path d="M11449671.786478 63289217.237967 A418532.000000 418532.000000 0.0 0 0 11693630.162284 63223797.254014" />
<path d="M11237380.012820 63250781.557335 A572921.000000 572921.000000 0.0 0 0 11449672.998575 63289189.863350" />
<path d="M11060311.327328 63152040.213460 A747026.000000 747026.000000 0.0 0 0 11237381.125405 63250778.679118" />
<path d="M11011054.470786 63092815.194308 A212314.000000 212314.000000 0.0 0 0 11060315.892709 63152034.128807" />
<path d="M10993620.342816 63043356.915462 A280341.000000 280341.000000 0.0 0 0 11011036.798064 63092825.093149" />
<path d="M10964756 63027619
L10993612 63043359
" />
<path d="M10952015 63053102
L10964756 63027619
" />
<path d="M10776636 63349523
L10952015 63053102
" />
<path d="M10776631.697974 63349527.133074 A697061.000000 697061.000000 0.0 0 0 11065186.885890 63529962.353535" />
<path d="M11065187.096539 63529961.710615 A1149013.000000 1149013.000000 0.0 0 0 11436932.001578 63588984.223007" />
<path d="M9867885.610245 63595363.669404 A688122.000000 688122.000000 0.0 0 0 10362358.150636 63413417.163177" />
<path d="M10362347.074771 63413407.074254 A746397.000000 746397.000000 0.0 0 0 10553664.468083 62848866.960582" />
<path d="M10553664 61566499
L10553664 62848867
" />
<path d="M10202905 61566499
L10553664 61566499
" />
<path d="M10202905 62851865
L10202905 61566499
" />
<path d="M10129431.674174 63183873.979278 A629087.000000 629087.000000 0.0 0 0 10202905.074848 62851864.995813" />
<path d="M9870886.927747 63301893.427472 A280011.000000 280011.000000 0.0 0 0 10129456.039531 63183887.027649" />
<path d="M9615872.085895 63183886.266744 A271768.000000 271768.000000 0.0 0 0 9870883.012415 63301931.112602" />
<path d="M9545576.394968 62861607.457024 A629422.000000 629422.000000 0.0 0 0 9615871.016014 63183886.991665" />
<path d="M9545607 61713398
L9545607 62861609
" />
<path d="M9550484.454382 61638450.856787 A414031.000000 414031.000000 0.0 0 0 9545607.233832 61713397.993956" />
<path d="M9571086.602186 61595351.172834 A97324.000000 97324.000000 0.0 0 0 9550478.641186 61638449.927990" />
<path d="M9571090 61566499
L9571090 61595354
" />
<path d="M9185105 61566499
L9571090 61566499
" />
<path d="M9185105 62858236
L9185105 61566499
" />
<path d="M9185107.312122 62858236.140154 A776846.000000 776846.000000 0.0 0 0 9362170.813792 63400675.154179" />
<path d="M9362149.900329 63400695.565900 A648856.000000 648856.000000 0.0 0 0 9867885.993482 63595353.897275" />
<path d="M8247873.449893 63588997.991424 A840647.000000 840647.000000 0.0 0 0 8649598.167987 63504479.344213" />
<path d="M8649588.600125 63504460.438531 A551560.000000 551560.000000 0.0 0 0 8879314.769813 63286003.868494" />
<path d="M8879301.336304 63285996.302614 A570669.000000 570669.000000 0.0 0 0 8952764.631179 63008132.998557" />
<path d="M8952763.888708 63008132.976262 A605602.000000 605602.000000 0.0 0 0 8906484.069388 62762676.971147" />
<path d="M8906486.284123 62762675.919354 A500683.000000 500683.000000 0.0 0 0 8745344.907578 62569684.129103" />
<path d="M8745340.780100 62569689.842352 A1706048.000000 1706048.000000 0.0 0 0 8429624.120988 62389432.723171" />
<path d="M8160189.672882 62252269.336563 A1973275.000000 1973275.000000 0.0 0 0 8429624.161766 62389432.611115" />
<path d="M8043627.716101 62143985.326251 A354294.000000 354294.000000 0.0 0 0 8160185.166627 62252276.710452" />
<path d="M8014806.347070 62028931.341549 A229323.000000 229323.000000 0.0 0 0 8043640.017916 62143976.990046" />
<path d="M8091439.317889 61888806.691609 A176297.000000 176297.000000 0.0 0 0 8014784.773717 62028930.993106" />
<path d="M8298840.432401 61828042.487547 A325131.000000 325131.000000 0.0 0 0 8091418.979279 61888776.971200" />
<path d="M8459976.437557 61847187.047142 A603915.000000 603915.000000 0.0 0 0 8298838.996870 61828068.812133" />
<path d="M8589256.822838 61924011.219767 A308049.000000 308049.000000 0.0 0 0 8459977.907268 61847181.311171" />
<path d="M8632169.398419 61986024.592866 A200940.000000 200940.000000 0.0 0 0 8589264.834574 61924003.168282" />
<path d="M8643220.739385 62035302.726871 A241029.000000 241029.000000 0.0 0 0 8632172.779436 61986023.074441" />
<path d="M8668710 62054414
L8643227 62035302
" />
<path d="M8687822 62032304
L8668710 62054414
" />
<path d="M8898427 61789845
L8687822 62032304
" />
<path d="M8898406.313235 61789863.888379 A784596.000000 784596.000000 0.0 0 0 8295840.996098 61534645.867876" />
<path d="M8295841.379575 61534625.822594 A767810.000000 767810.000000 0.0 0 0 7967191.947179 61601724.882227" />
<path d="M7967195.849002 61601733.671424 A558056.000000 558056.000000 0.0 0 0 7742347.055422 61783475.040324" />
<path d="M7742355.764049 61783481.221070 A440918.000000 440918.000000 0.0 0 0 7661027.656077 62045045.004950" />
<path d="M7661029.315355 62045045.020829 A552940.000000 552940.000000 0.0 0 0 7711992.902602 62285817.045024" />
<path d="M7712008.552613 62285809.055526 A551789.000000 551789.000000 0.0 0 0 7882499.927087 62483681.101992" />
<path d="M7882502.540328 62483677.468888 A1599336.000000 1599336.000000 0.0 0 0 8206277.903072 62663745.234821" />
<path d="M8456795.273885 62797898.437704 A1859860.000000 1859860.000000 0.0 0 0 8206278.189426 62663744.570268" />
<path d="M8569975.472270 62911068.684089 A332909.000000 332909.000000 0.0 0 0 8456793.255314 62797901.576542" />
<path d="M8598638.638966 63030617.028781 A258042.000000 258042.000000 0.0 0 0 8569965.378765 62911074.804767" />
<path d="M8504564.152183 63223784.278301 A220087.000000 220087.000000 0.0 0 0 8598632.707386 63030617.016623" />
<path d="M8260616.280182 63289183.730388 A418501.000000 418501.000000 0.0 0 0 8504572.992709 63223796.988585" />
<path d="M8048317.077964 63250796.935595 A572922.000000 572922.000000 0.0 0 0 8260616.004341 63289190.413409" />
<path d="M7871261.658851 63152029.135292 A747047.000000 747047.000000 0.0 0 0 8048324.034408 63250778.911975" />
<path d="M7821963.879448 63092834.058667 A212364.000000 212364.000000 0.0 0 0 7871257.878346 63152034.146185" />
<path d="M7804550.238413 63043359.941054 A280434.000000 280434.000000 0.0 0 0 7821980.391220 63092824.819424" />
<path d="M7775699 63027619
L7804554 63043359
" />
<path d="M7762958 63053102
L7775699 63027619
" />
<path d="M7587578 63349523
L7762958 63053102
" />
<path d="M7587573.053842 63349527.752345 A697173.000000 697173.000000 0.0 0 0 7876130.093065 63529961.711700" />
<path d="M7876125.790987 63529974.618379 A1149013.000000 1149013.000000 0.0 0 0 8247873.999466 63588983.924997" />
<path d="M16418569 45555257
L16058067 45555257
" />
<path d="M16418569 44773919
L16418569 45555257
" />
<path d="M16963820 43567998
L16418569 44773919
" />
<path d="M16609688 43567998
L16963820 43567998
" />
<path d="M16246188 44397303
L16609688 43567998
" />
<path d="M15834721 43567998
L16246188 44397303
" />
<path d="M15464850 43567998
L15834721 43567998
" />
<path d="M16058067 44770546
L15464850 43567998
" />
<path d="M16058067 45555257
L16058067 44770546
" />
<path d="M14795185 44834252
L14613435 44221923
" />
<path d="M14428313 44834252
L14795185 44834252
" />
<path d="M14613435 44221923
L14428313 44834252
" />
<path d="M15372663 45555257
L15008789 45555257
" />
<path d="M14699626 43555257
L15372663 45555257
" />
<path d="M14527245 43555257
L14699626 43555257
" />
<path d="M13854207 45555257
L14527245 43555257
" />
<path d="M14211337 45555257
L13854207 45555257
" />
<path d="M14351865 45092825
L14211337 45555257
" />
<path d="M14871633 45092825
L14351865 45092825
" />
<path d="M15008789 45555257
L14871633 45092825
" />
<path d="M13111468.339203 45590467.649564 A792689.000000 792689.000000 0.0 0 0 13467098.966051 45515533.927696" />
<path d="M13467088.346212 45515514.061113 A658413.000000 658413.000000 0.0 0 0 13730168.246157 45258461.138953" />
<path d="M13481339 45073713
L13730168 45258461
" />
<path d="M13325071.914764 45242723.411931 A465798.000000 465798.000000 0.0 0 0 13481339.193205 45073713.104690" />
<path d="M13120836.718599 45293697.906255 A394029.000000 394029.000000 0.0 0 0 13325070.876074 45242721.781024" />
<path d="M12803576.527077 45097530.515093 A369906.000000 369906.000000 0.0 0 0 13120836.987762 45293687.483344" />
<path d="M12677496.775802 44556941.964445 A993842.000000 993842.000000 0.0 0 0 12803616.777670 45097509.125016" />
<path d="M12742921.869964 44156535.740062 A1068735.000000 1068735.000000 0.0 0 0 12677515.940272 44556943.001736" />
<path d="M12915122.854803 43912597.929328 A573299.000000 573299.000000 0.0 0 0 12742909.422252 44156531.154744" />
<path d="M13143320.954926 43829563.524060 A365355.000000 365355.000000 0.0 0 0 12915102.924308 43912573.907847" />
<path d="M13301084.556601 43859930.514916 A416335.000000 416335.000000 0.0 0 0 13143321.001555 43829568.385552" />
<path d="M13446474.415045 43973104.748001 A387606.000000 387606.000000 0.0 0 0 13301088.068511 43859921.847209" />
<path d="M13479832.702617 44041674.750173 A414354.000000 414354.000000 0.0 0 0 13446487.707241 43973094.177368" />
<path d="M13484693.549271 44088137.839665 A103679.000000 103679.000000 0.0 0 0 13479839.614462 44041672.132634" />
<path d="M13500451 44113623
L13484711 44088140
" />
<path d="M13525933 44097509
L13500451 44113623
" />
<path d="M13752652 43928500
L13525933 44097509
" />
<path d="M13752643.902965 43928503.487519 A641577.000000 641577.000000 0.0 0 0 13508507.810375 43641447.297180" />
<path d="M13508501.932786 43641456.988051 A703244.000000 703244.000000 0.0 0 0 13124208.997347 43539517.902822" />
<path d="M13124209.092092 43539535.372802 A809476.000000 809476.000000 0.0 0 0 12841840.946204 43591980.857935" />
<path d="M12841845.000171 43591991.533944 A719579.000000 719579.000000 0.0 0 0 12581957.178615 43762489.174063" />
<path d="M12581957.999603 43762489.948444 A846594.000000 846594.000000 0.0 0 0 12392150.232238 44079896.076639" />
<path d="M12392150.860400 44079896.280540 A1466807.000000 1466807.000000 0.0 0 0 12320387.435304 44572681.988695" />
<path d="M12320396.478476 44572682.335867 A1355954.000000 1355954.000000 0.0 0 0 12427187.827151 45150160.073312" />
<path d="M12427173.748309 45150166.177723 A739640.000000 739640.000000 0.0 0 0 12714240.943069 45483494.091235" />
<path d="M12714251.015887 45483477.130599 A763817.000000 763817.000000 0.0 0 0 13111468.004000 45590482.420331" />
<path d="M12074931 45555257
L10789564 45555257
" />
<path d="M12074931 45261833
L12074931 45555257
" />
<path d="M11140323 45261833
L12074931 45261833
" />
<path d="M11140323 44668616
L11140323 45261833
" />
<path d="M11915665 44668616
L11140323 44668616
" />
<path d="M11915665 44371820
L11915665 44668616
" />
<path d="M11140323 44371820
L11915665 44371820
" />
<path d="M11140323 43861421
L11140323 44371820
" />
<path d="M12084674 43861421
L11140323 43861421
" />
<path d="M12084674 43567998
L12084674 43861421
" />
<path d="M10789564 43567998
L12084674 43567998
" />
<path d="M10789564 45555257
L10789564 43567998
" />
<path d="M9517314 43855051
L9517314 45274575
" />
<path d="M9667211 43855051
L9517314 43855051
" />
<path d="M9979750.484170 43944420.618199 A495812.000000 495812.000000 0.0 0 0 9667210.978652 43855050.615545" />
<path d="M10140723.003546 44196434.719914 A471940.000000 471940.000000 0.0 0 0 9979745.994907 43944427.006298" />
<path d="M10186974.270562 44579052.919090 A1406180.000000 1406180.000000 0.0 0 0 10140697.650925 44196441.092053" />
<path d="M10136005.313026 44945923.190711 A1065395.000000 1065395.000000 0.0 0 0 10186979.217977 44579052.992006" />
<path d="M9958941.237095 45188374.544159 A478467.000000 478467.000000 0.0 0 0 10136014.238336 44945926.076788" />
<path d="M9631984.463476 45274585.757007 A558379.000000 558379.000000 0.0 0 0 9958948.201238 45188384.317170" />
<path d="M9517314 45274575
L9631985 45274575
" />
<path d="M9641728 45555257
L9166180 45555257
" />
<path d="M9641729.080476 45555232.307442 A982972.000000 982972.000000 0.0 0 0 10153438.815289 45437212.659528" />
<path d="M10153453.488111 45437237.081734 A698625.000000 698625.000000 0.0 0 0 10442178.240273 45097509.095871" />
<path d="M10442167.747192 45097504.969301 A1427010.000000 1427010.000000 0.0 0 0 10541109.849677 44576054.999931" />
<path d="M10541098.674324 44576054.855653 A1432415.000000 1432415.000000 0.0 0 0 10485274.229817 44161401.933817" />
<path d="M10485282.638115 44161399.516213 A1038211.000000 1038211.000000 0.0 0 0 10330504.827320 43842309.124131" />
<path d="M10330493.995486 43842317.242023 A680905.000000 680905.000000 0.0 0 0 10086547.868382 43639761.267015" />
<path d="M10086547.328289 43639762.600303 A934679.000000 934679.000000 0.0 0 0 9679951.979580 43567997.574925" />
<path d="M9166180 43567998
L9679952 43567998
" />
<path d="M9166180 45555257
L9166180 43567998
" />
<path d="M17405453 27567998
L16850460 26655875
" />
<path d="M17816921 27551884
L17405453 27567998
" />
<path d="M17105660 26400675
L17816921 27551884
" />
<path d="M17778697 25567998
L17105660 26400675
" />
<path d="M17612686 25567998
L17778697 25567998
" />
<path d="M17501013 25564813
L17612686 25567998
" />
<path d="M17379971.052945 25548885.780833 A575888.000000 575888.000000 0.0 0 0 17501012.994456 25564813.224981" />
<path d="M16719675 26381564
L17379971 25548886
" />
<path d="M16719675 25714897
L16719675 26381564
" />
<path d="M16722856.704906 25639947.662720 A630018.000000 630018.000000 0.0 0 0 16719674.524298 25714897.008154" />
<path d="M16745167.446291 25596864.022406 A73897.000000 73897.000000 0.0 0 0 16722860.252437 25639948.036419" />
<path d="M16745157 25567998
L16745157 25596853
" />
<path d="M16365543 25567998
L16745157 25567998
" />
<path d="M16365543 27555257
L16365543 25567998
" />
<path d="M16719675 27555257
L16365543 27555257
" />
<path d="M16719675 26827882
L16719675 27555257
" />
<path d="M16850460 26655875
L16719675 26827882
" />
<path d="M15542984.188328 27590474.025706 A792695.000000 792695.000000 0.0 0 0 15898613.806568 27515533.588042" />
<path d="M15898606.612221 27515520.174216 A658427.000000 658427.000000 0.0 0 0 16161684.304168 27258461.171695" />
<path d="M15912855 27073713
L16161684 27258461
" />
<path d="M15756590.796744 27242727.859878 A465812.000000 465812.000000 0.0 0 0 15912855.133778 27073713.072486" />
<path d="M15552351.503015 27293706.290097 A394037.000000 394037.000000 0.0 0 0 15756586.934821 27242721.884838" />
<path d="M15235080.935942 27097536.678207 A369905.000000 369905.000000 0.0 0 0 15552352.003465 27293686.862917" />
<path d="M15109010.801828 26556941.858094 A993828.000000 993828.000000 0.0 0 0 15235132.824406 27097509.098738" />
<path d="M15174438.795137 26156536.080888 A1068719.000000 1068719.000000 0.0 0 0 15109031.947021 26556943.001540" />
<path d="M15346622.662705 25912578.413339 A573378.000000 573378.000000 0.0 0 0 15174425.301398 26156531.110437" />
<path d="M15574837.053770 25829573.362797 A365345.000000 365345.000000 0.0 0 0 15346618.825765 25912573.787861" />
<path d="M15732598.307184 25859936.075884 A416335.000000 416335.000000 0.0 0 0 15574837.001284 25829568.321335" />
<path d="M15877985.279572 25973108.810250 A387612.000000 387612.000000 0.0 0 0 15732603.844843 25859922.345991" />
<path d="M15911347.792954 26041675.092871 A414368.000000 414368.000000 0.0 0 0 15878003.977060 25973094.013898" />
<path d="M15916209.669507 26088137.854883 A103695.000000 103695.000000 0.0 0 0 15911356.437293 26041671.849586" />
<path d="M15931966 26113623
L15916227 26088140
" />
<path d="M15957449 26097509
L15931966 26113623
" />
<path d="M16184168 25928500
L15957449 26097509
" />
<path d="M16184153.754086 25928506.135770 A641585.000000 641585.000000 0.0 0 0 15940022.773410 25641447.355097" />
<path d="M15940012.370203 25641464.498408 A703243.000000 703243.000000 0.0 0 0 15555725.012715 25539518.466166" />
<path d="M15555724.901754 25539499.824401 A809412.000000 809412.000000 0.0 0 0 15273357.029514 25591981.077908" />
<path d="M15273350.285861 25591963.324975 A719639.000000 719639.000000 0.0 0 0 15013473.293866 25762489.286331" />
<path d="M15013476.461110 25762492.284055 A846579.000000 846579.000000 0.0 0 0 14823666.047971 26079896.015831" />
<path d="M14823667.609771 26079896.524884 A1466791.000000 1466791.000000 0.0 0 0 14751903.440695 26572681.988554" />
<path d="M14751911.489132 26572682.300813 A1355939.000000 1355939.000000 0.0 0 0 14858704.075871 27150159.967820" />
<path d="M14858684.536827 27150168.436960 A739631.000000 739631.000000 0.0 0 0 15145757.223567 27483493.641708" />
<path d="M15145762.845573 27483484.154107 A763817.000000 763817.000000 0.0 0 0 15542984.002555 27590482.267924" />
<path d="M14037644 26834252
L13855894 26221923
" />
<path d="M13670771 26834252
L14037644 26834252
" />
<path d="M13855894 26221923
L13670771 26834252
" />
<path d="M14615122 27555257
L14251247 27555257
" />
<path d="M13942085 25555257
L14615122 27555257
" />
<path d="M13769703 25555257
L13942085 25555257
" />
<path d="M13096666 27555257
L13769703 25555257
" />
<path d="M13453795 27555257
L13096666 27555257
" />
<path d="M13594324 27092825
L13453795 27555257
" />
<path d="M14114091 27092825
L13594324 27092825
" />
<path d="M14251247 27555257
L14114091 27092825
" />
<path d="M12417633 27555257
L12073244 27555257
" />
<path d="M12417633 25871165
L12417633 27555257
" />
<path d="M12982369 25871165
L12417633 25871165
" />
<path d="M12982369 25567998
L12982369 25871165
" />
<path d="M11537363 25567998
L12982369 25567998
" />
<path d="M11537363 25871165
L11537363 25567998
" />
<path d="M12073244 25871165
L11537363 25871165
" />
<path d="M12073244 27555257
L12073244 25871165
" />
<path d="M10823104 27555257
L10478716 27555257
" />
<path d="M10823104 25871165
L10823104 27555257
" />
<path d="M11387841 25871165
L10823104 25871165
" />
<path d="M11387841 25567998
L11387841 25871165
" />
<path d="M9942834 25567998
L11387841 25567998
" />
<path d="M9942834 25871165
L9942834 25567998
" />
<path d="M10478716 25871165
L9942834 25871165
" />
<path d="M10478716 27555257
L10478716 25871165
" />
<path d="M9254058 26834252
L9072307 26221923
" />
<path d="M8887185 26834252
L9254058 26834252
" />
<path d="M9072307 26221923
L8887185 26834252
" />
<path d="M9831536 27555257
L9467661 27555257
" />
<path d="M9158498 25555257
L9831536 27555257
" />
<path d="M8986117 25555257
L9158498 25555257
" />
<path d="M8313079 27555257
L8986117 25555257
" />
<path d="M8670209 27555257
L8313079 27555257
" />
<path d="M8810737 27092825
L8670209 27555257
" />
<path d="M9330505 27092825
L8810737 27092825
" />
<path d="M9467661 27555257
L9330505 27092825
" />
<path d="M16151378 10315796
L16151378 10924753
" />
<path d="M16377723 10315796
L16151378 10315796
" />
<path d="M16707876.101118 10404977.998788 A477989.000000 477989.000000 0.0 0 0 16377723.002154 10315796.021045" />
<path d="M16801896.468288 10637698.667649 A306024.000000 306024.000000 0.0 0 0 16707871.333439 10404984.652164" />
<path d="M16701470.742786 10851451.309767 A248032.000000 248032.000000 0.0 0 0 16801930.901106 10637700.005631" />
<path d="M16432060.489859 10924743.536173 A447642.000000 447642.000000 0.0 0 0 16701499.974485 10851490.961278" />
<path d="M16151378 10924753
L16432060 10924753
" />
<path d="M16151378 9524715
L16151378 10028744
" />
<path d="M16400207 9524715
L16151378 9524715
" />
<path d="M16655225.914871 9591596.839317 A394094.000000 394094.000000 0.0 0 0 16400206.984163 9524714.813200" />
<path d="M16734824.517152 9767173.121011 A218136.000000 218136.000000 0.0 0 0 16655218.847695 9591607.185506" />
<path d="M16656717.313443 9956980.261421 A245457.000000 245457.000000 0.0 0 0 16734852.151975 9767173.993787" />
<path d="M16368350.864200 10028773.469109 A433306.000000 433306.000000 0.0 0 0 16656717.964318 9956980.947168" />
<path d="M16151378 10028744
L16368354 10028744
" />
<path d="M16393836 11221549
L15790876 11221549
" />
<path d="M16393837.841311 11221524.938817 A916898.000000 916898.000000 0.0 0 0 16982181.974551 11063594.962871" />
<path d="M16982176.773120 11063588.422580 A511417.000000 511417.000000 0.0 0 0 17175174.201857 10647442.993778" />
<path d="M17175143.973161 10647443.010267 A459144.000000 459144.000000 0.0 0 0 17077929.202645 10365074.841813" />
<path d="M17077948.539144 10365060.029660 A629316.000000 629316.000000 0.0 0 0 16818045.038736 10165898.905943" />
<path d="M16818040.489267 10165887.118908 A406665.000000 406665.000000 0.0 0 0 17026964.079805 9987147.045509" />
<path d="M17026954.613061 9987141.334261 A499165.000000 499165.000000 0.0 0 0 17098727.481464 9735320.005903" />
<path d="M17098774.297313 9735320.981884 A444270.000000 444270.000000 0.0 0 0 16926345.020593 9374630.973366" />
<path d="M16926328.924399 9374654.723172 A829687.000000 829687.000000 0.0 0 0 16396834.014820 9234290.191359" />
<path d="M15790876 9234290
L16396834 9234290
" />
<path d="M15790876 11221549
L15790876 9234290
" />
<path d="M13364044.009810 11256760.684679 A1161861.000000 1161861.000000 0.0 0 0 13689508.078971 11210494.271403" />
<path d="M13689511.366373 11210505.232460 A871908.000000 871908.000000 0.0 0 0 13992487.117323 11049167.142891" />
<path d="M13992487 10197752
L13992487 11049167
" />
<path d="M13338562 10197752
L13992487 10197752
" />
<path d="M13338562 10497546
L13338562 10197752
" />
<path d="M13667211 10497546
L13338562 10497546
" />
<path d="M13667211 10864419
L13667211 10497546
" />
<path d="M13522002.751504 10942570.324201 A367872.000000 367872.000000 0.0 0 0 13667211.136283 10864419.155451" />
<path d="M13364043.998818 10963345.983044 A611446.000000 611446.000000 0.0 0 0 13521998.056433 10942553.210834" />
<path d="M13043640.908635 10775042.488655 A369555.000000 369555.000000 0.0 0 0 13364043.998702 10963351.289654" />
<path d="M12920744.636912 10204124.392305 A1058857.000000 1058857.000000 0.0 0 0 13043639.689668 10775043.166090" />
<path d="M12982940.289617 9790973.239481 A1129232.000000 1129232.000000 0.0 0 0 12920724.337650 10204122.987636" />
<path d="M13148741.665162 9569291.316766 A455569.000000 455569.000000 0.0 0 0 12982931.210627 9790970.072969" />
<path d="M13370414.994382 9502223.101364 A400677.000000 400677.000000 0.0 0 0 13148754.870598 9569309.805504" />
<path d="M13557218.031626 9540466.527835 A396699.000000 396699.000000 0.0 0 0 13370415.012433 9502231.304492" />
<path d="M13682952.951258 9642756.537752 A423717.000000 423717.000000 0.0 0 0 13557224.156886 9540453.706270" />
<path d="M13723032.262430 9707970.529873 A243526.000000 243526.000000 0.0 0 0 13682950.220516 9642758.810869" />
<path d="M13734288.532547 9757430.192617 A273313.000000 273313.000000 0.0 0 0 13723047.741242 9707964.084712" />
<path d="M13756400 9779915
L13734290 9757430
" />
<path d="M13775512 9757430
L13756400 9779915
" />
<path d="M13986117 9550198
L13775512 9757430
" />
<path d="M13986131.197439 9550190.418648 A616738.000000 616738.000000 0.0 0 0 13726233.215290 9293311.585240" />
<path d="M13726223.865787 9293329.032011 A765570.000000 765570.000000 0.0 0 0 13361046.001520 9202437.347048" />
<path d="M13361045.888083 9202432.072176 A830382.000000 830382.000000 0.0 0 0 13115214.984631 9245531.954299" />
<path d="M13115210.575340 9245518.684630 A716330.000000 716330.000000 0.0 0 0 12852145.807143 9401799.793517" />
<path d="M12852130.870533 9401784.127261 A833342.000000 833342.000000 0.0 0 0 12644914.450547 9717520.165592" />
<path d="M12644900.770994 9717515.272151 A1406331.000000 1406331.000000 0.0 0 0 12563594.788722 10235976.006790" />
<path d="M12563581.555413 10235975.718744 A1387722.000000 1387722.000000 0.0 0 0 12659153.587646 10771858.161788" />
<path d="M12659147.259726 10771860.631900 A802414.000000 802414.000000 0.0 0 0 12934964.172038 11129174.763202" />
<path d="M12934978.319836 11129154.234396 A723309.000000 723309.000000 0.0 0 0 13364043.995045 11256773.805726" />
<path d="M12337250 11221549
L11051884 11221549
" />
<path d="M12337250 10928125
L12337250 11221549
" />
<path d="M11402643 10928125
L12337250 10928125
" />
<path d="M11402643 10334908
L11402643 10928125
" />
<path d="M12177985 10334908
L11402643 10334908
" />
<path d="M12177985 10038112
L12177985 10334908
" />
<path d="M11402643 10038112
L12177985 10038112
" />
<path d="M11402643 9527713
L11402643 10038112
" />
<path d="M12346994 9527713
L11402643 9527713
" />
<path d="M12346994 9234290
L12346994 9527713
" />
<path d="M11051884 9234290
L12346994 9234290
" />
<path d="M11051884 11221549
L11051884 9234290
" />
<path d="M8207215 9546825
L8207215 10095448
" />
<path d="M8497640 9546825
L8207215 9546825
" />
<path d="M8727170.346983 9629829.642120 A297332.000000 297332.000000 0.0 0 0 8497640.007783 9546825.102285" />
<path d="M8803799.291721 9827506.906547 A281437.000000 281437.000000 0.0 0 0 8727170.009267 9629829.991263" />
<path d="M8727174.014931 10023689.107348 A255751.000000 255751.000000 0.0 0 0 8803805.304820 9827506.984135" />
<path d="M8497639.541411 10095454.026149 A324991.000000 324991.000000 0.0 0 0 8727169.720640 10023684.655986" />
<path d="M8207215 10095448
L8497640 10095448
" />
<path d="M8207215 11221549
L7843715 11221549
" />
<path d="M8207215 10395242
L8207215 11221549
" />
<path d="M8446675 10395242
L8207215 10395242
" />
<path d="M8848399 11221549
L8446675 10395242
" />
<path d="M9228013 11221549
L8848399 11221549
" />
<path d="M8800807 10360391
L9228013 11221549
" />
<path d="M8800807.883878 10360393.371065 A535098.000000 535098.000000 0.0 0 0 8996797.030298 10232791.029578" />
<path d="M8996802.260781 10232796.209050 A616250.000000 616250.000000 0.0 0 0 9127581.934716 10036612.972745" />
<path d="M9127572.345001 10036608.829983 A562694.000000 562694.000000 0.0 0 0 9173674.885347 9818137.999055" />
<path d="M9173676.859483 9818138.082477 A556023.000000 556023.000000 0.0 0 0 9004665.967701 9393743.033409" />
<path d="M9004676.578175 9393729.577765 A755879.000000 755879.000000 0.0 0 0 8472158.011179 9234290.130245" />
<path d="M7843715 9234290
L8472158 9234290
" />
<path d="M7843715 11221549
L7843715 9234290
" />
<path d="M6877629.227179 11256768.229843 A840619.000000 840619.000000 0.0 0 0 7279353.090737 11172270.185945" />
<path d="M7279355.879471 11172275.684590 A551604.000000 551604.000000 0.0 0 0 7509070.384014 10953795.219355" />
<path d="M7509054.266351 10953786.135997 A570623.000000 570623.000000 0.0 0 0 7582518.665975 10675923.998698" />
<path d="M7582526.068500 10675924.150893 A605564.000000 605564.000000 0.0 0 0 7536238.802305 10430467.082217" />
<path d="M7536257.011944 10430458.477085 A500664.000000 500664.000000 0.0 0 0 7375099.173254 10237474.757940" />
<path d="M7375106.823993 10237464.166512 A1706130.000000 1706130.000000 0.0 0 0 7059379.177606 10057223.593569" />
<path d="M6789939.947404 9920066.446136 A1973692.000000 1973692.000000 0.0 0 0 7059379.047339 10057223.886194" />
<path d="M6673396.640129 9811766.210834 A354309.000000 354309.000000 0.0 0 0 6789939.239556 9920067.583845" />
<path d="M6644520.908657 9696721.717778 A229407.000000 229407.000000 0.0 0 0 6673394.379867 9811767.788819" />
<path d="M6721166.555191 9556557.121300 A176240.000000 176240.000000 0.0 0 0 6644539.049924 9696722.001496" />
<path d="M6928593.436787 9495870.392265 A325106.000000 325106.000000 0.0 0 0 6721174.089498 9556568.124437" />
<path d="M7089734.574549 9514965.904093 A603925.000000 603925.000000 0.0 0 0 6928593.992674 9495859.562268" />
<path d="M7219026.379631 9591786.580043 A308045.000000 308045.000000 0.0 0 0 7089732.971066 9514972.097144" />
<path d="M7261906.811268 9653822.921075 A200843.000000 200843.000000 0.0 0 0 7219018.932715 9591794.068426" />
<path d="M7272979.376349 9703093.304768 A240989.000000 240989.000000 0.0 0 0 7261927.447796 9653813.848819" />
<path d="M7298464 9722204
L7272982 9703093
" />
<path d="M7317576 9700095
L7298464 9722204
" />
<path d="M7528182 9457636
L7317576 9700095
" />
<path d="M7528188.756310 9457629.830460 A784606.000000 784606.000000 0.0 0 0 6925596.005721 9202437.193356" />
<path d="M6925595.927239 9202440.853171 A767796.000000 767796.000000 0.0 0 0 6596946.827032 9269515.614269" />
<path d="M6596944.147955 9269509.575785 A558099.000000 558099.000000 0.0 0 0 6372100.644405 9451265.741293" />
<path d="M6372107.089899 9451270.322452 A440964.000000 440964.000000 0.0 0 0 6290781.521919 9712836.006870" />
<path d="M6290791.451130 9712836.149805 A552978.000000 552978.000000 0.0 0 0 6341746.883279 9953608.053950" />
<path d="M6341750.812411 9953606.052428 A551750.000000 551750.000000 0.0 0 0 6512254.749117 10151472.350993" />
<path d="M6512251.452433 10151476.931454 A1599307.000000 1599307.000000 0.0 0 0 6836031.932832 10331536.162737" />
<path d="M7086546.410980 10465695.489255 A1859890.000000 1859890.000000 0.0 0 0 6836032.182590 10331535.585804" />
<path d="M7199716.546288 10578867.082681 A332945.000000 332945.000000 0.0 0 0 7086548.199223 10465692.669668" />
<path d="M7228402.684050 10698408.074448 A258006.000000 258006.000000 0.0 0 0 7199719.859465 10578865.072458" />
<path d="M7134312.246386 10891566.780031 A220043.000000 220043.000000 0.0 0 0 7228388.123506 10698407.992977" />
<path d="M6890368.837115 10957007.096631 A418522.000000 418522.000000 0.0 0 0 7134326.731278 10891587.579389" />
<path d="M6678080.570704 10918564.931895 A572812.000000 572812.000000 0.0 0 0 6890369.998840 10956980.888698" />
<path d="M6501009.896070 10819829.127344 A747018.000000 747018.000000 0.0 0 0 6678078.912113 10918569.224877" />
<path d="M6451729.818574 10760618.348894 A212386.000000 212386.000000 0.0 0 0 6501012.795749 10819825.245342" />
<path d="M6434319.020342 10711147.496674 A280340.000000 280340.000000 0.0 0 0 6451733.756759 10760616.112192" />
<path d="M6405453 10695410
L6434309 10711150
" />
<path d="M6392712 10720893
L6405453 10695410
" />
<path d="M6217333 11017314
L6392712 10720893
" />
<path d="M6217332.251804 11017314.718794 A697052.000000 697052.000000 0.0 0 0 6505884.010280 11197751.968151" />
<path d="M6505886.186389 11197745.446823 A1148903.000000 1148903.000000 0.0 0 0 6877629.001709 11256774.241482" />
<path d="M4996047 9521343
L4996047 10940867
" />
<path d="M5145944 9521343
L4996047 9521343
" />
<path d="M5458472.262261 9610728.588124 A495818.000000 495818.000000 0.0 0 0 5145943.987495 9521342.774519" />
<path d="M5619449.258355 9862728.414101 A471967.000000 471967.000000 0.0 0 0 5458479.013248 9610718.983618" />
<path d="M5665712.396834 10245345.006787 A1406118.000000 1406118.000000 0.0 0 0 5619431.371434 9862732.902044" />
<path d="M5614737.562244 10612214.947787 A1065328.000000 1065328.000000 0.0 0 0 5665711.879937 10245345.004404" />
<path d="M5437683.724705 10854679.809131 A478496.000000 478496.000000 0.0 0 0 5614747.279169 10612218.089932" />
<path d="M5110717.435056 10940898.414186 A558390.000000 558390.000000 0.0 0 0 5437681.241208 10854676.380118" />
<path d="M4996047 10940867
L5110719 10940867
" />
<path d="M5120462 11221549
L4644914 11221549
" />
<path d="M5120462.228806 11221543.766911 A982982.000000 982982.000000 0.0 0 0 5632173.205403 11103505.378583" />
<path d="M5632175.052140 11103508.411590 A698560.000000 698560.000000 0.0 0 0 5920911.557556 10763800.823448" />
<path d="M5920913.116961 10763801.439061 A1427144.000000 1427144.000000 0.0 0 0 6019843.853340 10242346.999934" />
<path d="M6019843.288737 10242346.990959 A1432479.000000 1432479.000000 0.0 0 0 5964007.024417 9827693.992968" />
<path d="M5964027.343608 9827688.149882 A1038161.000000 1038161.000000 0.0 0 0 5809237.609759 9508601.280550" />
<path d="M5809248.468953 9508593.157977 A680883.000000 680883.000000 0.0 0 0 5565281.064701 9306052.868709" />
<path d="M5565274.851843 9306067.646349 A934685.000000 934685.000000 0.0 0 0 5158685.996857 9234289.934530" />
<path d="M4644914 9234290
L5158686 9234290
" />
<path d="M4644914 11221549
L4644914 9234290
" />
<path d="M3895804 10500544
L3714054 9888215
" />
<path d="M3528931 10500544
L3895804 10500544
" />
<path d="M3714054 9888215
L3528931 10500544
" />
<path d="M4473282 11221549
L4109407 11221549
" />
<path d="M3800245 9221549
L4473282 11221549
" />
<path d="M3627863 9221549
L3800245 9221549
" />
<path d="M2954826 11221549
L3627863 9221549
" />
<path d="M3311955 11221549
L2954826 11221549
" />
<path d="M3452484 10759117
L3311955 11221549
" />
<path d="M3972251 10759117
L3452484 10759117
" />
<path d="M4109407 11221549
L3972251 10759117
" />
<path d="M12840904 7892337
L12531367 7892337
" />
<path d="M12840904 6508039
L12840904 7892337
" />
<path d="M13134327 7235414
L12840904 6508039
" />
<path d="M13309707 7235414
L13134327 7235414
" />
<path d="M13622242 6504666
L13309707 7235414
" />
<path d="M13622242 7892337
L13622242 6504666
" />
<path d="M13935152 7892337
L13622242 7892337
" />
<path d="M13935152 5902081
L13935152 7892337
" />
<path d="M13619244 5902081
L13935152 5902081
" />
<path d="M13233259 6817576
L13619244 5902081
" />
<path d="M12847275 5905079
L13233259 6817576
" />
<path d="M12531367 5905079
L12847275 5905079
" />
<path d="M12531367 7892337
L12531367 5905079
" />
<path d="M12282913 7892337
L10997546 7892337
" />
<path d="M12282913 7598914
L12282913 7892337
" />
<path d="M11348305 7598914
L12282913 7598914
" />
<path d="M11348305 7005697
L11348305 7598914
" />
<path d="M12123647 7005697
L11348305 7005697
" />
<path d="M12123647 6708901
L12123647 7005697
" />
<path d="M11348305 6708901
L12123647 6708901
" />
<path d="M11348305 6198502
L11348305 6708901
" />
<path d="M12292656 6198502
L11348305 6198502
" />
<path d="M12292656 5905079
L12292656 6198502
" />
<path d="M10997546 5905079
L12292656 5905079
" />
<path d="M10997546 7892337
L10997546 5905079
" />
<path d="M8171989 7892337
L7939274 7892337
" />
<path d="M8459042 6667305
L8171989 7892337
" />
<path d="M8740098 7892337
L8459042 6667305
" />
<path d="M8966443 7892337
L8740098 7892337
" />
<path d="M9224640 5905079
L8966443 7892337
" />
<path d="M8931217 5905079
L9224640 5905079
" />
<path d="M8825914 7149223
L8931217 5905079
" />
<path d="M8570715 6061346
L8825914 7149223
" />
<path d="M8379596 6061346
L8570715 6061346
" />
<path d="M8124397 7152221
L8379596 6061346
" />
<path d="M7990239 5905079
L8124397 7152221
" />
<path d="M7677704 5905079
L7990239 5905079
" />
<path d="M7939274 7892337
L7677704 5905079
" />
<path d="M6558348 6217614
L6558348 6766237
" />
<path d="M6848774 6217614
L6558348 6217614
" />
<path d="M7078287.427237 6300635.060101 A297340.000000 297340.000000 0.0 0 0 6848774.037361 6217614.491742" />
<path d="M7154931.476072 6498295.893462 A281469.000000 281469.000000 0.0 0 0 7078303.331656 6300618.687327" />
<path d="M7078298.915579 6694468.820270 A255684.000000 255684.000000 0.0 0 0 7154937.643004 6498296.018601" />
<path d="M6848776.967546 6766198.109973 A324940.000000 324940.000000 0.0 0 0 7078303.066203 6694473.081548" />
<path d="M6558348 6766237
L6848774 6766237
" />
<path d="M6558348 7892337
L6194848 7892337
" />
<path d="M6558348 7066031
L6558348 7892337
" />
<path d="M6797809 7066031
L6558348 7066031
" />
<path d="M7199533 7892337
L6797809 7066031
" />
<path d="M7579147 7892337
L7199533 7892337
" />
<path d="M7151940 7031180
L7579147 7892337
" />
<path d="M7151946.047262 7031196.218982 A535114.000000 535114.000000 0.0 0 0 7347930.080034 6903580.078122" />
<path d="M7347928.402285 6903578.417794 A616185.000000 616185.000000 0.0 0 0 7478716.066767 6707402.027876" />
<path d="M7478712.906921 6707400.664246 A562728.000000 562728.000000 0.0 0 0 7524808.977054 6488926.999811" />
<path d="M7524839.254123 6488928.341477 A555985.000000 555985.000000 0.0 0 0 7355799.941501 6064532.060523" />
<path d="M7355797.155335 6064535.609289 A755887.000000 755887.000000 0.0 0 0 6823291.022997 5905079.268072" />
<path d="M6194848 5905079
L6823291 5905079
" />
<path d="M6194848 7892337
L6194848 5905079
" />
</g>
<g style="fill:#000000; fill-opacity:1.0; 
stroke:#000000; stroke-width:1.000000; stroke-opacity:1; 
stroke-linecap:round; stroke-linejoin:round;">
<circle cx="11189728.000000" cy="76549283.000000" r="65000.000000" /> 
</g>
<g style="fill:#000000; fill-opacity:1.0; 
stroke:#000000; stroke-width:130000.000000; stroke-opacity:1; 
stroke-linecap:round; stroke-linejoin:round;">
</g>
<g style="fill:#000000; fill-opacity:0.0; 
stroke:#000000; stroke-width:130000.000000; stroke-opacity:1; 
stroke-linecap:round; stroke-linejoin:round;">
<path d="M11419108 76679603
L11189728 76549283
" />
<path d="M10541448 78199793
L11419108 76679603
" />
<path d="M10312968 78067853
L10541448 78199793
" />
<path d="M11189728 76549283
L10312968 78067853
" />
<path d="M15791448 78067853
L14914688 76549243
" />
<path d="M15562968 78199793
L15791448 78067853
" />
<path d="M14685308 76679603
L15562968 78199793
" />
<path d="M14914688 76549243
L14685308 76679603
" />
<path d="M10090138 75449653
L9959778 75220273
" />
<path d="M8571528 76326413
L10090138 75449653
" />
<path d="M8439628 76097933
L8571528 76326413
" />
<path d="M9959778 75220273
L8439628 76097933
" />
<path d="M17664778 76097933
L16144588 75220223
" />
<path d="M17532888 76326413
L17664778 76097933
" />
<path d="M16014228 75449653
L17532888 76326413
" />
<path d="M16144588 75220223
L16014228 75449653
" />
<path d="M18302508 73455273
L16549418 73455273
" />
<path d="M18302508 73719113
L18302508 73455273
" />
<path d="M16546418 73719113
L18302508 73719113
" />
<path d="M16552418 73587173
L16546418 73719113
" />
<path d="M16549418 73455273
L16552418 73587173
" />
<path d="M9558298 73455273
L7802165 73455273
" />
<path d="M9552298 73587173
L9558298 73455273
" />
<path d="M9558298 73719113
L9552298 73587173
" />
<path d="M7802165 73719113
L9558298 73719113
" />
<path d="M7802165 73455273
L7802165 73719113
" />
<path d="M17664778 71076413
L17532888 70847933
" />
<path d="M16146718 71952903
L17664778 71076413
" />
<path d="M16014948 71724283
L16146718 71952903
" />
<path d="M17532888 70847933
L16014948 71724283
" />
<path d="M10090138 71724693
L8571528 70847933
" />
<path d="M9959778 71954073
L10090138 71724693
" />
<path d="M8439628 71076413
L9959778 71954073
" />
<path d="M8571528 70847933
L8439628 71076413
" />
<path d="M15791448 69106493
L15562968 68974553
" />
<path d="M14915098 70624383
L15791448 69106493
" />
<path d="M14686478 70492663
L14915098 70624383
" />
<path d="M15562968 68974553
L14686478 70492663
" />
<path d="M11419108 70494743
L10541448 68974553
" />
<path d="M11189728 70625063
L11419108 70494743
" />
<path d="M10312968 69106493
L11189728 70625063
" />
<path d="M10541448 68974553
L10312968 69106493
" />
<path d="M13184108 68337473
L12920268 68337173
" />
<path d="M13184108 70090263
L13184108 68337473
" />
<path d="M13052158 70087263
L13184108 70090263
" />
<path d="M12920268 70093263
L13052158 70087263
" />
<path d="M12920268 68337173
L12920268 70093263
" />
</g>
<g style="fill:#000000; fill-opacity:1.0; 
stroke:#000000; stroke-width:1.000000; stroke-opacity:1; 
stroke-linecap:round; stroke-linejoin:round;">
<circle cx="11189728.000000" cy="58549283.000000" r="65000.000000" /> 
</g>
<g style="fill:#000000; fill-opacity:1.0; 
stroke:#000000; stroke-width:130000.000000; stroke-opacity:1; 
stroke-linecap:round; stroke-linejoin:round;">
</g>
<g style="fill:#000000; fill-opacity:0.0; 
stroke:#000000; stroke-width:130000.000000; stroke-opacity:1; 
stroke-linecap:round; stroke-linejoin:round;">
<path d="M11419108 58679603
L11189728 58549283
" />
<path d="M10541448 60199793
L11419108 58679603
" />
<path d="M10312968 60067853
L10541448 60199793
" />
<path d="M11189728 58549283
L10312968 60067853
" />
<path d="M15791448 60067853
L14914688 58549243
" />
<path d="M15562968 60199793
L15791448 60067853
" />
<path d="M14685308 58679603
L15562968 60199793
" />
<path d="M14914688 58549243
L14685308 58679603
" />
<path d="M10090138 57449653
L9959778 57220273
" />
<path d="M8571528 58326413
L10090138 57449653
" />
<path d="M8439628 58097933
L8571528 58326413
" />
<path d="M9959778 57220273
L8439628 58097933
" />
<path d="M17664778 58097933
L16144588 57220223
" />
<path d="M17532888 58326413
L17664778 58097933
" />
<path d="M16014228 57449653
L17532888 58326413
" />
<path d="M16144588 57220223
L16014228 57449653
" />
<path d="M18302508 55455273
L16549418 55455273
" />
<path d="M18302508 55719113
L18302508 55455273
" />
<path d="M16546418 55719113
L18302508 55719113
" />
<path d="M16552418 55587173
L16546418 55719113
" />
<path d="M16549418 55455273
L16552418 55587173
" />
<path d="M9558298 55455273
L7802165 55455273
" />
<path d="M9552298 55587173
L9558298 55455273
" />
<path d="M9558298 55719113
L9552298 55587173
" />
<path d="M7802165 55719113
L9558298 55719113
" />
<path d="M7802165 55455273
L7802165 55719113
" />
<path d="M17664778 53076413
L17532888 52847933
" />
<path d="M16146718 53952903
L17664778 53076413
" />
<path d="M16014948 53724283
L16146718 53952903
" />
<path d="M17532888 52847933
L16014948 53724283
" />
<path d="M10090138 53724693
L8571528 52847933
" />
<path d="M9959778 53954073
L10090138 53724693
" />
<path d="M8439628 53076413
L9959778 53954073
" />
<path d="M8571528 52847933
L8439628 53076413
" />
<path d="M15791448 51106493
L15562968 50974553
" />
<path d="M14915098 52624383
L15791448 51106493
" />
<path d="M14686478 52492663
L14915098 52624383
" />
<path d="M15562968 50974553
L14686478 52492663
" />
<path d="M11419108 52494743
L10541448 50974553
" />
<path d="M11189728 52625063
L11419108 52494743
" />
<path d="M10312968 51106493
L11189728 52625063
" />
<path d="M10541448 50974553
L10312968 51106493
" />
<path d="M13184108 50337473
L12920268 50337173
" />
<path d="M13184108 52090263
L13184108 50337473
" />
<path d="M13052158 52087263
L13184108 52090263
" />
<path d="M12920268 52093263
L13052158 52087263
" />
<path d="M12920268 50337173
L12920268 52093263
" />
</g>
<g style="fill:#000000; fill-opacity:1.0; 
stroke:#000000; stroke-width:1.000000; stroke-opacity:1; 
stroke-linecap:round; stroke-linejoin:round;">
<circle cx="11189728.000000" cy="40549283.000000" r="65000.000000" /> 
</g>
<g style="fill:#000000; fill-opacity:1.0; 
stroke:#000000; stroke-width:130000.000000; stroke-opacity:1; 
stroke-linecap:round; stroke-linejoin:round;">
</g>
<g style="fill:#000000; fill-opacity:0.0; 
stroke:#000000; stroke-width:130000.000000; stroke-opacity:1; 
stroke-linecap:round; stroke-linejoin:round;">
<path d="M11419108 40679603
L11189728 40549283
" />
<path d="M10541448 42199793
L11419108 40679603
" />
<path d="M10312968 42067853
L10541448 42199793
" />
<path d="M11189728 40549283
L10312968 42067853
" />
<path d="M15791448 42067853
L14914688 40549243
" />
<path d="M15562968 42199793
L15791448 42067853
" />
<path d="M14685308 40679603
L15562968 42199793
" />
<path d="M14914688 40549243
L14685308 40679603
" />
<path d="M10090138 39449653
L9959778 39220273
" />
<path d="M8571528 40326413
L10090138 39449653
" />
<path d="M8439628 40097933
L8571528 40326413
" />
<path d="M9959778 39220273
L8439628 40097933
" />
<path d="M17664778 40097933
L16144588 39220223
" />
<path d="M17532888 40326413
L17664778 40097933
" />
<path d="M16014228 39449653
L17532888 40326413
" />
<path d="M16144588 39220223
L16014228 39449653
" />
<path d="M18302508 37455273
L16549418 37455273
" />
<path d="M18302508 37719113
L18302508 37455273
" />
<path d="M16546418 37719113
L18302508 37719113
" />
<path d="M16552418 37587173
L16546418 37719113
" />
<path d="M16549418 37455273
L16552418 37587173
" />
<path d="M9558298 37455273
L7802165 37455273
" />
<path d="M9552298 37587173
L9558298 37455273
" />
<path d="M9558298 37719113
L9552298 37587173
" />
<path d="M7802165 37719113
L9558298 37719113
" />
<path d="M7802165 37455273
L7802165 37719113
" />
<path d="M17664778 35076413
L17532888 34847933
" />
<path d="M16146718 35952903
L17664778 35076413
" />
<path d="M16014948 35724283
L16146718 35952903
" />
<path d="M17532888 34847933
L16014948 35724283
" />
<path d="M10090138 35724693
L8571528 34847933
" />
<path d="M9959778 35954073
L10090138 35724693
" />
<path d="M8439628 35076413
L9959778 35954073
" />
<path d="M8571528 34847933
L8439628 35076413
" />
<path d="M15791448 33106493
L15562968 32974553
" />
<path d="M14915098 34624383
L15791448 33106493
" />
<path d="M14686478 34492663
L14915098 34624383
" />
<path d="M15562968 32974553
L14686478 34492663
" />
<path d="M11419108 34494743
L10541448 32974553
" />
<path d="M11189728 34625063
L11419108 34494743
" />
<path d="M10312968 33106493
L11189728 34625063
" />
<path d="M10541448 32974553
L10312968 33106493
" />
<path d="M13184108 32337473
L12920268 32337173
" />
<path d="M13184108 34090263
L13184108 32337473
" />
<path d="M13052158 34087263
L13184108 34090263
" />
<path d="M12920268 34093263
L13052158 34087263
" />
<path d="M12920268 32337173
L12920268 34093263
" />
</g>
<g style="fill:#000000; fill-opacity:1.0; 
stroke:#000000; stroke-width:1.000000; stroke-opacity:1; 
stroke-linecap:round; stroke-linejoin:round;">
<circle cx="11189728.000000" cy="22549283.000000" r="65000.000000" /> 
</g>
<g style="fill:#000000; fill-opacity:1.0; 
stroke:#000000; stroke-width:130000.000000; stroke-opacity:1; 
stroke-linecap:round; stroke-linejoin:round;">
</g>
<g style="fill:#000000; fill-opacity:0.0; 
stroke:#000000; stroke-width:130000.000000; stroke-opacity:1; 
stroke-linecap:round; stroke-linejoin:round;">
<path d="M11419108 22679603
L11189728 22549283
" />
<path d="M10541448 24199793
L11419108 22679603
" />
<path d="M10312968 24067853
L10541448 24199793
" />
<path d="M11189728 22549283
L10312968 24067853
" />
<path d="M15791448 24067853
L14914688 22549243
" />
<path d="M15562968 24199793
L15791448 24067853
" />
<path d="M14685308 22679603
L15562968 24199793
" />
<path d="M14914688 22549243
L14685308 22679603
" />
<path d="M10090138 21449653
L9959778 21220273
" />
<path d="M8571528 22326413
L10090138 21449653
" />
<path d="M8439628 22097933
L8571528 22326413
" />
<path d="M9959778 21220273
L8439628 22097933
" />
<path d="M17664778 22097933
L16144588 21220223
" />
<path d="M17532888 22326413
L17664778 22097933
" />
<path d="M16014228 21449653
L17532888 22326413
" />
<path d="M16144588 21220223
L16014228 21449653
" />
<path d="M18302508 19455273
L16549418 19455273
" />
<path d="M18302508 19719113
L18302508 19455273
" />
<path d="M16546418 19719113
L18302508 19719113
" />
<path d="M16552418 19587173
L16546418 19719113
" />
<path d="M16549418 19455273
L16552418 19587173
" />
<path d="M9558298 19455273
L7802165 19455273
" />
<path d="M9552298 19587173
L9558298 19455273
" />
<path d="M9558298 19719113
L9552298 19587173
" />
<path d="M7802165 19719113
L9558298 19719113
" />
<path d="M7802165 19455273
L7802165 19719113
" />
<path d="M17664778 17076413
L17532888 16847933
" />
<path d="M16146718 17952903
L17664778 17076413
" />
<path d="M16014948 17724283
L16146718 17952903
" />
<path d="M17532888 16847933
L16014948 17724283
" />
<path d="M10090138 17724693
L8571528 16847933
" />
<path d="M9959778 17954073
L10090138 17724693
" />
<path d="M8439628 17076413
L9959778 17954073
" />
<path d="M8571528 16847933
L8439628 17076413
" />
<path d="M15791448 15106493
L15562968 14974553
" />
<path d="M14915098 16624383
L15791448 15106493
" />
<path d="M14686478 16492663
L14915098 16624383
" />
<path d="M15562968 14974553
L14686478 16492663
" />
<path d="M11419108 16494743
L10541448 14974553
" />
<path d="M11189728 16625063
L11419108 16494743
" />
<path d="M10312968 15106493
L11189728 16625063
" />
<path d="M10541448 14974553
L10312968 15106493
" />
<path d="M13184108 14337473
L12920268 14337173
" />
<path d="M13184108 16090263
L13184108 14337473
" />
<path d="M13052158 16087263
L13184108 16090263
" />
<path d="M12920268 16093263
L13052158 16087263
" />
<path d="M12920268 14337173
L12920268 16093263
" />
<circle cx="5065000.000000" cy="95565000.000000" r="2600000.000000" /> 
<circle cx="5065000.000000" cy="105565000.000000" r="3200000.000000" /> 
<circle cx="15065000.000000" cy="105565000.000000" r="3200000.000000" /> 
<circle cx="15065000.000000" cy="90565000.000000" r="3200000.000000" /> 
<circle cx="13065000.000000" cy="73565000.000000" r="3200000.000000" /> 
<circle cx="13065000.000000" cy="55565000.000000" r="3200000.000000" /> 
<circle cx="13065000.000000" cy="37565000.000000" r="3200000.000000" /> 
<circle cx="13065000.000000" cy="19565000.000000" r="3200000.000000" /> 
<path d="M11565000.000000 123965000.000000 A1600000.000000 1600000.000000 0.0 0 0 11565000.000000 127165000.000000" />
<path d="M11565000.000000 1465000.000000 A1600000.000000 1600000.000000 0.0 0 0 11565000.000000 4665000.000000" />
<path d="M13565000.000000 127165000.000000 A1600000.000000 1600000.000000 0.0 0 0 13565000.000000 123965000.000000" />
<path d="M13565000.000000 4665000.000000 A1600000.000000 1600000.000000 0.0 0 0 13565000.000000 1465000.000000" />
<path d="M11565000 127165000
L13565000 127165000
" />
<path d="M11565000 4665000
L13565000 4665000
" />
<path d="M11565000 123965000
L13565000 123965000
" />
<path d="M11565000 1465000
L13565000 1465000
" />
<path d="M65000 65000
L65000 128565000
" />
<path d="M20065000 65000
L65000 65000
" />
<path d="M20065000 128565000
L20065000 65000
" />
<path d="M65000 128565000
L20065000 128565000
" />
<path d="M7340902 121969946
L6649243 123870216
" />
<path d="M6065000 122264999
L6756640 120364711
" />
<path d="M7925150 120364711
L6756640 120364711
" />
<path d="M8616790 122264999
L7925150 120364711
" />
<path d="M9308455 120364711
L8616790 122264999
" />
<path d="M10476966 120364711
L9308455 120364711
" />
<path d="M9201058 123870216
L10476966 120364711
" />
<path d="M8032548 123870216
L9201058 123870216
" />
<path d="M6756640 120364711
L8032548 123870216
" />
<path d="M5373361 120364711
L4204850 120364711
" />
<path d="M6649243 123870216
L5373361 120364711
" />
<path d="M5480758 123870216
L6649243 123870216
" />
<path d="M4204850 120364711
L5480758 123870216
" />
<path d="M2368613 122025826
L2368613 121203317
" />
<path d="M2657628 122025826
L2368613 122025826
" />
<path d="M2657628.002996 122025869.999047 A411270.000000 411270.000000 0.0 0 0 3068869.999689 121614584.000000" />
<path d="M3068862.999762 121614583.999762 A411253.000000 411253.000000 0.0 0 0 2657628.000000 121203317.000394" />
<path d="M2368613 121203317
L2657628 121203317
" />
<path d="M2762438 120364711
L1200102 120364711
" />
<path d="M4012308.999994 121614583.999994 A1249869.000000 1249869.000000 0.0 0 0 2762438.000000 120364711.000002" />
<path d="M3667421.121513 122475444.210555 A1249872.000000 1249872.000000 0.0 0 0 4012311.400668 121614584.000392" />
<path d="M4175064 123870216
L3667423 122475446
" />
<path d="M3006554 123870216
L4175064 123870216
" />
<path d="M2640496 122864458
L3006554 123870216
" />
<path d="M2368613 122864458
L2640496 122864458
" />
<path d="M2368613 123870216
L2368613 122864458
" />
<path d="M1200102 123870216
L2368613 123870216
" />
<path d="M1200102 122864458
L1200102 123870216
" />
<path d="M1200102 122655149
L1200102 122864458
" />
<path d="M949724 122655149
L1200102 122655149
" />
<path d="M949724 122235756
L949724 122655149
" />
<path d="M1200102 122235756
L949724 122235756
" />
<path d="M1200102 120993827
L1200102 122235756
" />
<path d="M949724 120993827
L1200102 120993827
" />
<path d="M949724 120574407
L949724 120993827
" />
<path d="M1200102 120574407
L949724 120574407
" />
<path d="M1200102 120364711
L1200102 120574407
" />
<g >
</g>
<g >
</g>
<g >
</g>
</g> 
</svg>
