999
dxflib 3.26.4.0
  0
SECTION
  2
HEADER
  9
$ACADVER
  1
AC1015
  9
$HANDSEED
  5
FFFF
  9
$DIMADEC
 70
0
  9
$DIMASZ
 40
2.5
  9
$DIMATFIT
 70
0
  9
$DIMAUNIT
 70
0
  9
$DIMAZIN
 70
2
  9
$DIMBLK
  1
0
  9
$DIMBLK1
  1
0
  9
$DIMBLK2
  1
0
  9
$DIMDEC
 70
4
  9
$DIMDLI
 40
5.0
  9
$DIMDSEP
 70
46
  9
$DIMEXE
 40
1.25
  9
$DIMEXO
 40
0.625
  9
$DIMGAP
 40
0.625
  9
$DIMLFAC
 40
1.0
  9
$DIMLUNIT
 70
2
  9
$DIMSCALE
 40
1.0
  9
$DIMTAD
 70
1
  9
$DIMTIH
 70
0
  9
$DIMTSZ
 40
0.0
  9
$DIMTXT
 40
2.5
  9
$DIMZIN
 70
8
  9
$DWGCODEPAGE
  3
ANSI_1252
  9
$INSUNITS
 70
4
  9
$LTSCALE
 40
1.0
  9
$MAXACTVP
 70
64
  9
$MEASUREMENT
 70
1
  9
$MIRRTEXT
 70
0
  9
$PDMODE
 70
0
  9
$PDSIZE
 40
0.0
  0
ENDSEC
  0
SECTION
  2
TABLES
  0
TABLE
  2
VPORT
  5
8
100
AcDbSymbolTable
 70
1
  0
VPORT
  5
30
100
AcDbSymbolTableRecord
100
AcDbViewportTableRecord
  2
*Active
 70
0
 10
0.0
 20
0.0
 11
1.0
 21
1.0
 12
286.3055555555554861
 22
148.5
 13
0.0
 23
0.0
 14
10.0
 24
10.0
 15
10.0
 25
10.0
 16
0.0
 26
0.0
 36
1.0
 17
0.0
 27
0.0
 37
0.0
 40
297.0
 41
1.92798353909465
 42
50.0
 43
0.0
 44
0.0
 50
0.0
 51
0.0
 71
0
 72
100
 73
1
 74
3
 75
1
 76
1
 77
0
 78
0
281
0
 65
1
110
0.0
120
0.0
130
0.0
111
1.0
121
0.0
131
0.0
112
0.0
122
1.0
132
0.0
 79
0
146
0.0
  0
ENDTAB
  0
TABLE
  2
LTYPE
  5
5
100
AcDbSymbolTable
 70
41
  0
LTYPE
  5
16
100
AcDbSymbolTableRecord
100
AcDbLinetypeTableRecord
  2
Continuous
 70
0
  3
Solid line
 72
65
 73
0
 40
0.0
  0
LTYPE
  5
31
100
AcDbSymbolTableRecord
100
AcDbLinetypeTableRecord
  2
ACAD_ISO02W100
 70
0
  3
ISO dash __ __ __ __ __ __ __ __ __ __ __ __ __
 72
65
 73
2
 40
15.0
 49
12.0
 74
0
 49
-3.0
 74
0
  0
LTYPE
  5
32
100
AcDbSymbolTableRecord
100
AcDbLinetypeTableRecord
  2
ACAD_ISO06W100
 70
0
  3
ISO long-dash triple-dot ____ ... ____ ... ____
 72
65
 73
8
 40
36.0000000000000071
 49
24.0
 74
0
 49
-2.9500000000000002
 74
0
 49
0.1
 74
0
 49
-2.9000000000000004
 74
0
 49
0.1
 74
0
 49
-2.9000000000000004
 74
0
 49
0.1
 74
0
 49
-2.9500000000000002
 74
0
  0
LTYPE
  5
33
100
AcDbSymbolTableRecord
100
AcDbLinetypeTableRecord
  2
ACAD_ISO09W100
 70
0
  3
ISO long-dash double-short-dash ____ __ __ ____
 72
65
 73
6
 40
45.0
 49
24.0
 74
0
 49
-3.0
 74
0
 49
6.0
 74
0
 49
-3.0
 74
0
 49
6.0
 74
0
 49
-3.0
 74
0
  0
LTYPE
  5
34
100
AcDbSymbolTableRecord
100
AcDbLinetypeTableRecord
  2
ACAD_ISO14W100
 70
0
  3
ISO dash triple-dot __ . . . __ . . . __ . . . _
 72
65
 73
8
 40
24.0000000000000036
 49
12.0
 74
0
 49
-2.9500000000000002
 74
0
 49
0.1
 74
0
 49
-2.9000000000000004
 74
0
 49
0.1
 74
0
 49
-2.9000000000000004
 74
0
 49
0.1
 74
0
 49
-2.9500000000000002
 74
0
  0
LTYPE
  5
14
100
AcDbSymbolTableRecord
100
AcDbLinetypeTableRecord
  2
BYBLOCK
 70
0
  3

 72
65
 73
0
 40
0.0
  0
LTYPE
  5
35
100
AcDbSymbolTableRecord
100
AcDbLinetypeTableRecord
  2
ACAD_ISO12W100
 70
0
  3
ISO dash double-dot __ . . __ . . __ . . __ . . 
 72
65
 73
6
 40
21.0
 49
12.0
 74
0
 49
-2.9500000000000002
 74
0
 49
0.1
 74
0
 49
-2.9000000000000004
 74
0
 49
0.1
 74
0
 49
-2.9500000000000002
 74
0
  0
LTYPE
  5
36
100
AcDbSymbolTableRecord
100
AcDbLinetypeTableRecord
  2
ACAD_ISO11W100
 70
0
  3
ISO double-dash dot __ __ . __ __ . __ __ . __ _
 72
65
 73
6
 40
33.0
 49
12.0
 74
0
 49
-3.0
 74
0
 49
12.0
 74
0
 49
-2.9500000000000002
 74
0
 49
0.1
 74
0
 49
-2.9500000000000002
 74
0
  0
LTYPE
  5
37
100
AcDbSymbolTableRecord
100
AcDbLinetypeTableRecord
  2
BORDER
 70
0
  3
Border __ __ . __ __ . __ __ . __ __ . __ __ .
 72
65
 73
6
 40
44.4499999999999957
 49
12.6999999999999993
 74
0
 49
-6.3499999999999996
 74
0
 49
12.6999999999999993
 74
0
 49
-6.2999999999999998
 74
0
 49
0.1
 74
0
 49
-6.2999999999999998
 74
0
  0
LTYPE
  5
38
100
AcDbSymbolTableRecord
100
AcDbLinetypeTableRecord
  2
ACAD_ISO07W100
 70
0
  3
ISO dot . . . . . . . . . . . . . . . . . . . . 
 72
65
 73
2
 40
3.0
 49
0.1
 74
0
 49
-2.8999999999999999
 74
0
  0
LTYPE
  5
39
100
AcDbSymbolTableRecord
100
AcDbLinetypeTableRecord
  2
ACAD_ISO13W100
 70
0
  3
ISO double-dash double-dot __ __ . . __ __ . . _
 72
65
 73
8
 40
36.0000000000000071
 49
12.0
 74
0
 49
-3.0
 74
0
 49
12.0
 74
0
 49
-2.9500000000000002
 74
0
 49
0.1
 74
0
 49
-2.9000000000000004
 74
0
 49
0.1
 74
0
 49
-2.9500000000000002
 74
0
  0
LTYPE
  5
3A
100
AcDbSymbolTableRecord
100
AcDbLinetypeTableRecord
  2
ACAD_ISO15W100
 70
0
  3
ISO double-dash triple-dot __ __ . . . __ __ . .
 72
65
 73
10
 40
39.0000000000000071
 49
12.0
 74
0
 49
-3.0
 74
0
 49
12.0
 74
0
 49
-2.9500000000000002
 74
0
 49
0.1
 74
0
 49
-2.9000000000000004
 74
0
 49
0.1
 74
0
 49
-2.9000000000000004
 74
0
 49
0.1
 74
0
 49
-2.9500000000000002
 74
0
  0
LTYPE
  5
3B
100
AcDbSymbolTableRecord
100
AcDbLinetypeTableRecord
  2
DOT2
 70
0
  3
Dot (.5x) ........................................
 72
65
 73
2
 40
3.1749999999999998
 49
0.1
 74
0
 49
-3.0749999999999997
 74
0
  0
LTYPE
  5
3C
100
AcDbSymbolTableRecord
100
AcDbLinetypeTableRecord
  2
DASHDOT2
 70
0
  3
Dash dot (.5x) _._._._._._._._._._._._._._._.
 72
65
 73
4
 40
12.6999999999999993
 49
6.3499999999999996
 74
0
 49
-3.125
 74
0
 49
0.1
 74
0
 49
-3.125
 74
0
  0
LTYPE
  5
15
100
AcDbSymbolTableRecord
100
AcDbLinetypeTableRecord
  2
BYLAYER
 70
0
  3

 72
65
 73
0
 40
0.0
  0
LTYPE
  5
3D
100
AcDbSymbolTableRecord
100
AcDbLinetypeTableRecord
  2
PHANTOMX2
 70
0
  3
Phantom (2x) ____________    ____    ____   _
 72
65
 73
6
 40
127.0000000000000142
 49
63.5
 74
0
 49
-12.6999999999999993
 74
0
 49
12.6999999999999993
 74
0
 49
-12.6999999999999993
 74
0
 49
12.6999999999999993
 74
0
 49
-12.6999999999999993
 74
0
  0
LTYPE
  5
3E
100
AcDbSymbolTableRecord
100
AcDbLinetypeTableRecord
  2
ACAD_ISO04W100
 70
0
  3
ISO long-dash dot ____ . ____ . ____ . ____ . _
 72
65
 73
4
 40
30.0
 49
24.0
 74
0
 49
-2.9500000000000002
 74
0
 49
0.1
 74
0
 49
-2.9500000000000002
 74
0
  0
LTYPE
  5
3F
100
AcDbSymbolTableRecord
100
AcDbLinetypeTableRecord
  2
BORDER2
 70
0
  3
Border (.5x) __.__.__.__.__.__.__.__.__.__.__.
 72
65
 73
6
 40
22.2250000000000014
 49
6.3499999999999996
 74
0
 49
-3.1749999999999998
 74
0
 49
6.3499999999999996
 74
0
 49
-3.125
 74
0
 49
0.1
 74
0
 49
-3.125
 74
0
  0
LTYPE
  5
40
100
AcDbSymbolTableRecord
100
AcDbLinetypeTableRecord
  2
HIDDEN2
 70
0
  3
Hidden (.5x) _ _ _ _ _ _ _ _ _ _ _ _ _ _ _ _ _ 
 72
65
 73
2
 40
4.7624999999999993
 49
3.1749999999999998
 74
0
 49
-1.5874999999999999
 74
0
  0
LTYPE
  5
41
100
AcDbSymbolTableRecord
100
AcDbLinetypeTableRecord
  2
CENTER
 70
0
  3
Center ____ _ ____ _ ____ _ ____ _ ____ _ ____
 72
65
 73
4
 40
50.8000000000000043
 49
31.75
 74
0
 49
-6.3499999999999996
 74
0
 49
6.3499999999999996
 74
0
 49
-6.3499999999999996
 74
0
  0
LTYPE
  5
42
100
AcDbSymbolTableRecord
100
AcDbLinetypeTableRecord
  2
CENTERX2
 70
0
  3
Center (2x) ________  __  ________  __  _____
 72
65
 73
4
 40
101.6000000000000085
 49
63.5
 74
0
 49
-12.6999999999999993
 74
0
 49
12.6999999999999993
 74
0
 49
-12.6999999999999993
 74
0
  0
LTYPE
  5
43
100
AcDbSymbolTableRecord
100
AcDbLinetypeTableRecord
  2
DIVIDE2
 70
0
  3
Divide (.5x) __..__..__..__..__..__..__..__.._
 72
65
 73
6
 40
15.8749999999999982
 49
6.3499999999999996
 74
0
 49
-3.125
 74
0
 49
0.1
 74
0
 49
-3.0750000000000002
 74
0
 49
0.1
 74
0
 49
-3.125
 74
0
  0
LTYPE
  5
44
100
AcDbSymbolTableRecord
100
AcDbLinetypeTableRecord
  2
CENTER2
 70
0
  3
Center (.5x) ___ _ ___ _ ___ _ ___ _ ___ _ ___
 72
65
 73
4
 40
28.5750000000000028
 49
19.0500000000000007
 74
0
 49
-3.1749999999999998
 74
0
 49
3.1749999999999998
 74
0
 49
-3.1749999999999998
 74
0
  0
LTYPE
  5
45
100
AcDbSymbolTableRecord
100
AcDbLinetypeTableRecord
  2
HIDDEN
 70
0
  3
Hidden __ __ __ __ __ __ __ __ __ __ __ __ __ __
 72
65
 73
2
 40
9.5249999999999986
 49
6.3499999999999996
 74
0
 49
-3.1749999999999998
 74
0
  0
LTYPE
  5
46
100
AcDbSymbolTableRecord
100
AcDbLinetypeTableRecord
  2
PHANTOM2
 70
0
  3
Phantom (.5x) ___ _ _ ___ _ _ ___ _ _ ___ _ _
 72
65
 73
6
 40
31.7500000000000036
 49
15.875
 74
0
 49
-3.1749999999999998
 74
0
 49
3.1749999999999998
 74
0
 49
-3.1749999999999998
 74
0
 49
3.1749999999999998
 74
0
 49
-3.1749999999999998
 74
0
  0
LTYPE
  5
47
100
AcDbSymbolTableRecord
100
AcDbLinetypeTableRecord
  2
PHANTOM
 70
0
  3
Phantom ______  __  __  ______  __  __  ______ 
 72
65
 73
6
 40
63.5000000000000071
 49
31.75
 74
0
 49
-6.3499999999999996
 74
0
 49
6.3499999999999996
 74
0
 49
-6.3499999999999996
 74
0
 49
6.3499999999999996
 74
0
 49
-6.3499999999999996
 74
0
  0
LTYPE
  5
48
100
AcDbSymbolTableRecord
100
AcDbLinetypeTableRecord
  2
DASHDOTX2
 70
0
  3
Dash dot (2x) ____  .  ____  .  ____  .  ___
 72
65
 73
4
 40
50.7999999999999972
 49
25.3999999999999986
 74
0
 49
-12.6499999999999986
 74
0
 49
0.1
 74
0
 49
-12.6499999999999986
 74
0
  0
LTYPE
  5
49
100
AcDbSymbolTableRecord
100
AcDbLinetypeTableRecord
  2
DASHDOT
 70
0
  3
Dash dot __ . __ . __ . __ . __ . __ . __ . __
 72
65
 73
4
 40
25.4000000000000021
 49
12.6999999999999993
 74
0
 49
-6.2999999999999998
 74
0
 49
0.1
 74
0
 49
-6.2999999999999998
 74
0
  0
LTYPE
  5
4A
100
AcDbSymbolTableRecord
100
AcDbLinetypeTableRecord
  2
BORDERX2
 70
0
  3
Border (2x) ____  ____  .  ____  ____  .  ___
 72
65
 73
6
 40
88.8999999999999773
 49
25.3999999999999986
 74
0
 49
-12.6999999999999993
 74
0
 49
25.3999999999999986
 74
0
 49
-12.6499999999999986
 74
0
 49
0.1
 74
0
 49
-12.6499999999999986
 74
0
  0
LTYPE
  5
4B
100
AcDbSymbolTableRecord
100
AcDbLinetypeTableRecord
  2
DOTX2
 70
0
  3
Dot (2x) .  .  .  .  .  .  .  .  .  .  .  .  .  .
 72
65
 73
2
 40
12.6999999999999993
 49
0.1
 74
0
 49
-12.5999999999999996
 74
0
  0
LTYPE
  5
4C
100
AcDbSymbolTableRecord
100
AcDbLinetypeTableRecord
  2
ACAD_ISO05W100
 70
0
  3
ISO long-dash double-dot ____ .. ____ .. ____ . 
 72
65
 73
6
 40
33.0000000000000071
 49
24.0
 74
0
 49
-2.9500000000000002
 74
0
 49
0.1
 74
0
 49
-2.9000000000000004
 74
0
 49
0.1
 74
0
 49
-2.9500000000000002
 74
0
  0
LTYPE
  5
4D
100
AcDbSymbolTableRecord
100
AcDbLinetypeTableRecord
  2
ACAD_ISO03W100
 70
0
  3
ISO dash space __    __    __    __    __    __
 72
65
 73
2
 40
30.0
 49
12.0
 74
0
 49
-18.0
 74
0
  0
LTYPE
  5
4E
100
AcDbSymbolTableRecord
100
AcDbLinetypeTableRecord
  2
DIVIDE
 70
0
  3
Divide ____ . . ____ . . ____ . . ____ . . ____
 72
65
 73
6
 40
31.7500000000000036
 49
12.6999999999999993
 74
0
 49
-6.2999999999999998
 74
0
 49
0.1
 74
0
 49
-6.25
 74
0
 49
0.1
 74
0
 49
-6.2999999999999998
 74
0
  0
LTYPE
  5
4F
100
AcDbSymbolTableRecord
100
AcDbLinetypeTableRecord
  2
DIVIDEX2
 70
0
  3
Divide (2x) ________  .  .  ________  .  .  _
 72
65
 73
6
 40
63.5
 49
25.3999999999999986
 74
0
 49
-12.6499999999999986
 74
0
 49
0.1
 74
0
 49
-12.5999999999999979
 74
0
 49
0.1
 74
0
 49
-12.6499999999999986
 74
0
  0
LTYPE
  5
50
100
AcDbSymbolTableRecord
100
AcDbLinetypeTableRecord
  2
DASHEDX2
 70
0
  3
Dashed (2x) ____  ____  ____  ____  ____  ___
 72
65
 73
2
 40
38.0999999999999943
 49
25.3999999999999986
 74
0
 49
-12.6999999999999993
 74
0
  0
LTYPE
  5
51
100
AcDbSymbolTableRecord
100
AcDbLinetypeTableRecord
  2
DOT
 70
0
  3
Dot . . . . . . . . . . . . . . . . . . . . . . . .
 72
65
 73
2
 40
6.3499999999999996
 49
0.1
 74
0
 49
-6.25
 74
0
  0
LTYPE
  5
52
100
AcDbSymbolTableRecord
100
AcDbLinetypeTableRecord
  2
DASHED2
 70
0
  3
Dashed (.5x) _ _ _ _ _ _ _ _ _ _ _ _ _ _ _ _ _ 
 72
65
 73
2
 40
9.5249999999999986
 49
6.3499999999999996
 74
0
 49
-3.1749999999999998
 74
0
  0
LTYPE
  5
53
100
AcDbSymbolTableRecord
100
AcDbLinetypeTableRecord
  2
ACAD_ISO10W100
 70
0
  3
ISO dash dot __ . __ . __ . __ . __ . __ . __ . 
 72
65
 73
4
 40
18.0
 49
12.0
 74
0
 49
-2.9500000000000002
 74
0
 49
0.1
 74
0
 49
-2.9500000000000002
 74
0
  0
LTYPE
  5
54
100
AcDbSymbolTableRecord
100
AcDbLinetypeTableRecord
  2
HIDDENX2
 70
0
  3
Hidden (2x) ____ ____ ____ ____ ____ ____ ____ 
 72
65
 73
2
 40
19.0499999999999972
 49
12.6999999999999993
 74
0
 49
-6.3499999999999996
 74
0
  0
LTYPE
  5
55
100
AcDbSymbolTableRecord
100
AcDbLinetypeTableRecord
  2
DASHED
 70
0
  3
Dashed __ __ __ __ __ __ __ __ __ __ __ __ __ _
 72
65
 73
2
 40
19.0499999999999972
 49
12.6999999999999993
 74
0
 49
-6.3499999999999996
 74
0
  0
LTYPE
  5
56
100
AcDbSymbolTableRecord
100
AcDbLinetypeTableRecord
  2
ACAD_ISO08W100
 70
0
  3
ISO long-dash short-dash ____ __ ____ __ ____ _
 72
65
 73
4
 40
36.0
 49
24.0
 74
0
 49
-3.0
 74
0
 49
6.0
 74
0
 49
-3.0
 74
0
  0
ENDTAB
  0
TABLE
  2
LAYER
  5
2
100
AcDbSymbolTable
 70
5
  0
LAYER
  5
57
100
AcDbSymbolTableRecord
100
AcDbLayerTableRecord
  2
UserDrawings
 70
0
 62
9
420
12632256
  6
Continuous
370
13
390
F
  0
LAYER
  5
10
100
AcDbSymbolTableRecord
100
AcDbLayerTableRecord
  2
0
 70
0
 62
2
420
16776960
  6
Continuous
370
13
390
F
  0
LAYER
  5
58
100
AcDbSymbolTableRecord
100
AcDbLayerTableRecord
  2
VectorEngraving
 70
0
 62
5
420
255
  6
Continuous
370
13
390
F
  0
LAYER
  5
59
100
AcDbSymbolTableRecord
100
AcDbLayerTableRecord
  2
AreaEngraving
 70
0
 62
3
420
65280
  6
Continuous
370
13
390
F
  0
LAYER
  5
5A
100
AcDbSymbolTableRecord
100
AcDbLayerTableRecord
  2
Cuts
 70
0
 62
1
420
16711680
  6
Continuous
370
13
390
F
  0
ENDTAB
  0
TABLE
  2
STYLE
  5
3
100
AcDbSymbolTable
 70
1
  0
STYLE
  5
5B
100
AcDbSymbolTableRecord
100
AcDbTextStyleTableRecord
  2
Standard
 70
0
 40
0.0
 41
1.0
 50
0.0
 71
0
 42
2.5
  3

  4

1001
ACAD
1000
txt
1071
0
  0
ENDTAB
  0
TABLE
  2
VIEW
  5
6
100
AcDbSymbolTable
 70
0
  0
ENDTAB
  0
TABLE
  2
UCS
  5
7
100
AcDbSymbolTable
 70
0
  0
ENDTAB
  0
TABLE
  2
APPID
  5
9
100
AcDbSymbolTable
 70
1
  0
APPID
  5
12
100
AcDbSymbolTableRecord
100
AcDbRegAppTableRecord
  2
ACAD
 70
0
  0
APPID
  5
5C
100
AcDbSymbolTableRecord
100
AcDbRegAppTableRecord
  2
QCAD
 70
0
  0
ENDTAB
  0
TABLE
  2
DIMSTYLE
  5
A
100
AcDbSymbolTable
 70
1
100
AcDbDimStyleTable
 71
0
  0
DIMSTYLE
105
27
100
AcDbSymbolTableRecord
100
AcDbDimStyleTableRecord
  2
Standard
 41
2.5
 42
0.625
 43
3.75
 44
1.25
 70
0
 73
0
 74
0
 77
1
 78
8
140
2.5
141
2.5
143
0.03937007874016
147
0.625
171
3
172
1
271
2
272
2
274
3
278
44
283
0
284
8
340
5B
  0
ENDTAB
  0
TABLE
  2
BLOCK_RECORD
  5
1
100
AcDbSymbolTable
 70
1
  0
BLOCK_RECORD
  5
1F
100
AcDbSymbolTableRecord
100
AcDbBlockTableRecord
  2
*Model_Space
340
22
  0
BLOCK_RECORD
  5
1B
100
AcDbSymbolTableRecord
100
AcDbBlockTableRecord
  2
*Paper_Space
340
1E
  0
BLOCK_RECORD
  5
23
100
AcDbSymbolTableRecord
100
AcDbBlockTableRecord
  2
*Paper_Space0
340
26
  0
BLOCK_RECORD
  5
5D
100
AcDbSymbolTableRecord
100
AcDbBlockTableRecord
  2
block 9
340
0
  0
BLOCK_RECORD
  5
5E
100
AcDbSymbolTableRecord
100
AcDbBlockTableRecord
  2
block 8
340
0
  0
BLOCK_RECORD
  5
5F
100
AcDbSymbolTableRecord
100
AcDbBlockTableRecord
  2
block 4
340
0
  0
BLOCK_RECORD
  5
60
100
AcDbSymbolTableRecord
100
AcDbBlockTableRecord
  2
block 6
340
0
  0
BLOCK_RECORD
  5
61
100
AcDbSymbolTableRecord
100
AcDbBlockTableRecord
  2
block 1
340
0
  0
BLOCK_RECORD
  5
62
100
AcDbSymbolTableRecord
100
AcDbBlockTableRecord
  2
block 3
340
0
  0
BLOCK_RECORD
  5
63
100
AcDbSymbolTableRecord
100
AcDbBlockTableRecord
  2
block 5
340
0
  0
BLOCK_RECORD
  5
64
100
AcDbSymbolTableRecord
100
AcDbBlockTableRecord
  2
block 7
340
0
  0
BLOCK_RECORD
  5
65
100
AcDbSymbolTableRecord
100
AcDbBlockTableRecord
  2
block 2
340
0
  0
ENDTAB
  0
ENDSEC
  0
SECTION
  2
BLOCKS
  0
BLOCK
  5
20
100
AcDbEntity
  8
0
100
AcDbBlockBegin
  2
*Model_Space
 70
0
 10
0.0
 20
0.0
 30
0.0
  3
*Model_Space
  1

  0
ENDBLK
  5
21
100
AcDbEntity
  8
0
100
AcDbBlockEnd
  0
BLOCK
  5
1C
100
AcDbEntity
 67
1
  8
0
100
AcDbBlockBegin
  2
*Paper_Space
 70
0
 10
0.0
 20
0.0
 30
0.0
  3
*Paper_Space
  1

  0
ENDBLK
  5
1D
100
AcDbEntity
 67
1
  8
0
100
AcDbBlockEnd
  0
BLOCK
  5
24
100
AcDbEntity
  8
0
100
AcDbBlockBegin
  2
*Paper_Space0
 70
0
 10
0.0
 20
0.0
 30
0.0
  3
*Paper_Space0
  1

  0
ENDBLK
  5
25
100
AcDbEntity
  8
0
100
AcDbBlockEnd
  0
BLOCK
  5
66
100
AcDbEntity
  8
0
100
AcDbBlockBegin
  2
block 9
 70
0
 10
0.0
 20
0.0
 30
0.0
  3
block 9
  1

  0
LWPOLYLINE
  5
67
100
AcDbEntity
  8
VectorEngraving
 62
3
420
65280
370
-1
 48
1.0
  6
BYLAYER
100
AcDbPolyline
 90
6
 70
128
 10
-0.1447316216625225
 20
5.2278271675010188
 10
-0.1447316216625225
 20
3.4717371675010185
 42
-0.0094312964636997
 10
-0.012841621662524
 20
3.4777371675010471
 42
-0.0094282736998003
 10
0.1191083783374793
 20
3.4747371675010328
 10
0.1191083783374793
 20
5.2275271675010373
 10
-0.1447316216625225
 20
5.2278271675010188
  0
LWPOLYLINE
  5
68
100
AcDbEntity
  8
VectorEngraving
 62
3
420
65280
370
-1
 48
1.0
  6
BYLAYER
100
AcDbPolyline
 90
5
 70
128
 10
-2.5235516216625271
 20
4.5904471675010114
 10
-2.7520316216625318
 20
4.4585071675010255
 10
-1.8752716216625274
 20
2.9399371675010144
 42
-0.018850642653673
 10
-1.6458916216625212
 20
3.0702571675010262
 10
-2.5235516216625271
 20
4.5904471675010114
  0
LWPOLYLINE
  5
69
100
AcDbEntity
  8
VectorEngraving
 62
3
420
65280
370
-1
 48
1.0
  6
BYLAYER
100
AcDbPolyline
 90
5
 70
128
 10
2.4979683783374682
 20
4.5904471675010114
 10
1.6214783783374642
 20
3.0723371675010043
 42
-0.0188531870154901
 10
1.8500983783374707
 20
2.9406171675010029
 10
2.7264483783374729
 20
4.4585071675009971
 10
2.4979683783374682
 20
4.5904471675010114
  0
LWPOLYLINE
  5
6A
100
AcDbEntity
  8
VectorEngraving
 62
3
420
65280
370
-1
 48
1.0
  6
BYLAYER
100
AcDbPolyline
 90
5
 70
128
 10
-4.493471621662529
 20
2.7170671675010141
 10
-4.6253716216625307
 20
2.4885871675010236
 10
-3.1052216216625297
 20
1.6109271675010319
 42
-0.0188520557002934
 10
-2.9748616216625337
 20
1.8403071675010239
 10
-4.493471621662529
 20
2.7170671675010141
  0
LWPOLYLINE
  5
6B
100
AcDbEntity
  8
VectorEngraving
 62
3
420
65280
370
-1
 48
1.0
  6
BYLAYER
100
AcDbPolyline
 90
5
 70
128
 10
4.4678883783374701
 20
2.7170671675010141
 10
2.9499483783374743
 20
1.8407171675010119
 42
-0.0188549721058722
 10
3.0817183783375199
 20
1.6120971675010054
 10
4.5997783783374828
 20
2.4885871675009952
 10
4.4678883783374701
 20
2.7170671675010141
  0
LWPOLYLINE
  5
6C
100
AcDbEntity
  8
VectorEngraving
 62
3
420
65280
370
-1
 48
1.0
  6
BYLAYER
100
AcDbPolyline
 90
6
 70
128
 10
-5.2628346216625275
 20
0.1097271675010205
 10
-5.2628346216625275
 20
-0.1541128324989671
 10
-3.506701621662522
 20
-0.1541128324989671
 42
-0.0094348651562602
 10
-3.5127016216625506
 20
-0.0221728324989812
 42
-0.00943201020193
 10
-3.5067016216625362
 20
0.1097271675010205
 10
-5.2628346216625275
 20
0.1097271675010205
  0
LWPOLYLINE
  5
6D
100
AcDbEntity
  8
VectorEngraving
 62
3
420
65280
370
-1
 48
1.0
  6
BYLAYER
100
AcDbPolyline
 90
6
 70
128
 10
3.4844183783374589
 20
0.1097271675010205
 42
-0.009424702242363
 10
3.487418378337459
 20
-0.0221728324988959
 42
-0.0094348651562611
 10
3.4814183783374872
 20
-0.1541128324989671
 10
5.2375083783374734
 20
-0.1541128324989671
 10
5.2375083783374734
 20
0.1097271675010205
 10
3.4844183783374731
 20
0.1097271675010205
  0
LWPOLYLINE
  5
6E
100
AcDbEntity
  8
VectorEngraving
 62
3
420
65280
370
-1
 48
1.0
  6
BYLAYER
100
AcDbPolyline
 90
5
 70
128
 10
3.0795883783374691
 20
-1.6552228324989784
 42
-0.0188551641205852
 10
2.9492283783374731
 20
-1.8846528324989862
 10
4.4678883783374701
 20
-2.7614128324989764
 10
4.5997783783374686
 20
-2.5329328324989859
 10
3.0795883783374691
 20
-1.6552228324989784
  0
LWPOLYLINE
  5
6F
100
AcDbEntity
  8
VectorEngraving
 62
3
420
65280
370
-1
 48
1.0
  6
BYLAYER
100
AcDbPolyline
 90
5
 70
128
 10
-3.1052216216625297
 20
-1.6552728324989658
 10
-4.6253716216625307
 20
-2.5329328324989575
 10
-4.493471621662529
 20
-2.761412832498948
 10
-2.9748616216625337
 20
-1.8846528324989578
 42
-0.0188520557002923
 10
-3.1052216216625439
 20
-1.6552728324989658
  0
LWPOLYLINE
  5
70
100
AcDbEntity
  8
VectorEngraving
 62
3
420
65280
370
-1
 48
1.0
  6
BYLAYER
100
AcDbPolyline
 90
5
 70
128
 10
1.8496883783374685
 20
-2.984242832498964
 42
-0.0188520557002944
 10
1.6203083783374623
 20
-3.1146028324989601
 10
2.4979683783374682
 20
-4.6347928324989738
 10
2.7264483783374729
 20
-4.5028528324989878
 10
1.8496883783374685
 20
-2.984242832498964
  0
LWPOLYLINE
  5
71
100
AcDbEntity
  8
VectorEngraving
 62
3
420
65280
370
-1
 48
1.0
  6
BYLAYER
100
AcDbPolyline
 90
6
 70
128
 10
-1.8752716216625274
 20
-2.9842828324989767
 10
-2.7520316216625318
 20
-4.5028528324989878
 10
-2.5235516216625271
 20
-4.6347928324989738
 10
-1.6458916216625212
 20
-3.1146028324989601
 42
-0.0188506426536739
 10
-1.8752716216625274
 20
-2.9842828324989483
 10
-1.8752716216625274
 20
-2.9842828324989767
  0
ENDBLK
  5
72
100
AcDbEntity
  8
0
100
AcDbBlockEnd
  0
BLOCK
  5
73
100
AcDbEntity
  8
0
100
AcDbBlockBegin
  2
block 8
 70
0
 10
0.0
 20
0.0
 30
0.0
  3
block 8
  1

  0
LWPOLYLINE
  5
74
100
AcDbEntity
  8
VectorEngraving
 62
5
420
255
370
-1
 48
1.0
  6
BYLAYER
100
AcDbPolyline
 90
20
 70
128
 10
-9.6223985434999992
 20
3.5055049325000001
 10
-9.6223985434999992
 20
3.0861113745000006
 10
-10.1231553694999992
 20
3.0861113745000006
 10
-10.1231553694999992
 20
2.2472725039999988
 10
-9.6223985434999992
 20
2.2472725039999988
 10
-9.6223985434999992
 20
-0.2365849774999997
 10
-10.1231553694999992
 20
-0.2365849774999997
 10
-10.1231553694999992
 20
-1.0753719874999996
 10
-9.6223985434999992
 20
-1.0753719874999996
 10
-9.6223985434999992
 20
-1.4939893074999997
 10
-9.6223985434999992
 20
-3.5055049325000001
 10
-7.2853780124999989
 20
-3.5055049325000001
 10
-7.2853780124999989
 20
-1.4939893074999997
 10
-6.7416104674999993
 20
-1.4939893074999997
 10
-6.0094962924999997
 20
-3.5055049325000001
 10
-3.6724756024999996
 20
-3.5055049325000001
 10
-4.6877568524999997
 20
-0.7159657374999995
 42
0.1923579134144613
 10
-3.9979806674999985
 20
1.0057578655002395
 42
0.4142131276425501
 10
-6.4977275224330144
 20
3.5055049325000001
 10
-9.6223985434999992
 20
3.5055049325000001
  0
LWPOLYLINE
  5
75
100
AcDbEntity
  8
VectorEngraving
 62
5
420
255
370
-1
 48
1.0
  6
BYLAYER
100
AcDbPolyline
 90
6
 70
128
 10
-7.2853780124999989
 20
1.828293008500002
 10
-6.7073467624999994
 20
1.828293008500002
 42
-0.4142108826965076
 10
-5.8848633474999996
 20
1.0057578654997137
 42
-0.4141924816972828
 10
-6.7073467624999994
 20
0.1832743975000009
 10
-7.2853780124999989
 20
0.1832743975
 10
-7.2853780124999989
 20
1.828293008500002
  0
LWPOLYLINE
  5
76
100
AcDbEntity
  8
VectorEngraving
 62
5
420
255
370
-1
 48
1.0
  6
BYLAYER
100
AcDbPolyline
 90
5
 70
128
 10
-3.6129025424999988
 20
3.5055049325000001
 10
-1.0610868974999992
 20
-3.5055049325000001
 10
1.2758818524999995
 20
-3.5055049325000001
 10
-1.2758818524999995
 20
3.5055049325000001
 10
-3.6129025424999988
 20
3.5055049325000001
  0
LWPOLYLINE
  5
77
100
AcDbEntity
  8
VectorEngraving
 62
5
420
255
370
-1
 48
1.0
  6
BYLAYER
100
AcDbPolyline
 90
8
 70
128
 10
1.4906765424999993
 20
3.5055049325000001
 10
4.0424921874999988
 20
-3.5055049325000001
 10
6.3795126125000028
 20
-3.5055049325000001
 10
8.9313279925000035
 20
3.5055049325000001
 10
6.5943075675000049
 20
3.5055049325000001
 10
5.2109765625000026
 20
-0.2950712724999995
 10
3.8276972325000003
 20
3.5055049325000001
 10
1.4906765424999993
 20
3.5055049325000001
  0
LINE
  5
78
100
AcDbEntity
  8
VectorEngraving
 62
5
420
255
370
-1
 48
1.0
  6
BYLAYER
100
AcDbLine
 10
0.1073974775000028
 20
-0.2950712724999986
 30
0.0
 11
1.490676542500001
 21
3.5055049325000001
 31
0.0
  0
LINE
  5
79
100
AcDbEntity
  8
VectorEngraving
 62
5
420
255
370
-1
 48
1.0
  6
BYLAYER
100
AcDbLine
 10
2.6591996787320564
 20
0.2950350650328817
 30
0.0
 11
1.2758818546243074
 21
-3.505504934606535
 31
0.0
  0
ENDBLK
  5
7A
100
AcDbEntity
  8
0
100
AcDbBlockEnd
  0
BLOCK
  5
7B
100
AcDbEntity
  8
0
100
AcDbBlockBegin
  2
block 4
 70
0
 10
0.0
 20
0.0
 30
0.0
  3
block 4
  1

  0
LWPOLYLINE
  5
7C
100
AcDbEntity
  8
VectorEngraving
 62
256
370
-1
 48
1.0
  6
BYLAYER
100
AcDbPolyline
 90
6
 70
128
 10
-0.1447316216625225
 20
5.2278271675010188
 10
-0.1447316216625225
 20
3.4717371675010185
 42
-0.0094312964636997
 10
-0.012841621662524
 20
3.4777371675010471
 42
-0.0094282736998003
 10
0.1191083783374793
 20
3.4747371675010328
 10
0.1191083783374793
 20
5.2275271675010373
 10
-0.1447316216625225
 20
5.2278271675010188
  0
LWPOLYLINE
  5
7D
100
AcDbEntity
  8
VectorEngraving
 62
256
370
-1
 48
1.0
  6
BYLAYER
100
AcDbPolyline
 90
5
 70
128
 10
-2.5235516216625271
 20
4.5904471675010114
 10
-2.7520316216625318
 20
4.4585071675010255
 10
-1.8752716216625274
 20
2.9399371675010144
 42
-0.018850642653673
 10
-1.6458916216625212
 20
3.0702571675010262
 10
-2.5235516216625271
 20
4.5904471675010114
  0
LWPOLYLINE
  5
7E
100
AcDbEntity
  8
VectorEngraving
 62
256
370
-1
 48
1.0
  6
BYLAYER
100
AcDbPolyline
 90
5
 70
128
 10
2.4979683783374682
 20
4.5904471675010114
 10
1.6214783783374642
 20
3.0723371675010043
 42
-0.0188531870154901
 10
1.8500983783374707
 20
2.9406171675010029
 10
2.7264483783374729
 20
4.4585071675009971
 10
2.4979683783374682
 20
4.5904471675010114
  0
LWPOLYLINE
  5
7F
100
AcDbEntity
  8
VectorEngraving
 62
256
370
-1
 48
1.0
  6
BYLAYER
100
AcDbPolyline
 90
5
 70
128
 10
-4.493471621662529
 20
2.7170671675010141
 10
-4.6253716216625307
 20
2.4885871675010236
 10
-3.1052216216625297
 20
1.6109271675010319
 42
-0.0188520557002934
 10
-2.9748616216625337
 20
1.8403071675010239
 10
-4.493471621662529
 20
2.7170671675010141
  0
LWPOLYLINE
  5
80
100
AcDbEntity
  8
VectorEngraving
 62
256
370
-1
 48
1.0
  6
BYLAYER
100
AcDbPolyline
 90
5
 70
128
 10
4.4678883783374701
 20
2.7170671675010141
 10
2.9499483783374743
 20
1.8407171675010119
 42
-0.0188549721058722
 10
3.0817183783375199
 20
1.6120971675010054
 10
4.5997783783374828
 20
2.4885871675009952
 10
4.4678883783374701
 20
2.7170671675010141
  0
LWPOLYLINE
  5
81
100
AcDbEntity
  8
VectorEngraving
 62
256
370
-1
 48
1.0
  6
BYLAYER
100
AcDbPolyline
 90
6
 70
128
 10
-5.2628346216625275
 20
0.1097271675010205
 10
-5.2628346216625275
 20
-0.1541128324989671
 10
-3.506701621662522
 20
-0.1541128324989671
 42
-0.0094348651562602
 10
-3.5127016216625506
 20
-0.0221728324989812
 42
-0.00943201020193
 10
-3.5067016216625362
 20
0.1097271675010205
 10
-5.2628346216625275
 20
0.1097271675010205
  0
LWPOLYLINE
  5
82
100
AcDbEntity
  8
VectorEngraving
 62
256
370
-1
 48
1.0
  6
BYLAYER
100
AcDbPolyline
 90
6
 70
128
 10
3.4844183783374589
 20
0.1097271675010205
 42
-0.009424702242363
 10
3.487418378337459
 20
-0.0221728324988959
 42
-0.0094348651562611
 10
3.4814183783374872
 20
-0.1541128324989671
 10
5.2375083783374734
 20
-0.1541128324989671
 10
5.2375083783374734
 20
0.1097271675010205
 10
3.4844183783374731
 20
0.1097271675010205
  0
LWPOLYLINE
  5
83
100
AcDbEntity
  8
VectorEngraving
 62
256
370
-1
 48
1.0
  6
BYLAYER
100
AcDbPolyline
 90
5
 70
128
 10
3.0795883783374691
 20
-1.6552228324989784
 42
-0.0188551641205852
 10
2.9492283783374731
 20
-1.8846528324989862
 10
4.4678883783374701
 20
-2.7614128324989764
 10
4.5997783783374686
 20
-2.5329328324989859
 10
3.0795883783374691
 20
-1.6552228324989784
  0
LWPOLYLINE
  5
84
100
AcDbEntity
  8
VectorEngraving
 62
256
370
-1
 48
1.0
  6
BYLAYER
100
AcDbPolyline
 90
5
 70
128
 10
-3.1052216216625297
 20
-1.6552728324989658
 10
-4.6253716216625307
 20
-2.5329328324989575
 10
-4.493471621662529
 20
-2.761412832498948
 10
-2.9748616216625337
 20
-1.8846528324989578
 42
-0.0188520557002923
 10
-3.1052216216625439
 20
-1.6552728324989658
  0
LWPOLYLINE
  5
85
100
AcDbEntity
  8
VectorEngraving
 62
256
370
-1
 48
1.0
  6
BYLAYER
100
AcDbPolyline
 90
5
 70
128
 10
1.8496883783374685
 20
-2.984242832498964
 42
-0.0188520557002944
 10
1.6203083783374623
 20
-3.1146028324989601
 10
2.4979683783374682
 20
-4.6347928324989738
 10
2.7264483783374729
 20
-4.5028528324989878
 10
1.8496883783374685
 20
-2.984242832498964
  0
LWPOLYLINE
  5
86
100
AcDbEntity
  8
VectorEngraving
 62
256
370
-1
 48
1.0
  6
BYLAYER
100
AcDbPolyline
 90
6
 70
128
 10
-1.8752716216625274
 20
-2.9842828324989767
 10
-2.7520316216625318
 20
-4.5028528324989878
 10
-2.5235516216625271
 20
-4.6347928324989738
 10
-1.6458916216625212
 20
-3.1146028324989601
 42
-0.0188506426536739
 10
-1.8752716216625274
 20
-2.9842828324989483
 10
-1.8752716216625274
 20
-2.9842828324989767
  0
ENDBLK
  5
87
100
AcDbEntity
  8
0
100
AcDbBlockEnd
  0
BLOCK
  5
88
100
AcDbEntity
  8
0
100
AcDbBlockBegin
  2
block 6
 70
0
 10
0.0
 20
0.0
 30
0.0
  3
block 6
  1

  0
LWPOLYLINE
  5
89
100
AcDbEntity
  8
VectorEngraving
 62
256
370
-1
 48
1.0
  6
BYLAYER
100
AcDbPolyline
 90
20
 70
128
 10
-9.6223985434999992
 20
3.5055049324999992
 10
-9.6223985434999992
 20
3.0861113744999997
 10
-10.1231553694999992
 20
3.0861113744999997
 10
-10.1231553694999992
 20
2.2472725039999997
 10
-9.6223985434999992
 20
2.2472725039999997
 10
-9.6223985434999992
 20
-0.2365849774999997
 10
-10.1231553694999992
 20
-0.2365849774999997
 10
-10.1231553694999992
 20
-1.0753719874999996
 10
-9.6223985434999992
 20
-1.0753719874999996
 10
-9.6223985434999992
 20
-1.4939893074999997
 10
-9.6223985434999992
 20
-3.5055049325000001
 10
-7.2853780124999989
 20
-3.5055049325000001
 10
-7.2853780124999989
 20
-1.4939893074999997
 10
-6.7416104674999993
 20
-1.4939893074999997
 10
-6.0094962924999997
 20
-3.5055049325000001
 10
-3.6724756024999996
 20
-3.5055049325000001
 10
-4.6877568524999997
 20
-0.7159657374999995
 42
0.1923579134144613
 10
-3.9979806674999985
 20
1.0057578655002395
 42
0.4142131276425501
 10
-6.4977275224330144
 20
3.5055049324999992
 10
-9.6223985434999992
 20
3.5055049324999992
  0
LWPOLYLINE
  5
8A
100
AcDbEntity
  8
VectorEngraving
 62
256
370
-1
 48
1.0
  6
BYLAYER
100
AcDbPolyline
 90
6
 70
128
 10
-7.2853780124999989
 20
1.8282930085000011
 10
-6.7073467624999994
 20
1.8282930085000011
 42
-0.4142108826965076
 10
-5.8848633474999996
 20
1.0057578654997137
 42
-0.4141924816972828
 10
-6.7073467624999994
 20
0.1832743975000009
 10
-7.2853780124999989
 20
0.1832743975
 10
-7.2853780124999989
 20
1.8282930085000011
  0
LWPOLYLINE
  5
8B
100
AcDbEntity
  8
VectorEngraving
 62
256
370
-1
 48
1.0
  6
BYLAYER
100
AcDbPolyline
 90
5
 70
128
 10
-3.6129025424999988
 20
3.5055049324999992
 10
-1.0610868974999992
 20
-3.5055049325000001
 10
1.2758818524999995
 20
-3.5055049325000001
 10
-1.2758818524999995
 20
3.5055049324999992
 10
-3.6129025424999988
 20
3.5055049324999992
  0
LWPOLYLINE
  5
8C
100
AcDbEntity
  8
VectorEngraving
 62
256
370
-1
 48
1.0
  6
BYLAYER
100
AcDbPolyline
 90
8
 70
128
 10
1.4906765424999993
 20
3.5055049324999992
 10
4.0424921874999988
 20
-3.5055049325000001
 10
6.379512612500001
 20
-3.5055049325000001
 10
8.9313279925000018
 20
3.5055049324999992
 10
6.5943075675000031
 20
3.5055049324999992
 10
5.2109765625000009
 20
-0.2950712724999995
 10
3.8276972325000003
 20
3.5055049324999992
 10
1.4906765424999993
 20
3.5055049324999992
  0
LINE
  5
8D
100
AcDbEntity
  8
VectorEngraving
 62
256
370
-1
 48
1.0
  6
BYLAYER
100
AcDbLine
 10
0.1073974775000028
 20
-0.2950712724999986
 30
0.0
 11
1.490676542500001
 21
3.5055049325000009
 31
0.0
  0
LINE
  5
8E
100
AcDbEntity
  8
VectorEngraving
 62
256
370
-1
 48
1.0
  6
BYLAYER
100
AcDbLine
 10
2.6591996787320564
 20
0.2950350650328817
 30
0.0
 11
1.2758818546243074
 21
-3.505504934606535
 31
0.0
  0
ENDBLK
  5
8F
100
AcDbEntity
  8
0
100
AcDbBlockEnd
  0
BLOCK
  5
90
100
AcDbEntity
  8
0
100
AcDbBlockBegin
  2
block 1
 70
0
 10
0.0
 20
0.0
 30
0.0
  3
block 1
  1

  0
ENDBLK
  5
91
100
AcDbEntity
  8
0
100
AcDbBlockEnd
  0
BLOCK
  5
92
100
AcDbEntity
  8
0
100
AcDbBlockBegin
  2
block 3
 70
0
 10
0.0
 20
0.0
 30
0.0
  3
block 3
  1

  0
ENDBLK
  5
93
100
AcDbEntity
  8
0
100
AcDbBlockEnd
  0
BLOCK
  5
94
100
AcDbEntity
  8
0
100
AcDbBlockBegin
  2
block 5
 70
0
 10
0.0
 20
0.0
 30
0.0
  3
block 5
  1

  0
LWPOLYLINE
  5
95
100
AcDbEntity
  8
0
 62
256
370
-1
 48
1.0
  6
BYLAYER
100
AcDbPolyline
 90
20
 70
128
 10
-363.1093789999999899
 20
132.2832050000000095
 10
-363.1093789999999899
 20
116.4570330000000098
 10
-382.0058629999999766
 20
116.4570330000000098
 10
-382.0058629999999766
 20
84.8027360000000101
 10
-363.1093789999999899
 20
84.8027360000000101
 10
-363.1093789999999899
 20
-8.9277349999999842
 10
-382.0058629999999766
 20
-8.9277349999999842
 10
-382.0058629999999766
 20
-40.5800749999999937
 10
-363.1093789999999899
 20
-40.5800749999999937
 10
-363.1093789999999899
 20
-56.3769549999999811
 10
-363.1093789999999899
 20
-132.2832050000000095
 10
-274.9199249999999779
 20
-132.2832050000000095
 10
-274.9199249999999779
 20
-56.3769550000000095
 10
-254.4003949999999747
 20
-56.3769550000000095
 10
-226.7734449999999811
 20
-132.2832050000000095
 10
-138.5839849999999842
 20
-132.2832050000000095
 10
-176.8964849999999842
 20
-27.0175749999999937
 42
0.1923579134144613
 10
-150.8671949999999242
 20
37.9531270000090473
 42
0.4142131276425501
 10
-245.1972649974722458
 20
132.2832049999999811
 10
-363.1093789999999899
 20
132.2832050000000095
  0
LWPOLYLINE
  5
96
100
AcDbEntity
  8
0
 62
256
370
-1
 48
1.0
  6
BYLAYER
100
AcDbPolyline
 90
6
 70
128
 10
-274.9199249999999779
 20
68.9921890000000104
 10
-253.1074249999999779
 20
68.9921890000000104
 42
-0.4142108826965076
 10
-222.0703149999999937
 20
37.9531269999891805
 42
-0.4141924816972828
 10
-253.1074249999999779
 20
6.91601500000003
 10
-274.9199249999999779
 20
6.9160150000000158
 10
-274.9199249999999779
 20
68.9921890000000104
  0
LWPOLYLINE
  5
97
100
AcDbEntity
  8
0
 62
256
370
-1
 48
1.0
  6
BYLAYER
100
AcDbPolyline
 90
5
 70
128
 10
56.2519449999999779
 20
132.2832050000000095
 10
4.0527350000000411
 20
-11.1347649999999874
 10
48.1464849999999842
 20
-132.2832050000000095
 10
100.3476550000000316
 20
11.1347649999999874
 10
56.2519449999999779
 20
132.2832050000000095
  0
LWPOLYLINE
  5
98
100
AcDbEntity
  8
0
 62
256
370
-1
 48
1.0
  6
BYLAYER
100
AcDbPolyline
 90
5
 70
128
 10
-136.3359449999999811
 20
132.2832050000000095
 10
-40.0410149999999589
 20
-132.2832050000000095
 10
48.1464849999999842
 20
-132.2832050000000095
 10
-48.1464849999999842
 20
132.2832050000000095
 10
-136.3359449999999811
 20
132.2832050000000095
  0
LWPOLYLINE
  5
99
100
AcDbEntity
  8
0
 62
256
370
-1
 48
1.0
  6
BYLAYER
100
AcDbPolyline
 90
8
 70
128
 10
56.2519449999999779
 20
132.2832050000000095
 10
152.546875
 20
-132.2832050000000095
 10
240.7363250000000789
 20
-132.2832050000000095
 10
337.0312450000001263
 20
132.2832050000000095
 10
248.8417950000000474
 20
132.2832050000000095
 10
196.640625
 20
-11.1347649999999874
 10
144.4414050000000316
 20
132.2832050000000095
 10
56.2519449999999779
 20
132.2832050000000095
  0
ENDBLK
  5
9A
100
AcDbEntity
  8
0
100
AcDbBlockEnd
  0
BLOCK
  5
9B
100
AcDbEntity
  8
0
100
AcDbBlockBegin
  2
block 7
 70
0
 10
0.0
 20
0.0
 30
0.0
  3
block 7
  1

  0
LWPOLYLINE
  5
9C
100
AcDbEntity
  8
VectorEngraving
 62
3
420
65280
370
-1
 48
1.0
  6
BYLAYER
100
AcDbPolyline
 90
6
 70
128
 10
-0.1447316216625225
 20
5.2278271675010188
 10
-0.1447316216625225
 20
3.4717371675010185
 42
-0.0094312964636997
 10
-0.012841621662524
 20
3.4777371675010471
 42
-0.0094282736998003
 10
0.1191083783374793
 20
3.4747371675010328
 10
0.1191083783374793
 20
5.2275271675010373
 10
-0.1447316216625225
 20
5.2278271675010188
  0
LWPOLYLINE
  5
9D
100
AcDbEntity
  8
VectorEngraving
 62
3
420
65280
370
-1
 48
1.0
  6
BYLAYER
100
AcDbPolyline
 90
5
 70
128
 10
-2.5235516216625271
 20
4.5904471675010114
 10
-2.7520316216625318
 20
4.4585071675010255
 10
-1.8752716216625274
 20
2.9399371675010144
 42
-0.018850642653673
 10
-1.6458916216625212
 20
3.0702571675010262
 10
-2.5235516216625271
 20
4.5904471675010114
  0
LWPOLYLINE
  5
9E
100
AcDbEntity
  8
VectorEngraving
 62
3
420
65280
370
-1
 48
1.0
  6
BYLAYER
100
AcDbPolyline
 90
5
 70
128
 10
2.4979683783374682
 20
4.5904471675010114
 10
1.6214783783374642
 20
3.0723371675010043
 42
-0.0188531870154901
 10
1.8500983783374707
 20
2.9406171675010029
 10
2.7264483783374729
 20
4.4585071675009971
 10
2.4979683783374682
 20
4.5904471675010114
  0
LWPOLYLINE
  5
9F
100
AcDbEntity
  8
VectorEngraving
 62
3
420
65280
370
-1
 48
1.0
  6
BYLAYER
100
AcDbPolyline
 90
5
 70
128
 10
-4.493471621662529
 20
2.7170671675010141
 10
-4.6253716216625307
 20
2.4885871675010236
 10
-3.1052216216625297
 20
1.6109271675010319
 42
-0.0188520557002934
 10
-2.9748616216625337
 20
1.8403071675010239
 10
-4.493471621662529
 20
2.7170671675010141
  0
LWPOLYLINE
  5
A0
100
AcDbEntity
  8
VectorEngraving
 62
3
420
65280
370
-1
 48
1.0
  6
BYLAYER
100
AcDbPolyline
 90
5
 70
128
 10
4.4678883783374701
 20
2.7170671675010141
 10
2.9499483783374743
 20
1.8407171675010119
 42
-0.0188549721058722
 10
3.0817183783375199
 20
1.6120971675010054
 10
4.5997783783374828
 20
2.4885871675009952
 10
4.4678883783374701
 20
2.7170671675010141
  0
LWPOLYLINE
  5
A1
100
AcDbEntity
  8
VectorEngraving
 62
3
420
65280
370
-1
 48
1.0
  6
BYLAYER
100
AcDbPolyline
 90
6
 70
128
 10
-5.2628346216625275
 20
0.1097271675010205
 10
-5.2628346216625275
 20
-0.1541128324989671
 10
-3.506701621662522
 20
-0.1541128324989671
 42
-0.0094348651562602
 10
-3.5127016216625506
 20
-0.0221728324989812
 42
-0.00943201020193
 10
-3.5067016216625362
 20
0.1097271675010205
 10
-5.2628346216625275
 20
0.1097271675010205
  0
LWPOLYLINE
  5
A2
100
AcDbEntity
  8
VectorEngraving
 62
3
420
65280
370
-1
 48
1.0
  6
BYLAYER
100
AcDbPolyline
 90
6
 70
128
 10
3.4844183783374589
 20
0.1097271675010205
 42
-0.009424702242363
 10
3.487418378337459
 20
-0.0221728324988959
 42
-0.0094348651562611
 10
3.4814183783374872
 20
-0.1541128324989671
 10
5.2375083783374734
 20
-0.1541128324989671
 10
5.2375083783374734
 20
0.1097271675010205
 10
3.4844183783374731
 20
0.1097271675010205
  0
LWPOLYLINE
  5
A3
100
AcDbEntity
  8
VectorEngraving
 62
3
420
65280
370
-1
 48
1.0
  6
BYLAYER
100
AcDbPolyline
 90
5
 70
128
 10
3.0795883783374691
 20
-1.6552228324989784
 42
-0.0188551641205852
 10
2.9492283783374731
 20
-1.8846528324989862
 10
4.4678883783374701
 20
-2.7614128324989764
 10
4.5997783783374686
 20
-2.5329328324989859
 10
3.0795883783374691
 20
-1.6552228324989784
  0
LWPOLYLINE
  5
A4
100
AcDbEntity
  8
VectorEngraving
 62
3
420
65280
370
-1
 48
1.0
  6
BYLAYER
100
AcDbPolyline
 90
5
 70
128
 10
-3.1052216216625297
 20
-1.6552728324989658
 10
-4.6253716216625307
 20
-2.5329328324989575
 10
-4.493471621662529
 20
-2.761412832498948
 10
-2.9748616216625337
 20
-1.8846528324989578
 42
-0.0188520557002923
 10
-3.1052216216625439
 20
-1.6552728324989658
  0
LWPOLYLINE
  5
A5
100
AcDbEntity
  8
VectorEngraving
 62
3
420
65280
370
-1
 48
1.0
  6
BYLAYER
100
AcDbPolyline
 90
5
 70
128
 10
1.8496883783374685
 20
-2.984242832498964
 42
-0.0188520557002944
 10
1.6203083783374623
 20
-3.1146028324989601
 10
2.4979683783374682
 20
-4.6347928324989738
 10
2.7264483783374729
 20
-4.5028528324989878
 10
1.8496883783374685
 20
-2.984242832498964
  0
LWPOLYLINE
  5
A6
100
AcDbEntity
  8
VectorEngraving
 62
3
420
65280
370
-1
 48
1.0
  6
BYLAYER
100
AcDbPolyline
 90
6
 70
128
 10
-1.8752716216625274
 20
-2.9842828324989767
 10
-2.7520316216625318
 20
-4.5028528324989878
 10
-2.5235516216625271
 20
-4.6347928324989738
 10
-1.6458916216625212
 20
-3.1146028324989601
 42
-0.0188506426536739
 10
-1.8752716216625274
 20
-2.9842828324989483
 10
-1.8752716216625274
 20
-2.9842828324989767
  0
ENDBLK
  5
A7
100
AcDbEntity
  8
0
100
AcDbBlockEnd
  0
BLOCK
  5
A8
100
AcDbEntity
  8
0
100
AcDbBlockBegin
  2
block 2
 70
0
 10
0.0
 20
0.0
 30
0.0
  3
block 2
  1

  0
INSERT
  5
A9
100
AcDbEntity
  8
VectorEngraving
 62
256
370
-1
 48
1.0
  6
BYLAYER
100
AcDbBlockReference
  2
block 1
 10
-269.800785000000019
 20
132.2832050000000095
 30
0.0
  0
ENDBLK
  5
AA
100
AcDbEntity
  8
0
100
AcDbBlockEnd
  0
ENDSEC
  0
SECTION
  2
ENTITIES
  0
LWPOLYLINE
  5
AB
100
AcDbEntity
  8
VectorEngraving
 62
5
420
255
370
-1
 48
1.0
  6
BYLAYER
100
AcDbPolyline
 90
20
 70
128
 10
1.1351024391742337
 20
8.200289337985474
 10
1.1351024391742337
 20
7.9905925589854743
 10
0.8847240261742337
 20
7.9905925589854743
 10
0.8847240261742337
 20
7.5711731237354734
 10
1.1351024391742337
 20
7.5711731237354734
 10
1.1351024391742337
 20
6.3292443829854745
 10
0.8847240261742337
 20
6.3292443829854745
 10
0.8847240261742337
 20
5.909850877985475
 10
1.1351024391742337
 20
5.909850877985475
 10
1.1351024391742337
 20
5.7005422179854746
 10
1.1351024391742337
 20
4.6947844054854748
 10
2.3036127046742338
 20
4.6947844054854748
 10
2.3036127046742338
 20
5.7005422179854746
 10
2.5754964771742337
 20
5.7005422179854746
 10
2.9415535646742335
 20
4.6947844054854748
 10
4.1100639096742331
 20
4.6947844054854748
 10
3.6024232846742335
 20
6.0895540029854747
 42
0.1923579134144613
 10
3.9473113771742341
 20
6.9504158044855942
 42
0.4142131276425501
 10
2.6974379497077261
 20
8.200289337985474
 10
1.1351024391742337
 20
8.200289337985474
  0
LWPOLYLINE
  5
AC
100
AcDbEntity
  8
VectorEngraving
 62
5
420
255
370
-1
 48
1.0
  6
BYLAYER
100
AcDbPolyline
 90
6
 70
128
 10
2.3036127046742338
 20
7.361683375985475
 10
2.5926283296742336
 20
7.361683375985475
 42
-0.4142108826965076
 10
3.0038700371742335
 20
6.9504158044853313
 42
-0.4141924816972828
 10
2.5926283296742336
 20
6.5391740704854744
 10
2.3036127046742338
 20
6.5391740704854744
 10
2.3036127046742338
 20
7.361683375985475
  0
LWPOLYLINE
  5
AD
100
AcDbEntity
  8
VectorEngraving
 62
5
420
255
370
-1
 48
1.0
  6
BYLAYER
100
AcDbPolyline
 90
5
 70
128
 10
4.1398504396742339
 20
8.200289337985474
 10
5.4157582621742337
 20
4.6947844054854748
 10
6.5842426371742331
 20
4.6947844054854748
 10
5.3083607846742336
 20
8.200289337985474
 10
4.1398504396742339
 20
8.200289337985474
  0
LWPOLYLINE
  5
AE
100
AcDbEntity
  8
VectorEngraving
 62
5
420
255
370
-1
 48
1.0
  6
BYLAYER
100
AcDbPolyline
 90
8
 70
128
 10
6.6916399821742329
 20
8.200289337985474
 10
7.9675478046742327
 20
4.6947844054854748
 10
9.1360580171742356
 20
4.6947844054854748
 10
10.411965707174236
 20
8.200289337985474
 10
9.2434554946742367
 20
8.200289337985474
 10
8.5517899921742355
 20
6.3000012354854746
 10
7.8601503271742335
 20
8.200289337985474
 10
6.6916399821742329
 20
8.200289337985474
  0
LINE
  5
AF
100
AcDbEntity
  8
VectorEngraving
 62
5
420
255
370
-1
 48
1.0
  6
BYLAYER
100
AcDbLine
 10
6.0000004496742347
 20
6.3000012354854746
 30
0.0
 11
6.6916399821742338
 21
8.200289337985474
 31
0.0
  0
LINE
  5
B0
100
AcDbEntity
  8
VectorEngraving
 62
5
420
255
370
-1
 48
1.0
  6
BYLAYER
100
AcDbLine
 10
7.2759015502902615
 20
6.5950544042519148
 30
0.0
 11
6.584242638236387
 21
4.6947844044322071
 31
0.0
  0
LINE
  5
B1
100
AcDbEntity
  8
Cuts
 62
1
420
16711680
370
-1
 48
1.0
  6
BYLAYER
100
AcDbLine
 10
0.0
 20
0.0
 30
0.0
 11
20.0
 21
0.0
 31
0.0
  0
LINE
  5
B2
100
AcDbEntity
  8
Cuts
 62
1
420
16711680
370
-1
 48
1.0
  6
BYLAYER
100
AcDbLine
 10
20.0
 20
0.0
 30
0.0
 11
20.0
 21
128.5
 31
0.0
  0
LINE
  5
B3
100
AcDbEntity
  8
Cuts
 62
1
420
16711680
370
-1
 48
1.0
  6
BYLAYER
100
AcDbLine
 10
20.0
 20
128.5
 30
0.0
 11
0.0
 21
128.5
 31
0.0
  0
LINE
  5
B4
100
AcDbEntity
  8
Cuts
 62
1
420
16711680
370
-1
 48
1.0
  6
BYLAYER
100
AcDbLine
 10
0.0
 20
128.5
 30
0.0
 11
0.0
 21
0.0
 31
0.0
  0
DIMENSION
  5
B5
100
AcDbEntity
  8
UserDrawings
 62
256
370
-1
 48
1.0
  6
BYLAYER
100
AcDbDimension
 10
-10.0
 20
0.0
 30
0.0
 11
-11.875
 21
64.25
 31
0.0
 70
0
 71
8
 72
2
 74
0
 75
0
 41
1.0
 42
0.0
  1

  3
Standard
100
AcDbAlignedDimension
 13
-0.0
 23
-0.0
 33
0.0
 14
0.0
 24
128.5
 34
0.0
 50
90.0
100
AcDbRotatedDimension
1001
ACAD
1000
DSTYLE
1002
{
1070
144
1040
1.0
1070
40
1040
1.0
1002
}
  0
DIMENSION
  5
B6
100
AcDbEntity
  8
UserDrawings
 62
256
370
-1
 48
1.0
  6
BYLAYER
100
AcDbDimension
 10
0.0
 20
136.7913298366080426
 30
0.0
 11
10.0
 21
138.6663298366080426
 31
0.0
 70
0
 71
8
 72
2
 74
0
 75
0
 41
1.0
 42
0.0
  1

  3
Standard
100
AcDbAlignedDimension
 13
0.0
 23
128.5
 33
0.0
 14
20.0
 24
128.5
 34
0.0
 50
0.0
100
AcDbRotatedDimension
1001
ACAD
1000
DSTYLE
1002
{
1070
144
1040
1.0
1070
40
1040
1.0
1002
}
  0
LINE
  5
B7
100
AcDbEntity
  8
Cuts
 62
1
420
16711680
370
-1
 48
1.0
  6
BYLAYER
100
AcDbLine
 10
11.5000000000000107
 20
127.1000000000000369
 30
0.0
 11
13.5000000000000107
 21
127.1000000000000369
 31
0.0
  0
LINE
  5
B8
100
AcDbEntity
  8
Cuts
 62
1
420
16711680
370
-1
 48
1.0
  6
BYLAYER
100
AcDbLine
 10
11.5000000000000107
 20
4.6000000000000227
 30
0.0
 11
13.5000000000000107
 21
4.6000000000000227
 31
0.0
  0
LINE
  5
B9
100
AcDbEntity
  8
Cuts
 62
1
420
16711680
370
-1
 48
1.0
  6
BYLAYER
100
AcDbLine
 10
11.5000000000000107
 20
123.9000000000000341
 30
0.0
 11
13.5000000000000107
 21
123.9000000000000341
 31
0.0
  0
LINE
  5
BA
100
AcDbEntity
  8
Cuts
 62
1
420
16711680
370
-1
 48
1.0
  6
BYLAYER
100
AcDbLine
 10
11.5000000000000107
 20
1.4000000000000203
 30
0.0
 11
13.5000000000000107
 21
1.4000000000000203
 31
0.0
  0
ARC
  5
BB
100
AcDbEntity
  8
Cuts
 62
1
420
16711680
370
-1
 48
1.0
  6
BYLAYER
100
AcDbCircle
 10
13.5000000000000107
 20
125.5000000000000426
 30
0.0
 40
1.6000000000000085
100
AcDbArc
 50
270.0
 51
90.0
  0
ARC
  5
BC
100
AcDbEntity
  8
Cuts
 62
1
420
16711680
370
-1
 48
1.0
  6
BYLAYER
100
AcDbCircle
 10
13.5000000000000107
 20
3.0000000000000289
 30
0.0
 40
1.6000000000000085
100
AcDbArc
 50
270.0
 51
90.0
  0
ARC
  5
BD
100
AcDbEntity
  8
Cuts
 62
1
420
16711680
370
-1
 48
1.0
  6
BYLAYER
100
AcDbCircle
 10
11.5000000000000107
 20
125.5000000000000426
 30
0.0
 40
1.6000000000000085
100
AcDbArc
 50
90.0
 51
270.0
  0
ARC
  5
BE
100
AcDbEntity
  8
Cuts
 62
1
420
16711680
370
-1
 48
1.0
  6
BYLAYER
100
AcDbCircle
 10
11.5000000000000107
 20
3.0000000000000289
 30
0.0
 40
1.6000000000000085
100
AcDbArc
 50
90.0
 51
270.0
  0
CIRCLE
  5
BF
100
AcDbEntity
  8
Cuts
 62
1
420
16711680
370
-1
 48
1.0
  6
BYLAYER
100
AcDbCircle
 10
13.0
 20
109.0
 30
0.0
 40
3.2000000000000002
  0
CIRCLE
  5
C0
100
AcDbEntity
  8
Cuts
 62
1
420
16711680
370
-1
 48
1.0
  6
BYLAYER
100
AcDbCircle
 10
13.0
 20
91.0
 30
0.0
 40
3.2000000000000002
  0
CIRCLE
  5
C1
100
AcDbEntity
  8
Cuts
 62
1
420
16711680
370
-1
 48
1.0
  6
BYLAYER
100
AcDbCircle
 10
13.0
 20
73.0
 30
0.0
 40
3.2000000000000002
  0
CIRCLE
  5
C2
100
AcDbEntity
  8
Cuts
 62
1
420
16711680
370
-1
 48
1.0
  6
BYLAYER
100
AcDbCircle
 10
13.0
 20
55.0
 30
0.0
 40
3.2000000000000002
  0
CIRCLE
  5
C3
100
AcDbEntity
  8
Cuts
 62
1
420
16711680
370
-1
 48
1.0
  6
BYLAYER
100
AcDbCircle
 10
15.0
 20
38.0
 30
0.0
 40
3.2000000000000002
  0
CIRCLE
  5
C4
100
AcDbEntity
  8
Cuts
 62
1
420
16711680
370
-1
 48
1.0
  6
BYLAYER
100
AcDbCircle
 10
15.0
 20
23.0
 30
0.0
 40
3.2000000000000002
  0
CIRCLE
  5
C5
100
AcDbEntity
  8
Cuts
 62
1
420
16711680
370
-1
 48
1.0
  6
BYLAYER
100
AcDbCircle
 10
5.0
 20
23.0
 30
0.0
 40
3.2000000000000002
  0
CIRCLE
  5
C6
100
AcDbEntity
  8
Cuts
 62
1
420
16711680
370
-1
 48
1.0
  6
BYLAYER
100
AcDbCircle
 10
5.0
 20
33.0
 30
0.0
 40
2.6000000000000001
  0
INSERT
  5
C7
100
AcDbEntity
  8
VectorEngraving
 62
256
370
-1
 48
1.0
  6
BYLAYER
100
AcDbBlockReference
  2
block 9
 10
13.0
 20
109.0
 30
0.0
  0
INSERT
  5
C8
100
AcDbEntity
  8
VectorEngraving
 62
256
370
-1
 48
1.0
  6
BYLAYER
100
AcDbBlockReference
  2
block 9
 10
13.0
 20
91.0
 30
0.0
  0
INSERT
  5
C9
100
AcDbEntity
  8
VectorEngraving
 62
256
370
-1
 48
1.0
  6
BYLAYER
100
AcDbBlockReference
  2
block 9
 10
13.0
 20
73.0
 30
0.0
  0
INSERT
  5
CA
100
AcDbEntity
  8
VectorEngraving
 62
256
370
-1
 48
1.0
  6
BYLAYER
100
AcDbBlockReference
  2
block 9
 10
13.0
 20
55.0
 30
0.0
  0
LWPOLYLINE
  5
CB
100
AcDbEntity
  8
VectorEngraving
 62
256
370
-1
 48
1.0
  6
BYLAYER
100
AcDbPolyline
 90
13
 70
129
 10
6.1298482293423273
 20
120.6726625445006533
 10
6.1298482293423273
 20
122.6599213041034204
 10
6.7582911748173133
 20
122.6599213041034204
 42
-0.1905232060051914
 10
7.2908000749484732
 20
122.5004684279557807
 42
-0.2148899109718569
 10
7.459808881394042
 20
122.0760727000187416
 42
-0.1001913794400945
 10
7.4137155705452509
 20
121.8575979014427588
 42
-0.096540289631067
 10
7.282930485291363
 20
121.6614202735619301
 42
-0.1106023788063479
 10
7.0869402285928427
 20
121.5338204984073371
 10
7.514146524264568
 20
120.6726625445006533
 10
7.1345325089001319
 20
120.6726625445006533
 10
6.73280869402286
 20
121.4989694584972852
 10
6.4933483230279183
 20
121.4989694584972852
 10
6.4933483230279183
 20
120.6726625445006533
  0
LWPOLYLINE
  5
CC
100
AcDbEntity
  8
VectorEngraving
 62
256
370
-1
 48
1.0
  6
BYLAYER
100
AcDbPolyline
 90
7
 70
129
 10
6.4933483230279183
 20
121.7987633501967366
 10
6.7837736556117676
 20
121.7987633501967366
 42
0.1918312228858884
 10
7.0133033539441634
 20
121.8705265130222983
 42
0.215460677908085
 10
7.0899381675098372
 20
122.066704140903127
 42
0.1955098707729316
 10
7.0133033539441634
 20
122.2643807382424512
 42
0.2146607426726268
 10
6.7837736556117676
 20
122.3473861720067362
 10
6.4933483230279183
 20
122.3473861720067362
  0
LWPOLYLINE
  5
CD
100
AcDbEntity
  8
VectorEngraving
 62
256
370
-1
 48
1.0
  6
BYLAYER
100
AcDbPolyline
 90
13
 70
129
 10
7.8742739366685406
 20
120.6726625445006533
 10
7.6127037661607648
 20
122.6599213041034204
 10
7.9252388982574482
 20
122.6599213041034204
 10
8.0593966647929562
 20
121.4127787146336885
 10
8.3145962151021173
 20
122.5036537380550783
 10
8.505714821060522
 20
122.5036537380550783
 10
8.7609143713696831
 20
121.4157766535506795
 10
8.8662169758291185
 20
122.6599213041034204
 10
9.1596402473299605
 20
122.6599213041034204
 10
8.9014427581038049
 20
120.6726625445006533
 10
8.6750983698707138
 20
120.6726625445006533
 10
8.3940415964024737
 20
121.897695334457552
 10
8.1069889451002446
 20
120.6726625445006533
  0
LWPOLYLINE
  5
CE
100
AcDbEntity
  8
VectorEngraving
 62
256
370
-1
 48
1.0
  6
BYLAYER
100
AcDbPolyline
 90
12
 70
129
 10
10.9325463743676217
 20
120.6726625445006533
 10
10.9325463743676217
 20
122.6599213041034204
 10
12.2276559865092764
 20
122.6599213041034204
 10
12.2276559865092764
 20
122.3664980326025784
 10
11.2833052276559869
 20
122.3664980326025784
 10
11.2833052276559869
 20
121.8560989319842633
 10
12.0586471800637067
 20
121.8560989319842633
 10
12.0586471800637067
 20
121.5593029792018029
 10
11.2833052276559869
 20
121.5593029792018029
 10
11.2833052276559869
 20
120.9660858160014953
 10
12.2179126850290416
 20
120.9660858160014953
 10
12.2179126850290416
 20
120.6726625445006533
  0
LWPOLYLINE
  5
CF
100
AcDbEntity
  8
VectorEngraving
 62
256
370
-1
 48
1.0
  6
BYLAYER
100
AcDbPolyline
 90
13
 70
129
 10
12.4663668727749677
 20
120.6726625445006533
 10
12.4663668727749677
 20
122.6599213041034204
 10
12.7822746861532686
 20
122.6599213041034204
 10
13.1682593217163202
 20
121.747423646243206
 10
13.5542439572793718
 20
122.6629192430204256
 10
13.8701517706576727
 20
122.6629192430204256
 10
13.8701517706576727
 20
120.6726625445006533
 10
13.5572418961963663
 20
120.6726625445006533
 10
13.5572418961963663
 20
122.0603335207045177
 10
13.2447067640996821
 20
121.3295859096870828
 10
13.0693273374554995
 20
121.3295859096870828
 10
12.7759040659546557
 20
122.0569608394228993
 10
12.7759040659546557
 20
120.6726625445006533
  0
LWPOLYLINE
  5
D0
100
AcDbEntity
  8
VectorEngraving
 62
256
370
-1
 48
1.0
  6
BYLAYER
100
AcDbPolyline
 90
8
 70
129
 10
4.0444069702079819
 20
117.3434513771781837
 10
3.9072512647554802
 20
117.8058834551246008
 10
3.3874836050215471
 20
117.8058834551246008
 10
3.2469552182874271
 20
117.3434513771781837
 10
2.8898257448004498
 20
117.3434513771781837
 10
3.5628630316657297
 20
119.3434513771781837
 10
3.7352445193929169
 20
119.3434513771781837
 10
4.4082818062581977
 20
117.3434513771781837
  0
LWPOLYLINE
  5
D1
100
AcDbEntity
  8
VectorEngraving
 62
256
370
-1
 48
1.0
  6
BYLAYER
100
AcDbPolyline
 90
3
 70
129
 10
3.6490537755293238
 20
118.6767847105115266
 10
3.463931047404909
 20
118.0644556867153767
 10
3.8308038223721192
 20
118.0644556867153767
  0
LWPOLYLINE
  5
D2
100
AcDbEntity
  8
VectorEngraving
 62
256
370
-1
 48
1.0
  6
BYLAYER
100
AcDbPolyline
 90
10
 70
129
 10
4.5799138092561362
 20
117.3434513771781837
 10
4.5799138092561362
 20
119.3307101367809651
 10
5.0936855911560794
 20
119.3307101367809651
 42
-0.1118089991173536
 10
5.5002810567734679
 20
119.2589469739554033
 42
-0.1180376728833579
 10
5.7442383361439013
 20
119.0563987258759511
 42
-0.0860317353694856
 10
5.8990069327337453
 20
118.7373056023983509
 42
-0.0734144486327132
 10
5.9548435450627686
 20
118.3226531759415394
 42
-0.0937972774119899
 10
5.8559115608019479
 20
117.8011991755667935
 42
-0.1638286356081038
 10
5.5671725688589095
 20
117.4614952220348414
 42
-0.1360343027579049
 10
5.0554618699643985
 20
117.3434513771781837
  0
LWPOLYLINE
  5
D3
100
AcDbEntity
  8
VectorEngraving
 62
256
370
-1
 48
1.0
  6
BYLAYER
100
AcDbPolyline
 90
9
 70
129
 10
4.9310474049091244
 20
117.6241334082818071
 10
5.0457185684841672
 20
117.6241334082818071
 42
0.1550328994722225
 10
5.3726812816188865
 20
117.7103241521454038
 42
0.1609236696387019
 10
5.5497470489038783
 20
117.9527824620573284
 42
0.0875887959746956
 10
5.6007120104927859
 20
118.3196552370245485
 42
0.068844451086273
 10
5.554431328461682
 20
118.7022671913059781
 42
0.1625887306929684
 10
5.3934794828555361
 20
118.9542814315158239
 42
0.1685507963357509
 10
5.0809443507588536
 20
119.0436574854787324
 10
4.9310474049091244
 20
119.0436574854787324
  0
LWPOLYLINE
  5
D4
100
AcDbEntity
  8
VectorEngraving
 62
256
370
-1
 48
1.0
  6
BYLAYER
100
AcDbPolyline
 90
39
 70
129
 10
6.8126288176878393
 20
117.3082255949035044
 42
-0.0824589363782462
 10
6.4408843919805125
 20
117.3672475173318333
 42
-0.1239231858746345
 10
6.1523327712197862
 20
117.5476859658984381
 10
6.3277121978639688
 20
117.8441071763162853
 10
6.3404534382611955
 20
117.8695896571107369
 10
6.3693086003372681
 20
117.853850477796513
 42
0.0468697015840162
 10
6.3867341202922994
 20
117.8043844856661053
 42
0.0914502355627758
 10
6.4360127412403969
 20
117.7451751920554557
 42
0.0681594634041902
 10
6.6130785085253887
 20
117.6464305789769469
 42
0.0950027158644194
 10
6.8253700580850669
 20
117.6080194866029558
 42
0.1544690761802776
 10
7.0693273374554995
 20
117.6734120292299082
 42
0.2606540762176118
 10
7.1633876709762037
 20
117.8665917181937459
 42
0.1208512743438482
 10
7.134719880082443
 20
117.986134532508899
 42
0.1219613454318695
 10
7.0215476859658983
 20
118.0993067266254428
 42
0.0382540592904301
 10
6.77103241521454
 20
118.2334644931609517
 42
-0.0581074828849166
 10
6.4472550121791263
 20
118.4135281993629292
 42
-0.1200427752267742
 10
6.2767472362750603
 20
118.6113921678845742
 42
-0.1126833292539297
 10
6.2257822746861535
 20
118.8521641371556967
 42
-0.159231292867204
 10
6.307101367809631
 20
119.1137343076634778
 42
-0.1317713073948104
 10
6.5319467865842231
 20
119.2954843545062715
 42
-0.110552507785469
 10
6.8605958403597525
 20
119.362563237774026
 42
-0.2184592046670067
 10
7.4631815626756604
 20
119.1073636874648685
 10
7.2525763537567922
 20
118.8649053775529296
 10
7.2334644931609517
 20
118.8427955780400964
 10
7.2079820123664975
 20
118.8619074386359387
 42
0.0525272950835477
 10
7.19692711261008
 20
118.9111860595840398
 42
0.0946983163543678
 10
7.1540191118605954
 20
118.9732059209293595
 42
0.1239145974079206
 10
7.0247329960652047
 20
119.0500281056773417
 42
0.0674802657520644
 10
6.863593779276747
 20
119.069139966273184
 42
0.1710695699775305
 10
6.6561738804571853
 20
119.0084317032040389
 42
0.2395241755844154
 10
6.5795390668915115
 20
118.868278058834548
 42
0.1315107380140841
 10
6.608394228967585
 20
118.7532321528948813
 42
0.1136957301830562
 10
6.7249391043657489
 20
118.6449316095184514
 42
0.0383547771664615
 10
6.9943788645306348
 20
118.5077759040659515
 42
-0.0534254991442171
 10
7.3100993067266256
 20
118.3275248266816533
 42
-0.1275968227178431
 10
7.4712385235150833
 20
118.1345325089001221
 42
-0.1042366901074476
 10
7.5175192055461864
 20
117.8890762600711923
 42
-0.1279801959423674
 10
7.4440697020798199
 20
117.6112047967022676
 42
-0.1467899336018296
 10
7.2143526325651113
 20
117.3927299981262848
 42
-0.1239665239213517
  0
LWPOLYLINE
  5
D5
100
AcDbEntity
  8
VectorEngraving
 62
256
370
-1
 48
1.0
  6
BYLAYER
100
AcDbPolyline
 90
13
 70
129
 10
7.7787146336893382
 20
117.3434513771781837
 10
7.7787146336893382
 20
119.3307101367809651
 10
8.4071575791643234
 20
119.3307101367809651
 42
-0.1905232060051746
 10
8.9396664792954841
 20
119.1712572606333111
 42
-0.214889910971885
 10
9.1086752857410538
 20
118.746861532696272
 42
-0.1001913794401221
 10
9.0625819748922609
 20
118.5283867341202892
 42
-0.0965402896310164
 10
8.9317968896383739
 20
118.3322091062394605
 42
-0.1106023788064124
 10
8.7358066329398536
 20
118.2046093310848818
 10
9.1630129286115789
 20
117.3434513771781837
 10
8.7833989132471419
 20
117.3434513771781837
 10
8.38167509836987
 20
118.1697582911748157
 10
8.1422147273749292
 20
118.1697582911748157
 10
8.1422147273749292
 20
117.3434513771781837
  0
LWPOLYLINE
  5
D6
100
AcDbEntity
  8
VectorEngraving
 62
256
370
-1
 48
1.0
  6
BYLAYER
100
AcDbPolyline
 90
7
 70
129
 10
8.1422147273749292
 20
118.469552182874267
 10
8.4326400599587785
 20
118.469552182874267
 42
0.1918312228860175
 10
8.6621697582911743
 20
118.5413153456998288
 42
0.2154606779080039
 10
8.7388045718568481
 20
118.7374929735806575
 42
0.1955098707729614
 10
8.6621697582911743
 20
118.9351695709199959
 42
0.2146607426726463
 10
8.4326400599587785
 20
119.0181750046842808
 10
8.1422147273749292
 20
119.0181750046842808
  0
LWPOLYLINE
  5
D7
100
AcDbEntity
  8
VectorEngraving
 62
256
370
-1
 48
1.0
  6
BYLAYER
100
AcDbPolyline
 90
12
 70
129
 10
10.9868840172381468
 20
117.3434513771781837
 10
10.9868840172381468
 20
119.3307101367809651
 10
12.2819936293798015
 20
119.3307101367809651
 10
12.2819936293798015
 20
119.037286865280123
 10
11.337642870526512
 20
119.037286865280123
 10
11.337642870526512
 20
118.5268877646617938
 10
12.1129848229342336
 20
118.5268877646617938
 10
12.1129848229342336
 20
118.2300918118793334
 10
11.337642870526512
 20
118.2300918118793334
 10
11.337642870526512
 20
117.6368746486790258
 10
12.2722503278995703
 20
117.6368746486790258
 10
12.2722503278995703
 20
117.3434513771781837
  0
LWPOLYLINE
  5
D8
100
AcDbEntity
  8
VectorEngraving
 62
256
370
-1
 48
1.0
  6
BYLAYER
100
AcDbPolyline
 90
30
 70
129
 10
13.2990444069702072
 20
117.3082255949035044
 42
-0.1586089452901729
 10
12.8699643994753608
 20
117.4358253700580832
 42
-0.1435269886225568
 10
12.5941540191118619
 20
117.7931422147273679
 42
-0.0990234869126429
 10
12.4985947161326578
 20
118.3290237961401488
 42
-0.0941134427108472
 10
12.5799138092561371
 20
118.8474798575979037
 42
-0.1147907923108914
 10
12.787146336893386
 20
119.1632002997938855
 42
-0.1080283260735781
 10
13.050215476859659
 20
119.3194678658422276
 42
-0.0755668809636001
 10
13.2960464680532127
 20
119.362563237774026
 42
-0.1248023965008145
 10
13.6612329023796129
 20
119.2716882143526362
 42
-0.1515255901720843
 10
13.9211167322465812
 20
119.0148023234026624
 10
13.7105115233277104
 20
118.8075697957654029
 10
13.6913996627318717
 20
118.7850852538879565
 10
13.6692898632190349
 20
118.8075697957654029
 42
0.0464973731751214
 10
13.6580475922803082
 20
118.8570357878958248
 42
0.0790744500631712
 10
13.6179501592655043
 20
118.9222409593404564
 42
0.0965291984035041
 10
13.4922240959340449
 20
119.0245456248828901
 42
0.1219445896066179
 10
13.3054150271688201
 20
119.0627693460745746
 42
0.1476595164000937
 10
13.0837549184935362
 20
118.9956904628068202
 42
0.1555793406301628
 10
12.917931422147273
 20
118.7740303541315257
 42
0.0933033501345537
 10
12.8557241896196359
 20
118.3608768971332239
 42
0.1406135625353704
 10
12.9786396852164145
 20
117.7899569046280703
 42
0.2696925324160832
 10
13.2990444069702072
 20
117.6016488664043464
 42
0.0654059016374583
 10
13.4569983136593585
 20
117.6224470676409908
 42
0.1135031983046054
 10
13.602210979951284
 20
117.7005808506651618
 10
13.602210979951284
 20
118.0674536256323819
 10
13.273561926175752
 20
118.0674536256323819
 10
13.273561926175752
 20
118.3672475173318333
 10
13.9274873524451941
 20
118.3672475173318333
 10
13.9274873524451941
 20
117.5158328649053772
 42
-0.0993875771291005
 10
13.6245081506464309
 20
117.3545062769346004
 42
-0.071094654130852
  0
LWPOLYLINE
  5
D9
100
AcDbEntity
  8
VectorEngraving
 62
256
370
-1
 48
1.0
  6
BYLAYER
100
AcDbPolyline
 90
11
 70
129
 10
15.7258759602773104
 20
117.3434513771781837
 10
15.7258759602773104
 20
119.3307101367809651
 10
16.3318343638748367
 20
119.3307101367809651
 42
-0.1698219834309189
 10
16.8613453250890011
 20
119.1903691212291534
 42
-0.2376804545435268
 10
17.0337268128161874
 20
118.8296795952782503
 42
-0.1334868191084289
 10
16.9619636499906292
 20
118.5778527262506969
 42
-0.1741473004686662
 10
16.7530447817125712
 20
118.3991006183248942
 42
-0.1323568410566323
 10
17.0129286115795395
 20
118.1999250515270745
 42
-0.1671509369152776
 10
17.1101742551995493
 20
117.9175566797825923
 42
-0.2368289956690847
 10
16.9171819374180252
 20
117.5014052838673422
 42
-0.1709485884004174
 10
16.3288364249578422
 20
117.3434513771781837
  0
LWPOLYLINE
  5
DA
100
AcDbEntity
  8
VectorEngraving
 62
256
370
-1
 48
1.0
  6
BYLAYER
100
AcDbPolyline
 90
7
 70
129
 10
16.0863781150459069
 20
118.5362563237773941
 10
16.303353944163387
 20
118.5362563237773941
 42
0.1768225646009388
 10
16.5917181937418015
 20
118.6080194866029558
 42
0.2191258555940188
 10
16.6698519767659725
 20
118.7978264942851752
 42
0.2328955772465195
 10
16.590219224283306
 20
118.9733932921116661
 42
0.172227525752097
 10
16.3352070451564551
 20
119.040284804197114
 10
16.0863781150459069
 20
119.040284804197114
  0
LWPOLYLINE
  5
DB
100
AcDbEntity
  8
VectorEngraving
 62
256
370
-1
 48
1.0
  6
BYLAYER
100
AcDbPolyline
 90
7
 70
129
 10
16.0863781150459069
 20
117.6402473299606442
 10
16.3670601461495231
 20
117.6402473299606442
 42
0.1599163606513489
 10
16.636499906314409
 20
117.7135094622447014
 42
0.253313735647822
 10
16.736930860033727
 20
117.9272999812628768
 42
0.2144617847098945
 10
16.6428705265130219
 20
118.1600149896945879
 42
0.1850030538217116
 10
16.3127225032789944
 20
118.2492036724751756
 10
16.0863781150459069
 20
118.2492036724751756
  0
LWPOLYLINE
  5
DC
100
AcDbEntity
  8
VectorEngraving
 62
256
370
-1
 48
1.0
  6
BYLAYER
100
AcDbPolyline
 90
8
 70
129
 10
9.4026606707888334
 20
101.0097433014802277
 10
9.2655049653363299
 20
101.4721753794266448
 10
8.7457373056023986
 20
101.4721753794266448
 10
8.6052089188682785
 20
101.0097433014802277
 10
8.2480794453813004
 20
101.0097433014802277
 10
8.9211167322465812
 20
103.0097433014802277
 10
9.0934982199737675
 20
103.0097433014802277
 10
9.7665355068390483
 20
101.0097433014802277
  0
LWPOLYLINE
  5
DD
100
AcDbEntity
  8
VectorEngraving
 62
256
370
-1
 48
1.0
  6
BYLAYER
100
AcDbPolyline
 90
3
 70
129
 10
9.0073074761101743
 20
102.3430766348135563
 10
8.8221847479857587
 20
101.7307476110174207
 10
9.1890575229529698
 20
101.7307476110174207
  0
LWPOLYLINE
  5
DE
100
AcDbEntity
  8
VectorEngraving
 62
256
370
-1
 48
1.0
  6
BYLAYER
100
AcDbPolyline
 90
8
 70
129
 10
10.41371557054525
 20
101.0097433014802277
 10
10.41371557054525
 20
102.6938354881019251
 10
9.8778339891324709
 20
102.6938354881019251
 10
9.8778339891324709
 20
102.9970020610829948
 10
11.3228405471238531
 20
102.9970020610829948
 10
11.3228405471238531
 20
102.6938354881019251
 10
10.7581038036350005
 20
102.6938354881019251
 10
10.7581038036350005
 20
101.0097433014802277
  0
LWPOLYLINE
  5
DF
100
AcDbEntity
  8
VectorEngraving
 62
256
370
-1
 48
1.0
  6
BYLAYER
100
AcDbPolyline
 90
8
 70
129
 10
12.0082443320217358
 20
101.0097433014802277
 10
12.0082443320217358
 20
102.6938354881019251
 10
11.4723627506089567
 20
102.6938354881019251
 10
11.4723627506089567
 20
102.9970020610829948
 10
12.9173693086003372
 20
102.9970020610829948
 10
12.9173693086003372
 20
102.6938354881019251
 10
12.3526325651114846
 20
102.6938354881019251
 10
12.3526325651114846
 20
101.0097433014802277
  0
LWPOLYLINE
  5
E0
100
AcDbEntity
  8
VectorEngraving
 62
256
370
-1
 48
1.0
  6
BYLAYER
100
AcDbPolyline
 90
8
 70
129
 10
14.1862469552182873
 20
101.0097433014802277
 10
14.0490912497657856
 20
101.4721753794266448
 10
13.5293235900318525
 20
101.4721753794266448
 10
13.3887952032977324
 20
101.0097433014802277
 10
13.0316657298107543
 20
101.0097433014802277
 10
13.7047030166760351
 20
103.0097433014802277
 10
13.8770845044032214
 20
103.0097433014802277
 10
14.5501217912685021
 20
101.0097433014802277
  0
LWPOLYLINE
  5
E1
100
AcDbEntity
  8
VectorEngraving
 62
256
370
-1
 48
1.0
  6
BYLAYER
100
AcDbPolyline
 90
3
 70
129
 10
13.7908937605396282
 20
102.3430766348135563
 10
13.6057710324152143
 20
101.7307476110174207
 10
13.9726438073824255
 20
101.7307476110174207
  0
LWPOLYLINE
  5
E2
100
AcDbEntity
  8
VectorEngraving
 62
256
370
-1
 48
1.0
  6
BYLAYER
100
AcDbPolyline
 90
26
 70
129
 10
15.4779838860783201
 20
100.9745175192055484
 42
-0.1371812061519577
 10
15.0807569795765417
 20
101.0815064643057895
 42
-0.1521335773926484
 10
14.7937043282743108
 20
101.414839797639118
 42
-0.1095731750364351
 10
14.6869027543563799
 20
101.9923177815252018
 42
-0.0854969824068542
 10
14.7586659171819363
 20
102.4851039910061843
 42
-0.1105493068352917
 10
14.9484729248641557
 20
102.8025107738429824
 42
-0.1092743849584497
 10
15.2083567547311223
 20
102.9730185497470387
 42
-0.0894144458589097
 10
15.4907251264755477
 20
103.0254824807944516
 42
-0.1442794725259141
 10
15.8750234213977883
 20
102.923552557616631
 42
-0.1501502099018235
 10
16.1191680719505328
 20
102.6364999063143983
 10
15.8924489413528196
 20
102.4674910998688375
 10
15.8669664605583662
 20
102.4513771781899862
 10
15.8512272812441442
 20
102.4768596589844378
 42
0.1140804318626925
 10
15.8463556305040285
 20
102.5233277121978546
 42
0.0461095061682929
 10
15.8130035600524632
 20
102.5919055649241045
 42
0.1205634682736968
 10
15.6676035225782257
 20
102.7050777590406483
 42
0.0973965581777454
 10
15.5098369870713881
 20
102.735431890575228
 42
0.1710454528741147
 10
15.2816188870151777
 20
102.652426456810943
 42
0.1324894010124661
 10
15.1094247704703015
 20
102.4084691774405087
 42
0.0957756120554996
 10
15.0440322278433563
 20
102.0080569608394114
 42
0.1424637919354532
 10
15.1701330335394413
 20
101.4674910998688375
 42
0.270553696934776
 10
15.4873524451939275
 20
101.2713134719880088
 42
0.1360351973349639
 10
15.6915870339141836
 20
101.322278433576912
 42
0.125475982462273
 10
15.8478545999625258
 20
101.4912872400224728
 10
16.0966835300730722
 20
101.3065392542626881
 42
-0.1424969433067693
 10
15.8336143901068009
 20
101.0494659921304077
 42
-0.1161683907371184
  0
LWPOLYLINE
  5
E3
100
AcDbEntity
  8
VectorEngraving
 62
256
370
-1
 48
1.0
  6
BYLAYER
100
AcDbPolyline
 90
17
 70
129
 10
16.7854599962525768
 20
101.909124976578596
 10
16.6546749109986862
 20
101.73711823121603
 10
16.6546749109986862
 20
101.0097433014802277
 10
16.3005433764287062
 20
101.0097433014802277
 10
16.3005433764287062
 20
102.9970020610829948
 10
16.6801573917931414
 20
102.9970020610829948
 10
16.6801573917931414
 20
102.9681468990069249
 42
0.1689875292191564
 10
16.6578602210979945
 20
102.9250515270751265
 42
0.0297994704278996
 10
16.6546749109986862
 20
102.8501030541502672
 10
16.6546749109986862
 20
102.1834363874835958
 10
17.3149709574667412
 20
103.0161139216788371
 42
0.0531456125433987
 10
17.4360127412403969
 20
103.0001873711823066
 42
0.0100048626038085
 10
17.5476859658984452
 20
102.9970020610829948
 10
17.7136968334270186
 20
102.9970020610829948
 10
17.0406595465617379
 20
102.1643245268877536
 10
17.7519205546186996
 20
101.0131159827618461
 10
17.3404534382611928
 20
100.9970020610829948
  0
LWPOLYLINE
  5
E4
100
AcDbEntity
  8
VectorEngraving
 62
256
370
-1
 48
1.0
  6
BYLAYER
100
AcDbPolyline
 90
10
 70
129
 10
9.1011804384485657
 20
83.0097433014802277
 10
9.1011804384485657
 20
84.9970020610829948
 10
9.6149522203485098
 20
84.9970020610829948
 42
-0.1118089991173858
 10
10.0215476859658992
 20
84.9252388982574473
 42
-0.1180376728833561
 10
10.2655049653363317
 20
84.7226906501779951
 42
-0.0860317353694528
 10
10.4202735619261766
 20
84.4035975267003948
 42
-0.0734144486326958
 10
10.4761101742552007
 20
83.9889451002435834
 42
-0.0937972774119883
 10
10.3771781899943782
 20
83.4674910998688375
 42
-0.1638286356081262
 10
10.0884391980513399
 20
83.1277871463368854
 42
-0.1360343027579051
 10
9.5767284991568289
 20
83.0097433014802277
  0
LWPOLYLINE
  5
E5
100
AcDbEntity
  8
VectorEngraving
 62
256
370
-1
 48
1.0
  6
BYLAYER
100
AcDbPolyline
 90
9
 70
129
 10
9.4523140341015548
 20
83.2904253325838511
 10
9.5669851976765976
 20
83.2904253325838511
 42
0.155032899472195
 10
9.8939479108113169
 20
83.3766160764474336
 42
0.1609236696386625
 10
10.0710136780963087
 20
83.6190743863593724
 42
0.0875887959746815
 10
10.1219786396852172
 20
83.9859471613265782
 42
0.0688444510862969
 10
10.0756979576541124
 20
84.3685591156080079
 42
0.1625887306929386
 10
9.9147461120479665
 20
84.6205733558178679
 42
0.1685507963357509
 10
9.602210979951284
 20
84.7099494097807764
 10
9.4523140341015548
 20
84.7099494097807764
  0
LWPOLYLINE
  5
E6
100
AcDbEntity
  8
VectorEngraving
 62
256
370
-1
 48
1.0
  6
BYLAYER
100
AcDbPolyline
 90
12
 70
129
 10
10.7245643620011251
 20
83.0097433014802277
 10
10.7245643620011251
 20
84.9970020610829948
 10
12.0196739741427763
 20
84.9970020610829948
 10
12.0196739741427763
 20
84.7035787895821528
 10
11.0753232152894885
 20
84.7035787895821528
 10
11.0753232152894885
 20
84.1931796889638377
 10
11.8506651676972083
 20
84.1931796889638377
 10
11.8506651676972083
 20
83.8963837361813773
 10
11.0753232152894885
 20
83.8963837361813773
 10
11.0753232152894885
 20
83.3031665729810697
 10
12.009930672662545
 20
83.3031665729810697
 10
12.009930672662545
 20
83.0097433014802277
  0
LWPOLYLINE
  5
E7
100
AcDbEntity
  8
VectorEngraving
 62
256
370
-1
 48
1.0
  6
BYLAYER
100
AcDbPolyline
 90
26
 70
129
 10
13.0464680532134167
 20
82.9745175192055484
 42
-0.1371812061519615
 10
12.6492411467116348
 20
83.0815064643057895
 42
-0.1521335773926428
 10
12.3621884954094057
 20
83.414839797639118
 42
-0.1095731750364395
 10
12.2553869214914748
 20
83.9923177815252018
 42
-0.0854969824068501
 10
12.327150084317033
 20
84.4851039910061843
 42
-0.1105493068352933
 10
12.5169570919992506
 20
84.8025107738429824
 42
-0.1092743849584565
 10
12.7768409218662171
 20
84.9730185497470387
 42
-0.0894144458589096
 10
13.0592092936106425
 20
85.0254824807944516
 42
-0.1442794725259141
 10
13.4435075885328832
 20
84.923552557616631
 42
-0.1501502099018516
 10
13.6876522390856294
 20
84.6364999063143983
 10
13.4609331084879145
 20
84.4674910998688375
 10
13.4354506276934611
 20
84.4513771781899862
 10
13.419711448379239
 20
84.4768596589844378
 42
0.1140804318625444
 10
13.4148397976391234
 20
84.5233277121978546
 42
0.0461095061682641
 10
13.3814877271875581
 20
84.5919055649241045
 42
0.1205634682737047
 10
13.2360876897133224
 20
84.7050777590406483
 42
0.0973965581777366
 10
13.078321154206483
 20
84.735431890575228
 42
0.1710454528741148
 10
12.8501030541502708
 20
84.652426456810943
 42
0.1324894010124564
 10
12.6779089376053964
 20
84.4084691774405087
 42
0.0957756120555011
 10
12.6125163949784529
 20
84.0080569608394114
 42
0.1424637919354595
 10
12.7386172006745362
 20
83.4674910998688375
 42
0.2705536969347589
 10
13.0558366123290241
 20
83.2713134719880088
 42
0.1360351973349626
 10
13.2600712010492785
 20
83.322278433576912
 42
0.1254759824622912
 10
13.4163387670976206
 20
83.4912872400224728
 10
13.6651676972081688
 20
83.3065392542626881
 42
-0.1424969433067693
 10
13.4020985572418958
 20
83.0494659921304077
 42
-0.1161683907371177
  0
LWPOLYLINE
  5
E8
100
AcDbEntity
  8
VectorEngraving
 62
256
370
-1
 48
1.0
  6
BYLAYER
100
AcDbPolyline
 90
8
 70
129
 10
14.943788645306352
 20
83.0097433014802277
 10
14.8066329398538503
 20
83.4721753794266448
 10
14.2868652801199172
 20
83.4721753794266448
 10
14.1463368933857971
 20
83.0097433014802277
 10
13.789207419898819
 20
83.0097433014802277
 10
14.4622447067640998
 20
85.0097433014802277
 10
14.6346261944912861
 20
85.0097433014802277
 10
15.3076634813565668
 20
83.0097433014802277
  0
LWPOLYLINE
  5
E9
100
AcDbEntity
  8
VectorEngraving
 62
256
370
-1
 48
1.0
  6
BYLAYER
100
AcDbPolyline
 90
3
 70
129
 10
14.5484354506276929
 20
84.3430766348135563
 10
14.3633127225032791
 20
83.7307476110174207
 10
14.7301854974704902
 20
83.7307476110174207
  0
LWPOLYLINE
  5
EA
100
AcDbEntity
  8
VectorEngraving
 62
256
370
-1
 48
1.0
  6
BYLAYER
100
AcDbPolyline
 90
9
 70
129
 10
15.9930672662544495
 20
83.0097433014802277
 10
15.9930672662544495
 20
83.7944538130035568
 10
15.399850103054149
 20
84.9970020610829948
 10
15.7697208169383547
 20
84.9970020610829948
 10
16.1811879332958597
 20
84.1676972081693862
 10
16.5446880269814507
 20
84.9970020610829948
 10
16.8988195615514343
 20
84.9970020610829948
 10
16.353569421023046
 20
83.7910811317219384
 10
16.353569421023046
 20
83.0097433014802277
  0
LWPOLYLINE
  5
EB
100
AcDbEntity
  8
VectorEngraving
 62
256
370
-1
 48
1.0
  6
BYLAYER
100
AcDbPolyline
 90
39
 70
129
 10
8.1828742739366689
 20
64.9760164886640439
 42
-0.0824589363782431
 10
7.8111298482293421
 20
65.0350384110923727
 42
-0.1239231858747271
 10
7.5225782274686148
 20
65.2154768596589776
 10
7.6979576541127974
 20
65.5118980700768105
 10
7.7106988945100241
 20
65.5373805508712763
 10
7.7395540565860967
 20
65.5216413715570525
 42
0.0468697015840245
 10
7.756979576541128
 20
65.4721753794266306
 42
0.0914502355629244
 10
7.8062581974892256
 20
65.4129660858159951
 42
0.0681594634041886
 10
7.9833239647742174
 20
65.3142214727374864
 42
0.0950027158645484
 10
8.1956155143338947
 20
65.2758103803634953
 42
0.1544690761801123
 10
8.439572793704329
 20
65.3412029229904334
 42
0.260654076217594
 10
8.5336331272250323
 20
65.5343826119542712
 42
0.1208512743438033
 10
8.5049653363312707
 20
65.6539254262694385
 42
0.1219613454318767
 10
8.3917931422147269
 20
65.7670976203859823
 42
0.0382540592904264
 10
8.1412778714633696
 20
65.9012553869214912
 42
-0.0581074828848438
 10
7.817500468427955
 20
66.0813190931234686
 42
-0.1200427752267838
 10
7.6469926925238898
 20
66.2791830616451136
 42
-0.1126833292539391
 10
7.5960277309349822
 20
66.5199550309162362
 42
-0.1592312928671767
 10
7.6773468240584597
 20
66.7815252014240173
 42
-0.1317713073948864
 10
7.9021922428330518
 20
66.963275248266811
 42
-0.1105525077854771
 10
8.2308412966085811
 20
67.0303541315345655
 42
-0.2184592046669992
 10
8.833427018924489
 20
66.7751545812254079
 10
8.6228218100056218
 20
66.5326962713134691
 10
8.6037099494097795
 20
66.5105864718006359
 10
8.5782274686153261
 20
66.5296983323964639
 42
0.0525272950835124
 10
8.5671725688589095
 20
66.578976953344565
 42
0.0946983163545198
 10
8.5242645681094249
 20
66.640996814689899
 42
0.1239145974077549
 10
8.3949784523140334
 20
66.7178189994378812
 42
0.0674802657518838
 10
8.2338392355255756
 20
66.7369308600337234
 42
0.1710695699773985
 10
8.026419336706013
 20
66.6762225969645783
 42
0.2395241755844007
 10
7.949784523140341
 20
66.5360689525950875
 42
0.1315107380140993
 10
7.9786396852164136
 20
66.4210230466554208
 42
0.1136957301832042
 10
8.0951845606145767
 20
66.3127225032789909
 42
0.0383547771665482
 10
8.3646243207794608
 20
66.175566797826491
 42
-0.0534254991441455
 10
8.6803447629754551
 20
65.9953157204421927
 42
-0.1275968227177494
 10
8.8414839797639111
 20
65.8023234026606616
 42
-0.1042366901074498
 10
8.8877646617950159
 20
65.5568671538317318
 42
-0.1279801959424033
 10
8.8143151583286485
 20
65.278995690462807
 42
-0.1467899336018326
 10
8.5845980888139408
 20
65.0605208918868243
 42
-0.12396652392142
  0
LWPOLYLINE
  5
EC
100
AcDbEntity
  8
VectorEngraving
 62
256
370
-1
 48
1.0
  6
BYLAYER
100
AcDbPolyline
 90
17
 70
129
 10
9.8028855162076063
 20
64.9696458684654203
 42
-0.2187932598690506
 10
9.2971706951470861
 20
65.1643245268877536
 42
-0.1902783405959864
 10
9.1201049278620943
 20
65.7067640996814646
 10
9.1201049278620943
 20
66.9985010305414903
 10
9.5060895634251459
 20
66.9985010305414903
 10
9.5060895634251459
 20
66.9696458684654203
 42
0.1246165463763
 10
9.4854787333708082
 20
66.926550496533622
 42
0.0454369266294436
 10
9.4806070826306907
 20
66.8516020236087627
 10
9.4806070826306907
 20
65.7033914183998462
 42
0.1333400107448
 10
9.5508712759977517
 20
65.3811129848229342
 42
0.2785909262070823
 10
9.8058834551246008
 20
65.2630691399662624
 42
0.272644170926436
 10
10.0644556867153838
 20
65.3811129848229342
 42
0.1376862884248701
 10
10.1379051901817494
 20
65.7131347198800739
 10
10.1379051901817494
 20
66.9985010305414903
 10
10.4886640434701128
 20
66.9985010305414903
 10
10.4886640434701128
 20
65.7161326587970649
 42
-0.208330214565024
 10
10.297358066329398
 20
65.1515832864905349
 42
-0.1989968553204235
  0
LWPOLYLINE
  5
ED
100
AcDbEntity
  8
VectorEngraving
 62
256
370
-1
 48
1.0
  6
BYLAYER
100
AcDbPolyline
 90
39
 70
129
 10
11.371931796889637
 20
64.9760164886640439
 42
-0.0824589363782417
 10
11.0001873711823119
 20
65.0350384110923727
 42
-0.1239231858747211
 10
10.7116357504215856
 20
65.2154768596589776
 10
10.8870151770657664
 20
65.5118980700768105
 10
10.899756417462994
 20
65.5373805508712763
 10
10.9286115795390657
 20
65.5216413715570525
 42
0.0468697015840404
 10
10.946037099494097
 20
65.4721753794266306
 42
0.091450235562961
 10
10.9953157204421963
 20
65.4129660858159951
 42
0.0681594634041947
 10
11.1723814877271863
 20
65.3142214727374864
 42
0.0950027158645533
 10
11.3846730372868645
 20
65.2758103803634953
 42
0.1544690761801066
 10
11.6286303166572971
 20
65.3412029229904334
 42
0.260654076217575
 10
11.7226906501780022
 20
65.5343826119542712
 42
0.1208512743437499
 10
11.6940228592842423
 20
65.6539254262694385
 42
0.1219613454318687
 10
11.5808506651676968
 20
65.7670976203859823
 42
0.0382540592904236
 10
11.3303353944163376
 20
65.9012553869214912
 42
-0.05810748288484
 10
11.0065579913809231
 20
66.0813190931234686
 42
-0.1200427752267867
 10
10.8360502154768596
 20
66.2791830616451136
 42
-0.1126833292539544
 10
10.7850852538879511
 20
66.5199550309162362
 42
-0.1592312928671901
 10
10.8664043470114287
 20
66.7815252014240173
 42
-0.1317713073948828
 10
11.0912497657860207
 20
66.963275248266811
 42
-0.1105525077854691
 10
11.419898819561551
 20
67.0303541315345655
 42
-0.2184592046669989
 10
12.0224845418774589
 20
66.7751545812254079
 10
11.8118793329585898
 20
66.5326962713134691
 10
11.7927674723627511
 20
66.5105864718006359
 10
11.767284991568296
 20
66.5296983323964639
 42
0.0525272950835081
 10
11.7562300918118794
 20
66.578976953344565
 42
0.0946983163545338
 10
11.7133220910623947
 20
66.640996814689899
 42
0.1239145974077478
 10
11.5840359752670032
 20
66.7178189994378812
 42
0.0674802657518871
 10
11.4228967584785455
 20
66.7369308600337234
 42
0.17106956997739
 10
11.2154768596589847
 20
66.6762225969645783
 42
0.2395241755844337
 10
11.1388420460933109
 20
66.5360689525950875
 42
0.1315107380141036
 10
11.1676972081693826
 20
66.4210230466554208
 42
0.1136957301831701
 10
11.2842420835675465
 20
66.3127225032789909
 42
0.0383547771665495
 10
11.5536818437324342
 20
66.175566797826491
 42
-0.0534254991441472
 10
11.8694022859284232
 20
65.9953157204421927
 42
-0.1275968227177539
 10
12.0305415027168827
 20
65.8023234026606616
 42
-0.1042366901074458
 10
12.0768221847479857
 20
65.5568671538317318
 42
-0.1279801959424024
 10
12.0033726812816184
 20
65.278995690462807
 42
-0.1467899336018258
 10
11.7736556117669089
 20
65.0605208918868243
 42
-0.1239665239214157
  0
LWPOLYLINE
  5
EE
100
AcDbEntity
  8
VectorEngraving
 62
256
370
-1
 48
1.0
  6
BYLAYER
100
AcDbPolyline
 90
8
 70
129
 10
12.8038223721191677
 20
65.0112422709387232
 10
12.8038223721191677
 20
66.6953344575604206
 10
12.2679407907063887
 20
66.6953344575604206
 10
12.2679407907063887
 20
66.9985010305414903
 10
13.7129473486977709
 20
66.9985010305414903
 10
13.7129473486977709
 20
66.6953344575604206
 10
13.1482106052089183
 20
66.6953344575604206
 10
13.1482106052089183
 20
65.0112422709387232
  0
LWPOLYLINE
  5
EF
100
AcDbEntity
  8
VectorEngraving
 62
256
370
-1
 48
1.0
  6
BYLAYER
100
AcDbPolyline
 90
8
 70
129
 10
14.9818249953157192
 20
65.0112422709387232
 10
14.8446692898632193
 20
65.4736743488851403
 10
14.3249016301292862
 20
65.4736743488851403
 10
14.1843732433951644
 20
65.0112422709387232
 10
13.8272437699081863
 20
65.0112422709387232
 10
14.500281056773467
 20
67.0112422709387232
 10
14.6726625445006551
 20
67.0112422709387232
 10
15.3456998313659341
 20
65.0112422709387232
  0
LWPOLYLINE
  5
F0
100
AcDbEntity
  8
VectorEngraving
 62
256
370
-1
 48
1.0
  6
BYLAYER
100
AcDbPolyline
 90
3
 70
129
 10
14.5864718006370602
 20
66.3445756042720518
 10
14.4013490725126481
 20
65.7322465804759162
 10
14.7682218474798574
 20
65.7322465804759162
  0
LWPOLYLINE
  5
F1
100
AcDbEntity
  8
VectorEngraving
 62
256
370
-1
 48
1.0
  6
BYLAYER
100
AcDbPolyline
 90
12
 70
129
 10
15.6068952595090877
 20
65.0112422709387232
 10
15.6068952595090877
 20
65.3016676035225743
 10
15.9958778339891321
 20
65.3016676035225743
 10
15.9958778339891321
 20
66.7080756979576535
 10
15.6290050590219209
 20
66.7080756979576535
 10
15.6290050590219209
 20
66.9985010305414903
 10
16.7262507026419343
 20
66.9985010305414903
 10
16.7262507026419343
 20
66.7080756979576535
 10
16.3372681281618881
 20
66.7080756979576535
 10
16.3372681281618881
 20
65.3016676035225743
 10
16.7423646243207784
 20
65.3016676035225743
 10
16.7423646243207784
 20
65.0112422709387232
  0
LWPOLYLINE
  5
F2
100
AcDbEntity
  8
VectorEngraving
 62
256
370
-1
 48
1.0
  6
BYLAYER
100
AcDbPolyline
 90
13
 70
129
 10
17.0961214165261381
 20
66.9985010305414903
 10
17.4723627506089549
 20
66.9985010305414903
 10
18.1454000374742357
 20
65.6906501780026133
 10
18.126288176878397
 20
66.9985010305414903
 10
18.4774217725313861
 20
66.9985010305414903
 10
18.4774217725313861
 20
66.9696458684654203
 42
0.1276856979480362
 10
18.4564362001124209
 20
66.926550496533622
 42
0.0454369266293803
 10
18.4515645493723071
 20
66.8516020236087627
 10
18.4515645493723071
 20
65.0112422709387232
 10
18.1169196177627896
 20
65.0112422709387232
 10
17.4213977890200482
 20
66.4052838673411969
 10
17.4213977890200482
 20
65.0112422709387232
 10
17.0961214165261381
 20
65.0112422709387232
  0
LWPOLYLINE
  5
F3
100
AcDbEntity
  8
VectorEngraving
 62
256
370
-1
 48
1.0
  6
BYLAYER
100
AcDbPolyline
 90
13
 70
129
 10
7.5593029792017985
 20
47.0080569608394256
 10
7.5593029792017985
 20
48.9953157204421998
 10
8.1877459246767845
 20
48.9953157204421998
 42
-0.1905232060051829
 10
8.7202548248079452
 20
48.835862844294553
 42
-0.2148899109718776
 10
8.8892636312535132
 20
48.4114671163575068
 42
-0.1001913794401228
 10
8.8431703204047221
 20
48.1929923177815311
 42
-0.0965402896310596
 10
8.7123852351508333
 20
47.9968146899006953
 42
-0.1106023788064049
 10
8.5163949784523147
 20
47.8692149147461166
 10
8.94360127412404
 20
47.0080569608394256
 10
8.5639872587596031
 20
47.0080569608394256
 10
8.1622634438823312
 20
47.8343638748360505
 10
7.9228030728873904
 20
47.8343638748360505
 10
7.9228030728873904
 20
47.0080569608394256
  0
LWPOLYLINE
  5
F4
100
AcDbEntity
  8
VectorEngraving
 62
256
370
-1
 48
1.0
  6
BYLAYER
100
AcDbPolyline
 90
7
 70
129
 10
7.9228030728873904
 20
48.1341577665355089
 10
8.2132284054712379
 20
48.1341577665355089
 42
0.191831222886012
 10
8.4427581038036354
 20
48.2059209293610706
 42
0.2154606779080717
 10
8.5193929173693093
 20
48.4020985572418994
 42
0.1955098707729222
 10
8.4427581038036354
 20
48.5997751545812307
 42
0.2146607426727075
 10
8.2132284054712379
 20
48.6827805883455156
 10
7.9228030728873904
 20
48.6827805883455156
  0
LWPOLYLINE
  5
F5
100
AcDbEntity
  8
VectorEngraving
 62
256
370
-1
 48
1.0
  6
BYLAYER
100
AcDbPolyline
 90
12
 70
129
 10
9.1729436012741239
 20
47.0080569608394256
 10
9.1729436012741239
 20
48.9953157204421998
 10
10.4680532134157769
 20
48.9953157204421998
 10
10.4680532134157769
 20
48.7018924489413578
 10
9.5237024545624891
 20
48.7018924489413578
 10
9.5237024545624891
 20
48.1914933483230286
 10
10.2990444069702072
 20
48.1914933483230286
 10
10.2990444069702072
 20
47.8946973955405682
 10
9.5237024545624891
 20
47.8946973955405682
 10
9.5237024545624891
 20
47.3014802323402677
 10
10.4583099119355438
 20
47.3014802323402677
 10
10.4583099119355438
 20
47.0080569608394256
  0
LWPOLYLINE
  5
F6
100
AcDbEntity
  8
VectorEngraving
 62
256
370
-1
 48
1.0
  6
BYLAYER
100
AcDbPolyline
 90
9
 70
129
 10
10.7865842233464484
 20
48.9953157204421998
 10
11.1789394791081129
 20
48.9953157204421998
 10
11.1789394791081129
 20
48.9664605583661228
 42
0.1523096199732057
 10
11.1551433389544687
 20
48.9233651864343315
 42
0.0437068677127864
 10
11.150459059396665
 20
48.8484167135094651
 10
11.150459059396665
 20
47.3014802323402677
 10
12.0625819748922609
 20
47.3014802323402677
 10
12.0625819748922609
 20
47.0080569608394256
 10
10.7865842233464484
 20
47.0080569608394256
  0
LWPOLYLINE
  5
F7
100
AcDbEntity
  8
VectorEngraving
 62
256
370
-1
 48
1.0
  6
BYLAYER
100
AcDbPolyline
 90
12
 70
129
 10
12.3620011242270937
 20
47.0080569608394256
 10
12.3620011242270937
 20
48.9953157204421998
 10
13.6571107363687467
 20
48.9953157204421998
 10
13.6571107363687467
 20
48.7018924489413578
 10
12.7127599775154572
 20
48.7018924489413578
 10
12.7127599775154572
 20
48.1914933483230286
 10
13.4881019299231788
 20
48.1914933483230286
 10
13.4881019299231788
 20
47.8946973955405682
 10
12.7127599775154572
 20
47.8946973955405682
 10
12.7127599775154572
 20
47.3014802323402677
 10
13.6473674348885137
 20
47.3014802323402677
 10
13.6473674348885137
 20
47.0080569608394256
  0
LWPOLYLINE
  5
F8
100
AcDbEntity
  8
VectorEngraving
 62
256
370
-1
 48
1.0
  6
BYLAYER
100
AcDbPolyline
 90
8
 70
129
 10
14.9866966460558366
 20
47.0080569608394256
 10
14.849540940603335
 20
47.4704890387858356
 10
14.3297732808694018
 20
47.4704890387858356
 10
14.1892448941352818
 20
47.0080569608394256
 10
13.8321154206483037
 20
47.0080569608394256
 10
14.5051527075135844
 20
49.0080569608394256
 10
14.6775341952407707
 20
49.0080569608394256
 10
15.3505714821060515
 20
47.0080569608394256
  0
LWPOLYLINE
  5
F9
100
AcDbEntity
  8
VectorEngraving
 62
256
370
-1
 48
1.0
  6
BYLAYER
100
AcDbPolyline
 90
3
 70
129
 10
14.5913434513771776
 20
48.3413902941727613
 10
14.4062207232527637
 20
47.7290612703766186
 10
14.7730934982199731
 20
47.7290612703766186
  0
LWPOLYLINE
  5
FA
100
AcDbEntity
  8
VectorEngraving
 62
256
370
-1
 48
1.0
  6
BYLAYER
100
AcDbPolyline
 90
39
 70
129
 10
16.1603897320592083
 20
46.9728311785647392
 42
-0.0824589363782442
 10
15.7886453063518815
 20
47.031853100993068
 42
-0.1239231858746616
 10
15.5000936855911569
 20
47.21229154955968
 10
15.6754731122353377
 20
47.5087127599775201
 10
15.6882143526325635
 20
47.5341952407719717
 10
15.717069514708637
 20
47.5184560614577478
 42
0.046869701584085
 10
15.7344950346636701
 20
47.4689900693273401
 42
0.0914502355627159
 10
15.7837736556117676
 20
47.4097807757166976
 42
0.0681594634041918
 10
15.9608394228967576
 20
47.3110361626381888
 42
0.0950027158644859
 10
16.1731309724564376
 20
47.2726250702641977
 42
0.1544690761801932
 10
16.4170882518268684
 20
47.338017612891143
 42
0.2606540762176146
 10
16.5111485853475735
 20
47.5311973018549807
 42
0.1208512743438213
 10
16.4824807944538136
 20
47.6507401161701338
 42
0.1219613454319403
 10
16.3693086003372663
 20
47.7639123102866776
 42
0.0382540592904296
 10
16.1187933295859089
 20
47.8980700768221865
 42
-0.0581074828848952
 10
15.7950159265504979
 20
48.0781337830241711
 42
-0.1200427752267899
 10
15.6245081506464309
 20
48.2759977515458161
 42
-0.1126833292539379
 10
15.5735431890575242
 20
48.5167697208169386
 42
-0.1592312928671832
 10
15.654862282181
 20
48.7783398913247197
 42
-0.1317713073948103
 10
15.879707700955592
 20
48.9600899381675134
 42
-0.1105525077854769
 10
16.2083567547311205
 20
49.0271688214352679
 42
-0.2184592046670084
 10
16.8109424770470284
 20
48.7719692711261033
 10
16.6003372681281611
 20
48.5295109612141715
 10
16.5812254075323224
 20
48.5074011617013312
 10
16.5557429267378673
 20
48.5265130222971734
 42
0.052527295083424
 10
16.5446880269814507
 20
48.5757916432452745
 42
0.0946983163545158
 10
16.501780026231966
 20
48.6378115045905943
 42
0.1239145974077822
 10
16.3724939104365745
 20
48.7146336893385836
 42
0.0674802657518854
 10
16.211354693648115
 20
48.7337455499344259
 42
0.1710695699774111
 10
16.003934794828556
 20
48.6730372868652807
 42
0.2395241755844029
 10
15.9272999812628804
 20
48.5328836424957899
 42
0.1315107380141151
 10
15.9561551433389539
 20
48.4178377365561232
 42
0.1136957301831897
 10
16.0727000187371196
 20
48.3095371931796933
 42
0.0383547771665149
 10
16.3421397789020055
 20
48.1723814877271934
 42
-0.0534254991441923
 10
16.6578602210979945
 20
47.9921304103428952
 42
-0.1275968227178037
 10
16.818999437886454
 20
47.799138092561364
 42
-0.1042366901074368
 10
16.865280119917557
 20
47.5536818437324342
 42
-0.1279801959423627
 10
16.7918306164511897
 20
47.2758103803635024
 42
-0.1467899336018054
 10
16.5621135469364802
 20
47.0573355817875267
 42
-0.1239665239214004
  0
LWPOLYLINE
  5
FB
100
AcDbEntity
  8
VectorEngraving
 62
256
370
-1
 48
1.0
  6
BYLAYER
100
AcDbPolyline
 90
12
 70
129
 10
17.1455874086565494
 20
47.0080569608394256
 10
17.1455874086565494
 20
48.9953157204421998
 10
18.4406970207982006
 20
48.9953157204421998
 10
18.4406970207982006
 20
48.7018924489413578
 10
17.496346261944911
 20
48.7018924489413578
 10
17.496346261944911
 20
48.1914933483230286
 10
18.2716882143526327
 20
48.1914933483230286
 10
18.2716882143526327
 20
47.8946973955405682
 10
17.496346261944911
 20
47.8946973955405682
 10
17.496346261944911
 20
47.3014802323402677
 10
18.4309537193179693
 20
47.3014802323402677
 10
18.4309537193179693
 20
47.0080569608394256
  0
LWPOLYLINE
  5
FC
100
AcDbEntity
  8
VectorEngraving
 62
256
370
-1
 48
1.0
  6
BYLAYER
100
AcDbPolyline
 90
30
 70
129
 10
12.7196927112610076
 20
29.9728311785647357
 42
-0.158608945290185
 10
12.2906127037661612
 20
30.100430953719318
 42
-0.1435269886225729
 10
12.0148023234026606
 20
30.4577477983886062
 42
-0.099023486912632
 10
11.9192430204234583
 20
30.99362937980138
 42
-0.0941134427108386
 10
12.0005621135469358
 20
31.5120854412591349
 42
-0.114790792310874
 10
12.2077946411841864
 20
31.8278058834551238
 42
-0.1080283260736063
 10
12.4708637811504595
 20
31.984073449503466
 42
-0.0755668809636457
 10
12.7166947723440131
 20
32.0271688214352608
 42
-0.124802396500833
 10
13.0818812066704133
 20
31.9362937980138639
 42
-0.1515255901720701
 10
13.3417650365373799
 20
31.6794079070638936
 10
13.1311598276185126
 20
31.4721753794266448
 10
13.1120479670226722
 20
31.4496908375491842
 10
13.0899381675098372
 20
31.4721753794266448
 42
0.0464973731750909
 10
13.0786958965711069
 20
31.5216413715570525
 42
0.079074450063196
 10
13.0385984635563048
 20
31.586846543001684
 42
0.0965291984036316
 10
12.9128724002248454
 20
31.6891512085441249
 42
0.1219445896066019
 10
12.7260633314596205
 20
31.7273749297358059
 42
0.1476595164001009
 10
12.5044032227843367
 20
31.6602960464680514
 42
0.1555793406301333
 10
12.3385797264380734
 20
31.4386359377927675
 42
0.0933033501345478
 10
12.2763724939104364
 20
31.0254824807944516
 42
0.1406135625353528
 10
12.3992879895072132
 20
30.4545624882893016
 42
0.269692532416081
 10
12.7196927112610076
 20
30.2662544500655777
 42
0.0654059016375912
 10
12.877646617950159
 20
30.2870526513022291
 42
0.1135031983046341
 10
13.0228592842420827
 20
30.3651864343264002
 10
13.0228592842420827
 20
30.7320592092936096
 10
12.6942102304665543
 20
30.7320592092936096
 10
12.6942102304665543
 20
31.031853100993068
 10
13.3481356567359946
 20
31.031853100993068
 10
13.3481356567359946
 20
30.1804384485666084
 42
-0.0993875771290929
 10
13.0451564549372314
 20
30.0191118605958387
 42
-0.0710946541308311
  0
LWPOLYLINE
  5
FD
100
AcDbEntity
  8
VectorEngraving
 62
256
370
-1
 48
1.0
  6
BYLAYER
100
AcDbPolyline
 90
8
 70
129
 10
14.6267566048341759
 20
30.0080569608394221
 10
14.4896008993816743
 20
30.4704890387858356
 10
13.9698332396477412
 20
30.4704890387858356
 10
13.8293048529136211
 20
30.0080569608394221
 10
13.4721753794266448
 20
30.0080569608394221
 10
14.1452126662919238
 20
32.0080569608394256
 10
14.3175941540191118
 20
32.0080569608394256
 10
14.9906314408843926
 20
30.0080569608394221
  0
LWPOLYLINE
  5
FE
100
AcDbEntity
  8
VectorEngraving
 62
256
370
-1
 48
1.0
  6
BYLAYER
100
AcDbPolyline
 90
3
 70
129
 10
14.2314034101555187
 20
31.3413902941727542
 10
14.046280682031103
 20
30.7290612703766151
 10
14.4131534569983124
 20
30.7290612703766151
  0
LWPOLYLINE
  5
FF
100
AcDbEntity
  8
VectorEngraving
 62
256
370
-1
 48
1.0
  6
BYLAYER
100
AcDbPolyline
 90
8
 70
129
 10
15.6378115045905943
 20
30.0080569608394221
 10
15.6378115045905943
 20
31.6921491474611194
 10
15.1019299231778152
 20
31.6921491474611194
 10
15.1019299231778152
 20
31.9953157204421963
 10
16.5469364811691975
 20
31.9953157204421963
 10
16.5469364811691975
 20
31.6921491474611194
 10
15.9821997376803449
 20
31.6921491474611194
 10
15.9821997376803449
 20
30.0080569608394221
  0
LWPOLYLINE
  5
100
100
AcDbEntity
  8
VectorEngraving
 62
256
370
-1
 48
1.0
  6
BYLAYER
100
AcDbPolyline
 90
12
 70
129
 10
16.7856473674348869
 20
30.0080569608394221
 10
16.7856473674348869
 20
31.9953157204421963
 10
18.0807569795765417
 20
31.9953157204421963
 10
18.0807569795765417
 20
31.7018924489413507
 10
17.1364062207232521
 20
31.7018924489413507
 10
17.1364062207232521
 20
31.1914933483230286
 10
17.9117481731309738
 20
31.1914933483230286
 10
17.9117481731309738
 20
30.8946973955405646
 10
17.1364062207232521
 20
30.8946973955405646
 10
17.1364062207232521
 20
30.3014802323402641
 10
18.0710136780963069
 20
30.3014802323402641
 10
18.0710136780963069
 20
30.0080569608394221
  0
LWPOLYLINE
  5
101
100
AcDbEntity
  8
VectorEngraving
 62
256
370
-1
 48
1.0
  6
BYLAYER
100
AcDbPolyline
 90
12
 70
129
 10
11.9383548810193005
 20
15.0063706201986129
 10
11.9383548810193005
 20
15.2967959527824622
 10
12.3273374554993449
 20
15.2967959527824622
 10
12.3273374554993449
 20
16.703204047217536
 10
11.9604646805321337
 20
16.703204047217536
 10
11.9604646805321337
 20
16.9936293798013871
 10
13.0577103241521453
 20
16.9936293798013871
 10
13.0577103241521453
 20
16.703204047217536
 10
12.6687277496721009
 20
16.703204047217536
 10
12.6687277496721009
 20
15.2967959527824622
 10
13.0738242458309912
 20
15.2967959527824622
 10
13.0738242458309912
 20
15.0063706201986129
  0
LWPOLYLINE
  5
102
100
AcDbEntity
  8
VectorEngraving
 62
256
370
-1
 48
1.0
  6
BYLAYER
100
AcDbPolyline
 90
12
 70
129
 10
13.4721753794266448
 20
15.0063706201986129
 10
13.4721753794266448
 20
16.9936293798013871
 10
14.767284991568296
 20
16.9936293798013871
 10
14.767284991568296
 20
16.7002061083005415
 10
13.8229342327150082
 20
16.7002061083005415
 10
13.8229342327150082
 20
16.1898070076822194
 10
14.5982761851227281
 20
16.1898070076822194
 10
14.5982761851227281
 20
15.8930110548997554
 10
13.8229342327150082
 20
15.8930110548997554
 10
13.8229342327150082
 20
15.2997938916994567
 10
14.7575416900880647
 20
15.2997938916994567
 10
14.7575416900880647
 20
15.0063706201986129
  0
LWPOLYLINE
  5
103
100
AcDbEntity
  8
VectorEngraving
 62
256
370
-1
 48
1.0
  6
BYLAYER
100
AcDbPolyline
 90
13
 70
129
 10
15.022109799512835
 20
16.9936293798013871
 10
15.3983511335956536
 20
16.9936293798013871
 10
16.0713884204609343
 20
15.6857785272625065
 10
16.0522765598650921
 20
16.9936293798013871
 10
16.4034101555180811
 20
16.9936293798013871
 10
16.4034101555180811
 20
16.9647742177253136
 42
0.1276856979477983
 10
16.3824245830991195
 20
16.9216788457935152
 42
0.0454369266294487
 10
16.3775529323590021
 20
16.8467303728686524
 10
16.3775529323590021
 20
15.0063706201986129
 10
16.0429080007494846
 20
15.0063706201986129
 10
15.347386172006745
 20
16.4004122166010866
 10
15.347386172006745
 20
15.0063706201986129
 10
15.022109799512835
 20
15.0063706201986129
  0
LWPOLYLINE
  5
104
100
AcDbEntity
  8
VectorEngraving
 62
256
370
-1
 48
1.0
  6
BYLAYER
100
AcDbPolyline
 90
7
 70
129
 10
17.1877459246767863
 20
15.0
 10
16.5495596777215681
 20
16.9936293798013871
 10
16.9070638935731701
 20
16.9936293798013871
 10
17.3249016301292862
 20
15.5965898444819189
 10
17.7138842046093323
 20
16.9936293798013871
 10
18.0616451189806995
 20
16.9936293798013871
 10
17.4298294922240977
 20
15.0
  0
LWPOLYLINE
  5
105
100
AcDbEntity
  8
VectorEngraving
 62
256
370
-1
 48
1.0
  6
BYLAYER
100
AcDbPolyline
 90
12
 70
129
 10
2.7052651302229718
 20
15.0063706201986129
 10
2.7052651302229718
 20
16.9936293798013871
 10
4.0003747423646248
 20
16.9936293798013871
 10
4.0003747423646248
 20
16.7002061083005415
 10
3.0560239835113361
 20
16.7002061083005415
 10
3.0560239835113361
 20
16.1898070076822194
 10
3.8313659359190559
 20
16.1898070076822194
 10
3.8313659359190559
 20
15.8930110548997554
 10
3.0560239835113361
 20
15.8930110548997554
 10
3.0560239835113361
 20
15.2997938916994567
 10
3.9906314408843921
 20
15.2997938916994567
 10
3.9906314408843921
 20
15.0063706201986129
  0
LWPOLYLINE
  5
106
100
AcDbEntity
  8
VectorEngraving
 62
256
370
-1
 48
1.0
  6
BYLAYER
100
AcDbPolyline
 90
13
 70
129
 10
4.2551995503091629
 20
16.9936293798013871
 10
4.6314408843919805
 20
16.9936293798013871
 10
5.3044781712572604
 20
15.6857785272625065
 10
5.2853663106614199
 20
16.9936293798013871
 10
5.636499906314409
 20
16.9936293798013871
 10
5.636499906314409
 20
16.9647742177253136
 42
0.1276856979476504
 10
5.6155143338954474
 20
16.9216788457935152
 42
0.0454369266294104
 10
5.6106426831553309
 20
16.8467303728686524
 10
5.6106426831553309
 20
15.0063706201986129
 10
5.2759977515458125
 20
15.0063706201986129
 10
4.5804759228030729
 20
16.4004122166010866
 10
4.5804759228030729
 20
15.0063706201986129
 10
4.2551995503091629
 20
15.0063706201986129
  0
LWPOLYLINE
  5
107
100
AcDbEntity
  8
VectorEngraving
 62
256
370
-1
 48
1.0
  6
BYLAYER
100
AcDbPolyline
 90
7
 70
129
 10
6.4208356754731124
 20
15.0
 10
5.7826494285178942
 20
16.9936293798013871
 10
6.1401536443694962
 20
16.9936293798013871
 10
6.5579913809256141
 20
15.5965898444819189
 10
6.9469739554056584
 20
16.9936293798013871
 10
7.2947348697770282
 20
16.9936293798013871
 10
6.6629192430204238
 20
15.0
  0
LINE
  5
108
100
AcDbEntity
  8
VectorEngraving
 62
256
370
-1
 48
1.0
  6
BYLAYER
100
AcDbLine
 10
5.0
 20
27.0
 30
0.0
 11
5.0
 21
30.0
 31
0.0
  0
LINE
  5
109
100
AcDbEntity
  8
VectorEngraving
 62
256
370
-1
 48
1.0
  6
BYLAYER
100
AcDbLine
 10
5.0
 20
30.0
 30
0.0
 11
6.0
 21
29.0
 31
0.0
  0
LINE
  5
10A
100
AcDbEntity
  8
VectorEngraving
 62
256
370
-1
 48
1.0
  6
BYLAYER
100
AcDbLine
 10
5.0
 20
30.0
 30
0.0
 11
4.0
 21
29.0
 31
0.0
  0
ENDSEC
  0
SECTION
  2
OBJECTS
  0
DICTIONARY
  5
C
100
AcDbDictionary
280
0
281
1
  3
ACAD_GROUP
350
D
  3
ACAD_LAYOUT
350
1A
  3
ACAD_MLINESTYLE
350
17
  3
ACAD_PLOTSETTINGS
350
19
  3
ACAD_PLOTSTYLENAME
350
E
  3
AcDbVariableDictionary
350
10B
  3
QCAD_OBJECTS
350
10C
  0
DICTIONARY
  5
D
100
AcDbDictionary
280
0
281
1
  0
ACDBDICTIONARYWDFLT
  5
E
100
AcDbDictionary
281
1
  3
Normal
350
F
100
AcDbDictionaryWithDefault
340
F
  0
ACDBPLACEHOLDER
  5
F
  0
DICTIONARY
  5
17
100
AcDbDictionary
280
0
281
1
  3
Standard
350
18
  0
MLINESTYLE
  5
18
100
AcDbMlineStyle
  2
STANDARD
 70
0
  3

 62
256
 51
90.0
 52
90.0
 71
2
 49
0.5
 62
256
  6
BYLAYER
 49
-0.5
 62
256
  6
BYLAYER
  0
DICTIONARY
  5
19
100
AcDbDictionary
280
0
281
1
  0
DICTIONARY
  5
1A
100
AcDbDictionary
281
1
  3
Layout1
350
1E
  3
Layout2
350
26
  3
Model
350
22
  0
LAYOUT
  5
1E
100
AcDbPlotSettings
  1

  2
none_device
  4

  6

 40
0.0
 41
0.0
 42
0.0
 43
0.0
 44
0.0
 45
0.0
 46
0.0
 47
0.0
 48
0.0
 49
0.0
140
0.0
141
0.0
142
1.0
143
1.0
 70
688
 72
0
 73
0
 74
5
  7

 75
16
147
1.0
148
0.0
149
0.0
100
AcDbLayout
  1
Layout1
 70
1
 71
1
 10
0.0
 20
0.0
 11
420.0
 21
297.0
 12
0.0
 22
0.0
 32
0.0
 14
100000000000000000000.0
 24
100000000000000000000.0
 34
100000000000000000000.0
 15
-100000000000000000000.0
 25
-100000000000000000000.0
 35
-100000000000000000000.0
146
0.0
 13
0.0
 23
0.0
 33
0.0
 16
1.0
 26
0.0
 36
0.0
 17
0.0
 27
1.0
 37
0.0
 76
0
330
1B
  0
LAYOUT
  5
22
100
AcDbPlotSettings
  1

  2
none_device
  4

  6

 40
0.0
 41
0.0
 42
0.0
 43
0.0
 44
0.0
 45
0.0
 46
0.0
 47
0.0
 48
0.0
 49
0.0
140
0.0
141
0.0
142
1.0
143
1.0
 70
1712
 72
0
 73
0
 74
0
  7

 75
0
147
1.0
148
0.0
149
0.0
100
AcDbLayout
  1
Model
 70
1
 71
0
 10
0.0
 20
0.0
 11
12.0
 21
9.0
 12
0.0
 22
0.0
 32
0.0
 14
0.0
 24
0.0
 34
0.0
 15
0.0
 25
0.0
 35
0.0
146
0.0
 13
0.0
 23
0.0
 33
0.0
 16
1.0
 26
0.0
 36
0.0
 17
0.0
 27
1.0
 37
0.0
 76
0
330
1F
  0
LAYOUT
  5
26
100
AcDbPlotSettings
  1

  2
none_device
  4

  6

 40
0.0
 41
0.0
 42
0.0
 43
0.0
 44
0.0
 45
0.0
 46
0.0
 47
0.0
 48
0.0
 49
0.0
140
0.0
141
0.0
142
1.0
143
1.0
 70
688
 72
0
 73
0
 74
5
  7

 75
16
147
1.0
148
0.0
149
0.0
100
AcDbLayout
  1
Layout2
 70
1
 71
2
 10
0.0
 20
0.0
 11
12.0
 21
9.0
 12
0.0
 22
0.0
 32
0.0
 14
0.0
 24
0.0
 34
0.0
 15
0.0
 25
0.0
 35
0.0
146
0.0
 13
0.0
 23
0.0
 33
0.0
 16
1.0
 26
0.0
 36
0.0
 17
0.0
 27
1.0
 37
0.0
 76
0
330
23
  0
DICTIONARY
  5
10B
100
AcDbDictionary
281
1
  3
DIMASSOC
350
10E
  3
HIDETEXT
350
10D
  0
DICTIONARYVAR
  5
10D
100
DictionaryVariables
280
0
  1
2
  0
DICTIONARYVAR
  5
10E
100
DictionaryVariables
280
0
  1
1
  0
DICTIONARY
  5
10C
100
AcDbDictionary
281
1
  3
ColorSettings/BackgroundColor
350
10F
  3
ColorSettings/ColorMode
350
110
  3
Grid/DisplayGrid00
350
111
  3
Grid/DisplayGrid01
350
112
  3
Grid/DisplayGrid02
350
113
  3
Grid/DisplayGrid03
350
114
  3
Grid/GridSpacingX00
350
115
  3
Grid/GridSpacingX01
350
116
  3
Grid/GridSpacingX02
350
117
  3
Grid/GridSpacingX03
350
118
  3
Grid/GridSpacingY00
350
119
  3
Grid/GridSpacingY01
350
11A
  3
Grid/GridSpacingY02
350
11B
  3
Grid/GridSpacingY03
350
11C
  3
Grid/IsometricGrid00
350
11D
  3
Grid/IsometricGrid01
350
11E
  3
Grid/IsometricGrid02
350
11F
  3
Grid/IsometricGrid03
350
120
  3
Grid/IsometricProjection00
350
121
  3
Grid/IsometricProjection01
350
122
  3
Grid/IsometricProjection02
350
123
  3
Grid/IsometricProjection03
350
124
  3
Grid/MetaGridSpacingX00
350
125
  3
Grid/MetaGridSpacingX01
350
126
  3
Grid/MetaGridSpacingX02
350
127
  3
Grid/MetaGridSpacingX03
350
128
  3
Grid/MetaGridSpacingY00
350
129
  3
Grid/MetaGridSpacingY01
350
12A
  3
Grid/MetaGridSpacingY02
350
12B
  3
Grid/MetaGridSpacingY03
350
12C
  3
MultiPageSettings/Columns
350
12D
  3
MultiPageSettings/GlueMarginsBottom
350
12E
  3
MultiPageSettings/GlueMarginsLeft
350
12F
  3
MultiPageSettings/GlueMarginsRight
350
130
  3
MultiPageSettings/GlueMarginsTop
350
131
  3
MultiPageSettings/PrintCropMarks
350
132
  3
MultiPageSettings/Rows
350
133
  3
PageSettings/OffsetX
350
134
  3
PageSettings/OffsetY
350
135
  3
PageSettings/PageOrientation
350
136
  3
PageSettings/PaperHeight
350
137
  3
PageSettings/PaperWidth
350
138
  3
PageSettings/Scale
350
139
  3
PageSettings/ShowPaperBorders
350
13A
  3
PageTagSettings/EnablePageTags
350
13B
  3
PageTagSettings/TagAlignment
350
13C
  3
PageTagSettings/TagFont
350
13D
  3
PageTagSettings/TagPosition
350
13E
  3
QCADVersion
350
13F
  3
UnitSettings/PaperUnit
350
140
  3
ViewportCenter
350
141
  3
ViewportHeight
350
142
  3
ViewportWidth
350
143
  0
XRECORD
  5
10F
330
10C
100
AcDbXrecord
280
1
1000
White
  0
XRECORD
  5
110
330
10C
100
AcDbXrecord
280
1
1000
FullColor
  0
XRECORD
  5
111
330
10C
100
AcDbXrecord
280
1
290
1
  0
XRECORD
  5
112
330
10C
100
AcDbXrecord
280
1
290
1
  0
XRECORD
  5
113
330
10C
100
AcDbXrecord
280
1
290
1
  0
XRECORD
  5
114
330
10C
100
AcDbXrecord
280
1
290
1
  0
XRECORD
  5
115
330
10C
100
AcDbXrecord
280
1
1000
auto
  0
XRECORD
  5
116
330
10C
100
AcDbXrecord
280
1
1000
auto
  0
XRECORD
  5
117
330
10C
100
AcDbXrecord
280
1
1000
auto
  0
XRECORD
  5
118
330
10C
100
AcDbXrecord
280
1
1000
auto
  0
XRECORD
  5
119
330
10C
100
AcDbXrecord
280
1
1000
auto
  0
XRECORD
  5
11A
330
10C
100
AcDbXrecord
280
1
1000
auto
  0
XRECORD
  5
11B
330
10C
100
AcDbXrecord
280
1
1000
auto
  0
XRECORD
  5
11C
330
10C
100
AcDbXrecord
280
1
1000
auto
  0
XRECORD
  5
11D
330
10C
100
AcDbXrecord
280
1
290
0
  0
XRECORD
  5
11E
330
10C
100
AcDbXrecord
280
1
290
0
  0
XRECORD
  5
11F
330
10C
100
AcDbXrecord
280
1
290
0
  0
XRECORD
  5
120
330
10C
100
AcDbXrecord
280
1
290
0
  0
XRECORD
  5
121
330
10C
100
AcDbXrecord
280
1
 90
65537
  0
XRECORD
  5
122
330
10C
100
AcDbXrecord
280
1
 90
65537
  0
XRECORD
  5
123
330
10C
100
AcDbXrecord
280
1
 90
65537
  0
XRECORD
  5
124
330
10C
100
AcDbXrecord
280
1
 90
65537
  0
XRECORD
  5
125
330
10C
100
AcDbXrecord
280
1
1000
auto
  0
XRECORD
  5
126
330
10C
100
AcDbXrecord
280
1
1000
auto
  0
XRECORD
  5
127
330
10C
100
AcDbXrecord
280
1
1000
auto
  0
XRECORD
  5
128
330
10C
100
AcDbXrecord
280
1
1000
auto
  0
XRECORD
  5
129
330
10C
100
AcDbXrecord
280
1
1000
auto
  0
XRECORD
  5
12A
330
10C
100
AcDbXrecord
280
1
1000
auto
  0
XRECORD
  5
12B
330
10C
100
AcDbXrecord
280
1
1000
auto
  0
XRECORD
  5
12C
330
10C
100
AcDbXrecord
280
1
1000
auto
  0
XRECORD
  5
12D
330
10C
100
AcDbXrecord
280
1
 90
1
  0
XRECORD
  5
12E
330
10C
100
AcDbXrecord
280
1
 40
10.0
  0
XRECORD
  5
12F
330
10C
100
AcDbXrecord
280
1
 40
10.0
  0
XRECORD
  5
130
330
10C
100
AcDbXrecord
280
1
 40
10.0
  0
XRECORD
  5
131
330
10C
100
AcDbXrecord
280
1
 40
10.0
  0
XRECORD
  5
132
330
10C
100
AcDbXrecord
280
1
290
0
  0
XRECORD
  5
133
330
10C
100
AcDbXrecord
280
1
 90
1
  0
XRECORD
  5
134
330
10C
100
AcDbXrecord
280
1
 40
0.0
  0
XRECORD
  5
135
330
10C
100
AcDbXrecord
280
1
 40
0.0
  0
XRECORD
  5
136
330
10C
100
AcDbXrecord
280
1
1000
Portrait
  0
XRECORD
  5
137
330
10C
100
AcDbXrecord
280
1
 40
297.0
  0
XRECORD
  5
138
330
10C
100
AcDbXrecord
280
1
 40
210.0
  0
XRECORD
  5
139
330
10C
100
AcDbXrecord
280
1
1000
1:1
  0
XRECORD
  5
13A
330
10C
100
AcDbXrecord
280
1
290
1
  0
XRECORD
  5
13B
330
10C
100
AcDbXrecord
280
1
290
0
  0
XRECORD
  5
13C
330
10C
100
AcDbXrecord
280
1
1000
Inside
  0
XRECORD
  5
13D
330
10C
100
AcDbXrecord
280
1
1000
Arial,10,-1,5,50,0,0,0,0,0
  0
XRECORD
  5
13E
330
10C
100
AcDbXrecord
280
1
1000
TopLeft
  0
XRECORD
  5
13F
330
10C
100
AcDbXrecord
280
1
1000
3.27.8.4
  0
XRECORD
  5
140
330
10C
100
AcDbXrecord
280
1
 90
4
  0
XRECORD
  5
142
330
10C
100
AcDbXrecord
280
1
 40
305.3542016194753614
  0
XRECORD
  5
143
330
10C
100
AcDbXrecord
280
1
 40
631.6435590796590986
  0
ENDSEC
  0
EOF
