999
dxflib 3.26.4.0
  0
SECTION
  2
HEADER
  9
$ACADVER
  1
AC1015
  9
$HANDSEED
  5
FFFF
  9
$DIMADEC
 70
0
  9
$DIMASZ
 40
2.5
  9
$DIMATFIT
 70
0
  9
$DIMAUNIT
 70
0
  9
$DIMAZIN
 70
2
  9
$DIMBLK
  1
0
  9
$DIMBLK1
  1
0
  9
$DIMBLK2
  1
0
  9
$DIMDEC
 70
4
  9
$DIMDLI
 40
5.0
  9
$DIMDSEP
 70
46
  9
$DIMEXE
 40
1.25
  9
$DIMEXO
 40
0.625
  9
$DIMGAP
 40
0.625
  9
$DIMLFAC
 40
1.0
  9
$DIMLUNIT
 70
2
  9
$DIMSCALE
 40
1.0
  9
$DIMTAD
 70
1
  9
$DIMTIH
 70
0
  9
$DIMTSZ
 40
0.0
  9
$DIMTXT
 40
2.5
  9
$DIMZIN
 70
8
  9
$DWGCODEPAGE
  3
ANSI_1252
  9
$INSUNITS
 70
4
  9
$LTSCALE
 40
1.0
  9
$MAXACTVP
 70
64
  9
$MEASUREMENT
 70
1
  9
$MIRRTEXT
 70
0
  9
$PDMODE
 70
0
  9
$PDSIZE
 40
0.0
  0
ENDSEC
  0
SECTION
  2
TABLES
  0
TABLE
  2
VPORT
  5
8
100
AcDbSymbolTable
 70
1
  0
VPORT
  5
30
100
AcDbSymbolTableRecord
100
AcDbViewportTableRecord
  2
*Active
 70
0
 10
0.0
 20
0.0
 11
1.0
 21
1.0
 12
286.3055555555554861
 22
148.5
 13
0.0
 23
0.0
 14
10.0
 24
10.0
 15
10.0
 25
10.0
 16
0.0
 26
0.0
 36
1.0
 17
0.0
 27
0.0
 37
0.0
 40
297.0
 41
1.92798353909465
 42
50.0
 43
0.0
 44
0.0
 50
0.0
 51
0.0
 71
0
 72
100
 73
1
 74
3
 75
1
 76
1
 77
0
 78
0
281
0
 65
1
110
0.0
120
0.0
130
0.0
111
1.0
121
0.0
131
0.0
112
0.0
122
1.0
132
0.0
 79
0
146
0.0
  0
ENDTAB
  0
TABLE
  2
LTYPE
  5
5
100
AcDbSymbolTable
 70
41
  0
LTYPE
  5
16
100
AcDbSymbolTableRecord
100
AcDbLinetypeTableRecord
  2
Continuous
 70
0
  3
Solid line
 72
65
 73
0
 40
0.0
  0
LTYPE
  5
31
100
AcDbSymbolTableRecord
100
AcDbLinetypeTableRecord
  2
DOT2
 70
0
  3
Dot (.5x) ........................................
 72
65
 73
2
 40
3.1749999999999998
 49
0.1
 74
0
 49
-3.0749999999999997
 74
0
  0
LTYPE
  5
32
100
AcDbSymbolTableRecord
100
AcDbLinetypeTableRecord
  2
ACAD_ISO10W100
 70
0
  3
ISO dash dot __ . __ . __ . __ . __ . __ . __ . 
 72
65
 73
4
 40
18.0
 49
12.0
 74
0
 49
-2.9500000000000002
 74
0
 49
0.1
 74
0
 49
-2.9500000000000002
 74
0
  0
LTYPE
  5
33
100
AcDbSymbolTableRecord
100
AcDbLinetypeTableRecord
  2
ACAD_ISO11W100
 70
0
  3
ISO double-dash dot __ __ . __ __ . __ __ . __ _
 72
65
 73
6
 40
33.0
 49
12.0
 74
0
 49
-3.0
 74
0
 49
12.0
 74
0
 49
-2.9500000000000002
 74
0
 49
0.1
 74
0
 49
-2.9500000000000002
 74
0
  0
LTYPE
  5
34
100
AcDbSymbolTableRecord
100
AcDbLinetypeTableRecord
  2
DIVIDE2
 70
0
  3
Divide (.5x) __..__..__..__..__..__..__..__.._
 72
65
 73
6
 40
15.8749999999999982
 49
6.3499999999999996
 74
0
 49
-3.125
 74
0
 49
0.1
 74
0
 49
-3.0750000000000002
 74
0
 49
0.1
 74
0
 49
-3.125
 74
0
  0
LTYPE
  5
35
100
AcDbSymbolTableRecord
100
AcDbLinetypeTableRecord
  2
BORDER
 70
0
  3
Border __ __ . __ __ . __ __ . __ __ . __ __ .
 72
65
 73
6
 40
44.4499999999999957
 49
12.6999999999999993
 74
0
 49
-6.3499999999999996
 74
0
 49
12.6999999999999993
 74
0
 49
-6.2999999999999998
 74
0
 49
0.1
 74
0
 49
-6.2999999999999998
 74
0
  0
LTYPE
  5
36
100
AcDbSymbolTableRecord
100
AcDbLinetypeTableRecord
  2
ACAD_ISO13W100
 70
0
  3
ISO double-dash double-dot __ __ . . __ __ . . _
 72
65
 73
8
 40
36.0000000000000071
 49
12.0
 74
0
 49
-3.0
 74
0
 49
12.0
 74
0
 49
-2.9500000000000002
 74
0
 49
0.1
 74
0
 49
-2.9000000000000004
 74
0
 49
0.1
 74
0
 49
-2.9500000000000002
 74
0
  0
LTYPE
  5
37
100
AcDbSymbolTableRecord
100
AcDbLinetypeTableRecord
  2
ACAD_ISO05W100
 70
0
  3
ISO long-dash double-dot ____ .. ____ .. ____ . 
 72
65
 73
6
 40
33.0000000000000071
 49
24.0
 74
0
 49
-2.9500000000000002
 74
0
 49
0.1
 74
0
 49
-2.9000000000000004
 74
0
 49
0.1
 74
0
 49
-2.9500000000000002
 74
0
  0
LTYPE
  5
38
100
AcDbSymbolTableRecord
100
AcDbLinetypeTableRecord
  2
DOTX2
 70
0
  3
Dot (2x) .  .  .  .  .  .  .  .  .  .  .  .  .  .
 72
65
 73
2
 40
12.6999999999999993
 49
0.1
 74
0
 49
-12.5999999999999996
 74
0
  0
LTYPE
  5
39
100
AcDbSymbolTableRecord
100
AcDbLinetypeTableRecord
  2
ACAD_ISO08W100
 70
0
  3
ISO long-dash short-dash ____ __ ____ __ ____ _
 72
65
 73
4
 40
36.0
 49
24.0
 74
0
 49
-3.0
 74
0
 49
6.0
 74
0
 49
-3.0
 74
0
  0
LTYPE
  5
3A
100
AcDbSymbolTableRecord
100
AcDbLinetypeTableRecord
  2
DIVIDE
 70
0
  3
Divide ____ . . ____ . . ____ . . ____ . . ____
 72
65
 73
6
 40
31.7500000000000036
 49
12.6999999999999993
 74
0
 49
-6.2999999999999998
 74
0
 49
0.1
 74
0
 49
-6.25
 74
0
 49
0.1
 74
0
 49
-6.2999999999999998
 74
0
  0
LTYPE
  5
3B
100
AcDbSymbolTableRecord
100
AcDbLinetypeTableRecord
  2
ACAD_ISO15W100
 70
0
  3
ISO double-dash triple-dot __ __ . . . __ __ . .
 72
65
 73
10
 40
39.0000000000000071
 49
12.0
 74
0
 49
-3.0
 74
0
 49
12.0
 74
0
 49
-2.9500000000000002
 74
0
 49
0.1
 74
0
 49
-2.9000000000000004
 74
0
 49
0.1
 74
0
 49
-2.9000000000000004
 74
0
 49
0.1
 74
0
 49
-2.9500000000000002
 74
0
  0
LTYPE
  5
3C
100
AcDbSymbolTableRecord
100
AcDbLinetypeTableRecord
  2
ACAD_ISO02W100
 70
0
  3
ISO dash __ __ __ __ __ __ __ __ __ __ __ __ __
 72
65
 73
2
 40
15.0
 49
12.0
 74
0
 49
-3.0
 74
0
  0
LTYPE
  5
15
100
AcDbSymbolTableRecord
100
AcDbLinetypeTableRecord
  2
BYLAYER
 70
0
  3

 72
65
 73
0
 40
0.0
  0
LTYPE
  5
3D
100
AcDbSymbolTableRecord
100
AcDbLinetypeTableRecord
  2
ACAD_ISO09W100
 70
0
  3
ISO long-dash double-short-dash ____ __ __ ____
 72
65
 73
6
 40
45.0
 49
24.0
 74
0
 49
-3.0
 74
0
 49
6.0
 74
0
 49
-3.0
 74
0
 49
6.0
 74
0
 49
-3.0
 74
0
  0
LTYPE
  5
3E
100
AcDbSymbolTableRecord
100
AcDbLinetypeTableRecord
  2
ACAD_ISO07W100
 70
0
  3
ISO dot . . . . . . . . . . . . . . . . . . . . 
 72
65
 73
2
 40
3.0
 49
0.1
 74
0
 49
-2.8999999999999999
 74
0
  0
LTYPE
  5
3F
100
AcDbSymbolTableRecord
100
AcDbLinetypeTableRecord
  2
DASHDOT2
 70
0
  3
Dash dot (.5x) _._._._._._._._._._._._._._._.
 72
65
 73
4
 40
12.6999999999999993
 49
6.3499999999999996
 74
0
 49
-3.125
 74
0
 49
0.1
 74
0
 49
-3.125
 74
0
  0
LTYPE
  5
40
100
AcDbSymbolTableRecord
100
AcDbLinetypeTableRecord
  2
DASHEDX2
 70
0
  3
Dashed (2x) ____  ____  ____  ____  ____  ___
 72
65
 73
2
 40
38.0999999999999943
 49
25.3999999999999986
 74
0
 49
-12.6999999999999993
 74
0
  0
LTYPE
  5
41
100
AcDbSymbolTableRecord
100
AcDbLinetypeTableRecord
  2
PHANTOMX2
 70
0
  3
Phantom (2x) ____________    ____    ____   _
 72
65
 73
6
 40
127.0000000000000142
 49
63.5
 74
0
 49
-12.6999999999999993
 74
0
 49
12.6999999999999993
 74
0
 49
-12.6999999999999993
 74
0
 49
12.6999999999999993
 74
0
 49
-12.6999999999999993
 74
0
  0
LTYPE
  5
42
100
AcDbSymbolTableRecord
100
AcDbLinetypeTableRecord
  2
DASHED2
 70
0
  3
Dashed (.5x) _ _ _ _ _ _ _ _ _ _ _ _ _ _ _ _ _ 
 72
65
 73
2
 40
9.5249999999999986
 49
6.3499999999999996
 74
0
 49
-3.1749999999999998
 74
0
  0
LTYPE
  5
43
100
AcDbSymbolTableRecord
100
AcDbLinetypeTableRecord
  2
DASHED
 70
0
  3
Dashed __ __ __ __ __ __ __ __ __ __ __ __ __ _
 72
65
 73
2
 40
19.0499999999999972
 49
12.6999999999999993
 74
0
 49
-6.3499999999999996
 74
0
  0
LTYPE
  5
44
100
AcDbSymbolTableRecord
100
AcDbLinetypeTableRecord
  2
ACAD_ISO03W100
 70
0
  3
ISO dash space __    __    __    __    __    __
 72
65
 73
2
 40
30.0
 49
12.0
 74
0
 49
-18.0
 74
0
  0
LTYPE
  5
45
100
AcDbSymbolTableRecord
100
AcDbLinetypeTableRecord
  2
CENTER2
 70
0
  3
Center (.5x) ___ _ ___ _ ___ _ ___ _ ___ _ ___
 72
65
 73
4
 40
28.5750000000000028
 49
19.0500000000000007
 74
0
 49
-3.1749999999999998
 74
0
 49
3.1749999999999998
 74
0
 49
-3.1749999999999998
 74
0
  0
LTYPE
  5
46
100
AcDbSymbolTableRecord
100
AcDbLinetypeTableRecord
  2
ACAD_ISO12W100
 70
0
  3
ISO dash double-dot __ . . __ . . __ . . __ . . 
 72
65
 73
6
 40
21.0
 49
12.0
 74
0
 49
-2.9500000000000002
 74
0
 49
0.1
 74
0
 49
-2.9000000000000004
 74
0
 49
0.1
 74
0
 49
-2.9500000000000002
 74
0
  0
LTYPE
  5
47
100
AcDbSymbolTableRecord
100
AcDbLinetypeTableRecord
  2
HIDDENX2
 70
0
  3
Hidden (2x) ____ ____ ____ ____ ____ ____ ____ 
 72
65
 73
2
 40
19.0499999999999972
 49
12.6999999999999993
 74
0
 49
-6.3499999999999996
 74
0
  0
LTYPE
  5
48
100
AcDbSymbolTableRecord
100
AcDbLinetypeTableRecord
  2
HIDDEN
 70
0
  3
Hidden __ __ __ __ __ __ __ __ __ __ __ __ __ __
 72
65
 73
2
 40
9.5249999999999986
 49
6.3499999999999996
 74
0
 49
-3.1749999999999998
 74
0
  0
LTYPE
  5
14
100
AcDbSymbolTableRecord
100
AcDbLinetypeTableRecord
  2
BYBLOCK
 70
0
  3

 72
65
 73
0
 40
0.0
  0
LTYPE
  5
49
100
AcDbSymbolTableRecord
100
AcDbLinetypeTableRecord
  2
PHANTOM2
 70
0
  3
Phantom (.5x) ___ _ _ ___ _ _ ___ _ _ ___ _ _
 72
65
 73
6
 40
31.7500000000000036
 49
15.875
 74
0
 49
-3.1749999999999998
 74
0
 49
3.1749999999999998
 74
0
 49
-3.1749999999999998
 74
0
 49
3.1749999999999998
 74
0
 49
-3.1749999999999998
 74
0
  0
LTYPE
  5
4A
100
AcDbSymbolTableRecord
100
AcDbLinetypeTableRecord
  2
BORDERX2
 70
0
  3
Border (2x) ____  ____  .  ____  ____  .  ___
 72
65
 73
6
 40
88.8999999999999773
 49
25.3999999999999986
 74
0
 49
-12.6999999999999993
 74
0
 49
25.3999999999999986
 74
0
 49
-12.6499999999999986
 74
0
 49
0.1
 74
0
 49
-12.6499999999999986
 74
0
  0
LTYPE
  5
4B
100
AcDbSymbolTableRecord
100
AcDbLinetypeTableRecord
  2
ACAD_ISO06W100
 70
0
  3
ISO long-dash triple-dot ____ ... ____ ... ____
 72
65
 73
8
 40
36.0000000000000071
 49
24.0
 74
0
 49
-2.9500000000000002
 74
0
 49
0.1
 74
0
 49
-2.9000000000000004
 74
0
 49
0.1
 74
0
 49
-2.9000000000000004
 74
0
 49
0.1
 74
0
 49
-2.9500000000000002
 74
0
  0
LTYPE
  5
4C
100
AcDbSymbolTableRecord
100
AcDbLinetypeTableRecord
  2
DASHDOT
 70
0
  3
Dash dot __ . __ . __ . __ . __ . __ . __ . __
 72
65
 73
4
 40
25.4000000000000021
 49
12.6999999999999993
 74
0
 49
-6.2999999999999998
 74
0
 49
0.1
 74
0
 49
-6.2999999999999998
 74
0
  0
LTYPE
  5
4D
100
AcDbSymbolTableRecord
100
AcDbLinetypeTableRecord
  2
BORDER2
 70
0
  3
Border (.5x) __.__.__.__.__.__.__.__.__.__.__.
 72
65
 73
6
 40
22.2250000000000014
 49
6.3499999999999996
 74
0
 49
-3.1749999999999998
 74
0
 49
6.3499999999999996
 74
0
 49
-3.125
 74
0
 49
0.1
 74
0
 49
-3.125
 74
0
  0
LTYPE
  5
4E
100
AcDbSymbolTableRecord
100
AcDbLinetypeTableRecord
  2
DIVIDEX2
 70
0
  3
Divide (2x) ________  .  .  ________  .  .  _
 72
65
 73
6
 40
63.5
 49
25.3999999999999986
 74
0
 49
-12.6499999999999986
 74
0
 49
0.1
 74
0
 49
-12.5999999999999979
 74
0
 49
0.1
 74
0
 49
-12.6499999999999986
 74
0
  0
LTYPE
  5
4F
100
AcDbSymbolTableRecord
100
AcDbLinetypeTableRecord
  2
PHANTOM
 70
0
  3
Phantom ______  __  __  ______  __  __  ______ 
 72
65
 73
6
 40
63.5000000000000071
 49
31.75
 74
0
 49
-6.3499999999999996
 74
0
 49
6.3499999999999996
 74
0
 49
-6.3499999999999996
 74
0
 49
6.3499999999999996
 74
0
 49
-6.3499999999999996
 74
0
  0
LTYPE
  5
50
100
AcDbSymbolTableRecord
100
AcDbLinetypeTableRecord
  2
DOT
 70
0
  3
Dot . . . . . . . . . . . . . . . . . . . . . . . .
 72
65
 73
2
 40
6.3499999999999996
 49
0.1
 74
0
 49
-6.25
 74
0
  0
LTYPE
  5
51
100
AcDbSymbolTableRecord
100
AcDbLinetypeTableRecord
  2
ACAD_ISO04W100
 70
0
  3
ISO long-dash dot ____ . ____ . ____ . ____ . _
 72
65
 73
4
 40
30.0
 49
24.0
 74
0
 49
-2.9500000000000002
 74
0
 49
0.1
 74
0
 49
-2.9500000000000002
 74
0
  0
LTYPE
  5
52
100
AcDbSymbolTableRecord
100
AcDbLinetypeTableRecord
  2
CENTER
 70
0
  3
Center ____ _ ____ _ ____ _ ____ _ ____ _ ____
 72
65
 73
4
 40
50.8000000000000043
 49
31.75
 74
0
 49
-6.3499999999999996
 74
0
 49
6.3499999999999996
 74
0
 49
-6.3499999999999996
 74
0
  0
LTYPE
  5
53
100
AcDbSymbolTableRecord
100
AcDbLinetypeTableRecord
  2
HIDDEN2
 70
0
  3
Hidden (.5x) _ _ _ _ _ _ _ _ _ _ _ _ _ _ _ _ _ 
 72
65
 73
2
 40
4.7624999999999993
 49
3.1749999999999998
 74
0
 49
-1.5874999999999999
 74
0
  0
LTYPE
  5
54
100
AcDbSymbolTableRecord
100
AcDbLinetypeTableRecord
  2
ACAD_ISO14W100
 70
0
  3
ISO dash triple-dot __ . . . __ . . . __ . . . _
 72
65
 73
8
 40
24.0000000000000036
 49
12.0
 74
0
 49
-2.9500000000000002
 74
0
 49
0.1
 74
0
 49
-2.9000000000000004
 74
0
 49
0.1
 74
0
 49
-2.9000000000000004
 74
0
 49
0.1
 74
0
 49
-2.9500000000000002
 74
0
  0
LTYPE
  5
55
100
AcDbSymbolTableRecord
100
AcDbLinetypeTableRecord
  2
DASHDOTX2
 70
0
  3
Dash dot (2x) ____  .  ____  .  ____  .  ___
 72
65
 73
4
 40
50.7999999999999972
 49
25.3999999999999986
 74
0
 49
-12.6499999999999986
 74
0
 49
0.1
 74
0
 49
-12.6499999999999986
 74
0
  0
LTYPE
  5
56
100
AcDbSymbolTableRecord
100
AcDbLinetypeTableRecord
  2
CENTERX2
 70
0
  3
Center (2x) ________  __  ________  __  _____
 72
65
 73
4
 40
101.6000000000000085
 49
63.5
 74
0
 49
-12.6999999999999993
 74
0
 49
12.6999999999999993
 74
0
 49
-12.6999999999999993
 74
0
  0
ENDTAB
  0
TABLE
  2
LAYER
  5
2
100
AcDbSymbolTable
 70
5
  0
LAYER
  5
57
100
AcDbSymbolTableRecord
100
AcDbLayerTableRecord
  2
UserDrawings
 70
0
 62
9
420
12632256
  6
Continuous
370
13
390
F
  0
LAYER
  5
58
100
AcDbSymbolTableRecord
100
AcDbLayerTableRecord
  2
Cuts
 70
0
 62
1
420
16711680
  6
Continuous
370
13
390
F
  0
LAYER
  5
59
100
AcDbSymbolTableRecord
100
AcDbLayerTableRecord
  2
AreaEngraving
 70
0
 62
3
420
65280
  6
Continuous
370
13
390
F
  0
LAYER
  5
10
100
AcDbSymbolTableRecord
100
AcDbLayerTableRecord
  2
0
 70
0
 62
2
420
16776960
  6
Continuous
370
13
390
F
  0
LAYER
  5
5A
100
AcDbSymbolTableRecord
100
AcDbLayerTableRecord
  2
VectorEngraving
 70
0
 62
5
420
255
  6
Continuous
370
13
390
F
  0
ENDTAB
  0
TABLE
  2
STYLE
  5
3
100
AcDbSymbolTable
 70
1
  0
STYLE
  5
5B
100
AcDbSymbolTableRecord
100
AcDbTextStyleTableRecord
  2
Standard
 70
0
 40
0.0
 41
1.0
 50
0.0
 71
0
 42
2.5
  3

  4

1001
ACAD
1000
txt
1071
0
  0
ENDTAB
  0
TABLE
  2
VIEW
  5
6
100
AcDbSymbolTable
 70
0
  0
ENDTAB
  0
TABLE
  2
UCS
  5
7
100
AcDbSymbolTable
 70
0
  0
ENDTAB
  0
TABLE
  2
APPID
  5
9
100
AcDbSymbolTable
 70
1
  0
APPID
  5
12
100
AcDbSymbolTableRecord
100
AcDbRegAppTableRecord
  2
ACAD
 70
0
  0
APPID
  5
5C
100
AcDbSymbolTableRecord
100
AcDbRegAppTableRecord
  2
QCAD
 70
0
  0
ENDTAB
  0
TABLE
  2
DIMSTYLE
  5
A
100
AcDbSymbolTable
 70
1
100
AcDbDimStyleTable
 71
0
  0
DIMSTYLE
105
27
100
AcDbSymbolTableRecord
100
AcDbDimStyleTableRecord
  2
Standard
 41
2.5
 42
0.625
 43
3.75
 44
1.25
 70
0
 73
0
 74
0
 77
1
 78
8
140
2.5
141
2.5
143
0.03937007874016
147
0.625
171
3
172
1
271
2
272
2
274
3
278
44
283
0
284
8
340
5B
  0
ENDTAB
  0
TABLE
  2
BLOCK_RECORD
  5
1
100
AcDbSymbolTable
 70
1
  0
BLOCK_RECORD
  5
1F
100
AcDbSymbolTableRecord
100
AcDbBlockTableRecord
  2
*Model_Space
340
22
  0
BLOCK_RECORD
  5
1B
100
AcDbSymbolTableRecord
100
AcDbBlockTableRecord
  2
*Paper_Space
340
1E
  0
BLOCK_RECORD
  5
23
100
AcDbSymbolTableRecord
100
AcDbBlockTableRecord
  2
*Paper_Space0
340
26
  0
BLOCK_RECORD
  5
5D
100
AcDbSymbolTableRecord
100
AcDbBlockTableRecord
  2
block 6
340
0
  0
BLOCK_RECORD
  5
5E
100
AcDbSymbolTableRecord
100
AcDbBlockTableRecord
  2
block 3
340
0
  0
BLOCK_RECORD
  5
5F
100
AcDbSymbolTableRecord
100
AcDbBlockTableRecord
  2
block 7
340
0
  0
BLOCK_RECORD
  5
60
100
AcDbSymbolTableRecord
100
AcDbBlockTableRecord
  2
block 8
340
0
  0
BLOCK_RECORD
  5
61
100
AcDbSymbolTableRecord
100
AcDbBlockTableRecord
  2
block 5
340
0
  0
BLOCK_RECORD
  5
62
100
AcDbSymbolTableRecord
100
AcDbBlockTableRecord
  2
RW_Logo_Trans
340
0
  0
BLOCK_RECORD
  5
63
100
AcDbSymbolTableRecord
100
AcDbBlockTableRecord
  2
block 2
340
0
  0
BLOCK_RECORD
  5
64
100
AcDbSymbolTableRecord
100
AcDbBlockTableRecord
  2
LargePotGauge
340
0
  0
BLOCK_RECORD
  5
65
100
AcDbSymbolTableRecord
100
AcDbBlockTableRecord
  2
block 9
340
0
  0
BLOCK_RECORD
  5
66
100
AcDbSymbolTableRecord
100
AcDbBlockTableRecord
  2
SmallPotGauge
340
0
  0
BLOCK_RECORD
  5
67
100
AcDbSymbolTableRecord
100
AcDbBlockTableRecord
  2
block 1
340
0
  0
BLOCK_RECORD
  5
68
100
AcDbSymbolTableRecord
100
AcDbBlockTableRecord
  2
block 4
340
0
  0
ENDTAB
  0
ENDSEC
  0
SECTION
  2
BLOCKS
  0
BLOCK
  5
20
100
AcDbEntity
  8
0
100
AcDbBlockBegin
  2
*Model_Space
 70
0
 10
0.0
 20
0.0
 30
0.0
  3
*Model_Space
  1

  0
ENDBLK
  5
21
100
AcDbEntity
  8
0
100
AcDbBlockEnd
  0
BLOCK
  5
1C
100
AcDbEntity
 67
1
  8
0
100
AcDbBlockBegin
  2
*Paper_Space
 70
0
 10
0.0
 20
0.0
 30
0.0
  3
*Paper_Space
  1

  0
ENDBLK
  5
1D
100
AcDbEntity
 67
1
  8
0
100
AcDbBlockEnd
  0
BLOCK
  5
24
100
AcDbEntity
  8
0
100
AcDbBlockBegin
  2
*Paper_Space0
 70
0
 10
0.0
 20
0.0
 30
0.0
  3
*Paper_Space0
  1

  0
ENDBLK
  5
25
100
AcDbEntity
  8
0
100
AcDbBlockEnd
  0
BLOCK
  5
69
100
AcDbEntity
  8
0
100
AcDbBlockBegin
  2
block 6
 70
0
 10
0.0
 20
0.0
 30
0.0
  3
block 6
  1

  0
LWPOLYLINE
  5
6A
100
AcDbEntity
  8
VectorEngraving
 62
256
370
-1
 48
1.0
  6
BYLAYER
100
AcDbPolyline
 90
20
 70
128
 10
-9.6223985434999992
 20
3.5055049324999992
 10
-9.6223985434999992
 20
3.0861113744999997
 10
-10.1231553694999992
 20
3.0861113744999997
 10
-10.1231553694999992
 20
2.2472725039999997
 10
-9.6223985434999992
 20
2.2472725039999997
 10
-9.6223985434999992
 20
-0.2365849774999997
 10
-10.1231553694999992
 20
-0.2365849774999997
 10
-10.1231553694999992
 20
-1.0753719874999996
 10
-9.6223985434999992
 20
-1.0753719874999996
 10
-9.6223985434999992
 20
-1.4939893074999997
 10
-9.6223985434999992
 20
-3.5055049325000001
 10
-7.2853780124999989
 20
-3.5055049325000001
 10
-7.2853780124999989
 20
-1.4939893074999997
 10
-6.7416104674999993
 20
-1.4939893074999997
 10
-6.0094962924999997
 20
-3.5055049325000001
 10
-3.6724756024999996
 20
-3.5055049325000001
 10
-4.6877568524999997
 20
-0.7159657374999995
 42
0.1923579134144613
 10
-3.9979806674999985
 20
1.0057578655002395
 42
0.4142131276425501
 10
-6.4977275224330144
 20
3.5055049324999992
 10
-9.6223985434999992
 20
3.5055049324999992
  0
LWPOLYLINE
  5
6B
100
AcDbEntity
  8
VectorEngraving
 62
256
370
-1
 48
1.0
  6
BYLAYER
100
AcDbPolyline
 90
6
 70
128
 10
-7.2853780124999989
 20
1.8282930085000011
 10
-6.7073467624999994
 20
1.8282930085000011
 42
-0.4142108826965076
 10
-5.8848633474999996
 20
1.0057578654997137
 42
-0.4141924816972828
 10
-6.7073467624999994
 20
0.1832743975000009
 10
-7.2853780124999989
 20
0.1832743975
 10
-7.2853780124999989
 20
1.8282930085000011
  0
LWPOLYLINE
  5
6C
100
AcDbEntity
  8
VectorEngraving
 62
256
370
-1
 48
1.0
  6
BYLAYER
100
AcDbPolyline
 90
5
 70
128
 10
-3.6129025424999988
 20
3.5055049324999992
 10
-1.0610868974999992
 20
-3.5055049325000001
 10
1.2758818524999995
 20
-3.5055049325000001
 10
-1.2758818524999995
 20
3.5055049324999992
 10
-3.6129025424999988
 20
3.5055049324999992
  0
LWPOLYLINE
  5
6D
100
AcDbEntity
  8
VectorEngraving
 62
256
370
-1
 48
1.0
  6
BYLAYER
100
AcDbPolyline
 90
8
 70
128
 10
1.4906765424999993
 20
3.5055049324999992
 10
4.0424921874999988
 20
-3.5055049325000001
 10
6.379512612500001
 20
-3.5055049325000001
 10
8.9313279925000018
 20
3.5055049324999992
 10
6.5943075675000031
 20
3.5055049324999992
 10
5.2109765625000009
 20
-0.2950712724999995
 10
3.8276972325000003
 20
3.5055049324999992
 10
1.4906765424999993
 20
3.5055049324999992
  0
LINE
  5
6E
100
AcDbEntity
  8
VectorEngraving
 62
256
370
-1
 48
1.0
  6
BYLAYER
100
AcDbLine
 10
0.1073974775000028
 20
-0.2950712724999986
 30
0.0
 11
1.490676542500001
 21
3.5055049325000009
 31
0.0
  0
LINE
  5
6F
100
AcDbEntity
  8
VectorEngraving
 62
256
370
-1
 48
1.0
  6
BYLAYER
100
AcDbLine
 10
2.6591996787320564
 20
0.2950350650328817
 30
0.0
 11
1.2758818546243074
 21
-3.505504934606535
 31
0.0
  0
ENDBLK
  5
70
100
AcDbEntity
  8
0
100
AcDbBlockEnd
  0
BLOCK
  5
71
100
AcDbEntity
  8
0
100
AcDbBlockBegin
  2
block 3
 70
0
 10
0.0
 20
0.0
 30
0.0
  3
block 3
  1

  0
INSERT
  5
72
100
AcDbEntity
  8
VectorEngraving
 62
256
370
-1
 48
1.0
  6
BYLAYER
100
AcDbBlockReference
  2
SmallPotGauge
 10
-105.0126316216625355
 20
145.1543371675010121
 30
0.0
  0
ENDBLK
  5
73
100
AcDbEntity
  8
0
100
AcDbBlockEnd
  0
BLOCK
  5
74
100
AcDbEntity
  8
0
100
AcDbBlockBegin
  2
block 7
 70
0
 10
0.0
 20
0.0
 30
0.0
  3
block 7
  1

  0
LWPOLYLINE
  5
75
100
AcDbEntity
  8
VectorEngraving
 62
3
420
65280
370
-1
 48
1.0
  6
BYLAYER
100
AcDbPolyline
 90
6
 70
128
 10
-0.1447316216625225
 20
5.2278271675010188
 10
-0.1447316216625225
 20
3.4717371675010185
 42
-0.0094312964636997
 10
-0.012841621662524
 20
3.4777371675010471
 42
-0.0094282736998003
 10
0.1191083783374793
 20
3.4747371675010328
 10
0.1191083783374793
 20
5.2275271675010373
 10
-0.1447316216625225
 20
5.2278271675010188
  0
LWPOLYLINE
  5
76
100
AcDbEntity
  8
VectorEngraving
 62
3
420
65280
370
-1
 48
1.0
  6
BYLAYER
100
AcDbPolyline
 90
5
 70
128
 10
-2.5235516216625271
 20
4.5904471675010114
 10
-2.7520316216625318
 20
4.4585071675010255
 10
-1.8752716216625274
 20
2.9399371675010144
 42
-0.018850642653673
 10
-1.6458916216625212
 20
3.0702571675010262
 10
-2.5235516216625271
 20
4.5904471675010114
  0
LWPOLYLINE
  5
77
100
AcDbEntity
  8
VectorEngraving
 62
3
420
65280
370
-1
 48
1.0
  6
BYLAYER
100
AcDbPolyline
 90
5
 70
128
 10
2.4979683783374682
 20
4.5904471675010114
 10
1.6214783783374642
 20
3.0723371675010043
 42
-0.0188531870154901
 10
1.8500983783374707
 20
2.9406171675010029
 10
2.7264483783374729
 20
4.4585071675009971
 10
2.4979683783374682
 20
4.5904471675010114
  0
LWPOLYLINE
  5
78
100
AcDbEntity
  8
VectorEngraving
 62
3
420
65280
370
-1
 48
1.0
  6
BYLAYER
100
AcDbPolyline
 90
5
 70
128
 10
-4.493471621662529
 20
2.7170671675010141
 10
-4.6253716216625307
 20
2.4885871675010236
 10
-3.1052216216625297
 20
1.6109271675010319
 42
-0.0188520557002934
 10
-2.9748616216625337
 20
1.8403071675010239
 10
-4.493471621662529
 20
2.7170671675010141
  0
LWPOLYLINE
  5
79
100
AcDbEntity
  8
VectorEngraving
 62
3
420
65280
370
-1
 48
1.0
  6
BYLAYER
100
AcDbPolyline
 90
5
 70
128
 10
4.4678883783374701
 20
2.7170671675010141
 10
2.9499483783374743
 20
1.8407171675010119
 42
-0.0188549721058722
 10
3.0817183783375199
 20
1.6120971675010054
 10
4.5997783783374828
 20
2.4885871675009952
 10
4.4678883783374701
 20
2.7170671675010141
  0
LWPOLYLINE
  5
7A
100
AcDbEntity
  8
VectorEngraving
 62
3
420
65280
370
-1
 48
1.0
  6
BYLAYER
100
AcDbPolyline
 90
6
 70
128
 10
-5.2628346216625275
 20
0.1097271675010205
 10
-5.2628346216625275
 20
-0.1541128324989671
 10
-3.506701621662522
 20
-0.1541128324989671
 42
-0.0094348651562602
 10
-3.5127016216625506
 20
-0.0221728324989812
 42
-0.00943201020193
 10
-3.5067016216625362
 20
0.1097271675010205
 10
-5.2628346216625275
 20
0.1097271675010205
  0
LWPOLYLINE
  5
7B
100
AcDbEntity
  8
VectorEngraving
 62
3
420
65280
370
-1
 48
1.0
  6
BYLAYER
100
AcDbPolyline
 90
6
 70
128
 10
3.4844183783374589
 20
0.1097271675010205
 42
-0.009424702242363
 10
3.487418378337459
 20
-0.0221728324988959
 42
-0.0094348651562611
 10
3.4814183783374872
 20
-0.1541128324989671
 10
5.2375083783374734
 20
-0.1541128324989671
 10
5.2375083783374734
 20
0.1097271675010205
 10
3.4844183783374731
 20
0.1097271675010205
  0
LWPOLYLINE
  5
7C
100
AcDbEntity
  8
VectorEngraving
 62
3
420
65280
370
-1
 48
1.0
  6
BYLAYER
100
AcDbPolyline
 90
5
 70
128
 10
3.0795883783374691
 20
-1.6552228324989784
 42
-0.0188551641205852
 10
2.9492283783374731
 20
-1.8846528324989862
 10
4.4678883783374701
 20
-2.7614128324989764
 10
4.5997783783374686
 20
-2.5329328324989859
 10
3.0795883783374691
 20
-1.6552228324989784
  0
LWPOLYLINE
  5
7D
100
AcDbEntity
  8
VectorEngraving
 62
3
420
65280
370
-1
 48
1.0
  6
BYLAYER
100
AcDbPolyline
 90
5
 70
128
 10
-3.1052216216625297
 20
-1.6552728324989658
 10
-4.6253716216625307
 20
-2.5329328324989575
 10
-4.493471621662529
 20
-2.761412832498948
 10
-2.9748616216625337
 20
-1.8846528324989578
 42
-0.0188520557002923
 10
-3.1052216216625439
 20
-1.6552728324989658
  0
LWPOLYLINE
  5
7E
100
AcDbEntity
  8
VectorEngraving
 62
3
420
65280
370
-1
 48
1.0
  6
BYLAYER
100
AcDbPolyline
 90
5
 70
128
 10
1.8496883783374685
 20
-2.984242832498964
 42
-0.0188520557002944
 10
1.6203083783374623
 20
-3.1146028324989601
 10
2.4979683783374682
 20
-4.6347928324989738
 10
2.7264483783374729
 20
-4.5028528324989878
 10
1.8496883783374685
 20
-2.984242832498964
  0
LWPOLYLINE
  5
7F
100
AcDbEntity
  8
VectorEngraving
 62
3
420
65280
370
-1
 48
1.0
  6
BYLAYER
100
AcDbPolyline
 90
6
 70
128
 10
-1.8752716216625274
 20
-2.9842828324989767
 10
-2.7520316216625318
 20
-4.5028528324989878
 10
-2.5235516216625271
 20
-4.6347928324989738
 10
-1.6458916216625212
 20
-3.1146028324989601
 42
-0.0188506426536739
 10
-1.8752716216625274
 20
-2.9842828324989483
 10
-1.8752716216625274
 20
-2.9842828324989767
  0
ENDBLK
  5
80
100
AcDbEntity
  8
0
100
AcDbBlockEnd
  0
BLOCK
  5
81
100
AcDbEntity
  8
0
100
AcDbBlockBegin
  2
block 8
 70
0
 10
0.0
 20
0.0
 30
0.0
  3
block 8
  1

  0
LWPOLYLINE
  5
82
100
AcDbEntity
  8
AreaEngraving
 62
3
420
65280
370
-1
 48
1.0
  6
BYLAYER
100
AcDbPolyline
 90
6
 70
128
 10
-0.6863584872871229
 20
53.6120564188048263
 10
-0.6863584872871229
 20
42.4142964188048239
 42
-0.0033072788336863
 10
-0.1577084872871239
 20
42.4374964188048409
 42
-0.0033077266184061
 10
0.3714615127128695
 20
42.4294964188048738
 10
0.3714615127128695
 20
53.6120564188048263
 10
-0.6863584872871229
 20
53.6120564188048263
  0
LWPOLYLINE
  5
83
100
AcDbEntity
  8
AreaEngraving
 62
3
420
65280
370
-1
 48
1.0
  6
BYLAYER
100
AcDbPolyline
 90
5
 70
128
 10
-11.8215964872871098
 20
48.0113664188048261
 10
-12.8432394872871214
 20
47.7374864188048207
 10
-11.0154454872871099
 20
40.9151664188048159
 42
-0.0066141399769513
 10
-9.993285487287153
 20
41.1890464188048355
 10
-11.8215964872871098
 20
48.0113664188048261
  0
LWPOLYLINE
  5
84
100
AcDbEntity
  8
AreaEngraving
 62
3
420
65280
370
-1
 48
1.0
  6
BYLAYER
100
AcDbPolyline
 90
5
 70
128
 10
11.5067015127128798
 20
48.0113664188048261
 10
9.6825215127128956
 20
41.2035164188048242
 42
-0.0066101756053528
 10
10.7041615127128296
 20
40.9301464188048527
 10
12.528341512712899
 20
47.7374864188048207
 10
11.5067015127128798
 20
48.0113664188048261
  0
LWPOLYLINE
  5
85
100
AcDbEntity
  8
AreaEngraving
 62
3
420
65280
370
-1
 48
1.0
  6
BYLAYER
100
AcDbPolyline
 90
5
 70
128
 10
-25.2869244872871093
 20
47.0202164188048215
 10
-26.2026304872871094
 20
46.4915664188048225
 10
-20.6034894872871064
 20
36.7939664188048283
 42
-0.006608723992369
 10
-19.6877834872871063
 20
37.3226164188048415
 10
-25.2869244872871093
 20
47.0202164188048215
  0
LWPOLYLINE
  5
86
100
AcDbEntity
  8
AreaEngraving
 62
3
420
65280
370
-1
 48
1.0
  6
BYLAYER
100
AcDbPolyline
 90
5
 70
128
 10
24.9715115127128797
 20
47.0202164188048215
 10
19.3806315127128812
 20
37.3360564188048158
 42
-0.0066087456461917
 10
20.296341512712786
 20
36.8074064188048311
 10
25.8877315127128895
 20
46.4915664188048225
 10
24.9715115127128797
 20
47.0202164188048215
  0
LWPOLYLINE
  5
87
100
AcDbEntity
  8
AreaEngraving
 62
3
420
65280
370
-1
 48
1.0
  6
BYLAYER
100
AcDbPolyline
 90
5
 70
128
 10
-33.0456244872871139
 20
36.0735964188048257
 10
-33.7938984872870947
 20
35.3258364188048262
 10
-28.7993714872870896
 20
30.3313064188048287
 42
-0.0066118880942146
 10
-28.0510974872871373
 20
31.079066418804814
 10
-33.0456244872871139
 20
36.0735964188048257
  0
LWPOLYLINE
  5
88
100
AcDbEntity
  8
AreaEngraving
 62
3
420
65280
370
-1
 48
1.0
  6
BYLAYER
100
AcDbPolyline
 90
5
 70
128
 10
32.7307215127128757
 20
36.0735964188048257
 10
27.7475715127128808
 20
31.0904364188048277
 42
-0.0066118262234246
 10
28.4953215127127919
 20
30.342166418804851
 10
33.4784815127128752
 20
35.3258364188048262
 10
32.7307215127128757
 20
36.0735964188048257
  0
LWPOLYLINE
  5
89
100
AcDbEntity
  8
AreaEngraving
 62
3
420
65280
370
-1
 48
1.0
  6
BYLAYER
100
AcDbPolyline
 90
5
 70
128
 10
-44.2113514872871178
 20
28.4828464188048258
 10
-44.7405184872871189
 20
27.5666264188048302
 10
-35.0429204872871196
 20
21.9679964188048302
 42
-0.0066131255020083
 10
-34.5137524872871495
 20
22.8842164188048258
 10
-44.2113514872871178
 20
28.4828464188048258
  0
LWPOLYLINE
  5
8A
100
AcDbEntity
  8
AreaEngraving
 62
3
420
65280
370
-1
 48
1.0
  6
BYLAYER
100
AcDbPolyline
 90
5
 70
128
 10
43.896451512712872
 20
28.4828464188048258
 10
34.2122915127128806
 20
22.8919764188048163
 42
-0.0066115608445713
 10
34.740941512712908
 20
21.9757464188048743
 10
44.4251015127128994
 20
27.5666264188048018
 10
43.896451512712872
 20
28.4828464188048258
  0
LWPOLYLINE
  5
8B
100
AcDbEntity
  8
AreaEngraving
 62
3
420
65280
370
-1
 48
1.0
  6
BYLAYER
100
AcDbPolyline
 90
5
 70
128
 10
-45.4577974872871096
 20
15.1229364188048407
 10
-45.7316824872871166
 20
14.10129641880485
 10
-38.9093574872871386
 20
12.2729864188048623
 42
-0.006614144830355
 10
-38.6354744872871834
 20
13.2951464188047908
 10
-45.4577974872871096
 20
15.1229364188048407
  0
LWPOLYLINE
  5
8C
100
AcDbEntity
  8
AreaEngraving
 62
3
420
65280
370
-1
 48
1.0
  6
BYLAYER
100
AcDbPolyline
 90
5
 70
128
 10
45.1428915127128789
 20
15.1229364188048407
 10
38.3355515127128683
 20
13.2987564188048282
 42
-0.006611016540262
 10
38.6094415127129196
 20
12.2771164188047806
 10
45.4162515127128472
 20
14.10129641880485
 10
45.1428915127128789
 20
15.1229364188048407
  0
LWPOLYLINE
  5
8D
100
AcDbEntity
  8
AreaEngraving
 62
3
420
65280
370
-1
 48
1.0
  6
BYLAYER
100
AcDbPolyline
 90
6
 70
128
 10
-51.3318474872871207
 20
2.9660564188048397
 10
-51.3318474872871207
 20
1.9087564188048418
 10
-40.1340814872871192
 20
1.9087564188048418
 42
-0.003307292549862
 10
-40.1573314872871094
 20
2.4374064188048123
 42
-0.003307292549864
 10
-40.1340814872871192
 20
2.9660564188046692
 10
-51.3318474872871207
 20
2.9660564188048397
  0
LWPOLYLINE
  5
8E
100
AcDbEntity
  8
AreaEngraving
 62
3
420
65280
370
-1
 48
1.0
  6
BYLAYER
100
AcDbPolyline
 90
6
 70
128
 10
39.834681512712848
 20
2.9660564188047829
 42
-0.003304476883546
 10
39.8426815127128862
 20
2.4374064188052103
 42
-0.0033072788336863
 10
39.8194815127129118
 20
1.9087564188046713
 10
51.0172515127128463
 20
1.9087564188048418
 10
51.0172515127128463
 20
2.9660564188048397
 10
39.8346815127129048
 20
2.9660564188048397
  0
LWPOLYLINE
  5
8F
100
AcDbEntity
  8
AreaEngraving
 62
3
420
65280
370
-1
 48
1.0
  6
BYLAYER
100
AcDbPolyline
 90
6
 70
128
 10
-38.9093484872871045
 20
-7.3981735811951808
 10
-45.7316724872871134
 20
-9.2264835811951684
 10
-45.4577874872871348
 20
-10.2481235811951592
 10
-38.6354654872871208
 20
-8.4203235811951345
 42
-0.0066140844520288
 10
-38.9093484872871045
 20
-7.3981735811951808
 10
-38.9093484872871045
 20
-7.3981735811951808
  0
LWPOLYLINE
  5
90
100
AcDbEntity
  8
AreaEngraving
 62
3
420
65280
370
-1
 48
1.0
  6
BYLAYER
100
AcDbPolyline
 90
5
 70
128
 10
38.5944515127128511
 20
-7.3986835811951437
 42
-0.0066110165402621
 10
38.3205615127128567
 20
-8.4203235811951913
 10
45.1428915127128789
 20
-10.2481235811951592
 10
45.4162515127128472
 20
-9.2264835811951684
 10
38.594451512712908
 20
-7.3986835811951437
  0
LWPOLYLINE
  5
91
100
AcDbEntity
  8
AreaEngraving
 62
3
420
65280
370
-1
 48
1.0
  6
BYLAYER
100
AcDbPolyline
 90
5
 70
128
 10
-35.0429204872871196
 20
-17.0931835811951487
 10
-44.7405184872871189
 20
-22.6918135811951629
 10
-44.2113514872871178
 20
-23.6080335811951727
 10
-34.5137524872871211
 20
-18.0094035811951585
 42
-0.0066131255020083
 10
-35.0429204872871196
 20
-17.0931835811951487
  0
LWPOLYLINE
  5
92
100
AcDbEntity
  8
AreaEngraving
 62
3
420
65280
370
-1
 48
1.0
  6
BYLAYER
100
AcDbPolyline
 90
5
 70
128
 10
34.7280215127128713
 20
-17.0931835811950918
 42
-0.0066131317545044
 10
34.1988515127128494
 20
-18.0094035811951585
 10
43.896451512712872
 20
-23.6080335811951727
 10
44.4251015127128994
 20
-22.6918135811951629
 10
34.7280215127128713
 20
-17.0931835811951487
  0
LWPOLYLINE
  5
93
100
AcDbEntity
  8
AreaEngraving
 62
3
420
65280
370
-1
 48
1.0
  6
BYLAYER
100
AcDbPolyline
 90
5
 70
128
 10
-28.799371487287118
 20
-25.4564935811951614
 10
-33.7938994872871206
 20
-30.4510235811951588
 10
-33.0456274872871063
 20
-31.1987835811951868
 10
-28.0510984872871063
 20
-26.2042535811951893
 42
-0.0066118836727005
 10
-28.7993714872870896
 20
-25.4564935811951614
  0
LWPOLYLINE
  5
94
100
AcDbEntity
  8
AreaEngraving
 62
3
420
65280
370
-1
 48
1.0
  6
BYLAYER
100
AcDbPolyline
 90
5
 70
128
 10
28.4844715127128154
 20
-25.4564935811951614
 42
-0.0066118704081765
 10
27.7362015127128529
 20
-26.2042535811951325
 10
32.7307215127128757
 20
-31.1987835811951868
 10
33.4784815127128752
 20
-30.4510235811951588
 10
28.4844715127128723
 20
-25.4564935811951614
  0
LWPOLYLINE
  5
95
100
AcDbEntity
  8
AreaEngraving
 62
3
420
65280
370
-1
 48
1.0
  6
BYLAYER
100
AcDbPolyline
 90
5
 70
128
 10
-20.6040134872871192
 20
-31.9191535811951894
 10
-26.2026374872871202
 20
-41.6167535811951552
 10
-25.28693148728712
 20
-42.1454035811951826
 10
-19.6883064872871216
 20
-32.4478035811951599
 42
-0.0066087294058223
 10
-20.6040134872870908
 20
-31.9191535811951894
  0
LWPOLYLINE
  5
96
100
AcDbEntity
  8
AreaEngraving
 62
3
420
65280
370
-1
 48
1.0
  6
BYLAYER
100
AcDbPolyline
 90
5
 70
128
 10
20.288591512712884
 20
-31.9191535811951894
 42
-0.0066087456461919
 10
19.3728815127128655
 20
-32.4478035811952168
 10
24.9715115127128797
 20
-42.1454035811951826
 10
25.8877315127128895
 20
-41.6167535811951552
 10
20.288591512712884
 20
-31.9191535811951894
  0
ENDBLK
  5
97
100
AcDbEntity
  8
0
100
AcDbBlockEnd
  0
BLOCK
  5
98
100
AcDbEntity
  8
0
100
AcDbBlockBegin
  2
block 5
 70
0
 10
0.0
 20
0.0
 30
0.0
  3
block 5
  1

  0
LWPOLYLINE
  5
99
100
AcDbEntity
  8
0
 62
256
370
-1
 48
1.0
  6
BYLAYER
100
AcDbPolyline
 90
20
 70
128
 10
-363.1093789999999899
 20
132.2832050000000095
 10
-363.1093789999999899
 20
116.4570330000000098
 10
-382.0058629999999766
 20
116.4570330000000098
 10
-382.0058629999999766
 20
84.8027360000000101
 10
-363.1093789999999899
 20
84.8027360000000101
 10
-363.1093789999999899
 20
-8.9277349999999842
 10
-382.0058629999999766
 20
-8.9277349999999842
 10
-382.0058629999999766
 20
-40.5800749999999937
 10
-363.1093789999999899
 20
-40.5800749999999937
 10
-363.1093789999999899
 20
-56.3769549999999811
 10
-363.1093789999999899
 20
-132.2832050000000095
 10
-274.9199249999999779
 20
-132.2832050000000095
 10
-274.9199249999999779
 20
-56.3769550000000095
 10
-254.4003949999999747
 20
-56.3769550000000095
 10
-226.7734449999999811
 20
-132.2832050000000095
 10
-138.5839849999999842
 20
-132.2832050000000095
 10
-176.8964849999999842
 20
-27.0175749999999937
 42
0.1923579134144613
 10
-150.8671949999999242
 20
37.9531270000090473
 42
0.4142131276425501
 10
-245.1972649974722458
 20
132.2832049999999811
 10
-363.1093789999999899
 20
132.2832050000000095
  0
LWPOLYLINE
  5
9A
100
AcDbEntity
  8
0
 62
256
370
-1
 48
1.0
  6
BYLAYER
100
AcDbPolyline
 90
6
 70
128
 10
-274.9199249999999779
 20
68.9921890000000104
 10
-253.1074249999999779
 20
68.9921890000000104
 42
-0.4142108826965076
 10
-222.0703149999999937
 20
37.9531269999891805
 42
-0.4141924816972828
 10
-253.1074249999999779
 20
6.91601500000003
 10
-274.9199249999999779
 20
6.9160150000000158
 10
-274.9199249999999779
 20
68.9921890000000104
  0
LWPOLYLINE
  5
9B
100
AcDbEntity
  8
0
 62
256
370
-1
 48
1.0
  6
BYLAYER
100
AcDbPolyline
 90
5
 70
128
 10
56.2519449999999779
 20
132.2832050000000095
 10
4.0527350000000411
 20
-11.1347649999999874
 10
48.1464849999999842
 20
-132.2832050000000095
 10
100.3476550000000316
 20
11.1347649999999874
 10
56.2519449999999779
 20
132.2832050000000095
  0
LWPOLYLINE
  5
9C
100
AcDbEntity
  8
0
 62
256
370
-1
 48
1.0
  6
BYLAYER
100
AcDbPolyline
 90
5
 70
128
 10
-136.3359449999999811
 20
132.2832050000000095
 10
-40.0410149999999589
 20
-132.2832050000000095
 10
48.1464849999999842
 20
-132.2832050000000095
 10
-48.1464849999999842
 20
132.2832050000000095
 10
-136.3359449999999811
 20
132.2832050000000095
  0
LWPOLYLINE
  5
9D
100
AcDbEntity
  8
0
 62
256
370
-1
 48
1.0
  6
BYLAYER
100
AcDbPolyline
 90
8
 70
128
 10
56.2519449999999779
 20
132.2832050000000095
 10
152.546875
 20
-132.2832050000000095
 10
240.7363250000000789
 20
-132.2832050000000095
 10
337.0312450000001263
 20
132.2832050000000095
 10
248.8417950000000474
 20
132.2832050000000095
 10
196.640625
 20
-11.1347649999999874
 10
144.4414050000000316
 20
132.2832050000000095
 10
56.2519449999999779
 20
132.2832050000000095
  0
ENDBLK
  5
9E
100
AcDbEntity
  8
0
100
AcDbBlockEnd
  0
BLOCK
  5
9F
100
AcDbEntity
  8
0
100
AcDbBlockBegin
  2
RW_Logo_Trans
 70
0
 10
0.0
 20
0.0
 30
0.0
  3
RW_Logo_Trans
  1

  0
LWPOLYLINE
  5
A0
100
AcDbEntity
  8
0
 62
256
370
-1
 48
1.0
  6
BYLAYER
100
AcDbPolyline
 90
20
 70
128
 10
56.6914060000000006
 20
0.0
 10
56.6914060000000006
 20
-15.8261719999999997
 10
37.7949219999999997
 20
-15.8261719999999997
 10
37.7949219999999997
 20
-47.4804689999999994
 10
56.6914060000000006
 20
-47.4804689999999994
 10
56.6914060000000006
 20
-141.2109399999999937
 10
37.7949219999999997
 20
-141.2109399999999937
 10
37.7949219999999997
 20
-172.8632800000000032
 10
56.6914060000000006
 20
-172.8632800000000032
 10
56.6914060000000006
 20
-188.6601599999999905
 10
56.6914060000000006
 20
-264.566410000000019
 10
144.8808599999999842
 20
-264.566410000000019
 10
144.8808599999999842
 20
-188.660160000000019
 10
165.4003899999999874
 20
-188.660160000000019
 10
193.027339999999981
 20
-264.566410000000019
 10
281.2167999999999779
 20
-264.566410000000019
 10
242.9043000000000063
 20
-159.3007800000000032
 42
0.1923579134144613
 10
268.9335900000000379
 20
-94.3300779999909622
 42
0.4142131276425501
 10
174.6035200025277163
 20
-0.0000000000000284
 10
56.6914060000000006
 20
0.0
  0
LWPOLYLINE
  5
A1
100
AcDbEntity
  8
0
 62
256
370
-1
 48
1.0
  6
BYLAYER
100
AcDbPolyline
 90
6
 70
128
 10
144.8808599999999842
 20
-63.2910159999999991
 10
166.6933599999999842
 20
-63.2910159999999991
 42
-0.4142108826965076
 10
197.7304699999999684
 20
-94.330078000010829
 42
-0.4141924816972828
 10
166.6933599999999842
 20
-125.3671899999999795
 10
144.8808599999999842
 20
-125.3671899999999937
 10
144.8808599999999842
 20
-63.2910159999999991
  0
LWPOLYLINE
  5
A2
100
AcDbEntity
  8
0
 62
256
370
-1
 48
1.0
  6
BYLAYER
100
AcDbPolyline
 90
5
 70
128
 10
476.0527299999999968
 20
0.0
 10
423.8535200000000032
 20
-143.4179699999999968
 10
467.9472700000000032
 20
-264.566410000000019
 10
520.1484400000000505
 20
-121.1484400000000221
 10
476.0527299999999968
 20
0.0
  0
LWPOLYLINE
  5
A3
100
AcDbEntity
  8
0
 62
256
370
-1
 48
1.0
  6
BYLAYER
100
AcDbPolyline
 90
5
 70
128
 10
283.464839999999981
 20
0.0
 10
379.7597700000000032
 20
-264.566410000000019
 10
467.9472700000000032
 20
-264.566410000000019
 10
371.6542999999999779
 20
0.0
 10
283.464839999999981
 20
0.0
  0
LWPOLYLINE
  5
A4
100
AcDbEntity
  8
0
 62
256
370
-1
 48
1.0
  6
BYLAYER
100
AcDbPolyline
 90
8
 70
128
 10
476.0527299999999968
 20
0.0
 10
572.347660000000019
 20
-264.566410000000019
 10
660.5371099999999842
 20
-264.566410000000019
 10
756.8320300000000316
 20
0.0
 10
668.6425799999999526
 20
0.0
 10
616.441410000000019
 20
-143.4179699999999968
 10
564.2421900000000505
 20
0.0
 10
476.0527299999999968
 20
0.0
  0
ENDBLK
  5
A5
100
AcDbEntity
  8
0
100
AcDbBlockEnd
  0
BLOCK
  5
A6
100
AcDbEntity
  8
0
100
AcDbBlockBegin
  2
block 2
 70
0
 10
0.0
 20
0.0
 30
0.0
  3
block 2
  1

  0
INSERT
  5
A7
100
AcDbEntity
  8
VectorEngraving
 62
256
370
-1
 48
1.0
  6
BYLAYER
100
AcDbBlockReference
  2
block 1
 10
-269.800785000000019
 20
132.2832050000000095
 30
0.0
  0
ENDBLK
  5
A8
100
AcDbEntity
  8
0
100
AcDbBlockEnd
  0
BLOCK
  5
A9
100
AcDbEntity
  8
0
100
AcDbBlockBegin
  2
LargePotGauge
 70
0
 10
0.0
 20
0.0
 30
0.0
  3
LargePotGauge
  1

  0
LWPOLYLINE
  5
AA
100
AcDbEntity
  8
0
 62
256
370
-1
 48
1.0
  6
BYLAYER
100
AcDbPolyline
 90
6
 70
128
 10
104.4709399999999988
 20
-100.6212699999999955
 10
104.4709399999999988
 20
-111.8190299999999979
 42
-0.0033072788336863
 10
104.9995899999999835
 20
-111.7958299999999809
 42
-0.0033077266184061
 10
105.5287599999999912
 20
-111.8038299999999481
 10
105.5287599999999912
 20
-100.6212699999999955
 10
104.4709399999999988
 20
-100.6212699999999955
  0
LWPOLYLINE
  5
AB
100
AcDbEntity
  8
0
 62
256
370
-1
 48
1.0
  6
BYLAYER
100
AcDbPolyline
 90
5
 70
128
 10
93.3357019999999977
 20
-106.2219599999999957
 10
92.3140590000000003
 20
-106.4958400000000012
 10
94.1418529999999976
 20
-113.318160000000006
 42
-0.0066141399769513
 10
95.1640129999999687
 20
-113.0442799999999863
 10
93.3357019999999977
 20
-106.2219599999999957
  0
LWPOLYLINE
  5
AC
100
AcDbEntity
  8
0
 62
256
370
-1
 48
1.0
  6
BYLAYER
100
AcDbPolyline
 90
5
 70
128
 10
116.6640000000000015
 20
-106.2219599999999957
 10
114.8398200000000031
 20
-113.0298099999999977
 42
-0.0066101756053528
 10
115.8614599999999371
 20
-113.3031799999999691
 10
117.6856400000000065
 20
-106.4958400000000012
 10
116.6640000000000015
 20
-106.2219599999999957
  0
LWPOLYLINE
  5
AD
100
AcDbEntity
  8
0
 62
256
370
-1
 48
1.0
  6
BYLAYER
100
AcDbPolyline
 90
5
 70
128
 10
79.8703739999999982
 20
-107.2131100000000004
 10
78.9546679999999981
 20
-107.7417599999999993
 10
84.5538090000000011
 20
-117.4393599999999935
 42
-0.006608723992369
 10
85.4695150000000012
 20
-116.9107099999999804
 10
79.8703739999999982
 20
-107.2131100000000004
  0
LWPOLYLINE
  5
AE
100
AcDbEntity
  8
0
 62
256
370
-1
 48
1.0
  6
BYLAYER
100
AcDbPolyline
 90
5
 70
128
 10
130.1288099999999872
 20
-107.2131100000000004
 10
124.5379299999999887
 20
-116.897270000000006
 42
-0.0066087456461917
 10
125.4536399999999077
 20
-117.4259199999999908
 10
131.045029999999997
 20
-107.7417599999999993
 10
130.1288099999999872
 20
-107.2131100000000004
  0
LWPOLYLINE
  5
AF
100
AcDbEntity
  8
0
 62
256
370
-1
 48
1.0
  6
BYLAYER
100
AcDbPolyline
 90
5
 70
128
 10
72.1116739999999936
 20
-118.1597299999999962
 10
71.3633999999999986
 20
-118.9074899999999957
 10
76.3579270000000037
 20
-123.9020199999999932
 42
-0.0066118880942146
 10
77.1062009999999702
 20
-123.1542600000000078
 10
72.1116739999999936
 20
-118.1597299999999962
  0
LWPOLYLINE
  5
B0
100
AcDbEntity
  8
0
 62
256
370
-1
 48
1.0
  6
BYLAYER
100
AcDbPolyline
 90
5
 70
128
 10
137.8880199999999832
 20
-118.1597299999999962
 10
132.9048699999999883
 20
-123.1428899999999942
 42
-0.0066118262234246
 10
133.6526199999998994
 20
-123.8911599999999709
 10
138.6357799999999827
 20
-118.9074899999999957
 10
137.8880199999999832
 20
-118.1597299999999962
  0
LWPOLYLINE
  5
B1
100
AcDbEntity
  8
0
 62
256
370
-1
 48
1.0
  6
BYLAYER
100
AcDbPolyline
 90
5
 70
128
 10
60.9459469999999897
 20
-125.750479999999996
 10
60.4167799999999886
 20
-126.6666999999999916
 10
70.1143779999999879
 20
-132.2653300000000058
 42
-0.0066131255020083
 10
70.6435459999999722
 20
-131.349109999999996
 10
60.9459469999999897
 20
-125.750479999999996
  0
LWPOLYLINE
  5
B2
100
AcDbEntity
  8
0
 62
256
370
-1
 48
1.0
  6
BYLAYER
100
AcDbPolyline
 90
5
 70
128
 10
149.0537499999999795
 20
-125.750479999999996
 10
139.3695899999999881
 20
-131.3413500000000056
 42
-0.0066115608445713
 10
139.8982400000000155
 20
-132.2575799999999617
 10
149.5823999999999785
 20
-126.6667000000000201
 10
149.0537499999999795
 20
-125.750479999999996
  0
LWPOLYLINE
  5
B3
100
AcDbEntity
  8
0
 62
256
370
-1
 48
1.0
  6
BYLAYER
100
AcDbPolyline
 90
5
 70
128
 10
59.6995009999999837
 20
-139.1103899999999953
 10
59.4256159999999838
 20
-140.1320299999999861
 10
66.2479409999999831
 20
-141.9603399999999738
 42
-0.006614144830355
 10
66.5218239999999241
 20
-140.9381800000000169
 10
59.6995009999999837
 20
-139.1103899999999953
  0
LWPOLYLINE
  5
B4
100
AcDbEntity
  8
0
 62
256
370
-1
 48
1.0
  6
BYLAYER
100
AcDbPolyline
 90
5
 70
128
 10
150.3001899999999864
 20
-139.1103899999999953
 10
143.4928499999999758
 20
-140.9345700000000079
 42
-0.006611016540262
 10
143.7667399999999986
 20
-141.9562100000000271
 10
150.5735499999999831
 20
-140.1320299999999861
 10
150.3001899999999864
 20
-139.1103899999999953
  0
LWPOLYLINE
  5
B5
100
AcDbEntity
  8
0
 62
256
370
-1
 48
1.0
  6
BYLAYER
100
AcDbPolyline
 90
6
 70
128
 10
53.8254509999999868
 20
-151.2672699999999963
 10
53.8254509999999868
 20
-152.3245699999999943
 10
65.0232169999999883
 20
-152.3245699999999943
 42
-0.003307292549862
 10
64.9999669999999981
 20
-151.7959200000000237
 42
-0.003307292549864
 10
65.0232169999999883
 20
-151.2672700000001669
 10
53.8254509999999868
 20
-151.2672699999999963
  0
LWPOLYLINE
  5
B6
100
AcDbEntity
  8
0
 62
256
370
-1
 48
1.0
  6
BYLAYER
100
AcDbPolyline
 90
6
 70
128
 10
144.9919799999999555
 20
-151.2672700000000532
 42
-0.003304476883546
 10
144.9999799999999937
 20
-151.7959199999996258
 42
-0.0033072788336863
 10
144.9767800000000193
 20
-152.3245700000001364
 10
156.1745499999999822
 20
-152.3245699999999943
 10
156.1745499999999822
 20
-151.2672699999999963
 10
144.9919799999999839
 20
-151.2672699999999963
  0
LWPOLYLINE
  5
B7
100
AcDbEntity
  8
0
 62
256
370
-1
 48
1.0
  6
BYLAYER
100
AcDbPolyline
 90
6
 70
128
 10
66.2479499999999888
 20
-161.6314999999999884
 10
59.425625999999987
 20
-163.4598099999999761
 10
59.6995109999999869
 20
-164.4814499999999668
 10
66.5218329999999867
 20
-162.6536499999999705
 42
-0.0066140844520288
 10
66.247950000000003
 20
-161.6314999999999884
 10
66.2479499999999888
 20
-161.6314999999999884
  0
LWPOLYLINE
  5
B8
100
AcDbEntity
  8
0
 62
256
370
-1
 48
1.0
  6
BYLAYER
100
AcDbPolyline
 90
5
 70
128
 10
143.7517499999999586
 20
-161.6320099999999798
 42
-0.0066110165402621
 10
143.4778599999999642
 20
-162.653649999999999
 10
150.3001899999999864
 20
-164.4814499999999668
 10
150.5735499999999831
 20
-163.4598099999999761
 10
143.751749999999987
 20
-161.6320099999999798
  0
LWPOLYLINE
  5
B9
100
AcDbEntity
  8
0
 62
256
370
-1
 48
1.0
  6
BYLAYER
100
AcDbPolyline
 90
5
 70
128
 10
70.1143779999999879
 20
-171.3265099999999848
 10
60.4167799999999886
 20
-176.925139999999999
 10
60.9459469999999897
 20
-177.8413600000000088
 10
70.6435459999999864
 20
-172.2427299999999946
 42
-0.0066131255020083
 10
70.1143779999999879
 20
-171.3265099999999848
  0
LWPOLYLINE
  5
BA
100
AcDbEntity
  8
0
 62
256
370
-1
 48
1.0
  6
BYLAYER
100
AcDbPolyline
 90
5
 70
128
 10
139.8853199999999788
 20
-171.3265099999999279
 42
-0.0066131317545044
 10
139.3561499999999569
 20
-172.2427299999999661
 10
149.0537499999999795
 20
-177.8413600000000088
 10
149.5823999999999785
 20
-176.925139999999999
 10
139.8853199999999788
 20
-171.3265099999999848
  0
LWPOLYLINE
  5
BB
100
AcDbEntity
  8
0
 62
256
370
-1
 48
1.0
  6
BYLAYER
100
AcDbPolyline
 90
5
 70
128
 10
76.3579269999999894
 20
-179.6898199999999974
 10
71.3633989999999869
 20
-184.6843499999999949
 10
72.111670999999987
 20
-185.4321099999999944
 10
77.106199999999987
 20
-180.437579999999997
 42
-0.0066118836727005
 10
76.3579270000000179
 20
-179.689819999999969
  0
LWPOLYLINE
  5
BC
100
AcDbEntity
  8
0
 62
256
370
-1
 48
1.0
  6
BYLAYER
100
AcDbPolyline
 90
5
 70
128
 10
133.6417699999999229
 20
-179.6898199999999974
 42
-0.0066118704081765
 10
132.8934999999999604
 20
-180.4375799999999685
 10
137.8880199999999832
 20
-185.4321099999999944
 10
138.6357799999999827
 20
-184.6843499999999949
 10
133.6417699999999797
 20
-179.6898199999999974
  0
LWPOLYLINE
  5
BD
100
AcDbEntity
  8
0
 62
256
370
-1
 48
1.0
  6
BYLAYER
100
AcDbPolyline
 90
5
 70
128
 10
84.5532849999999883
 20
-186.1524799999999971
 10
78.9546609999999873
 20
-195.8500799999999913
 10
79.8703669999999875
 20
-196.3787299999999902
 10
85.4689919999999859
 20
-186.681129999999996
 42
-0.0066087294058223
 10
84.5532850000000025
 20
-186.1524799999999971
  0
LWPOLYLINE
  5
BE
100
AcDbEntity
  8
0
 62
256
370
-1
 48
1.0
  6
BYLAYER
100
AcDbPolyline
 90
5
 70
128
 10
125.4458899999999915
 20
-186.1524800000000255
 42
-0.0066087456461919
 10
124.530179999999973
 20
-186.6811300000000244
 10
130.1288099999999872
 20
-196.3787299999999902
 10
131.045029999999997
 20
-195.8500799999999913
 10
125.4458899999999915
 20
-186.1524799999999971
  0
ENDBLK
  5
BF
100
AcDbEntity
  8
0
100
AcDbBlockEnd
  0
BLOCK
  5
C0
100
AcDbEntity
  8
0
100
AcDbBlockBegin
  2
block 9
 70
0
 10
0.0
 20
0.0
 30
0.0
  3
block 9
  1

  0
LWPOLYLINE
  5
C1
100
AcDbEntity
  8
AreaEngraving
 62
3
420
65280
370
-1
 48
1.0
  6
BYLAYER
100
AcDbPolyline
 90
6
 70
128
 10
-0.6863584872871513
 20
51.1120564188048405
 10
-0.6863584872871513
 20
39.9142964188048381
 42
-0.0033072788336863
 10
-0.1577084872871524
 20
39.9374964188048551
 42
-0.0033077266184061
 10
0.3714615127128411
 20
39.929496418804888
 10
0.3714615127128411
 20
51.1120564188048405
 10
-0.6863584872871513
 20
51.1120564188048405
  0
LWPOLYLINE
  5
C2
100
AcDbEntity
  8
AreaEngraving
 62
3
420
65280
370
-1
 48
1.0
  6
BYLAYER
100
AcDbPolyline
 90
5
 70
128
 10
-11.8215964872871382
 20
45.5113664188048404
 10
-12.8432394872871498
 20
45.2374864188048349
 10
-11.0154454872871383
 20
38.4151664188048301
 42
-0.0066141399769513
 10
-9.9932854872871815
 20
38.6890464188048497
 10
-11.8215964872871382
 20
45.5113664188048404
  0
LWPOLYLINE
  5
C3
100
AcDbEntity
  8
AreaEngraving
 62
3
420
65280
370
-1
 48
1.0
  6
BYLAYER
100
AcDbPolyline
 90
5
 70
128
 10
11.5067015127128514
 20
45.5113664188048404
 10
9.6825215127128672
 20
38.7035164188048384
 42
-0.0066101756053528
 10
10.7041615127128011
 20
38.4301464188048669
 10
12.5283415127128706
 20
45.2374864188048349
 10
11.5067015127128514
 20
45.5113664188048404
  0
LWPOLYLINE
  5
C4
100
AcDbEntity
  8
AreaEngraving
 62
3
420
65280
370
-1
 48
1.0
  6
BYLAYER
100
AcDbPolyline
 90
5
 70
128
 10
-25.2869244872871377
 20
44.5202164188048357
 10
-26.2026304872871378
 20
43.9915664188048368
 10
-20.6034894872871348
 20
34.2939664188048425
 42
-0.006608723992369
 10
-19.6877834872871347
 20
34.8226164188048557
 10
-25.2869244872871377
 20
44.5202164188048357
  0
LWPOLYLINE
  5
C5
100
AcDbEntity
  8
AreaEngraving
 62
3
420
65280
370
-1
 48
1.0
  6
BYLAYER
100
AcDbPolyline
 90
5
 70
128
 10
24.9715115127128513
 20
44.5202164188048357
 10
19.3806315127128528
 20
34.8360564188048301
 42
-0.0066087456461917
 10
20.2963415127127575
 20
34.3074064188048453
 10
25.8877315127128611
 20
43.9915664188048368
 10
24.9715115127128513
 20
44.5202164188048357
  0
LWPOLYLINE
  5
C6
100
AcDbEntity
  8
AreaEngraving
 62
3
420
65280
370
-1
 48
1.0
  6
BYLAYER
100
AcDbPolyline
 90
5
 70
128
 10
-33.0456244872871423
 20
33.5735964188048399
 10
-33.7938984872871231
 20
32.8258364188048404
 10
-28.799371487287118
 20
27.8313064188048429
 42
-0.0066118880942146
 10
-28.0510974872871657
 20
28.5790664188048282
 10
-33.0456244872871423
 20
33.5735964188048399
  0
LWPOLYLINE
  5
C7
100
AcDbEntity
  8
AreaEngraving
 62
3
420
65280
370
-1
 48
1.0
  6
BYLAYER
100
AcDbPolyline
 90
5
 70
128
 10
32.7307215127128472
 20
33.5735964188048399
 10
27.7475715127128524
 20
28.5904364188048419
 42
-0.0066118262234246
 10
28.4953215127127635
 20
27.8421664188048652
 10
33.4784815127128468
 20
32.8258364188048404
 10
32.7307215127128472
 20
33.5735964188048399
  0
LWPOLYLINE
  5
C8
100
AcDbEntity
  8
AreaEngraving
 62
3
420
65280
370
-1
 48
1.0
  6
BYLAYER
100
AcDbPolyline
 90
5
 70
128
 10
-44.2113514872871463
 20
25.98284641880484
 10
-44.7405184872871473
 20
25.0666264188048444
 10
-35.042920487287148
 20
19.4679964188048444
 42
-0.0066131255020083
 10
-34.5137524872871779
 20
20.38421641880484
 10
-44.2113514872871463
 20
25.98284641880484
  0
LWPOLYLINE
  5
C9
100
AcDbEntity
  8
AreaEngraving
 62
3
420
65280
370
-1
 48
1.0
  6
BYLAYER
100
AcDbPolyline
 90
5
 70
128
 10
43.8964515127128436
 20
25.98284641880484
 10
34.2122915127128522
 20
20.3919764188048305
 42
-0.0066115608445713
 10
34.7409415127128796
 20
19.4757464188048885
 10
44.425101512712871
 20
25.066626418804816
 10
43.8964515127128436
 20
25.98284641880484
  0
LWPOLYLINE
  5
CA
100
AcDbEntity
  8
AreaEngraving
 62
3
420
65280
370
-1
 48
1.0
  6
BYLAYER
100
AcDbPolyline
 90
5
 70
128
 10
-45.457797487287138
 20
12.622936418804855
 10
-45.731682487287145
 20
11.6012964188048642
 10
-38.909357487287167
 20
9.7729864188048765
 42
-0.006614144830355
 10
-38.6354744872872118
 20
10.795146418804805
 10
-45.457797487287138
 20
12.622936418804855
  0
LWPOLYLINE
  5
CB
100
AcDbEntity
  8
AreaEngraving
 62
3
420
65280
370
-1
 48
1.0
  6
BYLAYER
100
AcDbPolyline
 90
5
 70
128
 10
45.1428915127128505
 20
12.622936418804855
 10
38.3355515127128399
 20
10.7987564188048424
 42
-0.006611016540262
 10
38.6094415127128912
 20
9.7771164188047948
 10
45.4162515127128188
 20
11.6012964188048642
 10
45.1428915127128505
 20
12.622936418804855
  0
LWPOLYLINE
  5
CC
100
AcDbEntity
  8
AreaEngraving
 62
3
420
65280
370
-1
 48
1.0
  6
BYLAYER
100
AcDbPolyline
 90
6
 70
128
 10
-51.3318474872871491
 20
0.4660564188048539
 10
-51.3318474872871491
 20
-0.591243581195144
 10
-40.1340814872871476
 20
-0.591243581195144
 42
-0.003307292549862
 10
-40.1573314872871379
 20
-0.0625935811951734
 42
-0.003307292549864
 10
-40.1340814872871476
 20
0.4660564188046834
 10
-51.3318474872871491
 20
0.4660564188048539
  0
LWPOLYLINE
  5
CD
100
AcDbEntity
  8
AreaEngraving
 62
3
420
65280
370
-1
 48
1.0
  6
BYLAYER
100
AcDbPolyline
 90
6
 70
128
 10
39.8346815127128195
 20
0.4660564188047971
 42
-0.003304476883546
 10
39.8426815127128577
 20
-0.0625935811947755
 42
-0.0033072788336863
 10
39.8194815127128834
 20
-0.5912435811953145
 10
51.0172515127128179
 20
-0.591243581195144
 10
51.0172515127128179
 20
0.4660564188048539
 10
39.8346815127128764
 20
0.4660564188048539
  0
LWPOLYLINE
  5
CE
100
AcDbEntity
  8
AreaEngraving
 62
3
420
65280
370
-1
 48
1.0
  6
BYLAYER
100
AcDbPolyline
 90
6
 70
128
 10
-38.9093484872871329
 20
-9.8981735811951665
 10
-45.7316724872871418
 20
-11.7264835811951542
 10
-45.4577874872871632
 20
-12.748123581195145
 10
-38.6354654872871492
 20
-10.9203235811951203
 42
-0.0066140844520288
 10
-38.9093484872871329
 20
-9.8981735811951665
 10
-38.9093484872871329
 20
-9.8981735811951665
  0
LWPOLYLINE
  5
CF
100
AcDbEntity
  8
AreaEngraving
 62
3
420
65280
370
-1
 48
1.0
  6
BYLAYER
100
AcDbPolyline
 90
5
 70
128
 10
38.5944515127128227
 20
-9.8986835811951295
 42
-0.0066110165402621
 10
38.3205615127128283
 20
-10.9203235811951771
 10
45.1428915127128505
 20
-12.748123581195145
 10
45.4162515127128188
 20
-11.7264835811951542
 10
38.5944515127128795
 20
-9.8986835811951295
  0
LWPOLYLINE
  5
D0
100
AcDbEntity
  8
AreaEngraving
 62
3
420
65280
370
-1
 48
1.0
  6
BYLAYER
100
AcDbPolyline
 90
5
 70
128
 10
-35.042920487287148
 20
-19.5931835811951345
 10
-44.7405184872871473
 20
-25.1918135811951487
 10
-44.2113514872871463
 20
-26.1080335811951585
 10
-34.5137524872871495
 20
-20.5094035811951443
 42
-0.0066131255020083
 10
-35.042920487287148
 20
-19.5931835811951345
  0
LWPOLYLINE
  5
D1
100
AcDbEntity
  8
AreaEngraving
 62
3
420
65280
370
-1
 48
1.0
  6
BYLAYER
100
AcDbPolyline
 90
5
 70
128
 10
34.7280215127128429
 20
-19.5931835811950776
 42
-0.0066131317545044
 10
34.198851512712821
 20
-20.5094035811951443
 10
43.8964515127128436
 20
-26.1080335811951585
 10
44.425101512712871
 20
-25.1918135811951487
 10
34.7280215127128429
 20
-19.5931835811951345
  0
LWPOLYLINE
  5
D2
100
AcDbEntity
  8
AreaEngraving
 62
3
420
65280
370
-1
 48
1.0
  6
BYLAYER
100
AcDbPolyline
 90
5
 70
128
 10
-28.7993714872871465
 20
-27.9564935811951472
 10
-33.793899487287149
 20
-32.9510235811951588
 10
-33.0456274872871347
 20
-33.6987835811951868
 10
-28.0510984872871347
 20
-28.7042535811951893
 42
-0.0066118836727005
 10
-28.799371487287118
 20
-27.9564935811951472
  0
LWPOLYLINE
  5
D3
100
AcDbEntity
  8
AreaEngraving
 62
3
420
65280
370
-1
 48
1.0
  6
BYLAYER
100
AcDbPolyline
 90
5
 70
128
 10
28.484471512712787
 20
-27.9564935811951472
 42
-0.0066118704081765
 10
27.7362015127128245
 20
-28.7042535811951325
 10
32.7307215127128472
 20
-33.6987835811951868
 10
33.4784815127128468
 20
-32.9510235811951588
 10
28.4844715127128438
 20
-27.9564935811951472
  0
LWPOLYLINE
  5
D4
100
AcDbEntity
  8
AreaEngraving
 62
3
420
65280
370
-1
 48
1.0
  6
BYLAYER
100
AcDbPolyline
 90
5
 70
128
 10
-20.6040134872871477
 20
-34.4191535811951894
 10
-26.2026374872871486
 20
-44.1167535811951552
 10
-25.2869314872871485
 20
-44.6454035811951826
 10
-19.68830648728715
 20
-34.9478035811951599
 42
-0.0066087294058223
 10
-20.6040134872871192
 20
-34.4191535811951894
  0
LWPOLYLINE
  5
D5
100
AcDbEntity
  8
AreaEngraving
 62
3
420
65280
370
-1
 48
1.0
  6
BYLAYER
100
AcDbPolyline
 90
5
 70
128
 10
20.2885915127128555
 20
-34.4191535811951894
 42
-0.0066087456461919
 10
19.3728815127128371
 20
-34.9478035811952168
 10
24.9715115127128513
 20
-44.6454035811951826
 10
25.8877315127128611
 20
-44.1167535811951552
 10
20.2885915127128555
 20
-34.4191535811951894
  0
ENDBLK
  5
D6
100
AcDbEntity
  8
0
100
AcDbBlockEnd
  0
BLOCK
  5
D7
100
AcDbEntity
  8
0
100
AcDbBlockBegin
  2
SmallPotGauge
 70
0
 10
0.0
 20
0.0
 30
0.0
  3
SmallPotGauge
  1

  0
LWPOLYLINE
  5
D8
100
AcDbEntity
  8
0
 62
256
370
-1
 48
1.0
  6
BYLAYER
100
AcDbPolyline
 90
6
 70
128
 10
104.8679000000000059
 20
-139.9265100000000075
 10
104.8679000000000059
 20
-141.6826000000000079
 42
-0.0094312964636997
 10
104.9997900000000044
 20
-141.6765999999999792
 42
-0.0094282736998003
 10
105.1317400000000077
 20
-141.6795999999999935
 10
105.1317400000000077
 20
-139.926809999999989
 10
104.8679000000000059
 20
-139.9265100000000075
  0
LWPOLYLINE
  5
D9
100
AcDbEntity
  8
0
 62
256
370
-1
 48
1.0
  6
BYLAYER
100
AcDbPolyline
 90
5
 70
128
 10
102.4890800000000013
 20
-140.5638900000000149
 10
102.2605999999999966
 20
-140.6958300000000008
 10
103.137360000000001
 20
-142.2144000000000119
 42
-0.018850642653673
 10
103.3667400000000072
 20
-142.0840800000000002
 10
102.4890800000000013
 20
-140.5638900000000149
  0
LWPOLYLINE
  5
DA
100
AcDbEntity
  8
0
 62
256
370
-1
 48
1.0
  6
BYLAYER
100
AcDbPolyline
 90
5
 70
128
 10
107.5105999999999966
 20
-140.5638900000000149
 10
106.6341099999999926
 20
-142.0820000000000221
 42
-0.0188531870154901
 10
106.8627299999999991
 20
-142.2137200000000234
 10
107.7390800000000013
 20
-140.6958300000000293
 10
107.5105999999999966
 20
-140.5638900000000149
  0
LWPOLYLINE
  5
DB
100
AcDbEntity
  8
0
 62
256
370
-1
 48
1.0
  6
BYLAYER
100
AcDbPolyline
 90
5
 70
128
 10
100.5191599999999994
 20
-142.4372700000000123
 10
100.3872599999999977
 20
-142.6657500000000027
 10
101.9074099999999987
 20
-143.5434099999999944
 42
-0.0188520557002934
 10
102.0377699999999948
 20
-143.3140300000000025
 10
100.5191599999999994
 20
-142.4372700000000123
  0
LWPOLYLINE
  5
DC
100
AcDbEntity
  8
0
 62
256
370
-1
 48
1.0
  6
BYLAYER
100
AcDbPolyline
 90
5
 70
128
 10
109.4805199999999985
 20
-142.4372700000000123
 10
107.9625800000000027
 20
-143.3136200000000144
 42
-0.0188549721058722
 10
108.0943500000000483
 20
-143.5422400000000209
 10
109.6124100000000112
 20
-142.6657500000000312
 10
109.4805199999999985
 20
-142.4372700000000123
  0
LWPOLYLINE
  5
DD
100
AcDbEntity
  8
0
 62
256
370
-1
 48
1.0
  6
BYLAYER
100
AcDbPolyline
 90
6
 70
128
 10
99.7497970000000009
 20
-145.0446100000000058
 10
99.7497970000000009
 20
-145.3084499999999935
 10
101.5059300000000064
 20
-145.3084499999999935
 42
-0.0094348651562602
 10
101.4999299999999778
 20
-145.1765100000000075
 42
-0.00943201020193
 10
101.5059299999999922
 20
-145.0446100000000058
 10
99.7497970000000009
 20
-145.0446100000000058
  0
LWPOLYLINE
  5
DE
100
AcDbEntity
  8
0
 62
256
370
-1
 48
1.0
  6
BYLAYER
100
AcDbPolyline
 90
6
 70
128
 10
108.4970499999999873
 20
-145.0446100000000058
 42
-0.009424702242363
 10
108.5000499999999874
 20
-145.1765099999999222
 42
-0.0094348651562611
 10
108.4940500000000156
 20
-145.3084499999999935
 10
110.2501400000000018
 20
-145.3084499999999935
 10
110.2501400000000018
 20
-145.0446100000000058
 10
108.4970500000000015
 20
-145.0446100000000058
  0
LWPOLYLINE
  5
DF
100
AcDbEntity
  8
0
 62
256
370
-1
 48
1.0
  6
BYLAYER
100
AcDbPolyline
 90
5
 70
128
 10
108.0922199999999975
 20
-146.8095600000000047
 42
-0.0188551641205852
 10
107.9618600000000015
 20
-147.0389900000000125
 10
109.4805199999999985
 20
-147.9157500000000027
 10
109.612409999999997
 20
-147.6872700000000123
 10
108.0922199999999975
 20
-146.8095600000000047
  0
LWPOLYLINE
  5
E0
100
AcDbEntity
  8
0
 62
256
370
-1
 48
1.0
  6
BYLAYER
100
AcDbPolyline
 90
5
 70
128
 10
101.9074099999999987
 20
-146.8096099999999922
 10
100.3872599999999977
 20
-147.6872699999999838
 10
100.5191599999999994
 20
-147.9157499999999743
 10
102.0377699999999948
 20
-147.0389899999999841
 42
-0.0188520557002923
 10
101.9074099999999845
 20
-146.8096099999999922
  0
LWPOLYLINE
  5
E1
100
AcDbEntity
  8
0
 62
256
370
-1
 48
1.0
  6
BYLAYER
100
AcDbPolyline
 90
5
 70
128
 10
106.8623199999999969
 20
-148.1385799999999904
 42
-0.0188520557002944
 10
106.6329399999999907
 20
-148.2689399999999864
 10
107.5105999999999966
 20
-149.7891300000000001
 10
107.7390800000000013
 20
-149.6571900000000142
 10
106.8623199999999969
 20
-148.1385799999999904
  0
LWPOLYLINE
  5
E2
100
AcDbEntity
  8
0
 62
256
370
-1
 48
1.0
  6
BYLAYER
100
AcDbPolyline
 90
6
 70
128
 10
103.137360000000001
 20
-148.1386200000000031
 10
102.2605999999999966
 20
-149.6571900000000142
 10
102.4890800000000013
 20
-149.7891300000000001
 10
103.3667400000000072
 20
-148.2689399999999864
 42
-0.0188506426536739
 10
103.137360000000001
 20
-148.1386199999999747
 10
103.137360000000001
 20
-148.1386200000000031
  0
ENDBLK
  5
E3
100
AcDbEntity
  8
0
100
AcDbBlockEnd
  0
BLOCK
  5
E4
100
AcDbEntity
  8
0
100
AcDbBlockBegin
  2
block 1
 70
0
 10
0.0
 20
0.0
 30
0.0
  3
block 1
  1

  0
ENDBLK
  5
E5
100
AcDbEntity
  8
0
100
AcDbBlockEnd
  0
BLOCK
  5
E6
100
AcDbEntity
  8
0
100
AcDbBlockBegin
  2
block 4
 70
0
 10
0.0
 20
0.0
 30
0.0
  3
block 4
  1

  0
LWPOLYLINE
  5
E7
100
AcDbEntity
  8
VectorEngraving
 62
256
370
-1
 48
1.0
  6
BYLAYER
100
AcDbPolyline
 90
6
 70
128
 10
-0.1447316216625225
 20
5.2278271675010188
 10
-0.1447316216625225
 20
3.4717371675010185
 42
-0.0094312964636997
 10
-0.012841621662524
 20
3.4777371675010471
 42
-0.0094282736998003
 10
0.1191083783374793
 20
3.4747371675010328
 10
0.1191083783374793
 20
5.2275271675010373
 10
-0.1447316216625225
 20
5.2278271675010188
  0
LWPOLYLINE
  5
E8
100
AcDbEntity
  8
VectorEngraving
 62
256
370
-1
 48
1.0
  6
BYLAYER
100
AcDbPolyline
 90
5
 70
128
 10
-2.5235516216625271
 20
4.5904471675010114
 10
-2.7520316216625318
 20
4.4585071675010255
 10
-1.8752716216625274
 20
2.9399371675010144
 42
-0.018850642653673
 10
-1.6458916216625212
 20
3.0702571675010262
 10
-2.5235516216625271
 20
4.5904471675010114
  0
LWPOLYLINE
  5
E9
100
AcDbEntity
  8
VectorEngraving
 62
256
370
-1
 48
1.0
  6
BYLAYER
100
AcDbPolyline
 90
5
 70
128
 10
2.4979683783374682
 20
4.5904471675010114
 10
1.6214783783374642
 20
3.0723371675010043
 42
-0.0188531870154901
 10
1.8500983783374707
 20
2.9406171675010029
 10
2.7264483783374729
 20
4.4585071675009971
 10
2.4979683783374682
 20
4.5904471675010114
  0
LWPOLYLINE
  5
EA
100
AcDbEntity
  8
VectorEngraving
 62
256
370
-1
 48
1.0
  6
BYLAYER
100
AcDbPolyline
 90
5
 70
128
 10
-4.493471621662529
 20
2.7170671675010141
 10
-4.6253716216625307
 20
2.4885871675010236
 10
-3.1052216216625297
 20
1.6109271675010319
 42
-0.0188520557002934
 10
-2.9748616216625337
 20
1.8403071675010239
 10
-4.493471621662529
 20
2.7170671675010141
  0
LWPOLYLINE
  5
EB
100
AcDbEntity
  8
VectorEngraving
 62
256
370
-1
 48
1.0
  6
BYLAYER
100
AcDbPolyline
 90
5
 70
128
 10
4.4678883783374701
 20
2.7170671675010141
 10
2.9499483783374743
 20
1.8407171675010119
 42
-0.0188549721058722
 10
3.0817183783375199
 20
1.6120971675010054
 10
4.5997783783374828
 20
2.4885871675009952
 10
4.4678883783374701
 20
2.7170671675010141
  0
LWPOLYLINE
  5
EC
100
AcDbEntity
  8
VectorEngraving
 62
256
370
-1
 48
1.0
  6
BYLAYER
100
AcDbPolyline
 90
6
 70
128
 10
-5.2628346216625275
 20
0.1097271675010205
 10
-5.2628346216625275
 20
-0.1541128324989671
 10
-3.506701621662522
 20
-0.1541128324989671
 42
-0.0094348651562602
 10
-3.5127016216625506
 20
-0.0221728324989812
 42
-0.00943201020193
 10
-3.5067016216625362
 20
0.1097271675010205
 10
-5.2628346216625275
 20
0.1097271675010205
  0
LWPOLYLINE
  5
ED
100
AcDbEntity
  8
VectorEngraving
 62
256
370
-1
 48
1.0
  6
BYLAYER
100
AcDbPolyline
 90
6
 70
128
 10
3.4844183783374589
 20
0.1097271675010205
 42
-0.009424702242363
 10
3.487418378337459
 20
-0.0221728324988959
 42
-0.0094348651562611
 10
3.4814183783374872
 20
-0.1541128324989671
 10
5.2375083783374734
 20
-0.1541128324989671
 10
5.2375083783374734
 20
0.1097271675010205
 10
3.4844183783374731
 20
0.1097271675010205
  0
LWPOLYLINE
  5
EE
100
AcDbEntity
  8
VectorEngraving
 62
256
370
-1
 48
1.0
  6
BYLAYER
100
AcDbPolyline
 90
5
 70
128
 10
3.0795883783374691
 20
-1.6552228324989784
 42
-0.0188551641205852
 10
2.9492283783374731
 20
-1.8846528324989862
 10
4.4678883783374701
 20
-2.7614128324989764
 10
4.5997783783374686
 20
-2.5329328324989859
 10
3.0795883783374691
 20
-1.6552228324989784
  0
LWPOLYLINE
  5
EF
100
AcDbEntity
  8
VectorEngraving
 62
256
370
-1
 48
1.0
  6
BYLAYER
100
AcDbPolyline
 90
5
 70
128
 10
-3.1052216216625297
 20
-1.6552728324989658
 10
-4.6253716216625307
 20
-2.5329328324989575
 10
-4.493471621662529
 20
-2.761412832498948
 10
-2.9748616216625337
 20
-1.8846528324989578
 42
-0.0188520557002923
 10
-3.1052216216625439
 20
-1.6552728324989658
  0
LWPOLYLINE
  5
F0
100
AcDbEntity
  8
VectorEngraving
 62
256
370
-1
 48
1.0
  6
BYLAYER
100
AcDbPolyline
 90
5
 70
128
 10
1.8496883783374685
 20
-2.984242832498964
 42
-0.0188520557002944
 10
1.6203083783374623
 20
-3.1146028324989601
 10
2.4979683783374682
 20
-4.6347928324989738
 10
2.7264483783374729
 20
-4.5028528324989878
 10
1.8496883783374685
 20
-2.984242832498964
  0
LWPOLYLINE
  5
F1
100
AcDbEntity
  8
VectorEngraving
 62
256
370
-1
 48
1.0
  6
BYLAYER
100
AcDbPolyline
 90
6
 70
128
 10
-1.8752716216625274
 20
-2.9842828324989767
 10
-2.7520316216625318
 20
-4.5028528324989878
 10
-2.5235516216625271
 20
-4.6347928324989738
 10
-1.6458916216625212
 20
-3.1146028324989601
 42
-0.0188506426536739
 10
-1.8752716216625274
 20
-2.9842828324989483
 10
-1.8752716216625274
 20
-2.9842828324989767
  0
ENDBLK
  5
F2
100
AcDbEntity
  8
0
100
AcDbBlockEnd
  0
ENDSEC
  0
SECTION
  2
ENTITIES
  0
LWPOLYLINE
  5
F3
100
AcDbEntity
  8
AreaEngraving
 62
3
420
65280
370
-1
 48
1.0
  6
BYLAYER
100
AcDbPolyline
 90
6
 70
128
 10
30.0735016991952406
 20
116.866978618205593
 10
30.0735016991952406
 20
113.1717178182055932
 42
-0.0033072788336863
 10
30.2479561991952401
 20
113.1793738182056046
 42
-0.0033077266184061
 10
30.4225822991952377
 20
113.1767338182056193
 10
30.4225822991952377
 20
116.866978618205593
 10
30.0735016991952406
 20
116.866978618205593
  0
LWPOLYLINE
  5
F4
100
AcDbEntity
  8
AreaEngraving
 62
3
420
65280
370
-1
 48
1.0
  6
BYLAYER
100
AcDbPolyline
 90
5
 70
128
 10
26.3988731591952437
 20
115.0187509182055976
 10
26.0617309691952421
 20
114.9283705182055968
 10
26.6649029891952445
 20
112.6770049182055971
 42
-0.0066141399769513
 10
27.0022157891952297
 20
112.7673853182055979
 10
26.3988731591952437
 20
115.0187509182055976
  0
LWPOLYLINE
  5
F5
100
AcDbEntity
  8
AreaEngraving
 62
3
420
65280
370
-1
 48
1.0
  6
BYLAYER
100
AcDbPolyline
 90
5
 70
128
 10
34.0972114991952395
 20
115.0187509182055976
 10
33.495232099195249
 20
112.7721604182056012
 42
-0.0066101756053528
 10
33.8323732991952255
 20
112.681948318205599
 10
34.4343526991952444
 20
114.9283705182055968
 10
34.0972114991952395
 20
115.0187509182055976
  0
LWPOLYLINE
  5
F6
100
AcDbEntity
  8
AreaEngraving
 62
3
420
65280
370
-1
 48
1.0
  6
BYLAYER
100
AcDbPolyline
 90
5
 70
128
 10
21.9553149191952457
 20
114.6916714182056012
 10
21.6531319391952444
 20
114.517216918205591
 10
23.5008484691952475
 20
111.3170089182056017
 42
-0.006608723992369
 10
23.8030314491952453
 20
111.4914634182055977
 10
21.9553149191952457
 20
114.6916714182056012
  0
LWPOLYLINE
  5
F7
100
AcDbEntity
  8
AreaEngraving
 62
3
420
65280
370
-1
 48
1.0
  6
BYLAYER
100
AcDbPolyline
 90
5
 70
128
 10
38.5405987991952443
 20
114.6916714182056012
 10
36.695608399195244
 20
111.4958986182055867
 42
-0.0066087456461917
 10
36.9977926991952089
 20
111.3214441182056049
 10
38.8429513991952433
 20
114.517216918205591
 10
38.5405987991952443
 20
114.6916714182056012
  0
LWPOLYLINE
  5
F8
100
AcDbEntity
  8
AreaEngraving
 62
3
420
65280
370
-1
 48
1.0
  6
BYLAYER
100
AcDbPolyline
 90
5
 70
128
 10
19.3949439191952422
 20
111.0792868182056026
 10
19.1480134991952511
 20
110.8325260182055985
 10
20.7962074091952509
 20
109.1843311182055913
 42
-0.0066118880942146
 10
21.0431378291952349
 20
109.4310919182055954
 10
19.3949439191952422
 20
111.0792868182056026
  0
LWPOLYLINE
  5
F9
100
AcDbEntity
  8
AreaEngraving
 62
3
420
65280
370
-1
 48
1.0
  6
BYLAYER
100
AcDbPolyline
 90
5
 70
128
 10
41.1011380991952393
 20
111.0792868182056026
 10
39.4566985991952421
 20
109.4348440182055953
 42
-0.0066118262234246
 10
39.7034560991952148
 20
109.1879149182056068
 10
41.3478988991952434
 20
110.8325260182055985
 10
41.1011380991952393
 20
111.0792868182056026
  0
LWPOLYLINE
  5
FA
100
AcDbEntity
  8
AreaEngraving
 62
3
420
65280
370
-1
 48
1.0
  6
BYLAYER
100
AcDbPolyline
 90
5
 70
128
 10
15.710254009195241
 20
108.5743393182056025
 10
15.5356288991952418
 20
108.2719867182055964
 10
18.7358362391952404
 20
106.4244388182056014
 42
-0.0066131255020083
 10
18.9104616791952296
 20
106.7267914182055932
 10
15.710254009195241
 20
108.5743393182056025
  0
LWPOLYLINE
  5
FB
100
AcDbEntity
  8
AreaEngraving
 62
3
420
65280
370
-1
 48
1.0
  6
BYLAYER
100
AcDbPolyline
 90
5
 70
128
 10
44.785828999195239
 20
108.5743393182056025
 10
41.5900561991952458
 20
106.7293522182055909
 42
-0.0066115608445713
 10
41.7645106991952559
 20
106.4269963182056102
 10
44.9602834991952491
 20
108.2719867182055964
 10
44.785828999195239
 20
108.5743393182056025
  0
LWPOLYLINE
  5
FC
100
AcDbEntity
  8
AreaEngraving
 62
3
420
65280
370
-1
 48
1.0
  6
BYLAYER
100
AcDbPolyline
 90
5
 70
128
 10
15.2989268291952438
 20
104.165569018205602
 10
15.2085447791952415
 20
103.8284278182056113
 10
17.4599120291952374
 20
103.2250855182056029
 42
-0.006614144830355
 10
17.5502934191952207
 20
103.5623983182055809
 10
15.2989268291952438
 20
104.165569018205602
  0
LWPOLYLINE
  5
FD
100
AcDbEntity
  8
AreaEngraving
 62
3
420
65280
370
-1
 48
1.0
  6
BYLAYER
100
AcDbPolyline
 90
5
 70
128
 10
45.1971541991952392
 20
104.165569018205602
 10
42.9507319991952414
 20
103.5635896182055973
 42
-0.006611016540262
 10
43.0411156991952595
 20
103.2264484182055782
 10
45.2873629991952313
 20
103.8284278182056113
 10
45.1971541991952392
 20
104.165569018205602
  0
LWPOLYLINE
  5
FE
100
AcDbEntity
  8
AreaEngraving
 62
3
420
65280
370
-1
 48
1.0
  6
BYLAYER
100
AcDbPolyline
 90
6
 70
128
 10
13.3604903291952404
 20
100.1537986182055988
 10
13.3604903291952404
 20
99.8048896182056069
 10
17.0557531091952406
 20
99.8048896182056069
 42
-0.003307292549862
 10
17.0480806091952459
 20
99.9793441182055886
 42
-0.003307292549864
 10
17.0557531091952406
 20
100.153798618205542
 10
13.3604903291952404
 20
100.1537986182055988
  0
LWPOLYLINE
  5
FF
100
AcDbEntity
  8
AreaEngraving
 62
3
420
65280
370
-1
 48
1.0
  6
BYLAYER
100
AcDbPolyline
 90
6
 70
128
 10
43.4454448991952304
 20
100.1537986182055846
 42
-0.003304476883546
 10
43.4480848991952442
 20
99.9793441182057308
 42
-0.0033072788336863
 10
43.4404288991952541
 20
99.8048896182055501
 10
47.1356929991952285
 20
99.8048896182056069
 10
47.1356929991952285
 20
100.1537986182055988
 10
43.4454448991952518
 20
100.1537986182055988
  0
LWPOLYLINE
  5
100
100
AcDbEntity
  8
AreaEngraving
 62
3
420
65280
370
-1
 48
1.0
  6
BYLAYER
100
AcDbPolyline
 90
6
 70
128
 10
17.4599149991952487
 20
96.7336027182055886
 10
15.2085480791952428
 20
96.1302604182055944
 10
15.2989301291952362
 20
95.7931192182056037
 10
17.550296389195239
 20
96.3962932182056136
 42
-0.0066140844520288
 10
17.4599149991952487
 20
96.7336027182055886
 10
17.4599149991952487
 20
96.7336027182055886
  0
LWPOLYLINE
  5
101
100
AcDbEntity
  8
AreaEngraving
 62
3
420
65280
370
-1
 48
1.0
  6
BYLAYER
100
AcDbPolyline
 90
5
 70
128
 10
43.0361689991952332
 20
96.7334344182056043
 42
-0.0066110165402621
 10
42.9457852991952365
 20
96.3962932182055852
 10
45.1971541991952392
 20
95.7931192182056037
 10
45.2873629991952313
 20
96.1302604182055944
 10
43.0361689991952545
 20
96.7334344182056043
  0
LWPOLYLINE
  5
102
100
AcDbEntity
  8
AreaEngraving
 62
3
420
65280
370
-1
 48
1.0
  6
BYLAYER
100
AcDbPolyline
 90
5
 70
128
 10
18.7358362391952404
 20
93.5342494182056043
 10
15.5356288991952418
 20
91.6867015182055951
 10
15.710254009195241
 20
91.3843489182056032
 10
18.9104616791952402
 20
93.2318968182055983
 42
-0.0066131255020083
 10
18.7358362391952404
 20
93.5342494182056043
  0
LWPOLYLINE
  5
103
100
AcDbEntity
  8
AreaEngraving
 62
3
420
65280
370
-1
 48
1.0
  6
BYLAYER
100
AcDbPolyline
 90
5
 70
128
 10
41.7602470991952401
 20
93.5342494182056186
 42
-0.0066131317545044
 10
41.5856209991952284
 20
93.2318968182055983
 10
44.785828999195239
 20
91.3843489182056032
 10
44.9602834991952491
 20
91.6867015182055951
 10
41.7602470991952401
 20
93.5342494182056043
  0
LWPOLYLINE
  5
104
100
AcDbEntity
  8
AreaEngraving
 62
3
420
65280
370
-1
 48
1.0
  6
BYLAYER
100
AcDbPolyline
 90
5
 70
128
 10
20.7962074091952402
 20
90.7743571182056002
 10
19.1480131691952415
 20
89.126162218205593
 10
19.3949429291952455
 20
88.8794014182055889
 10
21.0431374991952467
 20
90.5275963182055818
 42
-0.0066118836727005
 10
20.7962074091952509
 20
90.7743571182056002
  0
LWPOLYLINE
  5
105
100
AcDbEntity
  8
AreaEngraving
 62
3
420
65280
370
-1
 48
1.0
  6
BYLAYER
100
AcDbPolyline
 90
5
 70
128
 10
39.6998755991952237
 20
90.7743571182056002
 42
-0.0066118704081765
 10
39.4529464991952352
 20
90.5275963182056103
 10
41.1011380991952393
 20
88.8794014182055889
 10
41.3478988991952434
 20
89.126162218205593
 10
39.6998755991952379
 20
90.7743571182056002
  0
LWPOLYLINE
  5
106
100
AcDbEntity
  8
AreaEngraving
 62
3
420
65280
370
-1
 48
1.0
  6
BYLAYER
100
AcDbPolyline
 90
5
 70
128
 10
23.5006755491952433
 20
88.6416793182055898
 10
21.6531296291952415
 20
85.4414713182056005
 10
21.9553126091952393
 20
85.2670168182055903
 10
23.8028588591952399
 20
88.4672248182055938
 42
-0.0066087294058223
 10
23.5006755491952504
 20
88.6416793182055898
  0
LWPOLYLINE
  5
107
100
AcDbEntity
  8
AreaEngraving
 62
3
420
65280
370
-1
 48
1.0
  6
BYLAYER
100
AcDbPolyline
 90
5
 70
128
 10
36.9952351991952426
 20
88.6416793182055898
 42
-0.0066087456461919
 10
36.6930508991952351
 20
88.4672248182055796
 10
38.5405987991952443
 20
85.2670168182055903
 10
38.8429513991952433
 20
85.4414713182056005
 10
36.9952351991952426
 20
88.6416793182055898
  0
LWPOLYLINE
  5
108
100
AcDbEntity
  8
VectorEngraving
 62
5
420
255
370
-1
 48
1.0
  6
BYLAYER
100
AcDbPolyline
 90
20
 70
128
 10
20.6776014565000033
 20
9.8055049324999999
 10
20.6776014565000033
 20
9.3861113745000004
 10
20.1768446305000033
 20
9.3861113745000004
 10
20.1768446305000033
 20
8.5472725039999986
 10
20.6776014565000033
 20
8.5472725039999986
 10
20.6776014565000033
 20
6.0634150225000001
 10
20.1768446305000033
 20
6.0634150225000001
 10
20.1768446305000033
 20
5.2246280125000002
 10
20.6776014565000033
 20
5.2246280125000002
 10
20.6776014565000033
 20
4.8060106925000001
 10
20.6776014565000033
 20
2.7944950674999998
 10
23.0146219875000035
 20
2.7944950674999998
 10
23.0146219875000035
 20
4.8060106925000001
 10
23.5583895325000015
 20
4.8060106925000001
 10
24.290503707500001
 20
2.7944950674999998
 10
26.6275243975000038
 20
2.7944950674999998
 10
25.6122431475000027
 20
5.5840342625000003
 42
0.1923579134144613
 10
26.3020193325000022
 20
7.3057578655002393
 42
0.4142131276425501
 10
23.8022724775669872
 20
9.8055049324999999
 10
20.6776014565000033
 20
9.8055049324999999
  0
LWPOLYLINE
  5
109
100
AcDbEntity
  8
VectorEngraving
 62
5
420
255
370
-1
 48
1.0
  6
BYLAYER
100
AcDbPolyline
 90
6
 70
128
 10
23.0146219875000035
 20
8.1282930085000018
 10
23.5926532375000022
 20
8.1282930085000018
 42
-0.4142108826965076
 10
24.4151366525000029
 20
7.3057578654997135
 42
-0.4141924816972828
 10
23.5926532375000022
 20
6.4832743975000007
 10
23.0146219875000035
 20
6.4832743974999998
 10
23.0146219875000035
 20
8.1282930085000018
  0
LWPOLYLINE
  5
10A
100
AcDbEntity
  8
VectorEngraving
 62
5
420
255
370
-1
 48
1.0
  6
BYLAYER
100
AcDbPolyline
 90
5
 70
128
 10
26.687097457500002
 20
9.8055049324999999
 10
29.2389131025000033
 20
2.7944950674999998
 10
31.5758818525000038
 20
2.7944950674999998
 10
29.0241181475000047
 20
9.8055049324999999
 10
26.687097457500002
 20
9.8055049324999999
  0
LWPOLYLINE
  5
10B
100
AcDbEntity
  8
VectorEngraving
 62
5
420
255
370
-1
 48
1.0
  6
BYLAYER
100
AcDbPolyline
 90
8
 70
128
 10
31.7906765425000017
 20
9.8055049324999999
 10
34.3424921874999995
 20
2.7944950674999998
 10
36.6795126125000053
 20
2.7944950674999998
 10
39.231327992500006
 20
9.8055049324999999
 10
36.8943075675000074
 20
9.8055049324999999
 10
35.5109765625000051
 20
6.0049287275000003
 10
34.1276972325000045
 20
9.8055049324999999
 10
31.7906765425000017
 20
9.8055049324999999
  0
LINE
  5
10C
100
AcDbEntity
  8
VectorEngraving
 62
5
420
255
370
-1
 48
1.0
  6
BYLAYER
100
AcDbLine
 10
30.4073974775000053
 20
6.0049287275000012
 30
0.0
 11
31.7906765425000017
 21
9.8055049324999999
 31
0.0
  0
LINE
  5
10D
100
AcDbEntity
  8
VectorEngraving
 62
5
420
255
370
-1
 48
1.0
  6
BYLAYER
100
AcDbLine
 10
32.9591996787320625
 20
6.5950350650328815
 30
0.0
 11
31.5758818546243099
 21
2.7944950653934648
 31
0.0
  0
LINE
  5
10E
100
AcDbEntity
  8
Cuts
 62
1
420
16711680
370
-1
 48
1.0
  6
BYLAYER
100
AcDbLine
 10
0.0
 20
0.0
 30
0.0
 11
60.6000000000000014
 21
0.0
 31
0.0
  0
LINE
  5
10F
100
AcDbEntity
  8
Cuts
 62
1
420
16711680
370
-1
 48
1.0
  6
BYLAYER
100
AcDbLine
 10
60.6000000000000014
 20
0.0
 30
0.0
 11
60.6000000000000014
 21
128.5
 31
0.0
  0
LINE
  5
110
100
AcDbEntity
  8
Cuts
 62
1
420
16711680
370
-1
 48
1.0
  6
BYLAYER
100
AcDbLine
 10
60.6000000000000014
 20
128.5
 30
0.0
 11
0.0
 21
128.5
 31
0.0
  0
LINE
  5
111
100
AcDbEntity
  8
Cuts
 62
1
420
16711680
370
-1
 48
1.0
  6
BYLAYER
100
AcDbLine
 10
0.0
 20
128.5
 30
0.0
 11
0.0
 21
0.0
 31
0.0
  0
DIMENSION
  5
112
100
AcDbEntity
  8
UserDrawings
 62
256
370
-1
 48
1.0
  6
BYLAYER
100
AcDbDimension
 10
-10.0
 20
0.0
 30
0.0
 11
-11.875
 21
64.25
 31
0.0
 70
0
 71
8
 72
2
 74
0
 75
0
 41
1.0
 42
0.0
  1

  3
Standard
100
AcDbAlignedDimension
 13
-0.0
 23
-0.0
 33
0.0
 14
0.0
 24
128.5
 34
0.0
 50
90.0
100
AcDbRotatedDimension
1001
ACAD
1000
DSTYLE
1002
{
1070
144
1040
1.0
1070
40
1040
1.0
1002
}
  0
DIMENSION
  5
113
100
AcDbEntity
  8
UserDrawings
 62
256
370
-1
 48
1.0
  6
BYLAYER
100
AcDbDimension
 10
0.0
 20
136.7913298366080426
 30
0.0
 11
30.3000000000000007
 21
138.6663298366080426
 31
0.0
 70
0
 71
8
 72
2
 74
0
 75
0
 41
1.0
 42
0.0
  1

  3
Standard
100
AcDbAlignedDimension
 13
0.0
 23
128.5
 33
0.0
 14
60.6000000000000014
 24
128.5
 34
0.0
 50
0.0
100
AcDbRotatedDimension
1001
ACAD
1000
DSTYLE
1002
{
1070
144
1040
1.0
1070
40
1040
1.0
1002
}
  0
LINE
  5
114
100
AcDbEntity
  8
Cuts
 62
1
420
16711680
370
-1
 48
1.0
  6
BYLAYER
100
AcDbLine
 10
6.5000000000000107
 20
127.1000000000000369
 30
0.0
 11
8.5000000000000107
 21
127.1000000000000369
 31
0.0
  0
LINE
  5
115
100
AcDbEntity
  8
Cuts
 62
1
420
16711680
370
-1
 48
1.0
  6
BYLAYER
100
AcDbLine
 10
52.1000000000000085
 20
127.1000000000000512
 30
0.0
 11
54.1000000000000085
 21
127.1000000000000512
 31
0.0
  0
LINE
  5
116
100
AcDbEntity
  8
Cuts
 62
1
420
16711680
370
-1
 48
1.0
  6
BYLAYER
100
AcDbLine
 10
52.1000000000000085
 20
4.6000000000000227
 30
0.0
 11
54.1000000000000085
 21
4.6000000000000227
 31
0.0
  0
LINE
  5
117
100
AcDbEntity
  8
Cuts
 62
1
420
16711680
370
-1
 48
1.0
  6
BYLAYER
100
AcDbLine
 10
6.5000000000000107
 20
4.6000000000000227
 30
0.0
 11
8.5000000000000107
 21
4.6000000000000227
 31
0.0
  0
LINE
  5
118
100
AcDbEntity
  8
Cuts
 62
1
420
16711680
370
-1
 48
1.0
  6
BYLAYER
100
AcDbLine
 10
6.5000000000000107
 20
123.9000000000000341
 30
0.0
 11
8.5000000000000107
 21
123.9000000000000341
 31
0.0
  0
LINE
  5
119
100
AcDbEntity
  8
Cuts
 62
1
420
16711680
370
-1
 48
1.0
  6
BYLAYER
100
AcDbLine
 10
52.1000000000000085
 20
123.9000000000000483
 30
0.0
 11
54.1000000000000085
 21
123.9000000000000483
 31
0.0
  0
LINE
  5
11A
100
AcDbEntity
  8
Cuts
 62
1
420
16711680
370
-1
 48
1.0
  6
BYLAYER
100
AcDbLine
 10
52.1000000000000085
 20
1.4000000000000203
 30
0.0
 11
54.1000000000000085
 21
1.4000000000000203
 31
0.0
  0
LINE
  5
11B
100
AcDbEntity
  8
Cuts
 62
1
420
16711680
370
-1
 48
1.0
  6
BYLAYER
100
AcDbLine
 10
6.5000000000000107
 20
1.4000000000000203
 30
0.0
 11
8.5000000000000107
 21
1.4000000000000203
 31
0.0
  0
ARC
  5
11C
100
AcDbEntity
  8
Cuts
 62
1
420
16711680
370
-1
 48
1.0
  6
BYLAYER
100
AcDbCircle
 10
8.5000000000000107
 20
125.5000000000000426
 30
0.0
 40
1.6000000000000085
100
AcDbArc
 50
270.0
 51
90.0
  0
ARC
  5
11D
100
AcDbEntity
  8
Cuts
 62
1
420
16711680
370
-1
 48
1.0
  6
BYLAYER
100
AcDbCircle
 10
54.1000000000000085
 20
125.5000000000000568
 30
0.0
 40
1.6000000000000085
100
AcDbArc
 50
270.0
 51
90.0
  0
ARC
  5
11E
100
AcDbEntity
  8
Cuts
 62
1
420
16711680
370
-1
 48
1.0
  6
BYLAYER
100
AcDbCircle
 10
54.1000000000000085
 20
3.0000000000000289
 30
0.0
 40
1.6000000000000085
100
AcDbArc
 50
270.0
 51
90.0
  0
ARC
  5
11F
100
AcDbEntity
  8
Cuts
 62
1
420
16711680
370
-1
 48
1.0
  6
BYLAYER
100
AcDbCircle
 10
8.5000000000000107
 20
3.0000000000000289
 30
0.0
 40
1.6000000000000085
100
AcDbArc
 50
270.0
 51
90.0
  0
ARC
  5
120
100
AcDbEntity
  8
Cuts
 62
1
420
16711680
370
-1
 48
1.0
  6
BYLAYER
100
AcDbCircle
 10
6.5000000000000107
 20
125.5000000000000426
 30
0.0
 40
1.6000000000000085
100
AcDbArc
 50
90.0
 51
270.0
  0
ARC
  5
121
100
AcDbEntity
  8
Cuts
 62
1
420
16711680
370
-1
 48
1.0
  6
BYLAYER
100
AcDbCircle
 10
52.1000000000000085
 20
125.5000000000000568
 30
0.0
 40
1.6000000000000085
100
AcDbArc
 50
90.0
 51
270.0
  0
ARC
  5
122
100
AcDbEntity
  8
Cuts
 62
1
420
16711680
370
-1
 48
1.0
  6
BYLAYER
100
AcDbCircle
 10
52.1000000000000085
 20
3.0000000000000289
 30
0.0
 40
1.6000000000000085
100
AcDbArc
 50
90.0
 51
270.0
  0
ARC
  5
123
100
AcDbEntity
  8
Cuts
 62
1
420
16711680
370
-1
 48
1.0
  6
BYLAYER
100
AcDbCircle
 10
6.5000000000000107
 20
3.0000000000000289
 30
0.0
 40
1.6000000000000085
100
AcDbArc
 50
90.0
 51
270.0
  0
LWPOLYLINE
  5
124
100
AcDbEntity
  8
VectorEngraving
 62
5
420
255
370
-1
 48
1.0
  6
BYLAYER
100
AcDbPolyline
 90
268
 70
129
 10
12.9415589282368373
 20
118.0
 10
12.9415589282368373
 20
121.9745175192055484
 10
14.1984448191868111
 20
121.9745175192055484
 10
14.2041185727475963
 20
121.9745126530899455
 10
14.2097804555022726
 20
121.9744980547431368
 10
14.2154304674508474
 20
121.974473724165108
 10
14.2210686085933133
 20
121.9744396613558592
 10
14.2266948789296723
 20
121.9743958663154189
 10
14.2323092784599261
 20
121.9743423390437727
 10
14.2379118071840782
 20
121.9742790795409064
 10
14.243502465102118
 20
121.9742060878068344
 10
14.2490812522140562
 20
121.9741233638415423
 10
14.2546481685198856
 20
121.9740309076450444
 10
14.2602032140196098
 20
121.9739287192173407
 10
14.2657463887132288
 20
121.973816798558417
 10
14.2712776926007443
 20
121.9736951456683016
 10
14.2767971256821475
 20
121.9735637605469378
 10
14.2823046879574509
 20
121.9734226431944109
 10
14.2878003794266437
 20
121.9732717936106496
 10
14.2932842000897349
 20
121.9731112117956826
 10
14.2987561499467173
 20
121.9729408977494955
 10
14.3042162289975927
 20
121.9727608514721169
 10
14.3096644372423665
 20
121.9725710729634898
 10
14.3151007746810315
 20
121.9723715622236995
 10
14.3205252413135895
 20
121.9721623192526749
 10
14.3259378371400423
 20
121.9719433440504588
 10
14.3313385621603935
 20
121.9717146366170084
 10
14.3367274163746341
 20
121.9714761969523664
 10
14.3421043997827677
 20
121.9712280250565186
 10
14.347469512384798
 20
121.9709701209294366
 10
14.3528227541807212
 20
121.9707024845711771
 10
14.3581641251705374
 20
121.9704251159816693
 10
14.363493625354252
 20
121.9701380151609698
 10
14.3688112547318561
 20
121.9698411821090502
 10
14.3741170133033549
 20
121.9695346168259249
 10
14.3794109010687503
 20
121.969218319311608
 10
14.3846929180280352
 20
121.968892289566071
 10
14.3899630641812184
 20
121.9685565275892998
 10
14.3952213395282946
 20
121.9682110333813512
 10
14.4004677440692639
 20
121.9678558069421683
 10
14.4057022778041279
 20
121.9674908482718081
 10
14.4109249407328868
 20
121.9671161573701994
 10
14.4161357328555368
 20
121.9667317342373849
 10
14.4213346541720835
 20
121.9663375788733788
 10
14.4265217046825232
 20
121.9659336912781669
 10
14.4316968843868576
 20
121.9655200714517207
 10
14.4368601932850851
 20
121.9650967193940829
 10
14.4420116313772091
 20
121.9646636351052393
 10
14.4471511986632226
 20
121.9642208185851757
 10
14.4522788951431362
 20
121.9637682698339063
 10
14.4573947208169393
 20
121.9633059888514168
 10
14.4624986756846372
 20
121.9628339756377216
 10
14.4675907597462299
 20
121.9623522301928062
 10
14.4726709730017156
 20
121.9618607525166851
 10
14.477739315451096
 20
121.9613595426093866
 10
14.4827957870943713
 20
121.9608486004708539
 10
14.4878403879315414
 20
121.9603279261011011
 10
14.4928731179626009
 20
121.9597975195001425
 10
14.4978939771875588
 20
121.9592573806679923
 10
14.5029029656064097
 20
121.9587075096046078
 10
14.5079000832191554
 20
121.9581479063100176
 10
14.5128853300257923
 20
121.9575785707842215
 10
14.5178587060263258
 20
121.9569995030272196
 10
14.5228202112207541
 20
121.9564107030390119
 10
14.5277698456090736
 20
121.9558121708195699
 10
14.5327076091912915
 20
121.9552039063689506
 10
14.5376335019673952
 20
121.9545859096870828
 10
14.5425475239373991
 20
121.9539581807740376
 10
14.5474496751012978
 20
121.9533207196297724
 10
14.5523399554590878
 20
121.9526735262543014
 10
14.5572183650107743
 20
121.9520166006475961
 10
14.5620849037563538
 20
121.9513499428097134
 10
14.5669395716958263
 20
121.9506735527405965
 10
14.5717823688291936
 20
121.9499874304402738
 10
14.5766132951564558
 20
121.9492915759087452
 10
14.5814323506776127
 20
121.9485859891460251
 10
14.5862395353926608
 20
121.9478706701520707
 10
14.5910348493016038
 20
121.9471456189269105
 10
14.5958182924044433
 20
121.9464108354705303
 10
14.6005898647011723
 20
121.9456663197829585
 10
14.6053495661917996
 20
121.9449120718641666
 10
14.6100973968763181
 20
121.9441480917141547
 10
14.6148333567547297
 20
121.9433743793329654
 10
14.6195574458270414
 20
121.9425909347205419
 10
14.6242696640932426
 20
121.9417977578769126
 10
14.6289700115533368
 20
121.9409948488020632
 10
14.6336584882073257
 20
121.9401822074960364
 10
14.6383350940552113
 20
121.9393598339587612
 10
14.6429998290969863
 20
121.9385277281902802
 10
14.6476526933326596
 20
121.9376858901906076
 10
14.652293686762226
 20
121.9368343199597291
 10
14.6569228093856871
 20
121.9359730174976164
 10
14.6615400612030395
 20
121.9351019828043121
 10
14.6661454422142903
 20
121.9342212158797736
 10
14.6707389524194305
 20
121.9333307167240577
 10
14.6753205918184655
 20
121.9324304853371075
 10
14.6798903604113953
 20
121.9315205217189515
 10
14.6844482581982199
 20
121.9306008258695897
 10
14.6889942851789392
 20
121.9296713977890221
 10
14.6935284413535499
 20
121.9287322374772344
 10
14.6980507267220588
 20
121.927783344934241
 10
14.702561141284459
 20
121.9268247201600275
 10
14.707059685040754
 20
121.9258563631546366
 10
14.7115463579909438
 20
121.9248782739179973
 10
14.7160211601350248
 20
121.9238904524501805
 10
14.7204840914730006
 20
121.9228928987511296
 10
14.724935152004873
 20
121.921885612820887
 10
14.7293743417306366
 20
121.9208685946594244
 10
14.7338016606502968
 20
121.9198418442667275
 10
14.7382171087638465
 20
121.9188053616428533
 10
14.7426206860712963
 20
121.9177591467877591
 10
14.7470123925726355
 20
121.916703199701459
 10
14.7513922282678713
 20
121.9156375203839389
 10
14.7557601931570002
 20
121.9145621088352129
 10
14.760116287240022
 20
121.9134769650552812
 10
14.7644605105169369
 20
121.9123820890441152
 10
14.7687928629877518
 20
121.9112774808017718
 10
14.7731133446524563
 20
121.9101631403282227
 10
14.7774219555110555
 20
121.9090390676234108
 10
14.7817186955635478
 20
121.90790526268745
 10
14.7860035648099348
 20
121.9067617255202407
 10
14.7902765632502167
 20
121.905608456121854
 10
14.7945376908843915
 20
121.9044454544922473
 10
14.7987869477124612
 20
121.9032727206314064
 10
14.8030243337344238
 20
121.9020902545393596
 10
14.8072498489502813
 20
121.9008980562161071
 10
14.8114634933600335
 20
121.8996961256616487
 10
14.8156652669636806
 20
121.8984844628759845
 10
14.8198551697612189
 20
121.8972630678591145
 10
14.8240332017526519
 20
121.8960319406110102
 10
14.8281993629379798
 20
121.8947910811317286
 10
14.8323536533172025
 20
121.8935404894212127
 10
14.8364960728903181
 20
121.892280165479491
 10
14.8406266216573286
 20
121.8910101093065776
 10
14.8447452996182303
 20
121.8897303209024159
 10
14.8488521067730304
 20
121.8884408002670767
 10
14.8529470431217216
 20
121.8871415474005175
 10
14.8570301086643077
 20
121.8858325623027525
 10
14.8611013034007868
 20
121.8845138449737817
 10
14.8651606273311625
 20
121.8831853954135767
 10
14.8692080804554294
 20
121.8818472136221658
 10
14.8732436627735893
 20
121.8804992995995633
 10
14.8772673742856476
 20
121.879141653345755
 10
14.8812792149915971
 20
121.8777742748607125
 10
14.8852791848914414
 20
121.8763971641444783
 10
14.8892672839851787
 20
121.8750103211970384
 10
14.8932435122728108
 20
121.8736137460183642
 10
14.8972078697543395
 20
121.8722074386085126
 10
14.9011603564297594
 20
121.8707913989674125
 10
14.9051009722990742
 20
121.8693656270951351
 10
14.9090297173622837
 20
121.8679301229916234
 10
14.9129465916193844
 20
121.8664848866569059
 10
14.9168515950703817
 20
121.8650299180909826
 10
14.9207447277152703
 20
121.8635652172938535
 10
14.9246259895540554
 20
121.8620907842655043
 10
14.9284953805867353
 20
121.8606066190059778
 10
14.9323529008133065
 20
121.8591127215151886
 10
14.936198550233776
 20
121.857609091793222
 10
14.9400323288481349
 20
121.8560957298400353
 10
14.9438542366563887
 20
121.8545726356556429
 10
14.947664273658539
 20
121.8530398092400446
 10
14.9514624398545806
 20
121.8514972505932121
 10
14.9552487352445187
 20
121.8499449597152022
 10
14.9590231598283516
 20
121.8483829366059581
 10
14.962785713606074
 20
121.8468111812655366
 10
14.9665363965776947
 20
121.8452296936938666
 10
14.9702752087432067
 20
121.8436384738909908
 10
14.9740021501026153
 20
121.8420375218569234
 10
14.977717220655915
 20
121.8404268375916502
 10
14.9814204204031114
 20
121.8388064210951427
 10
14.9851117493442025
 20
121.8371762723674294
 10
14.9887912074791849
 20
121.8355363914085103
 10
14.9924587948080621
 20
121.8338867782183996
 10
14.9961145113308341
 20
121.8322274327970547
 10
14.9997583570474973
 20
121.8305583551445181
 10
15.0033903319580588
 20
121.8288795452607616
 10
15.0070104360625116
 20
121.8271910031457992
 10
15.0106186693608592
 20
121.8254927287996168
 10
15.0142150318531016
 20
121.8237847222222285
 10
15.0177995235392387
 20
121.8220669834136203
 10
15.0213721444192672
 20
121.8203395123738062
 10
15.0249328944931904
 20
121.8186023091028005
 10
15.0284817737610084
 20
121.8168553736005748
 10
15.0320187822227211
 20
121.8150987058671291
 10
15.0355439198783252
 20
121.8133323059024917
 10
15.0390571867278275
 20
121.8115561737066344
 10
15.0425585827712194
 20
121.809770309279557
 10
15.0460481080085078
 20
121.8079747126212879
 10
15.049525762439691
 20
121.8061693837317989
 10
15.0529915460647654
 20
121.8043543226110899
 10
15.0564454588837364
 20
121.802529529259175
 10
15.0598875008966004
 20
121.8006950036760685
 10
15.0633176721033593
 20
121.798850745861742
 10
15.0667359725040093
 20
121.7969967558161812
 10
15.0701424020985577
 20
121.7951330335394431
 10
15.0735369608869991
 20
121.7932595790314849
 10
15.0769196488693336
 20
121.7913763922923209
 10
15.080290466045561
 20
121.7894834733219227
 10
15.0836494124156815
 20
121.7875808221203471
 10
15.0869964879797003
 20
121.7856684386875372
 10
15.0903316927376103
 20
121.7837463230235358
 10
15.0936550266894152
 20
121.7818144751283143
 10
15.096966489835113
 20
121.7798728950018869
 10
15.1002660821747074
 20
121.7779215826442396
 10
15.1035538037081913
 20
121.7759605380553865
 10
15.1068296544355718
 20
121.7739897612353275
 10
15.1100936343568488
 20
121.7720092521840485
 10
15.1133457434720189
 20
121.7700190109015637
 10
15.1165859817810802
 20
121.768019037387873
 10
15.119814349284038
 20
121.7660093316429766
 10
15.1230308459808871
 20
121.7639898936668601
 10
15.1262354718716345
 20
121.7619607234595236
 10
15.1294282269562732
 20
121.7599218210210097
 10
15.1326091112348067
 20
121.7578731863512473
 10
15.1357781247072314
 20
121.7558148194503076
 10
15.1389352673735544
 20
121.753746720318162
 10
15.1420805392337687
 20
121.7516688889547822
 10
15.1452139402878778
 20
121.7495813253601682
 10
15.1483354705358835
 20
121.747484029534391
 10
15.1514451299777786
 20
121.7453770014773795
 10
15.1545429186135721
 20
121.7432602411891622
 10
15.1576288364432568
 20
121.7411337486697533
 10
15.1607028834668345
 20
121.7389975239191102
 10
15.1637650596843088
 20
121.7368515669372613
 10
15.1668153650956761
 20
121.7346958777242065
 10
15.1698537997009399
 20
121.732530456279946
 10
15.1728803635000933
 20
121.7303553026044796
 10
15.1758950564931432
 20
121.7281704166977789
 10
15.1788978786800879
 20
121.7259757985598725
 10
15.1818888300609238
 20
121.7237714481907602
 10
15.1848679106356581
 20
121.7215573655904564
 10
15.1878351204042819
 20
121.7193335507589325
 10
15.1907904593668022
 20
121.7171000036961885
 10
15.1937339275232155
 20
121.7148567244022388
 10
15.1966655248735236
 20
121.712603712877069
 10
15.1995852514177265
 20
121.7103409691207361
 10
15.2024931071558225
 20
121.7080684931331405
 10
15.2053890920878132
 20
121.7057862849143532
 10
15.2082732062136969
 20
121.7034943444643602
 10
15.2111454495334755
 20
121.7011926717831471
 10
15.2140058220471488
 20
121.6988812668707283
 10
15.2168543237547134
 20
121.6965601297271036
 10
15.2196909546561745
 20
121.6942292603522588
 10
15.2225157147515286
 20
121.6918886587462225
 10
15.2253286040407776
 20
121.6895383249089662
 10
15.2281296225239196
 20
121.6871782588404756
 10
15.2309187702009563
 20
121.6848084605408076
 10
15.2336960470718861
 20
121.6824289300099196
 10
15.2364614531367106
 20
121.6800396672478257
 10
15.2392149883954282
 20
121.6776406722544976
 10
15.2419566528480406
 20
121.6752319450299922
 10
15.2446864464945477
 20
121.6728134855742525
 10
15.2474043693349515
 20
121.6703852938873069
 10
15.2501104213692464
 20
121.6679473699691556
 10
15.2528046025974326
 20
121.6654997138197842
 10
15.2554869130195154
 20
121.6630423254392497
 10
15.258157352635493
 20
121.6605752048274525
 10
15.2608159214453654
 20
121.6580983519844636
 10
15.263462619449129
 20
121.6556117669102548
 42
-0.2148899109718855
 10
15.6014802323402666
 20
120.8068203110361623
 42
-0.1001913794401176
 10
15.5092936106426844
 20
120.369870713884211
 42
-0.0965402896310477
 10
15.2477234401349087
 20
119.9775154581225394
 42
-0.1106023788064029
 10
14.855742926737868
 20
119.7223159078133818
 10
15.7101555180813186
 20
118.0
 10
14.9509274873524465
 20
118.0
 10
14.1474798575979008
 20
119.6526138279932496
 10
13.6685591156080193
 20
119.6526138279932496
 10
13.6685591156080193
 20
118.0
  0
LWPOLYLINE
  5
125
100
AcDbEntity
  8
VectorEngraving
 62
5
420
255
370
-1
 48
1.0
  6
BYLAYER
100
AcDbPolyline
 90
7
 70
129
 10
13.6685591156080193
 20
120.2522016113921666
 10
14.2494097807757178
 20
120.2522016113921666
 42
0.1918312228860106
 10
14.7084691774405094
 20
120.39572793704329
 42
0.215460677908081
 10
14.861738804571857
 20
120.7880831928049474
 42
0.1955098707729386
 10
14.7084691774405094
 20
121.18343638748361
 42
0.2146607426727161
 10
14.2494097807757178
 20
121.3494472550121799
 10
13.6685591156080193
 20
121.3494472550121799
  0
LWPOLYLINE
  5
126
100
AcDbEntity
  8
VectorEngraving
 62
5
420
255
370
-1
 48
1.0
  6
BYLAYER
100
AcDbPolyline
 90
13
 70
129
 10
16.4304103428892638
 20
118.0
 10
15.9072700018737123
 20
121.9745175192055484
 10
16.5323402660670808
 20
121.9745175192055484
 10
16.8006557991380916
 20
119.4802323402660704
 10
17.3110548997564173
 20
121.6619823871088641
 10
17.6932921116732231
 20
121.6619823871088641
 10
18.2036912122915489
 20
119.4862282181000523
 10
18.4142964212104197
 20
121.9745175192055484
 10
19.0011429642121037
 20
121.9745175192055484
 10
18.4847479857597889
 20
118.0
 10
18.0320592092936103
 20
118.0
 10
17.4699456623571301
 20
120.4500655799138116
 10
16.8958403597526718
 20
118.0
  0
LWPOLYLINE
  5
127
100
AcDbEntity
  8
VectorEngraving
 62
5
420
255
370
-1
 48
1.0
  6
BYLAYER
100
AcDbPolyline
 90
12
 70
129
 10
22.5469552182874295
 20
118.0
 10
22.5469552182874295
 20
121.9745175192055484
 10
25.137174442570732
 20
121.9745175192055484
 10
25.137174442570732
 20
121.3876709762038644
 10
23.2484729248641564
 20
121.3876709762038644
 10
23.2484729248641564
 20
120.3668727749672058
 10
24.7991568296795961
 20
120.3668727749672058
 10
24.7991568296795961
 20
119.773280869402285
 10
23.2484729248641564
 20
119.773280869402285
 10
23.2484729248641564
 20
118.586846543001684
 10
25.1176878396102694
 20
118.586846543001684
 10
25.1176878396102694
 20
118.0
  0
LWPOLYLINE
  5
128
100
AcDbEntity
  8
VectorEngraving
 62
5
420
255
370
-1
 48
1.0
  6
BYLAYER
100
AcDbPolyline
 90
13
 70
129
 10
25.614596215102118
 20
118.0
 10
25.614596215102118
 20
121.9745175192055484
 10
26.2464118418587233
 20
121.9745175192055484
 10
27.018381112984823
 20
120.1495222034851054
 10
27.7903503841109227
 20
121.9805133970395303
 10
28.422166010867528
 20
121.9805133970395303
 10
28.422166010867528
 20
118.0
 10
27.7963462619449118
 20
118.0
 10
27.7963462619449118
 20
120.7753419524077145
 10
27.1712759977515468
 20
119.3138467303728731
 10
26.8205171444631816
 20
119.3138467303728731
 10
26.2336706014614975
 20
120.7685965898444778
 10
26.2336706014614975
 20
118.0
  0
LWPOLYLINE
  5
129
100
AcDbEntity
  8
VectorEngraving
 62
5
420
255
370
-1
 48
1.0
  6
BYLAYER
100
AcDbPolyline
 90
10
 70
129
 10
32.0564174629941903
 20
118.0
 10
32.0564174629941903
 20
121.9745175192055484
 10
33.0839610267940785
 20
121.9745175192055484
 42
-0.1118089991174196
 10
33.8971519580288572
 20
121.830991193554425
 42
-0.118037672883372
 10
34.3850665167697258
 20
121.4258946973955346
 42
-0.0860317353694704
 10
34.6946037099494049
 20
120.78770845044032
 42
-0.0734144486327174
 10
34.8062769346074532
 20
119.9584035975266971
 42
-0.0937972774119903
 10
34.6084129660858153
 20
118.9154955967772196
 42
-0.1638286356081107
 10
34.0309349821997387
 20
118.2360876897133153
 42
-0.1360343027579395
 10
33.0075135844107166
 20
118.0
  0
LWPOLYLINE
  5
12A
100
AcDbEntity
  8
VectorEngraving
 62
5
420
255
370
-1
 48
1.0
  6
BYLAYER
100
AcDbPolyline
 90
9
 70
129
 10
32.7586846543001684
 20
118.5613640622072325
 10
32.988026981450254
 20
118.5613640622072325
 42
0.155032899472145
 10
33.6419524077196925
 20
118.7337455499344259
 42
0.1609236696386684
 10
33.9960839422896726
 20
119.2186621697582893
 42
0.0875887959747151
 10
34.0980138654674931
 20
119.9524077196927152
 42
0.0688444510862742
 10
34.0054525014052871
 20
120.7176316282555746
 42
0.1625887306929242
 10
33.6835488101929883
 20
121.2216601086752803
 42
0.1685507963356933
 10
33.0584785459996269
 20
121.4004122166010831
 10
32.7586846543001684
 20
121.4004122166010831
  0
LWPOLYLINE
  5
12B
100
AcDbEntity
  8
VectorEngraving
 62
5
420
255
370
-1
 48
1.0
  6
BYLAYER
100
AcDbPolyline
 90
9
 70
129
 10
35.3414090312909863
 20
121.9745175192055484
 10
36.1261195428143154
 20
121.9745175192055484
 10
36.1261195428143154
 20
121.9168071950533943
 42
0.1523096199732568
 10
36.0785272625070235
 20
121.8306164511898118
 42
0.0437068677127784
 10
36.0691587033914232
 20
121.680719505340079
 10
36.0691587033914232
 20
118.586846543001684
 10
37.8934045343826114
 20
118.586846543001684
 10
37.8934045343826114
 20
118.0
 10
35.3414090312909863
 20
118.0
  0
LWPOLYLINE
  5
12C
100
AcDbEntity
  8
VectorEngraving
 62
5
420
255
370
-1
 48
1.0
  6
BYLAYER
100
AcDbPolyline
 90
10
 70
129
 10
38.5881768783960979
 20
118.0
 10
38.5881768783960979
 20
121.9745175192055484
 10
41.0629754543751204
 20
121.9745175192055484
 10
41.0629754543751204
 20
121.3936668540378463
 10
39.2319842608206812
 20
121.3936668540378463
 10
39.2319842608206812
 20
120.4305789769533419
 10
40.7189619636499884
 20
120.4305789769533419
 10
40.7189619636499884
 20
119.849728311785654
 10
39.2319842608206812
 20
119.849728311785654
 10
39.2319842608206812
 20
118.0
  0
LWPOLYLINE
  5
12D
100
AcDbEntity
  8
VectorEngraving
 62
5
420
255
370
-1
 48
1.0
  6
BYLAYER
100
AcDbPolyline
 90
8
 70
129
 10
46.9306913996627344
 20
118.0
 10
46.6563799887577346
 20
118.9248641558928199
 10
45.6168446692898613
 20
118.9248641558928199
 10
45.3357878958216247
 20
118.0
 10
44.6215289488476685
 20
118.0
 10
45.96760352257823
 20
122.0
 10
46.3123664980326026
 20
122.0
 10
47.6584410717631641
 20
118.0
  0
LWPOLYLINE
  5
12E
100
AcDbEntity
  8
VectorEngraving
 62
5
420
255
370
-1
 48
1.0
  6
BYLAYER
100
AcDbPolyline
 90
3
 70
129
 10
46.1399850103054092
 20
120.6666666666666714
 10
45.769739554056585
 20
119.4420086190743859
 10
46.5034851039910109
 20
119.4420086190743859
  0
CIRCLE
  5
12F
100
AcDbEntity
  8
Cuts
 62
256
370
-1
 48
1.0
  6
BYLAYER
100
AcDbCircle
 10
7.2999999999999998
 20
24.0
 30
0.0
 40
3.2000000000000002
  0
CIRCLE
  5
130
100
AcDbEntity
  8
Cuts
 62
256
370
-1
 48
1.0
  6
BYLAYER
100
AcDbCircle
 10
18.3000000000000007
 20
24.0
 30
0.0
 40
3.2000000000000002
  0
CIRCLE
  5
131
100
AcDbEntity
  8
Cuts
 62
256
370
-1
 48
1.0
  6
BYLAYER
100
AcDbCircle
 10
30.3000000000000007
 20
24.0
 30
0.0
 40
3.2000000000000002
  0
CIRCLE
  5
132
100
AcDbEntity
  8
Cuts
 62
256
370
-1
 48
1.0
  6
BYLAYER
100
AcDbCircle
 10
42.2999999999999972
 20
24.0
 30
0.0
 40
3.2000000000000002
  0
CIRCLE
  5
133
100
AcDbEntity
  8
Cuts
 62
256
370
-1
 48
1.0
  6
BYLAYER
100
AcDbCircle
 10
53.2999999999999972
 20
24.0
 30
0.0
 40
3.2000000000000002
  0
CIRCLE
  5
134
100
AcDbEntity
  8
Cuts
 62
1
420
16711680
370
-1
 48
1.0
  6
BYLAYER
100
AcDbCircle
 10
9.3000000000000007
 20
61.0
 30
0.0
 40
3.2000000000000002
  0
CIRCLE
  5
135
100
AcDbEntity
  8
Cuts
 62
1
420
16711680
370
-1
 48
1.0
  6
BYLAYER
100
AcDbCircle
 10
30.3000000000000007
 20
61.0
 30
0.0
 40
3.2000000000000002
  0
CIRCLE
  5
136
100
AcDbEntity
  8
Cuts
 62
1
420
16711680
370
-1
 48
1.0
  6
BYLAYER
100
AcDbCircle
 10
51.2999999999999972
 20
61.0
 30
0.0
 40
3.2000000000000002
  0
CIRCLE
  5
137
100
AcDbEntity
  8
Cuts
 62
1
420
16711680
370
-1
 48
1.0
  6
BYLAYER
100
AcDbCircle
 10
9.3000000000000007
 20
79.0
 30
0.0
 40
3.2000000000000002
  0
CIRCLE
  5
138
100
AcDbEntity
  8
Cuts
 62
1
420
16711680
370
-1
 48
1.0
  6
BYLAYER
100
AcDbCircle
 10
51.2999999999999972
 20
79.0
 30
0.0
 40
3.2000000000000002
  0
CIRCLE
  5
139
100
AcDbEntity
  8
Cuts
 62
1
420
16711680
370
-1
 48
1.0
  6
BYLAYER
100
AcDbCircle
 10
30.3000000000000007
 20
100.0
 30
0.0
 40
3.3999999999999999
  0
INSERT
  5
13A
100
AcDbEntity
  8
Cuts
 62
3
420
65280
370
-1
 48
1.0
  6
BYLAYER
100
AcDbBlockReference
  2
block 7
 10
9.3000000000000007
 20
79.0
 30
0.0
  0
INSERT
  5
13B
100
AcDbEntity
  8
Cuts
 62
3
420
65280
370
-1
 48
1.0
  6
BYLAYER
100
AcDbBlockReference
  2
block 7
 10
51.2999999999999972
 20
79.0
 30
0.0
  0
INSERT
  5
13C
100
AcDbEntity
  8
Cuts
 62
3
420
65280
370
-1
 48
1.0
  6
BYLAYER
100
AcDbBlockReference
  2
block 7
 10
51.2999999999999972
 20
61.0
 30
0.0
  0
INSERT
  5
13D
100
AcDbEntity
  8
Cuts
 62
3
420
65280
370
-1
 48
1.0
  6
BYLAYER
100
AcDbBlockReference
  2
block 7
 10
30.3000000000000007
 20
61.0
 30
0.0
  0
INSERT
  5
13E
100
AcDbEntity
  8
Cuts
 62
3
420
65280
370
-1
 48
1.0
  6
BYLAYER
100
AcDbBlockReference
  2
block 7
 10
9.3000000000000007
 20
61.0
 30
0.0
  0
LWPOLYLINE
  5
13F
100
AcDbEntity
  8
VectorEngraving
 62
256
370
-1
 48
1.0
  6
BYLAYER
100
AcDbPolyline
 90
26
 70
129
 10
5.0103241521454009
 20
14.9760164886640439
 42
-0.1371812061519414
 10
4.6130972456436208
 20
15.0830054337642885
 42
-0.1521335773926518
 10
4.3260445943413917
 20
15.4163387670976206
 42
-0.1095731750364346
 10
4.2192430204234599
 20
15.993816750983699
 42
-0.0854969824068514
 10
4.2910061832490172
 20
16.4866029604646798
 42
-0.1105493068353135
 10
4.4808131909312356
 20
16.8040097433014814
 42
-0.1092743849584422
 10
4.7406970207982022
 20
16.9745175192055484
 42
-0.0894144458589513
 10
5.0230653925426276
 20
17.0269814502529506
 42
-0.1442794725258782
 10
5.4073636874648692
 20
16.9250515270751372
 42
-0.1501502099017735
 10
5.6515083380176137
 20
16.637998875772908
 10
5.4247892074198996
 20
16.4689900693273366
 10
5.3993067266254462
 20
16.4528761476484924
 10
5.383567547311225
 20
16.4783586284429475
 42
0.1140804318625202
 10
5.3786958965711085
 20
16.5248266816563607
 42
0.046109506168237
 10
5.3453438261195441
 20
16.5934045343826142
 42
0.1205634682736374
 10
5.1999437886453075
 20
16.706576728499158
 42
0.0973965581775431
 10
5.0421772531384681
 20
16.736930860033727
 42
0.1710454528741374
 10
4.8139591530822567
 20
16.6539254262694421
 42
0.1324894010124829
 10
4.6417650365373815
 20
16.4099681468990077
 42
0.0957756120555103
 10
4.5763724939104371
 20
16.0095559302979211
 42
0.1424637919354519
 10
4.7024732996065213
 20
15.4689900693273383
 42
0.2705536969347134
 10
5.0196927112610092
 20
15.2728124414465061
 42
0.1360351973350352
 10
5.2239272999812636
 20
15.3237774030354146
 42
0.1254759824622793
 10
5.3801948660296057
 20
15.4927862094809825
 10
5.6290237961401548
 20
15.3080382237211925
 42
-0.1424969433067541
 10
5.3659546561738818
 20
15.0509649615889085
 42
-0.1161683907371229
  0
LWPOLYLINE
  5
140
100
AcDbEntity
  8
VectorEngraving
 62
256
370
-1
 48
1.0
  6
BYLAYER
100
AcDbPolyline
 90
7
 70
129
 10
6.4039910061832499
 20
15.0048716507401174
 10
5.7658047592280317
 20
16.9985010305415045
 10
6.1233089750796337
 20
16.9985010305415045
 10
6.5411467116357507
 20
15.6014614952220363
 10
6.9301292861157968
 20
16.9985010305415045
 10
7.2778902004871657
 20
16.9985010305415045
 10
6.6460745737305613
 20
15.0048716507401174
  0
LWPOLYLINE
  5
141
100
AcDbEntity
  8
VectorEngraving
 62
256
370
-1
 48
1.0
  6
BYLAYER
100
AcDbPolyline
 90
8
 70
129
 10
9.7013490725126488
 20
14.9730185497470476
 42
-0.2618061221865502
 10
9.2053775529323598
 20
15.2377740303541316
 42
-0.1508035127937417
 10
9.0219411654487551
 20
15.9938167509836973
 42
-0.1473654879670701
 10
9.2053775529323598
 20
16.7526700393479473
 42
-0.2669587402895634
 10
9.7013490725126488
 20
17.0269814502529506
 42
-0.2669587402895692
 10
10.197320592092936
 20
16.7526700393479473
 42
-0.1473654879670676
 10
10.3807569795765424
 20
15.993816750983699
 42
-0.1508035127937392
 10
10.197320592092936
 20
15.2377740303541316
 42
-0.261806122186551
  0
LWPOLYLINE
  5
142
100
AcDbEntity
  8
VectorEngraving
 62
256
370
-1
 48
1.0
  6
BYLAYER
100
AcDbPolyline
 90
5
 70
129
 10
9.3569608394228965
 20
15.9938167509837559
 42
0.0283088866191476
 10
9.369702079820124
 20
15.7513584410717637
 10
9.982031103616265
 20
16.4783586284429475
 42
0.3501942715204493
 10
9.7013490725126488
 20
16.736930860033727
 42
0.3230366028417719
 10
9.4429642121041795
 20
16.5407532321528947
 42
0.0999785685814215
  0
LWPOLYLINE
  5
143
100
AcDbEntity
  8
VectorEngraving
 62
256
370
-1
 48
1.0
  6
BYLAYER
100
AcDbPolyline
 90
5
 70
129
 10
9.7013490725126488
 20
15.2503278995690454
 42
0.3213611323088076
 10
9.9597339329211181
 20
15.4433202173505713
 42
0.1008322000318715
 10
10.0457373056023993
 20
15.9938167509836973
 42
0.0292151006518504
 10
10.0329960652051717
 20
16.2265317594154013
 10
9.4206670414090325
 20
15.5025295109612156
 42
0.3487215780141419
  0
LWPOLYLINE
  5
144
100
AcDbEntity
  8
VectorEngraving
 62
256
370
-1
 48
1.0
  6
BYLAYER
100
AcDbPolyline
 90
26
 70
129
 10
16.2368559115608022
 20
14.9745175192055431
 42
-0.1371812061519437
 10
15.839629005059022
 20
15.0815064643057895
 42
-0.152133577392655
 10
15.5525763537567929
 20
15.4148397976391216
 42
-0.1095731750364297
 10
15.445774779838862
 20
15.9923177815252
 42
-0.0854969824068506
 10
15.5175379426644184
 20
16.4851039910061807
 42
-0.1105493068353136
 10
15.7073449503466378
 20
16.8025107738429824
 42
-0.1092743849584161
 10
15.9672287802136044
 20
16.9730185497470494
 42
-0.0894144458589239
 10
16.249597151958028
 20
17.0254824807944516
 42
-0.1442794725258954
 10
16.6338954468802704
 20
16.9235525576166381
 42
-0.1501502099017894
 10
16.8780400974330149
 20
16.636499906314409
 10
16.6513209668352999
 20
16.4674910998688375
 10
16.6258384860408484
 20
16.4513771781899933
 10
16.6100993067266245
 20
16.4768596589844485
 42
0.1140804318626023
 10
16.6052276559865106
 20
16.5233277121978617
 42
0.0461095061682137
 10
16.5718755855349471
 20
16.5919055649241152
 42
0.1205634682736019
 10
16.4264755480607079
 20
16.7050777590406589
 42
0.0973965581775405
 10
16.2687090125538703
 20
16.735431890575228
 42
0.1710454528741701
 10
16.0404909124976598
 20
16.652426456810943
 42
0.1324894010124685
 10
15.8682967959527836
 20
16.4084691774405087
 42
0.0957756120555001
 10
15.8029042533258384
 20
16.0080569608394256
 42
0.1424637919354534
 10
15.9290050590219234
 20
15.4674910998688393
 42
0.2705536969347066
 10
16.2462244706764096
 20
15.271313471988007
 42
0.1360351973350449
 10
16.450459059396664
 20
15.3222784335769155
 42
0.1254759824622922
 10
16.6067266254450061
 20
15.4912872400224835
 10
16.8555555555555578
 20
15.3065392542626935
 42
-0.1424969433067539
 10
16.5924864155892848
 20
15.0494659921304095
 42
-0.1161683907371204
  0
LWPOLYLINE
  5
145
100
AcDbEntity
  8
VectorEngraving
 62
256
370
-1
 48
1.0
  6
BYLAYER
100
AcDbPolyline
 90
7
 70
129
 10
17.6305227655986521
 20
15.0033726812816184
 10
16.9923365186434339
 20
16.9970020610830055
 10
17.3498407344950358
 20
16.9970020610830055
 10
17.7676784710511519
 20
15.5999625257635373
 10
18.1566610455311981
 20
16.9970020610830055
 10
18.5044219599025688
 20
16.9970020610830055
 10
17.8726063331459635
 20
15.0033726812816184
  0
LWPOLYLINE
  5
146
100
AcDbEntity
  8
VectorEngraving
 62
256
370
-1
 48
1.0
  6
BYLAYER
100
AcDbPolyline
 90
7
 70
129
 10
20.7937230653925447
 20
15.0097433014802313
 10
20.7937230653925447
 20
16.604646805321341
 10
20.4335956529885721
 20
16.4768596589844485
 10
20.3567734682405863
 20
16.7163200299793893
 10
20.8862844294547507
 20
16.9970020610830055
 10
21.1542252201611412
 20
16.9970020610830055
 10
21.1542252201611412
 20
15.0097433014802313
  0
LWPOLYLINE
  5
147
100
AcDbEntity
  8
VectorEngraving
 62
256
370
-1
 48
1.0
  6
BYLAYER
100
AcDbPolyline
 90
12
 70
129
 10
28.8647367434888515
 20
14.9999999999999929
 10
28.8647367434888515
 20
15.2904253325838422
 10
29.2537193179688977
 20
15.2904253325838422
 10
29.2537193179688977
 20
16.696833427018916
 10
28.8868465430016883
 20
16.696833427018916
 10
28.8868465430016883
 20
16.9872587596027671
 10
29.9840921866216981
 20
16.9872587596027671
 10
29.9840921866216981
 20
16.696833427018916
 10
29.5951096121416519
 20
16.696833427018916
 10
29.5951096121416519
 20
15.2904253325838422
 10
30.0002061083005458
 20
15.2904253325838422
 10
30.0002061083005458
 20
14.9999999999999929
  0
LWPOLYLINE
  5
148
100
AcDbEntity
  8
VectorEngraving
 62
256
370
-1
 48
1.0
  6
BYLAYER
100
AcDbPolyline
 90
13
 70
129
 10
30.353962900505902
 20
16.9872587596027671
 10
30.7302042345887223
 20
16.9872587596027671
 10
31.4032415214539995
 20
15.6794079070638865
 10
31.3841296608581608
 20
16.9872587596027671
 10
31.7352632565111499
 20
16.9872587596027671
 10
31.7352632565111499
 20
16.9584035975266936
 42
0.1276856979477281
 10
31.7142776840921883
 20
16.9153082255948952
 42
0.0454369266293494
 10
31.7094060333520709
 20
16.8403597526700324
 10
31.7094060333520709
 20
14.9999999999999929
 10
31.3747611017425534
 20
14.9999999999999929
 10
30.679239272999812
 20
16.3940415964024666
 10
30.679239272999812
 20
14.9999999999999929
 10
30.353962900505902
 20
14.9999999999999929
  0
LWPOLYLINE
  5
149
100
AcDbEntity
  8
VectorEngraving
 62
256
370
-1
 48
1.0
  6
BYLAYER
100
AcDbPolyline
 90
8
 70
129
 10
40.7197114483792362
 20
14.9747048903878586
 42
-0.2591303879110593
 10
40.1647180063706202
 20
15.2426456810942526
 42
-0.1527047570207509
 10
39.97659733932921
 20
16.004871650740121
 42
-0.1520552001393986
 10
40.1647180063706202
 20
16.7575416900880683
 42
-0.2609893822229438
 10
40.7197114483792362
 20
17.0286677908937634
 42
-0.2598887638008018
 10
41.270020610830052
 20
16.7575416900880683
 42
-0.153235787644077
 10
41.4598276185122714
 20
16.004871650740121
 42
-0.153892492518211
 10
41.270020610830052
 20
15.2426456810942526
 42
-0.258045980419992
  0
LWPOLYLINE
  5
14A
100
AcDbEntity
  8
VectorEngraving
 62
256
370
-1
 48
1.0
  6
BYLAYER
100
AcDbPolyline
 90
8
 70
129
 10
40.7197114483792362
 20
15.2681281618887041
 42
0.2924199676809281
 10
41.0003934794828524
 20
15.4515645493723106
 42
0.1214329083418257
 10
41.1023234026606659
 20
16.0082443320217358
 42
0.1202673064395291
 10
41.0003934794828524
 20
16.545437511710702
 42
0.296602212494704
 10
40.7197114483792362
 20
16.7352445193929213
 42
0.2995688277754362
 10
40.4341577665355061
 20
16.545437511710702
 42
0.1186384765761734
 10
40.3337268128161881
 20
16.0082443320217358
 42
0.1197837217357247
 10
40.4341577665355061
 20
15.4515645493723106
 42
0.2952609534183112
  0
LWPOLYLINE
  5
14B
100
AcDbEntity
  8
VectorEngraving
 62
256
370
-1
 48
1.0
  6
BYLAYER
100
AcDbPolyline
 90
17
 70
129
 10
42.3078695896571091
 20
14.9713322091062455
 42
-0.2187932598690873
 10
41.8021547685965871
 20
15.1660108675285787
 42
-0.1902783405960306
 10
41.6250890013115935
 20
15.7084504403222827
 10
41.6250890013115935
 20
17.0001873711823173
 10
42.0110736368746487
 20
17.0001873711823173
 10
42.0110736368746487
 20
16.9713322091062437
 42
0.1246165463758077
 10
41.990462806820311
 20
16.9282368371744454
 42
0.0454369266295049
 10
41.98559115608019
 20
16.8532883642495825
 10
41.98559115608019
 20
15.7050777590406643
 42
0.1333400107447665
 10
42.0558553494472491
 20
15.382799325463747
 42
0.2785909262070423
 10
42.3108675285741
 20
15.2647554806070858
 42
0.2726441709264811
 10
42.5694397601648831
 20
15.382799325463747
 42
0.137686288424883
 10
42.6428892636312469
 20
15.7148210605208938
 10
42.6428892636312469
 20
17.0001873711823173
 10
42.9936481169196156
 20
17.0001873711823173
 10
42.9936481169196156
 20
15.7178189994378901
 42
-0.2083302145650404
 10
42.8023421397789008
 20
15.1532696271313512
 42
-0.1989968553203979
  0
LWPOLYLINE
  5
14C
100
AcDbEntity
  8
VectorEngraving
 62
256
370
-1
 48
1.0
  6
BYLAYER
100
AcDbPolyline
 90
8
 70
129
 10
43.7142776840921812
 20
15.0129286115795431
 10
43.7142776840921812
 20
16.6970207982012404
 10
43.1783961026794074
 20
16.6970207982012404
 10
43.1783961026794074
 20
17.0001873711823173
 10
44.6234026606707843
 20
17.0001873711823173
 10
44.6234026606707843
 20
16.6970207982012404
 10
44.0586659171819335
 20
16.6970207982012404
 10
44.0586659171819335
 20
15.0129286115795431
  0
LWPOLYLINE
  5
14D
100
AcDbEntity
  8
VectorEngraving
 62
256
370
-1
 48
1.0
  6
BYLAYER
100
AcDbPolyline
 90
26
 70
129
 10
47.8004684279557779
 20
14.9777028293048406
 42
-0.1371812061519445
 10
47.4032415214539995
 20
15.084691774405087
 42
-0.1521335773926314
 10
47.1161888701517668
 20
15.4180251077384192
 42
-0.1095731750364364
 10
47.0093872962338395
 20
15.9955030916244993
 42
-0.0854969824068419
 10
47.0811504590593941
 20
16.4882893011054783
 42
-0.1105493068352991
 10
47.2709574667416135
 20
16.80569608394228
 42
-0.1092743849584238
 10
47.5308412966085783
 20
16.9762038598463469
 42
-0.0894144458589231
 10
47.8132096683530037
 20
17.0286677908937492
 42
-0.1442794725259029
 10
48.1975079632752426
 20
16.9267378677159357
 42
-0.1501502099018007
 10
48.4416526138279906
 20
16.6396852164137066
 10
48.2149334832302756
 20
16.4706764099681351
 10
48.189451002435824
 20
16.4545624882892909
 10
48.1737118231216002
 20
16.4800449690837461
 42
0.1140804318624716
 10
48.1688401723814863
 20
16.5265130222971592
 42
0.0461095061682995
 10
48.1354881019299228
 20
16.5950908750234127
 42
0.1205634682735496
 10
47.9900880644556835
 20
16.7082630691399565
 42
0.0973965581775394
 10
47.8323215289488459
 20
16.7386172006745255
 42
0.1710454528741581
 10
47.6041034288926355
 20
16.6556117669102406
 42
0.1324894010124682
 10
47.4319093123477558
 20
16.4116544875398063
 42
0.0957756120555351
 10
47.3665167697208176
 20
16.0112422709387268
 42
0.1424637919354394
 10
47.4926175754169009
 20
15.4706764099681369
 42
0.2705536969346963
 10
47.8098369870713853
 20
15.2744987820873046
 42
0.1360351973350408
 10
48.0140715757916396
 20
15.3254637436762131
 42
0.1254759824622971
 10
48.1703391418399818
 20
15.494472550121781
 10
48.41916807195053
 20
15.309724564361991
 42
-0.14249694330676
 10
48.1560989319842605
 20
15.052651302229707
 42
-0.1161683907371078
  0
LWPOLYLINE
  5
14E
100
AcDbEntity
  8
VectorEngraving
 62
256
370
-1
 48
1.0
  6
BYLAYER
100
AcDbPolyline
 90
9
 70
129
 10
48.6867341202923001
 20
17.0001873711823031
 10
49.0790893760539575
 20
17.0001873711823031
 10
49.0790893760539575
 20
16.9713322091062295
 42
0.152309619973032
 10
49.0552932359003151
 20
16.9282368371744312
 42
0.0437068677126907
 10
49.0506089563425149
 20
16.8532883642495683
 10
49.0506089563425149
 20
15.3063518830803726
 10
49.962731871838109
 20
15.3063518830803726
 10
49.962731871838109
 20
15.0129286115795288
 10
48.6867341202923001
 20
15.0129286115795288
  0
LWPOLYLINE
  5
14F
100
AcDbEntity
  8
VectorEngraving
 62
256
370
-1
 48
1.0
  6
BYLAYER
100
AcDbPolyline
 90
12
 70
129
 10
50.3228592842420781
 20
15.0129286115795288
 10
50.3228592842420781
 20
15.3033539441633781
 10
50.7118418587221242
 20
15.3033539441633781
 10
50.7118418587221242
 20
16.709762038598452
 10
50.3449690837549184
 20
16.709762038598452
 10
50.3449690837549184
 20
17.0001873711823031
 10
51.4422147273749246
 20
17.0001873711823031
 10
51.4422147273749246
 20
16.709762038598452
 10
51.0532321528948785
 20
16.709762038598452
 10
51.0532321528948785
 20
15.3033539441633781
 10
51.4583286490537759
 20
15.3033539441633781
 10
51.4583286490537759
 20
15.0129286115795288
  0
LWPOLYLINE
  5
150
100
AcDbEntity
  8
VectorEngraving
 62
256
370
-1
 48
1.0
  6
BYLAYER
100
AcDbPolyline
 90
11
 70
129
 10
51.8473112235338149
 20
15.0129286115795288
 10
51.8473112235338149
 20
17.0001873711823031
 10
52.5233464493160938
 20
17.0001873711823031
 42
-0.1226157369347534
 10
52.9029604646805325
 20
16.9203672475173228
 42
-0.1499740507230511
 10
53.1246205733558128
 20
16.7082630691399565
 42
-0.1268020082315405
 10
53.1963837361813745
 20
16.4163387670976135
 42
-0.1268596194922736
 10
53.126306913996622
 20
16.13097245643619
 42
-0.1500081120373399
 10
52.9093310848791418
 20
15.9237399287989412
 42
-0.1226248171483414
 10
52.5394603709949379
 20
15.8456061457747701
 10
52.2138092561364004
 20
15.8456061457747701
 10
52.2138092561364004
 20
15.0129286115795288
  0
LWPOLYLINE
  5
151
100
AcDbEntity
  8
VectorEngraving
 62
256
370
-1
 48
1.0
  6
BYLAYER
100
AcDbPolyline
 90
7
 70
129
 10
52.2138092561364004
 20
16.145400037474225
 10
52.5139778902004863
 20
16.145400037474225
 42
0.1964422541879215
 10
52.7466928986321903
 20
16.2218474798575869
 42
0.2132598586825643
 10
52.8265130222971706
 20
16.41633876709761
 42
0.2129058125030709
 10
52.7466928986321903
 20
16.6110174255199468
 42
0.1973302280816543
 10
52.5169758291174773
 20
16.6876522390856188
 10
52.2138092561364004
 20
16.6876522390856188
  0
LWPOLYLINE
  5
152
100
AcDbEntity
  8
VectorEngraving
 62
256
370
-1
 48
1.0
  6
BYLAYER
100
AcDbPolyline
 90
8
 70
129
 10
55.6869214914746067
 20
14.9747048903878444
 42
-0.2591303879110729
 10
55.1319280494659907
 20
15.2426456810942383
 42
-0.1527047570207534
 10
54.9438073824245805
 20
16.0048716507401068
 42
-0.1520552001394007
 10
55.1319280494659907
 20
16.7575416900880541
 42
-0.260989382222949
 10
55.6869214914746067
 20
17.0286677908937492
 42
-0.259888763800794
 10
56.2372306539254225
 20
16.7575416900880541
 42
-0.1532357876440907
 10
56.4270376616076419
 20
16.0048716507401103
 42
-0.1538924925182281
 10
56.2372306539254225
 20
15.2426456810942383
 42
-0.2580459804199755
  0
LWPOLYLINE
  5
153
100
AcDbEntity
  8
VectorEngraving
 62
256
370
-1
 48
1.0
  6
BYLAYER
100
AcDbPolyline
 90
8
 70
129
 10
55.6869214914746067
 20
15.2681281618887041
 42
0.2924199676809807
 10
55.9676035225782229
 20
15.4515645493722964
 42
0.121432908341841
 10
56.0695334457560435
 20
16.0082443320217251
 42
0.1202673064395437
 10
55.9676035225782229
 20
16.5454375117106878
 42
0.2966022124947389
 10
55.6869214914746067
 20
16.7352445193929071
 42
0.2995688277754087
 10
55.4013678096308766
 20
16.5454375117106878
 42
0.1186384765762004
 10
55.3009368559115586
 20
16.0082443320217251
 42
0.1197837217357488
 10
55.4013678096308766
 20
15.4515645493722964
 42
0.2952609534183048
  0
LWPOLYLINE
  5
154
100
AcDbEntity
  8
VectorEngraving
 62
256
370
-1
 48
1.0
  6
BYLAYER
100
AcDbPolyline
 90
17
 70
129
 10
57.2750796327524796
 20
14.971332209106226
 42
-0.2187932598690848
 10
56.7693648116919576
 20
15.1660108675285645
 42
-0.1902783405960056
 10
56.592299044406964
 20
15.7084504403222702
 10
56.592299044406964
 20
17.0001873711823031
 10
56.9782836799700192
 20
17.0001873711823031
 10
56.9782836799700192
 20
16.9713322091062295
 42
0.1246165463759926
 10
56.9576728499156815
 20
16.9282368371744312
 42
0.0454369266295082
 10
56.9528011991755605
 20
16.8532883642495683
 10
56.9528011991755605
 20
15.7050777590406501
 42
0.1333400107448347
 10
57.0230653925426267
 20
15.3827993254637327
 42
0.2785909262070798
 10
57.2780775716694777
 20
15.2647554806070715
 42
0.2726441709264251
 10
57.5366498032602536
 20
15.3827993254637327
 42
0.1376862884248681
 10
57.6100993067266245
 20
15.7148210605208813
 10
57.6100993067266245
 20
17.0001873711823031
 10
57.9608581600149861
 20
17.0001873711823031
 10
57.9608581600149861
 20
15.7178189994378759
 42
-0.208330214565023
 10
57.7695521828742713
 20
15.153269627131337
 42
-0.1989968553204049
  0
LWPOLYLINE
  5
155
100
AcDbEntity
  8
VectorEngraving
 62
256
370
-1
 48
1.0
  6
BYLAYER
100
AcDbPolyline
 90
8
 70
129
 10
58.6814877271875588
 20
15.0129286115795288
 10
58.6814877271875588
 20
16.6970207982012262
 10
58.1456061457747779
 20
16.6970207982012262
 10
58.1456061457747779
 20
17.0001873711823031
 10
59.5906127037661548
 20
17.0001873711823031
 10
59.5906127037661548
 20
16.6970207982012262
 10
59.025875960277304
 20
16.6970207982012262
 10
59.025875960277304
 20
15.0129286115795288
  0
LWPOLYLINE
  5
156
100
AcDbEntity
  8
VectorEngraving
 62
256
370
-1
 48
1.0
  6
BYLAYER
100
AcDbPolyline
 90
26
 70
129
 10
24.800468427955785
 20
51.9745175192055484
 42
-0.1371812061519631
 10
24.4032415214540066
 20
52.0815064643057895
 42
-0.1521335773926439
 10
24.1161888701517739
 20
52.4148397976391252
 42
-0.10957317503643
 10
24.009387296233843
 20
52.9923177815252018
 42
-0.0854969824068512
 10
24.0811504590594012
 20
53.4851039910061843
 42
-0.1105493068352932
 10
24.2709574667416206
 20
53.8025107738429824
 42
-0.1092743849584244
 10
24.5308412966085854
 20
53.9730185497470529
 42
-0.0894144458589387
 10
24.8132096683530108
 20
54.0254824807944587
 42
-0.1442794725258771
 10
25.1975079632752532
 20
53.9235525576166381
 42
-0.1501502099018068
 10
25.4416526138279977
 20
53.6364999063144126
 10
25.2149334832302827
 20
53.4674910998688446
 10
25.1894510024358311
 20
53.4513771781900004
 10
25.1737118231216073
 20
53.476859658984452
 42
0.1140804318626232
 10
25.1688401723814934
 20
53.5233277121978688
 42
0.0461095061680599
 10
25.1354881019299299
 20
53.5919055649241187
 42
0.1205634682736334
 10
24.9900880644556906
 20
53.7050777590406625
 42
0.0973965581775161
 10
24.832321528948853
 20
53.7354318905752351
 42
0.1710454528741381
 10
24.6041034288926426
 20
53.652426456810943
 42
0.1324894010125036
 10
24.4319093123477664
 20
53.4084691774405087
 42
0.0957756120555064
 10
24.3665167697208211
 20
53.0080569608394327
 42
0.1424637919354576
 10
24.4926175754169044
 20
52.4674910998688446
 42
0.270553696934698
 10
24.8098369870713924
 20
52.2713134719880088
 42
0.1360351973350659
 10
25.0140715757916468
 20
52.3222784335769191
 42
0.1254759824622734
 10
25.1703391418399889
 20
52.491287240022487
 10
25.4191680719505371
 20
52.3065392542626952
 42
-0.1424969433067593
 10
25.1560989319842676
 20
52.0494659921304148
 42
-0.1161683907371353
  0
LWPOLYLINE
  5
157
100
AcDbEntity
  8
VectorEngraving
 62
256
370
-1
 48
1.0
  6
BYLAYER
100
AcDbPolyline
 90
9
 70
129
 10
25.6867341202923036
 20
53.997002061083009
 10
26.0790893760539682
 20
53.997002061083009
 10
26.0790893760539682
 20
53.968146899006932
 42
0.152309619973115
 10
26.0552932359003222
 20
53.9250515270751407
 42
0.0437068677127217
 10
26.0506089563425185
 20
53.8501030541502743
 10
26.0506089563425185
 20
52.3031665729810769
 10
26.9627318718381161
 20
52.3031665729810769
 10
26.9627318718381161
 20
52.0097433014802348
 10
25.6867341202923036
 20
52.0097433014802348
  0
LWPOLYLINE
  5
158
100
AcDbEntity
  8
VectorEngraving
 62
256
370
-1
 48
1.0
  6
BYLAYER
100
AcDbPolyline
 90
12
 70
129
 10
27.3228592842420888
 20
52.0097433014802348
 10
27.3228592842420888
 20
52.3001686340640859
 10
27.7118418587221313
 20
52.3001686340640859
 10
27.7118418587221313
 20
53.706576728499158
 10
27.344969083754922
 20
53.706576728499158
 10
27.344969083754922
 20
53.997002061083009
 10
28.4422147273749353
 20
53.997002061083009
 10
28.4422147273749353
 20
53.706576728499158
 10
28.0532321528948891
 20
53.706576728499158
 10
28.0532321528948891
 20
52.3001686340640859
 10
28.4583286490537795
 20
52.3001686340640859
 10
28.4583286490537795
 20
52.0097433014802348
  0
LWPOLYLINE
  5
159
100
AcDbEntity
  8
VectorEngraving
 62
256
370
-1
 48
1.0
  6
BYLAYER
100
AcDbPolyline
 90
11
 70
129
 10
28.8473112235338256
 20
52.0097433014802348
 10
28.8473112235338256
 20
53.997002061083009
 10
29.5233464493161009
 20
53.997002061083009
 42
-0.1226157369347254
 10
29.902960464680536
 20
53.9171819374180288
 42
-0.1499740507230447
 10
30.1246205733558234
 20
53.7050777590406625
 42
-0.1268020082315401
 10
30.1963837361813816
 20
53.4131534569983089
 42
-0.126859619492307
 10
30.1263069139966326
 20
53.1277871463368996
 42
-0.1500081120373333
 10
29.9093310848791489
 20
52.9205546186996472
 42
-0.1226248171483164
 10
29.539460370994945
 20
52.8424208356754761
 10
29.2138092561364111
 20
52.8424208356754761
 10
29.2138092561364111
 20
52.0097433014802348
  0
LWPOLYLINE
  5
15A
100
AcDbEntity
  8
VectorEngraving
 62
256
370
-1
 48
1.0
  6
BYLAYER
100
AcDbPolyline
 90
7
 70
129
 10
29.2138092561364111
 20
53.1422147273749346
 10
29.5139778902004934
 20
53.1422147273749346
 42
0.1964422541880063
 10
29.7466928986321939
 20
53.2186621697582964
 42
0.2132598586825799
 10
29.8265130222971742
 20
53.413153456998316
 42
0.212905812503083
 10
29.7466928986321939
 20
53.6078321154206492
 42
0.1973302280817354
 10
29.5169758291174844
 20
53.6844669289863248
 10
29.2138092561364111
 20
53.6844669289863248
  0
LWPOLYLINE
  5
15B
100
AcDbEntity
  8
VectorEngraving
 62
256
370
-1
 48
1.0
  6
BYLAYER
100
AcDbPolyline
 90
12
 70
129
 10
32.1064455686715462
 20
52.0097433014802348
 10
32.1064455686715462
 20
52.3001686340640859
 10
32.4954281431515852
 20
52.3001686340640859
 10
32.4954281431515852
 20
53.706576728499158
 10
32.1285553681843794
 20
53.706576728499158
 10
32.1285553681843794
 20
53.997002061083009
 10
33.2258010118043856
 20
53.997002061083009
 10
33.2258010118043856
 20
53.706576728499158
 10
32.8368184373243466
 20
53.706576728499158
 10
32.8368184373243466
 20
52.3001686340640859
 10
33.2419149334832369
 20
52.3001686340640859
 10
33.2419149334832369
 20
52.0097433014802348
  0
LWPOLYLINE
  5
15C
100
AcDbEntity
  8
VectorEngraving
 62
256
370
-1
 48
1.0
  6
BYLAYER
100
AcDbPolyline
 90
13
 70
129
 10
33.5956717256885966
 20
53.997002061083009
 10
33.9719130597714098
 20
53.997002061083009
 10
34.6449503466366906
 20
52.689151208544132
 10
34.6258384860408484
 20
53.997002061083009
 10
34.9769720816938374
 20
53.997002061083009
 10
34.9769720816938374
 20
53.968146899006932
 42
0.1276856979475122
 10
34.9559865092748794
 20
53.9250515270751407
 42
0.045436926629476
 10
34.9511148585347584
 20
53.8501030541502743
 10
34.9511148585347584
 20
52.0097433014802348
 10
34.6164699269252409
 20
52.0097433014802348
 10
33.9209480981825067
 20
53.4037848978827085
 10
33.9209480981825067
 20
52.0097433014802348
 10
33.5956717256885966
 20
52.0097433014802348
  0
LWPOLYLINE
  5
15D
100
AcDbEntity
  8
VectorEngraving
 62
256
370
-1
 48
1.0
  6
BYLAYER
100
AcDbPolyline
 90
8
 70
129
 10
35.6814877271875659
 20
52.0097433014802348
 10
35.6814877271875659
 20
53.6938354881019322
 10
35.145606145774785
 20
53.6938354881019322
 10
35.145606145774785
 20
53.997002061083009
 10
36.5906127037661619
 20
53.997002061083009
 10
36.5906127037661619
 20
53.6938354881019322
 10
36.0258759602773111
 20
53.6938354881019322
 10
36.0258759602773111
 20
52.0097433014802348
  0
LWPOLYLINE
  5
15E
100
AcDbEntity
  8
VectorEngraving
 62
256
370
-1
 48
1.0
  6
BYLAYER
100
AcDbPolyline
 90
26
 70
129
 10
3.8308225594903531
 20
51.9745175192055484
 42
-0.1371812061519608
 10
3.4335956529885729
 20
52.0815064643057895
 42
-0.1521335773926527
 10
3.1465430016863438
 20
52.4148397976391252
 42
-0.1095731750364372
 10
3.0397414277684121
 20
52.9923177815252018
 42
-0.0854969824068524
 10
3.1115045905939693
 20
53.4851039910061843
 42
-0.1105493068352976
 10
3.3013115982761878
 20
53.8025107738429824
 42
-0.1092743849584173
 10
3.5611954281431544
 20
53.9730185497470529
 42
-0.0894144458589363
 10
3.8435637998875798
 20
54.0254824807944587
 42
-0.144279472525875
 10
4.2278620948098204
 20
53.9235525576166381
 42
-0.1501502099018079
 10
4.4720067453625658
 20
53.6364999063144126
 10
4.2452876147648517
 20
53.4674910998688446
 10
4.2198051339703984
 20
53.4513771781900004
 10
4.2040659546561763
 20
53.476859658984452
 42
0.1140804318625834
 10
4.1991943039160606
 20
53.5233277121978688
 42
0.0461095061681173
 10
4.1658422334644962
 20
53.5919055649241187
 42
0.1205634682736529
 10
4.0204421959902596
 20
53.7050777590406625
 42
0.097396558177524
 10
3.8626756604834203
 20
53.7354318905752351
 42
0.1710454528741307
 10
3.6344575604272089
 20
53.652426456810943
 42
0.1324894010125274
 10
3.4622634438823336
 20
53.4084691774405087
 42
0.095775612055514
 10
3.3968709012553902
 20
53.0080569608394327
 42
0.1424637919354543
 10
3.5229717069514734
 20
52.4674910998688446
 42
0.2705536969347058
 10
3.8401911186059614
 20
52.2713134719880088
 42
0.1360351973350603
 10
4.0444257073262158
 20
52.3222784335769191
 42
0.1254759824622525
 10
4.2006932733745579
 20
52.491287240022487
 10
4.449522203485107
 20
52.3065392542626952
 42
-0.1424969433067525
 10
4.1864530635188331
 20
52.0494659921304148
 42
-0.1161683907371375
  0
LWPOLYLINE
  5
15F
100
AcDbEntity
  8
VectorEngraving
 62
256
370
-1
 48
1.0
  6
BYLAYER
100
AcDbPolyline
 90
7
 70
129
 10
5.2244894135282021
 20
52.0033726812816184
 10
4.5863031665729839
 20
53.997002061083009
 10
4.9438073824245858
 20
53.997002061083009
 10
5.3616451189807037
 20
52.5999625257635373
 10
5.7506276934607481
 20
53.997002061083009
 10
6.0983886078321179
 20
53.997002061083009
 10
5.4665729810755135
 20
52.0033726812816184
  0
LWPOLYLINE
  5
160
100
AcDbEntity
  8
VectorEngraving
 62
256
370
-1
 48
1.0
  6
BYLAYER
100
AcDbPolyline
 90
7
 70
129
 10
8.3876897133220929
 20
52.0097433014802348
 10
8.3876897133220929
 20
53.6046468053213445
 10
8.0275623009181203
 20
53.476859658984452
 10
7.9507401161701354
 20
53.7163200299793928
 10
8.4802510773843007
 20
53.997002061083009
 10
8.7481918680906894
 20
53.997002061083009
 10
8.7481918680906894
 20
52.0097433014802348
  0
LWPOLYLINE
  5
161
100
AcDbEntity
  8
VectorEngraving
 62
256
370
-1
 48
1.0
  6
BYLAYER
100
AcDbPolyline
 90
9
 70
129
 10
11.0952032977328106
 20
53.997002061083009
 10
11.4875585534944751
 20
53.997002061083009
 10
11.4875585534944751
 20
53.968146899006932
 42
0.1523096199731004
 10
11.4637624133408309
 20
53.9250515270751407
 42
0.0437068677127209
 10
11.4590781337830272
 20
53.8501030541502743
 10
11.4590781337830272
 20
52.3031665729810769
 10
12.3712010492786231
 20
52.3031665729810769
 10
12.3712010492786231
 20
52.0097433014802348
 10
11.0952032977328106
 20
52.0097433014802348
  0
LWPOLYLINE
  5
162
100
AcDbEntity
  8
VectorEngraving
 62
256
370
-1
 48
1.0
  6
BYLAYER
100
AcDbPolyline
 90
7
 70
129
 10
13.1971332209106258
 20
52.0033726812816184
 10
12.5589469739554076
 20
53.997002061083009
 10
12.9164511898070096
 20
53.997002061083009
 10
13.3342889263631275
 20
52.5999625257635373
 10
13.7232715008431718
 20
53.997002061083009
 10
14.0710324152145425
 20
53.997002061083009
 10
13.4392167884579372
 20
52.0033726812816184
  0
LWPOLYLINE
  5
163
100
AcDbEntity
  8
VectorEngraving
 62
256
370
-1
 48
1.0
  6
BYLAYER
100
AcDbPolyline
 90
9
 70
129
 10
14.2842608206857804
 20
53.997002061083009
 10
14.6766160764474449
 20
53.997002061083009
 10
14.6766160764474449
 20
53.968146899006932
 42
0.1523096199730308
 10
14.6528199362938008
 20
53.9250515270751407
 42
0.0437068677127684
 10
14.648135656735997
 20
53.8501030541502743
 10
14.648135656735997
 20
52.3031665729810769
 10
15.5602585722315929
 20
52.3031665729810769
 10
15.5602585722315929
 20
52.0097433014802348
 10
14.2842608206857804
 20
52.0097433014802348
  0
LWPOLYLINE
  5
164
100
AcDbEntity
  8
VectorEngraving
 62
256
370
-1
 48
1.0
  6
BYLAYER
100
AcDbPolyline
 90
26
 70
129
 10
3.8308225594903456
 20
69.9760164886640439
 42
-0.1371812061519581
 10
3.4335956529885658
 20
70.0830054337642849
 42
-0.1521335773926333
 10
3.1465430016863367
 20
70.4163387670976135
 42
-0.1095731750364287
 10
3.0397414277684049
 20
70.9938167509836973
 42
-0.0854969824068515
 10
3.1115045905939622
 20
71.4866029604646798
 42
-0.110549306835335
 10
3.3013115982761807
 20
71.8040097433014779
 42
-0.1092743849584584
 10
3.5611954281431473
 20
71.9745175192055342
 42
-0.0894144458590148
 10
3.8435637998875727
 20
72.0269814502529471
 42
-0.1442794725259109
 10
4.2278620948098133
 20
71.9250515270751265
 42
-0.1501502099017851
 10
4.4720067453625587
 20
71.6379988757728938
 10
4.2452876147648446
 20
71.468990069327333
 10
4.2198051339703913
 20
71.4528761476484817
 10
4.2040659546561692
 20
71.4783586284429333
 42
0.1140804318625996
 10
4.1991943039160535
 20
71.52482668165635
 42
0.046109506168257
 10
4.1658422334644891
 20
71.5934045343826
 42
0.1205634682735886
 10
4.0204421959902525
 20
71.7065767284991438
 42
0.0973965581775639
 10
3.8626756604834132
 20
71.7369308600337234
 42
0.1710454528741017
 10
3.6344575604272018
 20
71.6539254262694385
 42
0.1324894010124756
 10
3.4622634438823265
 20
71.4099681468990042
 42
0.0957756120555063
 10
3.396870901255383
 20
71.0095559302979069
 42
0.1424637919354515
 10
3.5229717069514663
 20
70.468990069327333
 42
0.2705536969347048
 10
3.8401911186059543
 20
70.2728124414465043
 42
0.1360351973350992
 10
4.0444257073262087
 20
70.3237774030354075
 42
0.125475982462227
 10
4.2006932733745508
 20
70.4927862094809825
 10
4.4495222034850999
 20
70.3080382237211836
 42
-0.1424969433067575
 10
4.186453063518826
 20
70.0509649615889032
 42
-0.1161683907371924
  0
LWPOLYLINE
  5
165
100
AcDbEntity
  8
VectorEngraving
 62
256
370
-1
 48
1.0
  6
BYLAYER
100
AcDbPolyline
 90
7
 70
129
 10
5.224489413528195
 20
70.0048716507401139
 10
4.5863031665729768
 20
71.9985010305414903
 10
4.9438073824245787
 20
71.9985010305414903
 10
5.3616451189806966
 20
70.6014614952220256
 10
5.750627693460741
 20
71.9985010305414903
 10
6.0983886078321108
 20
71.9985010305414903
 10
5.4665729810755064
 20
70.0048716507401139
  0
LWPOLYLINE
  5
166
100
AcDbEntity
  8
VectorEngraving
 62
256
370
-1
 48
1.0
  6
BYLAYER
100
AcDbPolyline
 90
8
 70
129
 10
8.5218474798575929
 20
69.9730185497470387
 42
-0.2618061221865411
 10
8.025875960277304
 20
70.2377740303541316
 42
-0.150803512793753
 10
7.8424395727937002
 20
70.9938167509836973
 42
-0.1473654879670507
 10
8.025875960277304
 20
71.7526700393479473
 42
-0.2669587402895154
 10
8.5218474798575929
 20
72.0269814502529471
 42
-0.2669587402895213
 10
9.0178189994378819
 20
71.7526700393479473
 42
-0.1473654879670523
 10
9.2012553869214866
 20
70.9938167509836973
 42
-0.1508035127937499
 10
9.0178189994378819
 20
70.2377740303541316
 42
-0.2618061221865422
  0
LWPOLYLINE
  5
167
100
AcDbEntity
  8
VectorEngraving
 62
256
370
-1
 48
1.0
  6
BYLAYER
100
AcDbPolyline
 90
5
 70
129
 10
8.177459246767846
 20
70.9938167509836831
 42
0.0283088866191458
 10
8.1902004871650682
 20
70.7513584410717584
 10
8.8025295109612109
 20
71.4783586284429333
 42
0.3501942715204323
 10
8.5218474798575929
 20
71.7369308600337234
 42
0.3230366028417547
 10
8.2634626194491254
 20
71.5407532321528947
 42
0.0999785685814369
  0
LWPOLYLINE
  5
168
100
AcDbEntity
  8
VectorEngraving
 62
256
370
-1
 48
1.0
  6
BYLAYER
100
AcDbPolyline
 90
5
 70
129
 10
8.5218474798575929
 20
70.2503278995690295
 42
0.3213611323087679
 10
8.7802323402660623
 20
70.4433202173505606
 42
0.1008322000318675
 10
8.8662357129473435
 20
70.9938167509836973
 42
0.0292151006518337
 10
8.8534944725501177
 20
71.2265317594153942
 10
8.2411654487539767
 20
70.5025295109612102
 42
0.348721578014091
  0
LWPOLYLINE
  5
169
100
AcDbEntity
  8
VectorEngraving
 62
256
370
-1
 48
1.0
  6
BYLAYER
100
AcDbPolyline
 90
9
 70
129
 10
11.0952032977328034
 20
71.9985010305414903
 10
11.487558553494468
 20
71.9985010305414903
 10
11.487558553494468
 20
71.9696458684654203
 42
0.1523096199736292
 10
11.4637624133408238
 20
71.926550496533622
 42
0.0437068677127393
 10
11.4590781337830201
 20
71.8516020236087627
 10
11.4590781337830201
 20
70.3046655424395652
 10
12.371201049278616
 20
70.3046655424395652
 10
12.371201049278616
 20
70.0112422709387232
 10
11.0952032977328034
 20
70.0112422709387232
  0
LWPOLYLINE
  5
16A
100
AcDbEntity
  8
VectorEngraving
 62
256
370
-1
 48
1.0
  6
BYLAYER
100
AcDbPolyline
 90
7
 70
129
 10
13.1971332209106187
 20
70.0048716507401139
 10
12.5589469739554005
 20
71.9985010305414903
 10
12.9164511898070025
 20
71.9985010305414903
 10
13.3342889263631204
 20
70.6014614952220256
 10
13.7232715008431647
 20
71.9985010305414903
 10
14.0710324152145354
 20
71.9985010305414903
 10
13.4392167884579301
 20
70.0048716507401139
  0
LWPOLYLINE
  5
16B
100
AcDbEntity
  8
VectorEngraving
 62
256
370
-1
 48
1.0
  6
BYLAYER
100
AcDbPolyline
 90
9
 70
129
 10
14.2842608206857733
 20
71.9985010305414903
 10
14.6766160764474378
 20
71.9985010305414903
 10
14.6766160764474378
 20
71.9696458684654203
 42
0.152309619973568
 10
14.6528199362937936
 20
71.926550496533622
 42
0.0437068677127668
 10
14.6481356567359899
 20
71.8516020236087627
 10
14.6481356567359899
 20
70.3046655424395652
 10
15.5602585722315858
 20
70.3046655424395652
 10
15.5602585722315858
 20
70.0112422709387232
 10
14.2842608206857733
 20
70.0112422709387232
  0
LWPOLYLINE
  5
16C
100
AcDbEntity
  8
VectorEngraving
 62
256
370
-1
 48
1.0
  6
BYLAYER
100
AcDbPolyline
 90
13
 70
129
 10
44.2647742177253036
 20
70.0095559302979211
 10
44.2647742177253036
 20
71.9968146899006882
 10
44.8932171632002905
 20
71.9968146899006882
 42
-0.1905232060051428
 10
45.425726063331453
 20
71.8373618137530485
 42
-0.2148899109718652
 10
45.5947348697770209
 20
71.4129660858160094
 42
-0.1001913794400954
 10
45.5486415589282245
 20
71.1944912872400266
 42
-0.0965402896310018
 10
45.4178564736743411
 20
70.9983136593591979
 42
-0.1106023788063643
 10
45.221866216975819
 20
70.8707138842046049
 10
45.6490725126475425
 20
70.0095559302979211
 10
45.2694584972831109
 20
70.0095559302979211
 10
44.867734682405839
 20
70.835862844294553
 10
44.6282743114108911
 20
70.835862844294553
 10
44.6282743114108911
 20
70.0095559302979211
  0
LWPOLYLINE
  5
16D
100
AcDbEntity
  8
VectorEngraving
 62
256
370
-1
 48
1.0
  6
BYLAYER
100
AcDbPolyline
 90
7
 70
129
 10
44.6282743114108911
 20
71.1356567359940044
 10
44.9186996439947421
 20
71.1356567359940044
 42
0.1918312228860136
 10
45.1482293423271415
 20
71.2074198988195661
 42
0.2154606779080585
 10
45.2248641558928171
 20
71.4035975267003948
 42
0.1955098707729501
 10
45.1482293423271415
 20
71.601274124039719
 42
0.2146607426726463
 10
44.9186996439947421
 20
71.684279557804004
 10
44.6282743114108911
 20
71.684279557804004
  0
LWPOLYLINE
  5
16E
100
AcDbEntity
  8
VectorEngraving
 62
256
370
-1
 48
1.0
  6
BYLAYER
100
AcDbPolyline
 90
12
 70
129
 10
45.8784148397976281
 20
70.0095559302979211
 10
45.8784148397976281
 20
71.9968146899006882
 10
47.1735244519392793
 20
71.9968146899006882
 10
47.1735244519392793
 20
71.7033914183998462
 10
46.2291736930859969
 20
71.7033914183998462
 10
46.2291736930859969
 20
71.1929923177815311
 10
47.0045156454937114
 20
71.1929923177815311
 10
47.0045156454937114
 20
70.8961963649990707
 10
46.2291736930859969
 20
70.8961963649990707
 10
46.2291736930859969
 20
70.3029792017987631
 10
47.1637811504590516
 20
70.3029792017987631
 10
47.1637811504590516
 20
70.0095559302979211
  0
LWPOLYLINE
  5
16F
100
AcDbEntity
  8
VectorEngraving
 62
256
370
-1
 48
1.0
  6
BYLAYER
100
AcDbPolyline
 90
39
 70
129
 10
48.0822746861532622
 20
69.9743301480232418
 42
-0.0824589363782536
 10
47.7105302604459354
 20
70.0333520704515706
 42
-0.1239231858746538
 10
47.4219786396852072
 20
70.2137905190181755
 10
47.5973580663293916
 20
70.5102117294360085
 10
47.6100993067266174
 20
70.5356942102304743
 10
47.6389544688026874
 20
70.5199550309162504
 42
0.0468697015838777
 10
47.6563799887577204
 20
70.4704890387858427
 42
0.0914502355628216
 10
47.7056586097058144
 20
70.4112797451751931
 42
0.068159463404206
 10
47.882724376990808
 20
70.3125351320966843
 42
0.0950027158644082
 10
48.095015926550488
 20
70.2741240397226932
 42
0.1544690761802209
 10
48.3389732059209223
 20
70.3395165823496313
 42
0.2606540762175316
 10
48.4330335394416238
 20
70.5326962713134691
 42
0.1208512743437792
 10
48.4043657485478604
 20
70.6522390856286364
 42
0.1219613454318524
 10
48.2911935544313167
 20
70.7654112797451802
 42
0.038254059290325
 10
48.0406782836799593
 20
70.8995690462806891
 42
-0.0581074828849151
 10
47.7169008806445447
 20
71.0796327524826665
 42
-0.1200427752268252
 10
47.5463931047404813
 20
71.2774967210043116
 42
-0.1126833292538905
 10
47.495428143151571
 20
71.5182686902754341
 42
-0.1592312928670789
 10
47.5767472362750539
 20
71.7798388607832152
 42
-0.1317713073948262
 10
47.8015926550496459
 20
71.9615889076260089
 42
-0.1105525077854871
 10
48.1302417088251744
 20
72.0286677908937634
 42
-0.2184592046669858
 10
48.7328274311410823
 20
71.7734682405846058
 10
48.5222222222222115
 20
71.531009930672667
 10
48.5031103616263692
 20
71.5089001311598338
 10
48.4776278808319177
 20
71.528011991755676
 42
0.0525272950838163
 10
48.466572981075501
 20
71.5772906127037629
 42
0.0946983163544338
 10
48.4236649803260164
 20
71.6393104740490969
 42
0.1239145974075974
 10
48.2943788645306284
 20
71.7161326587970791
 42
0.0674802657518812
 10
48.1332396477421653
 20
71.7352445193929213
 42
0.1710695699775601
 10
47.9258197489226063
 20
71.6745362563237762
 42
0.2395241755845282
 10
47.8491849353569307
 20
71.5343826119542854
 42
0.1315107380141517
 10
47.8780400974330078
 20
71.4193367060146187
 42
0.1136957301830973
 10
47.99458497283117
 20
71.3110361626381888
 42
0.0383547771664599
 10
48.2640247329960559
 20
71.1738804571856889
 42
-0.0534254991442144
 10
48.5797451751920448
 20
70.9936293798013907
 42
-0.1275968227178471
 10
48.7408843919805008
 20
70.8006370620198595
 42
-0.1042366901074471
 10
48.7871650740116038
 20
70.5551808131909297
 42
-0.1279801959423566
 10
48.71371557054524
 20
70.2773093498220049
 42
-0.1467899336018049
 10
48.4839985010305341
 20
70.0588345512460222
 42
-0.1239665239213454
  0
LWPOLYLINE
  5
170
100
AcDbEntity
  8
VectorEngraving
 62
256
370
-1
 48
1.0
  6
BYLAYER
100
AcDbPolyline
 90
8
 70
129
 10
49.7086565486228125
 20
69.9713322091062366
 42
-0.2591303879110895
 10
49.1536631066141894
 20
70.2392729998126271
 42
-0.1527047570207459
 10
48.9655424395727863
 20
71.0014989694584955
 42
-0.1520552001393986
 10
49.1536631066141894
 20
71.7541690088064428
 42
-0.2609893822229479
 10
49.7086565486228125
 20
72.025295109612145
 42
-0.2598887638008083
 10
50.2589657110736283
 20
71.7541690088064428
 42
-0.1532357876440936
 10
50.4487727187558477
 20
71.0014989694584955
 42
-0.1538924925182162
 10
50.2589657110736283
 20
70.2392729998126271
 42
-0.2580459804200039
  0
LWPOLYLINE
  5
171
100
AcDbEntity
  8
VectorEngraving
 62
256
370
-1
 48
1.0
  6
BYLAYER
100
AcDbPolyline
 90
8
 70
129
 10
49.7086565486228125
 20
70.2647554806070787
 42
0.2924199676809507
 10
49.9893385797264287
 20
70.4481918680906887
 42
0.1214329083418555
 10
50.0912685029042422
 20
71.0048716507401139
 42
0.1202673064395426
 10
49.9893385797264287
 20
71.5420648304290836
 42
0.2966022124947389
 10
49.7086565486228125
 20
71.731871838111303
 42
0.2995688277754537
 10
49.4231028667790753
 20
71.5420648304290836
 42
0.1186384765761809
 10
49.3226719130597644
 20
71.0048716507401139
 42
0.1197837217357492
 10
49.4231028667790753
 20
70.4481918680906887
 42
0.2952609534182363
  0
LWPOLYLINE
  5
172
100
AcDbEntity
  8
VectorEngraving
 62
256
370
-1
 48
1.0
  6
BYLAYER
100
AcDbPolyline
 90
13
 70
129
 10
50.6174067828367882
 20
71.9968146899006882
 10
50.9936481169196085
 20
71.9968146899006882
 10
51.6666854037848893
 20
70.6889638373618112
 10
51.647573543189047
 20
71.9968146899006882
 10
51.9987071388420361
 20
71.9968146899006882
 10
51.9987071388420361
 20
71.9679595278246182
 42
0.1276856979478578
 10
51.977721566423071
 20
71.9248641558928199
 42
0.0454369266293964
 10
51.9728499156829571
 20
71.8499156829679606
 10
51.9728499156829571
 20
70.0095559302979211
 10
51.6382049840734396
 20
70.0095559302979211
 10
50.9426831553306982
 20
71.4035975267003948
 10
50.9426831553306982
 20
70.0095559302979211
 10
50.6174067828367882
 20
70.0095559302979211
  0
LWPOLYLINE
  5
173
100
AcDbEntity
  8
VectorEngraving
 62
256
370
-1
 48
1.0
  6
BYLAYER
100
AcDbPolyline
 90
8
 70
129
 10
53.2866966460558302
 20
70.0095559302979211
 10
53.1495409406033232
 20
70.4719880082443382
 10
52.6297732808693937
 20
70.4719880082443382
 10
52.4892448941352683
 20
70.0095559302979211
 10
52.1321154206482902
 20
70.0095559302979211
 10
52.8051527075135709
 20
72.0095559302979211
 10
52.9775341952407643
 20
72.0095559302979211
 10
53.6505714821060451
 20
70.0095559302979211
  0
LWPOLYLINE
  5
174
100
AcDbEntity
  8
VectorEngraving
 62
256
370
-1
 48
1.0
  6
BYLAYER
100
AcDbPolyline
 90
3
 70
129
 10
52.8913434513771676
 20
71.3428892636312497
 10
52.7062207232527555
 20
70.7305602398351141
 10
53.0730934982199614
 20
70.7305602398351141
  0
LWPOLYLINE
  5
175
100
AcDbEntity
  8
VectorEngraving
 62
256
370
-1
 48
1.0
  6
BYLAYER
100
AcDbPolyline
 90
13
 70
129
 10
53.8064643057897598
 20
71.9968146899006882
 10
54.1827056398725802
 20
71.9968146899006882
 10
54.8557429267378609
 20
70.6889638373618112
 10
54.8366310661420187
 20
71.9968146899006882
 10
55.1877646617950077
 20
71.9968146899006882
 10
55.1877646617950077
 20
71.9679595278246182
 42
0.1276856979475428
 10
55.1667790893760426
 20
71.9248641558928199
 42
0.0454369266293853
 10
55.1619074386359287
 20
71.8499156829679606
 10
55.1619074386359287
 20
70.0095559302979211
 10
54.8272625070264112
 20
70.0095559302979211
 10
54.1317406782836699
 20
71.4035975267003948
 10
54.1317406782836699
 20
70.0095559302979211
 10
53.8064643057897598
 20
70.0095559302979211
  0
LWPOLYLINE
  5
176
100
AcDbEntity
  8
VectorEngraving
 62
256
370
-1
 48
1.0
  6
BYLAYER
100
AcDbPolyline
 90
26
 70
129
 10
56.1729623383923453
 20
69.9743301480232418
 42
-0.1371812061519581
 10
55.7757354318905669
 20
70.0813190931234828
 42
-0.1521335773926569
 10
55.4886827805883343
 20
70.4146524264568114
 42
-0.1095731750364309
 10
55.3818812066703998
 20
70.9921304103428952
 42
-0.0854969824068559
 10
55.4536443694959615
 20
71.4849166198238777
 42
-0.1105493068352968
 10
55.6434513771781809
 20
71.8023234026606758
 42
-0.1092743849584582
 10
55.9033352070451457
 20
71.9728311785647321
 42
-0.0894144458589127
 10
56.1857035787895711
 20
72.025295109612145
 42
-0.144279472525904
 10
56.5700018737118171
 20
71.9233651864343244
 42
-0.1501502099018369
 10
56.814146524264558
 20
71.6363125351320917
 10
56.587427393666843
 20
71.4673037286865309
 10
56.5619449128723915
 20
71.4511898070076796
 10
56.5462057335581676
 20
71.4766722878021312
 42
0.114080431862802
 10
56.5413340828180537
 20
71.523140341015548
 42
0.0461095061683181
 10
56.5079820123664902
 20
71.5917181937417979
 42
0.1205634682737006
 10
56.362581974892251
 20
71.7048903878583417
 42
0.097396558177742
 10
56.2048154393854134
 20
71.7352445193929213
 42
0.1710454528741133
 10
55.9765973393292029
 20
71.6522390856286364
 42
0.1324894010124602
 10
55.8044032227843232
 20
71.4082818062582021
 42
0.0957756120555203
 10
55.7390106801573779
 20
71.0078695896571048
 42
0.1424637919354352
 10
55.8651114858534612
 20
70.4673037286865309
 42
0.2705536969347866
 10
56.1823308975079527
 20
70.2711261008057022
 42
0.1360351973349682
 10
56.3865654862282071
 20
70.3220910623946054
 42
0.1254759824622876
 10
56.5428330522765492
 20
70.4910998688401662
 10
56.7916619823870974
 20
70.3063518830803815
 42
-0.142496943306774
 10
56.5285928424208279
 20
70.0492786209481011
 42
-0.1161683907371164
  0
LWPOLYLINE
  5
177
100
AcDbEntity
  8
VectorEngraving
 62
256
370
-1
 48
1.0
  6
BYLAYER
100
AcDbPolyline
 90
12
 70
129
 10
57.0401161701330253
 20
70.0095559302979211
 10
57.0401161701330253
 20
71.9968146899006882
 10
58.3352257822746765
 20
71.9968146899006882
 10
58.3352257822746765
 20
71.7033914183998462
 10
57.3908750234213869
 20
71.7033914183998462
 10
57.3908750234213869
 20
71.1929923177815311
 10
58.1662169758291085
 20
71.1929923177815311
 10
58.1662169758291085
 20
70.8961963649990707
 10
57.3908750234213869
 20
70.8961963649990707
 10
57.3908750234213869
 20
70.3029792017987631
 10
58.3254824807944416
 20
70.3029792017987631
 10
58.3254824807944416
 20
70.0095559302979211
  0
LWPOLYLINE
  5
178
100
AcDbEntity
  8
VectorEngraving
 62
256
370
-1
 48
1.0
  6
BYLAYER
100
AcDbPolyline
 90
10
 70
129
 10
45.0397414277684049
 20
52.0097433014802419
 10
45.0397414277684049
 20
53.9970020610830161
 10
46.2771407157579091
 20
53.9970020610830161
 10
46.2771407157579091
 20
53.7065767284991651
 10
45.3616451189806966
 20
53.7065767284991651
 10
45.3616451189806966
 20
53.2250327899569129
 10
46.1051339703953502
 20
53.2250327899569129
 10
46.1051339703953502
 20
52.9346074573730689
 10
45.3616451189806966
 20
52.9346074573730689
 10
45.3616451189806966
 20
52.0097433014802419
  0
LWPOLYLINE
  5
179
100
AcDbEntity
  8
VectorEngraving
 62
256
370
-1
 48
1.0
  6
BYLAYER
100
AcDbPolyline
 90
12
 70
129
 10
46.586303166572975
 20
52.0097433014802419
 10
46.586303166572975
 20
53.9970020610830161
 10
47.8814127787146333
 20
53.9970020610830161
 10
47.8814127787146333
 20
53.7035787895821741
 10
46.9370620198613437
 20
53.7035787895821741
 10
46.9370620198613437
 20
53.1931796889638449
 10
47.7124039722690583
 20
53.1931796889638449
 10
47.7124039722690583
 20
52.8963837361813844
 10
46.9370620198613437
 20
52.8963837361813844
 10
46.9370620198613437
 20
52.303166572981084
 10
47.8716694772343985
 20
52.303166572981084
 10
47.8716694772343985
 20
52.0097433014802419
  0
LWPOLYLINE
  5
17A
100
AcDbEntity
  8
VectorEngraving
 62
256
370
-1
 48
1.0
  6
BYLAYER
100
AcDbPolyline
 90
12
 70
129
 10
48.1808319280494644
 20
52.0097433014802419
 10
48.1808319280494644
 20
53.9970020610830161
 10
49.4759415401911156
 20
53.9970020610830161
 10
49.4759415401911156
 20
53.7035787895821741
 10
48.531590781337826
 20
53.7035787895821741
 10
48.531590781337826
 20
53.1931796889638449
 10
49.3069327337455476
 20
53.1931796889638449
 10
49.3069327337455476
 20
52.8963837361813844
 10
48.531590781337826
 20
52.8963837361813844
 10
48.531590781337826
 20
52.303166572981084
 10
49.4661982387108807
 20
52.303166572981084
 10
49.4661982387108807
 20
52.0097433014802419
  0
LWPOLYLINE
  5
17B
100
AcDbEntity
  8
VectorEngraving
 62
256
370
-1
 48
1.0
  6
BYLAYER
100
AcDbPolyline
 90
10
 70
129
 10
49.7465055274498766
 20
52.0097433014802419
 10
49.7465055274498766
 20
53.9970020610830161
 10
50.2602773093498172
 20
53.9970020610830161
 42
-0.1118089991174273
 10
50.666872774967203
 20
53.9252388982574544
 42
-0.1180376728834
 10
50.9108300543376373
 20
53.7226906501780093
 42
-0.086031735369448
 10
51.065598650927484
 20
53.4035975267004019
 42
-0.0734144486326797
 10
51.1214352632565081
 20
52.9889451002435976
 42
-0.093797277412002
 10
51.0225032789956856
 20
52.4674910998688517
 42
-0.1638286356080852
 10
50.7337642870526508
 20
52.1277871463368996
 42
-0.1360343027579411
 10
50.2220535881581398
 20
52.0097433014802419
  0
LWPOLYLINE
  5
17C
100
AcDbEntity
  8
VectorEngraving
 62
256
370
-1
 48
1.0
  6
BYLAYER
100
AcDbPolyline
 90
9
 70
129
 10
50.0976391231028657
 20
52.2904253325838582
 10
50.212310286677905
 20
52.2904253325838582
 42
0.1550328994721525
 10
50.5392729998126242
 20
52.3766160764474549
 42
0.1609236696386691
 10
50.7163387670976178
 20
52.6190743863593866
 42
0.0875887959747178
 10
50.7673037286865281
 20
52.9859471613265995
 42
0.0688444510862735
 10
50.7210230466554179
 20
53.3685591156080292
 42
0.16258873069293
 10
50.5600712010492757
 20
53.6205733558178821
 42
0.1685507963356938
 10
50.2475360689525914
 20
53.7099494097807835
 10
50.0976391231028657
 20
53.7099494097807835
  0
LWPOLYLINE
  5
17D
100
AcDbEntity
  8
VectorEngraving
 62
256
370
-1
 48
1.0
  6
BYLAYER
100
AcDbPolyline
 90
11
 70
129
 10
51.3252951096121421
 20
52.0097433014802419
 10
51.3252951096121421
 20
53.9970020610830161
 10
51.9312535132096684
 20
53.9970020610830161
 42
-0.1698219834309251
 10
52.4607644744238328
 20
53.8566610455312045
 42
-0.2376804545435533
 10
52.6331459621510191
 20
53.4959715195803014
 42
-0.1334868191084291
 10
52.5613827993254574
 20
53.2441446505527551
 42
-0.1741473004687596
 10
52.3524639310474029
 20
53.0653925426269524
 42
-0.1323568410566499
 10
52.6123477609143677
 20
52.8662169758291256
 42
-0.1671509369153155
 10
52.709593404534381
 20
52.5838486040846576
 42
-0.236828995669117
 10
52.516601086752857
 20
52.1676972081693933
 42
-0.1709485884004096
 10
51.9282555742926704
 20
52.0097433014802419
  0
LWPOLYLINE
  5
17E
100
AcDbEntity
  8
VectorEngraving
 62
256
370
-1
 48
1.0
  6
BYLAYER
100
AcDbPolyline
 90
7
 70
129
 10
51.6857972643807386
 20
53.2025482480794523
 10
51.9027730934982188
 20
53.2025482480794523
 42
0.1768225646009968
 10
52.1911373430766332
 20
53.274311410905014
 42
0.2191258555940963
 10
52.2692711261008043
 20
53.4641184185872334
 42
0.2328955772464613
 10
52.1896383736181377
 20
53.6396852164137243
 42
0.1722275257521167
 10
51.9346261944912868
 20
53.7065767284991651
 10
51.6857972643807386
 20
53.7065767284991651
  0
LWPOLYLINE
  5
17F
100
AcDbEntity
  8
VectorEngraving
 62
256
370
-1
 48
1.0
  6
BYLAYER
100
AcDbPolyline
 90
7
 70
129
 10
51.6857972643807386
 20
52.3065392542627023
 10
51.9664792954843477
 20
52.3065392542627023
 42
0.159916360651379
 10
52.2359190556492337
 20
52.3798013865467595
 42
0.2533137356479543
 10
52.3363500093685587
 20
52.593591905564935
 42
0.2144617847098532
 10
52.2422896758478501
 20
52.826306913996639
 42
0.1850030538216814
 10
51.9121416526138262
 20
52.9154955967772267
 10
51.6857972643807386
 20
52.9154955967772267
  0
LWPOLYLINE
  5
180
100
AcDbEntity
  8
VectorEngraving
 62
256
370
-1
 48
1.0
  6
BYLAYER
100
AcDbPolyline
 90
8
 70
129
 10
53.9945849728311771
 20
52.0097433014802419
 10
53.8574292673786772
 20
52.4721753794266519
 10
53.3376616076447405
 20
52.4721753794266519
 10
53.1971332209106222
 20
52.0097433014802419
 10
52.8400037474236441
 20
52.0097433014802419
 10
53.5130410342889249
 20
54.0097433014802419
 10
53.6854225220161112
 20
54.0097433014802419
 10
54.358459808881392
 20
52.0097433014802419
  0
LWPOLYLINE
  5
181
100
AcDbEntity
  8
VectorEngraving
 62
256
370
-1
 48
1.0
  6
BYLAYER
100
AcDbPolyline
 90
3
 70
129
 10
53.5992317781525145
 20
53.3430766348135776
 10
53.4141090500281024
 20
52.7307476110174349
 10
53.7809818249953082
 20
52.7307476110174349
  0
LWPOLYLINE
  5
182
100
AcDbEntity
  8
VectorEngraving
 62
256
370
-1
 48
1.0
  6
BYLAYER
100
AcDbPolyline
 90
26
 70
129
 10
55.2863219036912099
 20
51.9745175192055555
 42
-0.137181206151926
 10
54.8890949971894315
 20
52.0815064643057966
 42
-0.1521335773926631
 10
54.6020423458871988
 20
52.4148397976391323
 42
-0.1095731750364205
 10
54.4952407719692644
 20
52.9923177815252089
 42
-0.0854969824068574
 10
54.5670039347948261
 20
53.4851039910061914
 42
-0.1105493068353128
 10
54.7568109424770455
 20
53.8025107738429895
 42
-0.1092743849584507
 10
55.0166947723440103
 20
53.97301854974706
 42
-0.0894144458589409
 10
55.2990631440884357
 20
54.0254824807944658
 42
-0.144279472525918
 10
55.6833614390106746
 20
53.9235525576166452
 42
-0.1501502099018005
 10
55.9275060895634226
 20
53.6364999063144197
 10
55.7007869589657076
 20
53.4674910998688517
 10
55.6753044781712561
 20
53.4513771781900004
 10
55.6595652988570322
 20
53.4768596589844591
 42
0.1140804318627244
 10
55.6546936481169183
 20
53.5233277121978759
 42
0.0461095061683001
 10
55.6213415776653477
 20
53.5919055649241258
 42
0.120563468273654
 10
55.4759415401911156
 20
53.7050777590406696
 42
0.0973965581775412
 10
55.318175004684278
 20
53.7354318905752422
 42
0.1710454528741352
 10
55.0899569046280675
 20
53.6524264568109501
 42
0.1324894010124864
 10
54.9177627880831878
 20
53.4084691774405229
 42
0.095775612055514
 10
54.8523702454562425
 20
53.0080569608394327
 42
0.1424637919354312
 10
54.9784710511523258
 20
52.4674910998688517
 42
0.2705536969347278
 10
55.2956904628068173
 20
52.2713134719880159
 42
0.1360351973350845
 10
55.4999250515270717
 20
52.3222784335769262
 42
0.1254759824623165
 10
55.6561926175754138
 20
52.4912872400224941
 10
55.905021547685962
 20
52.3065392542627023
 42
-0.1424969433067819
 10
55.6419524077196854
 20
52.0494659921304219
 42
-0.1161683907371301
  0
LWPOLYLINE
  5
183
100
AcDbEntity
  8
VectorEngraving
 62
256
370
-1
 48
1.0
  6
BYLAYER
100
AcDbPolyline
 90
17
 70
129
 10
56.5937980138654666
 20
52.9091249765786102
 10
56.4630129286115761
 20
52.7371182312160514
 10
56.4630129286115761
 20
52.0097433014802419
 10
56.1088813940415889
 20
52.0097433014802419
 10
56.1088813940415889
 20
53.9970020610830161
 10
56.4884954094060276
 20
53.9970020610830161
 10
56.4884954094060276
 20
53.9681468990069391
 42
0.1689875292191398
 10
56.4661982387108807
 20
53.9250515270751478
 42
0.0297994704277431
 10
56.4630129286115761
 20
53.8501030541502814
 10
56.4630129286115761
 20
53.1834363874836171
 10
57.123308975079631
 20
54.0161139216788584
 42
0.0531456125434626
 10
57.2443507588532867
 20
54.0001873711823208
 42
0.0100048626037557
 10
57.356023983511335
 20
53.9970020610830161
 10
57.5220348510399049
 20
53.9970020610830161
 10
56.8489975641746241
 20
53.1643245268877749
 10
57.5602585722315894
 20
52.0131159827618603
 10
57.1487914558740826
 20
51.9970020610830161
  0
LWPOLYLINE
  5
184
100
AcDbEntity
  8
VectorEngraving
 62
256
370
-1
 48
1.0
  6
BYLAYER
100
AcDbPolyline
 90
26
 70
129
 10
26.4302229717069537
 20
79.9777028293048602
 42
-0.1371812061519615
 10
26.0329960652051717
 20
80.0846917744051012
 42
-0.1521335773926464
 10
25.7459434139029426
 20
80.4180251077384298
 42
-0.1095731750364363
 10
25.6391418399850117
 20
80.9955030916245136
 42
-0.0854969824068438
 10
25.7109050028105699
 20
81.4882893011054961
 42
-0.1105493068353439
 10
25.9007120104927857
 20
81.8056960839422942
 42
-0.1092743849584633
 10
26.160595840359754
 20
81.9762038598463505
 42
-0.0894144458590102
 10
26.4429642121041795
 20
82.0286677908937634
 42
-0.1442794725259044
 10
26.8272625070264183
 20
81.9267378677159428
 42
-0.1501502099017677
 10
27.0714071575791664
 20
81.6396852164137101
 10
26.8446880269814514
 20
81.4706764099681493
 10
26.8192055461869963
 20
81.454562488289298
 10
26.803466366872776
 20
81.4800449690837496
 42
0.1140804318625154
 10
26.7985947161326585
 20
81.5265130222971663
 42
0.0461095061683048
 10
26.765242645681095
 20
81.5950908750234163
 42
0.1205634682735894
 10
26.6198426082068593
 20
81.7082630691399601
 42
0.0973965581775581
 10
26.4620760727000182
 20
81.7386172006745397
 42
0.1710454528741207
 10
26.2338579726438077
 20
81.6556117669102548
 42
0.1324894010124749
 10
26.0616638560989315
 20
81.4116544875398205
 42
0.095775612055521
 10
25.9962713134719863
 20
81.0112422709387232
 42
0.1424637919354401
 10
26.1223721191680731
 20
80.4706764099681493
 42
0.2705536969347078
 10
26.4395915308225611
 20
80.2744987820873206
 42
0.1360351973350797
 10
26.6438261195428154
 20
80.3254637436762238
 42
0.1254759824622297
 10
26.8000936855911576
 20
80.4944725501217988
 10
27.0489226157017058
 20
80.3097245643619999
 42
-0.1424969433067681
 10
26.7858534757354327
 20
80.0526513022297195
 42
-0.1161683907371965
  0
LWPOLYLINE
  5
185
100
AcDbEntity
  8
VectorEngraving
 62
256
370
-1
 48
1.0
  6
BYLAYER
100
AcDbPolyline
 90
17
 70
129
 10
27.9321903691212299
 20
79.9713322091062366
 42
-0.2187932598690469
 10
27.4264755480607079
 20
80.1660108675285699
 42
-0.1902783405959846
 10
27.2494097807757178
 20
80.7084504403222809
 10
27.2494097807757178
 20
82.0001873711823066
 10
27.6353944163387695
 20
82.0001873711823066
 10
27.6353944163387695
 20
81.9713322091062366
 42
0.1246165463762282
 10
27.6147835862844317
 20
81.9282368371744383
 42
0.0454369266293798
 10
27.6099119355443143
 20
81.853288364249579
 10
27.6099119355443143
 20
80.7050777590406625
 42
0.1333400107448023
 10
27.6801761289113735
 20
80.3827993254637505
 42
0.2785909262070445
 10
27.9351883080382244
 20
80.2647554806070787
 42
0.2726441709264281
 10
28.1937605396290039
 20
80.3827993254637505
 42
0.137686288424876
 10
28.2672100430953712
 20
80.7148210605208902
 10
28.2672100430953712
 20
82.0001873711823066
 10
28.6179688963837364
 20
82.0001873711823066
 10
28.6179688963837364
 20
80.7178189994378812
 42
-0.208330214565021
 10
28.4266629192430216
 20
80.1532696271313512
 42
-0.1989968553204194
  0
LWPOLYLINE
  5
186
100
AcDbEntity
  8
VectorEngraving
 62
256
370
-1
 48
1.0
  6
BYLAYER
100
AcDbPolyline
 90
8
 70
129
 10
29.3385984635563055
 20
80.0129286115795395
 10
29.3385984635563055
 20
81.6970207982012369
 10
28.8027168821435282
 20
81.6970207982012369
 10
28.8027168821435282
 20
82.0001873711823066
 10
30.2477234401349087
 20
82.0001873711823066
 10
30.2477234401349087
 20
81.6970207982012369
 10
29.6829866966460543
 20
81.6970207982012369
 10
29.6829866966460543
 20
80.0129286115795395
  0
LWPOLYLINE
  5
187
100
AcDbEntity
  8
VectorEngraving
 62
256
370
-1
 48
1.0
  6
BYLAYER
100
AcDbPolyline
 90
8
 70
129
 10
31.1276185122728108
 20
79.974704890387855
 42
-0.2591303879110559
 10
30.5726250702641948
 20
80.2426456810942454
 42
-0.1527047570207422
 10
30.3845044032227847
 20
81.0048716507401139
 42
-0.1520552001393945
 10
30.5726250702641948
 20
81.7575416900880612
 42
-0.2609893822229626
 10
31.1276185122728108
 20
82.0286677908937634
 42
-0.2598887638008083
 10
31.6779276747236267
 20
81.7575416900880612
 42
-0.1532357876440915
 10
31.8677346824058461
 20
81.0048716507401139
 42
-0.1538924925182056
 10
31.6779276747236267
 20
80.2426456810942454
 42
-0.2580459804199707
  0
LWPOLYLINE
  5
188
100
AcDbEntity
  8
VectorEngraving
 62
256
370
-1
 48
1.0
  6
BYLAYER
100
AcDbPolyline
 90
8
 70
129
 10
31.1276185122728108
 20
80.268128161888697
 42
0.2924199676810081
 10
31.4083005433764271
 20
80.4515645493723071
 42
0.1214329083418415
 10
31.5102304665542441
 20
81.0082443320217322
 42
0.1202673064395721
 10
31.4083005433764271
 20
81.545437511710702
 42
0.2966022124947011
 10
31.1276185122728108
 20
81.7352445193929213
 42
0.2995688277753909
 10
30.8420648304290808
 20
81.545437511710702
 42
0.1186384765761918
 10
30.7416338767097628
 20
81.0082443320217322
 42
0.119783721735739
 10
30.8420648304290808
 20
80.4515645493723071
 42
0.2952609534183174
  0
LWPOLYLINE
  5
189
100
AcDbEntity
  8
VectorEngraving
 62
256
370
-1
 48
1.0
  6
BYLAYER
100
AcDbPolyline
 90
10
 70
129
 10
32.1289301105489997
 20
80.0129286115795395
 10
32.1289301105489997
 20
82.0001873711823066
 10
33.3663293985385039
 20
82.0001873711823066
 10
33.3663293985385039
 20
81.7097620385984698
 10
32.4508338017612914
 20
81.7097620385984698
 10
32.4508338017612914
 20
81.2282181000562105
 10
33.194322653175945
 20
81.2282181000562105
 10
33.194322653175945
 20
80.9377927674723594
 10
32.4508338017612914
 20
80.9377927674723594
 10
32.4508338017612914
 20
80.0129286115795395
  0
LWPOLYLINE
  5
18A
100
AcDbEntity
  8
VectorEngraving
 62
256
370
-1
 48
1.0
  6
BYLAYER
100
AcDbPolyline
 90
10
 70
129
 10
33.723458872025482
 20
80.0129286115795395
 10
33.723458872025482
 20
82.0001873711823066
 10
34.9608581600149932
 20
82.0001873711823066
 10
34.9608581600149932
 20
81.7097620385984698
 10
34.0453625632377737
 20
81.7097620385984698
 10
34.0453625632377737
 20
81.2282181000562105
 10
34.7888514146524273
 20
81.2282181000562105
 10
34.7888514146524273
 20
80.9377927674723594
 10
34.0453625632377737
 20
80.9377927674723594
 10
34.0453625632377737
 20
80.0129286115795395
  0
ENDSEC
  0
SECTION
  2
OBJECTS
  0
DICTIONARY
  5
C
100
AcDbDictionary
280
0
281
1
  3
ACAD_GROUP
350
D
  3
ACAD_LAYOUT
350
1A
  3
ACAD_MLINESTYLE
350
17
  3
ACAD_PLOTSETTINGS
350
19
  3
ACAD_PLOTSTYLENAME
350
E
  3
AcDbVariableDictionary
350
18B
  3
QCAD_OBJECTS
350
18C
  0
DICTIONARY
  5
D
100
AcDbDictionary
280
0
281
1
  0
ACDBDICTIONARYWDFLT
  5
E
100
AcDbDictionary
281
1
  3
Normal
350
F
100
AcDbDictionaryWithDefault
340
F
  0
ACDBPLACEHOLDER
  5
F
  0
DICTIONARY
  5
17
100
AcDbDictionary
280
0
281
1
  3
Standard
350
18
  0
MLINESTYLE
  5
18
100
AcDbMlineStyle
  2
STANDARD
 70
0
  3

 62
256
 51
90.0
 52
90.0
 71
2
 49
0.5
 62
256
  6
BYLAYER
 49
-0.5
 62
256
  6
BYLAYER
  0
DICTIONARY
  5
19
100
AcDbDictionary
280
0
281
1
  0
DICTIONARY
  5
1A
100
AcDbDictionary
281
1
  3
Layout1
350
1E
  3
Layout2
350
26
  3
Model
350
22
  0
LAYOUT
  5
1E
100
AcDbPlotSettings
  1

  2
none_device
  4

  6

 40
0.0
 41
0.0
 42
0.0
 43
0.0
 44
0.0
 45
0.0
 46
0.0
 47
0.0
 48
0.0
 49
0.0
140
0.0
141
0.0
142
1.0
143
1.0
 70
688
 72
0
 73
0
 74
5
  7

 75
16
147
1.0
148
0.0
149
0.0
100
AcDbLayout
  1
Layout1
 70
1
 71
1
 10
0.0
 20
0.0
 11
420.0
 21
297.0
 12
0.0
 22
0.0
 32
0.0
 14
100000000000000000000.0
 24
100000000000000000000.0
 34
100000000000000000000.0
 15
-100000000000000000000.0
 25
-100000000000000000000.0
 35
-100000000000000000000.0
146
0.0
 13
0.0
 23
0.0
 33
0.0
 16
1.0
 26
0.0
 36
0.0
 17
0.0
 27
1.0
 37
0.0
 76
0
330
1B
  0
LAYOUT
  5
22
100
AcDbPlotSettings
  1

  2
none_device
  4

  6

 40
0.0
 41
0.0
 42
0.0
 43
0.0
 44
0.0
 45
0.0
 46
0.0
 47
0.0
 48
0.0
 49
0.0
140
0.0
141
0.0
142
1.0
143
1.0
 70
1712
 72
0
 73
0
 74
0
  7

 75
0
147
1.0
148
0.0
149
0.0
100
AcDbLayout
  1
Model
 70
1
 71
0
 10
0.0
 20
0.0
 11
12.0
 21
9.0
 12
0.0
 22
0.0
 32
0.0
 14
0.0
 24
0.0
 34
0.0
 15
0.0
 25
0.0
 35
0.0
146
0.0
 13
0.0
 23
0.0
 33
0.0
 16
1.0
 26
0.0
 36
0.0
 17
0.0
 27
1.0
 37
0.0
 76
0
330
1F
  0
LAYOUT
  5
26
100
AcDbPlotSettings
  1

  2
none_device
  4

  6

 40
0.0
 41
0.0
 42
0.0
 43
0.0
 44
0.0
 45
0.0
 46
0.0
 47
0.0
 48
0.0
 49
0.0
140
0.0
141
0.0
142
1.0
143
1.0
 70
688
 72
0
 73
0
 74
5
  7

 75
16
147
1.0
148
0.0
149
0.0
100
AcDbLayout
  1
Layout2
 70
1
 71
2
 10
0.0
 20
0.0
 11
12.0
 21
9.0
 12
0.0
 22
0.0
 32
0.0
 14
0.0
 24
0.0
 34
0.0
 15
0.0
 25
0.0
 35
0.0
146
0.0
 13
0.0
 23
0.0
 33
0.0
 16
1.0
 26
0.0
 36
0.0
 17
0.0
 27
1.0
 37
0.0
 76
0
330
23
  0
DICTIONARY
  5
18B
100
AcDbDictionary
281
1
  3
DIMASSOC
350
18E
  3
HIDETEXT
350
18D
  0
DICTIONARYVAR
  5
18D
100
DictionaryVariables
280
0
  1
2
  0
DICTIONARYVAR
  5
18E
100
DictionaryVariables
280
0
  1
1
  0
DICTIONARY
  5
18C
100
AcDbDictionary
281
1
  3
ColorSettings/BackgroundColor
350
18F
  3
ColorSettings/ColorMode
350
190
  3
Grid/DisplayGrid00
350
191
  3
Grid/DisplayGrid01
350
192
  3
Grid/DisplayGrid02
350
193
  3
Grid/DisplayGrid03
350
194
  3
Grid/GridSpacingX00
350
195
  3
Grid/GridSpacingX01
350
196
  3
Grid/GridSpacingX02
350
197
  3
Grid/GridSpacingX03
350
198
  3
Grid/GridSpacingY00
350
199
  3
Grid/GridSpacingY01
350
19A
  3
Grid/GridSpacingY02
350
19B
  3
Grid/GridSpacingY03
350
19C
  3
Grid/IsometricGrid00
350
19D
  3
Grid/IsometricGrid01
350
19E
  3
Grid/IsometricGrid02
350
19F
  3
Grid/IsometricGrid03
350
1A0
  3
Grid/IsometricProjection00
350
1A1
  3
Grid/IsometricProjection01
350
1A2
  3
Grid/IsometricProjection02
350
1A3
  3
Grid/IsometricProjection03
350
1A4
  3
Grid/MetaGridSpacingX00
350
1A5
  3
Grid/MetaGridSpacingX01
350
1A6
  3
Grid/MetaGridSpacingX02
350
1A7
  3
Grid/MetaGridSpacingX03
350
1A8
  3
Grid/MetaGridSpacingY00
350
1A9
  3
Grid/MetaGridSpacingY01
350
1AA
  3
Grid/MetaGridSpacingY02
350
1AB
  3
Grid/MetaGridSpacingY03
350
1AC
  3
MultiPageSettings/Columns
350
1AD
  3
MultiPageSettings/GlueMarginsBottom
350
1AE
  3
MultiPageSettings/GlueMarginsLeft
350
1AF
  3
MultiPageSettings/GlueMarginsRight
350
1B0
  3
MultiPageSettings/GlueMarginsTop
350
1B1
  3
MultiPageSettings/PrintCropMarks
350
1B2
  3
MultiPageSettings/Rows
350
1B3
  3
PageSettings/OffsetX
350
1B4
  3
PageSettings/OffsetY
350
1B5
  3
PageSettings/PageOrientation
350
1B6
  3
PageSettings/PaperHeight
350
1B7
  3
PageSettings/PaperWidth
350
1B8
  3
PageSettings/Scale
350
1B9
  3
PageSettings/ShowPaperBorders
350
1BA
  3
PageTagSettings/EnablePageTags
350
1BB
  3
PageTagSettings/TagAlignment
350
1BC
  3
PageTagSettings/TagFont
350
1BD
  3
PageTagSettings/TagPosition
350
1BE
  3
QCADVersion
350
1BF
  3
UnitSettings/PaperUnit
350
1C0
  3
ViewportCenter
350
1C1
  3
ViewportHeight
350
1C2
  3
ViewportWidth
350
1C3
  0
XRECORD
  5
18F
330
18C
100
AcDbXrecord
280
1
1000
White
  0
XRECORD
  5
190
330
18C
100
AcDbXrecord
280
1
1000
FullColor
  0
XRECORD
  5
191
330
18C
100
AcDbXrecord
280
1
290
1
  0
XRECORD
  5
192
330
18C
100
AcDbXrecord
280
1
290
1
  0
XRECORD
  5
193
330
18C
100
AcDbXrecord
280
1
290
1
  0
XRECORD
  5
194
330
18C
100
AcDbXrecord
280
1
290
1
  0
XRECORD
  5
195
330
18C
100
AcDbXrecord
280
1
1000
auto
  0
XRECORD
  5
196
330
18C
100
AcDbXrecord
280
1
1000
auto
  0
XRECORD
  5
197
330
18C
100
AcDbXrecord
280
1
1000
auto
  0
XRECORD
  5
198
330
18C
100
AcDbXrecord
280
1
1000
auto
  0
XRECORD
  5
199
330
18C
100
AcDbXrecord
280
1
1000
auto
  0
XRECORD
  5
19A
330
18C
100
AcDbXrecord
280
1
1000
auto
  0
XRECORD
  5
19B
330
18C
100
AcDbXrecord
280
1
1000
auto
  0
XRECORD
  5
19C
330
18C
100
AcDbXrecord
280
1
1000
auto
  0
XRECORD
  5
19D
330
18C
100
AcDbXrecord
280
1
290
0
  0
XRECORD
  5
19E
330
18C
100
AcDbXrecord
280
1
290
0
  0
XRECORD
  5
19F
330
18C
100
AcDbXrecord
280
1
290
0
  0
XRECORD
  5
1A0
330
18C
100
AcDbXrecord
280
1
290
0
  0
XRECORD
  5
1A1
330
18C
100
AcDbXrecord
280
1
 90
65537
  0
XRECORD
  5
1A2
330
18C
100
AcDbXrecord
280
1
 90
65537
  0
XRECORD
  5
1A3
330
18C
100
AcDbXrecord
280
1
 90
65537
  0
XRECORD
  5
1A4
330
18C
100
AcDbXrecord
280
1
 90
65537
  0
XRECORD
  5
1A5
330
18C
100
AcDbXrecord
280
1
1000
auto
  0
XRECORD
  5
1A6
330
18C
100
AcDbXrecord
280
1
1000
auto
  0
XRECORD
  5
1A7
330
18C
100
AcDbXrecord
280
1
1000
auto
  0
XRECORD
  5
1A8
330
18C
100
AcDbXrecord
280
1
1000
auto
  0
XRECORD
  5
1A9
330
18C
100
AcDbXrecord
280
1
1000
auto
  0
XRECORD
  5
1AA
330
18C
100
AcDbXrecord
280
1
1000
auto
  0
XRECORD
  5
1AB
330
18C
100
AcDbXrecord
280
1
1000
auto
  0
XRECORD
  5
1AC
330
18C
100
AcDbXrecord
280
1
1000
auto
  0
XRECORD
  5
1AD
330
18C
100
AcDbXrecord
280
1
 90
1
  0
XRECORD
  5
1AE
330
18C
100
AcDbXrecord
280
1
 40
10.0
  0
XRECORD
  5
1AF
330
18C
100
AcDbXrecord
280
1
 40
10.0
  0
XRECORD
  5
1B0
330
18C
100
AcDbXrecord
280
1
 40
10.0
  0
XRECORD
  5
1B1
330
18C
100
AcDbXrecord
280
1
 40
10.0
  0
XRECORD
  5
1B2
330
18C
100
AcDbXrecord
280
1
290
0
  0
XRECORD
  5
1B3
330
18C
100
AcDbXrecord
280
1
 90
1
  0
XRECORD
  5
1B4
330
18C
100
AcDbXrecord
280
1
 40
0.0
  0
XRECORD
  5
1B5
330
18C
100
AcDbXrecord
280
1
 40
0.0
  0
XRECORD
  5
1B6
330
18C
100
AcDbXrecord
280
1
1000
Portrait
  0
XRECORD
  5
1B7
330
18C
100
AcDbXrecord
280
1
 40
297.0
  0
XRECORD
  5
1B8
330
18C
100
AcDbXrecord
280
1
 40
210.0
  0
XRECORD
  5
1B9
330
18C
100
AcDbXrecord
280
1
1000
1:1
  0
XRECORD
  5
1BA
330
18C
100
AcDbXrecord
280
1
290
1
  0
XRECORD
  5
1BB
330
18C
100
AcDbXrecord
280
1
290
0
  0
XRECORD
  5
1BC
330
18C
100
AcDbXrecord
280
1
1000
Inside
  0
XRECORD
  5
1BD
330
18C
100
AcDbXrecord
280
1
1000
Arial,10,-1,5,50,0,0,0,0,0
  0
XRECORD
  5
1BE
330
18C
100
AcDbXrecord
280
1
1000
TopLeft
  0
XRECORD
  5
1BF
330
18C
100
AcDbXrecord
280
1
1000
3.27.6.7
  0
XRECORD
  5
1C0
330
18C
100
AcDbXrecord
280
1
 90
4
  0
XRECORD
  5
1C2
330
18C
100
AcDbXrecord
280
1
 40
254.4618346828961535
  0
XRECORD
  5
1C3
330
18C
100
AcDbXrecord
280
1
 40
526.3696325663826201
  0
ENDSEC
  0
EOF
