999
dxflib 3.26.4.0
  0
SECTION
  2
HEADER
  9
$ACADVER
  1
AC1015
  9
$HANDSEED
  5
FFFF
  9
$DIMADEC
 70
0
  9
$DIMASZ
 40
2.5
  9
$DIMATFIT
 70
0
  9
$DIMAUNIT
 70
0
  9
$DIMAZIN
 70
2
  9
$DIMBLK
  1
0
  9
$DIMBLK1
  1
0
  9
$DIMBLK2
  1
0
  9
$DIMDEC
 70
4
  9
$DIMDLI
 40
5.0
  9
$DIMDSEP
 70
46
  9
$DIMEXE
 40
1.25
  9
$DIMEXO
 40
0.625
  9
$DIMGAP
 40
0.625
  9
$DIMLFAC
 40
1.0
  9
$DIMLUNIT
 70
2
  9
$DIMSCALE
 40
1.0
  9
$DIMTAD
 70
1
  9
$DIMTIH
 70
0
  9
$DIMTSZ
 40
0.0
  9
$DIMTXT
 40
2.5
  9
$DIMZIN
 70
8
  9
$DWGCODEPAGE
  3
ANSI_1252
  9
$INSUNITS
 70
4
  9
$LTSCALE
 40
1.0
  9
$MAXACTVP
 70
64
  9
$MEASUREMENT
 70
1
  9
$MIRRTEXT
 70
0
  9
$PDMODE
 70
0
  9
$PDSIZE
 40
0.0
  0
ENDSEC
  0
SECTION
  2
TABLES
  0
TABLE
  2
VPORT
  5
8
100
AcDbSymbolTable
 70
1
  0
VPORT
  5
30
100
AcDbSymbolTableRecord
100
AcDbViewportTableRecord
  2
*Active
 70
0
 10
0.0
 20
0.0
 11
1.0
 21
1.0
 12
286.3055555555554861
 22
148.5
 13
0.0
 23
0.0
 14
10.0
 24
10.0
 15
10.0
 25
10.0
 16
0.0
 26
0.0
 36
1.0
 17
0.0
 27
0.0
 37
0.0
 40
297.0
 41
1.92798353909465
 42
50.0
 43
0.0
 44
0.0
 50
0.0
 51
0.0
 71
0
 72
100
 73
1
 74
3
 75
1
 76
1
 77
0
 78
0
281
0
 65
1
110
0.0
120
0.0
130
0.0
111
1.0
121
0.0
131
0.0
112
0.0
122
1.0
132
0.0
 79
0
146
0.0
  0
ENDTAB
  0
TABLE
  2
LTYPE
  5
5
100
AcDbSymbolTable
 70
41
  0
LTYPE
  5
16
100
AcDbSymbolTableRecord
100
AcDbLinetypeTableRecord
  2
Continuous
 70
0
  3
Solid line
 72
65
 73
0
 40
0.0
  0
LTYPE
  5
31
100
AcDbSymbolTableRecord
100
AcDbLinetypeTableRecord
  2
ACAD_ISO10W100
 70
0
  3
ISO dash dot __ . __ . __ . __ . __ . __ . __ . 
 72
65
 73
4
 40
18.0
 49
12.0
 74
0
 49
-2.9500000000000002
 74
0
 49
0.1
 74
0
 49
-2.9500000000000002
 74
0
  0
LTYPE
  5
32
100
AcDbSymbolTableRecord
100
AcDbLinetypeTableRecord
  2
HIDDENX2
 70
0
  3
Hidden (2x) ____ ____ ____ ____ ____ ____ ____ 
 72
65
 73
2
 40
19.0499999999999972
 49
12.6999999999999993
 74
0
 49
-6.3499999999999996
 74
0
  0
LTYPE
  5
33
100
AcDbSymbolTableRecord
100
AcDbLinetypeTableRecord
  2
DOTX2
 70
0
  3
Dot (2x) .  .  .  .  .  .  .  .  .  .  .  .  .  .
 72
65
 73
2
 40
12.6999999999999993
 49
0.1
 74
0
 49
-12.5999999999999996
 74
0
  0
LTYPE
  5
34
100
AcDbSymbolTableRecord
100
AcDbLinetypeTableRecord
  2
ACAD_ISO14W100
 70
0
  3
ISO dash triple-dot __ . . . __ . . . __ . . . _
 72
65
 73
8
 40
24.0000000000000036
 49
12.0
 74
0
 49
-2.9500000000000002
 74
0
 49
0.1
 74
0
 49
-2.9000000000000004
 74
0
 49
0.1
 74
0
 49
-2.9000000000000004
 74
0
 49
0.1
 74
0
 49
-2.9500000000000002
 74
0
  0
LTYPE
  5
35
100
AcDbSymbolTableRecord
100
AcDbLinetypeTableRecord
  2
DIVIDEX2
 70
0
  3
Divide (2x) ________  .  .  ________  .  .  _
 72
65
 73
6
 40
63.5
 49
25.3999999999999986
 74
0
 49
-12.6499999999999986
 74
0
 49
0.1
 74
0
 49
-12.5999999999999979
 74
0
 49
0.1
 74
0
 49
-12.6499999999999986
 74
0
  0
LTYPE
  5
36
100
AcDbSymbolTableRecord
100
AcDbLinetypeTableRecord
  2
DASHDOTX2
 70
0
  3
Dash dot (2x) ____  .  ____  .  ____  .  ___
 72
65
 73
4
 40
50.7999999999999972
 49
25.3999999999999986
 74
0
 49
-12.6499999999999986
 74
0
 49
0.1
 74
0
 49
-12.6499999999999986
 74
0
  0
LTYPE
  5
37
100
AcDbSymbolTableRecord
100
AcDbLinetypeTableRecord
  2
ACAD_ISO06W100
 70
0
  3
ISO long-dash triple-dot ____ ... ____ ... ____
 72
65
 73
8
 40
36.0000000000000071
 49
24.0
 74
0
 49
-2.9500000000000002
 74
0
 49
0.1
 74
0
 49
-2.9000000000000004
 74
0
 49
0.1
 74
0
 49
-2.9000000000000004
 74
0
 49
0.1
 74
0
 49
-2.9500000000000002
 74
0
  0
LTYPE
  5
38
100
AcDbSymbolTableRecord
100
AcDbLinetypeTableRecord
  2
ACAD_ISO03W100
 70
0
  3
ISO dash space __    __    __    __    __    __
 72
65
 73
2
 40
30.0
 49
12.0
 74
0
 49
-18.0
 74
0
  0
LTYPE
  5
39
100
AcDbSymbolTableRecord
100
AcDbLinetypeTableRecord
  2
ACAD_ISO09W100
 70
0
  3
ISO long-dash double-short-dash ____ __ __ ____
 72
65
 73
6
 40
45.0
 49
24.0
 74
0
 49
-3.0
 74
0
 49
6.0
 74
0
 49
-3.0
 74
0
 49
6.0
 74
0
 49
-3.0
 74
0
  0
LTYPE
  5
15
100
AcDbSymbolTableRecord
100
AcDbLinetypeTableRecord
  2
BYLAYER
 70
0
  3

 72
65
 73
0
 40
0.0
  0
LTYPE
  5
3A
100
AcDbSymbolTableRecord
100
AcDbLinetypeTableRecord
  2
ACAD_ISO15W100
 70
0
  3
ISO double-dash triple-dot __ __ . . . __ __ . .
 72
65
 73
10
 40
39.0000000000000071
 49
12.0
 74
0
 49
-3.0
 74
0
 49
12.0
 74
0
 49
-2.9500000000000002
 74
0
 49
0.1
 74
0
 49
-2.9000000000000004
 74
0
 49
0.1
 74
0
 49
-2.9000000000000004
 74
0
 49
0.1
 74
0
 49
-2.9500000000000002
 74
0
  0
LTYPE
  5
3B
100
AcDbSymbolTableRecord
100
AcDbLinetypeTableRecord
  2
CENTER2
 70
0
  3
Center (.5x) ___ _ ___ _ ___ _ ___ _ ___ _ ___
 72
65
 73
4
 40
28.5750000000000028
 49
19.0500000000000007
 74
0
 49
-3.1749999999999998
 74
0
 49
3.1749999999999998
 74
0
 49
-3.1749999999999998
 74
0
  0
LTYPE
  5
3C
100
AcDbSymbolTableRecord
100
AcDbLinetypeTableRecord
  2
CENTERX2
 70
0
  3
Center (2x) ________  __  ________  __  _____
 72
65
 73
4
 40
101.6000000000000085
 49
63.5
 74
0
 49
-12.6999999999999993
 74
0
 49
12.6999999999999993
 74
0
 49
-12.6999999999999993
 74
0
  0
LTYPE
  5
3D
100
AcDbSymbolTableRecord
100
AcDbLinetypeTableRecord
  2
BORDER
 70
0
  3
Border __ __ . __ __ . __ __ . __ __ . __ __ .
 72
65
 73
6
 40
44.4499999999999957
 49
12.6999999999999993
 74
0
 49
-6.3499999999999996
 74
0
 49
12.6999999999999993
 74
0
 49
-6.2999999999999998
 74
0
 49
0.1
 74
0
 49
-6.2999999999999998
 74
0
  0
LTYPE
  5
14
100
AcDbSymbolTableRecord
100
AcDbLinetypeTableRecord
  2
BYBLOCK
 70
0
  3

 72
65
 73
0
 40
0.0
  0
LTYPE
  5
3E
100
AcDbSymbolTableRecord
100
AcDbLinetypeTableRecord
  2
BORDERX2
 70
0
  3
Border (2x) ____  ____  .  ____  ____  .  ___
 72
65
 73
6
 40
88.8999999999999773
 49
25.3999999999999986
 74
0
 49
-12.6999999999999993
 74
0
 49
25.3999999999999986
 74
0
 49
-12.6499999999999986
 74
0
 49
0.1
 74
0
 49
-12.6499999999999986
 74
0
  0
LTYPE
  5
3F
100
AcDbSymbolTableRecord
100
AcDbLinetypeTableRecord
  2
ACAD_ISO08W100
 70
0
  3
ISO long-dash short-dash ____ __ ____ __ ____ _
 72
65
 73
4
 40
36.0
 49
24.0
 74
0
 49
-3.0
 74
0
 49
6.0
 74
0
 49
-3.0
 74
0
  0
LTYPE
  5
40
100
AcDbSymbolTableRecord
100
AcDbLinetypeTableRecord
  2
ACAD_ISO07W100
 70
0
  3
ISO dot . . . . . . . . . . . . . . . . . . . . 
 72
65
 73
2
 40
3.0
 49
0.1
 74
0
 49
-2.8999999999999999
 74
0
  0
LTYPE
  5
41
100
AcDbSymbolTableRecord
100
AcDbLinetypeTableRecord
  2
DASHDOT
 70
0
  3
Dash dot __ . __ . __ . __ . __ . __ . __ . __
 72
65
 73
4
 40
25.4000000000000021
 49
12.6999999999999993
 74
0
 49
-6.2999999999999998
 74
0
 49
0.1
 74
0
 49
-6.2999999999999998
 74
0
  0
LTYPE
  5
42
100
AcDbSymbolTableRecord
100
AcDbLinetypeTableRecord
  2
ACAD_ISO12W100
 70
0
  3
ISO dash double-dot __ . . __ . . __ . . __ . . 
 72
65
 73
6
 40
21.0
 49
12.0
 74
0
 49
-2.9500000000000002
 74
0
 49
0.1
 74
0
 49
-2.9000000000000004
 74
0
 49
0.1
 74
0
 49
-2.9500000000000002
 74
0
  0
LTYPE
  5
43
100
AcDbSymbolTableRecord
100
AcDbLinetypeTableRecord
  2
PHANTOMX2
 70
0
  3
Phantom (2x) ____________    ____    ____   _
 72
65
 73
6
 40
127.0000000000000142
 49
63.5
 74
0
 49
-12.6999999999999993
 74
0
 49
12.6999999999999993
 74
0
 49
-12.6999999999999993
 74
0
 49
12.6999999999999993
 74
0
 49
-12.6999999999999993
 74
0
  0
LTYPE
  5
44
100
AcDbSymbolTableRecord
100
AcDbLinetypeTableRecord
  2
DASHED2
 70
0
  3
Dashed (.5x) _ _ _ _ _ _ _ _ _ _ _ _ _ _ _ _ _ 
 72
65
 73
2
 40
9.5249999999999986
 49
6.3499999999999996
 74
0
 49
-3.1749999999999998
 74
0
  0
LTYPE
  5
45
100
AcDbSymbolTableRecord
100
AcDbLinetypeTableRecord
  2
DIVIDE
 70
0
  3
Divide ____ . . ____ . . ____ . . ____ . . ____
 72
65
 73
6
 40
31.7500000000000036
 49
12.6999999999999993
 74
0
 49
-6.2999999999999998
 74
0
 49
0.1
 74
0
 49
-6.25
 74
0
 49
0.1
 74
0
 49
-6.2999999999999998
 74
0
  0
LTYPE
  5
46
100
AcDbSymbolTableRecord
100
AcDbLinetypeTableRecord
  2
ACAD_ISO13W100
 70
0
  3
ISO double-dash double-dot __ __ . . __ __ . . _
 72
65
 73
8
 40
36.0000000000000071
 49
12.0
 74
0
 49
-3.0
 74
0
 49
12.0
 74
0
 49
-2.9500000000000002
 74
0
 49
0.1
 74
0
 49
-2.9000000000000004
 74
0
 49
0.1
 74
0
 49
-2.9500000000000002
 74
0
  0
LTYPE
  5
47
100
AcDbSymbolTableRecord
100
AcDbLinetypeTableRecord
  2
PHANTOM2
 70
0
  3
Phantom (.5x) ___ _ _ ___ _ _ ___ _ _ ___ _ _
 72
65
 73
6
 40
31.7500000000000036
 49
15.875
 74
0
 49
-3.1749999999999998
 74
0
 49
3.1749999999999998
 74
0
 49
-3.1749999999999998
 74
0
 49
3.1749999999999998
 74
0
 49
-3.1749999999999998
 74
0
  0
LTYPE
  5
48
100
AcDbSymbolTableRecord
100
AcDbLinetypeTableRecord
  2
DOT2
 70
0
  3
Dot (.5x) ........................................
 72
65
 73
2
 40
3.1749999999999998
 49
0.1
 74
0
 49
-3.0749999999999997
 74
0
  0
LTYPE
  5
49
100
AcDbSymbolTableRecord
100
AcDbLinetypeTableRecord
  2
ACAD_ISO04W100
 70
0
  3
ISO long-dash dot ____ . ____ . ____ . ____ . _
 72
65
 73
4
 40
30.0
 49
24.0
 74
0
 49
-2.9500000000000002
 74
0
 49
0.1
 74
0
 49
-2.9500000000000002
 74
0
  0
LTYPE
  5
4A
100
AcDbSymbolTableRecord
100
AcDbLinetypeTableRecord
  2
DIVIDE2
 70
0
  3
Divide (.5x) __..__..__..__..__..__..__..__.._
 72
65
 73
6
 40
15.8749999999999982
 49
6.3499999999999996
 74
0
 49
-3.125
 74
0
 49
0.1
 74
0
 49
-3.0750000000000002
 74
0
 49
0.1
 74
0
 49
-3.125
 74
0
  0
LTYPE
  5
4B
100
AcDbSymbolTableRecord
100
AcDbLinetypeTableRecord
  2
DOT
 70
0
  3
Dot . . . . . . . . . . . . . . . . . . . . . . . .
 72
65
 73
2
 40
6.3499999999999996
 49
0.1
 74
0
 49
-6.25
 74
0
  0
LTYPE
  5
4C
100
AcDbSymbolTableRecord
100
AcDbLinetypeTableRecord
  2
ACAD_ISO05W100
 70
0
  3
ISO long-dash double-dot ____ .. ____ .. ____ . 
 72
65
 73
6
 40
33.0000000000000071
 49
24.0
 74
0
 49
-2.9500000000000002
 74
0
 49
0.1
 74
0
 49
-2.9000000000000004
 74
0
 49
0.1
 74
0
 49
-2.9500000000000002
 74
0
  0
LTYPE
  5
4D
100
AcDbSymbolTableRecord
100
AcDbLinetypeTableRecord
  2
PHANTOM
 70
0
  3
Phantom ______  __  __  ______  __  __  ______ 
 72
65
 73
6
 40
63.5000000000000071
 49
31.75
 74
0
 49
-6.3499999999999996
 74
0
 49
6.3499999999999996
 74
0
 49
-6.3499999999999996
 74
0
 49
6.3499999999999996
 74
0
 49
-6.3499999999999996
 74
0
  0
LTYPE
  5
4E
100
AcDbSymbolTableRecord
100
AcDbLinetypeTableRecord
  2
DASHED
 70
0
  3
Dashed __ __ __ __ __ __ __ __ __ __ __ __ __ _
 72
65
 73
2
 40
19.0499999999999972
 49
12.6999999999999993
 74
0
 49
-6.3499999999999996
 74
0
  0
LTYPE
  5
4F
100
AcDbSymbolTableRecord
100
AcDbLinetypeTableRecord
  2
BORDER2
 70
0
  3
Border (.5x) __.__.__.__.__.__.__.__.__.__.__.
 72
65
 73
6
 40
22.2250000000000014
 49
6.3499999999999996
 74
0
 49
-3.1749999999999998
 74
0
 49
6.3499999999999996
 74
0
 49
-3.125
 74
0
 49
0.1
 74
0
 49
-3.125
 74
0
  0
LTYPE
  5
50
100
AcDbSymbolTableRecord
100
AcDbLinetypeTableRecord
  2
DASHEDX2
 70
0
  3
Dashed (2x) ____  ____  ____  ____  ____  ___
 72
65
 73
2
 40
38.0999999999999943
 49
25.3999999999999986
 74
0
 49
-12.6999999999999993
 74
0
  0
LTYPE
  5
51
100
AcDbSymbolTableRecord
100
AcDbLinetypeTableRecord
  2
CENTER
 70
0
  3
Center ____ _ ____ _ ____ _ ____ _ ____ _ ____
 72
65
 73
4
 40
50.8000000000000043
 49
31.75
 74
0
 49
-6.3499999999999996
 74
0
 49
6.3499999999999996
 74
0
 49
-6.3499999999999996
 74
0
  0
LTYPE
  5
52
100
AcDbSymbolTableRecord
100
AcDbLinetypeTableRecord
  2
HIDDEN2
 70
0
  3
Hidden (.5x) _ _ _ _ _ _ _ _ _ _ _ _ _ _ _ _ _ 
 72
65
 73
2
 40
4.7624999999999993
 49
3.1749999999999998
 74
0
 49
-1.5874999999999999
 74
0
  0
LTYPE
  5
53
100
AcDbSymbolTableRecord
100
AcDbLinetypeTableRecord
  2
DASHDOT2
 70
0
  3
Dash dot (.5x) _._._._._._._._._._._._._._._.
 72
65
 73
4
 40
12.6999999999999993
 49
6.3499999999999996
 74
0
 49
-3.125
 74
0
 49
0.1
 74
0
 49
-3.125
 74
0
  0
LTYPE
  5
54
100
AcDbSymbolTableRecord
100
AcDbLinetypeTableRecord
  2
HIDDEN
 70
0
  3
Hidden __ __ __ __ __ __ __ __ __ __ __ __ __ __
 72
65
 73
2
 40
9.5249999999999986
 49
6.3499999999999996
 74
0
 49
-3.1749999999999998
 74
0
  0
LTYPE
  5
55
100
AcDbSymbolTableRecord
100
AcDbLinetypeTableRecord
  2
ACAD_ISO02W100
 70
0
  3
ISO dash __ __ __ __ __ __ __ __ __ __ __ __ __
 72
65
 73
2
 40
15.0
 49
12.0
 74
0
 49
-3.0
 74
0
  0
LTYPE
  5
56
100
AcDbSymbolTableRecord
100
AcDbLinetypeTableRecord
  2
ACAD_ISO11W100
 70
0
  3
ISO double-dash dot __ __ . __ __ . __ __ . __ _
 72
65
 73
6
 40
33.0
 49
12.0
 74
0
 49
-3.0
 74
0
 49
12.0
 74
0
 49
-2.9500000000000002
 74
0
 49
0.1
 74
0
 49
-2.9500000000000002
 74
0
  0
ENDTAB
  0
TABLE
  2
LAYER
  5
2
100
AcDbSymbolTable
 70
5
  0
LAYER
  5
57
100
AcDbSymbolTableRecord
100
AcDbLayerTableRecord
  2
Cuts
 70
0
 62
1
420
16711680
  6
Continuous
370
13
390
F
  0
LAYER
  5
10
100
AcDbSymbolTableRecord
100
AcDbLayerTableRecord
  2
0
 70
0
 62
2
420
16776960
  6
Continuous
370
25
390
F
  0
LAYER
  5
58
100
AcDbSymbolTableRecord
100
AcDbLayerTableRecord
  2
AreaEngraving
 70
0
 62
3
420
65280
  6
Continuous
370
13
390
F
  0
LAYER
  5
59
100
AcDbSymbolTableRecord
100
AcDbLayerTableRecord
  2
VectorEngraving
 70
0
 62
5
420
255
  6
Continuous
370
13
390
F
  0
LAYER
  5
5A
100
AcDbSymbolTableRecord
100
AcDbLayerTableRecord
  2
UserDrawings
 70
0
 62
9
420
12632256
  6
Continuous
370
13
390
F
  0
ENDTAB
  0
TABLE
  2
STYLE
  5
3
100
AcDbSymbolTable
 70
1
  0
STYLE
  5
5B
100
AcDbSymbolTableRecord
100
AcDbTextStyleTableRecord
  2
Standard
 70
0
 40
0.0
 41
1.0
 50
0.0
 71
0
 42
2.5
  3

  4

1001
ACAD
1000
txt
1071
0
  0
ENDTAB
  0
TABLE
  2
VIEW
  5
6
100
AcDbSymbolTable
 70
0
  0
ENDTAB
  0
TABLE
  2
UCS
  5
7
100
AcDbSymbolTable
 70
0
  0
ENDTAB
  0
TABLE
  2
APPID
  5
9
100
AcDbSymbolTable
 70
1
  0
APPID
  5
12
100
AcDbSymbolTableRecord
100
AcDbRegAppTableRecord
  2
ACAD
 70
0
  0
APPID
  5
5C
100
AcDbSymbolTableRecord
100
AcDbRegAppTableRecord
  2
QCAD
 70
0
  0
ENDTAB
  0
TABLE
  2
DIMSTYLE
  5
A
100
AcDbSymbolTable
 70
1
100
AcDbDimStyleTable
 71
0
  0
DIMSTYLE
105
27
100
AcDbSymbolTableRecord
100
AcDbDimStyleTableRecord
  2
Standard
 41
2.5
 42
0.625
 43
3.75
 44
1.25
 70
0
 73
0
 74
0
 77
1
 78
8
140
2.5
141
2.5
143
0.03937007874016
147
0.625
171
3
172
1
271
2
272
2
274
3
278
44
283
0
284
8
340
5B
  0
ENDTAB
  0
TABLE
  2
BLOCK_RECORD
  5
1
100
AcDbSymbolTable
 70
1
  0
BLOCK_RECORD
  5
1F
100
AcDbSymbolTableRecord
100
AcDbBlockTableRecord
  2
*Model_Space
340
22
  0
BLOCK_RECORD
  5
1B
100
AcDbSymbolTableRecord
100
AcDbBlockTableRecord
  2
*Paper_Space
340
1E
  0
BLOCK_RECORD
  5
23
100
AcDbSymbolTableRecord
100
AcDbBlockTableRecord
  2
*Paper_Space0
340
26
  0
BLOCK_RECORD
  5
5D
100
AcDbSymbolTableRecord
100
AcDbBlockTableRecord
  2
RW_Logo_Trans
340
0
  0
BLOCK_RECORD
  5
5E
100
AcDbSymbolTableRecord
100
AcDbBlockTableRecord
  2
SmallPotGauge
340
0
  0
BLOCK_RECORD
  5
5F
100
AcDbSymbolTableRecord
100
AcDbBlockTableRecord
  2
Abacus_Logo
340
0
  0
BLOCK_RECORD
  5
60
100
AcDbSymbolTableRecord
100
AcDbBlockTableRecord
  2
LargePotGauge
340
0
  0
BLOCK_RECORD
  5
61
100
AcDbSymbolTableRecord
100
AcDbBlockTableRecord
  2
RW_Logo_Trans_Filled
340
0
  0
ENDTAB
  0
ENDSEC
  0
SECTION
  2
BLOCKS
  0
BLOCK
  5
20
100
AcDbEntity
  8
0
100
AcDbBlockBegin
  2
*Model_Space
 70
0
 10
0.0
 20
0.0
 30
0.0
  3
*Model_Space
  1

  0
ENDBLK
  5
21
100
AcDbEntity
  8
0
100
AcDbBlockEnd
  0
BLOCK
  5
1C
100
AcDbEntity
 67
1
  8
0
100
AcDbBlockBegin
  2
*Paper_Space
 70
0
 10
0.0
 20
0.0
 30
0.0
  3
*Paper_Space
  1

  0
ENDBLK
  5
1D
100
AcDbEntity
 67
1
  8
0
100
AcDbBlockEnd
  0
BLOCK
  5
24
100
AcDbEntity
  8
0
100
AcDbBlockBegin
  2
*Paper_Space0
 70
0
 10
0.0
 20
0.0
 30
0.0
  3
*Paper_Space0
  1

  0
ENDBLK
  5
25
100
AcDbEntity
  8
0
100
AcDbBlockEnd
  0
BLOCK
  5
62
100
AcDbEntity
  8
0
100
AcDbBlockBegin
  2
RW_Logo_Trans
 70
0
 10
0.0
 20
0.0
 30
0.0
  3
RW_Logo_Trans
  1

  0
LWPOLYLINE
  5
63
100
AcDbEntity
  8
0
 62
256
370
-1
 48
1.0
  6
BYLAYER
100
AcDbPolyline
 90
20
 70
128
 10
56.6914060000000006
 20
0.0
 10
56.6914060000000006
 20
-15.8261719999999997
 10
37.7949219999999997
 20
-15.8261719999999997
 10
37.7949219999999997
 20
-47.4804689999999994
 10
56.6914060000000006
 20
-47.4804689999999994
 10
56.6914060000000006
 20
-141.2109399999999937
 10
37.7949219999999997
 20
-141.2109399999999937
 10
37.7949219999999997
 20
-172.8632800000000032
 10
56.6914060000000006
 20
-172.8632800000000032
 10
56.6914060000000006
 20
-188.6601599999999905
 10
56.6914060000000006
 20
-264.566410000000019
 10
144.8808599999999842
 20
-264.566410000000019
 10
144.8808599999999842
 20
-188.660160000000019
 10
165.4003899999999874
 20
-188.660160000000019
 10
193.027339999999981
 20
-264.566410000000019
 10
281.2167999999999779
 20
-264.566410000000019
 10
242.9043000000000063
 20
-159.3007800000000032
 42
0.1923579134144613
 10
268.9335900000000379
 20
-94.3300779999909622
 42
0.4142131276425501
 10
174.6035200025277163
 20
-0.0000000000000284
 10
56.6914060000000006
 20
0.0
  0
LWPOLYLINE
  5
64
100
AcDbEntity
  8
0
 62
256
370
-1
 48
1.0
  6
BYLAYER
100
AcDbPolyline
 90
6
 70
128
 10
144.8808599999999842
 20
-63.2910159999999991
 10
166.6933599999999842
 20
-63.2910159999999991
 42
-0.4142108826965076
 10
197.7304699999999684
 20
-94.330078000010829
 42
-0.4141924816972828
 10
166.6933599999999842
 20
-125.3671899999999795
 10
144.8808599999999842
 20
-125.3671899999999937
 10
144.8808599999999842
 20
-63.2910159999999991
  0
LWPOLYLINE
  5
65
100
AcDbEntity
  8
0
 62
256
370
-1
 48
1.0
  6
BYLAYER
100
AcDbPolyline
 90
5
 70
128
 10
476.0527299999999968
 20
0.0
 10
423.8535200000000032
 20
-143.4179699999999968
 10
467.9472700000000032
 20
-264.566410000000019
 10
520.1484400000000505
 20
-121.1484400000000221
 10
476.0527299999999968
 20
0.0
  0
LWPOLYLINE
  5
66
100
AcDbEntity
  8
0
 62
256
370
-1
 48
1.0
  6
BYLAYER
100
AcDbPolyline
 90
5
 70
128
 10
283.464839999999981
 20
0.0
 10
379.7597700000000032
 20
-264.566410000000019
 10
467.9472700000000032
 20
-264.566410000000019
 10
371.6542999999999779
 20
0.0
 10
283.464839999999981
 20
0.0
  0
LWPOLYLINE
  5
67
100
AcDbEntity
  8
0
 62
256
370
-1
 48
1.0
  6
BYLAYER
100
AcDbPolyline
 90
8
 70
128
 10
476.0527299999999968
 20
0.0
 10
572.347660000000019
 20
-264.566410000000019
 10
660.5371099999999842
 20
-264.566410000000019
 10
756.8320300000000316
 20
0.0
 10
668.6425799999999526
 20
0.0
 10
616.441410000000019
 20
-143.4179699999999968
 10
564.2421900000000505
 20
0.0
 10
476.0527299999999968
 20
0.0
  0
ENDBLK
  5
68
100
AcDbEntity
  8
0
100
AcDbBlockEnd
  0
BLOCK
  5
69
100
AcDbEntity
  8
0
100
AcDbBlockBegin
  2
SmallPotGauge
 70
0
 10
0.0
 20
0.0
 30
0.0
  3
SmallPotGauge
  1

  0
LWPOLYLINE
  5
6A
100
AcDbEntity
  8
0
 62
256
370
-1
 48
1.0
  6
BYLAYER
100
AcDbPolyline
 90
6
 70
128
 10
104.8679000000000059
 20
-139.9265100000000075
 10
104.8679000000000059
 20
-141.6826000000000079
 42
-0.0094312964636997
 10
104.9997900000000044
 20
-141.6765999999999792
 42
-0.0094282736998003
 10
105.1317400000000077
 20
-141.6795999999999935
 10
105.1317400000000077
 20
-139.926809999999989
 10
104.8679000000000059
 20
-139.9265100000000075
  0
LWPOLYLINE
  5
6B
100
AcDbEntity
  8
0
 62
256
370
-1
 48
1.0
  6
BYLAYER
100
AcDbPolyline
 90
5
 70
128
 10
102.4890800000000013
 20
-140.5638900000000149
 10
102.2605999999999966
 20
-140.6958300000000008
 10
103.137360000000001
 20
-142.2144000000000119
 42
-0.018850642653673
 10
103.3667400000000072
 20
-142.0840800000000002
 10
102.4890800000000013
 20
-140.5638900000000149
  0
LWPOLYLINE
  5
6C
100
AcDbEntity
  8
0
 62
256
370
-1
 48
1.0
  6
BYLAYER
100
AcDbPolyline
 90
5
 70
128
 10
107.5105999999999966
 20
-140.5638900000000149
 10
106.6341099999999926
 20
-142.0820000000000221
 42
-0.0188531870154901
 10
106.8627299999999991
 20
-142.2137200000000234
 10
107.7390800000000013
 20
-140.6958300000000293
 10
107.5105999999999966
 20
-140.5638900000000149
  0
LWPOLYLINE
  5
6D
100
AcDbEntity
  8
0
 62
256
370
-1
 48
1.0
  6
BYLAYER
100
AcDbPolyline
 90
5
 70
128
 10
100.5191599999999994
 20
-142.4372700000000123
 10
100.3872599999999977
 20
-142.6657500000000027
 10
101.9074099999999987
 20
-143.5434099999999944
 42
-0.0188520557002934
 10
102.0377699999999948
 20
-143.3140300000000025
 10
100.5191599999999994
 20
-142.4372700000000123
  0
LWPOLYLINE
  5
6E
100
AcDbEntity
  8
0
 62
256
370
-1
 48
1.0
  6
BYLAYER
100
AcDbPolyline
 90
5
 70
128
 10
109.4805199999999985
 20
-142.4372700000000123
 10
107.9625800000000027
 20
-143.3136200000000144
 42
-0.0188549721058722
 10
108.0943500000000483
 20
-143.5422400000000209
 10
109.6124100000000112
 20
-142.6657500000000312
 10
109.4805199999999985
 20
-142.4372700000000123
  0
LWPOLYLINE
  5
6F
100
AcDbEntity
  8
0
 62
256
370
-1
 48
1.0
  6
BYLAYER
100
AcDbPolyline
 90
6
 70
128
 10
99.7497970000000009
 20
-145.0446100000000058
 10
99.7497970000000009
 20
-145.3084499999999935
 10
101.5059300000000064
 20
-145.3084499999999935
 42
-0.0094348651562602
 10
101.4999299999999778
 20
-145.1765100000000075
 42
-0.00943201020193
 10
101.5059299999999922
 20
-145.0446100000000058
 10
99.7497970000000009
 20
-145.0446100000000058
  0
LWPOLYLINE
  5
70
100
AcDbEntity
  8
0
 62
256
370
-1
 48
1.0
  6
BYLAYER
100
AcDbPolyline
 90
6
 70
128
 10
108.4970499999999873
 20
-145.0446100000000058
 42
-0.009424702242363
 10
108.5000499999999874
 20
-145.1765099999999222
 42
-0.0094348651562611
 10
108.4940500000000156
 20
-145.3084499999999935
 10
110.2501400000000018
 20
-145.3084499999999935
 10
110.2501400000000018
 20
-145.0446100000000058
 10
108.4970500000000015
 20
-145.0446100000000058
  0
LWPOLYLINE
  5
71
100
AcDbEntity
  8
0
 62
256
370
-1
 48
1.0
  6
BYLAYER
100
AcDbPolyline
 90
5
 70
128
 10
108.0922199999999975
 20
-146.8095600000000047
 42
-0.0188551641205852
 10
107.9618600000000015
 20
-147.0389900000000125
 10
109.4805199999999985
 20
-147.9157500000000027
 10
109.612409999999997
 20
-147.6872700000000123
 10
108.0922199999999975
 20
-146.8095600000000047
  0
LWPOLYLINE
  5
72
100
AcDbEntity
  8
0
 62
256
370
-1
 48
1.0
  6
BYLAYER
100
AcDbPolyline
 90
5
 70
128
 10
101.9074099999999987
 20
-146.8096099999999922
 10
100.3872599999999977
 20
-147.6872699999999838
 10
100.5191599999999994
 20
-147.9157499999999743
 10
102.0377699999999948
 20
-147.0389899999999841
 42
-0.0188520557002923
 10
101.9074099999999845
 20
-146.8096099999999922
  0
LWPOLYLINE
  5
73
100
AcDbEntity
  8
0
 62
256
370
-1
 48
1.0
  6
BYLAYER
100
AcDbPolyline
 90
5
 70
128
 10
106.8623199999999969
 20
-148.1385799999999904
 42
-0.0188520557002944
 10
106.6329399999999907
 20
-148.2689399999999864
 10
107.5105999999999966
 20
-149.7891300000000001
 10
107.7390800000000013
 20
-149.6571900000000142
 10
106.8623199999999969
 20
-148.1385799999999904
  0
LWPOLYLINE
  5
74
100
AcDbEntity
  8
0
 62
256
370
-1
 48
1.0
  6
BYLAYER
100
AcDbPolyline
 90
6
 70
128
 10
103.137360000000001
 20
-148.1386200000000031
 10
102.2605999999999966
 20
-149.6571900000000142
 10
102.4890800000000013
 20
-149.7891300000000001
 10
103.3667400000000072
 20
-148.2689399999999864
 42
-0.0188506426536739
 10
103.137360000000001
 20
-148.1386199999999747
 10
103.137360000000001
 20
-148.1386200000000031
  0
ENDBLK
  5
75
100
AcDbEntity
  8
0
100
AcDbBlockEnd
  0
BLOCK
  5
76
100
AcDbEntity
  8
0
100
AcDbBlockBegin
  2
Abacus_Logo
 70
0
 10
0.0
 20
0.0
 30
0.0
  3
Abacus_Logo
  1

  0
LINE
  5
77
100
AcDbEntity
  8
0
 62
7
420
16777215
370
-1
 48
1.0
  6
BYLAYER
100
AcDbLine
 10
0.0
 20
-0.0000009999999975
 30
0.0
 11
132.099490000000003
 21
-0.0000009999999975
 31
0.0
  0
LINE
  5
78
100
AcDbEntity
  8
0
 62
7
420
16777215
370
-1
 48
1.0
  6
BYLAYER
100
AcDbLine
 10
132.099490000000003
 20
-0.0000009999999975
 30
0.0
 11
132.099490000000003
 21
-79.9999930000000177
 31
0.0
  0
LINE
  5
79
100
AcDbEntity
  8
0
 62
7
420
16777215
370
-1
 48
1.0
  6
BYLAYER
100
AcDbLine
 10
132.099490000000003
 20
-79.9999930000000177
 30
0.0
 11
0.0
 21
-79.9999930000000177
 31
0.0
  0
LINE
  5
7A
100
AcDbEntity
  8
0
 62
7
420
16777215
370
-1
 48
1.0
  6
BYLAYER
100
AcDbLine
 10
0.0
 20
-79.9999930000000177
 30
0.0
 11
0.0
 21
-0.0000009999999975
 31
0.0
  0
LWPOLYLINE
  5
7B
100
AcDbEntity
  8
0
 62
7
420
16777215
370
-1
 48
1.0
  6
BYLAYER
100
AcDbPolyline
 90
2
 70
128
 10
87.5345939999999985
 20
-43.9719970000000018
 10
88.7981340000000046
 20
-43.9719970000000018
  0
ARC
  5
7C
100
AcDbEntity
  8
0
 62
7
420
16777215
370
-1
 48
1.0
  6
BYLAYER
100
AcDbCircle
 10
88.7994930662790551
 20
-44.5915779337209202
 30
0.0
 40
0.6195824242920892
100
AcDbArc
 50
359.8743204757542458
 51
90.125679524240681
  0
LWPOLYLINE
  5
7D
100
AcDbEntity
  8
0
 62
7
420
16777215
370
-1
 48
1.0
  6
BYLAYER
100
AcDbPolyline
 90
2
 70
128
 10
89.4190739999999948
 20
-44.5929370000000063
 10
89.4190739999999948
 20
-54.6212869999999953
  0
ARC
  5
7E
100
AcDbEntity
  8
0
 62
7
420
16777215
370
-1
 48
1.0
  6
BYLAYER
100
AcDbCircle
 10
88.7994930662790694
 20
-54.6226460662790743
 30
0.0
 40
0.6195824242920608
100
AcDbArc
 50
269.8743204757553258
 51
0.1256795242457381
  0
LWPOLYLINE
  5
7F
100
AcDbEntity
  8
0
 62
7
420
16777215
370
-1
 48
1.0
  6
BYLAYER
100
AcDbPolyline
 90
2
 70
128
 10
88.7981339999999761
 20
-55.2422269999999855
 10
87.53459399999997
 20
-55.2422269999999855
  0
ARC
  5
80
100
AcDbEntity
  8
0
 62
7
420
16777215
370
-1
 48
1.0
  6
BYLAYER
100
AcDbCircle
 10
87.5332349337208768
 20
-54.6226460662790885
 30
0.0
 40
0.6195824242920466
100
AcDbArc
 50
179.8743204757542458
 51
270.1256795242446742
  0
LWPOLYLINE
  5
81
100
AcDbEntity
  8
0
 62
7
420
16777215
370
-1
 48
1.0
  6
BYLAYER
100
AcDbPolyline
 90
2
 70
128
 10
86.9136539999999798
 20
-54.6212869999999953
 10
86.9136539999999798
 20
-44.5929369999999921
  0
ARC
  5
82
100
AcDbEntity
  8
0
 62
7
420
16777215
370
-1
 48
1.0
  6
BYLAYER
100
AcDbCircle
 10
87.533234933720891
 20
-44.5915779337208988
 30
0.0
 40
0.6195824242920607
100
AcDbArc
 50
89.87432047575669
 51
180.1256795242457258
  0
LWPOLYLINE
  5
83
100
AcDbEntity
  8
0
 62
7
420
16777215
370
-1
 48
1.0
  6
BYLAYER
100
AcDbPolyline
 90
2
 70
128
 10
87.53459399999997
 20
-43.9719969999999876
 10
87.5345939999999985
 20
-43.9719970000000018
  0
LWPOLYLINE
  5
84
100
AcDbEntity
  8
0
 62
7
420
16777215
370
-1
 48
1.0
  6
BYLAYER
100
AcDbPolyline
 90
2
 70
128
 10
81.0330439999999896
 20
-48.4866869999999892
 10
118.4790140000000065
 20
-48.4866869999999892
  0
ARC
  5
85
100
AcDbEntity
  8
0
 62
7
420
16777215
370
-1
 48
1.0
  6
BYLAYER
100
AcDbCircle
 10
118.4803730662790713
 20
-49.1062679337208863
 30
0.0
 40
0.619582424292075
100
AcDbArc
 50
359.8743204757542458
 51
90.1256795242419884
  0
LWPOLYLINE
  5
86
100
AcDbEntity
  8
0
 62
7
420
16777215
370
-1
 48
1.0
  6
BYLAYER
100
AcDbPolyline
 90
2
 70
128
 10
119.0999539999999968
 20
-49.1076269999999795
 10
119.0999539999999968
 20
-50.1065469999999777
  0
ARC
  5
87
100
AcDbEntity
  8
0
 62
7
420
16777215
370
-1
 48
1.0
  6
BYLAYER
100
AcDbCircle
 10
118.4803730662790713
 20
-50.1079060662790639
 30
0.0
 40
0.6195824242920537
100
AcDbArc
 50
269.8743204757579974
 51
0.1256795242457381
  0
LWPOLYLINE
  5
88
100
AcDbEntity
  8
0
 62
7
420
16777215
370
-1
 48
1.0
  6
BYLAYER
100
AcDbPolyline
 90
2
 70
128
 10
118.4790140000000065
 20
-50.727486999999968
 10
81.0330439999999896
 20
-50.727486999999968
  0
ARC
  5
89
100
AcDbEntity
  8
0
 62
7
420
16777215
370
-1
 48
1.0
  6
BYLAYER
100
AcDbCircle
 10
81.0316849337208964
 20
-50.1079060662790425
 30
0.0
 40
0.6195824242920465
100
AcDbArc
 50
179.8743204757600722
 51
270.1256795242446174
  0
LWPOLYLINE
  5
8A
100
AcDbEntity
  8
0
 62
7
420
16777215
370
-1
 48
1.0
  6
BYLAYER
100
AcDbPolyline
 90
2
 70
128
 10
80.4121039999999994
 20
-50.1065469999999777
 10
80.4121039999999994
 20
-49.1076269999999795
  0
ARC
  5
8B
100
AcDbEntity
  8
0
 62
7
420
16777215
370
-1
 48
1.0
  6
BYLAYER
100
AcDbCircle
 10
81.0316849337208964
 20
-49.1062679337208863
 30
0.0
 40
0.6195824242920466
100
AcDbArc
 50
89.8743204757553826
 51
180.1256795242457258
  0
LWPOLYLINE
  5
8C
100
AcDbEntity
  8
0
 62
7
420
16777215
370
-1
 48
1.0
  6
BYLAYER
100
AcDbPolyline
 90
2
 70
128
 10
97.8041240000000016
 20
-34.6201269999999965
 10
99.0676640000000077
 20
-34.6201269999999965
  0
ARC
  5
8D
100
AcDbEntity
  8
0
 62
7
420
16777215
370
-1
 48
1.0
  6
BYLAYER
100
AcDbCircle
 10
99.0690245384549399
 20
-35.2397164397146483
 30
0.0
 40
0.6195909334962733
100
AcDbArc
 50
359.8751087831928999
 51
90.1258139358805295
  0
LWPOLYLINE
  5
8E
100
AcDbEntity
  8
0
 62
7
420
16777215
370
-1
 48
1.0
  6
BYLAYER
100
AcDbPolyline
 90
2
 70
128
 10
99.6886140000000012
 20
-35.241067000000001
 10
99.6886140000000012
 20
-45.2694070000000011
  0
ARC
  5
8F
100
AcDbEntity
  8
0
 62
7
420
16777215
370
-1
 48
1.0
  6
BYLAYER
100
AcDbCircle
 10
99.0690160324612634
 20
-45.2707590324612212
 30
0.0
 40
0.6195994426804748
100
AcDbArc
 50
269.8749743625714359
 51
0.1250256374233243
  0
LWPOLYLINE
  5
90
100
AcDbEntity
  8
0
 62
7
420
16777215
370
-1
 48
1.0
  6
BYLAYER
100
AcDbPolyline
 90
2
 70
128
 10
99.0676640000000077
 20
-45.8903569999999945
 10
97.8041240000000016
 20
-45.8903569999999945
  0
ARC
  5
91
100
AcDbEntity
  8
0
 62
7
420
16777215
370
-1
 48
1.0
  6
BYLAYER
100
AcDbCircle
 10
97.8027734397146133
 20
-45.2707675384549333
 30
0.0
 40
0.6195909334962397
100
AcDbArc
 50
179.8741860641215737
 51
270.1248912168097718
  0
LWPOLYLINE
  5
92
100
AcDbEntity
  8
0
 62
7
420
16777215
370
-1
 48
1.0
  6
BYLAYER
100
AcDbPolyline
 90
2
 70
128
 10
97.1831840000000113
 20
-45.2694070000000011
 10
97.1831840000000113
 20
-35.241067000000001
  0
ARC
  5
93
100
AcDbEntity
  8
0
 62
7
420
16777215
370
-1
 48
1.0
  6
BYLAYER
100
AcDbCircle
 10
97.8027649337209368
 20
-35.239707933720922
 30
0.0
 40
0.619582424292075
100
AcDbArc
 50
89.8743204757580259
 51
180.1256795242457258
  0
LWPOLYLINE
  5
94
100
AcDbEntity
  8
0
 62
7
420
16777215
370
-1
 48
1.0
  6
BYLAYER
100
AcDbPolyline
 90
2
 70
128
 10
106.9354439999999897
 20
-34.6201269999999965
 10
108.198993999999999
 20
-34.6201269999999965
  0
ARC
  5
95
100
AcDbEntity
  8
0
 62
7
420
16777215
370
-1
 48
1.0
  6
BYLAYER
100
AcDbCircle
 10
108.200353066279078
 20
-35.2397079337209078
 30
0.0
 40
0.6195824242920608
100
AcDbArc
 50
359.8743204757542458
 51
90.12567952424331
  0
LWPOLYLINE
  5
96
100
AcDbEntity
  8
0
 62
7
420
16777215
370
-1
 48
1.0
  6
BYLAYER
100
AcDbPolyline
 90
2
 70
128
 10
108.8199339999999893
 20
-35.241067000000001
 10
108.8199339999999893
 20
-45.2694070000000011
  0
ARC
  5
97
100
AcDbEntity
  8
0
 62
7
420
16777215
370
-1
 48
1.0
  6
BYLAYER
100
AcDbCircle
 10
108.2003445602853731
 20
-45.2707675384549475
 30
0.0
 40
0.619590933496259
100
AcDbArc
 50
269.8751087831914788
 51
0.1258139358784509
  0
LWPOLYLINE
  5
98
100
AcDbEntity
  8
0
 62
7
420
16777215
370
-1
 48
1.0
  6
BYLAYER
100
AcDbPolyline
 90
2
 70
128
 10
108.198993999999999
 20
-45.8903569999999945
 10
106.9354439999999897
 20
-45.8903569999999945
  0
ARC
  5
99
100
AcDbEntity
  8
0
 62
7
420
16777215
370
-1
 48
1.0
  6
BYLAYER
100
AcDbCircle
 10
106.934099807846323
 20
-45.2707611704257786
 30
0.0
 40
0.6195972876621397
100
AcDbArc
 50
179.8747762240836892
 51
270.1243010568433647
  0
LWPOLYLINE
  5
9A
100
AcDbEntity
  8
0
 62
7
420
16777215
370
-1
 48
1.0
  6
BYLAYER
100
AcDbPolyline
 90
2
 70
128
 10
106.3145039999999995
 20
-45.2694070000000011
 10
106.3145039999999995
 20
-35.241067000000001
  0
ARC
  5
9B
100
AcDbEntity
  8
0
 62
7
420
16777215
370
-1
 48
1.0
  6
BYLAYER
100
AcDbCircle
 10
106.9340913016777392
 20
-35.2397143016777363
 30
0.0
 40
0.619588778298198
100
AcDbArc
 50
89.8749106357250298
 51
180.1250893642757944
  0
LWPOLYLINE
  5
9C
100
AcDbEntity
  8
0
 62
7
420
16777215
370
-1
 48
1.0
  6
BYLAYER
100
AcDbPolyline
 90
2
 70
128
 10
74.5850639999999885
 20
-39.134877000000003
 10
112.0310439999999801
 20
-39.134877000000003
  0
ARC
  5
9D
100
AcDbEntity
  8
0
 62
7
420
16777215
370
-1
 48
1.0
  6
BYLAYER
100
AcDbCircle
 10
112.0324030662790449
 20
-39.7544579337209143
 30
0.0
 40
0.619582424292075
100
AcDbArc
 50
359.8743204757542458
 51
90.1256795242419884
  0
LWPOLYLINE
  5
9E
100
AcDbEntity
  8
0
 62
7
420
16777215
370
-1
 48
1.0
  6
BYLAYER
100
AcDbPolyline
 90
2
 70
128
 10
112.6519839999999704
 20
-39.7558170000000075
 10
112.6519839999999704
 20
-40.7547270000000026
  0
ARC
  5
9F
100
AcDbEntity
  8
0
 62
7
420
16777215
370
-1
 48
1.0
  6
BYLAYER
100
AcDbCircle
 10
112.0324030662790449
 20
-40.7560860662790745
 30
0.0
 40
0.619582424292082
100
AcDbArc
 50
269.8743204757579974
 51
0.1256795242457381
  0
LWPOLYLINE
  5
A0
100
AcDbEntity
  8
0
 62
7
420
16777215
370
-1
 48
1.0
  6
BYLAYER
100
AcDbPolyline
 90
2
 70
128
 10
112.0310439999999801
 20
-41.3756670000000071
 10
74.5850639999999885
 20
-41.3756670000000071
  0
ARC
  5
A1
100
AcDbEntity
  8
0
 62
7
420
16777215
370
-1
 48
1.0
  6
BYLAYER
100
AcDbCircle
 10
74.5837049337209521
 20
-40.7560860662790319
 30
0.0
 40
0.6195824242921317
100
AcDbArc
 50
179.8743204757600722
 51
270.1256795242393878
  0
LWPOLYLINE
  5
A2
100
AcDbEntity
  8
0
 62
7
420
16777215
370
-1
 48
1.0
  6
BYLAYER
100
AcDbPolyline
 90
2
 70
128
 10
73.9641239999999698
 20
-40.7547270000000026
 10
73.9641239999999698
 20
-39.7558170000000075
  0
ARC
  5
A3
100
AcDbEntity
  8
0
 62
7
420
16777215
370
-1
 48
1.0
  6
BYLAYER
100
AcDbCircle
 10
74.5837049337208953
 20
-39.7544579337209214
 30
0.0
 40
0.6195824242920679
100
AcDbArc
 50
89.8743204757553826
 51
180.1256795242457258
  0
LWPOLYLINE
  5
A4
100
AcDbEntity
  8
0
 62
7
420
16777215
370
-1
 48
1.0
  6
BYLAYER
100
AcDbPolyline
 90
2
 70
128
 10
90.8052239999999813
 20
-26.5169170000000065
 10
92.0687639999999874
 20
-26.5169170000000065
  0
ARC
  5
A5
100
AcDbEntity
  8
0
 62
7
420
16777215
370
-1
 48
1.0
  6
BYLAYER
100
AcDbCircle
 10
92.0701230662790664
 20
-27.1364979337209071
 30
0.0
 40
0.6195824242920608
100
AcDbArc
 50
359.8743204757542458
 51
90.12567952424331
  0
LWPOLYLINE
  5
A6
100
AcDbEntity
  8
0
 62
7
420
16777215
370
-1
 48
1.0
  6
BYLAYER
100
AcDbPolyline
 90
2
 70
128
 10
92.6897039999999777
 20
-27.137857000000011
 10
92.6897039999999777
 20
-37.166197000000011
  0
ARC
  5
A7
100
AcDbEntity
  8
0
 62
7
420
16777215
370
-1
 48
1.0
  6
BYLAYER
100
AcDbCircle
 10
92.0701230662790522
 20
-37.1675560662790758
 30
0.0
 40
0.6195824242920892
100
AcDbArc
 50
269.8743204757579974
 51
0.1256795242457381
  0
LWPOLYLINE
  5
A8
100
AcDbEntity
  8
0
 62
7
420
16777215
370
-1
 48
1.0
  6
BYLAYER
100
AcDbPolyline
 90
2
 70
128
 10
92.0687639999999874
 20
-37.7871370000000155
 10
90.8052239999999813
 20
-37.7871370000000155
  0
ARC
  5
A9
100
AcDbEntity
  8
0
 62
7
420
16777215
370
-1
 48
1.0
  6
BYLAYER
100
AcDbCircle
 10
90.8038649337209165
 20
-37.1675560662790971
 30
0.0
 40
0.619582424292075
100
AcDbArc
 50
179.8743204757542458
 51
270.1256795242420026
  0
LWPOLYLINE
  5
AA
100
AcDbEntity
  8
0
 62
7
420
16777215
370
-1
 48
1.0
  6
BYLAYER
100
AcDbPolyline
 90
2
 70
128
 10
90.184283999999991
 20
-37.166197000000011
 10
90.184283999999991
 20
-27.137857000000011
  0
ARC
  5
AB
100
AcDbEntity
  8
0
 62
7
420
16777215
370
-1
 48
1.0
  6
BYLAYER
100
AcDbCircle
 10
90.8038649337209165
 20
-27.1364979337209249
 30
0.0
 40
0.6195824242920679
100
AcDbArc
 50
89.8743204757580259
 51
180.1256795242457258
  0
LWPOLYLINE
  5
AC
100
AcDbEntity
  8
0
 62
7
420
16777215
370
-1
 48
1.0
  6
BYLAYER
100
AcDbPolyline
 90
2
 70
128
 10
68.1370839999999873
 20
-31.0316070000000082
 10
105.5830639999999789
 20
-31.0316070000000082
  0
ARC
  5
AD
100
AcDbEntity
  8
0
 62
7
420
16777215
370
-1
 48
1.0
  6
BYLAYER
100
AcDbCircle
 10
105.5844230662790579
 20
-31.6511879337209407
 30
0.0
 40
0.6195824242920607
100
AcDbArc
 50
359.8743204757600438
 51
90.12567952424331
  0
LWPOLYLINE
  5
AE
100
AcDbEntity
  8
0
 62
7
420
16777215
370
-1
 48
1.0
  6
BYLAYER
100
AcDbPolyline
 90
2
 70
128
 10
106.2040039999999692
 20
-31.6525470000000126
 10
106.2040039999999692
 20
-32.6514670000000109
  0
ARC
  5
AF
100
AcDbEntity
  8
0
 62
7
420
16777215
370
-1
 48
1.0
  6
BYLAYER
100
AcDbCircle
 10
105.5844230662790295
 20
-32.6528260662790899
 30
0.0
 40
0.6195824242920749
100
AcDbArc
 50
269.8743204757593048
 51
0.1256795242457381
  0
LWPOLYLINE
  5
B0
100
AcDbEntity
  8
0
 62
7
420
16777215
370
-1
 48
1.0
  6
BYLAYER
100
AcDbPolyline
 90
2
 70
128
 10
105.5830639999999789
 20
-33.2724070000000154
 10
68.1370839999999873
 20
-33.2724070000000154
  0
ARC
  5
B1
100
AcDbEntity
  8
0
 62
7
420
16777215
370
-1
 48
1.0
  6
BYLAYER
100
AcDbCircle
 10
68.135724933720951
 20
-32.6528260662790473
 30
0.0
 40
0.6195824242921317
100
AcDbArc
 50
179.8743204757600722
 51
270.1256795242393878
  0
LWPOLYLINE
  5
B2
100
AcDbEntity
  8
0
 62
7
420
16777215
370
-1
 48
1.0
  6
BYLAYER
100
AcDbPolyline
 90
2
 70
128
 10
67.5161439999999686
 20
-32.6514670000000109
 10
67.5161439999999686
 20
-31.6525570000000158
  0
ARC
  5
B3
100
AcDbEntity
  8
0
 62
7
420
16777215
370
-1
 48
1.0
  6
BYLAYER
100
AcDbCircle
 10
68.1357249337209083
 20
-31.6511979337209333
 30
0.0
 40
0.6195824242920713
100
AcDbArc
 50
89.87432047575669
 51
180.1256795242457258
  0
LWPOLYLINE
  5
B4
100
AcDbEntity
  8
0
 62
7
420
16777215
370
-1
 48
1.0
  6
BYLAYER
100
AcDbPolyline
 90
2
 70
128
 10
68.1370839999999873
 20
-31.0316170000000113
 10
68.1370839999999873
 20
-31.0316070000000082
  0
LWPOLYLINE
  5
B5
100
AcDbEntity
  8
0
 62
7
420
16777215
370
-1
 48
1.0
  6
BYLAYER
100
AcDbPolyline
 90
2
 70
128
 10
71.385563999999988
 20
-17.4045340000000124
 10
72.6491039999999941
 20
-17.4045340000000124
  0
ARC
  5
B6
100
AcDbEntity
  8
0
 62
7
420
16777215
370
-1
 48
1.0
  6
BYLAYER
100
AcDbCircle
 10
72.6504645628774171
 20
-18.0241134218239161
 30
0.0
 40
0.6195809156833321
100
AcDbArc
 50
359.8748276835821684
 51
90.1258182286071872
  0
LWPOLYLINE
  5
B7
100
AcDbEntity
  8
0
 62
7
420
16777215
370
-1
 48
1.0
  6
BYLAYER
100
AcDbPolyline
 90
2
 70
128
 10
73.2700439999999844
 20
-18.0254670000000061
 10
73.2700439999999844
 20
-28.0538070000000062
  0
ARC
  5
B8
100
AcDbEntity
  8
0
 62
7
420
16777215
370
-1
 48
1.0
  6
BYLAYER
100
AcDbCircle
 10
72.6504630662790873
 20
-28.0551660662790994
 30
0.0
 40
0.6195824242920608
100
AcDbArc
 50
269.8743204757553258
 51
0.1256795242457381
  0
LWPOLYLINE
  5
B9
100
AcDbEntity
  8
0
 62
7
420
16777215
370
-1
 48
1.0
  6
BYLAYER
100
AcDbPolyline
 90
2
 70
128
 10
72.6491039999999941
 20
-28.6747470000000106
 10
71.385563999999988
 20
-28.6747470000000106
  0
ARC
  5
BA
100
AcDbEntity
  8
0
 62
7
420
16777215
370
-1
 48
1.0
  6
BYLAYER
100
AcDbCircle
 10
71.3842049337209232
 20
-28.0551660662790567
 30
0.0
 40
0.6195824242921033
100
AcDbArc
 50
179.8743204757600722
 51
270.1256795242420026
  0
LWPOLYLINE
  5
BB
100
AcDbEntity
  8
0
 62
7
420
16777215
370
-1
 48
1.0
  6
BYLAYER
100
AcDbPolyline
 90
2
 70
128
 10
70.7646239999999693
 20
-28.0538070000000062
 10
70.7646239999999693
 20
-18.0254670000000061
  0
ARC
  5
BC
100
AcDbEntity
  8
0
 62
7
420
16777215
370
-1
 48
1.0
  6
BYLAYER
100
AcDbCircle
 10
71.3842034371225225
 20
-18.0241134218239196
 30
0.0
 40
0.6195809156833276
100
AcDbArc
 50
89.8741817713888764
 51
180.1251723164179168
  0
LWPOLYLINE
  5
BD
100
AcDbEntity
  8
0
 62
7
420
16777215
370
-1
 48
1.0
  6
BYLAYER
100
AcDbPolyline
 90
2
 70
128
 10
82.5967339999999695
 20
-17.4045340000000124
 10
83.8602639999999724
 20
-17.4045340000000124
  0
ARC
  5
BE
100
AcDbEntity
  8
0
 62
7
420
16777215
370
-1
 48
1.0
  6
BYLAYER
100
AcDbCircle
 10
83.861626035002601
 20
-18.0241219279400724
 30
0.0
 40
0.6195894250133891
100
AcDbArc
 50
359.8756159973074773
 51
90.1259526339583346
  0
LWPOLYLINE
  5
BF
100
AcDbEntity
  8
0
 62
7
420
16777215
370
-1
 48
1.0
  6
BYLAYER
100
AcDbPolyline
 90
2
 70
128
 10
84.4812139999999658
 20
-18.0254670000000061
 10
84.4812139999999658
 20
-28.0538070000000062
  0
ARC
  5
C0
100
AcDbEntity
  8
0
 62
7
420
16777215
370
-1
 48
1.0
  6
BYLAYER
100
AcDbCircle
 10
83.8616245384548904
 20
-28.055157560285366
 30
0.0
 40
0.6195909334962824
100
AcDbArc
 50
269.8741860641207495
 51
0.1248912168070956
  0
LWPOLYLINE
  5
C1
100
AcDbEntity
  8
0
 62
7
420
16777215
370
-1
 48
1.0
  6
BYLAYER
100
AcDbPolyline
 90
2
 70
128
 10
83.8602639999999724
 20
-28.6747470000000106
 10
82.5967339999999695
 20
-28.6747470000000106
  0
ARC
  5
C2
100
AcDbEntity
  8
0
 62
7
420
16777215
370
-1
 48
1.0
  6
BYLAYER
100
AcDbCircle
 10
82.5953734615450372
 20
-28.0551575602853696
 30
0.0
 40
0.6195909334962733
100
AcDbArc
 50
179.8751087831928999
 51
270.1258139358805579
  0
LWPOLYLINE
  5
C3
100
AcDbEntity
  8
0
 62
7
420
16777215
370
-1
 48
1.0
  6
BYLAYER
100
AcDbPolyline
 90
2
 70
128
 10
81.975783999999976
 20
-28.0538070000000062
 10
81.975783999999976
 20
-18.0254670000000061
  0
ARC
  5
C4
100
AcDbEntity
  8
0
 62
7
420
16777215
370
-1
 48
1.0
  6
BYLAYER
100
AcDbCircle
 10
82.5953719649973408
 20
-18.0241219279400902
 30
0.0
 40
0.6195894250133933
100
AcDbArc
 50
89.8740473660416797
 51
180.1243840026925227
  0
LWPOLYLINE
  5
C5
100
AcDbEntity
  8
0
 62
7
420
16777215
370
-1
 48
1.0
  6
BYLAYER
100
AcDbPolyline
 90
2
 70
128
 10
61.6891039999999791
 20
-21.9192270000000065
 10
99.1350839999999778
 20
-21.9192270000000065
  0
ARC
  5
C6
100
AcDbEntity
  8
0
 62
7
420
16777215
370
-1
 48
1.0
  6
BYLAYER
100
AcDbCircle
 10
99.1364430662790426
 20
-22.5388079337209106
 30
0.0
 40
0.619582424292075
100
AcDbArc
 50
359.8743204757542458
 51
90.1256795242419884
  0
LWPOLYLINE
  5
C7
100
AcDbEntity
  8
0
 62
7
420
16777215
370
-1
 48
1.0
  6
BYLAYER
100
AcDbPolyline
 90
2
 70
128
 10
99.7560239999999681
 20
-22.5401670000000109
 10
99.7560239999999681
 20
-23.539077000000006
  0
ARC
  5
C8
100
AcDbEntity
  8
0
 62
7
420
16777215
370
-1
 48
1.0
  6
BYLAYER
100
AcDbCircle
 10
99.136443066279071
 20
-23.5404360662790992
 30
0.0
 40
0.6195824242920608
100
AcDbArc
 50
269.8743204757553258
 51
0.1256795242457381
  0
LWPOLYLINE
  5
C9
100
AcDbEntity
  8
0
 62
7
420
16777215
370
-1
 48
1.0
  6
BYLAYER
100
AcDbPolyline
 90
2
 70
128
 10
99.1350839999999778
 20
-24.1600170000000105
 10
61.6891039999999791
 20
-24.1600170000000105
  0
ARC
  5
CA
100
AcDbEntity
  8
0
 62
7
420
16777215
370
-1
 48
1.0
  6
BYLAYER
100
AcDbCircle
 10
61.6877449337209143
 20
-23.5404360662790637
 30
0.0
 40
0.6195824242920891
100
AcDbArc
 50
179.8743204757600722
 51
270.1256795242420026
  0
LWPOLYLINE
  5
CB
100
AcDbEntity
  8
0
 62
7
420
16777215
370
-1
 48
1.0
  6
BYLAYER
100
AcDbPolyline
 90
2
 70
128
 10
61.0681639999999746
 20
-23.539077000000006
 10
61.0681639999999746
 20
-22.5401670000000109
  0
ARC
  5
CC
100
AcDbEntity
  8
0
 62
7
420
16777215
370
-1
 48
1.0
  6
BYLAYER
100
AcDbCircle
 10
61.6877449337209001
 20
-22.5388079337209355
 30
0.0
 40
0.6195824242920785
100
AcDbArc
 50
89.87432047575669
 51
180.1256795242457258
  0
LWPOLYLINE
  5
CD
100
AcDbEntity
  8
0
 62
7
420
16777215
370
-1
 48
1.0
  6
BYLAYER
100
AcDbPolyline
 90
5
 70
128
 10
46.0838629999999725
 20
-39.6259870000000092
 10
70.0490739999999619
 20
-39.6259870000000092
 10
66.9713239999999814
 20
-47.5370670000000075
 10
43.006112999999992
 20
-47.5370670000000075
 10
46.0838629999999725
 20
-39.6259870000000092
  0
LWPOLYLINE
  5
CE
100
AcDbEntity
  8
0
 62
7
420
16777215
370
-1
 48
1.0
  6
BYLAYER
100
AcDbPolyline
 90
2
 70
128
 10
88.3651339999999834
 20
-7.7359069999999974
 10
89.6286739999999895
 20
-7.7359069999999974
  0
ARC
  5
CF
100
AcDbEntity
  8
0
 62
7
420
16777215
370
-1
 48
1.0
  6
BYLAYER
100
AcDbCircle
 10
89.6300322156866258
 20
-8.3554887865015086
 30
0.0
 40
0.6195832752054029
100
AcDbArc
 50
359.8743070342547981
 51
90.1256006931664615
  0
LWPOLYLINE
  5
D0
100
AcDbEntity
  8
0
 62
7
420
16777215
370
-1
 48
1.0
  6
BYLAYER
100
AcDbPolyline
 90
2
 70
128
 10
90.2496139999999798
 20
-8.3568479999999994
 10
90.2496139999999798
 20
-18.3851870000000019
  0
ARC
  5
D1
100
AcDbEntity
  8
0
 62
7
420
16777215
370
-1
 48
1.0
  6
BYLAYER
100
AcDbCircle
 10
89.6300330662790685
 20
-18.3865460662790916
 30
0.0
 40
0.6195824242920643
100
AcDbArc
 50
269.87432047575669
 51
0.1256795242457381
  0
LWPOLYLINE
  5
D2
100
AcDbEntity
  8
0
 62
7
420
16777215
370
-1
 48
1.0
  6
BYLAYER
100
AcDbPolyline
 90
2
 70
128
 10
89.6286739999999895
 20
-19.0061270000000064
 10
88.3651339999999834
 20
-19.0061270000000064
  0
ARC
  5
D3
100
AcDbEntity
  8
0
 62
7
420
16777215
370
-1
 48
1.0
  6
BYLAYER
100
AcDbCircle
 10
88.3637749337209186
 20
-18.3865460662790632
 30
0.0
 40
0.6195824242921033
100
AcDbArc
 50
179.8743204757600722
 51
270.1256795242420026
  0
LWPOLYLINE
  5
D4
100
AcDbEntity
  8
0
 62
7
420
16777215
370
-1
 48
1.0
  6
BYLAYER
100
AcDbPolyline
 90
2
 70
128
 10
87.7441939999999647
 20
-18.3851870000000019
 10
87.7441939999999647
 20
-8.3568479999999994
  0
ARC
  5
D5
100
AcDbEntity
  8
0
 62
7
420
16777215
370
-1
 48
1.0
  6
BYLAYER
100
AcDbCircle
 10
88.3637757843133329
 20
-8.3554887865015175
 30
0.0
 40
0.6195832752054131
100
AcDbArc
 50
89.8743993068322311
 51
180.1256929657422745
  0
LWPOLYLINE
  5
D6
100
AcDbEntity
  8
0
 62
7
420
16777215
370
-1
 48
1.0
  6
BYLAYER
100
AcDbPolyline
 90
2
 70
128
 10
88.3651339999999834
 20
-7.7359069999999974
 10
88.3651339999999834
 20
-7.7359069999999974
  0
LWPOLYLINE
  5
D7
100
AcDbEntity
  8
0
 62
7
420
16777215
370
-1
 48
1.0
  6
BYLAYER
100
AcDbPolyline
 90
2
 70
128
 10
76.7879240000000038
 20
-7.7359069999999974
 10
78.0514739999999847
 20
-7.7359069999999974
  0
ARC
  5
D8
100
AcDbEntity
  8
0
 62
7
420
16777215
370
-1
 48
1.0
  6
BYLAYER
100
AcDbCircle
 10
78.052832215686621
 20
-8.3554887865015566
 30
0.0
 40
0.6195832752054312
100
AcDbArc
 50
359.8743070342576971
 51
90.1256006931664615
  0
LWPOLYLINE
  5
D9
100
AcDbEntity
  8
0
 62
7
420
16777215
370
-1
 48
1.0
  6
BYLAYER
100
AcDbPolyline
 90
2
 70
128
 10
78.6724140000000034
 20
-8.3568479999999994
 10
78.6724140000000034
 20
-18.3851870000000019
  0
ARC
  5
DA
100
AcDbEntity
  8
0
 62
7
420
16777215
370
-1
 48
1.0
  6
BYLAYER
100
AcDbCircle
 10
78.0528330662790921
 20
-18.3865460662790881
 30
0.0
 40
0.6195824242920679
100
AcDbArc
 50
269.8743204757540752
 51
0.1256795242457381
  0
LWPOLYLINE
  5
DB
100
AcDbEntity
  8
0
 62
7
420
16777215
370
-1
 48
1.0
  6
BYLAYER
100
AcDbPolyline
 90
2
 70
128
 10
78.0514739999999847
 20
-19.0061270000000064
 10
76.7879240000000038
 20
-19.0061270000000064
  0
ARC
  5
DC
100
AcDbEntity
  8
0
 62
7
420
16777215
370
-1
 48
1.0
  6
BYLAYER
100
AcDbCircle
 10
76.7865649337209533
 20
-18.3865460662790525
 30
0.0
 40
0.6195824242921175
100
AcDbArc
 50
179.8743204757600722
 51
270.1256795242406952
  0
LWPOLYLINE
  5
DD
100
AcDbEntity
  8
0
 62
7
420
16777215
370
-1
 48
1.0
  6
BYLAYER
100
AcDbPolyline
 90
2
 70
128
 10
76.1669839999999851
 20
-18.3851870000000019
 10
76.1669839999999851
 20
-8.3568479999999994
  0
ARC
  5
DE
100
AcDbEntity
  8
0
 62
7
420
16777215
370
-1
 48
1.0
  6
BYLAYER
100
AcDbCircle
 10
76.7865657843133391
 20
-8.3554887865015228
 30
0.0
 40
0.6195832752054184
100
AcDbArc
 50
89.8743993068309237
 51
180.1256929657422745
  0
LWPOLYLINE
  5
DF
100
AcDbEntity
  8
0
 62
7
420
16777215
370
-1
 48
1.0
  6
BYLAYER
100
AcDbPolyline
 90
2
 70
128
 10
64.8565140000000042
 20
-7.7359069999999974
 10
66.1200540000000103
 20
-7.7359069999999974
  0
ARC
  5
E0
100
AcDbEntity
  8
0
 62
7
420
16777215
370
-1
 48
1.0
  6
BYLAYER
100
AcDbCircle
 10
66.1214122156866466
 20
-8.3554887865015086
 30
0.0
 40
0.6195832752054029
100
AcDbArc
 50
359.8743070342547981
 51
90.1256006931664615
  0
LWPOLYLINE
  5
E1
100
AcDbEntity
  8
0
 62
7
420
16777215
370
-1
 48
1.0
  6
BYLAYER
100
AcDbPolyline
 90
2
 70
128
 10
66.7409940000000006
 20
-8.3568479999999994
 10
66.7409940000000006
 20
-18.3851870000000019
  0
ARC
  5
E2
100
AcDbEntity
  8
0
 62
7
420
16777215
370
-1
 48
1.0
  6
BYLAYER
100
AcDbCircle
 10
66.1214130662790751
 20
-18.3865460662790881
 30
0.0
 40
0.6195824242920679
100
AcDbArc
 50
269.8743204757579974
 51
0.1256795242457381
  0
LWPOLYLINE
  5
E3
100
AcDbEntity
  8
0
 62
7
420
16777215
370
-1
 48
1.0
  6
BYLAYER
100
AcDbPolyline
 90
2
 70
128
 10
66.1200540000000103
 20
-19.0061270000000064
 10
64.8565140000000042
 20
-19.0061270000000064
  0
ARC
  5
E4
100
AcDbEntity
  8
0
 62
7
420
16777215
370
-1
 48
1.0
  6
BYLAYER
100
AcDbCircle
 10
64.8551549337209536
 20
-18.3865460662790383
 30
0.0
 40
0.6195824242921175
100
AcDbArc
 50
179.8743204757600722
 51
270.1256795242406952
  0
LWPOLYLINE
  5
E5
100
AcDbEntity
  8
0
 62
7
420
16777215
370
-1
 48
1.0
  6
BYLAYER
100
AcDbPolyline
 90
2
 70
128
 10
64.2355739999999855
 20
-18.3851870000000019
 10
64.2355739999999855
 20
-8.3568479999999994
  0
ARC
  5
E6
100
AcDbEntity
  8
0
 62
7
420
16777215
370
-1
 48
1.0
  6
BYLAYER
100
AcDbCircle
 10
64.8551557843133537
 20
-8.3554887865015193
 30
0.0
 40
0.6195832752054149
100
AcDbArc
 50
89.8743993068322311
 51
180.1256929657422745
  0
LWPOLYLINE
  5
E7
100
AcDbEntity
  8
0
 62
7
420
16777215
370
-1
 48
1.0
  6
BYLAYER
100
AcDbPolyline
 90
2
 70
128
 10
55.2411269999999988
 20
-12.2506039999999956
 10
92.687104000000005
 20
-12.2506039999999956
  0
ARC
  5
E8
100
AcDbEntity
  8
0
 62
7
420
16777215
370
-1
 48
1.0
  6
BYLAYER
100
AcDbCircle
 10
92.6884630662790983
 20
-12.8701849337209016
 30
0.0
 40
0.6195824242920466
100
AcDbArc
 50
359.8743204757542458
 51
90.1256795242446316
  0
LWPOLYLINE
  5
E9
100
AcDbEntity
  8
0
 62
7
420
16777215
370
-1
 48
1.0
  6
BYLAYER
100
AcDbPolyline
 90
2
 70
128
 10
93.3080439999999953
 20
-12.8715440000000001
 10
93.3080439999999953
 20
-13.8704639999999984
  0
ARC
  5
EA
100
AcDbEntity
  8
0
 62
7
420
16777215
370
-1
 48
1.0
  6
BYLAYER
100
AcDbCircle
 10
92.688463066279084
 20
-13.8718230662790862
 30
0.0
 40
0.619582424292066
100
AcDbArc
 50
269.87432047575669
 51
0.1256795242457381
  0
LWPOLYLINE
  5
EB
100
AcDbEntity
  8
0
 62
7
420
16777215
370
-1
 48
1.0
  6
BYLAYER
100
AcDbPolyline
 90
2
 70
128
 10
92.687104000000005
 20
-14.4914040000000028
 10
55.2411269999999988
 20
-14.4914040000000028
  0
ARC
  5
EC
100
AcDbEntity
  8
0
 62
7
420
16777215
370
-1
 48
1.0
  6
BYLAYER
100
AcDbCircle
 10
55.2397673448457667
 20
-13.8718196639000375
 30
0.0
 40
0.6195858279549028
100
AcDbArc
 50
179.8746357996209042
 51
270.1257332897899346
  0
LWPOLYLINE
  5
ED
100
AcDbEntity
  8
0
 62
7
420
16777215
370
-1
 48
1.0
  6
BYLAYER
100
AcDbPolyline
 90
2
 70
128
 10
54.6201830000000044
 20
-13.8704639999999984
 10
54.6201830000000044
 20
-12.8715440000000001
  0
ARC
  5
EE
100
AcDbEntity
  8
0
 62
7
420
16777215
370
-1
 48
1.0
  6
BYLAYER
100
AcDbCircle
 10
55.2397673448457951
 20
-12.870188336099968
 30
0.0
 40
0.6195858279549186
100
AcDbArc
 50
89.8742667102126944
 51
180.1253642003791242
  0
LWPOLYLINE
  5
EF
100
AcDbEntity
  8
0
 62
7
420
16777215
370
-1
 48
1.0
  6
BYLAYER
100
AcDbPolyline
 90
5
 70
128
 10
37.8937129999999982
 20
-7.7843249999999955
 10
50.3093029999999928
 20
-7.7843249999999955
 10
25.4151189999999971
 20
-72.2640869999999893
 10
12.999533999999997
 20
-72.2640869999999893
 10
37.8937129999999982
 20
-7.7843249999999955
  0
ENDBLK
  5
F0
100
AcDbEntity
  8
0
100
AcDbBlockEnd
  0
BLOCK
  5
F1
100
AcDbEntity
  8
0
100
AcDbBlockBegin
  2
LargePotGauge
 70
0
 10
0.0
 20
0.0
 30
0.0
  3
LargePotGauge
  1

  0
LWPOLYLINE
  5
F2
100
AcDbEntity
  8
0
 62
256
370
-1
 48
1.0
  6
BYLAYER
100
AcDbPolyline
 90
6
 70
128
 10
104.4709399999999988
 20
-100.6212699999999955
 10
104.4709399999999988
 20
-111.8190299999999979
 42
-0.0033072788336863
 10
104.9995899999999835
 20
-111.7958299999999809
 42
-0.0033077266184061
 10
105.5287599999999912
 20
-111.8038299999999481
 10
105.5287599999999912
 20
-100.6212699999999955
 10
104.4709399999999988
 20
-100.6212699999999955
  0
LWPOLYLINE
  5
F3
100
AcDbEntity
  8
0
 62
256
370
-1
 48
1.0
  6
BYLAYER
100
AcDbPolyline
 90
5
 70
128
 10
93.3357019999999977
 20
-106.2219599999999957
 10
92.3140590000000003
 20
-106.4958400000000012
 10
94.1418529999999976
 20
-113.318160000000006
 42
-0.0066141399769513
 10
95.1640129999999687
 20
-113.0442799999999863
 10
93.3357019999999977
 20
-106.2219599999999957
  0
LWPOLYLINE
  5
F4
100
AcDbEntity
  8
0
 62
256
370
-1
 48
1.0
  6
BYLAYER
100
AcDbPolyline
 90
5
 70
128
 10
116.6640000000000015
 20
-106.2219599999999957
 10
114.8398200000000031
 20
-113.0298099999999977
 42
-0.0066101756053528
 10
115.8614599999999371
 20
-113.3031799999999691
 10
117.6856400000000065
 20
-106.4958400000000012
 10
116.6640000000000015
 20
-106.2219599999999957
  0
LWPOLYLINE
  5
F5
100
AcDbEntity
  8
0
 62
256
370
-1
 48
1.0
  6
BYLAYER
100
AcDbPolyline
 90
5
 70
128
 10
79.8703739999999982
 20
-107.2131100000000004
 10
78.9546679999999981
 20
-107.7417599999999993
 10
84.5538090000000011
 20
-117.4393599999999935
 42
-0.006608723992369
 10
85.4695150000000012
 20
-116.9107099999999804
 10
79.8703739999999982
 20
-107.2131100000000004
  0
LWPOLYLINE
  5
F6
100
AcDbEntity
  8
0
 62
256
370
-1
 48
1.0
  6
BYLAYER
100
AcDbPolyline
 90
5
 70
128
 10
130.1288099999999872
 20
-107.2131100000000004
 10
124.5379299999999887
 20
-116.897270000000006
 42
-0.0066087456461917
 10
125.4536399999999077
 20
-117.4259199999999908
 10
131.045029999999997
 20
-107.7417599999999993
 10
130.1288099999999872
 20
-107.2131100000000004
  0
LWPOLYLINE
  5
F7
100
AcDbEntity
  8
0
 62
256
370
-1
 48
1.0
  6
BYLAYER
100
AcDbPolyline
 90
5
 70
128
 10
72.1116739999999936
 20
-118.1597299999999962
 10
71.3633999999999986
 20
-118.9074899999999957
 10
76.3579270000000037
 20
-123.9020199999999932
 42
-0.0066118880942146
 10
77.1062009999999702
 20
-123.1542600000000078
 10
72.1116739999999936
 20
-118.1597299999999962
  0
LWPOLYLINE
  5
F8
100
AcDbEntity
  8
0
 62
256
370
-1
 48
1.0
  6
BYLAYER
100
AcDbPolyline
 90
5
 70
128
 10
137.8880199999999832
 20
-118.1597299999999962
 10
132.9048699999999883
 20
-123.1428899999999942
 42
-0.0066118262234246
 10
133.6526199999998994
 20
-123.8911599999999709
 10
138.6357799999999827
 20
-118.9074899999999957
 10
137.8880199999999832
 20
-118.1597299999999962
  0
LWPOLYLINE
  5
F9
100
AcDbEntity
  8
0
 62
256
370
-1
 48
1.0
  6
BYLAYER
100
AcDbPolyline
 90
5
 70
128
 10
60.9459469999999897
 20
-125.750479999999996
 10
60.4167799999999886
 20
-126.6666999999999916
 10
70.1143779999999879
 20
-132.2653300000000058
 42
-0.0066131255020083
 10
70.6435459999999722
 20
-131.349109999999996
 10
60.9459469999999897
 20
-125.750479999999996
  0
LWPOLYLINE
  5
FA
100
AcDbEntity
  8
0
 62
256
370
-1
 48
1.0
  6
BYLAYER
100
AcDbPolyline
 90
5
 70
128
 10
149.0537499999999795
 20
-125.750479999999996
 10
139.3695899999999881
 20
-131.3413500000000056
 42
-0.0066115608445713
 10
139.8982400000000155
 20
-132.2575799999999617
 10
149.5823999999999785
 20
-126.6667000000000201
 10
149.0537499999999795
 20
-125.750479999999996
  0
LWPOLYLINE
  5
FB
100
AcDbEntity
  8
0
 62
256
370
-1
 48
1.0
  6
BYLAYER
100
AcDbPolyline
 90
5
 70
128
 10
59.6995009999999837
 20
-139.1103899999999953
 10
59.4256159999999838
 20
-140.1320299999999861
 10
66.2479409999999831
 20
-141.9603399999999738
 42
-0.006614144830355
 10
66.5218239999999241
 20
-140.9381800000000169
 10
59.6995009999999837
 20
-139.1103899999999953
  0
LWPOLYLINE
  5
FC
100
AcDbEntity
  8
0
 62
256
370
-1
 48
1.0
  6
BYLAYER
100
AcDbPolyline
 90
5
 70
128
 10
150.3001899999999864
 20
-139.1103899999999953
 10
143.4928499999999758
 20
-140.9345700000000079
 42
-0.006611016540262
 10
143.7667399999999986
 20
-141.9562100000000271
 10
150.5735499999999831
 20
-140.1320299999999861
 10
150.3001899999999864
 20
-139.1103899999999953
  0
LWPOLYLINE
  5
FD
100
AcDbEntity
  8
0
 62
256
370
-1
 48
1.0
  6
BYLAYER
100
AcDbPolyline
 90
6
 70
128
 10
53.8254509999999868
 20
-151.2672699999999963
 10
53.8254509999999868
 20
-152.3245699999999943
 10
65.0232169999999883
 20
-152.3245699999999943
 42
-0.003307292549862
 10
64.9999669999999981
 20
-151.7959200000000237
 42
-0.003307292549864
 10
65.0232169999999883
 20
-151.2672700000001669
 10
53.8254509999999868
 20
-151.2672699999999963
  0
LWPOLYLINE
  5
FE
100
AcDbEntity
  8
0
 62
256
370
-1
 48
1.0
  6
BYLAYER
100
AcDbPolyline
 90
6
 70
128
 10
144.9919799999999555
 20
-151.2672700000000532
 42
-0.003304476883546
 10
144.9999799999999937
 20
-151.7959199999996258
 42
-0.0033072788336863
 10
144.9767800000000193
 20
-152.3245700000001364
 10
156.1745499999999822
 20
-152.3245699999999943
 10
156.1745499999999822
 20
-151.2672699999999963
 10
144.9919799999999839
 20
-151.2672699999999963
  0
LWPOLYLINE
  5
FF
100
AcDbEntity
  8
0
 62
256
370
-1
 48
1.0
  6
BYLAYER
100
AcDbPolyline
 90
6
 70
128
 10
66.2479499999999888
 20
-161.6314999999999884
 10
59.425625999999987
 20
-163.4598099999999761
 10
59.6995109999999869
 20
-164.4814499999999668
 10
66.5218329999999867
 20
-162.6536499999999705
 42
-0.0066140844520288
 10
66.247950000000003
 20
-161.6314999999999884
 10
66.2479499999999888
 20
-161.6314999999999884
  0
LWPOLYLINE
  5
100
100
AcDbEntity
  8
0
 62
256
370
-1
 48
1.0
  6
BYLAYER
100
AcDbPolyline
 90
5
 70
128
 10
143.7517499999999586
 20
-161.6320099999999798
 42
-0.0066110165402621
 10
143.4778599999999642
 20
-162.653649999999999
 10
150.3001899999999864
 20
-164.4814499999999668
 10
150.5735499999999831
 20
-163.4598099999999761
 10
143.751749999999987
 20
-161.6320099999999798
  0
LWPOLYLINE
  5
101
100
AcDbEntity
  8
0
 62
256
370
-1
 48
1.0
  6
BYLAYER
100
AcDbPolyline
 90
5
 70
128
 10
70.1143779999999879
 20
-171.3265099999999848
 10
60.4167799999999886
 20
-176.925139999999999
 10
60.9459469999999897
 20
-177.8413600000000088
 10
70.6435459999999864
 20
-172.2427299999999946
 42
-0.0066131255020083
 10
70.1143779999999879
 20
-171.3265099999999848
  0
LWPOLYLINE
  5
102
100
AcDbEntity
  8
0
 62
256
370
-1
 48
1.0
  6
BYLAYER
100
AcDbPolyline
 90
5
 70
128
 10
139.8853199999999788
 20
-171.3265099999999279
 42
-0.0066131317545044
 10
139.3561499999999569
 20
-172.2427299999999661
 10
149.0537499999999795
 20
-177.8413600000000088
 10
149.5823999999999785
 20
-176.925139999999999
 10
139.8853199999999788
 20
-171.3265099999999848
  0
LWPOLYLINE
  5
103
100
AcDbEntity
  8
0
 62
256
370
-1
 48
1.0
  6
BYLAYER
100
AcDbPolyline
 90
5
 70
128
 10
76.3579269999999894
 20
-179.6898199999999974
 10
71.3633989999999869
 20
-184.6843499999999949
 10
72.111670999999987
 20
-185.4321099999999944
 10
77.106199999999987
 20
-180.437579999999997
 42
-0.0066118836727005
 10
76.3579270000000179
 20
-179.689819999999969
  0
LWPOLYLINE
  5
104
100
AcDbEntity
  8
0
 62
256
370
-1
 48
1.0
  6
BYLAYER
100
AcDbPolyline
 90
5
 70
128
 10
133.6417699999999229
 20
-179.6898199999999974
 42
-0.0066118704081765
 10
132.8934999999999604
 20
-180.4375799999999685
 10
137.8880199999999832
 20
-185.4321099999999944
 10
138.6357799999999827
 20
-184.6843499999999949
 10
133.6417699999999797
 20
-179.6898199999999974
  0
LWPOLYLINE
  5
105
100
AcDbEntity
  8
0
 62
256
370
-1
 48
1.0
  6
BYLAYER
100
AcDbPolyline
 90
5
 70
128
 10
84.5532849999999883
 20
-186.1524799999999971
 10
78.9546609999999873
 20
-195.8500799999999913
 10
79.8703669999999875
 20
-196.3787299999999902
 10
85.4689919999999859
 20
-186.681129999999996
 42
-0.0066087294058223
 10
84.5532850000000025
 20
-186.1524799999999971
  0
LWPOLYLINE
  5
106
100
AcDbEntity
  8
0
 62
256
370
-1
 48
1.0
  6
BYLAYER
100
AcDbPolyline
 90
5
 70
128
 10
125.4458899999999915
 20
-186.1524800000000255
 42
-0.0066087456461919
 10
124.530179999999973
 20
-186.6811300000000244
 10
130.1288099999999872
 20
-196.3787299999999902
 10
131.045029999999997
 20
-195.8500799999999913
 10
125.4458899999999915
 20
-186.1524799999999971
  0
ENDBLK
  5
107
100
AcDbEntity
  8
0
100
AcDbBlockEnd
  0
BLOCK
  5
108
100
AcDbEntity
  8
0
100
AcDbBlockBegin
  2
RW_Logo_Trans_Filled
 70
0
 10
0.0
 20
0.0
 30
0.0
  3
RW_Logo_Trans_Filled
  1

  0
LWPOLYLINE
  5
109
100
AcDbEntity
  8
0
 62
256
370
-1
 48
1.0
  6
BYLAYER
100
AcDbPolyline
 90
20
 70
128
 10
56.6914069999999981
 20
0.0
 10
56.6914069999999981
 20
-15.8261719999999997
 10
37.7949219999999997
 20
-15.8261719999999997
 10
37.7949219999999997
 20
-47.4804689999999994
 10
56.6914069999999981
 20
-47.4804689999999994
 10
56.6914069999999981
 20
-141.2109399999999937
 10
37.7949219999999997
 20
-141.2109399999999937
 10
37.7949219999999997
 20
-172.8632800000000032
 10
56.6914069999999981
 20
-172.8632800000000032
 10
56.6914069999999981
 20
-188.6601599999999905
 10
56.6914069999999981
 20
-264.566410000000019
 10
144.8808600000000126
 20
-264.566410000000019
 10
144.8808600000000126
 20
-188.6601599999999905
 10
165.4003899999999874
 20
-188.6601599999999905
 10
193.0273500000000126
 20
-264.566410000000019
 10
281.2167999999999779
 20
-264.566410000000019
 10
242.9043000000000063
 20
-159.3007800000000032
 42
0.1923579216735375
 10
268.9335999999999558
 20
-94.3300790000037637
 42
0.41421316177978
 10
174.6035199999999747
 20
0.0000000000000142
 10
56.6914069999999981
 20
0.0
  0
LWPOLYLINE
  5
10A
100
AcDbEntity
  8
0
 62
256
370
-1
 48
1.0
  6
BYLAYER
100
AcDbPolyline
 90
5
 70
128
 10
476.0527299999999968
 20
0.0
 10
423.8535200000000032
 20
-143.4179699999999968
 10
467.9472700000000032
 20
-264.566410000000019
 10
520.1484400000000505
 20
-121.1484400000000221
 10
476.0527299999999968
 20
0.0
  0
LWPOLYLINE
  5
10B
100
AcDbEntity
  8
0
 62
256
370
-1
 48
1.0
  6
BYLAYER
100
AcDbPolyline
 90
5
 70
128
 10
283.464839999999981
 20
0.0
 10
379.7597700000000032
 20
-264.566410000000019
 10
467.9472700000000032
 20
-264.566410000000019
 10
371.6542999999999779
 20
0.0
 10
283.464839999999981
 20
0.0
  0
LWPOLYLINE
  5
10C
100
AcDbEntity
  8
0
 62
256
370
-1
 48
1.0
  6
BYLAYER
100
AcDbPolyline
 90
8
 70
128
 10
476.0527299999999968
 20
0.0
 10
572.347660000000019
 20
-264.566410000000019
 10
660.5371099999999842
 20
-264.566410000000019
 10
756.8320300000000316
 20
0.0
 10
668.6425799999999526
 20
0.0
 10
616.441410000000019
 20
-143.4179699999999968
 10
564.2421900000000505
 20
0.0
 10
476.0527299999999968
 20
0.0
  0
ENDBLK
  5
10D
100
AcDbEntity
  8
0
100
AcDbBlockEnd
  0
ENDSEC
  0
SECTION
  2
ENTITIES
  0
LINE
  5
10E
100
AcDbEntity
  8
Cuts
 62
256
370
-1
 48
1.0
  6
BYLAYER
100
AcDbLine
 10
0.0
 20
0.0
 30
0.0
 11
50.5
 21
0.0
 31
0.0
  0
LINE
  5
10F
100
AcDbEntity
  8
Cuts
 62
256
370
-1
 48
1.0
  6
BYLAYER
100
AcDbLine
 10
50.5
 20
0.0
 30
0.0
 11
50.5
 21
128.5
 31
0.0
  0
LINE
  5
110
100
AcDbEntity
  8
Cuts
 62
256
370
-1
 48
1.0
  6
BYLAYER
100
AcDbLine
 10
50.5
 20
128.5
 30
0.0
 11
0.0
 21
128.5
 31
0.0
  0
LINE
  5
111
100
AcDbEntity
  8
Cuts
 62
256
370
-1
 48
1.0
  6
BYLAYER
100
AcDbLine
 10
0.0
 20
128.5
 30
0.0
 11
0.0
 21
0.0
 31
0.0
  0
CIRCLE
  5
112
100
AcDbEntity
  8
Cuts
 62
256
370
-1
 48
1.0
  6
BYLAYER
100
AcDbCircle
 10
25.25
 20
101.0
 30
0.0
 40
3.3999999999999999
  0
CIRCLE
  5
113
100
AcDbEntity
  8
Cuts
 62
256
370
-1
 48
1.0
  6
BYLAYER
100
AcDbCircle
 10
42.25
 20
59.0
 30
0.0
 40
3.2000000000000002
  0
CIRCLE
  5
114
100
AcDbEntity
  8
Cuts
 62
256
370
-1
 48
1.0
  6
BYLAYER
100
AcDbCircle
 10
8.25
 20
85.0
 30
0.0
 40
3.2000000000000002
  0
CIRCLE
  5
115
100
AcDbEntity
  8
Cuts
 62
256
370
-1
 48
1.0
  6
BYLAYER
100
AcDbCircle
 10
8.25
 20
59.0
 30
0.0
 40
3.2000000000000002
  0
CIRCLE
  5
116
100
AcDbEntity
  8
Cuts
 62
256
370
-1
 48
1.0
  6
BYLAYER
100
AcDbCircle
 10
42.25
 20
85.0
 30
0.0
 40
3.2000000000000002
  0
CIRCLE
  5
117
100
AcDbEntity
  8
Cuts
 62
256
370
-1
 48
1.0
  6
BYLAYER
100
AcDbCircle
 10
44.25
 20
39.0
 30
0.0
 40
3.2000000000000002
  0
CIRCLE
  5
118
100
AcDbEntity
  8
Cuts
 62
256
370
-1
 48
1.0
  6
BYLAYER
100
AcDbCircle
 10
33.25
 20
39.0
 30
0.0
 40
3.2000000000000002
  0
CIRCLE
  5
119
100
AcDbEntity
  8
Cuts
 62
256
370
-1
 48
1.0
  6
BYLAYER
100
AcDbCircle
 10
44.25
 20
24.0
 30
0.0
 40
3.2000000000000002
  0
CIRCLE
  5
11A
100
AcDbEntity
  8
Cuts
 62
256
370
-1
 48
1.0
  6
BYLAYER
100
AcDbCircle
 10
33.25
 20
24.0
 30
0.0
 40
3.2000000000000002
  0
CIRCLE
  5
11B
100
AcDbEntity
  8
Cuts
 62
256
370
-1
 48
1.0
  6
BYLAYER
100
AcDbCircle
 10
22.25
 20
24.0
 30
0.0
 40
3.2000000000000002
  0
DIMENSION
  5
11C
100
AcDbEntity
  8
UserDrawings
 62
256
370
-1
 48
1.0
  6
BYLAYER
100
AcDbDimension
 10
-10.0
 20
0.0
 30
0.0
 11
-11.875
 21
64.25
 31
0.0
 70
0
 71
8
 72
2
 74
0
 75
0
 41
1.0
 42
0.0
  1

  3
Standard
100
AcDbAlignedDimension
 13
-0.0
 23
-0.0
 33
0.0
 14
0.0
 24
128.5
 34
0.0
 50
90.0
100
AcDbRotatedDimension
1001
ACAD
1000
DSTYLE
1002
{
1070
144
1040
1.0
1070
40
1040
1.0
1002
}
  0
DIMENSION
  5
11D
100
AcDbEntity
  8
UserDrawings
 62
256
370
-1
 48
1.0
  6
BYLAYER
100
AcDbDimension
 10
0.0
 20
136.7913298366080426
 30
0.0
 11
25.25
 21
138.6663298366080426
 31
0.0
 70
0
 71
8
 72
2
 74
0
 75
0
 41
1.0
 42
0.0
  1

  3
Standard
100
AcDbAlignedDimension
 13
0.0
 23
128.5
 33
0.0
 14
50.5
 24
128.5
 34
0.0
 50
0.0
100
AcDbRotatedDimension
1001
ACAD
1000
DSTYLE
1002
{
1070
144
1040
1.0
1070
40
1040
1.0
1002
}
  0
LINE
  5
11E
100
AcDbEntity
  8
Cuts
 62
256
370
-1
 48
1.0
  6
BYLAYER
100
AcDbLine
 10
6.5000000000000009
 20
127.0999999999999943
 30
0.0
 11
8.5
 21
127.0999999999999943
 31
0.0
  0
LINE
  5
11F
100
AcDbEntity
  8
Cuts
 62
256
370
-1
 48
1.0
  6
BYLAYER
100
AcDbLine
 10
42.0
 20
127.1000000000000085
 30
0.0
 11
44.0
 21
127.1000000000000085
 31
0.0
  0
LINE
  5
120
100
AcDbEntity
  8
Cuts
 62
256
370
-1
 48
1.0
  6
BYLAYER
100
AcDbLine
 10
42.0000000000000071
 20
4.6000000000000227
 30
0.0
 11
44.0000000000000071
 21
4.6000000000000227
 31
0.0
  0
LINE
  5
121
100
AcDbEntity
  8
Cuts
 62
256
370
-1
 48
1.0
  6
BYLAYER
100
AcDbLine
 10
6.5000000000000071
 20
4.6000000000000227
 30
0.0
 11
8.5000000000000071
 21
4.6000000000000227
 31
0.0
  0
LINE
  5
122
100
AcDbEntity
  8
Cuts
 62
256
370
-1
 48
1.0
  6
BYLAYER
100
AcDbLine
 10
6.5000000000000009
 20
123.8999999999999915
 30
0.0
 11
8.5
 21
123.8999999999999915
 31
0.0
  0
LINE
  5
123
100
AcDbEntity
  8
Cuts
 62
256
370
-1
 48
1.0
  6
BYLAYER
100
AcDbLine
 10
42.0
 20
123.9000000000000057
 30
0.0
 11
44.0
 21
123.9000000000000057
 31
0.0
  0
LINE
  5
124
100
AcDbEntity
  8
Cuts
 62
256
370
-1
 48
1.0
  6
BYLAYER
100
AcDbLine
 10
42.0000000000000071
 20
1.4000000000000199
 30
0.0
 11
44.0000000000000071
 21
1.4000000000000199
 31
0.0
  0
LINE
  5
125
100
AcDbEntity
  8
Cuts
 62
256
370
-1
 48
1.0
  6
BYLAYER
100
AcDbLine
 10
6.5000000000000071
 20
1.4000000000000199
 30
0.0
 11
8.5000000000000071
 21
1.4000000000000199
 31
0.0
  0
ARC
  5
126
100
AcDbEntity
  8
Cuts
 62
256
370
-1
 48
1.0
  6
BYLAYER
100
AcDbCircle
 10
8.5
 20
125.5
 30
0.0
 40
1.6000000000000085
100
AcDbArc
 50
270.0
 51
90.0
  0
ARC
  5
127
100
AcDbEntity
  8
Cuts
 62
256
370
-1
 48
1.0
  6
BYLAYER
100
AcDbCircle
 10
44.0
 20
125.5000000000000142
 30
0.0
 40
1.6000000000000085
100
AcDbArc
 50
270.0
 51
90.0
  0
ARC
  5
128
100
AcDbEntity
  8
Cuts
 62
256
370
-1
 48
1.0
  6
BYLAYER
100
AcDbCircle
 10
44.0000000000000071
 20
3.0000000000000284
 30
0.0
 40
1.6000000000000085
100
AcDbArc
 50
270.0
 51
90.0
  0
ARC
  5
129
100
AcDbEntity
  8
Cuts
 62
256
370
-1
 48
1.0
  6
BYLAYER
100
AcDbCircle
 10
8.5000000000000071
 20
3.0000000000000284
 30
0.0
 40
1.6000000000000085
100
AcDbArc
 50
270.0
 51
90.0
  0
ARC
  5
12A
100
AcDbEntity
  8
Cuts
 62
256
370
-1
 48
1.0
  6
BYLAYER
100
AcDbCircle
 10
6.5000000000000009
 20
125.5
 30
0.0
 40
1.6000000000000085
100
AcDbArc
 50
90.0
 51
270.0
  0
ARC
  5
12B
100
AcDbEntity
  8
Cuts
 62
256
370
-1
 48
1.0
  6
BYLAYER
100
AcDbCircle
 10
42.0
 20
125.5000000000000142
 30
0.0
 40
1.6000000000000085
100
AcDbArc
 50
90.0
 51
270.0
  0
ARC
  5
12C
100
AcDbEntity
  8
Cuts
 62
256
370
-1
 48
1.0
  6
BYLAYER
100
AcDbCircle
 10
42.0000000000000071
 20
3.0000000000000284
 30
0.0
 40
1.6000000000000085
100
AcDbArc
 50
90.0
 51
270.0
  0
ARC
  5
12D
100
AcDbEntity
  8
Cuts
 62
256
370
-1
 48
1.0
  6
BYLAYER
100
AcDbCircle
 10
6.5000000000000071
 20
3.0000000000000284
 30
0.0
 40
1.6000000000000085
100
AcDbArc
 50
90.0
 51
270.0
  0
LWPOLYLINE
  5
12E
100
AcDbEntity
  8
VectorEngraving
 62
256
370
-1
 48
1.0
  6
BYLAYER
100
AcDbPolyline
 90
268
 70
129
 10
8.1415589282368437
 20
118.0224845418774606
 10
8.1415589282368437
 20
121.997002061083009
 10
9.3984448191868175
 20
121.997002061083009
 10
9.4041185727476009
 20
121.9969971949674061
 10
9.4097804555022808
 20
121.9969825966205832
 10
9.4154304674508538
 20
121.9969582660425687
 10
9.4210686085933197
 20
121.9969242032333341
 10
9.4266948789296805
 20
121.9968804081928795
 10
9.4323092784599343
 20
121.9968268809212191
 10
9.4379118071840846
 20
121.9967636214183671
 10
9.4435024651021262
 20
121.9966906296842808
 10
9.4490812522140644
 20
121.9966079057189887
 10
9.454648168519892
 20
121.9965154495224908
 10
9.4602032140196179
 20
121.9964132610947871
 10
9.4657463887132351
 20
121.9963013404358776
 10
9.4712776926007489
 20
121.9961796875457338
 10
9.4767971256821557
 20
121.9960483024244127
 10
9.4823046879574573
 20
121.9959071850718715
 10
9.4878003794266537
 20
121.9957563354881103
 10
9.4932842000897431
 20
121.995595753673129
 10
9.4987561499467237
 20
121.9954254396269704
 10
9.5042162289976009
 20
121.9952453933495633
 10
9.5096644372423711
 20
121.9950556148409788
 10
9.5151007746810379
 20
121.9948561041011601
 10
9.5205252413135941
 20
121.9946468611301356
 10
9.5259378371400523
 20
121.9944278859279194
 10
9.5313385621603981
 20
121.9941991784944832
 10
9.5367274163746405
 20
121.9939607388298271
 10
9.5421043997827741
 20
121.993712566933965
 10
9.5474695123848043
 20
121.9934546628069114
 10
9.5528227541807276
 20
121.9931870264486093
 10
9.5581641251705438
 20
121.9929096578591299
 10
9.5634936253542548
 20
121.9926225570384162
 10
9.5688112547318607
 20
121.9923257239865109
 10
9.5741170133033613
 20
121.9920191587033997
 10
9.5794109010687549
 20
121.9917028611890544
 10
9.5846929180280416
 20
121.9913768314435316
 10
9.5899630641812248
 20
121.9910410694667746
 10
9.595221339528301
 20
121.9906955752587976
 10
9.6004677440692703
 20
121.9903403488196432
 10
9.6057022778041343
 20
121.9899753901492545
 10
9.6109249407328914
 20
121.98960069924766
 10
9.6161357328555432
 20
121.9892162761148597
 10
9.6213346541720917
 20
121.9888221207508536
 10
9.6265217046825295
 20
121.9884182331556133
 10
9.631696884386864
 20
121.9880046133291955
 10
9.6368601932850915
 20
121.987581261271572
 10
9.6420116313772137
 20
121.9871481769827
 10
9.6471511986632308
 20
121.9867053604626363
 10
9.6522788951431409
 20
121.9862528117113527
 10
9.6573947208169457
 20
121.9857905307288775
 10
9.6624986756846436
 20
121.985318517515168
 10
9.6675907597462363
 20
121.9848367720702811
 10
9.6726709730017237
 20
121.98434529439416
 10
9.6777393154511024
 20
121.983844084486833
 10
9.6827957870943777
 20
121.9833331423483003
 10
9.687840387931546
 20
121.9828124679785617
 10
9.6928731179626091
 20
121.9822820613776031
 10
9.6978939771875652
 20
121.9817419225454387
 10
9.7029029656064179
 20
121.9811920514820685
 10
9.70790008321916
 20
121.9806324481874924
 10
9.7128853300257987
 20
121.9800631126616821
 10
9.7178587060263322
 20
121.9794840449046802
 10
9.7228202112207605
 20
121.9788952449164725
 10
9.7277698456090818
 20
121.9782967126970306
 10
9.7327076091912943
 20
121.977688448246397
 10
9.7376335019674052
 20
121.9770704515645576
 10
9.7425475239374091
 20
121.976442722651484
 10
9.7474496751013042
 20
121.9758052615072188
 10
9.7523399554590959
 20
121.9751580681317336
 10
9.7572183650107807
 20
121.9745011425250567
 10
9.7620849037563602
 20
121.9738344846871598
 10
9.7669395716958345
 20
121.9731580946180429
 10
9.7717823688292
 20
121.9724719723177486
 10
9.7766132951564622
 20
121.9717761177862201
 10
9.7814323506776191
 20
121.9710705310234715
 10
9.7862395353926672
 20
121.9703552120295313
 10
9.7910348493016102
 20
121.9696301608043711
 10
9.7958182924044479
 20
121.9688953773479909
 10
9.8005898647011804
 20
121.9681508616604191
 10
9.8053495661918042
 20
121.9673966137416414
 10
9.8100973968763245
 20
121.9666326335916295
 10
9.8148333567547379
 20
121.9658589212104403
 10
9.819557445827046
 20
121.9650754765980025
 10
9.8242696640932472
 20
121.964282299754359
 10
9.8289700115533449
 20
121.9634793906795238
 10
9.8336584882073339
 20
121.9626667493734686
 10
9.8383350940552159
 20
121.9618443758362218
 10
9.8429998290969944
 20
121.9610122700677692
 10
9.847652693332666
 20
121.9601704320680824
 10
9.8522936867622324
 20
121.9593188618371755
 10
9.8569228093856935
 20
121.958457559375077
 10
9.8615400612030477
 20
121.9575865246817727
 10
9.8661454422142949
 20
121.9567057577572484
 10
9.8707389524194369
 20
121.9558152586015183
 10
9.8753205918184719
 20
121.9549150272145539
 10
9.8798903604114034
 20
121.9540050635964121
 10
9.884448258198228
 20
121.9530853677470645
 10
9.8889942851789456
 20
121.9521559396664827
 10
9.893528441353558
 20
121.9512167793546951
 10
9.8980507267220652
 20
121.9502678868117158
 10
9.9025611412844654
 20
121.9493092620375023
 10
9.9070596850407604
 20
121.9483409050320972
 10
9.9115463579909466
 20
121.9473628157954579
 10
9.9160211601350312
 20
121.9463749943276412
 10
9.920484091473007
 20
121.9453774406285902
 10
9.9249351520048776
 20
121.944370154698305
 10
9.9293743417306413
 20
121.9433531365368708
 10
9.9338016606503032
 20
121.9423263861442024
 10
9.9382171087638547
 20
121.9412899035202997
 10
9.9426206860713009
 20
121.9402436886652055
 10
9.9470123925726419
 20
121.9391877415789196
 10
9.9513922282678777
 20
121.9381220622613853
 10
9.9557601931570066
 20
121.9370466507126594
 10
9.9601162872400302
 20
121.935961506932756
 10
9.9644605105169468
 20
121.9348666309215901
 10
9.9687928629877582
 20
121.9337620226792467
 10
9.9731133446524627
 20
121.9326476822056691
 10
9.9774219555110619
 20
121.9315236095008856
 10
9.9817186955635542
 20
121.9303898045649248
 10
9.9860035648099412
 20
121.9292462673977298
 10
9.9902765632502248
 20
121.9280929979993005
 10
9.9945376908843997
 20
121.9269299963696938
 10
9.9987869477124676
 20
121.9257572625088528
 10
10.0030243337344302
 20
121.9245747964168345
 10
10.0072498489502877
 20
121.9233825980935819
 10
10.0114634933600399
 20
121.9221806675391235
 10
10.015665266963687
 20
121.9209690047534451
 10
10.0198551697612253
 20
121.9197476097365609
 10
10.0240332017526583
 20
121.9185164824884851
 10
10.0281993629379862
 20
121.917275623009175
 10
10.0323536533172089
 20
121.9160250312986733
 10
10.0364960728903245
 20
121.9147647073569658
 10
10.0406266216573314
 20
121.9134946511840383
 10
10.0447452996182385
 20
121.9122148627798907
 10
10.0488521067730368
 20
121.9109253421445374
 10
10.052947043121728
 20
121.9096260892779924
 10
10.0570301086643141
 20
121.9083171041802132
 10
10.0611013034007932
 20
121.9069983868512281
 10
10.0651606273311671
 20
121.9056699372910657
 10
10.0692080804554358
 20
121.9043317554996264
 10
10.0732436627735957
 20
121.9029838414770381
 10
10.077267374285654
 20
121.9016261952232156
 10
10.0812792149916035
 20
121.9002588167381873
 10
10.0852791848914478
 20
121.898881706021939
 10
10.0892672839851869
 20
121.8974948630744848
 10
10.093243512272819
 20
121.8960982878958248
 10
10.0972078697543459
 20
121.894691980485959
 10
10.1011603564297658
 20
121.893275940844859
 10
10.1051009722990788
 20
121.8918501689725815
 10
10.1090297173622901
 20
121.890414664869084
 10
10.1129465916193908
 20
121.8889694285343808
 10
10.1168515950703863
 20
121.8875144599684575
 10
10.1207447277152802
 20
121.8860497591713283
 10
10.1246259895540618
 20
121.884575326142965
 10
10.1284953805867417
 20
121.88309116088341
 10
10.1323529008133146
 20
121.8815972633926492
 10
10.1361985502337824
 20
121.8800936336706684
 10
10.1400323288481431
 20
121.8785802717175102
 10
10.1438542366563968
 20
121.8770571775331035
 10
10.1476642736585454
 20
121.8755243511175053
 10
10.1514624398545905
 20
121.873981792470687
 10
10.1552487352445269
 20
121.8724295015926486
 10
10.1590231598283562
 20
121.8708674784834329
 10
10.1627857136060804
 20
121.869295723142983
 10
10.1665363965777011
 20
121.8677142355713272
 10
10.1702752087432131
 20
121.8661230157684656
 10
10.1740021501026199
 20
121.8645220637343982
 10
10.1777172206559232
 20
121.8629113794690966
 10
10.1814204204031178
 20
121.8612909629726175
 10
10.1851117493442072
 20
121.8596608142449043
 10
10.1887912074791913
 20
121.8580209332859852
 10
10.1924587948080667
 20
121.856371320095846
 10
10.1961145113308405
 20
121.8547119746745153
 10
10.1997583570475054
 20
121.8530428970219646
 10
10.2033903319580652
 20
121.851364087138208
 10
10.207010436062518
 20
121.8496755450232456
 10
10.2106186693608656
 20
121.8479772706770632
 10
10.2142150318531062
 20
121.8462692640996892
 10
10.2177995235392416
 20
121.8445515252910951
 10
10.2213721444192736
 20
121.842824054251281
 10
10.2249328944931985
 20
121.8410868509802754
 10
10.2284817737610148
 20
121.8393399154780354
 10
10.2320187822227275
 20
121.8375832477445897
 10
10.2355439198783316
 20
121.8358168477799381
 10
10.2390571867278322
 20
121.8340407155840808
 10
10.2425585827712258
 20
121.8322548511570318
 10
10.2460481080085142
 20
121.8304592544987486
 10
10.2495257624396956
 20
121.8286539256092453
 10
10.2529915460647718
 20
121.8268388644885505
 10
10.2564454588837428
 20
121.8250140711366498
 10
10.2598875008966068
 20
121.8231795455535291
 10
10.2633176721033639
 20
121.8213352877391884
 10
10.2667359725040175
 20
121.8194812976936703
 10
10.2701424020985641
 20
121.8176175754169037
 10
10.2735369608870037
 20
121.8157441209089598
 10
10.2769196488693382
 20
121.8138609341697816
 10
10.2802904660455674
 20
121.8119680151994118
 10
10.2836494124156879
 20
121.8100653639978077
 10
10.2869964879797067
 20
121.8081529805650121
 10
10.2903316927376167
 20
121.8062308649009822
 10
10.2936550266894216
 20
121.8042990170057749
 10
10.2969664898351194
 20
121.8023574368793334
 10
10.3002660821747138
 20
121.800406124521686
 10
10.3035538037081977
 20
121.7984450799328471
 10
10.3068296544355782
 20
121.7964743031127881
 10
10.3100936343568534
 20
121.7944937940615091
 10
10.3133457434720253
 20
121.7925035527790243
 10
10.3165859817810865
 20
121.7905035792653479
 10
10.3198143492840426
 20
121.7884938735204372
 10
10.3230308459808953
 20
121.7864744355443065
 10
10.3262354718716391
 20
121.7844452653369984
 10
10.3294282269562796
 20
121.7824063628984561
 10
10.3326091112348113
 20
121.7803577282287364
 10
10.3357781247072378
 20
121.778299361327754
 10
10.3389352673735591
 20
121.7762312621955942
 10
10.3420805392337751
 20
121.7741534308322287
 10
10.3452139402878842
 20
121.7720658672376288
 10
10.3483354705358881
 20
121.7699685714118232
 10
10.351445129977785
 20
121.7678615433548543
 10
10.3545429186135767
 20
121.7657447830666229
 10
10.3576288364432614
 20
121.7636182905471998
 10
10.3607028834668426
 20
121.7614820657965709
 10
10.3637650596843169
 20
121.7593361088147219
 10
10.3668153650956825
 20
121.7571804196016672
 10
10.3698537997009446
 20
121.7550149981574066
 10
10.3728803635000997
 20
121.7528398444819118
 10
10.3758950564931478
 20
121.7506549585752396
 10
10.3788978786800925
 20
121.7484603404373189
 10
10.3818888300609302
 20
121.7462559900682209
 10
10.3848679106356645
 20
121.744041907467917
 10
10.3878351204042882
 20
121.7418180926363789
 10
10.3907904593668086
 20
121.7395845455736492
 10
10.3937339275232237
 20
121.7373412662797136
 10
10.39666552487353
 20
121.7350882547545439
 10
10.3995852514177329
 20
121.7328255109981825
 10
10.4024931071558289
 20
121.7305530350106153
 10
10.4053890920878196
 20
121.7282708267918139
 10
10.4082732062137033
 20
121.7259788863418208
 10
10.4111454495334819
 20
121.7236772136606078
 10
10.4140058220471534
 20
121.7213658087481889
 10
10.4168543237547198
 20
121.7190446716045784
 10
10.4196909546561791
 20
121.7167138022297195
 10
10.4225157147515368
 20
121.7143732006236831
 10
10.425328604040784
 20
121.7120228667864268
 10
10.4281296225239259
 20
121.7096628007179362
 10
10.4309187702009627
 20
121.7072930024182682
 10
10.4336960470718925
 20
121.704913471887366
 10
10.436461453136717
 20
121.7025242091252721
 10
10.4392149883954364
 20
121.7001252141319725
 10
10.441956652848047
 20
121.6977164869074528
 10
10.4446864464945559
 20
121.6952980274517131
 10
10.4474043693349561
 20
121.6928698357647676
 10
10.4501104213692511
 20
121.6904319118466304
 10
10.4528046025974408
 20
121.6879842556972733
 10
10.4554869130195236
 20
121.6855268673166961
 10
10.4581573526354994
 20
121.6830597467048989
 10
10.4608159214453682
 20
121.6805828938619243
 10
10.4634626194491354
 20
121.6780963087877154
 42
-0.2148899109718629
 10
10.801480232340273
 20
120.8293048529136229
 42
-0.1001913794401131
 10
10.7092936106426908
 20
120.3923552557616716
 42
-0.0965402896310229
 10
10.4477234401349151
 20
120.0
 42
-0.1106023788063984
 10
10.0557429267378744
 20
119.7448004496908425
 10
10.910155518081325
 20
118.0224845418774606
 10
10.1509274873524529
 20
118.0224845418774606
 10
9.3474798575979072
 20
119.6750983698707103
 10
8.8685591156080257
 20
119.6750983698707103
 10
8.8685591156080257
 20
118.0224845418774606
  0
LWPOLYLINE
  5
12F
100
AcDbEntity
  8
VectorEngraving
 62
256
370
-1
 48
1.0
  6
BYLAYER
100
AcDbPolyline
 90
7
 70
129
 10
8.8685591156080257
 20
120.2746861532696272
 10
9.4494097807757242
 20
120.2746861532696272
 42
0.1918312228859782
 10
9.9084691774405158
 20
120.4182124789207364
 42
0.215460677908025
 10
10.0617388045718634
 20
120.8105677346824081
 42
0.1955098707729612
 10
9.9084691774405158
 20
121.2059209293610706
 42
0.2146607426726616
 10
9.4494097807757242
 20
121.3719317968896405
 10
8.8685591156080257
 20
121.3719317968896405
  0
LWPOLYLINE
  5
130
100
AcDbEntity
  8
VectorEngraving
 62
256
370
-1
 48
1.0
  6
BYLAYER
100
AcDbPolyline
 90
13
 70
129
 10
11.6304103428892702
 20
118.0224845418774606
 10
11.1072700018737187
 20
121.997002061083009
 10
11.7323402660670855
 20
121.997002061083009
 10
12.0006557991380998
 20
119.5027168821435311
 10
12.5110548997564237
 20
121.6844669289863248
 10
12.8932921116732313
 20
121.6844669289863248
 10
13.4036912122915552
 20
119.508712759977513
 10
13.614296421210426
 20
121.997002061083009
 10
14.2011429642121101
 20
121.997002061083009
 10
13.6847479857597971
 20
118.0224845418774606
 10
13.2320592092936167
 20
118.0224845418774606
 10
12.6699456623571365
 20
120.4725501217912722
 10
12.0958403597526782
 20
118.0224845418774606
  0
LWPOLYLINE
  5
131
100
AcDbEntity
  8
VectorEngraving
 62
256
370
-1
 48
1.0
  6
BYLAYER
100
AcDbPolyline
 90
12
 70
129
 10
17.7469552182874324
 20
118.0224845418774606
 10
17.7469552182874324
 20
121.997002061083009
 10
20.3371744425707419
 20
121.997002061083009
 10
20.3371744425707419
 20
121.410155518081325
 10
18.4484729248641628
 20
121.410155518081325
 10
18.4484729248641628
 20
120.3893573168446665
 10
19.9991568296796025
 20
120.3893573168446665
 10
19.9991568296796025
 20
119.7957654112797456
 10
18.4484729248641628
 20
119.7957654112797456
 10
18.4484729248641628
 20
118.6093310848791447
 10
20.3176878396102722
 20
118.6093310848791447
 10
20.3176878396102722
 20
118.0224845418774606
  0
LWPOLYLINE
  5
132
100
AcDbEntity
  8
VectorEngraving
 62
256
370
-1
 48
1.0
  6
BYLAYER
100
AcDbPolyline
 90
13
 70
129
 10
20.8145962151021244
 20
118.0224845418774606
 10
20.8145962151021244
 20
121.997002061083009
 10
21.4464118418587262
 20
121.997002061083009
 10
22.2183811129848294
 20
120.172006745362566
 10
22.9903503841109327
 20
122.002997938916991
 10
23.6221660108675344
 20
122.002997938916991
 10
23.6221660108675344
 20
118.0224845418774606
 10
22.9963462619449217
 20
118.0224845418774606
 10
22.9963462619449217
 20
120.7978264942851752
 10
22.3712759977515532
 20
119.3363312722503338
 10
22.020517144463188
 20
119.3363312722503338
 10
21.4336706014615004
 20
120.7910811317219384
 10
21.4336706014615004
 20
118.0224845418774606
  0
LWPOLYLINE
  5
133
100
AcDbEntity
  8
VectorEngraving
 62
256
370
-1
 48
1.0
  6
BYLAYER
100
AcDbPolyline
 90
7
 70
129
 10
28.3671538317406835
 20
118.0097433014802277
 10
27.0907813378302471
 20
121.997002061083009
 10
27.8057897695334511
 20
121.997002061083009
 10
28.6414652426456868
 20
119.2029229904440655
 10
29.4194303916057756
 20
121.997002061083009
 10
30.1149522203485169
 20
121.997002061083009
 10
28.8513209668353063
 20
118.0097433014802277
  0
LWPOLYLINE
  5
134
100
AcDbEntity
  8
VectorEngraving
 62
256
370
-1
 48
1.0
  6
BYLAYER
100
AcDbPolyline
 90
26
 70
129
 10
31.9579351695709271
 20
117.9520329773280878
 42
-0.1371812061519543
 10
31.1634813565673667
 20
118.1660108675285699
 42
-0.1521335773926416
 10
30.5893760539629085
 20
118.8326775341952413
 42
-0.1095731750364335
 10
30.3757729061270432
 20
119.9876335019673803
 42
-0.085496982406854
 10
30.5192992317781595
 20
120.9732059209293595
 42
-0.1105493068352956
 10
30.8989132471425947
 20
121.6080194866029558
 42
-0.1092743849584045
 10
31.4186809068765278
 20
121.9490350384110968
 42
-0.0894144458589371
 10
31.9834176503653786
 20
122.0539629005059084
 42
-0.144279472525875
 10
32.75201424020986
 20
121.8501030541502672
 42
-0.1501502099017852
 10
33.240303541315356
 20
121.2759977515458161
 10
32.7868652801199261
 20
120.9379801386546802
 10
32.7359003185310158
 20
120.9057522952969919
 10
32.7044219599025752
 20
120.956717256885895
 42
0.1140804318625701
 10
32.6946786584223403
 20
121.0496533633127285
 42
0.0461095061681527
 10
32.6279745175192133
 20
121.1868090687652284
 42
0.1205634682736458
 10
32.3371744425707419
 20
121.413153456998316
 42
0.0973965581775184
 10
32.0216413715570596
 20
121.4738617200674611
 42
0.1710454528741369
 10
31.5652051714446387
 20
121.307850852538877
 42
0.1324894010125313
 10
31.2208169383548864
 20
120.8199362937980084
 42
0.0957756120555172
 10
31.0900318531009994
 20
120.0191118605958422
 42
0.1424637919354494
 10
31.3422334644931659
 20
118.9379801386546802
 42
0.2705536969347198
 10
31.9766722878021419
 20
118.5456248828930086
 42
0.1360351973350494
 10
32.3851414652426541
 20
118.6475548060708292
 42
0.1254759824622468
 10
32.6976765973393384
 20
118.985572418961965
 10
33.1953344575604348
 20
118.6160764474423814
 42
-0.1424969433067688
 10
32.6691961776278887
 20
118.1019299231778206
 42
-0.11616839073714
  0
LWPOLYLINE
  5
135
100
AcDbEntity
  8
VectorEngraving
 62
256
370
-1
 48
1.0
  6
BYLAYER
100
AcDbPolyline
 90
518
 70
129
 10
34.9746112047967088
 20
117.9460370994941059
 42
-0.2591303879110674
 10
33.8646243207794697
 20
118.4819186809068725
 10
33.8616906763441108
 20
118.4861121632442007
 10
33.8587685138830352
 20
118.4903194605466581
 10
33.8558578333962785
 20
118.4945405728141878
 10
33.8529586348838336
 20
118.4987755000468326
 10
33.8500709183456934
 20
118.5030242422445923
 10
33.8471946837818578
 20
118.5072867994074244
 10
33.844329931192334
 20
118.5115631715353857
 10
33.8414766605770936
 20
118.5158533586284335
 10
33.8386348719362005
 20
118.5201573606866106
 10
33.8358045652695836
 20
118.52447517770986
 10
33.8329857405772785
 20
118.5288068096982101
 10
33.8301783978592923
 20
118.5331522566516753
 10
33.8273825371156036
 20
118.5375115185702413
 10
33.8245981583462125
 20
118.5418845954538938
 10
33.8218252615511474
 20
118.5462714873026613
 10
33.8190638467303728
 20
118.550672194116558
 10
33.8163139138839171
 20
118.5550867158955128
 10
33.8135754630117589
 20
118.5595150526395827
 10
33.8108484941139125
 20
118.5639572043487533
 10
33.8081330071903778
 20
118.5684131710230531
 10
33.8054290022411408
 20
118.5728829526624253
 10
33.8027364792662084
 20
118.5773665492668982
 10
33.8000554382655949
 20
118.5818639608364862
 10
33.7973858792392789
 20
118.5863751873712033
 10
33.7947278021872748
 20
118.5909002288709644
 10
33.7920812071095682
 20
118.5954390853358689
 10
33.7894460940061805
 20
118.5999917567658457
 10
33.7868224628770903
 20
118.6045582431609517
 10
33.7842103137223049
 20
118.6091385445211444
 10
33.7816096465418383
 20
118.6137326608464377
 10
33.7790204613356693
 20
118.6183405921368319
 10
33.776442758103812
 20
118.6229623383923411
 10
33.7738765368462595
 20
118.6275978996129368
 10
33.7713217975630116
 20
118.6322472757986617
 10
33.7687785402540683
 20
118.6369104669494732
 10
33.7662467649194369
 20
118.6415874730653854
 10
33.7637264715591101
 20
118.6462782941464127
 10
33.7612176601730951
 20
118.6509829301925265
 10
33.7587203307613777
 20
118.6557013812037411
 10
33.756234483323972
 20
118.6604336471800565
 10
33.753760117860871
 20
118.6651797281214726
 10
33.7512972343720747
 20
118.669939624028018
 10
33.7488458328575902
 20
118.6747133348996357
 10
33.7464059133174104
 20
118.6795008607363542
 10
33.7439774757515423
 20
118.6843022015382019
 10
33.7415605201599718
 20
118.6891173573051219
 10
33.7391550465427059
 20
118.6939463280371854
 10
33.7367610548997661
 20
118.698789113734307
 10
33.7343785452311096
 20
118.7036457143965436
 10
33.7320075175367791
 20
118.7085161300238667
 10
33.7296479718167461
 20
118.7134003606163191
 10
33.7272999080710179
 20
118.718298406173858
 10
33.7249633262995943
 20
118.7232102666965261
 10
33.7226382265024824
 20
118.7281359421842808
 10
33.7203246086796753
 20
118.7330754326371363
 10
33.7180224728311799
 20
118.7380287380550641
 10
33.7157318189569963
 20
118.7429958584381495
 10
33.7134526470571032
 20
118.7479767937863073
 10
33.711184957131529
 20
118.7529715440995517
 10
33.7089287491802594
 20
118.7579801093779253
 10
33.7066840232032945
 20
118.7630024896213854
 10
33.7044507792006343
 20
118.7680386848299605
 10
33.7022290171722787
 20
118.7730886950036222
 10
33.7000187371182349
 20
118.7781525201424131
 10
33.6978199390384958
 20
118.7832301602462621
 10
33.6956326229330685
 20
118.7883216153152404
 10
33.6934567888019458
 20
118.7934268853493336
 10
33.6912924366451279
 20
118.7985459703485276
 10
33.6891395664626145
 20
118.8036788703127797
 10
33.6869981782544059
 20
118.8088255852421753
 10
33.684868272020509
 20
118.8139861151366716
 10
33.6827498477609169
 20
118.8191604599962403
 10
33.6806429054756364
 20
118.8243486198209382
 10
33.6785474451646536
 20
118.8295505946107369
 10
33.6764634668279896
 20
118.8347663843656363
 10
33.6743909704656232
 20
118.8399959890856223
 10
33.6723299560775686
 20
118.8452394087707091
 10
33.6702804236638187
 20
118.8504966434209393
 10
33.6682423732243734
 20
118.8557676930362277
 10
33.6662158047592328
 20
118.8610525576166168
 10
33.664200718268404
 20
118.8663512371621493
 10
33.6621971137518798
 20
118.8716637316727684
 10
33.6602049912096604
 20
118.8769900411484741
 10
33.6582243506417598
 20
118.8823301655892806
 10
33.6562551920481496
 20
118.887684104995202
 10
33.6542975154288513
 20
118.89305185936621
 10
33.6523513207838647
 20
118.898433428702333
 10
33.6504166081131757
 20
118.9038288130035568
 10
33.6484933774167985
 20
118.9092380122698955
 10
33.646581628694733
 20
118.9146610265013067
 10
33.6446813619469651
 20
118.9200978556978328
 10
33.642792577173509
 20
118.9255484998594596
 10
33.6409152743743576
 20
118.9310129589862015
 10
33.6390494535495108
 20
118.9364912330780299
 10
33.6371951146989758
 20
118.9419833221349876
 10
33.6353522578227526
 20
118.9474892261570176
 10
33.6335208829208341
 20
118.9530089451441484
 10
33.6317009899932131
 20
118.9585424790963941
 10
33.6298925790399039
 20
118.9640898280137549
 10
33.6280956500608994
 20
118.969650991896188
 10
33.6263102030562067
 20
118.9752259707437361
 10
33.6245362380258186
 20
118.9808147645563849
 10
33.6227737549697281
 20
118.9864173733341488
 10
33.6210227538879565
 20
118.9920337970769992
 10
33.6192832347804824
 20
118.9976640357849647
 10
33.6175551976473272
 20
119.0033080894580308
 10
33.6158386424884696
 20
119.0089659580961836
 10
33.6141335693039238
 20
119.0146376416994514
 10
33.6124399780936827
 20
119.0203231402678057
 10
33.6107578688577462
 20
119.0260224538012892
 10
33.6090872415961073
 20
119.0317355822998593
 10
33.6074280963087944
 20
119.0374625257635444
 10
33.605780432995779
 20
119.043203284192316
 10
33.6041442516570683
 20
119.0489578575861742
 10
33.6025195522926623
 20
119.0547262459451758
 10
33.6009063349025681
 20
119.0605084492692356
 10
33.5993045994867856
 20
119.0663044675584388
 10
33.5977143460452936
 20
119.0721143008127285
 10
33.5961355745781276
 20
119.0779379490321048
 10
33.5945682850852592
 20
119.0837754122165961
 10
33.5930124775666954
 20
119.0896266903662024
 10
33.5914681520224434
 20
119.0954917834808811
 10
33.5899353084524961
 20
119.1013706915606889
 10
33.5884139468568463
 20
119.1072634146055691
 10
33.5869040672355155
 20
119.1131699526155785
 10
33.5854056695884893
 20
119.1190903055906745
 10
33.5839187539157678
 20
119.1250244735308996
 10
33.582443320217358
 20
119.1309724564361971
 10
33.5809793684932458
 20
119.1369342543066097
 10
33.5795268987434383
 20
119.1429098671421229
 10
33.5780859109679497
 20
119.1488992949427228
 10
33.5766564051667658
 20
119.1549025377084519
 10
33.5752383813398865
 20
119.1609195954392533
 10
33.5738318394873119
 20
119.1669504681351839
 10
33.572436779609049
 20
119.1729951557962011
 10
33.5710532017050838
 20
119.1790536584223332
 10
33.5696811057754303
 20
119.1851259760135662
 10
33.5683204918200815
 20
119.1912121085698857
 10
33.5669713598390373
 20
119.1973120560913202
 10
33.565633709832305
 20
119.2034258185778413
 10
33.5643075417998773
 20
119.2095533960294631
 10
33.5629928557417614
 20
119.2156947884462284
 10
33.561689651657943
 20
119.2218499958280518
 10
33.5603979295484365
 20
119.2280190181749902
 10
33.5591176894132417
 20
119.234201855487072
 10
33.5578489312523445
 20
119.2403985077642119
 10
33.556591655065759
 20
119.2466089750064384
 10
33.5553458608534783
 20
119.2528332572137799
 10
33.5541115486155093
 20
119.2590713543862364
 10
33.5528887183518378
 20
119.2653232665237937
 10
33.5516773700624782
 20
119.2715889936264375
 10
33.5504775037474232
 20
119.2778685356942105
 10
33.54928911940668
 20
119.2841618927270702
 10
33.5481122170402415
 20
119.2904690647250305
 10
33.5469467966481076
 20
119.2967900516880775
 10
33.5457928582302856
 20
119.3031248536162536
 10
33.5446504017867611
 20
119.3094734705095163
 10
33.5435194273175483
 20
119.3158359023678941
 10
33.5423999348226474
 20
119.3222121491913725
 10
33.541291924302044
 20
119.3286022109799518
 10
33.5401953957557524
 20
119.3350060877336318
 10
33.5391103491837725
 20
119.3414237794524126
 10
33.5380367845860832
 20
119.34785528613628
 10
33.5369747019627198
 20
119.3543006077852908
 10
33.535924101313654
 20
119.3607597443993598
 10
33.5348849826388857
 20
119.3672326959785437
 10
33.5338573459384435
 20
119.3737194625228426
 10
33.5328411912122988
 20
119.3802200440322281
 10
33.5318365184604517
 20
119.3867344405067143
 10
33.5308433276829234
 20
119.3932626519463156
 10
33.5298616188796927
 20
119.3998046783510034
 10
33.528891392050781
 20
119.4063605197208062
 10
33.5279326471961738
 20
119.4129301760557098
 10
33.5269853843158643
 20
119.4195136473557
 10
33.5260496034098665
 20
119.4261109336208335
 10
33.5251253044781663
 20
119.4327220348510394
 10
33.524212487520785
 20
119.4393469510463319
 10
33.5233111525377083
 20
119.445985682206782
 10
33.5224212995289363
 20
119.4526382283322761
 10
33.5215429284944761
 20
119.4593045894228993
 10
33.5206760394343206
 20
119.4659847654786091
 10
33.5198206323484698
 20
119.4726787564994197
 10
33.5189767072369307
 20
119.4793865624853595
 10
33.5181442640996892
 20
119.4861081834363858
 10
33.5173233029367523
 20
119.4928436193525272
 10
33.5165138237481273
 20
119.4995928702337409
 10
33.515715826533814
 20
119.5063559360800696
 10
33.5149293112938054
 20
119.5131328168915132
 10
33.5141542780280943
 20
119.5199235126680435
 10
33.5133907267367022
 20
119.5267280234096887
 10
33.5126386574196076
 20
119.5335463491164205
 10
33.5118980700768319
 20
119.5403784897882815
 10
33.5111689647083466
 20
119.5472244454252149
 10
33.5104513413141802
 20
119.5540842160272632
 10
33.5097451998943114
 20
119.5609578015943981
 10
33.5090505404487615
 20
119.567845202126648
 10
33.5083673629775092
 20
119.5747464176240129
 10
33.5076956674805615
 20
119.5816614480864786
 10
33.5070354539579256
 20
119.5885902935140308
 10
33.5063867224095944
 20
119.5955329539066838
 10
33.5057494728355749
 20
119.6024894292644518
 10
33.505123705235853
 20
119.6094597195873064
 10
33.50450941961045
 20
119.6164438248752759
 10
33.5039066159593446
 20
119.6234417451283321
 10
33.5033152942825438
 20
119.6304534803465032
 10
33.5027354545800549
 20
119.6374790305297893
 10
33.5021670968518777
 20
119.6445183956781761
 10
33.501610221097998
 20
119.6515715757916496
 10
33.5010648273184302
 20
119.6586385708702238
 10
33.500530915513167
 20
119.6657193809138846
 10
33.5000084856822085
 20
119.6728140059226746
 10
33.4994975378255617
 20
119.6799224458965512
 10
33.4989980719432197
 20
119.6870447008355427
 10
33.4985100880351823
 20
119.6941807707396492
 10
33.4980335861014566
 20
119.7013306556088565
 10
33.4975685661420286
 20
119.708494355443122
 10
33.4971150281569123
 20
119.7156718702425167
 10
33.4966729721461007
 20
119.7228632000070121
 10
33.4962423981096009
 20
119.7300683447366225
 10
33.4958233060474058
 20
119.7372873044313337
 10
33.4954156959595153
 20
119.7445200790911173
 10
33.4950195678459366
 20
119.75176666871603
 10
33.4946349217066626
 20
119.7590270733060436
 10
33.4942617575416932
 20
119.7663012928611579
 10
33.4939000753510356
 20
119.773589327381373
 10
33.4935498751346756
 20
119.7808911768666746
 10
33.4932111568926274
 20
119.7882068413170913
 10
33.4928839206248909
 20
119.7955363207325945
 10
33.4925681663314521
 20
119.8028796151132411
 10
33.492263894012325
 20
119.8102367244589601
 10
33.4919711036675025
 20
119.8176076487697941
 10
33.4916897952969848
 20
119.8249923880457288
 10
33.4914199689007788
 20
119.8323909422867359
 10
33.4911616244788775
 20
119.8398033114928865
 10
33.4909147620312879
 20
119.8472294956641093
 10
33.490679381557996
 20
119.854669494800433
 10
33.4904554830590158
 20
119.8621233089018858
 10
33.4902430665343402
 20
119.8695909379684394
 10
33.4900421319839694
 20
119.8770723820000512
 10
33.4898526794079103
 20
119.8845676409968206
 10
33.4896747088061559
 20
119.8920767149586339
 10
33.4895082201787133
 20
119.8995996038856049
 10
33.4893532135255683
 20
119.9071363077776482
 10
33.489209688846735
 20
119.9146868266348065
 10
33.4890776461422135
 20
119.9222511604570656
 10
33.4889570854119825
 20
119.9298293092444254
 10
33.4888480066560774
 20
119.937421272996886
 10
33.4887504098744628
 20
119.9450270517144475
 10
33.48866429506716
 20
119.9526466453970954
 10
33.488589662234169
 20
119.9602800540448726
 10
33.4885265113754826
 20
119.9679272776577363
 10
33.4884748424911081
 20
119.9755883162357009
 10
33.4884346555810311
 20
119.9832631697787804
 10
33.4884059506452587
 20
119.9909518382869607
 10
33.4883887276838124
 20
119.9986543217602133
 10
33.4883829866966494
 20
120.0063706201986093
 42
-0.1520552001393884
 10
33.8646243207794697
 20
121.5117106988945181
 42
-0.2609893822229617
 10
34.9746112047967088
 20
122.0539629005059084
 42
-0.2598887638008239
 10
36.0752295296983334
 20
121.5117106988945181
 42
-0.1532357876440791
 10
36.4548435450627721
 20
120.0063706201986093
 10
36.4548377526125833
 20
119.9986543217602133
 10
36.454820375262031
 20
119.9909518382869607
 10
36.4547914130110939
 20
119.9832631697787804
 10
36.4547508658597934
 20
119.9755883162357009
 10
36.4546987338081365
 20
119.9679272776577363
 10
36.4546350168560949
 20
119.9602800540448726
 10
36.4545597150036755
 20
119.9526466453970954
 10
36.4544728282508856
 20
119.9450270517144475
 10
36.4543743565977323
 20
119.937421272996886
 10
36.4542643000442084
 20
119.9298293092444254
 10
36.4541426585903139
 20
119.9222511604570656
 10
36.4540094322360417
 20
119.9146868266348065
 10
36.453864620981399
 20
119.9071363077776482
 10
36.4537082248263857
 20
119.8995996038856049
 10
36.453540243771009
 20
119.8920767149586339
 10
36.4533606778152617
 20
119.8845676409968206
 10
36.4531695269591296
 20
119.8770723820000512
 10
36.4529667912026341
 20
119.8695909379684394
 10
36.4527524705457751
 20
119.8621233089018858
 10
36.4525265649885242
 20
119.854669494800433
 10
36.452289074530924
 20
119.8472294956641093
 10
36.452039999172932
 20
119.8398033114928865
 10
36.4517793389145837
 20
119.8323909422867359
 10
36.4515070937558647
 20
119.8249923880457288
 10
36.4512232636967681
 20
119.8176076487697941
 10
36.4509278487372939
 20
119.8102367244589601
 10
36.4506208488774561
 20
119.8028796151132411
 10
36.4503022641172478
 20
119.7955363207325945
 10
36.4499720944566761
 20
119.7882068413170913
 10
36.4496303398957195
 20
119.7808911768666746
 10
36.4492770004343996
 20
119.773589327381373
 10
36.4489120760727019
 20
119.7663012928611579
 10
36.4485355668106408
 20
119.7590270733060436
 10
36.448147472648202
 20
119.75176666871603
 10
36.4477477935853926
 20
119.7445200790911173
 10
36.4473365296222198
 20
119.7372873044313337
 10
36.4469136807586693
 20
119.7300683447366225
 10
36.4464792469947412
 20
119.7228632000070121
 10
36.4460332283304496
 20
119.7156718702425167
 10
36.4455756247657874
 20
119.708494355443122
 10
36.4451064363007546
 20
119.7013306556088565
 10
36.4446256629353442
 20
119.6941807707396492
 10
36.4441333046695704
 20
119.6870447008355427
 10
36.4436293615034259
 20
119.6799224458965512
 10
36.4431138334369038
 20
119.6728140059226746
 10
36.4425867204700182
 20
119.6657193809138846
 10
36.4420480226027479
 20
119.6586385708702238
 10
36.4414977398351212
 20
119.6515715757916496
 10
36.4409358721671168
 20
119.6445183956781761
 10
36.4403624195987419
 20
119.6374790305297893
 10
36.4397773821299893
 20
119.6304534803465032
 10
36.4391807597608661
 20
119.6234417451283321
 10
36.4385725524913795
 20
119.6164438248752759
 10
36.4379527603215223
 20
119.6094597195873064
 10
36.4373213832512874
 20
119.6024894292644518
 10
36.4366784212806891
 20
119.5955329539066838
 10
36.4360238744097131
 20
119.5885902935140308
 10
36.4353577426383666
 20
119.5816614480864786
 10
36.4346800259666495
 20
119.5747464176240129
 10
36.4339907243945618
 20
119.567845202126648
 10
36.4332898379221035
 20
119.5609578015943981
 10
36.4325773665492747
 20
119.5540842160272632
 10
36.4318533102760682
 20
119.5472244454252149
 10
36.4311176691024912
 20
119.5403784897882815
 10
36.4303704430285507
 20
119.5335463491164205
 10
36.4296116320542325
 20
119.5267280234096887
 10
36.4288412361795508
 20
119.5199235126680435
 10
36.4280592554044844
 20
119.5131328168915132
 10
36.4272656897290616
 20
119.5063559360800696
 10
36.4264605391532612
 20
119.4995928702337409
 10
36.4256438036770902
 20
119.4928436193525272
 10
36.4248154833005486
 20
119.4861081834363858
 10
36.4239755780236294
 20
119.4793865624853595
 10
36.4231240878463467
 20
119.4726787564994197
 10
36.4222610127686934
 20
119.4659847654786091
 10
36.4213863527906625
 20
119.4593045894228993
 10
36.420500107912261
 20
119.4526382283322761
 10
36.419602278133496
 20
119.445985682206782
 10
36.4186928634543534
 20
119.4393469510463319
 10
36.4177718638748402
 20
119.4327220348510394
 10
36.4168392793949565
 20
119.4261109336208335
 10
36.4158951100147021
 20
119.4195136473557
 10
36.4149393557340773
 20
119.4129301760557098
 10
36.4139720165530747
 20
119.4063605197208062
 10
36.4129930924717087
 20
119.3998046783510034
 10
36.412002583489965
 20
119.3932626519463156
 10
36.4110004896078507
 20
119.3867344405067143
 10
36.409986810825373
 20
119.3802200440322281
 10
36.4089615471425248
 20
119.3737194625228426
 10
36.4079246985592917
 20
119.3672326959785437
 10
36.4068762650756952
 20
119.3607597443993598
 10
36.4058162466917352
 20
119.3543006077852908
 10
36.4047446434073976
 20
119.34785528613628
 10
36.4036614552226823
 20
119.3414237794524126
 10
36.4025666821376035
 20
119.3350060877336318
 10
36.4014603241521471
 20
119.3286022109799518
 10
36.4003423812663272
 20
119.3222121491913725
 10
36.3992128534801296
 20
119.3158359023678941
 10
36.3980717407935686
 20
119.3094734705095163
 10
36.3969190432066299
 20
119.3031248536162536
 10
36.3957547607193135
 20
119.2967900516880775
 10
36.3945788933316408
 20
119.2904690647250305
 10
36.3933914410435833
 20
119.2841618927270702
 10
36.3921924038551623
 20
119.2778685356942105
 10
36.3909817817663779
 20
119.2715889936264375
 10
36.3897595747772087
 20
119.2653232665237937
 10
36.388525782887676
 20
119.2590713543862364
 10
36.3872804060977657
 20
119.2528332572137799
 10
36.3860234444074848
 20
119.2466089750064384
 10
36.3847548978168334
 20
119.2403985077642119
 10
36.3834747663258185
 20
119.234201855487072
 10
36.3821830499344259
 20
119.2280190181749902
 10
36.3808797486426627
 20
119.2218499958280518
 10
36.3795648624505219
 20
119.2156947884462284
 10
36.3782383913580247
 20
119.2095533960294631
 10
36.3769003353651357
 20
119.2034258185778413
 10
36.3755506944718974
 20
119.1973120560913202
 10
36.3741894686782814
 20
119.1912121085698857
 10
36.3728166579842878
 20
119.1851259760135662
 10
36.3714322623899236
 20
119.1790536584223332
 10
36.3700362818951959
 20
119.1729951557962011
 10
36.3686287165000834
 20
119.1669504681351839
 10
36.3672095662046146
 20
119.1609195954392533
 10
36.3657788310087682
 20
119.1549025377084519
 10
36.364336510912544
 20
119.1488992949427228
 10
36.3628826059159564
 20
119.1429098671421229
 10
36.3614171160189983
 20
119.1369342543066097
 10
36.3599400412216625
 20
119.1309724564361971
 10
36.3584513815239632
 20
119.1250244735308996
 10
36.3569511369258862
 20
119.1190903055906745
 10
36.3554393074274458
 20
119.1131699526155785
 10
36.3539158930286277
 20
119.1072634146055691
 10
36.3523808937294319
 20
119.1013706915606889
 10
36.3508343095298798
 20
119.0954917834808811
 10
36.34927614042995
 20
119.0896266903662024
 10
36.3477063864296355
 20
119.0837754122165961
 10
36.3461250475289788
 20
119.0779379490321048
 10
36.3445321237279302
 20
119.0721143008127285
 10
36.342927615026511
 20
119.0663044675584388
 10
36.3413115214247284
 20
119.0605084492692356
 10
36.3396838429225681
 20
119.0547262459451758
 10
36.3380445795200444
 20
119.0489578575861742
 10
36.3363937312171359
 20
119.043203284192316
 10
36.334731298013871
 20
119.0374625257635444
 10
36.3330572799102214
 20
119.0317355822998593
 10
36.3313716769062083
 20
119.0260224538012892
 10
36.3296744890018246
 20
119.0203231402678057
 10
36.3279657161970704
 20
119.0146376416994514
 10
36.3262453584919456
 20
119.0089659580961836
 10
36.3245134158864431
 20
119.0033080894580308
 10
36.3227698883805772
 20
118.9976640357849647
 10
36.3210147759743336
 20
118.9920337970769992
 10
36.3192480786677265
 20
118.9864173733341488
 10
36.3174697964607418
 20
118.9808147645563849
 10
36.3156799293533936
 20
118.9752259707437361
 10
36.3138784773456536
 20
118.969650991896188
 10
36.3120654404375571
 20
118.9640898280137549
 10
36.3102408186290901
 20
118.9585424790963941
 10
36.3084046119202526
 20
118.9530089451441484
 10
36.3065568203110445
 20
118.9474892261570176
 10
36.3046974438014587
 20
118.9419833221349876
 10
36.3028264823915023
 20
118.9364912330780299
 10
36.3009439360811825
 20
118.9310129589862015
 10
36.299049804870485
 20
118.9255484998594596
 10
36.297144088759417
 20
118.9200978556978328
 10
36.2952267877479784
 20
118.9146610265013067
 10
36.2932979018361692
 20
118.9092380122698955
 10
36.2913574310239895
 20
118.9038288130035568
 10
36.2894053753114321
 20
118.898433428702333
 10
36.2874417346985112
 20
118.89305185936621
 10
36.2854665091852127
 20
118.887684104995202
 10
36.2834796987715507
 20
118.8823301655892806
 10
36.2814813034575181
 20
118.8769900411484741
 10
36.2794713232431008
 20
118.8716637316727684
 10
36.2774497581283271
 20
118.8663512371621493
 10
36.2754166081131757
 20
118.8610525576166168
 10
36.2733718731976538
 20
118.8557676930362277
 10
36.2713155533817613
 20
118.8504966434209393
 10
36.2692476486654982
 20
118.8452394087707091
 10
36.2671681590488646
 20
118.8399959890856223
 10
36.2650770845318533
 20
118.8347663843656363
 10
36.2629744251144785
 20
118.8295505946107369
 10
36.2608601807967261
 20
118.8243486198209382
 10
36.2587343515786102
 20
118.8191604599962403
 10
36.2565969374601096
 20
118.8139861151366716
 10
36.2544479384412526
 20
118.8088255852421753
 10
36.2522873545220179
 20
118.8036788703127797
 10
36.2501151857024126
 20
118.7985459703485276
 10
36.2479314319824368
 20
118.7934268853493336
 10
36.2457360933620905
 20
118.7883216153152404
 10
36.2435291698413735
 20
118.7832301602462621
 10
36.2413106614202789
 20
118.7781525201424131
 10
36.2390805680988137
 20
118.7730886950036222
 10
36.236838889876978
 20
118.7680386848299605
 10
36.2345856267547788
 20
118.7630024896213854
 10
36.2323207787322019
 20
118.7579801093779253
 10
36.2300443458092545
 20
118.7529715440995517
 10
36.2277563279859436
 20
118.7479767937863073
 10
36.2254567252622479
 20
118.7429958584381495
 10
36.2231455376381888
 20
118.7380287380550641
 10
36.2208227651137662
 20
118.7330754326371363
 10
36.2184884076889588
 20
118.7281359421842808
 10
36.2161424653637809
 20
118.7232102666965261
 10
36.2137849381382395
 20
118.718298406173858
 10
36.2114158260123205
 20
118.7134003606163191
 10
36.2090351289860308
 20
118.7085161300238667
 10
36.2066428470593706
 20
118.7036457143965436
 10
36.2042389802323399
 20
118.698789113734307
 10
36.2018235285049457
 20
118.6939463280371854
 10
36.1993964918771738
 20
118.6891173573051219
 10
36.1969578703490242
 20
118.6843022015382019
 10
36.1945076639205112
 20
118.6795008607363542
 10
36.1920458725916276
 20
118.6747133348996357
 10
36.1895724963623664
 20
118.669939624028018
 10
36.1870875352327346
 20
118.6651797281214726
 10
36.1845909892027464
 20
118.6604336471800565
 10
36.1820828582723664
 20
118.6557013812037411
 10
36.1795631424416229
 20
118.6509829301925265
 10
36.1770318417105159
 20
118.6462782941464127
 10
36.1744889560790241
 20
118.6415874730653854
 10
36.1719344855471689
 20
118.6369104669494732
 10
36.1693684301149432
 20
118.6322472757986617
 10
36.1667907897823468
 20
118.6275978996129368
 10
36.1642015645493728
 20
118.6229623383923411
 10
36.1616007544160283
 20
118.6183405921368319
 10
36.1589883593823274
 20
118.6137326608464377
 10
36.1563643794482417
 20
118.6091385445211444
 10
36.1537288146137854
 20
118.6045582431609517
 10
36.1510816648789586
 20
118.5999917567658457
 10
36.1484229302437612
 20
118.5954390853358689
 10
36.1457526107081932
 20
118.5909002288709644
 10
36.1430707062722618
 20
118.5863751873712033
 10
36.1403772169359385
 20
118.5818639608364862
 10
36.1376721426992518
 20
118.5773665492668982
 10
36.1349554835622016
 20
118.5728829526624253
 10
36.1322272395247808
 20
118.5684131710230531
 10
36.1294874105869752
 20
118.5639572043487533
 10
36.1267359967488204
 20
118.5595150526395827
 10
36.1239729980102808
 20
118.5550867158955128
 10
36.1211984143713707
 20
118.550672194116558
 10
36.11841224583209
 20
118.5462714873026613
 10
36.1156144923924458
 20
118.5418845954538938
 10
36.1128051540524169
 20
118.5375115185702413
 10
36.1099842308120174
 20
118.5331522566516753
 10
36.1071517226712544
 20
118.5288068096982101
 10
36.1043076296301209
 20
118.52447517770986
 10
36.1014519516886097
 20
118.5201573606866106
 10
36.098584688846735
 20
118.5158533586284335
 10
36.0957058411044827
 20
118.5115631715353857
 10
36.0928154084618598
 20
118.5072867994074244
 10
36.0899133909188663
 20
118.5030242422445923
 10
36.0869997884754952
 20
118.4987755000468326
 10
36.0840746011317748
 20
118.4945405728141878
 10
36.0811378288876696
 20
118.4903194605466581
 10
36.0781894717431797
 20
118.4861121632442007
 10
36.0752295296983334
 20
118.4819186809068725
 42
-0.2580459804199831
  0
LWPOLYLINE
  5
136
100
AcDbEntity
  8
VectorEngraving
 62
256
370
-1
 48
1.0
  6
BYLAYER
100
AcDbPolyline
 90
8
 70
129
 10
34.9746112047967088
 20
118.5328836424957899
 42
0.2924199676809433
 10
35.5359752670039413
 20
118.8997564174629957
 42
0.1214329083418627
 10
35.7398351133595753
 20
120.0131159827618461
 42
0.1202673064395579
 10
35.5359752670039413
 20
121.0875023421397856
 42
0.2966022124947482
 10
34.9746112047967088
 20
121.4671163575042101
 42
0.2995688277754432
 10
34.4035038411092415
 20
121.0875023421397856
 42
0.1186384765761943
 10
34.2026419336706056
 20
120.0131159827618461
 42
0.1197837217357419
 10
34.4035038411092415
 20
118.8997564174629957
 42
0.2952609534182755
  0
LWPOLYLINE
  5
137
100
AcDbEntity
  8
VectorEngraving
 62
256
370
-1
 48
1.0
  6
BYLAYER
100
AcDbPolyline
 90
8
 70
129
 10
42.1306913996627372
 20
118.0224845418774606
 10
41.8563799887577375
 20
118.9473486977702805
 10
40.8168446692898712
 20
118.9473486977702805
 10
40.5357878958216276
 20
118.0224845418774606
 10
39.8215289488476714
 20
118.0224845418774606
 10
41.1676035225782329
 20
122.0224845418774606
 10
41.5123664980326055
 20
122.0224845418774606
 10
42.858441071763167
 20
118.0224845418774606
  0
LWPOLYLINE
  5
138
100
AcDbEntity
  8
VectorEngraving
 62
256
370
-1
 48
1.0
  6
BYLAYER
100
AcDbPolyline
 90
3
 70
129
 10
41.3399850103054192
 20
120.689151208544132
 10
40.969739554056595
 20
119.4644931609518466
 10
41.7034851039910137
 20
119.4644931609518466
  0
LWPOLYLINE
  5
139
100
AcDbEntity
  8
VectorEngraving
 62
256
370
-1
 48
1.0
  6
BYLAYER
100
AcDbPolyline
 90
11
 70
129
 10
40.7399756417462982
 20
76.0
 10
40.7399756417462982
 20
77.9872587596027671
 10
41.416010867528577
 20
77.9872587596027671
 42
-0.1226157369347094
 10
41.7956248828930086
 20
77.9074386359377939
 42
-0.149974050723176
 10
42.017284991568296
 20
77.6953344575604206
 42
-0.1268020082315662
 10
42.0890481543938506
 20
77.403410155518074
 42
-0.1268596194922971
 10
42.0189713322091052
 20
77.1180438448566576
 42
-0.1500081120372863
 10
41.801995503091625
 20
76.9108113172194123
 42
-0.1226248171483493
 10
41.4321247892074211
 20
76.8326775341952413
 10
41.1064736743488837
 20
76.8326775341952413
 10
41.1064736743488837
 20
76.0
  0
LWPOLYLINE
  5
13A
100
AcDbEntity
  8
VectorEngraving
 62
256
370
-1
 48
1.0
  6
BYLAYER
100
AcDbPolyline
 90
7
 70
129
 10
41.1064736743488837
 20
77.1324714258946926
 10
41.4066423084129696
 20
77.1324714258946926
 42
0.1964422541879535
 10
41.6393573168446665
 20
77.2089188682780616
 42
0.2132598586825745
 10
41.7191774405096467
 20
77.4034101555180882
 42
0.2129058125031065
 10
41.6393573168446665
 20
77.5980888139404215
 42
0.1973302280815671
 10
41.4096402473299605
 20
77.6747236275060828
 10
41.1064736743488837
 20
77.6747236275060828
  0
LWPOLYLINE
  5
13B
100
AcDbEntity
  8
VectorEngraving
 62
256
370
-1
 48
1.0
  6
BYLAYER
100
AcDbPolyline
 90
13
 70
129
 10
42.4746580475922784
 20
76.0
 10
42.2130878770845044
 20
77.9872587596027671
 10
42.5256230091811886
 20
77.9872587596027671
 10
42.6597807757166976
 20
76.7401161701330352
 10
42.9149803260258551
 20
77.830991193554425
 10
43.1060989319842633
 20
77.830991193554425
 10
43.3612984822934209
 20
76.7431141090500262
 10
43.4666010867528598
 20
77.9872587596027671
 10
43.7600243582537018
 20
77.9872587596027671
 10
43.5018268690275463
 20
76.0
 10
43.2754824807944516
 20
76.0
 10
42.994425707326215
 20
77.2250327899568987
 10
42.7073730560239824
 20
76.0
  0
LWPOLYLINE
  5
13C
100
AcDbEntity
  8
VectorEngraving
 62
256
370
-1
 48
1.0
  6
BYLAYER
100
AcDbPolyline
 90
26
 70
129
 10
19.6880269814502498
 20
80.4614952220348556
 42
-0.1371812061519475
 10
19.0921866216975786
 20
80.6219786396852243
 42
-0.1521335773926459
 10
18.6616076447442367
 20
81.1219786396852243
 42
-0.1095731750364436
 10
18.5014052838673386
 20
81.9881956155143286
 42
-0.0854969824068629
 10
18.6090500281056741
 20
82.7273749297358023
 42
-0.1105493068353116
 10
18.8937605396290031
 20
83.2034851039910137
 42
-0.1092743849584149
 10
19.2835862844294539
 20
83.4592467678471053
 42
-0.0894144458589478
 10
19.707138842046092
 20
83.5379426644182104
 42
-0.1442794725259179
 10
20.2835862844294539
 20
83.3850477796514866
 42
-0.1501502099017917
 10
20.6498032602585688
 20
82.9544688026981447
 10
20.3097245643619999
 20
82.7009555930297893
 10
20.2715008431703154
 20
82.6767847105115266
 10
20.2478920741989867
 20
82.715008431703211
 42
0.1140804318624171
 10
20.2405845980888088
 20
82.784710511523329
 42
0.0461095061683346
 10
20.1905564924114636
 20
82.8875772906127111
 42
0.1205634682735406
 10
19.9724564362001118
 20
83.0573355817875267
 42
0.097396558177562
 10
19.7358066329398518
 20
83.102866779089382
 42
0.1710454528741578
 10
19.3934794828555326
 20
82.9783586284429475
 42
0.1324894010124533
 10
19.1351883080382201
 20
82.6124227093873031
 42
0.0957756120555184
 10
19.0370994940978058
 20
82.0118043844856714
 42
0.1424637919354484
 10
19.2262507026419307
 20
81.2009555930297893
 42
0.2705536969347558
 10
19.7020798201236644
 20
80.9066891512085391
 42
0.1360351973350453
 10
20.008431703204046
 20
80.9831365935919081
 42
0.1254759824623016
 10
20.2428330522765592
 20
81.2366498032602635
 10
20.6160764474423814
 20
80.9595278246205794
 42
-0.1424969433067253
 10
20.2214727374929701
 20
80.5739179314221445
 42
-0.1161683907371456
  0
LWPOLYLINE
  5
13D
100
AcDbEntity
  8
VectorEngraving
 62
256
370
-1
 48
1.0
  6
BYLAYER
100
AcDbPolyline
 90
8
 70
129
 10
21.9505340078695852
 20
80.4569983136593549
 42
-0.2591303879110663
 10
21.1180438448566576
 20
80.8589094997189477
 42
-0.1527047570207503
 10
20.8358628442945459
 20
82.0022484541877503
 42
-0.1520552001393891
 10
21.1180438448566576
 20
83.1312535132096713
 42
-0.2609893822229282
 10
21.9505340078695852
 20
83.5379426644182104
 42
-0.259888763800787
 10
22.775997751545809
 20
83.1312535132096713
 42
-0.1532357876440681
 10
23.060708263069138
 20
82.0022484541877503
 42
-0.1538924925182028
 10
22.775997751545809
 20
80.8589094997189477
 42
-0.2580459804199999
  0
LWPOLYLINE
  5
13E
100
AcDbEntity
  8
VectorEngraving
 62
256
370
-1
 48
1.0
  6
BYLAYER
100
AcDbPolyline
 90
8
 70
129
 10
21.9505340078695852
 20
80.8971332209106322
 42
0.2924199676809182
 10
22.3715570545250131
 20
81.1722878021360259
 42
0.121432908341844
 10
22.5244519392917333
 20
82.0073074761101708
 42
0.1202673064395491
 10
22.3715570545250131
 20
82.8130972456436183
 42
0.296602212494702
 10
21.9505340078695852
 20
83.0978077571669473
 42
0.2995688277753942
 10
21.5222034851039865
 20
82.8130972456436183
 42
0.1186384765761831
 10
21.3715570545250131
 20
82.0073074761101708
 42
0.1197837217357443
 10
21.5222034851039865
 20
81.1722878021360259
 42
0.2952609534182676
  0
LWPOLYLINE
  5
13F
100
AcDbEntity
  8
VectorEngraving
 62
256
370
-1
 48
1.0
  6
BYLAYER
100
AcDbPolyline
 90
8
 70
129
 10
24.9258010118043813
 20
80.5143338954468817
 10
24.720067453625628
 20
81.2079820123665002
 10
23.94041596402473
 20
81.2079820123665002
 10
23.7296233839235491
 20
80.5143338954468817
 10
23.1939291736930819
 20
80.5143338954468817
 10
24.2034851039910031
 20
83.5143338954468817
 10
24.4620573355817825
 20
83.5143338954468817
 10
25.4716132658797036
 20
80.5143338954468817
  0
LWPOLYLINE
  5
140
100
AcDbEntity
  8
VectorEngraving
 62
256
370
-1
 48
1.0
  6
BYLAYER
100
AcDbPolyline
 90
3
 70
129
 10
24.3327712197863946
 20
82.5143338954468817
 10
24.0550871275997729
 20
81.5958403597526711
 10
24.6053962900505887
 20
81.5958403597526711
  0
LWPOLYLINE
  5
141
100
AcDbEntity
  8
VectorEngraving
 62
256
370
-1
 48
1.0
  6
BYLAYER
100
AcDbPolyline
 90
13
 70
129
 10
25.7436762225969602
 20
80.5143338954468817
 10
25.7436762225969602
 20
83.4952220348510394
 10
26.6863406408094406
 20
83.4952220348510394
 42
-0.1905232060051801
 10
27.4851039910061807
 20
83.2560427206295657
 42
-0.2148899109718961
 10
27.7386172006745326
 20
82.6194491287239998
 42
-0.100191379440132
 10
27.6694772344013451
 20
82.2917369308600399
 42
-0.0965402896310973
 10
27.4732996065205128
 20
81.9974704890387898
 42
-0.1106023788064216
 10
27.1793142214727332
 20
81.8060708263069216
 10
27.8201236649803221
 20
80.5143338954468817
 10
27.2507026419336675
 20
80.5143338954468817
 10
26.6481169196177596
 20
81.7537942664418296
 10
26.2889263631253485
 20
81.7537942664418296
 10
26.2889263631253485
 20
80.5143338954468817
  0
LWPOLYLINE
  5
142
100
AcDbEntity
  8
VectorEngraving
 62
256
370
-1
 48
1.0
  6
BYLAYER
100
AcDbPolyline
 90
7
 70
129
 10
26.2889263631253485
 20
82.2034851039910137
 10
26.7245643620011215
 20
82.2034851039910137
 42
0.191831222886006
 10
27.068858909499717
 20
82.3111298482293421
 42
0.2154606779080517
 10
27.1838111298482268
 20
82.6053962900505923
 42
0.1955098707728996
 10
27.068858909499717
 20
82.9019111860595785
 42
0.2146607426727126
 10
26.7245643620011215
 20
83.026419336706013
 10
26.2889263631253485
 20
83.026419336706013
  0
LWPOLYLINE
  5
143
100
AcDbEntity
  8
VectorEngraving
 62
256
370
-1
 48
1.0
  6
BYLAYER
100
AcDbPolyline
 90
39
 70
129
 10
29.0781337830241675
 20
80.4614952220348556
 42
-0.0824589363782335
 10
28.5205171444631809
 20
80.5500281056773417
 42
-0.1239231858746184
 10
28.0876897133220886
 20
80.8206857785272632
 10
28.3507588532883616
 20
81.2653175941540269
 10
28.3698707138842039
 20
81.3035413153456972
 10
28.4131534569983124
 20
81.2799325463743685
 42
0.0468697015839489
 10
28.4392917369308584
 20
81.2057335581787498
 42
0.091450235562862
 10
28.513209668353003
 20
81.1169196177627896
 42
0.0681594634041927
 10
28.7788083192804933
 20
80.9688026981450264
 42
0.0950027158644619
 10
29.0972456436200098
 20
80.9111860595840398
 42
0.1544690761801491
 10
29.4631815626756577
 20
81.009274873524447
 42
0.2606540762175195
 10
29.6042720629567135
 20
81.2990444069702107
 42
0.1208512743437887
 10
29.561270376616072
 20
81.4783586284429475
 42
0.1219613454318204
 10
29.3915120854412564
 20
81.6481169196177632
 42
0.0382540592904237
 10
29.0157391793142203
 20
81.8493535694210266
 42
-0.058107482884901
 10
28.5300730747610984
 20
82.1194491287239998
 42
-0.1200427752267628
 10
28.2743114109049998
 20
82.4162450815064602
 42
-0.1126833292539291
 10
28.1978639685216379
 20
82.7774030354131582
 42
-0.1592312928671623
 10
28.3198426082068551
 20
83.1697582911748157
 42
-0.1317713073948648
 10
28.6571107363687432
 20
83.4423833614390134
 42
-0.1105525077854768
 10
29.1500843170320394
 20
83.5430016863406451
 42
-0.2184592046670116
 10
30.0539629005059012
 20
83.1602023608768945
 10
29.7380550871275986
 20
82.7965148960090005
 10
29.7093872962338352
 20
82.7633501967397365
 10
29.6711635750421543
 20
82.7920179876334998
 42
0.0525272950834706
 10
29.6545812254075294
 20
82.8659359190556444
 42
0.0946983163544376
 10
29.5902192242833024
 20
82.9589657110736312
 42
0.1239145974077463
 10
29.3962900505902169
 20
83.0741989881956187
 42
0.0674802657518249
 10
29.1545812254075294
 20
83.102866779089382
 42
0.17106956997737
 10
28.8434513771781873
 20
83.0118043844856714
 42
0.2395241755843613
 10
28.7284991568296775
 20
82.801573917931421
 42
0.1315107380140383
 10
28.771781899943786
 20
82.6290050590219209
 42
0.1136957301831251
 10
28.9465992130410328
 20
82.4665542439572761
 42
0.0383547771664877
 10
29.3507588532883616
 20
82.2608206857785262
 42
-0.053425499144201
 10
29.8243395165823451
 20
81.9904440697020789
 42
-0.1275968227178377
 10
30.0660483417650326
 20
81.7009555930297893
 42
-0.1042366901074498
 10
30.1354693648116871
 20
81.3327712197863946
 42
-0.1279801959423979
 10
30.0252951096121379
 20
80.9159640247330003
 42
-0.146789933601833
 10
29.6807195053400754
 20
80.5882518268690262
 42
-0.1239665239213975
  0
LWPOLYLINE
  5
144
100
AcDbEntity
  8
VectorEngraving
 62
256
370
-1
 48
1.0
  6
BYLAYER
100
AcDbPolyline
 90
12
 70
129
 10
30.5559302979201775
 20
80.5143338954468817
 10
30.5559302979201775
 20
83.4952220348510394
 10
32.4985947161326578
 20
83.4952220348510394
 10
32.4985947161326578
 20
83.0550871275997764
 10
31.0820685778527235
 20
83.0550871275997764
 10
31.0820685778527235
 20
82.2894884766722896
 10
32.2450815064643024
 20
82.2894884766722896
 10
32.2450815064643024
 20
81.8442945474985919
 10
31.0820685778527235
 20
81.8442945474985919
 10
31.0820685778527235
 20
80.9544688026981447
 10
32.4839797639123091
 20
80.9544688026981447
 10
32.4839797639123091
 20
80.5143338954468817
  0
LWPOLYLINE
  5
145
100
AcDbEntity
  8
VectorEngraving
 62
256
370
-1
 48
1.0
  6
BYLAYER
100
AcDbPolyline
 90
10
 70
129
 10
5.2346355630504062
 20
76.0000000000000142
 10
5.2346355630504062
 20
77.9872587596027813
 10
6.4720348510399131
 20
77.9872587596027813
 10
6.4720348510399131
 20
77.6968334270189445
 10
5.5565392542626979
 20
77.6968334270189445
 10
5.5565392542626979
 20
77.2152894884766852
 10
6.3000281056773506
 20
77.2152894884766852
 10
6.3000281056773506
 20
76.9248641558928341
 10
5.5565392542626979
 20
76.9248641558928341
 10
5.5565392542626979
 20
76.0000000000000142
  0
LWPOLYLINE
  5
146
100
AcDbEntity
  8
VectorEngraving
 62
256
370
-1
 48
1.0
  6
BYLAYER
100
AcDbPolyline
 90
12
 70
129
 10
6.8419055649241178
 20
76.0000000000000142
 10
6.8419055649241178
 20
76.2904253325838653
 10
7.2308881394041631
 20
76.2904253325838653
 10
7.2308881394041631
 20
77.6968334270189445
 10
6.8640153644369528
 20
77.6968334270189445
 10
6.8640153644369528
 20
77.9872587596027813
 10
7.9612610080569644
 20
77.9872587596027813
 10
7.9612610080569644
 20
77.6968334270189445
 10
7.5722784335769191
 20
77.6968334270189445
 10
7.5722784335769191
 20
76.2904253325838653
 10
7.9773749297358094
 20
76.2904253325838653
 10
7.9773749297358094
 20
76.0000000000000142
  0
LWPOLYLINE
  5
147
100
AcDbEntity
  8
VectorEngraving
 62
256
370
-1
 48
1.0
  6
BYLAYER
100
AcDbPolyline
 90
13
 70
129
 10
8.3311317219411691
 20
77.9872587596027813
 10
8.7073730560239859
 20
77.9872587596027813
 10
9.3804103428892667
 20
76.6794079070639043
 10
9.3612984822934262
 20
77.9872587596027813
 10
9.7124320779464153
 20
77.9872587596027813
 10
9.7124320779464153
 20
77.9584035975267113
 42
0.1276856979478953
 10
9.6914465055274519
 20
77.915308225594913
 42
0.0454369266293976
 10
9.686574854787338
 20
77.8403597526700537
 10
9.686574854787338
 20
76.0000000000000142
 10
9.3519299231778188
 20
76.0000000000000142
 10
8.6564080944350792
 20
77.3940415964024879
 10
8.6564080944350792
 20
76.0000000000000142
 10
8.3311317219411691
 20
76.0000000000000142
  0
LWPOLYLINE
  5
148
100
AcDbEntity
  8
VectorEngraving
 62
256
370
-1
 48
1.0
  6
BYLAYER
100
AcDbPolyline
 90
12
 70
129
 10
9.9702548248079488
 20
76.0000000000000142
 10
9.9702548248079488
 20
77.9872587596027813
 10
11.2653644369496
 20
77.9872587596027813
 10
11.2653644369496
 20
77.6938354881019393
 10
10.3210136780963122
 20
77.6938354881019393
 10
10.3210136780963122
 20
77.1834363874836242
 10
11.0963556305040321
 20
77.1834363874836242
 10
11.0963556305040321
 20
76.8866404347011638
 10
10.3210136780963122
 20
76.8866404347011638
 10
10.3210136780963122
 20
76.2934232715008562
 10
11.2556211354693687
 20
76.2934232715008562
 10
11.2556211354693687
 20
76.0000000000000142
  0
LWPOLYLINE
  5
149
100
AcDbEntity
  8
VectorEngraving
 62
256
370
-1
 48
1.0
  6
BYLAYER
100
AcDbPolyline
 90
10
 70
129
 10
3.6401068015739213
 20
51.0063706201986165
 10
3.6401068015739213
 20
52.9936293798013907
 10
4.877506089563429
 20
52.9936293798013907
 10
4.877506089563429
 20
52.7032040472175396
 10
3.962010492786213
 20
52.7032040472175396
 10
3.962010492786213
 20
52.2216601086752874
 10
4.7054993442008657
 20
52.2216601086752874
 10
4.7054993442008657
 20
51.9312347760914435
 10
3.962010492786213
 20
51.9312347760914435
 10
3.962010492786213
 20
51.0063706201986165
  0
LWPOLYLINE
  5
14A
100
AcDbEntity
  8
VectorEngraving
 62
256
370
-1
 48
1.0
  6
BYLAYER
100
AcDbPolyline
 90
13
 70
129
 10
5.1259602773093533
 20
51.0063706201986165
 10
5.1259602773093533
 20
52.9936293798013907
 10
5.441868090687656
 20
52.9936293798013907
 10
5.8278527262507058
 20
52.0811317219411691
 10
6.2138373618137566
 20
52.9966273187183816
 10
6.5297451751920583
 20
52.9966273187183816
 10
6.5297451751920583
 20
51.0063706201986165
 10
6.2168353007307511
 20
51.0063706201986165
 10
6.2168353007307511
 20
52.3940415964024737
 10
5.9043001686340677
 20
51.663293985385053
 10
5.7289207419898851
 20
51.663293985385053
 10
5.4354974704890422
 20
52.3906689151208553
 10
5.4354974704890422
 20
51.0063706201986165
  0
LWPOLYLINE
  5
14B
100
AcDbEntity
  8
VectorEngraving
 62
256
370
-1
 48
1.0
  6
BYLAYER
100
AcDbPolyline
 90
9
 70
129
 10
8.3948379239273034
 20
52.9936293798013907
 10
8.7871931796889662
 20
52.9936293798013907
 10
8.7871931796889662
 20
52.9647742177253136
 42
0.1523096199730651
 10
8.7633970395353238
 20
52.9216788457935223
 42
0.0437068677127234
 10
8.7587127599775201
 20
52.8467303728686559
 10
8.7587127599775201
 20
51.2997938916994585
 10
9.670835675473116
 20
51.2997938916994585
 10
9.670835675473116
 20
51.0063706201986165
 10
8.3948379239273034
 20
51.0063706201986165
  0
LWPOLYLINE
  5
14C
100
AcDbEntity
  8
VectorEngraving
 62
256
370
-1
 48
1.0
  6
BYLAYER
100
AcDbPolyline
 90
7
 70
129
 10
10.4967678471051187
 20
51.0
 10
9.8585816001499005
 20
52.9936293798013907
 10
10.2160858160015025
 20
52.9936293798013907
 10
10.6339235525576186
 20
51.5965898444819189
 10
11.0229061270376647
 20
52.9936293798013907
 10
11.3706670414090354
 20
52.9936293798013907
 10
10.7388514146524301
 20
51.0
  0
LWPOLYLINE
  5
14D
100
AcDbEntity
  8
VectorEngraving
 62
256
370
-1
 48
1.0
  6
BYLAYER
100
AcDbPolyline
 90
9
 70
129
 10
11.5838954468802733
 20
52.9936293798013907
 10
11.9762507026419378
 20
52.9936293798013907
 10
11.9762507026419378
 20
52.9647742177253136
 42
0.1523096199731266
 10
11.9524545624882919
 20
52.9216788457935223
 42
0.0437068677127187
 10
11.9477702829304882
 20
52.8467303728686559
 10
11.9477702829304882
 20
51.2997938916994585
 10
12.8598931984260858
 20
51.2997938916994585
 10
12.8598931984260858
 20
51.0063706201986165
 10
11.5838954468802733
 20
51.0063706201986165
  0
LWPOLYLINE
  5
14E
100
AcDbEntity
  8
VectorEngraving
 62
256
370
-1
 48
1.0
  6
BYLAYER
100
AcDbPolyline
 90
11
 70
129
 10
36.8141746299419168
 20
51.0063706201986165
 10
36.8141746299419168
 20
52.9936293798013907
 10
37.4902098557241885
 20
52.9936293798013907
 42
-0.1226157369347224
 10
37.8698238710886272
 20
52.9138092561364104
 42
-0.1499740507230519
 10
38.0914839797639146
 20
52.7017050777590441
 42
-0.1268020082315218
 10
38.1632471425894693
 20
52.4097807757166976
 42
-0.1268596194922635
 10
38.0931703204047238
 20
52.1244144650552812
 42
-0.150008112037324
 10
37.8761944912872366
 20
51.9171819374180288
 42
-0.122624817148315
 10
37.5063237774030327
 20
51.8390481543938577
 10
37.1806726625445023
 20
51.8390481543938577
 10
37.1806726625445023
 20
51.0063706201986165
  0
LWPOLYLINE
  5
14F
100
AcDbEntity
  8
VectorEngraving
 62
256
370
-1
 48
1.0
  6
BYLAYER
100
AcDbPolyline
 90
7
 70
129
 10
37.1806726625445023
 20
52.1388420460933162
 10
37.4808412966085811
 20
52.1388420460933162
 42
0.1964422541879637
 10
37.7135563050402851
 20
52.2152894884766781
 42
0.2132598586825775
 10
37.7933764287052654
 20
52.4097807757166976
 42
0.2129058125030568
 10
37.7135563050402851
 20
52.6044594341390308
 42
0.1973302280817248
 10
37.4838392355255792
 20
52.6810942477047064
 10
37.1806726625445023
 20
52.6810942477047064
  0
LWPOLYLINE
  5
150
100
AcDbEntity
  8
VectorEngraving
 62
256
370
-1
 48
1.0
  6
BYLAYER
100
AcDbPolyline
 90
13
 70
129
 10
38.548857035787897
 20
51.0063706201986165
 10
38.287286865280123
 20
52.9936293798013907
 10
38.5998219973768002
 20
52.9936293798013907
 10
38.7339797639123091
 20
51.7464867903316517
 10
38.9891793142214738
 20
52.8373618137530485
 10
39.1802979201798749
 20
52.8373618137530485
 10
39.4354974704890395
 20
51.7494847292486426
 10
39.5408000749484714
 20
52.9936293798013907
 10
39.8342233464493134
 20
52.9936293798013907
 10
39.5760258572231578
 20
51.0063706201986165
 10
39.3496814689900702
 20
51.0063706201986165
 10
39.0686246955218266
 20
52.2314034101555222
 10
38.781572044219601
 20
51.0063706201986165
  0
LWPOLYLINE
  5
151
100
AcDbEntity
  8
VectorEngraving
 62
256
370
-1
 48
1.0
  6
BYLAYER
100
AcDbPolyline
 90
13
 70
129
 10
39.9518924489413507
 20
51.0063706201986165
 10
39.9518924489413507
 20
52.9936293798013907
 10
40.2678002623196534
 20
52.9936293798013907
 10
40.6537848978827014
 20
52.0811317219411691
 10
41.0397695334457566
 20
52.9966273187183816
 10
41.3556773468240593
 20
52.9966273187183816
 10
41.3556773468240593
 20
51.0063706201986165
 10
41.0427674723627476
 20
51.0063706201986165
 10
41.0427674723627476
 20
52.3940415964024737
 10
40.7302323402660704
 20
51.663293985385053
 10
40.554852913621886
 20
51.663293985385053
 10
40.261429642121044
 20
52.3906689151208553
 10
40.261429642121044
 20
51.0063706201986165
  0
LWPOLYLINE
  5
152
100
AcDbEntity
  8
VectorEngraving
 62
256
370
-1
 48
1.0
  6
BYLAYER
100
AcDbPolyline
 90
9
 70
129
 10
43.2207700955593026
 20
52.9936293798013907
 10
43.6131253513209671
 20
52.9936293798013907
 10
43.6131253513209671
 20
52.9647742177253136
 42
0.1523096199728904
 10
43.5893292111673247
 20
52.9216788457935223
 42
0.04370686771278
 10
43.5846449316095175
 20
52.8467303728686559
 10
43.5846449316095175
 20
51.2997938916994585
 10
44.4967678471051116
 20
51.2997938916994585
 10
44.4967678471051116
 20
51.0063706201986165
 10
43.2207700955593026
 20
51.0063706201986165
  0
LWPOLYLINE
  5
153
100
AcDbEntity
  8
VectorEngraving
 62
256
370
-1
 48
1.0
  6
BYLAYER
100
AcDbPolyline
 90
7
 70
129
 10
45.3227000187371161
 20
51.0
 10
44.6845137717819014
 20
52.9936293798013907
 10
45.0420179876334998
 20
52.9936293798013907
 10
45.4598557241896231
 20
51.5965898444819189
 10
45.8488382986696621
 20
52.9936293798013907
 10
46.1965992130410328
 20
52.9936293798013907
 10
45.5647835862844275
 20
51.0
  0
LWPOLYLINE
  5
154
100
AcDbEntity
  8
VectorEngraving
 62
256
370
-1
 48
1.0
  6
BYLAYER
100
AcDbPolyline
 90
9
 70
129
 10
46.4098276185122742
 20
52.9936293798013907
 10
46.8021828742739388
 20
52.9936293798013907
 10
46.8021828742739388
 20
52.9647742177253136
 42
0.1523096199730219
 10
46.7783867341202892
 20
52.9216788457935223
 42
0.0437068677126695
 10
46.7737024545624891
 20
52.8467303728686559
 10
46.7737024545624891
 20
51.2997938916994585
 10
47.6858253700580832
 20
51.2997938916994585
 10
47.6858253700580832
 20
51.0063706201986165
 10
46.4098276185122742
 20
51.0063706201986165
  0
LWPOLYLINE
  5
155
100
AcDbEntity
  8
VectorEngraving
 62
256
370
-1
 48
1.0
  6
BYLAYER
100
AcDbPolyline
 90
7
 70
129
 10
18.054571856848419
 20
16.004871650740121
 10
18.054571856848419
 20
17.5997751545812307
 10
17.6944444444444429
 20
17.4719880082443382
 10
17.6176222596964607
 20
17.7114483792392789
 10
18.1471332209106251
 20
17.9921304103428952
 10
18.4150740116170155
 20
17.9921304103428952
 10
18.4150740116170155
 20
16.004871650740121
  0
LWPOLYLINE
  5
156
100
AcDbEntity
  8
VectorEngraving
 62
256
370
-1
 48
1.0
  6
BYLAYER
100
AcDbPolyline
 90
7
 70
129
 10
19.6749578414839803
 20
15.9985010305415081
 10
19.0367715945287621
 20
17.9921304103428952
 10
19.3942758103803641
 20
17.9921304103428952
 10
19.8121135469364802
 20
16.5950908750234269
 10
20.2010961214165263
 20
17.9921304103428952
 10
20.548857035787897
 20
17.9921304103428952
 10
19.9170414090312917
 20
15.9985010305415081
  0
LWPOLYLINE
  5
157
100
AcDbEntity
  8
VectorEngraving
 62
256
370
-1
 48
1.0
  6
BYLAYER
100
AcDbPolyline
 90
4
 70
129
 10
21.0588813940415989
 20
15.8677159452876193
 10
20.7272344013490724
 20
16.0112422709387339
 10
21.709434139029419
 20
18.1322840547123896
 10
22.034710511523329
 20
17.96664792954844
  0
LWPOLYLINE
  5
158
100
AcDbEntity
  8
VectorEngraving
 62
256
370
-1
 48
1.0
  6
BYLAYER
100
AcDbPolyline
 90
8
 70
129
 10
22.9786865280119912
 20
15.9666479295484365
 42
-0.2591303879110625
 10
22.4236930860033752
 20
16.2345887202548305
 42
-0.1527047570207419
 10
22.235572418961965
 20
16.9968146899006989
 42
-0.1520552001393903
 10
22.4236930860033752
 20
17.7494847292486462
 42
-0.2609893822229556
 10
22.9786865280119912
 20
18.0206108300543413
 42
-0.2598887638008156
 10
23.528995690462807
 20
17.7494847292486462
 42
-0.1532357876440777
 10
23.7188026981450264
 20
16.9968146899006989
 42
-0.1538924925182121
 10
23.528995690462807
 20
16.2345887202548305
 42
-0.2580459804199897
  0
LWPOLYLINE
  5
159
100
AcDbEntity
  8
VectorEngraving
 62
256
370
-1
 48
1.0
  6
BYLAYER
100
AcDbPolyline
 90
8
 70
129
 10
22.9786865280119912
 20
16.2600712010492821
 42
0.2924199676809674
 10
23.2593685591156074
 20
16.4435075885328885
 42
0.1214329083418449
 10
23.3612984822934244
 20
17.0001873711823173
 42
0.1202673064395428
 10
23.2593685591156074
 20
17.5373805508712799
 42
0.2966022124947305
 10
22.9786865280119912
 20
17.7271875585534993
 42
0.2995688277754135
 10
22.6931328461682611
 20
17.5373805508712799
 42
0.1186384765761843
 10
22.5927018924489431
 20
17.0001873711823173
 42
0.1197837217357374
 10
22.6931328461682611
 20
16.4435075885328885
 42
0.2952609534182902
  0
LWPOLYLINE
  5
15A
100
AcDbEntity
  8
VectorEngraving
 62
256
370
-1
 48
1.0
  6
BYLAYER
100
AcDbPolyline
 90
26
 70
129
 10
24.6594060333520702
 20
15.9696458684654345
 42
-0.1371812061519475
 10
24.2621791268502918
 20
16.0766348135656791
 42
-0.1521335773926399
 10
23.9751264755480591
 20
16.4099681468990113
 42
-0.1095731750364351
 10
23.8683249016301318
 20
16.9874461307850915
 42
-0.085496982406857
 10
23.9400880644556864
 20
17.4802323402660704
 42
-0.110549306835302
 10
24.1298950721379057
 20
17.7976391231028721
 42
-0.1092743849584469
 10
24.3897789020048705
 20
17.9681468990069391
 42
-0.0894144458589441
 10
24.6721472737492959
 20
18.0206108300543413
 42
-0.1442794725258764
 10
25.0564455686715384
 20
17.9186809068765278
 42
-0.1501502099017805
 10
25.3005902192242829
 20
17.6316282555742987
 10
25.0738710886265679
 20
17.4626194491287272
 10
25.0483886078321163
 20
17.446505527449883
 10
25.0326494285178924
 20
17.4719880082443382
 42
0.1140804318626288
 10
25.0277777777777786
 20
17.5184560614577514
 42
0.0461095061681658
 10
24.994425707326215
 20
17.5870339141840049
 42
0.1205634682736351
 10
24.8490256698519758
 20
17.7002061083005486
 42
0.0973965581775435
 10
24.6912591343451382
 20
17.7305602398351176
 42
0.1710454528741406
 10
24.4630410342889277
 20
17.6475548060708327
 42
0.1324894010124594
 10
24.2908469177440516
 20
17.4035975267003984
 42
0.0957756120555043
 10
24.2254543751171063
 20
17.0031853100993118
 42
0.142463791935459
 10
24.3515551808131931
 20
16.4626194491287308
 42
0.2705536969347154
 10
24.6687745924676776
 20
16.2664418212478985
 42
0.1360351973350162
 10
24.8730091811879319
 20
16.3174067828368052
 42
0.1254759824622847
 10
25.029276747236274
 20
16.4864155892823732
 10
25.2781056773468222
 20
16.3016676035225814
 42
-0.1424969433067589
 10
25.0150365373805528
 20
16.0445943413903009
 42
-0.1161683907371157
  0
LWPOLYLINE
  5
15B
100
AcDbEntity
  8
VectorEngraving
 62
256
370
-1
 48
1.0
  6
BYLAYER
100
AcDbPolyline
 90
8
 70
129
 10
25.9732527637249397
 20
16.004871650740121
 10
25.9732527637249397
 20
17.6889638373618183
 10
25.4373711823121624
 20
17.6889638373618183
 10
25.4373711823121624
 20
17.9921304103428952
 10
26.8823777403035393
 20
17.9921304103428952
 10
26.8823777403035393
 20
17.6889638373618183
 10
26.3176409968146885
 20
17.6889638373618183
 10
26.3176409968146885
 20
16.004871650740121
  0
LWPOLYLINE
  5
15C
100
AcDbEntity
  8
VectorEngraving
 62
256
370
-1
 48
1.0
  6
BYLAYER
100
AcDbPolyline
 90
10
 70
129
 10
29.384719880082443
 20
16.0097433014802348
 10
29.384719880082443
 20
17.997002061083009
 10
30.6221191680719507
 20
17.997002061083009
 10
30.6221191680719507
 20
17.706576728499158
 10
29.7066235712947346
 20
17.706576728499158
 10
29.7066235712947346
 20
17.2250327899569058
 10
30.4501124227093882
 20
17.2250327899569058
 10
30.4501124227093882
 20
16.9346074573730583
 10
29.7066235712947346
 20
16.9346074573730583
 10
29.7066235712947346
 20
16.0097433014802348
  0
LWPOLYLINE
  5
15D
100
AcDbEntity
  8
VectorEngraving
 62
256
370
-1
 48
1.0
  6
BYLAYER
100
AcDbPolyline
 90
13
 70
129
 10
30.870573355817875
 20
16.0097433014802348
 10
30.870573355817875
 20
17.997002061083009
 10
31.1864811691961776
 20
17.997002061083009
 10
31.5724658047592293
 20
17.0845044032227875
 10
31.9584504403222773
 20
18.0000000000000036
 10
32.2743582537005835
 20
18.0000000000000036
 10
32.2743582537005835
 20
16.0097433014802348
 10
31.9614483792392718
 20
16.0097433014802348
 10
31.9614483792392718
 20
17.3974142776840957
 10
31.6489132471425876
 20
16.6666666666666679
 10
31.4735338204984068
 20
16.6666666666666679
 10
31.1801105489975647
 20
17.3940415964024773
 10
31.1801105489975647
 20
16.0097433014802348
  0
LWPOLYLINE
  5
15E
100
AcDbEntity
  8
VectorEngraving
 62
256
370
-1
 48
1.0
  6
BYLAYER
100
AcDbPolyline
 90
26
 70
129
 10
34.847714071575794
 20
15.9745175192055484
 42
-0.1371812061519357
 10
34.4504871650740085
 20
16.081506464305793
 42
-0.1521335773926532
 10
34.163434513771783
 20
16.4148397976391252
 42
-0.1095731750364495
 10
34.0566329398538485
 20
16.9923177815252053
 42
-0.085496982406858
 10
34.1283961026794103
 20
17.4851039910061843
 42
-0.1105493068352846
 10
34.3182031103616225
 20
17.802510773842986
 42
-0.1092743849584631
 10
34.5780869402285944
 20
17.9730185497470529
 42
-0.0894144458589521
 10
34.8604553119730198
 20
18.0254824807944551
 42
-0.1442794725258771
 10
35.2447536068952587
 20
17.9235525576166417
 42
-0.1501502099017616
 10
35.4888982574480067
 20
17.6364999063144126
 10
35.2621791268502918
 20
17.4674910998688411
 10
35.2366966460558331
 20
17.4513771781899969
 10
35.2209574667416163
 20
17.476859658984452
 42
0.1140804318626173
 10
35.2160858160014953
 20
17.5233277121978652
 42
0.0461095061684202
 10
35.1827337455499318
 20
17.5919055649241187
 42
0.1205634682736054
 10
35.0373337080756997
 20
17.7050777590406625
 42
0.097396558177536
 10
34.879567172568855
 20
17.7354318905752315
 42
0.1710454528741301
 10
34.6513490725126445
 20
17.6524264568109466
 42
0.1324894010124727
 10
34.4791549559677719
 20
17.4084691774405123
 42
0.0957756120555221
 10
34.4137624133408266
 20
17.0080569608394256
 42
0.142463791935462
 10
34.5398632190369099
 20
16.4674910998688446
 42
0.270553696934725
 10
34.8570826306914014
 20
16.2713134719880124
 42
0.1360351973350117
 10
35.0613172194116558
 20
16.3222784335769191
 42
0.125475982462291
 10
35.2175847854599979
 20
16.491287240022487
 10
35.4664137155705461
 20
16.3065392542626952
 42
-0.1424969433067529
 10
35.2033445756042696
 20
16.0494659921304148
 42
-0.1161683907371166
  0
LWPOLYLINE
  5
15F
100
AcDbEntity
  8
VectorEngraving
 62
256
370
-1
 48
1.0
  6
BYLAYER
100
AcDbPolyline
 90
7
 70
129
 10
36.2413809256136403
 20
16.0033726812816219
 10
35.6031946786584257
 20
17.997002061083009
 10
35.9606988945100241
 20
17.997002061083009
 10
36.3785366310661402
 20
16.5999625257635408
 10
36.7675192055461864
 20
17.997002061083009
 10
37.115280119917557
 20
17.997002061083009
 10
36.4834644931609517
 20
16.0033726812816219
  0
LWPOLYLINE
  5
160
100
AcDbEntity
  8
VectorEngraving
 62
256
370
-1
 48
1.0
  6
BYLAYER
100
AcDbPolyline
 90
11
 70
129
 10
39.5587877084504385
 20
16.0097433014802313
 10
39.5587877084504385
 20
17.9970020610830055
 10
40.2348229342327173
 20
17.9970020610830055
 42
-0.1226157369347646
 10
40.6144369495971489
 20
17.9171819374180252
 42
-0.1499740507231053
 10
40.8360970582724363
 20
17.7050777590406589
 42
-0.1268020082315405
 10
40.907860221097998
 20
17.413153456998316
 42
-0.1268596194923169
 10
40.8377833989132455
 20
17.1277871463368925
 42
-0.1500081120373326
 10
40.6208075697957653
 20
16.9205546186996436
 42
-0.1226248171483375
 10
40.2509368559115615
 20
16.8424208356754725
 10
39.925285741053024
 20
16.8424208356754725
 10
39.925285741053024
 20
16.0097433014802313
  0
LWPOLYLINE
  5
161
100
AcDbEntity
  8
VectorEngraving
 62
256
370
-1
 48
1.0
  6
BYLAYER
100
AcDbPolyline
 90
7
 70
129
 10
39.925285741053024
 20
17.1422147273749275
 10
40.2254543751171099
 20
17.1422147273749275
 42
0.1964422541879164
 10
40.4581693835488068
 20
17.2186621697582893
 42
0.2132598586825299
 10
40.5379895072137941
 20
17.4131534569983124
 42
0.2129058125030549
 10
40.4581693835488068
 20
17.6078321154206492
 42
0.1973302280816653
 10
40.2284523140341008
 20
17.6844669289863212
 10
39.925285741053024
 20
17.6844669289863212
  0
LWPOLYLINE
  5
162
100
AcDbEntity
  8
VectorEngraving
 62
256
370
-1
 48
1.0
  6
BYLAYER
100
AcDbPolyline
 90
13
 70
129
 10
41.2934701142964187
 20
16.0097433014802313
 10
41.0318999437886447
 20
17.9970020610830055
 10
41.344435075885329
 20
17.9970020610830055
 10
41.4785928424208379
 20
16.7498594716132629
 10
41.7337923927299954
 20
17.8407344950346634
 10
41.9249109986884037
 20
17.8407344950346634
 10
42.1801105489975612
 20
16.752857410530261
 10
42.2854131534570001
 20
17.9970020610830055
 10
42.5788364249578422
 20
17.9970020610830055
 10
42.3206389357316866
 20
16.0097433014802313
 10
42.0942945474985919
 20
16.0097433014802313
 10
41.8132377740303554
 20
17.2347760914371371
 10
41.5261851227281227
 20
16.0097433014802313
  0
LWPOLYLINE
  5
163
100
AcDbEntity
  8
VectorEngraving
 62
256
370
-1
 48
1.0
  6
BYLAYER
100
AcDbPolyline
 90
13
 70
129
 10
42.6965055274498795
 20
16.0097433014802313
 10
42.6965055274498795
 20
17.9970020610830055
 10
43.0124133408281821
 20
17.9970020610830055
 10
43.3983979763912302
 20
17.084504403222784
 10
43.7843826119542854
 20
18.0
 10
44.100290425332588
 20
18.0
 10
44.100290425332588
 20
16.0097433014802313
 10
43.7873805508712763
 20
16.0097433014802313
 10
43.7873805508712763
 20
17.3974142776840921
 10
43.4748454187745921
 20
16.6666666666666643
 10
43.2994659921304077
 20
16.6666666666666643
 10
43.0060427206295657
 20
17.3940415964024737
 10
43.0060427206295657
 20
16.0097433014802313
  0
LWPOLYLINE
  5
164
100
AcDbEntity
  8
VectorEngraving
 62
256
370
-1
 48
1.0
  6
BYLAYER
100
AcDbPolyline
 90
26
 70
129
 10
46.6736462432077985
 20
15.9745175192055449
 42
-0.1371812061519511
 10
46.276419336706013
 20
16.0815064643057895
 42
-0.1521335773926424
 10
45.9893666854037875
 20
16.4148397976391216
 42
-0.1095731750364519
 10
45.882565111485853
 20
16.9923177815252053
 42
-0.0854969824068412
 10
45.9543282743114077
 20
17.4851039910061807
 42
-0.1105493068352745
 10
46.144135281993627
 20
17.8025107738429824
 42
-0.1092743849584424
 10
46.4040191118605989
 20
17.9730185497470494
 42
-0.0894144458589329
 10
46.6863874836050243
 20
18.0254824807944516
 42
-0.1442794725258959
 10
47.0706857785272632
 20
17.9235525576166381
 42
-0.1501502099017864
 10
47.3148304290800041
 20
17.636499906314409
 10
47.0881112984822963
 20
17.4674910998688375
 10
47.0626288176878376
 20
17.4513771781899933
 10
47.0468896383736208
 20
17.4768596589844485
 42
0.1140804318626097
 10
47.0420179876334998
 20
17.5233277121978617
 42
0.0461095061682978
 10
47.0086659171819363
 20
17.5919055649241152
 42
0.1205634682735991
 10
46.8632658797076971
 20
17.7050777590406589
 42
0.0973965581775623
 10
46.7054993442008595
 20
17.735431890575228
 42
0.1710454528741573
 10
46.477281244144649
 20
17.652426456810943
 42
0.1324894010124555
 10
46.3050871275997764
 20
17.4084691774405087
 42
0.0957756120555202
 10
46.2396945849728311
 20
17.0080569608394221
 42
0.1424637919354588
 10
46.3657953906689144
 20
16.4674910998688375
 42
0.2705536969347297
 10
46.6830148023233988
 20
16.2713134719880088
 42
0.1360351973350277
 10
46.8872493910436603
 20
16.3222784335769155
 42
0.1254759824622931
 10
47.0435169570920024
 20
16.4912872400224835
 10
47.2923458872025506
 20
16.3065392542626952
 42
-0.1424969433067237
 10
47.029276747236274
 20
16.0494659921304077
 42
-0.1161683907371213
  0
LWPOLYLINE
  5
165
100
AcDbEntity
  8
VectorEngraving
 62
256
370
-1
 48
1.0
  6
BYLAYER
100
AcDbPolyline
 90
7
 70
129
 10
48.0673130972456448
 20
16.0033726812816184
 10
47.4291268502904231
 20
17.9970020610830055
 10
47.7866310661420286
 20
17.9970020610830055
 10
48.2044688026981447
 20
16.5999625257635373
 10
48.5934513771781909
 20
17.9970020610830055
 10
48.9412122915495615
 20
17.9970020610830055
 10
48.3093966647929562
 20
16.0033726812816184
  0
LWPOLYLINE
  5
166
100
AcDbEntity
  8
VectorEngraving
 62
256
370
-1
 48
1.0
  6
BYLAYER
100
AcDbPolyline
 90
39
 70
129
 10
31.5822091062394605
 20
30.9728311785647357
 42
-0.0824589363782315
 10
31.2104646805321337
 20
31.031853100993068
 42
-0.1239231858746407
 10
30.9219130597714056
 20
31.2122915495596764
 10
31.09729248641559
 20
31.508712759977513
 10
31.1100337268128158
 20
31.5341952407719681
 10
31.1388888888888893
 20
31.5184560614577478
 42
0.0468697015839925
 10
31.1563144088439188
 20
31.4689900693273366
 42
0.0914502355627755
 10
31.2055930297920199
 20
31.409780775716694
 42
0.0681594634041907
 10
31.3826587970770099
 20
31.3110361626381852
 42
0.0950027158644825
 10
31.5949503466366863
 20
31.2726250702641941
 42
0.1544690761801746
 10
31.8389076260071207
 20
31.3380176128911359
 42
0.2606540762175447
 10
31.9329679595278257
 20
31.5311973018549736
 42
0.120851274343813
 10
31.9043001686340659
 20
31.6507401161701338
 42
0.1219613454318749
 10
31.7911279745175186
 20
31.7639123102866776
 42
0.0382540592904379
 10
31.5406127037661612
 20
31.898070076822183
 42
-0.0581074828848979
 10
31.2168353007307466
 20
32.0781337830241711
 42
-0.1200427752267412
 10
31.0463275248266832
 20
32.275997751545809
 42
-0.1126833292539273
 10
30.9953625632377729
 20
32.5167697208169386
 42
-0.1592312928671659
 10
31.0766816563612522
 20
32.7783398913247126
 42
-0.1317713073948386
 10
31.3015270751358443
 20
32.9600899381675063
 42
-0.1105525077854788
 10
31.6301761289113728
 20
33.0271688214352608
 42
-0.2184592046669954
 10
32.2327618512272807
 20
32.7719692711261033
 10
32.022156642308417
 20
32.5295109612141644
 10
32.0030447817125747
 20
32.5074011617013312
 10
31.9775623009181196
 20
32.5265130222971663
 42
0.0525272950834681
 10
31.966507401161703
 20
32.5757916432452674
 42
0.0946983163545757
 10
31.9235994004122183
 20
32.6378115045905943
 42
0.1239145974077492
 10
31.7943132846168268
 20
32.7146336893385765
 42
0.0674802657518877
 10
31.6331740678283673
 20
32.7337455499344188
 42
0.1710695699774325
 10
31.4257541690088082
 20
32.6730372868652807
 42
0.2395241755843935
 10
31.3491193554431327
 20
32.5328836424957828
 42
0.1315107380140784
 10
31.3779745175192062
 20
32.4178377365561161
 42
0.1136957301830974
 10
31.4945193929173684
 20
32.3095371931796862
 42
0.0383547771665091
 10
31.7639591530822578
 20
32.1723814877271863
 42
-0.0534254991442008
 10
32.0796795952782432
 20
31.9921304103428881
 42
-0.1275968227177872
 10
32.2408188120667063
 20
31.799138092561364
 42
-0.1042366901074552
 10
32.2870994940978093
 20
31.5536818437324342
 42
-0.1279801959423846
 10
32.2136499906314384
 20
31.2758103803634988
 42
-0.1467899336018383
 10
31.9839329211167325
 20
31.0573355817875196
 42
-0.1239665239213718
  0
LWPOLYLINE
  5
167
100
AcDbEntity
  8
VectorEngraving
 62
256
370
-1
 48
1.0
  6
BYLAYER
100
AcDbPolyline
 90
8
 70
129
 10
33.597573543189057
 20
31.0080569608394221
 10
33.4604178377365571
 20
31.4704890387858356
 10
32.9406501780026204
 20
31.4704890387858356
 10
32.8001217912685021
 20
31.0080569608394221
 10
32.442992317781524
 20
31.0080569608394221
 10
33.1160296046468048
 20
33.0080569608394256
 10
33.2884110923739911
 20
33.0080569608394256
 10
33.9614483792392718
 20
31.0080569608394221
  0
LWPOLYLINE
  5
168
100
AcDbEntity
  8
VectorEngraving
 62
256
370
-1
 48
1.0
  6
BYLAYER
100
AcDbPolyline
 90
3
 70
129
 10
33.2022203485104015
 20
32.3413902941727542
 10
33.0170976203859823
 20
31.7290612703766151
 10
33.3839703953531952
 20
31.7290612703766151
  0
LWPOLYLINE
  5
169
100
AcDbEntity
  8
VectorEngraving
 62
256
370
-1
 48
1.0
  6
BYLAYER
100
AcDbPolyline
 90
13
 70
129
 10
34.2927206295671709
 20
31.0080569608394221
 10
34.031150459059397
 20
32.9953157204421927
 10
34.3436855911560812
 20
32.9953157204421927
 10
34.4778433576915901
 20
31.7481731309724537
 10
34.7330429080007477
 20
32.8390481543938506
 10
34.9241615139591559
 20
32.8390481543938506
 10
35.1793610642683134
 20
31.7511710698894518
 10
35.2846636687277524
 20
32.9953157204421927
 10
35.5780869402285944
 20
32.9953157204421927
 10
35.3198894510024388
 20
31.0080569608394221
 10
35.0935450627693442
 20
31.0080569608394221
 10
34.8124882893011076
 20
32.2330897507963243
 10
34.5254356379988749
 20
31.0080569608394221
  0
LWPOLYLINE
  5
16A
100
AcDbEntity
  8
VectorEngraving
 62
256
370
-1
 48
1.0
  6
BYLAYER
100
AcDbPolyline
 90
39
 70
129
 10
42.6076915870339121
 20
31.1881662630705563
 42
-0.0824589363782286
 10
42.2359471613265853
 20
31.2471881854988887
 42
-0.1239231858746503
 10
41.9473955405658643
 20
31.4276266340654971
 10
42.1227749672100416
 20
31.7240478444833371
 10
42.1355162076072673
 20
31.7495303252777887
 10
42.1643713696833444
 20
31.7337911459635684
 42
0.0468697015838833
 10
42.1817968896383775
 20
31.6843251538331572
 42
0.0914502355628784
 10
42.2310755105864715
 20
31.6251158602225146
 42
0.0681594634041996
 10
42.408141277871465
 20
31.5263712471440058
 42
0.0950027158645148
 10
42.620432827431145
 20
31.4879601547700148
 42
0.15446907618016
 10
42.8643901068015722
 20
31.5533526973969565
 42
0.2606540762175314
 10
42.9584504403222809
 20
31.7465323863607942
 42
0.1208512743437923
 10
42.9297826494285175
 20
31.8660752006759544
 42
0.1219613454318827
 10
42.8166104553119737
 20
31.9792473947924982
 42
0.0382540592904034
 10
42.5660951845606164
 20
32.1134051613280036
 42
-0.0581074828848654
 10
42.2423177815252018
 20
32.2934688675299881
 42
-0.1200427752267835
 10
42.0718100056211384
 20
32.4913328360516331
 42
-0.112683329253962
 10
42.0208450440322281
 20
32.7321048053227557
 42
-0.1592312928671417
 10
42.1021641371557038
 20
32.9936749758305368
 42
-0.1317713073948254
 10
42.3270095559302959
 20
33.1754250226733305
 42
-0.1105525077854748
 10
42.6556586097058243
 20
33.242503905941085
 42
-0.218459204667
 10
43.2582443320217322
 20
32.9873043556319203
 10
43.0476391231028686
 20
32.7448460457199886
 10
43.0285272625070263
 20
32.7227362462071483
 10
43.0030447817125747
 20
32.7418481068029905
 42
0.0525272950836783
 10
42.9919898819561581
 20
32.7911267277510916
 42
0.094698316354539
 10
42.9490818812066735
 20
32.8531465890964114
 42
0.1239145974077748
 10
42.8197957654112784
 20
32.9299687738444007
 42
0.0674802657518856
 10
42.6586565486228224
 20
32.9490806344402429
 42
0.1710695699774975
 10
42.4512366498032634
 20
32.8883723713710978
 42
0.2395241755844819
 10
42.3746018362375878
 20
32.748218727001607
 42
0.1315107380140784
 10
42.4034569983136578
 20
32.6331728210619403
 42
0.1136957301831508
 10
42.5200018737118199
 20
32.5248722776855104
 42
0.0383547771664915
 10
42.789441633876713
 20
32.3877165722330105
 42
-0.0534254991441524
 10
43.1051620760727019
 20
32.2074654948487122
 42
-0.1275968227178008
 10
43.2663012928611579
 20
32.0144731770671811
 42
-0.1042366901074705
 10
43.3125819748922609
 20
31.7690169282382548
 42
-0.127980195942348
 10
43.2391324714258971
 20
31.4911454648693194
 42
-0.1467899336018312
 10
43.0094154019111841
 20
31.2726706662933402
 42
-0.1239665239214033
  0
LWPOLYLINE
  5
16B
100
AcDbEntity
  8
VectorEngraving
 62
256
370
-1
 48
1.0
  6
BYLAYER
100
AcDbPolyline
 90
17
 70
129
 10
44.6357972643807415
 20
30.7575872861172108
 42
-0.1550153839587997
 10
44.2069046280682016
 20
30.8501486501794204
 42
-0.2319974721400287
 10
44.071435263256511
 20
31.2072781236663985
 42
-0.2151892992019168
 10
43.6534101555180811
 20
31.5231859370447012
 42
-0.1371993947971278
 10
43.4939572793704343
 20
32.2153350845058242
 42
-0.1042972442425831
 10
43.5960745737305615
 20
32.8119249289877359
 42
-0.153987499523519
 10
43.8672006745362566
 20
33.1403866115809578
 42
-0.1393245135541383
 10
44.2340734495034695
 20
33.242503905941085
 42
-0.1478214670751941
 10
44.612001124227092
 20
33.1340159913823413
 42
-0.1521378941202532
 10
44.8750702641933685
 20
32.7989963174081964
 42
-0.100923575320576
 10
44.9678189994378883
 20
32.2187077657874354
 42
-0.1373005561576532
 10
44.8162357129473463
 20
31.5087583560066626
 42
-0.2038934570961504
 10
44.4094528761476468
 20
31.2072781236663985
 42
0.1543445979815414
 10
44.4540472175379406
 20
31.087922680533552
 42
0.2355970728071881
 10
44.5848323027918312
 20
31.0446399374194399
 10
44.8464024732996052
 20
31.0573811778166693
 10
44.8400318531009958
 20
30.7575872861172108
  0
LWPOLYLINE
  5
16C
100
AcDbEntity
  8
VectorEngraving
 62
256
370
-1
 48
1.0
  6
BYLAYER
100
AcDbPolyline
 90
10
 70
129
 10
44.2404440697020789
 20
31.4849622158530131
 42
0.1806339103518589
 10
44.4253794266441844
 20
31.5567253786785749
 42
0.1344799946027964
 10
44.5657204421959889
 20
31.7847561075524752
 42
0.0814731877151641
 10
44.6200580850665176
 20
32.1962232239099819
 42
0.0785038786718093
 10
44.5642214727374935
 20
32.6427287513598543
 42
0.1410093459016606
 10
44.4206951470863771
 20
32.8788164410731767
 42
0.1750290925689364
 10
44.2340734495034695
 20
32.9490806344402429
 42
0.296746161687708
 10
43.9502061083005415
 20
32.7592736267580236
 42
0.1220336188244001
 10
43.8480888139404144
 20
32.2471881854988851
 42
0.1216306078314502
 10
43.9548903878583488
 20
31.6794535030930398
 42
0.2926619041395027
  0
LWPOLYLINE
  5
16D
100
AcDbEntity
  8
VectorEngraving
 62
256
370
-1
 48
1.0
  6
BYLAYER
100
AcDbPolyline
 90
13
 70
129
 10
45.1683061645118968
 20
31.2233920453452427
 10
45.1683061645118968
 20
33.2106508049480169
 10
45.7967491099868838
 20
33.2106508049480169
 42
-0.1905232060051408
 10
46.3292580101180462
 20
33.0511979288003701
 42
-0.2148899109718776
 10
46.4982668165636142
 20
32.6268022008633238
 42
-0.1001913794401394
 10
46.4521735057148177
 20
32.4083274022873482
 42
-0.0965402896310372
 10
46.3213884204609343
 20
32.2121497744065124
 42
-0.1106023788064202
 10
46.1253981637624122
 20
32.0845499992519336
 10
46.5526044594341357
 20
31.2233920453452427
 10
46.1729904440697041
 20
31.2233920453452427
 10
45.7712666291924322
 20
32.0496989593418675
 10
45.5318062581974914
 20
32.0496989593418675
 10
45.5318062581974914
 20
31.2233920453452427
  0
LWPOLYLINE
  5
16E
100
AcDbEntity
  8
VectorEngraving
 62
256
370
-1
 48
1.0
  6
BYLAYER
100
AcDbPolyline
 90
7
 70
129
 10
45.5318062581974914
 20
32.349492851041326
 10
45.8222315907813353
 20
32.349492851041326
 42
0.1918312228859901
 10
46.0517612891137347
 20
32.4212560138668806
 42
0.2154606779080466
 10
46.1283961026794103
 20
32.6174336417477164
 42
0.1955098707729732
 10
46.0517612891137347
 20
32.8151102390870477
 42
0.2146607426726612
 10
45.8222315907813353
 20
32.8981156728513326
 10
45.5318062581974914
 20
32.8981156728513326
  0
ENDSEC
  0
SECTION
  2
OBJECTS
  0
DICTIONARY
  5
C
100
AcDbDictionary
280
0
281
1
  3
ACAD_GROUP
350
D
  3
ACAD_LAYOUT
350
1A
  3
ACAD_MLINESTYLE
350
17
  3
ACAD_PLOTSETTINGS
350
19
  3
ACAD_PLOTSTYLENAME
350
E
  3
AcDbVariableDictionary
350
16F
  3
QCAD_OBJECTS
350
170
  0
DICTIONARY
  5
D
100
AcDbDictionary
280
0
281
1
  0
ACDBDICTIONARYWDFLT
  5
E
100
AcDbDictionary
281
1
  3
Normal
350
F
100
AcDbDictionaryWithDefault
340
F
  0
ACDBPLACEHOLDER
  5
F
  0
DICTIONARY
  5
17
100
AcDbDictionary
280
0
281
1
  3
Standard
350
18
  0
MLINESTYLE
  5
18
100
AcDbMlineStyle
  2
STANDARD
 70
0
  3

 62
256
 51
90.0
 52
90.0
 71
2
 49
0.5
 62
256
  6
BYLAYER
 49
-0.5
 62
256
  6
BYLAYER
  0
DICTIONARY
  5
19
100
AcDbDictionary
280
0
281
1
  0
DICTIONARY
  5
1A
100
AcDbDictionary
281
1
  3
Layout1
350
1E
  3
Layout2
350
26
  3
Model
350
22
  0
LAYOUT
  5
1E
100
AcDbPlotSettings
  1

  2
none_device
  4

  6

 40
0.0
 41
0.0
 42
0.0
 43
0.0
 44
0.0
 45
0.0
 46
0.0
 47
0.0
 48
0.0
 49
0.0
140
0.0
141
0.0
142
1.0
143
1.0
 70
688
 72
0
 73
0
 74
5
  7

 75
16
147
1.0
148
0.0
149
0.0
100
AcDbLayout
  1
Layout1
 70
1
 71
1
 10
0.0
 20
0.0
 11
420.0
 21
297.0
 12
0.0
 22
0.0
 32
0.0
 14
100000000000000000000.0
 24
100000000000000000000.0
 34
100000000000000000000.0
 15
-100000000000000000000.0
 25
-100000000000000000000.0
 35
-100000000000000000000.0
146
0.0
 13
0.0
 23
0.0
 33
0.0
 16
1.0
 26
0.0
 36
0.0
 17
0.0
 27
1.0
 37
0.0
 76
0
330
1B
  0
LAYOUT
  5
22
100
AcDbPlotSettings
  1

  2
none_device
  4

  6

 40
0.0
 41
0.0
 42
0.0
 43
0.0
 44
0.0
 45
0.0
 46
0.0
 47
0.0
 48
0.0
 49
0.0
140
0.0
141
0.0
142
1.0
143
1.0
 70
1712
 72
0
 73
0
 74
0
  7

 75
0
147
1.0
148
0.0
149
0.0
100
AcDbLayout
  1
Model
 70
1
 71
0
 10
0.0
 20
0.0
 11
12.0
 21
9.0
 12
0.0
 22
0.0
 32
0.0
 14
0.0
 24
0.0
 34
0.0
 15
0.0
 25
0.0
 35
0.0
146
0.0
 13
0.0
 23
0.0
 33
0.0
 16
1.0
 26
0.0
 36
0.0
 17
0.0
 27
1.0
 37
0.0
 76
0
330
1F
  0
LAYOUT
  5
26
100
AcDbPlotSettings
  1

  2
none_device
  4

  6

 40
0.0
 41
0.0
 42
0.0
 43
0.0
 44
0.0
 45
0.0
 46
0.0
 47
0.0
 48
0.0
 49
0.0
140
0.0
141
0.0
142
1.0
143
1.0
 70
688
 72
0
 73
0
 74
5
  7

 75
16
147
1.0
148
0.0
149
0.0
100
AcDbLayout
  1
Layout2
 70
1
 71
2
 10
0.0
 20
0.0
 11
12.0
 21
9.0
 12
0.0
 22
0.0
 32
0.0
 14
0.0
 24
0.0
 34
0.0
 15
0.0
 25
0.0
 35
0.0
146
0.0
 13
0.0
 23
0.0
 33
0.0
 16
1.0
 26
0.0
 36
0.0
 17
0.0
 27
1.0
 37
0.0
 76
0
330
23
  0
DICTIONARY
  5
16F
100
AcDbDictionary
281
1
  3
DIMASSOC
350
172
  3
HIDETEXT
350
171
  0
DICTIONARYVAR
  5
171
100
DictionaryVariables
280
0
  1
2
  0
DICTIONARYVAR
  5
172
100
DictionaryVariables
280
0
  1
1
  0
DICTIONARY
  5
170
100
AcDbDictionary
281
1
  3
ColorSettings/BackgroundColor
350
173
  3
ColorSettings/ColorMode
350
174
  3
Grid/DisplayGrid00
350
175
  3
Grid/DisplayGrid01
350
176
  3
Grid/DisplayGrid02
350
177
  3
Grid/DisplayGrid03
350
178
  3
Grid/GridSpacingX00
350
179
  3
Grid/GridSpacingX01
350
17A
  3
Grid/GridSpacingX02
350
17B
  3
Grid/GridSpacingX03
350
17C
  3
Grid/GridSpacingY00
350
17D
  3
Grid/GridSpacingY01
350
17E
  3
Grid/GridSpacingY02
350
17F
  3
Grid/GridSpacingY03
350
180
  3
Grid/IsometricGrid00
350
181
  3
Grid/IsometricGrid01
350
182
  3
Grid/IsometricGrid02
350
183
  3
Grid/IsometricGrid03
350
184
  3
Grid/IsometricProjection00
350
185
  3
Grid/IsometricProjection01
350
186
  3
Grid/IsometricProjection02
350
187
  3
Grid/IsometricProjection03
350
188
  3
Grid/MetaGridSpacingX00
350
189
  3
Grid/MetaGridSpacingX01
350
18A
  3
Grid/MetaGridSpacingX02
350
18B
  3
Grid/MetaGridSpacingX03
350
18C
  3
Grid/MetaGridSpacingY00
350
18D
  3
Grid/MetaGridSpacingY01
350
18E
  3
Grid/MetaGridSpacingY02
350
18F
  3
Grid/MetaGridSpacingY03
350
190
  3
MultiPageSettings/Columns
350
191
  3
MultiPageSettings/GlueMarginsBottom
350
192
  3
MultiPageSettings/GlueMarginsLeft
350
193
  3
MultiPageSettings/GlueMarginsRight
350
194
  3
MultiPageSettings/GlueMarginsTop
350
195
  3
MultiPageSettings/PrintCropMarks
350
196
  3
MultiPageSettings/Rows
350
197
  3
PageSettings/OffsetX
350
198
  3
PageSettings/OffsetY
350
199
  3
PageSettings/PageOrientation
350
19A
  3
PageSettings/PaperHeight
350
19B
  3
PageSettings/PaperWidth
350
19C
  3
PageSettings/Scale
350
19D
  3
PageSettings/ShowPaperBorders
350
19E
  3
PageTagSettings/EnablePageTags
350
19F
  3
PageTagSettings/TagAlignment
350
1A0
  3
PageTagSettings/TagFont
350
1A1
  3
PageTagSettings/TagPosition
350
1A2
  3
QCADVersion
350
1A3
  3
UnitSettings/PaperUnit
350
1A4
  3
ViewportCenter
350
1A5
  3
ViewportHeight
350
1A6
  3
ViewportWidth
350
1A7
  0
XRECORD
  5
173
330
170
100
AcDbXrecord
280
1
1000
White
  0
XRECORD
  5
174
330
170
100
AcDbXrecord
280
1
1000
FullColor
  0
XRECORD
  5
175
330
170
100
AcDbXrecord
280
1
290
1
  0
XRECORD
  5
176
330
170
100
AcDbXrecord
280
1
290
1
  0
XRECORD
  5
177
330
170
100
AcDbXrecord
280
1
290
1
  0
XRECORD
  5
178
330
170
100
AcDbXrecord
280
1
290
1
  0
XRECORD
  5
179
330
170
100
AcDbXrecord
280
1
1000
auto
  0
XRECORD
  5
17A
330
170
100
AcDbXrecord
280
1
1000
auto
  0
XRECORD
  5
17B
330
170
100
AcDbXrecord
280
1
1000
auto
  0
XRECORD
  5
17C
330
170
100
AcDbXrecord
280
1
1000
auto
  0
XRECORD
  5
17D
330
170
100
AcDbXrecord
280
1
1000
auto
  0
XRECORD
  5
17E
330
170
100
AcDbXrecord
280
1
1000
auto
  0
XRECORD
  5
17F
330
170
100
AcDbXrecord
280
1
1000
auto
  0
XRECORD
  5
180
330
170
100
AcDbXrecord
280
1
1000
auto
  0
XRECORD
  5
181
330
170
100
AcDbXrecord
280
1
290
0
  0
XRECORD
  5
182
330
170
100
AcDbXrecord
280
1
290
0
  0
XRECORD
  5
183
330
170
100
AcDbXrecord
280
1
290
0
  0
XRECORD
  5
184
330
170
100
AcDbXrecord
280
1
290
0
  0
XRECORD
  5
185
330
170
100
AcDbXrecord
280
1
 90
65537
  0
XRECORD
  5
186
330
170
100
AcDbXrecord
280
1
 90
65537
  0
XRECORD
  5
187
330
170
100
AcDbXrecord
280
1
 90
65537
  0
XRECORD
  5
188
330
170
100
AcDbXrecord
280
1
 90
65537
  0
XRECORD
  5
189
330
170
100
AcDbXrecord
280
1
1000
auto
  0
XRECORD
  5
18A
330
170
100
AcDbXrecord
280
1
1000
auto
  0
XRECORD
  5
18B
330
170
100
AcDbXrecord
280
1
1000
auto
  0
XRECORD
  5
18C
330
170
100
AcDbXrecord
280
1
1000
auto
  0
XRECORD
  5
18D
330
170
100
AcDbXrecord
280
1
1000
auto
  0
XRECORD
  5
18E
330
170
100
AcDbXrecord
280
1
1000
auto
  0
XRECORD
  5
18F
330
170
100
AcDbXrecord
280
1
1000
auto
  0
XRECORD
  5
190
330
170
100
AcDbXrecord
280
1
1000
auto
  0
XRECORD
  5
191
330
170
100
AcDbXrecord
280
1
 90
1
  0
XRECORD
  5
192
330
170
100
AcDbXrecord
280
1
 40
10.0
  0
XRECORD
  5
193
330
170
100
AcDbXrecord
280
1
 40
10.0
  0
XRECORD
  5
194
330
170
100
AcDbXrecord
280
1
 40
10.0
  0
XRECORD
  5
195
330
170
100
AcDbXrecord
280
1
 40
10.0
  0
XRECORD
  5
196
330
170
100
AcDbXrecord
280
1
290
0
  0
XRECORD
  5
197
330
170
100
AcDbXrecord
280
1
 90
1
  0
XRECORD
  5
198
330
170
100
AcDbXrecord
280
1
 40
0.0
  0
XRECORD
  5
199
330
170
100
AcDbXrecord
280
1
 40
0.0
  0
XRECORD
  5
19A
330
170
100
AcDbXrecord
280
1
1000
Portrait
  0
XRECORD
  5
19B
330
170
100
AcDbXrecord
280
1
 40
297.0
  0
XRECORD
  5
19C
330
170
100
AcDbXrecord
280
1
 40
210.0
  0
XRECORD
  5
19D
330
170
100
AcDbXrecord
280
1
1000
1:1
  0
XRECORD
  5
19E
330
170
100
AcDbXrecord
280
1
290
1
  0
XRECORD
  5
19F
330
170
100
AcDbXrecord
280
1
290
0
  0
XRECORD
  5
1A0
330
170
100
AcDbXrecord
280
1
1000
Inside
  0
XRECORD
  5
1A1
330
170
100
AcDbXrecord
280
1
1000
Arial,10,-1,5,50,0,0,0,0,0
  0
XRECORD
  5
1A2
330
170
100
AcDbXrecord
280
1
1000
TopLeft
  0
XRECORD
  5
1A3
330
170
100
AcDbXrecord
280
1
1000
3.27.6.7
  0
XRECORD
  5
1A4
330
170
100
AcDbXrecord
280
1
 90
4
  0
XRECORD
  5
1A6
330
170
100
AcDbXrecord
280
1
 40
305.3542016194753614
  0
XRECORD
  5
1A7
330
170
100
AcDbXrecord
280
1
 40
631.6435590796590986
  0
ENDSEC
  0
EOF
