999
dxflib 3.26.4.0
  0
SECTION
  2
HEADER
  9
$ACADVER
  1
AC1015
  9
$HANDSEED
  5
FFFF
  9
$DIMADEC
 70
0
  9
$DIMASZ
 40
2.5
  9
$DIMATFIT
 70
0
  9
$DIMAUNIT
 70
0
  9
$DIMAZIN
 70
2
  9
$DIMBLK
  1
0
  9
$DIMBLK1
  1
0
  9
$DIMBLK2
  1
0
  9
$DIMDEC
 70
4
  9
$DIMDLI
 40
5.0
  9
$DIMDSEP
 70
46
  9
$DIMEXE
 40
1.25
  9
$DIMEXO
 40
0.625
  9
$DIMGAP
 40
0.625
  9
$DIMLFAC
 40
1.0
  9
$DIMLUNIT
 70
2
  9
$DIMSCALE
 40
1.0
  9
$DIMTAD
 70
1
  9
$DIMTIH
 70
0
  9
$DIMTSZ
 40
0.0
  9
$DIMTXT
 40
2.5
  9
$DIMZIN
 70
8
  9
$DWGCODEPAGE
  3
ANSI_1252
  9
$INSUNITS
 70
4
  9
$LTSCALE
 40
1.0
  9
$MAXACTVP
 70
64
  9
$MEASUREMENT
 70
1
  9
$MIRRTEXT
 70
0
  9
$PDMODE
 70
0
  9
$PDSIZE
 40
0.0
  0
ENDSEC
  0
SECTION
  2
TABLES
  0
TABLE
  2
VPORT
  5
8
100
AcDbSymbolTable
 70
1
  0
VPORT
  5
30
100
AcDbSymbolTableRecord
100
AcDbViewportTableRecord
  2
*Active
 70
0
 10
0.0
 20
0.0
 11
1.0
 21
1.0
 12
286.3055555555554861
 22
148.5
 13
0.0
 23
0.0
 14
10.0
 24
10.0
 15
10.0
 25
10.0
 16
0.0
 26
0.0
 36
1.0
 17
0.0
 27
0.0
 37
0.0
 40
297.0
 41
1.92798353909465
 42
50.0
 43
0.0
 44
0.0
 50
0.0
 51
0.0
 71
0
 72
100
 73
1
 74
3
 75
1
 76
1
 77
0
 78
0
281
0
 65
1
110
0.0
120
0.0
130
0.0
111
1.0
121
0.0
131
0.0
112
0.0
122
1.0
132
0.0
 79
0
146
0.0
  0
ENDTAB
  0
TABLE
  2
LTYPE
  5
5
100
AcDbSymbolTable
 70
41
  0
LTYPE
  5
16
100
AcDbSymbolTableRecord
100
AcDbLinetypeTableRecord
  2
Continuous
 70
0
  3
Solid line
 72
65
 73
0
 40
0.0
  0
LTYPE
  5
31
100
AcDbSymbolTableRecord
100
AcDbLinetypeTableRecord
  2
DASHEDX2
 70
0
  3
Dashed (2x) ____  ____  ____  ____  ____  ___
 72
65
 73
2
 40
38.0999999999999943
 49
25.3999999999999986
 74
0
 49
-12.6999999999999993
 74
0
  0
LTYPE
  5
32
100
AcDbSymbolTableRecord
100
AcDbLinetypeTableRecord
  2
ACAD_ISO02W100
 70
0
  3
ISO dash __ __ __ __ __ __ __ __ __ __ __ __ __
 72
65
 73
2
 40
15.0
 49
12.0
 74
0
 49
-3.0
 74
0
  0
LTYPE
  5
33
100
AcDbSymbolTableRecord
100
AcDbLinetypeTableRecord
  2
DASHED2
 70
0
  3
Dashed (.5x) _ _ _ _ _ _ _ _ _ _ _ _ _ _ _ _ _ 
 72
65
 73
2
 40
9.5249999999999986
 49
6.3499999999999996
 74
0
 49
-3.1749999999999998
 74
0
  0
LTYPE
  5
34
100
AcDbSymbolTableRecord
100
AcDbLinetypeTableRecord
  2
BORDER2
 70
0
  3
Border (.5x) __.__.__.__.__.__.__.__.__.__.__.
 72
65
 73
6
 40
22.2250000000000014
 49
6.3499999999999996
 74
0
 49
-3.1749999999999998
 74
0
 49
6.3499999999999996
 74
0
 49
-3.125
 74
0
 49
0.1
 74
0
 49
-3.125
 74
0
  0
LTYPE
  5
35
100
AcDbSymbolTableRecord
100
AcDbLinetypeTableRecord
  2
ACAD_ISO06W100
 70
0
  3
ISO long-dash triple-dot ____ ... ____ ... ____
 72
65
 73
8
 40
36.0000000000000071
 49
24.0
 74
0
 49
-2.9500000000000002
 74
0
 49
0.1
 74
0
 49
-2.9000000000000004
 74
0
 49
0.1
 74
0
 49
-2.9000000000000004
 74
0
 49
0.1
 74
0
 49
-2.9500000000000002
 74
0
  0
LTYPE
  5
36
100
AcDbSymbolTableRecord
100
AcDbLinetypeTableRecord
  2
HIDDENX2
 70
0
  3
Hidden (2x) ____ ____ ____ ____ ____ ____ ____ 
 72
65
 73
2
 40
19.0499999999999972
 49
12.6999999999999993
 74
0
 49
-6.3499999999999996
 74
0
  0
LTYPE
  5
37
100
AcDbSymbolTableRecord
100
AcDbLinetypeTableRecord
  2
DASHDOT2
 70
0
  3
Dash dot (.5x) _._._._._._._._._._._._._._._.
 72
65
 73
4
 40
12.6999999999999993
 49
6.3499999999999996
 74
0
 49
-3.125
 74
0
 49
0.1
 74
0
 49
-3.125
 74
0
  0
LTYPE
  5
38
100
AcDbSymbolTableRecord
100
AcDbLinetypeTableRecord
  2
DIVIDEX2
 70
0
  3
Divide (2x) ________  .  .  ________  .  .  _
 72
65
 73
6
 40
63.5
 49
25.3999999999999986
 74
0
 49
-12.6499999999999986
 74
0
 49
0.1
 74
0
 49
-12.5999999999999979
 74
0
 49
0.1
 74
0
 49
-12.6499999999999986
 74
0
  0
LTYPE
  5
39
100
AcDbSymbolTableRecord
100
AcDbLinetypeTableRecord
  2
ACAD_ISO14W100
 70
0
  3
ISO dash triple-dot __ . . . __ . . . __ . . . _
 72
65
 73
8
 40
24.0000000000000036
 49
12.0
 74
0
 49
-2.9500000000000002
 74
0
 49
0.1
 74
0
 49
-2.9000000000000004
 74
0
 49
0.1
 74
0
 49
-2.9000000000000004
 74
0
 49
0.1
 74
0
 49
-2.9500000000000002
 74
0
  0
LTYPE
  5
3A
100
AcDbSymbolTableRecord
100
AcDbLinetypeTableRecord
  2
DOTX2
 70
0
  3
Dot (2x) .  .  .  .  .  .  .  .  .  .  .  .  .  .
 72
65
 73
2
 40
12.6999999999999993
 49
0.1
 74
0
 49
-12.5999999999999996
 74
0
  0
LTYPE
  5
3B
100
AcDbSymbolTableRecord
100
AcDbLinetypeTableRecord
  2
ACAD_ISO15W100
 70
0
  3
ISO double-dash triple-dot __ __ . . . __ __ . .
 72
65
 73
10
 40
39.0000000000000071
 49
12.0
 74
0
 49
-3.0
 74
0
 49
12.0
 74
0
 49
-2.9500000000000002
 74
0
 49
0.1
 74
0
 49
-2.9000000000000004
 74
0
 49
0.1
 74
0
 49
-2.9000000000000004
 74
0
 49
0.1
 74
0
 49
-2.9500000000000002
 74
0
  0
LTYPE
  5
3C
100
AcDbSymbolTableRecord
100
AcDbLinetypeTableRecord
  2
ACAD_ISO09W100
 70
0
  3
ISO long-dash double-short-dash ____ __ __ ____
 72
65
 73
6
 40
45.0
 49
24.0
 74
0
 49
-3.0
 74
0
 49
6.0
 74
0
 49
-3.0
 74
0
 49
6.0
 74
0
 49
-3.0
 74
0
  0
LTYPE
  5
3D
100
AcDbSymbolTableRecord
100
AcDbLinetypeTableRecord
  2
BORDER
 70
0
  3
Border __ __ . __ __ . __ __ . __ __ . __ __ .
 72
65
 73
6
 40
44.4499999999999957
 49
12.6999999999999993
 74
0
 49
-6.3499999999999996
 74
0
 49
12.6999999999999993
 74
0
 49
-6.2999999999999998
 74
0
 49
0.1
 74
0
 49
-6.2999999999999998
 74
0
  0
LTYPE
  5
3E
100
AcDbSymbolTableRecord
100
AcDbLinetypeTableRecord
  2
HIDDEN2
 70
0
  3
Hidden (.5x) _ _ _ _ _ _ _ _ _ _ _ _ _ _ _ _ _ 
 72
65
 73
2
 40
4.7624999999999993
 49
3.1749999999999998
 74
0
 49
-1.5874999999999999
 74
0
  0
LTYPE
  5
3F
100
AcDbSymbolTableRecord
100
AcDbLinetypeTableRecord
  2
ACAD_ISO13W100
 70
0
  3
ISO double-dash double-dot __ __ . . __ __ . . _
 72
65
 73
8
 40
36.0000000000000071
 49
12.0
 74
0
 49
-3.0
 74
0
 49
12.0
 74
0
 49
-2.9500000000000002
 74
0
 49
0.1
 74
0
 49
-2.9000000000000004
 74
0
 49
0.1
 74
0
 49
-2.9500000000000002
 74
0
  0
LTYPE
  5
40
100
AcDbSymbolTableRecord
100
AcDbLinetypeTableRecord
  2
DOT
 70
0
  3
Dot . . . . . . . . . . . . . . . . . . . . . . . .
 72
65
 73
2
 40
6.3499999999999996
 49
0.1
 74
0
 49
-6.25
 74
0
  0
LTYPE
  5
41
100
AcDbSymbolTableRecord
100
AcDbLinetypeTableRecord
  2
ACAD_ISO07W100
 70
0
  3
ISO dot . . . . . . . . . . . . . . . . . . . . 
 72
65
 73
2
 40
3.0
 49
0.1
 74
0
 49
-2.8999999999999999
 74
0
  0
LTYPE
  5
42
100
AcDbSymbolTableRecord
100
AcDbLinetypeTableRecord
  2
ACAD_ISO11W100
 70
0
  3
ISO double-dash dot __ __ . __ __ . __ __ . __ _
 72
65
 73
6
 40
33.0
 49
12.0
 74
0
 49
-3.0
 74
0
 49
12.0
 74
0
 49
-2.9500000000000002
 74
0
 49
0.1
 74
0
 49
-2.9500000000000002
 74
0
  0
LTYPE
  5
43
100
AcDbSymbolTableRecord
100
AcDbLinetypeTableRecord
  2
CENTERX2
 70
0
  3
Center (2x) ________  __  ________  __  _____
 72
65
 73
4
 40
101.6000000000000085
 49
63.5
 74
0
 49
-12.6999999999999993
 74
0
 49
12.6999999999999993
 74
0
 49
-12.6999999999999993
 74
0
  0
LTYPE
  5
44
100
AcDbSymbolTableRecord
100
AcDbLinetypeTableRecord
  2
DIVIDE2
 70
0
  3
Divide (.5x) __..__..__..__..__..__..__..__.._
 72
65
 73
6
 40
15.8749999999999982
 49
6.3499999999999996
 74
0
 49
-3.125
 74
0
 49
0.1
 74
0
 49
-3.0750000000000002
 74
0
 49
0.1
 74
0
 49
-3.125
 74
0
  0
LTYPE
  5
14
100
AcDbSymbolTableRecord
100
AcDbLinetypeTableRecord
  2
BYBLOCK
 70
0
  3

 72
65
 73
0
 40
0.0
  0
LTYPE
  5
15
100
AcDbSymbolTableRecord
100
AcDbLinetypeTableRecord
  2
BYLAYER
 70
0
  3

 72
65
 73
0
 40
0.0
  0
LTYPE
  5
45
100
AcDbSymbolTableRecord
100
AcDbLinetypeTableRecord
  2
DASHDOT
 70
0
  3
Dash dot __ . __ . __ . __ . __ . __ . __ . __
 72
65
 73
4
 40
25.4000000000000021
 49
12.6999999999999993
 74
0
 49
-6.2999999999999998
 74
0
 49
0.1
 74
0
 49
-6.2999999999999998
 74
0
  0
LTYPE
  5
46
100
AcDbSymbolTableRecord
100
AcDbLinetypeTableRecord
  2
CENTER2
 70
0
  3
Center (.5x) ___ _ ___ _ ___ _ ___ _ ___ _ ___
 72
65
 73
4
 40
28.5750000000000028
 49
19.0500000000000007
 74
0
 49
-3.1749999999999998
 74
0
 49
3.1749999999999998
 74
0
 49
-3.1749999999999998
 74
0
  0
LTYPE
  5
47
100
AcDbSymbolTableRecord
100
AcDbLinetypeTableRecord
  2
ACAD_ISO08W100
 70
0
  3
ISO long-dash short-dash ____ __ ____ __ ____ _
 72
65
 73
4
 40
36.0
 49
24.0
 74
0
 49
-3.0
 74
0
 49
6.0
 74
0
 49
-3.0
 74
0
  0
LTYPE
  5
48
100
AcDbSymbolTableRecord
100
AcDbLinetypeTableRecord
  2
DASHED
 70
0
  3
Dashed __ __ __ __ __ __ __ __ __ __ __ __ __ _
 72
65
 73
2
 40
19.0499999999999972
 49
12.6999999999999993
 74
0
 49
-6.3499999999999996
 74
0
  0
LTYPE
  5
49
100
AcDbSymbolTableRecord
100
AcDbLinetypeTableRecord
  2
ACAD_ISO05W100
 70
0
  3
ISO long-dash double-dot ____ .. ____ .. ____ . 
 72
65
 73
6
 40
33.0000000000000071
 49
24.0
 74
0
 49
-2.9500000000000002
 74
0
 49
0.1
 74
0
 49
-2.9000000000000004
 74
0
 49
0.1
 74
0
 49
-2.9500000000000002
 74
0
  0
LTYPE
  5
4A
100
AcDbSymbolTableRecord
100
AcDbLinetypeTableRecord
  2
DIVIDE
 70
0
  3
Divide ____ . . ____ . . ____ . . ____ . . ____
 72
65
 73
6
 40
31.7500000000000036
 49
12.6999999999999993
 74
0
 49
-6.2999999999999998
 74
0
 49
0.1
 74
0
 49
-6.25
 74
0
 49
0.1
 74
0
 49
-6.2999999999999998
 74
0
  0
LTYPE
  5
4B
100
AcDbSymbolTableRecord
100
AcDbLinetypeTableRecord
  2
ACAD_ISO12W100
 70
0
  3
ISO dash double-dot __ . . __ . . __ . . __ . . 
 72
65
 73
6
 40
21.0
 49
12.0
 74
0
 49
-2.9500000000000002
 74
0
 49
0.1
 74
0
 49
-2.9000000000000004
 74
0
 49
0.1
 74
0
 49
-2.9500000000000002
 74
0
  0
LTYPE
  5
4C
100
AcDbSymbolTableRecord
100
AcDbLinetypeTableRecord
  2
ACAD_ISO03W100
 70
0
  3
ISO dash space __    __    __    __    __    __
 72
65
 73
2
 40
30.0
 49
12.0
 74
0
 49
-18.0
 74
0
  0
LTYPE
  5
4D
100
AcDbSymbolTableRecord
100
AcDbLinetypeTableRecord
  2
PHANTOMX2
 70
0
  3
Phantom (2x) ____________    ____    ____   _
 72
65
 73
6
 40
127.0000000000000142
 49
63.5
 74
0
 49
-12.6999999999999993
 74
0
 49
12.6999999999999993
 74
0
 49
-12.6999999999999993
 74
0
 49
12.6999999999999993
 74
0
 49
-12.6999999999999993
 74
0
  0
LTYPE
  5
4E
100
AcDbSymbolTableRecord
100
AcDbLinetypeTableRecord
  2
BORDERX2
 70
0
  3
Border (2x) ____  ____  .  ____  ____  .  ___
 72
65
 73
6
 40
88.8999999999999773
 49
25.3999999999999986
 74
0
 49
-12.6999999999999993
 74
0
 49
25.3999999999999986
 74
0
 49
-12.6499999999999986
 74
0
 49
0.1
 74
0
 49
-12.6499999999999986
 74
0
  0
LTYPE
  5
4F
100
AcDbSymbolTableRecord
100
AcDbLinetypeTableRecord
  2
PHANTOM
 70
0
  3
Phantom ______  __  __  ______  __  __  ______ 
 72
65
 73
6
 40
63.5000000000000071
 49
31.75
 74
0
 49
-6.3499999999999996
 74
0
 49
6.3499999999999996
 74
0
 49
-6.3499999999999996
 74
0
 49
6.3499999999999996
 74
0
 49
-6.3499999999999996
 74
0
  0
LTYPE
  5
50
100
AcDbSymbolTableRecord
100
AcDbLinetypeTableRecord
  2
DASHDOTX2
 70
0
  3
Dash dot (2x) ____  .  ____  .  ____  .  ___
 72
65
 73
4
 40
50.7999999999999972
 49
25.3999999999999986
 74
0
 49
-12.6499999999999986
 74
0
 49
0.1
 74
0
 49
-12.6499999999999986
 74
0
  0
LTYPE
  5
51
100
AcDbSymbolTableRecord
100
AcDbLinetypeTableRecord
  2
HIDDEN
 70
0
  3
Hidden __ __ __ __ __ __ __ __ __ __ __ __ __ __
 72
65
 73
2
 40
9.5249999999999986
 49
6.3499999999999996
 74
0
 49
-3.1749999999999998
 74
0
  0
LTYPE
  5
52
100
AcDbSymbolTableRecord
100
AcDbLinetypeTableRecord
  2
DOT2
 70
0
  3
Dot (.5x) ........................................
 72
65
 73
2
 40
3.1749999999999998
 49
0.1
 74
0
 49
-3.0749999999999997
 74
0
  0
LTYPE
  5
53
100
AcDbSymbolTableRecord
100
AcDbLinetypeTableRecord
  2
PHANTOM2
 70
0
  3
Phantom (.5x) ___ _ _ ___ _ _ ___ _ _ ___ _ _
 72
65
 73
6
 40
31.7500000000000036
 49
15.875
 74
0
 49
-3.1749999999999998
 74
0
 49
3.1749999999999998
 74
0
 49
-3.1749999999999998
 74
0
 49
3.1749999999999998
 74
0
 49
-3.1749999999999998
 74
0
  0
LTYPE
  5
54
100
AcDbSymbolTableRecord
100
AcDbLinetypeTableRecord
  2
ACAD_ISO10W100
 70
0
  3
ISO dash dot __ . __ . __ . __ . __ . __ . __ . 
 72
65
 73
4
 40
18.0
 49
12.0
 74
0
 49
-2.9500000000000002
 74
0
 49
0.1
 74
0
 49
-2.9500000000000002
 74
0
  0
LTYPE
  5
55
100
AcDbSymbolTableRecord
100
AcDbLinetypeTableRecord
  2
CENTER
 70
0
  3
Center ____ _ ____ _ ____ _ ____ _ ____ _ ____
 72
65
 73
4
 40
50.8000000000000043
 49
31.75
 74
0
 49
-6.3499999999999996
 74
0
 49
6.3499999999999996
 74
0
 49
-6.3499999999999996
 74
0
  0
LTYPE
  5
56
100
AcDbSymbolTableRecord
100
AcDbLinetypeTableRecord
  2
ACAD_ISO04W100
 70
0
  3
ISO long-dash dot ____ . ____ . ____ . ____ . _
 72
65
 73
4
 40
30.0
 49
24.0
 74
0
 49
-2.9500000000000002
 74
0
 49
0.1
 74
0
 49
-2.9500000000000002
 74
0
  0
ENDTAB
  0
TABLE
  2
LAYER
  5
2
100
AcDbSymbolTable
 70
5
  0
LAYER
  5
10
100
AcDbSymbolTableRecord
100
AcDbLayerTableRecord
  2
0
 70
0
 62
2
420
16776960
  6
Continuous
370
13
390
F
  0
LAYER
  5
57
100
AcDbSymbolTableRecord
100
AcDbLayerTableRecord
  2
Cuts
 70
0
 62
1
420
16711680
  6
Continuous
370
13
390
F
  0
LAYER
  5
58
100
AcDbSymbolTableRecord
100
AcDbLayerTableRecord
  2
UserDrawings
 70
0
 62
9
420
12632256
  6
Continuous
370
13
390
F
  0
LAYER
  5
59
100
AcDbSymbolTableRecord
100
AcDbLayerTableRecord
  2
AreaEngraving
 70
0
 62
3
420
65280
  6
Continuous
370
13
390
F
  0
LAYER
  5
5A
100
AcDbSymbolTableRecord
100
AcDbLayerTableRecord
  2
VectorEngraving
 70
0
 62
5
420
255
  6
Continuous
370
13
390
F
  0
ENDTAB
  0
TABLE
  2
STYLE
  5
3
100
AcDbSymbolTable
 70
1
  0
STYLE
  5
5B
100
AcDbSymbolTableRecord
100
AcDbTextStyleTableRecord
  2
Standard
 70
0
 40
0.0
 41
1.0
 50
0.0
 71
0
 42
2.5
  3

  4

1001
ACAD
1000
txt
1071
0
  0
ENDTAB
  0
TABLE
  2
VIEW
  5
6
100
AcDbSymbolTable
 70
0
  0
ENDTAB
  0
TABLE
  2
UCS
  5
7
100
AcDbSymbolTable
 70
0
  0
ENDTAB
  0
TABLE
  2
APPID
  5
9
100
AcDbSymbolTable
 70
1
  0
APPID
  5
12
100
AcDbSymbolTableRecord
100
AcDbRegAppTableRecord
  2
ACAD
 70
0
  0
APPID
  5
5C
100
AcDbSymbolTableRecord
100
AcDbRegAppTableRecord
  2
QCAD
 70
0
  0
ENDTAB
  0
TABLE
  2
DIMSTYLE
  5
A
100
AcDbSymbolTable
 70
1
100
AcDbDimStyleTable
 71
0
  0
DIMSTYLE
105
27
100
AcDbSymbolTableRecord
100
AcDbDimStyleTableRecord
  2
Standard
 41
2.5
 42
0.625
 43
3.75
 44
1.25
 70
0
 73
0
 74
0
 77
1
 78
8
140
2.5
141
2.5
143
0.03937007874016
147
0.625
171
3
172
1
271
2
272
2
274
3
278
44
283
0
284
8
340
5B
  0
ENDTAB
  0
TABLE
  2
BLOCK_RECORD
  5
1
100
AcDbSymbolTable
 70
1
  0
BLOCK_RECORD
  5
1F
100
AcDbSymbolTableRecord
100
AcDbBlockTableRecord
  2
*Model_Space
340
22
  0
BLOCK_RECORD
  5
1B
100
AcDbSymbolTableRecord
100
AcDbBlockTableRecord
  2
*Paper_Space
340
1E
  0
BLOCK_RECORD
  5
23
100
AcDbSymbolTableRecord
100
AcDbBlockTableRecord
  2
*Paper_Space0
340
26
  0
BLOCK_RECORD
  5
5D
100
AcDbSymbolTableRecord
100
AcDbBlockTableRecord
  2
block 3
340
0
  0
BLOCK_RECORD
  5
5E
100
AcDbSymbolTableRecord
100
AcDbBlockTableRecord
  2
block 9
340
0
  0
BLOCK_RECORD
  5
5F
100
AcDbSymbolTableRecord
100
AcDbBlockTableRecord
  2
block 7
340
0
  0
BLOCK_RECORD
  5
60
100
AcDbSymbolTableRecord
100
AcDbBlockTableRecord
  2
block 2
340
0
  0
BLOCK_RECORD
  5
61
100
AcDbSymbolTableRecord
100
AcDbBlockTableRecord
  2
block 1
340
0
  0
BLOCK_RECORD
  5
62
100
AcDbSymbolTableRecord
100
AcDbBlockTableRecord
  2
block 4
340
0
  0
BLOCK_RECORD
  5
63
100
AcDbSymbolTableRecord
100
AcDbBlockTableRecord
  2
block 6
340
0
  0
BLOCK_RECORD
  5
64
100
AcDbSymbolTableRecord
100
AcDbBlockTableRecord
  2
block 8
340
0
  0
BLOCK_RECORD
  5
65
100
AcDbSymbolTableRecord
100
AcDbBlockTableRecord
  2
RW_Logo_Trans
340
0
  0
BLOCK_RECORD
  5
66
100
AcDbSymbolTableRecord
100
AcDbBlockTableRecord
  2
block 5
340
0
  0
BLOCK_RECORD
  5
67
100
AcDbSymbolTableRecord
100
AcDbBlockTableRecord
  2
block 10
340
0
  0
ENDTAB
  0
ENDSEC
  0
SECTION
  2
BLOCKS
  0
BLOCK
  5
20
100
AcDbEntity
  8
0
100
AcDbBlockBegin
  2
*Model_Space
 70
0
 10
0.0
 20
0.0
 30
0.0
  3
*Model_Space
  1

  0
ENDBLK
  5
21
100
AcDbEntity
  8
0
100
AcDbBlockEnd
  0
BLOCK
  5
1C
100
AcDbEntity
 67
1
  8
0
100
AcDbBlockBegin
  2
*Paper_Space
 70
0
 10
0.0
 20
0.0
 30
0.0
  3
*Paper_Space
  1

  0
ENDBLK
  5
1D
100
AcDbEntity
 67
1
  8
0
100
AcDbBlockEnd
  0
BLOCK
  5
24
100
AcDbEntity
  8
0
100
AcDbBlockBegin
  2
*Paper_Space0
 70
0
 10
0.0
 20
0.0
 30
0.0
  3
*Paper_Space0
  1

  0
ENDBLK
  5
25
100
AcDbEntity
  8
0
100
AcDbBlockEnd
  0
BLOCK
  5
68
100
AcDbEntity
  8
0
100
AcDbBlockBegin
  2
block 3
 70
0
 10
0.0
 20
0.0
 30
0.0
  3
block 3
  1

  0
ENDBLK
  5
69
100
AcDbEntity
  8
0
100
AcDbBlockEnd
  0
BLOCK
  5
6A
100
AcDbEntity
  8
0
100
AcDbBlockBegin
  2
block 9
 70
0
 10
0.0
 20
0.0
 30
0.0
  3
block 9
  1

  0
LWPOLYLINE
  5
6B
100
AcDbEntity
  8
AreaEngraving
 62
3
420
65280
370
-1
 48
1.0
  6
BYLAYER
100
AcDbPolyline
 90
6
 70
128
 10
-0.6863584872871513
 20
51.1120564188048405
 10
-0.6863584872871513
 20
39.9142964188048381
 42
-0.0033072788336863
 10
-0.1577084872871524
 20
39.9374964188048551
 42
-0.0033077266184061
 10
0.3714615127128411
 20
39.929496418804888
 10
0.3714615127128411
 20
51.1120564188048405
 10
-0.6863584872871513
 20
51.1120564188048405
  0
LWPOLYLINE
  5
6C
100
AcDbEntity
  8
AreaEngraving
 62
3
420
65280
370
-1
 48
1.0
  6
BYLAYER
100
AcDbPolyline
 90
5
 70
128
 10
-11.8215964872871382
 20
45.5113664188048404
 10
-12.8432394872871498
 20
45.2374864188048349
 10
-11.0154454872871383
 20
38.4151664188048301
 42
-0.0066141399769513
 10
-9.9932854872871815
 20
38.6890464188048497
 10
-11.8215964872871382
 20
45.5113664188048404
  0
LWPOLYLINE
  5
6D
100
AcDbEntity
  8
AreaEngraving
 62
3
420
65280
370
-1
 48
1.0
  6
BYLAYER
100
AcDbPolyline
 90
5
 70
128
 10
11.5067015127128514
 20
45.5113664188048404
 10
9.6825215127128672
 20
38.7035164188048384
 42
-0.0066101756053528
 10
10.7041615127128011
 20
38.4301464188048669
 10
12.5283415127128706
 20
45.2374864188048349
 10
11.5067015127128514
 20
45.5113664188048404
  0
LWPOLYLINE
  5
6E
100
AcDbEntity
  8
AreaEngraving
 62
3
420
65280
370
-1
 48
1.0
  6
BYLAYER
100
AcDbPolyline
 90
5
 70
128
 10
-25.2869244872871377
 20
44.5202164188048357
 10
-26.2026304872871378
 20
43.9915664188048368
 10
-20.6034894872871348
 20
34.2939664188048425
 42
-0.006608723992369
 10
-19.6877834872871347
 20
34.8226164188048557
 10
-25.2869244872871377
 20
44.5202164188048357
  0
LWPOLYLINE
  5
6F
100
AcDbEntity
  8
AreaEngraving
 62
3
420
65280
370
-1
 48
1.0
  6
BYLAYER
100
AcDbPolyline
 90
5
 70
128
 10
24.9715115127128513
 20
44.5202164188048357
 10
19.3806315127128528
 20
34.8360564188048301
 42
-0.0066087456461917
 10
20.2963415127127575
 20
34.3074064188048453
 10
25.8877315127128611
 20
43.9915664188048368
 10
24.9715115127128513
 20
44.5202164188048357
  0
LWPOLYLINE
  5
70
100
AcDbEntity
  8
AreaEngraving
 62
3
420
65280
370
-1
 48
1.0
  6
BYLAYER
100
AcDbPolyline
 90
5
 70
128
 10
-33.0456244872871423
 20
33.5735964188048399
 10
-33.7938984872871231
 20
32.8258364188048404
 10
-28.799371487287118
 20
27.8313064188048429
 42
-0.0066118880942146
 10
-28.0510974872871657
 20
28.5790664188048282
 10
-33.0456244872871423
 20
33.5735964188048399
  0
LWPOLYLINE
  5
71
100
AcDbEntity
  8
AreaEngraving
 62
3
420
65280
370
-1
 48
1.0
  6
BYLAYER
100
AcDbPolyline
 90
5
 70
128
 10
32.7307215127128472
 20
33.5735964188048399
 10
27.7475715127128524
 20
28.5904364188048419
 42
-0.0066118262234246
 10
28.4953215127127635
 20
27.8421664188048652
 10
33.4784815127128468
 20
32.8258364188048404
 10
32.7307215127128472
 20
33.5735964188048399
  0
LWPOLYLINE
  5
72
100
AcDbEntity
  8
AreaEngraving
 62
3
420
65280
370
-1
 48
1.0
  6
BYLAYER
100
AcDbPolyline
 90
5
 70
128
 10
-44.2113514872871463
 20
25.98284641880484
 10
-44.7405184872871473
 20
25.0666264188048444
 10
-35.042920487287148
 20
19.4679964188048444
 42
-0.0066131255020083
 10
-34.5137524872871779
 20
20.38421641880484
 10
-44.2113514872871463
 20
25.98284641880484
  0
LWPOLYLINE
  5
73
100
AcDbEntity
  8
AreaEngraving
 62
3
420
65280
370
-1
 48
1.0
  6
BYLAYER
100
AcDbPolyline
 90
5
 70
128
 10
43.8964515127128436
 20
25.98284641880484
 10
34.2122915127128522
 20
20.3919764188048305
 42
-0.0066115608445713
 10
34.7409415127128796
 20
19.4757464188048885
 10
44.425101512712871
 20
25.066626418804816
 10
43.8964515127128436
 20
25.98284641880484
  0
LWPOLYLINE
  5
74
100
AcDbEntity
  8
AreaEngraving
 62
3
420
65280
370
-1
 48
1.0
  6
BYLAYER
100
AcDbPolyline
 90
5
 70
128
 10
-45.457797487287138
 20
12.622936418804855
 10
-45.731682487287145
 20
11.6012964188048642
 10
-38.909357487287167
 20
9.7729864188048765
 42
-0.006614144830355
 10
-38.6354744872872118
 20
10.795146418804805
 10
-45.457797487287138
 20
12.622936418804855
  0
LWPOLYLINE
  5
75
100
AcDbEntity
  8
AreaEngraving
 62
3
420
65280
370
-1
 48
1.0
  6
BYLAYER
100
AcDbPolyline
 90
5
 70
128
 10
45.1428915127128505
 20
12.622936418804855
 10
38.3355515127128399
 20
10.7987564188048424
 42
-0.006611016540262
 10
38.6094415127128912
 20
9.7771164188047948
 10
45.4162515127128188
 20
11.6012964188048642
 10
45.1428915127128505
 20
12.622936418804855
  0
LWPOLYLINE
  5
76
100
AcDbEntity
  8
AreaEngraving
 62
3
420
65280
370
-1
 48
1.0
  6
BYLAYER
100
AcDbPolyline
 90
6
 70
128
 10
-51.3318474872871491
 20
0.4660564188048539
 10
-51.3318474872871491
 20
-0.591243581195144
 10
-40.1340814872871476
 20
-0.591243581195144
 42
-0.003307292549862
 10
-40.1573314872871379
 20
-0.0625935811951734
 42
-0.003307292549864
 10
-40.1340814872871476
 20
0.4660564188046834
 10
-51.3318474872871491
 20
0.4660564188048539
  0
LWPOLYLINE
  5
77
100
AcDbEntity
  8
AreaEngraving
 62
3
420
65280
370
-1
 48
1.0
  6
BYLAYER
100
AcDbPolyline
 90
6
 70
128
 10
39.8346815127128195
 20
0.4660564188047971
 42
-0.003304476883546
 10
39.8426815127128577
 20
-0.0625935811947755
 42
-0.0033072788336863
 10
39.8194815127128834
 20
-0.5912435811953145
 10
51.0172515127128179
 20
-0.591243581195144
 10
51.0172515127128179
 20
0.4660564188048539
 10
39.8346815127128764
 20
0.4660564188048539
  0
LWPOLYLINE
  5
78
100
AcDbEntity
  8
AreaEngraving
 62
3
420
65280
370
-1
 48
1.0
  6
BYLAYER
100
AcDbPolyline
 90
6
 70
128
 10
-38.9093484872871329
 20
-9.8981735811951665
 10
-45.7316724872871418
 20
-11.7264835811951542
 10
-45.4577874872871632
 20
-12.748123581195145
 10
-38.6354654872871492
 20
-10.9203235811951203
 42
-0.0066140844520288
 10
-38.9093484872871329
 20
-9.8981735811951665
 10
-38.9093484872871329
 20
-9.8981735811951665
  0
LWPOLYLINE
  5
79
100
AcDbEntity
  8
AreaEngraving
 62
3
420
65280
370
-1
 48
1.0
  6
BYLAYER
100
AcDbPolyline
 90
5
 70
128
 10
38.5944515127128227
 20
-9.8986835811951295
 42
-0.0066110165402621
 10
38.3205615127128283
 20
-10.9203235811951771
 10
45.1428915127128505
 20
-12.748123581195145
 10
45.4162515127128188
 20
-11.7264835811951542
 10
38.5944515127128795
 20
-9.8986835811951295
  0
LWPOLYLINE
  5
7A
100
AcDbEntity
  8
AreaEngraving
 62
3
420
65280
370
-1
 48
1.0
  6
BYLAYER
100
AcDbPolyline
 90
5
 70
128
 10
-35.042920487287148
 20
-19.5931835811951345
 10
-44.7405184872871473
 20
-25.1918135811951487
 10
-44.2113514872871463
 20
-26.1080335811951585
 10
-34.5137524872871495
 20
-20.5094035811951443
 42
-0.0066131255020083
 10
-35.042920487287148
 20
-19.5931835811951345
  0
LWPOLYLINE
  5
7B
100
AcDbEntity
  8
AreaEngraving
 62
3
420
65280
370
-1
 48
1.0
  6
BYLAYER
100
AcDbPolyline
 90
5
 70
128
 10
34.7280215127128429
 20
-19.5931835811950776
 42
-0.0066131317545044
 10
34.198851512712821
 20
-20.5094035811951443
 10
43.8964515127128436
 20
-26.1080335811951585
 10
44.425101512712871
 20
-25.1918135811951487
 10
34.7280215127128429
 20
-19.5931835811951345
  0
LWPOLYLINE
  5
7C
100
AcDbEntity
  8
AreaEngraving
 62
3
420
65280
370
-1
 48
1.0
  6
BYLAYER
100
AcDbPolyline
 90
5
 70
128
 10
-28.7993714872871465
 20
-27.9564935811951472
 10
-33.793899487287149
 20
-32.9510235811951588
 10
-33.0456274872871347
 20
-33.6987835811951868
 10
-28.0510984872871347
 20
-28.7042535811951893
 42
-0.0066118836727005
 10
-28.799371487287118
 20
-27.9564935811951472
  0
LWPOLYLINE
  5
7D
100
AcDbEntity
  8
AreaEngraving
 62
3
420
65280
370
-1
 48
1.0
  6
BYLAYER
100
AcDbPolyline
 90
5
 70
128
 10
28.484471512712787
 20
-27.9564935811951472
 42
-0.0066118704081765
 10
27.7362015127128245
 20
-28.7042535811951325
 10
32.7307215127128472
 20
-33.6987835811951868
 10
33.4784815127128468
 20
-32.9510235811951588
 10
28.4844715127128438
 20
-27.9564935811951472
  0
LWPOLYLINE
  5
7E
100
AcDbEntity
  8
AreaEngraving
 62
3
420
65280
370
-1
 48
1.0
  6
BYLAYER
100
AcDbPolyline
 90
5
 70
128
 10
-20.6040134872871477
 20
-34.4191535811951894
 10
-26.2026374872871486
 20
-44.1167535811951552
 10
-25.2869314872871485
 20
-44.6454035811951826
 10
-19.68830648728715
 20
-34.9478035811951599
 42
-0.0066087294058223
 10
-20.6040134872871192
 20
-34.4191535811951894
  0
LWPOLYLINE
  5
7F
100
AcDbEntity
  8
AreaEngraving
 62
3
420
65280
370
-1
 48
1.0
  6
BYLAYER
100
AcDbPolyline
 90
5
 70
128
 10
20.2885915127128555
 20
-34.4191535811951894
 42
-0.0066087456461919
 10
19.3728815127128371
 20
-34.9478035811952168
 10
24.9715115127128513
 20
-44.6454035811951826
 10
25.8877315127128611
 20
-44.1167535811951552
 10
20.2885915127128555
 20
-34.4191535811951894
  0
ENDBLK
  5
80
100
AcDbEntity
  8
0
100
AcDbBlockEnd
  0
BLOCK
  5
81
100
AcDbEntity
  8
0
100
AcDbBlockBegin
  2
block 7
 70
0
 10
0.0
 20
0.0
 30
0.0
  3
block 7
  1

  0
LWPOLYLINE
  5
82
100
AcDbEntity
  8
VectorEngraving
 62
3
420
65280
370
-1
 48
1.0
  6
BYLAYER
100
AcDbPolyline
 90
6
 70
128
 10
-0.1447316216625225
 20
5.2278271675010188
 10
-0.1447316216625225
 20
3.4717371675010185
 42
-0.0094312964636997
 10
-0.012841621662524
 20
3.4777371675010471
 42
-0.0094282736998003
 10
0.1191083783374793
 20
3.4747371675010328
 10
0.1191083783374793
 20
5.2275271675010373
 10
-0.1447316216625225
 20
5.2278271675010188
  0
LWPOLYLINE
  5
83
100
AcDbEntity
  8
VectorEngraving
 62
3
420
65280
370
-1
 48
1.0
  6
BYLAYER
100
AcDbPolyline
 90
5
 70
128
 10
-2.5235516216625271
 20
4.5904471675010114
 10
-2.7520316216625318
 20
4.4585071675010255
 10
-1.8752716216625274
 20
2.9399371675010144
 42
-0.018850642653673
 10
-1.6458916216625212
 20
3.0702571675010262
 10
-2.5235516216625271
 20
4.5904471675010114
  0
LWPOLYLINE
  5
84
100
AcDbEntity
  8
VectorEngraving
 62
3
420
65280
370
-1
 48
1.0
  6
BYLAYER
100
AcDbPolyline
 90
5
 70
128
 10
2.4979683783374682
 20
4.5904471675010114
 10
1.6214783783374642
 20
3.0723371675010043
 42
-0.0188531870154901
 10
1.8500983783374707
 20
2.9406171675010029
 10
2.7264483783374729
 20
4.4585071675009971
 10
2.4979683783374682
 20
4.5904471675010114
  0
LWPOLYLINE
  5
85
100
AcDbEntity
  8
VectorEngraving
 62
3
420
65280
370
-1
 48
1.0
  6
BYLAYER
100
AcDbPolyline
 90
5
 70
128
 10
-4.493471621662529
 20
2.7170671675010141
 10
-4.6253716216625307
 20
2.4885871675010236
 10
-3.1052216216625297
 20
1.6109271675010319
 42
-0.0188520557002934
 10
-2.9748616216625337
 20
1.8403071675010239
 10
-4.493471621662529
 20
2.7170671675010141
  0
LWPOLYLINE
  5
86
100
AcDbEntity
  8
VectorEngraving
 62
3
420
65280
370
-1
 48
1.0
  6
BYLAYER
100
AcDbPolyline
 90
5
 70
128
 10
4.4678883783374701
 20
2.7170671675010141
 10
2.9499483783374743
 20
1.8407171675010119
 42
-0.0188549721058722
 10
3.0817183783375199
 20
1.6120971675010054
 10
4.5997783783374828
 20
2.4885871675009952
 10
4.4678883783374701
 20
2.7170671675010141
  0
LWPOLYLINE
  5
87
100
AcDbEntity
  8
VectorEngraving
 62
3
420
65280
370
-1
 48
1.0
  6
BYLAYER
100
AcDbPolyline
 90
6
 70
128
 10
-5.2628346216625275
 20
0.1097271675010205
 10
-5.2628346216625275
 20
-0.1541128324989671
 10
-3.506701621662522
 20
-0.1541128324989671
 42
-0.0094348651562602
 10
-3.5127016216625506
 20
-0.0221728324989812
 42
-0.00943201020193
 10
-3.5067016216625362
 20
0.1097271675010205
 10
-5.2628346216625275
 20
0.1097271675010205
  0
LWPOLYLINE
  5
88
100
AcDbEntity
  8
VectorEngraving
 62
3
420
65280
370
-1
 48
1.0
  6
BYLAYER
100
AcDbPolyline
 90
6
 70
128
 10
3.4844183783374589
 20
0.1097271675010205
 42
-0.009424702242363
 10
3.487418378337459
 20
-0.0221728324988959
 42
-0.0094348651562611
 10
3.4814183783374872
 20
-0.1541128324989671
 10
5.2375083783374734
 20
-0.1541128324989671
 10
5.2375083783374734
 20
0.1097271675010205
 10
3.4844183783374731
 20
0.1097271675010205
  0
LWPOLYLINE
  5
89
100
AcDbEntity
  8
VectorEngraving
 62
3
420
65280
370
-1
 48
1.0
  6
BYLAYER
100
AcDbPolyline
 90
5
 70
128
 10
3.0795883783374691
 20
-1.6552228324989784
 42
-0.0188551641205852
 10
2.9492283783374731
 20
-1.8846528324989862
 10
4.4678883783374701
 20
-2.7614128324989764
 10
4.5997783783374686
 20
-2.5329328324989859
 10
3.0795883783374691
 20
-1.6552228324989784
  0
LWPOLYLINE
  5
8A
100
AcDbEntity
  8
VectorEngraving
 62
3
420
65280
370
-1
 48
1.0
  6
BYLAYER
100
AcDbPolyline
 90
5
 70
128
 10
-3.1052216216625297
 20
-1.6552728324989658
 10
-4.6253716216625307
 20
-2.5329328324989575
 10
-4.493471621662529
 20
-2.761412832498948
 10
-2.9748616216625337
 20
-1.8846528324989578
 42
-0.0188520557002923
 10
-3.1052216216625439
 20
-1.6552728324989658
  0
LWPOLYLINE
  5
8B
100
AcDbEntity
  8
VectorEngraving
 62
3
420
65280
370
-1
 48
1.0
  6
BYLAYER
100
AcDbPolyline
 90
5
 70
128
 10
1.8496883783374685
 20
-2.984242832498964
 42
-0.0188520557002944
 10
1.6203083783374623
 20
-3.1146028324989601
 10
2.4979683783374682
 20
-4.6347928324989738
 10
2.7264483783374729
 20
-4.5028528324989878
 10
1.8496883783374685
 20
-2.984242832498964
  0
LWPOLYLINE
  5
8C
100
AcDbEntity
  8
VectorEngraving
 62
3
420
65280
370
-1
 48
1.0
  6
BYLAYER
100
AcDbPolyline
 90
6
 70
128
 10
-1.8752716216625274
 20
-2.9842828324989767
 10
-2.7520316216625318
 20
-4.5028528324989878
 10
-2.5235516216625271
 20
-4.6347928324989738
 10
-1.6458916216625212
 20
-3.1146028324989601
 42
-0.0188506426536739
 10
-1.8752716216625274
 20
-2.9842828324989483
 10
-1.8752716216625274
 20
-2.9842828324989767
  0
ENDBLK
  5
8D
100
AcDbEntity
  8
0
100
AcDbBlockEnd
  0
BLOCK
  5
8E
100
AcDbEntity
  8
0
100
AcDbBlockBegin
  2
block 2
 70
0
 10
0.0
 20
0.0
 30
0.0
  3
block 2
  1

  0
INSERT
  5
8F
100
AcDbEntity
  8
VectorEngraving
 62
256
370
-1
 48
1.0
  6
BYLAYER
100
AcDbBlockReference
  2
block 1
 10
-269.800785000000019
 20
132.2832050000000095
 30
0.0
  0
ENDBLK
  5
90
100
AcDbEntity
  8
0
100
AcDbBlockEnd
  0
BLOCK
  5
91
100
AcDbEntity
  8
0
100
AcDbBlockBegin
  2
block 1
 70
0
 10
0.0
 20
0.0
 30
0.0
  3
block 1
  1

  0
ENDBLK
  5
92
100
AcDbEntity
  8
0
100
AcDbBlockEnd
  0
BLOCK
  5
93
100
AcDbEntity
  8
0
100
AcDbBlockBegin
  2
block 4
 70
0
 10
0.0
 20
0.0
 30
0.0
  3
block 4
  1

  0
LWPOLYLINE
  5
94
100
AcDbEntity
  8
VectorEngraving
 62
256
370
-1
 48
1.0
  6
BYLAYER
100
AcDbPolyline
 90
6
 70
128
 10
-0.1447316216625225
 20
5.2278271675010188
 10
-0.1447316216625225
 20
3.4717371675010185
 42
-0.0094312964636997
 10
-0.012841621662524
 20
3.4777371675010471
 42
-0.0094282736998003
 10
0.1191083783374793
 20
3.4747371675010328
 10
0.1191083783374793
 20
5.2275271675010373
 10
-0.1447316216625225
 20
5.2278271675010188
  0
LWPOLYLINE
  5
95
100
AcDbEntity
  8
VectorEngraving
 62
256
370
-1
 48
1.0
  6
BYLAYER
100
AcDbPolyline
 90
5
 70
128
 10
-2.5235516216625271
 20
4.5904471675010114
 10
-2.7520316216625318
 20
4.4585071675010255
 10
-1.8752716216625274
 20
2.9399371675010144
 42
-0.018850642653673
 10
-1.6458916216625212
 20
3.0702571675010262
 10
-2.5235516216625271
 20
4.5904471675010114
  0
LWPOLYLINE
  5
96
100
AcDbEntity
  8
VectorEngraving
 62
256
370
-1
 48
1.0
  6
BYLAYER
100
AcDbPolyline
 90
5
 70
128
 10
2.4979683783374682
 20
4.5904471675010114
 10
1.6214783783374642
 20
3.0723371675010043
 42
-0.0188531870154901
 10
1.8500983783374707
 20
2.9406171675010029
 10
2.7264483783374729
 20
4.4585071675009971
 10
2.4979683783374682
 20
4.5904471675010114
  0
LWPOLYLINE
  5
97
100
AcDbEntity
  8
VectorEngraving
 62
256
370
-1
 48
1.0
  6
BYLAYER
100
AcDbPolyline
 90
5
 70
128
 10
-4.493471621662529
 20
2.7170671675010141
 10
-4.6253716216625307
 20
2.4885871675010236
 10
-3.1052216216625297
 20
1.6109271675010319
 42
-0.0188520557002934
 10
-2.9748616216625337
 20
1.8403071675010239
 10
-4.493471621662529
 20
2.7170671675010141
  0
LWPOLYLINE
  5
98
100
AcDbEntity
  8
VectorEngraving
 62
256
370
-1
 48
1.0
  6
BYLAYER
100
AcDbPolyline
 90
5
 70
128
 10
4.4678883783374701
 20
2.7170671675010141
 10
2.9499483783374743
 20
1.8407171675010119
 42
-0.0188549721058722
 10
3.0817183783375199
 20
1.6120971675010054
 10
4.5997783783374828
 20
2.4885871675009952
 10
4.4678883783374701
 20
2.7170671675010141
  0
LWPOLYLINE
  5
99
100
AcDbEntity
  8
VectorEngraving
 62
256
370
-1
 48
1.0
  6
BYLAYER
100
AcDbPolyline
 90
6
 70
128
 10
-5.2628346216625275
 20
0.1097271675010205
 10
-5.2628346216625275
 20
-0.1541128324989671
 10
-3.506701621662522
 20
-0.1541128324989671
 42
-0.0094348651562602
 10
-3.5127016216625506
 20
-0.0221728324989812
 42
-0.00943201020193
 10
-3.5067016216625362
 20
0.1097271675010205
 10
-5.2628346216625275
 20
0.1097271675010205
  0
LWPOLYLINE
  5
9A
100
AcDbEntity
  8
VectorEngraving
 62
256
370
-1
 48
1.0
  6
BYLAYER
100
AcDbPolyline
 90
6
 70
128
 10
3.4844183783374589
 20
0.1097271675010205
 42
-0.009424702242363
 10
3.487418378337459
 20
-0.0221728324988959
 42
-0.0094348651562611
 10
3.4814183783374872
 20
-0.1541128324989671
 10
5.2375083783374734
 20
-0.1541128324989671
 10
5.2375083783374734
 20
0.1097271675010205
 10
3.4844183783374731
 20
0.1097271675010205
  0
LWPOLYLINE
  5
9B
100
AcDbEntity
  8
VectorEngraving
 62
256
370
-1
 48
1.0
  6
BYLAYER
100
AcDbPolyline
 90
5
 70
128
 10
3.0795883783374691
 20
-1.6552228324989784
 42
-0.0188551641205852
 10
2.9492283783374731
 20
-1.8846528324989862
 10
4.4678883783374701
 20
-2.7614128324989764
 10
4.5997783783374686
 20
-2.5329328324989859
 10
3.0795883783374691
 20
-1.6552228324989784
  0
LWPOLYLINE
  5
9C
100
AcDbEntity
  8
VectorEngraving
 62
256
370
-1
 48
1.0
  6
BYLAYER
100
AcDbPolyline
 90
5
 70
128
 10
-3.1052216216625297
 20
-1.6552728324989658
 10
-4.6253716216625307
 20
-2.5329328324989575
 10
-4.493471621662529
 20
-2.761412832498948
 10
-2.9748616216625337
 20
-1.8846528324989578
 42
-0.0188520557002923
 10
-3.1052216216625439
 20
-1.6552728324989658
  0
LWPOLYLINE
  5
9D
100
AcDbEntity
  8
VectorEngraving
 62
256
370
-1
 48
1.0
  6
BYLAYER
100
AcDbPolyline
 90
5
 70
128
 10
1.8496883783374685
 20
-2.984242832498964
 42
-0.0188520557002944
 10
1.6203083783374623
 20
-3.1146028324989601
 10
2.4979683783374682
 20
-4.6347928324989738
 10
2.7264483783374729
 20
-4.5028528324989878
 10
1.8496883783374685
 20
-2.984242832498964
  0
LWPOLYLINE
  5
9E
100
AcDbEntity
  8
VectorEngraving
 62
256
370
-1
 48
1.0
  6
BYLAYER
100
AcDbPolyline
 90
6
 70
128
 10
-1.8752716216625274
 20
-2.9842828324989767
 10
-2.7520316216625318
 20
-4.5028528324989878
 10
-2.5235516216625271
 20
-4.6347928324989738
 10
-1.6458916216625212
 20
-3.1146028324989601
 42
-0.0188506426536739
 10
-1.8752716216625274
 20
-2.9842828324989483
 10
-1.8752716216625274
 20
-2.9842828324989767
  0
ENDBLK
  5
9F
100
AcDbEntity
  8
0
100
AcDbBlockEnd
  0
BLOCK
  5
A0
100
AcDbEntity
  8
0
100
AcDbBlockBegin
  2
block 6
 70
0
 10
0.0
 20
0.0
 30
0.0
  3
block 6
  1

  0
LWPOLYLINE
  5
A1
100
AcDbEntity
  8
VectorEngraving
 62
256
370
-1
 48
1.0
  6
BYLAYER
100
AcDbPolyline
 90
20
 70
128
 10
-9.6223985434999992
 20
3.5055049324999992
 10
-9.6223985434999992
 20
3.0861113744999997
 10
-10.1231553694999992
 20
3.0861113744999997
 10
-10.1231553694999992
 20
2.2472725039999997
 10
-9.6223985434999992
 20
2.2472725039999997
 10
-9.6223985434999992
 20
-0.2365849774999997
 10
-10.1231553694999992
 20
-0.2365849774999997
 10
-10.1231553694999992
 20
-1.0753719874999996
 10
-9.6223985434999992
 20
-1.0753719874999996
 10
-9.6223985434999992
 20
-1.4939893074999997
 10
-9.6223985434999992
 20
-3.5055049325000001
 10
-7.2853780124999989
 20
-3.5055049325000001
 10
-7.2853780124999989
 20
-1.4939893074999997
 10
-6.7416104674999993
 20
-1.4939893074999997
 10
-6.0094962924999997
 20
-3.5055049325000001
 10
-3.6724756024999996
 20
-3.5055049325000001
 10
-4.6877568524999997
 20
-0.7159657374999995
 42
0.1923579134144613
 10
-3.9979806674999985
 20
1.0057578655002395
 42
0.4142131276425501
 10
-6.4977275224330144
 20
3.5055049324999992
 10
-9.6223985434999992
 20
3.5055049324999992
  0
LWPOLYLINE
  5
A2
100
AcDbEntity
  8
VectorEngraving
 62
256
370
-1
 48
1.0
  6
BYLAYER
100
AcDbPolyline
 90
6
 70
128
 10
-7.2853780124999989
 20
1.8282930085000011
 10
-6.7073467624999994
 20
1.8282930085000011
 42
-0.4142108826965076
 10
-5.8848633474999996
 20
1.0057578654997137
 42
-0.4141924816972828
 10
-6.7073467624999994
 20
0.1832743975000009
 10
-7.2853780124999989
 20
0.1832743975
 10
-7.2853780124999989
 20
1.8282930085000011
  0
LWPOLYLINE
  5
A3
100
AcDbEntity
  8
VectorEngraving
 62
256
370
-1
 48
1.0
  6
BYLAYER
100
AcDbPolyline
 90
5
 70
128
 10
-3.6129025424999988
 20
3.5055049324999992
 10
-1.0610868974999992
 20
-3.5055049325000001
 10
1.2758818524999995
 20
-3.5055049325000001
 10
-1.2758818524999995
 20
3.5055049324999992
 10
-3.6129025424999988
 20
3.5055049324999992
  0
LWPOLYLINE
  5
A4
100
AcDbEntity
  8
VectorEngraving
 62
256
370
-1
 48
1.0
  6
BYLAYER
100
AcDbPolyline
 90
8
 70
128
 10
1.4906765424999993
 20
3.5055049324999992
 10
4.0424921874999988
 20
-3.5055049325000001
 10
6.379512612500001
 20
-3.5055049325000001
 10
8.9313279925000018
 20
3.5055049324999992
 10
6.5943075675000031
 20
3.5055049324999992
 10
5.2109765625000009
 20
-0.2950712724999995
 10
3.8276972325000003
 20
3.5055049324999992
 10
1.4906765424999993
 20
3.5055049324999992
  0
LINE
  5
A5
100
AcDbEntity
  8
VectorEngraving
 62
256
370
-1
 48
1.0
  6
BYLAYER
100
AcDbLine
 10
0.1073974775000028
 20
-0.2950712724999986
 30
0.0
 11
1.490676542500001
 21
3.5055049325000009
 31
0.0
  0
LINE
  5
A6
100
AcDbEntity
  8
VectorEngraving
 62
256
370
-1
 48
1.0
  6
BYLAYER
100
AcDbLine
 10
2.6591996787320564
 20
0.2950350650328817
 30
0.0
 11
1.2758818546243074
 21
-3.505504934606535
 31
0.0
  0
ENDBLK
  5
A7
100
AcDbEntity
  8
0
100
AcDbBlockEnd
  0
BLOCK
  5
A8
100
AcDbEntity
  8
0
100
AcDbBlockBegin
  2
block 8
 70
0
 10
0.0
 20
0.0
 30
0.0
  3
block 8
  1

  0
LWPOLYLINE
  5
A9
100
AcDbEntity
  8
AreaEngraving
 62
3
420
65280
370
-1
 48
1.0
  6
BYLAYER
100
AcDbPolyline
 90
6
 70
128
 10
-0.6863584872871229
 20
53.6120564188048263
 10
-0.6863584872871229
 20
42.4142964188048239
 42
-0.0033072788336863
 10
-0.1577084872871239
 20
42.4374964188048409
 42
-0.0033077266184061
 10
0.3714615127128695
 20
42.4294964188048738
 10
0.3714615127128695
 20
53.6120564188048263
 10
-0.6863584872871229
 20
53.6120564188048263
  0
LWPOLYLINE
  5
AA
100
AcDbEntity
  8
AreaEngraving
 62
3
420
65280
370
-1
 48
1.0
  6
BYLAYER
100
AcDbPolyline
 90
5
 70
128
 10
-11.8215964872871098
 20
48.0113664188048261
 10
-12.8432394872871214
 20
47.7374864188048207
 10
-11.0154454872871099
 20
40.9151664188048159
 42
-0.0066141399769513
 10
-9.993285487287153
 20
41.1890464188048355
 10
-11.8215964872871098
 20
48.0113664188048261
  0
LWPOLYLINE
  5
AB
100
AcDbEntity
  8
AreaEngraving
 62
3
420
65280
370
-1
 48
1.0
  6
BYLAYER
100
AcDbPolyline
 90
5
 70
128
 10
11.5067015127128798
 20
48.0113664188048261
 10
9.6825215127128956
 20
41.2035164188048242
 42
-0.0066101756053528
 10
10.7041615127128296
 20
40.9301464188048527
 10
12.528341512712899
 20
47.7374864188048207
 10
11.5067015127128798
 20
48.0113664188048261
  0
LWPOLYLINE
  5
AC
100
AcDbEntity
  8
AreaEngraving
 62
3
420
65280
370
-1
 48
1.0
  6
BYLAYER
100
AcDbPolyline
 90
5
 70
128
 10
-25.2869244872871093
 20
47.0202164188048215
 10
-26.2026304872871094
 20
46.4915664188048225
 10
-20.6034894872871064
 20
36.7939664188048283
 42
-0.006608723992369
 10
-19.6877834872871063
 20
37.3226164188048415
 10
-25.2869244872871093
 20
47.0202164188048215
  0
LWPOLYLINE
  5
AD
100
AcDbEntity
  8
AreaEngraving
 62
3
420
65280
370
-1
 48
1.0
  6
BYLAYER
100
AcDbPolyline
 90
5
 70
128
 10
24.9715115127128797
 20
47.0202164188048215
 10
19.3806315127128812
 20
37.3360564188048158
 42
-0.0066087456461917
 10
20.296341512712786
 20
36.8074064188048311
 10
25.8877315127128895
 20
46.4915664188048225
 10
24.9715115127128797
 20
47.0202164188048215
  0
LWPOLYLINE
  5
AE
100
AcDbEntity
  8
AreaEngraving
 62
3
420
65280
370
-1
 48
1.0
  6
BYLAYER
100
AcDbPolyline
 90
5
 70
128
 10
-33.0456244872871139
 20
36.0735964188048257
 10
-33.7938984872870947
 20
35.3258364188048262
 10
-28.7993714872870896
 20
30.3313064188048287
 42
-0.0066118880942146
 10
-28.0510974872871373
 20
31.079066418804814
 10
-33.0456244872871139
 20
36.0735964188048257
  0
LWPOLYLINE
  5
AF
100
AcDbEntity
  8
AreaEngraving
 62
3
420
65280
370
-1
 48
1.0
  6
BYLAYER
100
AcDbPolyline
 90
5
 70
128
 10
32.7307215127128757
 20
36.0735964188048257
 10
27.7475715127128808
 20
31.0904364188048277
 42
-0.0066118262234246
 10
28.4953215127127919
 20
30.342166418804851
 10
33.4784815127128752
 20
35.3258364188048262
 10
32.7307215127128757
 20
36.0735964188048257
  0
LWPOLYLINE
  5
B0
100
AcDbEntity
  8
AreaEngraving
 62
3
420
65280
370
-1
 48
1.0
  6
BYLAYER
100
AcDbPolyline
 90
5
 70
128
 10
-44.2113514872871178
 20
28.4828464188048258
 10
-44.7405184872871189
 20
27.5666264188048302
 10
-35.0429204872871196
 20
21.9679964188048302
 42
-0.0066131255020083
 10
-34.5137524872871495
 20
22.8842164188048258
 10
-44.2113514872871178
 20
28.4828464188048258
  0
LWPOLYLINE
  5
B1
100
AcDbEntity
  8
AreaEngraving
 62
3
420
65280
370
-1
 48
1.0
  6
BYLAYER
100
AcDbPolyline
 90
5
 70
128
 10
43.896451512712872
 20
28.4828464188048258
 10
34.2122915127128806
 20
22.8919764188048163
 42
-0.0066115608445713
 10
34.740941512712908
 20
21.9757464188048743
 10
44.4251015127128994
 20
27.5666264188048018
 10
43.896451512712872
 20
28.4828464188048258
  0
LWPOLYLINE
  5
B2
100
AcDbEntity
  8
AreaEngraving
 62
3
420
65280
370
-1
 48
1.0
  6
BYLAYER
100
AcDbPolyline
 90
5
 70
128
 10
-45.4577974872871096
 20
15.1229364188048407
 10
-45.7316824872871166
 20
14.10129641880485
 10
-38.9093574872871386
 20
12.2729864188048623
 42
-0.006614144830355
 10
-38.6354744872871834
 20
13.2951464188047908
 10
-45.4577974872871096
 20
15.1229364188048407
  0
LWPOLYLINE
  5
B3
100
AcDbEntity
  8
AreaEngraving
 62
3
420
65280
370
-1
 48
1.0
  6
BYLAYER
100
AcDbPolyline
 90
5
 70
128
 10
45.1428915127128789
 20
15.1229364188048407
 10
38.3355515127128683
 20
13.2987564188048282
 42
-0.006611016540262
 10
38.6094415127129196
 20
12.2771164188047806
 10
45.4162515127128472
 20
14.10129641880485
 10
45.1428915127128789
 20
15.1229364188048407
  0
LWPOLYLINE
  5
B4
100
AcDbEntity
  8
AreaEngraving
 62
3
420
65280
370
-1
 48
1.0
  6
BYLAYER
100
AcDbPolyline
 90
6
 70
128
 10
-51.3318474872871207
 20
2.9660564188048397
 10
-51.3318474872871207
 20
1.9087564188048418
 10
-40.1340814872871192
 20
1.9087564188048418
 42
-0.003307292549862
 10
-40.1573314872871094
 20
2.4374064188048123
 42
-0.003307292549864
 10
-40.1340814872871192
 20
2.9660564188046692
 10
-51.3318474872871207
 20
2.9660564188048397
  0
LWPOLYLINE
  5
B5
100
AcDbEntity
  8
AreaEngraving
 62
3
420
65280
370
-1
 48
1.0
  6
BYLAYER
100
AcDbPolyline
 90
6
 70
128
 10
39.834681512712848
 20
2.9660564188047829
 42
-0.003304476883546
 10
39.8426815127128862
 20
2.4374064188052103
 42
-0.0033072788336863
 10
39.8194815127129118
 20
1.9087564188046713
 10
51.0172515127128463
 20
1.9087564188048418
 10
51.0172515127128463
 20
2.9660564188048397
 10
39.8346815127129048
 20
2.9660564188048397
  0
LWPOLYLINE
  5
B6
100
AcDbEntity
  8
AreaEngraving
 62
3
420
65280
370
-1
 48
1.0
  6
BYLAYER
100
AcDbPolyline
 90
6
 70
128
 10
-38.9093484872871045
 20
-7.3981735811951808
 10
-45.7316724872871134
 20
-9.2264835811951684
 10
-45.4577874872871348
 20
-10.2481235811951592
 10
-38.6354654872871208
 20
-8.4203235811951345
 42
-0.0066140844520288
 10
-38.9093484872871045
 20
-7.3981735811951808
 10
-38.9093484872871045
 20
-7.3981735811951808
  0
LWPOLYLINE
  5
B7
100
AcDbEntity
  8
AreaEngraving
 62
3
420
65280
370
-1
 48
1.0
  6
BYLAYER
100
AcDbPolyline
 90
5
 70
128
 10
38.5944515127128511
 20
-7.3986835811951437
 42
-0.0066110165402621
 10
38.3205615127128567
 20
-8.4203235811951913
 10
45.1428915127128789
 20
-10.2481235811951592
 10
45.4162515127128472
 20
-9.2264835811951684
 10
38.594451512712908
 20
-7.3986835811951437
  0
LWPOLYLINE
  5
B8
100
AcDbEntity
  8
AreaEngraving
 62
3
420
65280
370
-1
 48
1.0
  6
BYLAYER
100
AcDbPolyline
 90
5
 70
128
 10
-35.0429204872871196
 20
-17.0931835811951487
 10
-44.7405184872871189
 20
-22.6918135811951629
 10
-44.2113514872871178
 20
-23.6080335811951727
 10
-34.5137524872871211
 20
-18.0094035811951585
 42
-0.0066131255020083
 10
-35.0429204872871196
 20
-17.0931835811951487
  0
LWPOLYLINE
  5
B9
100
AcDbEntity
  8
AreaEngraving
 62
3
420
65280
370
-1
 48
1.0
  6
BYLAYER
100
AcDbPolyline
 90
5
 70
128
 10
34.7280215127128713
 20
-17.0931835811950918
 42
-0.0066131317545044
 10
34.1988515127128494
 20
-18.0094035811951585
 10
43.896451512712872
 20
-23.6080335811951727
 10
44.4251015127128994
 20
-22.6918135811951629
 10
34.7280215127128713
 20
-17.0931835811951487
  0
LWPOLYLINE
  5
BA
100
AcDbEntity
  8
AreaEngraving
 62
3
420
65280
370
-1
 48
1.0
  6
BYLAYER
100
AcDbPolyline
 90
5
 70
128
 10
-28.799371487287118
 20
-25.4564935811951614
 10
-33.7938994872871206
 20
-30.4510235811951588
 10
-33.0456274872871063
 20
-31.1987835811951868
 10
-28.0510984872871063
 20
-26.2042535811951893
 42
-0.0066118836727005
 10
-28.7993714872870896
 20
-25.4564935811951614
  0
LWPOLYLINE
  5
BB
100
AcDbEntity
  8
AreaEngraving
 62
3
420
65280
370
-1
 48
1.0
  6
BYLAYER
100
AcDbPolyline
 90
5
 70
128
 10
28.4844715127128154
 20
-25.4564935811951614
 42
-0.0066118704081765
 10
27.7362015127128529
 20
-26.2042535811951325
 10
32.7307215127128757
 20
-31.1987835811951868
 10
33.4784815127128752
 20
-30.4510235811951588
 10
28.4844715127128723
 20
-25.4564935811951614
  0
LWPOLYLINE
  5
BC
100
AcDbEntity
  8
AreaEngraving
 62
3
420
65280
370
-1
 48
1.0
  6
BYLAYER
100
AcDbPolyline
 90
5
 70
128
 10
-20.6040134872871192
 20
-31.9191535811951894
 10
-26.2026374872871202
 20
-41.6167535811951552
 10
-25.28693148728712
 20
-42.1454035811951826
 10
-19.6883064872871216
 20
-32.4478035811951599
 42
-0.0066087294058223
 10
-20.6040134872870908
 20
-31.9191535811951894
  0
LWPOLYLINE
  5
BD
100
AcDbEntity
  8
AreaEngraving
 62
3
420
65280
370
-1
 48
1.0
  6
BYLAYER
100
AcDbPolyline
 90
5
 70
128
 10
20.288591512712884
 20
-31.9191535811951894
 42
-0.0066087456461919
 10
19.3728815127128655
 20
-32.4478035811952168
 10
24.9715115127128797
 20
-42.1454035811951826
 10
25.8877315127128895
 20
-41.6167535811951552
 10
20.288591512712884
 20
-31.9191535811951894
  0
ENDBLK
  5
BE
100
AcDbEntity
  8
0
100
AcDbBlockEnd
  0
BLOCK
  5
BF
100
AcDbEntity
  8
0
100
AcDbBlockBegin
  2
RW_Logo_Trans
 70
0
 10
0.0
 20
0.0
 30
0.0
  3
RW_Logo_Trans
  1

  0
LWPOLYLINE
  5
C0
100
AcDbEntity
  8
0
 62
256
370
-1
 48
1.0
  6
BYLAYER
100
AcDbPolyline
 90
20
 70
128
 10
56.6914060000000006
 20
0.0
 10
56.6914060000000006
 20
-15.8261719999999997
 10
37.7949219999999997
 20
-15.8261719999999997
 10
37.7949219999999997
 20
-47.4804689999999994
 10
56.6914060000000006
 20
-47.4804689999999994
 10
56.6914060000000006
 20
-141.2109399999999937
 10
37.7949219999999997
 20
-141.2109399999999937
 10
37.7949219999999997
 20
-172.8632800000000032
 10
56.6914060000000006
 20
-172.8632800000000032
 10
56.6914060000000006
 20
-188.6601599999999905
 10
56.6914060000000006
 20
-264.566410000000019
 10
144.8808599999999842
 20
-264.566410000000019
 10
144.8808599999999842
 20
-188.660160000000019
 10
165.4003899999999874
 20
-188.660160000000019
 10
193.027339999999981
 20
-264.566410000000019
 10
281.2167999999999779
 20
-264.566410000000019
 10
242.9043000000000063
 20
-159.3007800000000032
 42
0.1923579134144613
 10
268.9335900000000379
 20
-94.3300779999909622
 42
0.4142131276425501
 10
174.6035200025277163
 20
-0.0000000000000284
 10
56.6914060000000006
 20
0.0
  0
LWPOLYLINE
  5
C1
100
AcDbEntity
  8
0
 62
256
370
-1
 48
1.0
  6
BYLAYER
100
AcDbPolyline
 90
6
 70
128
 10
144.8808599999999842
 20
-63.2910159999999991
 10
166.6933599999999842
 20
-63.2910159999999991
 42
-0.4142108826965076
 10
197.7304699999999684
 20
-94.330078000010829
 42
-0.4141924816972828
 10
166.6933599999999842
 20
-125.3671899999999795
 10
144.8808599999999842
 20
-125.3671899999999937
 10
144.8808599999999842
 20
-63.2910159999999991
  0
LWPOLYLINE
  5
C2
100
AcDbEntity
  8
0
 62
256
370
-1
 48
1.0
  6
BYLAYER
100
AcDbPolyline
 90
5
 70
128
 10
476.0527299999999968
 20
0.0
 10
423.8535200000000032
 20
-143.4179699999999968
 10
467.9472700000000032
 20
-264.566410000000019
 10
520.1484400000000505
 20
-121.1484400000000221
 10
476.0527299999999968
 20
0.0
  0
LWPOLYLINE
  5
C3
100
AcDbEntity
  8
0
 62
256
370
-1
 48
1.0
  6
BYLAYER
100
AcDbPolyline
 90
5
 70
128
 10
283.464839999999981
 20
0.0
 10
379.7597700000000032
 20
-264.566410000000019
 10
467.9472700000000032
 20
-264.566410000000019
 10
371.6542999999999779
 20
0.0
 10
283.464839999999981
 20
0.0
  0
LWPOLYLINE
  5
C4
100
AcDbEntity
  8
0
 62
256
370
-1
 48
1.0
  6
BYLAYER
100
AcDbPolyline
 90
8
 70
128
 10
476.0527299999999968
 20
0.0
 10
572.347660000000019
 20
-264.566410000000019
 10
660.5371099999999842
 20
-264.566410000000019
 10
756.8320300000000316
 20
0.0
 10
668.6425799999999526
 20
0.0
 10
616.441410000000019
 20
-143.4179699999999968
 10
564.2421900000000505
 20
0.0
 10
476.0527299999999968
 20
0.0
  0
ENDBLK
  5
C5
100
AcDbEntity
  8
0
100
AcDbBlockEnd
  0
BLOCK
  5
C6
100
AcDbEntity
  8
0
100
AcDbBlockBegin
  2
block 5
 70
0
 10
0.0
 20
0.0
 30
0.0
  3
block 5
  1

  0
LWPOLYLINE
  5
C7
100
AcDbEntity
  8
0
 62
256
370
-1
 48
1.0
  6
BYLAYER
100
AcDbPolyline
 90
20
 70
128
 10
-363.1093789999999899
 20
132.2832050000000095
 10
-363.1093789999999899
 20
116.4570330000000098
 10
-382.0058629999999766
 20
116.4570330000000098
 10
-382.0058629999999766
 20
84.8027360000000101
 10
-363.1093789999999899
 20
84.8027360000000101
 10
-363.1093789999999899
 20
-8.9277349999999842
 10
-382.0058629999999766
 20
-8.9277349999999842
 10
-382.0058629999999766
 20
-40.5800749999999937
 10
-363.1093789999999899
 20
-40.5800749999999937
 10
-363.1093789999999899
 20
-56.3769549999999811
 10
-363.1093789999999899
 20
-132.2832050000000095
 10
-274.9199249999999779
 20
-132.2832050000000095
 10
-274.9199249999999779
 20
-56.3769550000000095
 10
-254.4003949999999747
 20
-56.3769550000000095
 10
-226.7734449999999811
 20
-132.2832050000000095
 10
-138.5839849999999842
 20
-132.2832050000000095
 10
-176.8964849999999842
 20
-27.0175749999999937
 42
0.1923579134144613
 10
-150.8671949999999242
 20
37.9531270000090473
 42
0.4142131276425501
 10
-245.1972649974722458
 20
132.2832049999999811
 10
-363.1093789999999899
 20
132.2832050000000095
  0
LWPOLYLINE
  5
C8
100
AcDbEntity
  8
0
 62
256
370
-1
 48
1.0
  6
BYLAYER
100
AcDbPolyline
 90
6
 70
128
 10
-274.9199249999999779
 20
68.9921890000000104
 10
-253.1074249999999779
 20
68.9921890000000104
 42
-0.4142108826965076
 10
-222.0703149999999937
 20
37.9531269999891805
 42
-0.4141924816972828
 10
-253.1074249999999779
 20
6.91601500000003
 10
-274.9199249999999779
 20
6.9160150000000158
 10
-274.9199249999999779
 20
68.9921890000000104
  0
LWPOLYLINE
  5
C9
100
AcDbEntity
  8
0
 62
256
370
-1
 48
1.0
  6
BYLAYER
100
AcDbPolyline
 90
5
 70
128
 10
56.2519449999999779
 20
132.2832050000000095
 10
4.0527350000000411
 20
-11.1347649999999874
 10
48.1464849999999842
 20
-132.2832050000000095
 10
100.3476550000000316
 20
11.1347649999999874
 10
56.2519449999999779
 20
132.2832050000000095
  0
LWPOLYLINE
  5
CA
100
AcDbEntity
  8
0
 62
256
370
-1
 48
1.0
  6
BYLAYER
100
AcDbPolyline
 90
5
 70
128
 10
-136.3359449999999811
 20
132.2832050000000095
 10
-40.0410149999999589
 20
-132.2832050000000095
 10
48.1464849999999842
 20
-132.2832050000000095
 10
-48.1464849999999842
 20
132.2832050000000095
 10
-136.3359449999999811
 20
132.2832050000000095
  0
LWPOLYLINE
  5
CB
100
AcDbEntity
  8
0
 62
256
370
-1
 48
1.0
  6
BYLAYER
100
AcDbPolyline
 90
8
 70
128
 10
56.2519449999999779
 20
132.2832050000000095
 10
152.546875
 20
-132.2832050000000095
 10
240.7363250000000789
 20
-132.2832050000000095
 10
337.0312450000001263
 20
132.2832050000000095
 10
248.8417950000000474
 20
132.2832050000000095
 10
196.640625
 20
-11.1347649999999874
 10
144.4414050000000316
 20
132.2832050000000095
 10
56.2519449999999779
 20
132.2832050000000095
  0
ENDBLK
  5
CC
100
AcDbEntity
  8
0
100
AcDbBlockEnd
  0
BLOCK
  5
CD
100
AcDbEntity
  8
0
100
AcDbBlockBegin
  2
block 10
 70
0
 10
0.0
 20
0.0
 30
0.0
  3
block 10
  1

  0
LWPOLYLINE
  5
CE
100
AcDbEntity
  8
AreaEngraving
 62
3
420
65280
370
-1
 48
1.0
  6
BYLAYER
100
AcDbPolyline
 90
6
 70
128
 10
-0.1241871991868777
 20
5.2656190505156095
 10
-0.1241871991868777
 20
3.5095290505156091
 42
-0.0094312964636997
 10
0.0077028008131208
 20
3.5155290505156378
 42
-0.0094282736998003
 10
0.1396528008131099
 20
3.5125290505156235
 10
0.1396528008131099
 20
5.265319050515628
 10
-0.1241871991868777
 20
5.2656190505156095
  0
LWPOLYLINE
  5
CF
100
AcDbEntity
  8
AreaEngraving
 62
3
420
65280
370
-1
 48
1.0
  6
BYLAYER
100
AcDbPolyline
 90
5
 70
128
 10
-2.5030071991868965
 20
4.6282390505156021
 10
-2.731487199186887
 20
4.4962990505156162
 10
-1.8547271991868968
 20
2.9777290505156051
 42
-0.018850642653673
 10
-1.6253471991869048
 20
3.1080490505156169
 10
-2.5030071991868965
 20
4.6282390505156021
  0
LWPOLYLINE
  5
D0
100
AcDbEntity
  8
AreaEngraving
 62
3
420
65280
370
-1
 48
1.0
  6
BYLAYER
100
AcDbPolyline
 90
5
 70
128
 10
2.518512800813113
 20
4.6282390505156021
 10
1.6420228008130948
 20
3.110129050515595
 42
-0.0188531870154901
 10
1.8706428008131013
 20
2.9784090505155936
 10
2.7469928008131035
 20
4.4962990505155878
 10
2.518512800813113
 20
4.6282390505156021
  0
LWPOLYLINE
  5
D1
100
AcDbEntity
  8
AreaEngraving
 62
3
420
65280
370
-1
 48
1.0
  6
BYLAYER
100
AcDbPolyline
 90
5
 70
128
 10
-4.4729271991868984
 20
2.7548590505156048
 10
-4.6048271991869001
 20
2.5263790505156143
 10
-3.0846771991868991
 20
1.6487190505156226
 42
-0.0188520557002934
 10
-2.9543171991869031
 20
1.8780990505156145
 10
-4.4729271991868984
 20
2.7548590505156048
  0
LWPOLYLINE
  5
D2
100
AcDbEntity
  8
AreaEngraving
 62
3
420
65280
370
-1
 48
1.0
  6
BYLAYER
100
AcDbPolyline
 90
5
 70
128
 10
4.4884328008131149
 20
2.7548590505156048
 10
2.9704928008131049
 20
1.8785090505156026
 42
-0.0188549721058722
 10
3.1022628008131505
 20
1.6498890505155961
 10
4.6203228008131134
 20
2.5263790505155859
 10
4.4884328008131149
 20
2.7548590505156048
  0
LWPOLYLINE
  5
D3
100
AcDbEntity
  8
AreaEngraving
 62
3
420
65280
370
-1
 48
1.0
  6
BYLAYER
100
AcDbPolyline
 90
6
 70
128
 10
-5.2422901991868969
 20
0.1475190505156112
 10
-5.2422901991868969
 20
-0.1163209494843764
 10
-3.4861571991868914
 20
-0.1163209494843764
 42
-0.0094348651562602
 10
-3.49215719918692
 20
0.0156190505156095
 42
-0.00943201020193
 10
-3.4861571991869198
 20
0.1475190505156112
 10
-5.2422901991868969
 20
0.1475190505156112
  0
LWPOLYLINE
  5
D4
100
AcDbEntity
  8
AreaEngraving
 62
3
420
65280
370
-1
 48
1.0
  6
BYLAYER
100
AcDbPolyline
 90
6
 70
128
 10
3.5049628008131037
 20
0.1475190505156112
 42
-0.009424702242363
 10
3.5079628008130896
 20
0.0156190505156948
 42
-0.0094348651562611
 10
3.5019628008131178
 20
-0.1163209494843764
 10
5.2580528008130898
 20
-0.1163209494843764
 10
5.2580528008130898
 20
0.1475190505156112
 10
3.5049628008131037
 20
0.1475190505156112
  0
LWPOLYLINE
  5
D5
100
AcDbEntity
  8
AreaEngraving
 62
3
420
65280
370
-1
 48
1.0
  6
BYLAYER
100
AcDbPolyline
 90
5
 70
128
 10
3.1001328008130997
 20
-1.6174309494843877
 42
-0.0188551641205852
 10
2.9697728008131037
 20
-1.8468609494843955
 10
4.4884328008131149
 20
-2.7236209494843857
 10
4.6203228008131134
 20
-2.4951409494843952
 10
3.1001328008130997
 20
-1.6174309494843877
  0
LWPOLYLINE
  5
D6
100
AcDbEntity
  8
AreaEngraving
 62
3
420
65280
370
-1
 48
1.0
  6
BYLAYER
100
AcDbPolyline
 90
5
 70
128
 10
-3.0846771991868991
 20
-1.6174809494843752
 10
-4.6048271991869001
 20
-2.4951409494843668
 10
-4.4729271991868984
 20
-2.7236209494843573
 10
-2.9543171991869031
 20
-1.8468609494843671
 42
-0.0188520557002923
 10
-3.0846771991869275
 20
-1.6174809494843752
  0
LWPOLYLINE
  5
D7
100
AcDbEntity
  8
AreaEngraving
 62
3
420
65280
370
-1
 48
1.0
  6
BYLAYER
100
AcDbPolyline
 90
5
 70
128
 10
1.8702328008131133
 20
-2.9464509494843734
 42
-0.0188520557002944
 10
1.6408528008130929
 20
-3.0768109494843694
 10
2.518512800813113
 20
-4.5970009494843831
 10
2.7469928008131035
 20
-4.4650609494843971
 10
1.8702328008131133
 20
-2.9464509494843734
  0
LWPOLYLINE
  5
D8
100
AcDbEntity
  8
AreaEngraving
 62
3
420
65280
370
-1
 48
1.0
  6
BYLAYER
100
AcDbPolyline
 90
6
 70
128
 10
-1.8547271991868968
 20
-2.9464909494843861
 10
-2.731487199186887
 20
-4.4650609494843971
 10
-2.5030071991868965
 20
-4.5970009494843831
 10
-1.6253471991869048
 20
-3.0768109494843694
 42
-0.0188506426536739
 10
-1.8547271991868968
 20
-2.9464909494843576
 10
-1.8547271991868968
 20
-2.9464909494843861
  0
ENDBLK
  5
D9
100
AcDbEntity
  8
0
100
AcDbBlockEnd
  0
ENDSEC
  0
SECTION
  2
ENTITIES
  0
LWPOLYLINE
  5
DA
100
AcDbEntity
  8
VectorEngraving
 62
5
420
255
370
-1
 48
1.0
  6
BYLAYER
100
AcDbPolyline
 90
20
 70
128
 10
15.627601456499999
 20
9.8055049324999999
 10
15.627601456499999
 20
9.3861113745000004
 10
15.1268446304999991
 20
9.3861113745000004
 10
15.1268446304999991
 20
8.5472725039999986
 10
15.627601456499999
 20
8.5472725039999986
 10
15.627601456499999
 20
6.0634150225000001
 10
15.1268446304999991
 20
6.0634150225000001
 10
15.1268446304999991
 20
5.2246280125000002
 10
15.627601456499999
 20
5.2246280125000002
 10
15.627601456499999
 20
4.8060106925000001
 10
15.627601456499999
 20
2.7944950674999998
 10
17.9646219874999993
 20
2.7944950674999998
 10
17.9646219874999993
 20
4.8060106925000001
 10
18.5083895324999972
 20
4.8060106925000001
 10
19.2405037074999967
 20
2.7944950674999998
 10
21.5775243974999995
 20
2.7944950674999998
 10
20.5622431474999985
 20
5.5840342625000003
 42
0.1923579134144613
 10
21.252019332499998
 20
7.3057578655002393
 42
0.4142131276425501
 10
18.7522724775669829
 20
9.8055049324999999
 10
15.627601456499999
 20
9.8055049324999999
  0
LWPOLYLINE
  5
DB
100
AcDbEntity
  8
VectorEngraving
 62
5
420
255
370
-1
 48
1.0
  6
BYLAYER
100
AcDbPolyline
 90
6
 70
128
 10
17.9646219874999993
 20
8.1282930085000018
 10
18.5426532374999979
 20
8.1282930085000018
 42
-0.4142108826965076
 10
19.3651366524999986
 20
7.3057578654997135
 42
-0.4141924816972828
 10
18.5426532374999979
 20
6.4832743975000007
 10
17.9646219874999993
 20
6.4832743974999998
 10
17.9646219874999993
 20
8.1282930085000018
  0
LWPOLYLINE
  5
DC
100
AcDbEntity
  8
VectorEngraving
 62
5
420
255
370
-1
 48
1.0
  6
BYLAYER
100
AcDbPolyline
 90
5
 70
128
 10
21.6370974574999977
 20
9.8055049324999999
 10
24.188913102499999
 20
2.7944950674999998
 10
26.5258818524999995
 20
2.7944950674999998
 10
23.9741181475000005
 20
9.8055049324999999
 10
21.6370974574999977
 20
9.8055049324999999
  0
LWPOLYLINE
  5
DD
100
AcDbEntity
  8
VectorEngraving
 62
5
420
255
370
-1
 48
1.0
  6
BYLAYER
100
AcDbPolyline
 90
8
 70
128
 10
26.7406765424999975
 20
9.8055049324999999
 10
29.2924921874999953
 20
2.7944950674999998
 10
31.629512612500001
 20
2.7944950674999998
 10
34.1813279925000018
 20
9.8055049324999999
 10
31.8443075675000031
 20
9.8055049324999999
 10
30.4609765625000009
 20
6.0049287275000003
 10
29.0776972325000003
 20
9.8055049324999999
 10
26.7406765424999975
 20
9.8055049324999999
  0
LINE
  5
DE
100
AcDbEntity
  8
VectorEngraving
 62
5
420
255
370
-1
 48
1.0
  6
BYLAYER
100
AcDbLine
 10
25.3573974775000011
 20
6.0049287275000012
 30
0.0
 11
26.7406765424999975
 21
9.8055049324999999
 31
0.0
  0
LINE
  5
DF
100
AcDbEntity
  8
VectorEngraving
 62
5
420
255
370
-1
 48
1.0
  6
BYLAYER
100
AcDbLine
 10
27.9091996787320582
 20
6.5950350650328815
 30
0.0
 11
26.5258818546243056
 21
2.7944950653934648
 31
0.0
  0
LINE
  5
E0
100
AcDbEntity
  8
Cuts
 62
1
420
16711680
370
-1
 48
1.0
  6
BYLAYER
100
AcDbLine
 10
0.0
 20
0.0
 30
0.0
 11
50.5
 21
0.0
 31
0.0
  0
LINE
  5
E1
100
AcDbEntity
  8
Cuts
 62
1
420
16711680
370
-1
 48
1.0
  6
BYLAYER
100
AcDbLine
 10
50.5
 20
0.0
 30
0.0
 11
50.5
 21
128.5
 31
0.0
  0
LINE
  5
E2
100
AcDbEntity
  8
Cuts
 62
1
420
16711680
370
-1
 48
1.0
  6
BYLAYER
100
AcDbLine
 10
50.5
 20
128.5
 30
0.0
 11
0.0
 21
128.5
 31
0.0
  0
LINE
  5
E3
100
AcDbEntity
  8
Cuts
 62
1
420
16711680
370
-1
 48
1.0
  6
BYLAYER
100
AcDbLine
 10
0.0
 20
128.5
 30
0.0
 11
0.0
 21
0.0
 31
0.0
  0
DIMENSION
  5
E4
100
AcDbEntity
  8
UserDrawings
 62
256
370
-1
 48
1.0
  6
BYLAYER
100
AcDbDimension
 10
-10.0
 20
0.0
 30
0.0
 11
-11.875
 21
64.25
 31
0.0
 70
0
 71
8
 72
2
 74
0
 75
0
 41
1.0
 42
0.0
  1

  3
Standard
100
AcDbAlignedDimension
 13
-0.0
 23
-0.0
 33
0.0
 14
0.0
 24
128.5
 34
0.0
 50
90.0
100
AcDbRotatedDimension
1001
ACAD
1000
DSTYLE
1002
{
1070
144
1040
1.0
1070
40
1040
1.0
1002
}
  0
DIMENSION
  5
E5
100
AcDbEntity
  8
UserDrawings
 62
256
370
-1
 48
1.0
  6
BYLAYER
100
AcDbDimension
 10
0.0
 20
136.7913298366080426
 30
0.0
 11
25.25
 21
138.6663298366080426
 31
0.0
 70
0
 71
8
 72
2
 74
0
 75
0
 41
1.0
 42
0.0
  1

  3
Standard
100
AcDbAlignedDimension
 13
0.0
 23
128.5
 33
0.0
 14
50.5
 24
128.5
 34
0.0
 50
0.0
100
AcDbRotatedDimension
1001
ACAD
1000
DSTYLE
1002
{
1070
144
1040
1.0
1070
40
1040
1.0
1002
}
  0
LINE
  5
E6
100
AcDbEntity
  8
Cuts
 62
1
420
16711680
370
-1
 48
1.0
  6
BYLAYER
100
AcDbLine
 10
6.5000000000000107
 20
127.1000000000000369
 30
0.0
 11
8.5000000000000107
 21
127.1000000000000369
 31
0.0
  0
LINE
  5
E7
100
AcDbEntity
  8
Cuts
 62
1
420
16711680
370
-1
 48
1.0
  6
BYLAYER
100
AcDbLine
 10
42.0000000000000142
 20
127.1000000000000512
 30
0.0
 11
44.0000000000000142
 21
127.1000000000000512
 31
0.0
  0
LINE
  5
E8
100
AcDbEntity
  8
Cuts
 62
1
420
16711680
370
-1
 48
1.0
  6
BYLAYER
100
AcDbLine
 10
6.5000000000000107
 20
4.6000000000000227
 30
0.0
 11
8.5000000000000107
 21
4.6000000000000227
 31
0.0
  0
LINE
  5
E9
100
AcDbEntity
  8
Cuts
 62
1
420
16711680
370
-1
 48
1.0
  6
BYLAYER
100
AcDbLine
 10
42.0000000000000142
 20
4.6000000000000227
 30
0.0
 11
44.0000000000000142
 21
4.6000000000000227
 31
0.0
  0
LINE
  5
EA
100
AcDbEntity
  8
Cuts
 62
1
420
16711680
370
-1
 48
1.0
  6
BYLAYER
100
AcDbLine
 10
6.5000000000000107
 20
123.9000000000000341
 30
0.0
 11
8.5000000000000107
 21
123.9000000000000341
 31
0.0
  0
LINE
  5
EB
100
AcDbEntity
  8
Cuts
 62
1
420
16711680
370
-1
 48
1.0
  6
BYLAYER
100
AcDbLine
 10
42.0000000000000142
 20
123.9000000000000483
 30
0.0
 11
44.0000000000000142
 21
123.9000000000000483
 31
0.0
  0
LINE
  5
EC
100
AcDbEntity
  8
Cuts
 62
1
420
16711680
370
-1
 48
1.0
  6
BYLAYER
100
AcDbLine
 10
6.5000000000000107
 20
1.4000000000000203
 30
0.0
 11
8.5000000000000107
 21
1.4000000000000203
 31
0.0
  0
LINE
  5
ED
100
AcDbEntity
  8
Cuts
 62
1
420
16711680
370
-1
 48
1.0
  6
BYLAYER
100
AcDbLine
 10
42.0000000000000142
 20
1.4000000000000208
 30
0.0
 11
44.0000000000000142
 21
1.4000000000000208
 31
0.0
  0
ARC
  5
EE
100
AcDbEntity
  8
Cuts
 62
1
420
16711680
370
-1
 48
1.0
  6
BYLAYER
100
AcDbCircle
 10
8.5000000000000107
 20
125.5000000000000426
 30
0.0
 40
1.6000000000000085
100
AcDbArc
 50
270.0
 51
90.0
  0
ARC
  5
EF
100
AcDbEntity
  8
Cuts
 62
1
420
16711680
370
-1
 48
1.0
  6
BYLAYER
100
AcDbCircle
 10
44.0000000000000142
 20
125.5000000000000568
 30
0.0
 40
1.6000000000000085
100
AcDbArc
 50
270.0
 51
90.0
  0
ARC
  5
F0
100
AcDbEntity
  8
Cuts
 62
1
420
16711680
370
-1
 48
1.0
  6
BYLAYER
100
AcDbCircle
 10
8.5000000000000107
 20
3.0000000000000289
 30
0.0
 40
1.6000000000000085
100
AcDbArc
 50
270.0
 51
90.0
  0
ARC
  5
F1
100
AcDbEntity
  8
Cuts
 62
1
420
16711680
370
-1
 48
1.0
  6
BYLAYER
100
AcDbCircle
 10
44.0000000000000142
 20
3.0000000000000293
 30
0.0
 40
1.6000000000000085
100
AcDbArc
 50
270.0
 51
90.0
  0
ARC
  5
F2
100
AcDbEntity
  8
Cuts
 62
1
420
16711680
370
-1
 48
1.0
  6
BYLAYER
100
AcDbCircle
 10
6.5000000000000107
 20
125.5000000000000426
 30
0.0
 40
1.6000000000000085
100
AcDbArc
 50
90.0
 51
270.0
  0
ARC
  5
F3
100
AcDbEntity
  8
Cuts
 62
1
420
16711680
370
-1
 48
1.0
  6
BYLAYER
100
AcDbCircle
 10
42.0000000000000142
 20
125.5000000000000568
 30
0.0
 40
1.6000000000000085
100
AcDbArc
 50
90.0
 51
270.0
  0
ARC
  5
F4
100
AcDbEntity
  8
Cuts
 62
1
420
16711680
370
-1
 48
1.0
  6
BYLAYER
100
AcDbCircle
 10
6.5000000000000107
 20
3.0000000000000289
 30
0.0
 40
1.6000000000000085
100
AcDbArc
 50
90.0
 51
270.0
  0
ARC
  5
F5
100
AcDbEntity
  8
Cuts
 62
1
420
16711680
370
-1
 48
1.0
  6
BYLAYER
100
AcDbCircle
 10
42.0000000000000142
 20
3.0000000000000293
 30
0.0
 40
1.6000000000000085
100
AcDbArc
 50
90.0
 51
270.0
  0
CIRCLE
  5
F6
100
AcDbEntity
  8
Cuts
 62
1
420
16711680
370
-1
 48
1.0
  6
BYLAYER
100
AcDbCircle
 10
9.25
 20
25.0
 30
0.0
 40
3.2000000000000002
  0
CIRCLE
  5
F7
100
AcDbEntity
  8
Cuts
 62
1
420
16711680
370
-1
 48
1.0
  6
BYLAYER
100
AcDbCircle
 10
25.25
 20
25.0
 30
0.0
 40
3.2000000000000002
  0
CIRCLE
  5
F8
100
AcDbEntity
  8
Cuts
 62
1
420
16711680
370
-1
 48
1.0
  6
BYLAYER
100
AcDbCircle
 10
41.25
 20
25.0
 30
0.0
 40
3.2000000000000002
  0
CIRCLE
  5
F9
100
AcDbEntity
  8
Cuts
 62
1
420
16711680
370
-1
 48
1.0
  6
BYLAYER
100
AcDbCircle
 10
9.25
 20
105.0
 30
0.0
 40
3.2000000000000002
  0
CIRCLE
  5
FA
100
AcDbEntity
  8
Cuts
 62
1
420
16711680
370
-1
 48
1.0
  6
BYLAYER
100
AcDbCircle
 10
25.25
 20
105.0
 30
0.0
 40
3.2000000000000002
  0
CIRCLE
  5
FB
100
AcDbEntity
  8
Cuts
 62
1
420
16711680
370
-1
 48
1.0
  6
BYLAYER
100
AcDbCircle
 10
41.25
 20
105.0
 30
0.0
 40
3.2000000000000002
  0
CIRCLE
  5
FC
100
AcDbEntity
  8
Cuts
 62
1
420
16711680
370
-1
 48
1.0
  6
BYLAYER
100
AcDbCircle
 10
25.25
 20
60.0
 30
0.0
 40
3.2000000000000002
  0
CIRCLE
  5
FD
100
AcDbEntity
  8
Cuts
 62
1
420
16711680
370
-1
 48
1.0
  6
BYLAYER
100
AcDbCircle
 10
25.25
 20
48.0
 30
0.0
 40
2.6000000000000001
  0
LWPOLYLINE
  5
FE
100
AcDbEntity
  8
VectorEngraving
 62
256
370
-1
 48
1.0
  6
BYLAYER
100
AcDbPolyline
 90
268
 70
129
 10
17.5096964586846617
 20
123.0
 10
17.5096964586846617
 20
126.9745175192055484
 10
18.766582349634632
 20
126.9745175192055484
 10
18.7722561031954207
 20
126.9745126530899455
 10
18.7779179859500971
 20
126.9744980547431368
 10
18.7835679978986683
 20
126.974473724165108
 10
18.7892061390411342
 20
126.9744396613558592
 10
18.794832409377495
 20
126.9743958663154189
 10
18.8004468089077506
 20
126.9743423390437727
 10
18.8060493376319009
 20
126.9742790795409064
 10
18.8116399955499425
 20
126.9742060878068344
 10
18.8172187826618789
 20
126.9741233638415423
 10
18.8227856989677065
 20
126.9740309076450444
 10
18.8283407444674324
 20
126.9739287192173407
 10
18.8338839191610496
 20
126.973816798558417
 10
18.8394152230485616
 20
126.9736951456683016
 10
18.8449346561299684
 20
126.9735637605469378
 10
18.85044221840527
 20
126.9734226431944109
 10
18.8559379098744664
 20
126.9732717936106496
 10
18.8614217305375576
 20
126.9731112117956826
 10
18.86689368039454
 20
126.9729408977494955
 10
18.8723537594454172
 20
126.9727608514721169
 10
18.8778019676901927
 20
126.9725710729634898
 10
18.8832383051288524
 20
126.9723715622236995
 10
18.8886627717614104
 20
126.9721623192526749
 10
18.8940753675878668
 20
126.9719433440504588
 10
18.8994760926082108
 20
126.9717146366170084
 10
18.9048649468224532
 20
126.9714761969523664
 10
18.9102419302305904
 20
126.9712280250565186
 10
18.9156070428326188
 20
126.9709701209294366
 10
18.9209602846285421
 20
126.9707024845711771
 10
18.9263016556183601
 20
126.9704251159816693
 10
18.9316311558020729
 20
126.9701380151609698
 10
18.9369487851796805
 20
126.9698411821090502
 10
18.9422545437511793
 20
126.9695346168259249
 10
18.947548431516573
 20
126.969218319311608
 10
18.9528304484758614
 20
126.968892289566071
 10
18.9581005946290411
 20
126.9685565275892998
 10
18.9633588699761191
 20
126.9682110333813512
 10
18.9686052745170848
 20
126.9678558069421683
 10
18.9738398082519524
 20
126.9674908482718081
 10
18.9790624711807077
 20
126.9671161573701994
 10
18.9842732633033613
 20
126.9667317342373849
 10
18.9894721846199062
 20
126.9663375788733788
 10
18.9946592351303458
 20
126.9659336912781669
 10
18.9998344148346803
 20
126.9655200714517207
 10
19.004997723732906
 20
126.9650967193940829
 10
19.01014916182503
 20
126.9646636351052393
 10
19.0152887291110488
 20
126.9642208185851757
 10
19.0204164255909554
 20
126.9637682698339063
 10
19.0255322512647602
 20
126.9633059888514168
 10
19.0306362061324563
 20
126.9628339756377216
 10
19.0357282901940508
 20
126.9623522301928062
 10
19.04080850344954
 20
126.9618607525166851
 10
19.0458768458989205
 20
126.9613595426093866
 10
19.0509333175421958
 20
126.9608486004708539
 10
19.0559779183793623
 20
126.9603279261011011
 10
19.0610106484104236
 20
126.9597975195001425
 10
19.0660315076353832
 20
126.9592573806679923
 10
19.0710404960542341
 20
126.9587075096046078
 10
19.0760376136669763
 20
126.9581479063100176
 10
19.0810228604736167
 20
126.9575785707842215
 10
19.0859962364741484
 20
126.9569995030272196
 10
19.090957741668575
 20
126.9564107030390119
 10
19.0959073760568963
 20
126.9558121708195699
 10
19.1008451396391123
 20
126.9552039063689506
 10
19.1057710324152197
 20
126.9545859096870828
 10
19.1106850543852254
 20
126.9539581807740376
 10
19.1155872055491223
 20
126.9533207196297724
 10
19.1204774859069104
 20
126.9526735262542871
 10
19.1253558954586005
 20
126.9520166006475961
 10
19.1302224342041782
 20
126.9513499428097134
 10
19.1350771021436472
 20
126.9506735527405965
 10
19.1399198992770181
 20
126.9499874304402738
 10
19.1447508256042767
 20
126.9492915759087452
 10
19.1495698811254371
 20
126.9485859891460251
 10
19.1543770658404853
 20
126.9478706701520707
 10
19.1591723797494247
 20
126.9471456189269105
 10
19.163955822852266
 20
126.9464108354705303
 10
19.1687273951489985
 20
126.9456663197829585
 10
19.1734870966396223
 20
126.9449120718641666
 10
19.1782349273241408
 20
126.9441480917141547
 10
19.1829708872025577
 20
126.9433743793329654
 10
19.1876949762748623
 20
126.9425909347205419
 10
19.1924071945410617
 20
126.9417977578769126
 10
19.1971075420011594
 20
126.9409948488020632
 10
19.2017960186551484
 20
126.9401822074960364
 10
19.2064726245030357
 20
126.9393598339587612
 10
19.2111373595448143
 20
126.9385277281902802
 10
19.2157902237804841
 20
126.9376858901906076
 10
19.2204312172100487
 20
126.9368343199597291
 10
19.2250603398335116
 20
126.9359730174976164
 10
19.2296775916508622
 20
126.9351019828043121
 10
19.2342829726621147
 20
126.9342212158797736
 10
19.2388764828672549
 20
126.9333307167240577
 10
19.2434581222662899
 20
126.9324304853371075
 10
19.2480278908592197
 20
126.9315205217189515
 10
19.2525857886460443
 20
126.9306008258695897
 10
19.2571318156267637
 20
126.9296713977890221
 10
19.2616659718013779
 20
126.9287322374772344
 10
19.2661882571698833
 20
126.927783344934241
 10
19.2706986717322835
 20
126.9268247201600275
 10
19.2751972154885749
 20
126.9258563631546366
 10
19.2796838884387647
 20
126.9248782739179973
 10
19.2841586905828493
 20
126.9238904524501805
 10
19.2886216219208251
 20
126.9228928987511296
 10
19.2930726824526957
 20
126.921885612820887
 10
19.2975118721784611
 20
126.9208685946594244
 10
19.3019391910981177
 20
126.9198418442667275
 10
19.3063546392116727
 20
126.9188053616428533
 10
19.3107582165191189
 20
126.9177591467877591
 10
19.3151499230204564
 20
126.916703199701459
 10
19.3195297587156922
 20
126.9156375203839389
 10
19.3238977236048228
 20
126.9145621088352129
 10
19.3282538176878482
 20
126.9134769650552812
 10
19.3325980409647649
 20
126.9123820890441152
 10
19.3369303934355727
 20
126.9112774808017718
 10
19.341250875100279
 20
126.9101631403282227
 10
19.34555948595888
 20
126.9090390676234108
 10
19.3498562260113722
 20
126.90790526268745
 10
19.3541410952577593
 20
126.9067617255202407
 10
19.3584140936980447
 20
126.905608456121854
 10
19.3626752213322177
 20
126.9044454544922473
 10
19.3669244781602856
 20
126.9032727206314064
 10
19.3711618641822483
 20
126.9020902545393596
 10
19.3753873793981057
 20
126.9008980562161213
 10
19.379601023807858
 20
126.8996961256616487
 10
19.383802797411505
 20
126.8984844628759845
 10
19.3879927002090433
 20
126.8972630678591145
 10
19.3921707322004764
 20
126.8960319406110102
 10
19.3963368933858078
 20
126.8947910811317286
 10
19.4004911837650269
 20
126.8935404894212127
 10
19.4046336033381408
 20
126.892280165479491
 10
19.4087641521051495
 20
126.8910101093065634
 10
19.4128828300660565
 20
126.8897303209024159
 10
19.4169896372208548
 20
126.8884408002670909
 10
19.4210845735695443
 20
126.8871415474005175
 10
19.4251676391121322
 20
126.8858325623027525
 10
19.4292388338486113
 20
126.8845138449737817
 10
19.4332981577789852
 20
126.8831853954135767
 10
19.4373456109032574
 20
126.8818472136221658
 10
19.4413811932214173
 20
126.8804992995995633
 10
19.4454049047334721
 20
126.879141653345755
 10
19.4494167454394216
 20
126.8777742748607125
 10
19.4534167153392659
 20
126.8763971641444783
 10
19.4574048144330014
 20
126.8750103211970384
 10
19.4613810427206388
 20
126.8736137460183642
 10
19.465345400202164
 20
126.8722074386085126
 10
19.4692978868775839
 20
126.8707913989674125
 10
19.4732385027468951
 20
126.8693656270951351
 10
19.4771672478101081
 20
126.8679301229916234
 10
19.4810841220672089
 20
126.8664848866569059
 10
19.4849891255182044
 20
126.8650299180909826
 10
19.4888822581630947
 20
126.8635652172938535
 10
19.4927635200018798
 20
126.8620907842655043
 10
19.4966329110345598
 20
126.8606066190059778
 10
19.5004904312611345
 20
126.8591127215151886
 10
19.5043360806816004
 20
126.857609091793222
 10
19.5081698592959611
 20
126.8560957298400353
 10
19.5119917671042131
 20
126.8545726356556429
 10
19.515801804106367
 20
126.8530398092400446
 10
19.5195999703024086
 20
126.8514972505932121
 10
19.5233862656923449
 20
126.8499449597152022
 10
19.5271606902761725
 20
126.8483829366059581
 10
19.5309232440538985
 20
126.8468111812655366
 10
19.5346739270255192
 20
126.8452296936938666
 10
19.5384127391910347
 20
126.8436384738909908
 10
19.5421396805504379
 20
126.8420375218569234
 10
19.5458547511037395
 20
126.8404268375916502
 10
19.5495579508509323
 20
126.8388064210951427
 10
19.553249279792027
 20
126.8371762723674294
 10
19.5569287379270094
 20
126.8355363914085103
 10
19.5605963252558865
 20
126.8338867782183996
 10
19.5642520417786585
 20
126.8322274327970547
 10
19.5678958874953217
 20
126.8305583551445181
 10
19.5715278624058797
 20
126.8288795452607616
 10
19.5751479665103361
 20
126.8271910031457992
 10
19.5787561998086836
 20
126.8254927287996168
 10
19.582352562300926
 20
126.8237847222222285
 10
19.5859370539870596
 20
126.8220669834136203
 10
19.5895096748670881
 20
126.8203395123738062
 10
19.5930704249410148
 20
126.8186023091028005
 10
19.5966193042088292
 20
126.8168553736005748
 10
19.600156312670542
 20
126.8150987058671291
 10
19.6036814503261496
 20
126.8133323059024917
 10
19.607194717175652
 20
126.8115561737066344
 10
19.610696113219042
 20
126.809770309279557
 10
19.614185638456334
 20
126.8079747126212879
 10
19.6176632928875136
 20
126.8061693837317989
 10
19.6211290765125881
 20
126.8043543226110899
 10
19.6245829893315573
 20
126.802529529259175
 10
19.6280250313444249
 20
126.8006950036760685
 10
19.6314552025511873
 20
126.798850745861742
 10
19.6348735029518338
 20
126.7969967558161954
 10
19.6382799325463822
 20
126.7951330335394431
 10
19.6416744913348218
 20
126.7932595790314849
 10
19.6450571793171562
 20
126.7913763922923209
 10
19.6484279964933855
 20
126.7894834733219227
 10
19.6517869428635095
 20
126.7875808221203471
 10
19.6551340184275247
 20
126.7856684386875372
 10
19.6584692231854348
 20
126.7837463230235358
 10
19.6617925571372361
 20
126.7818144751283143
 10
19.6651040202829392
 20
126.7798728950018869
 10
19.6684036126225301
 20
126.7779215826442396
 10
19.6716913341560158
 20
126.7759605380553865
 10
19.6749671848833998
 20
126.7739897612353275
 10
19.678231164804675
 20
126.7720092521840485
 10
19.6814832739198451
 20
126.7700190109015637
 10
19.6847235122289064
 20
126.768019037387873
 10
19.6879518797318624
 20
126.7660093316429766
 10
19.6911683764287133
 20
126.7639898936668601
 10
19.694373002319459
 20
126.7619607234595236
 10
19.6975657574040994
 20
126.7599218210210097
 10
19.7007466416826347
 20
126.7578731863512473
 10
19.7039156551550576
 20
126.7558148194503076
 10
19.7070727978213789
 20
126.753746720318162
 10
19.710218069681595
 20
126.7516688889547822
 10
19.7133514707357023
 20
126.7495813253601682
 10
19.7164730009837044
 20
126.747484029534391
 10
19.7195826604256048
 20
126.7453770014773795
 10
19.7226804490613929
 20
126.7432602411891622
 10
19.7257663668910794
 20
126.7411337486697533
 10
19.7288404139146571
 20
126.7389975239191102
 10
19.7319025901321297
 20
126.7368515669372613
 10
19.7349528955435005
 20
126.7346958777242065
 10
19.7379913301487626
 20
126.732530456279946
 10
19.7410178939479124
 20
126.7303553026044796
 10
19.7440325869409712
 20
126.7281704166977789
 10
19.7470354091279141
 20
126.7259757985598725
 10
19.7500263605087518
 20
126.7237714481907602
 10
19.7530054410834843
 20
126.7215573655904564
 10
19.7559726508521081
 20
126.7193335507589325
 10
19.7589279898146266
 20
126.7171000036961885
 10
19.7618714579710435
 20
126.7148567244022388
 10
19.7648030553213481
 20
126.712603712877069
 10
19.767722781865551
 20
126.7103409691207361
 10
19.7706306376036522
 20
126.7080684931331405
 10
19.7735266225356376
 20
126.7057862849143532
 10
19.7764107366615249
 20
126.7034943444643602
 10
19.7792829799812999
 20
126.7011926717831471
 10
19.7821433524949732
 20
126.6988812668707283
 10
19.7849918542025378
 20
126.6965601297271036
 10
19.7878284851040007
 20
126.6942292603522588
 10
19.7906532451993584
 20
126.6918886587462225
 10
19.7934661344886003
 20
126.6895383249089662
 10
19.7962671529717404
 20
126.6871782588404756
 10
19.799056300648779
 20
126.6848084605408076
 10
19.8018335775197087
 20
126.6824289300099196
 10
19.8045989835845297
 20
126.6800396672478257
 10
19.8073525188432527
 20
126.6776406722544976
 10
19.8100941832958668
 20
126.6752319450299922
 10
19.8128239769423722
 20
126.6728134855742525
 10
19.8155418997827724
 20
126.6703852938873069
 10
19.8182479518170673
 20
126.6679473699691556
 10
19.8209421330452571
 20
126.6654997138197842
 10
19.8236244434673381
 20
126.6630423254392497
 10
19.8262948830833139
 20
126.6605752048274525
 10
19.8289534518931916
 20
126.6580983519844636
 10
19.8316001498969534
 20
126.6556117669102548
 42
-0.2148899109718783
 10
20.1696177627880928
 20
125.8068203110361623
 42
-0.1001913794401356
 10
20.0774311410905071
 20
125.369870713884211
 42
-0.0965402896310547
 10
19.8158609705827331
 20
124.9775154581225394
 42
-0.1106023788064077
 10
19.4238804571856924
 20
124.7223159078133818
 10
20.2782930485291431
 20
123.0
 10
19.5190650178002727
 20
123.0
 10
18.7156173880457288
 20
124.6526138279932496
 10
18.2366966460558437
 20
124.6526138279932496
 10
18.2366966460558437
 20
123.0
  0
LWPOLYLINE
  5
FF
100
AcDbEntity
  8
VectorEngraving
 62
256
370
-1
 48
1.0
  6
BYLAYER
100
AcDbPolyline
 90
7
 70
129
 10
18.2366966460558437
 20
125.2522016113921666
 10
18.8175473112235423
 20
125.2522016113921666
 42
0.1918312228860099
 10
19.2766067078883339
 20
125.39572793704329
 42
0.2154606779080961
 10
19.4298763350196815
 20
125.7880831928049474
 42
0.1955098707729217
 10
19.2766067078883339
 20
126.18343638748361
 42
0.2146607426727006
 10
18.8175473112235423
 20
126.3494472550121799
 10
18.2366966460558437
 20
126.3494472550121799
  0
LWPOLYLINE
  5
100
100
AcDbEntity
  8
VectorEngraving
 62
256
370
-1
 48
1.0
  6
BYLAYER
100
AcDbPolyline
 90
13
 70
129
 10
20.9985478733370883
 20
123.0
 10
20.4754075323215368
 20
126.9745175192055484
 10
21.1004777965149017
 20
126.9745175192055484
 10
21.3687933295859196
 20
124.4802323402660704
 10
21.8791924302042418
 20
126.6619823871088641
 10
22.2614296421210511
 20
126.6619823871088641
 10
22.7718287427393733
 20
124.4862282181000523
 10
22.9824339516582441
 20
126.9745175192055484
 10
23.5692804946599281
 20
126.9745175192055484
 10
23.0528855162076169
 20
123.0
 10
22.6001967397414347
 20
123.0
 10
22.0380831928049545
 20
125.4500655799138116
 10
21.4639778902004963
 20
123.0
  0
LWPOLYLINE
  5
101
100
AcDbEntity
  8
VectorEngraving
 62
256
370
-1
 48
1.0
  6
BYLAYER
100
AcDbPolyline
 90
12
 70
129
 10
27.1150927487352504
 20
123.0
 10
27.1150927487352504
 20
126.9745175192055484
 10
29.70531197301856
 20
126.9745175192055484
 10
29.70531197301856
 20
126.3876709762038644
 10
27.8166104553119808
 20
126.3876709762038644
 10
27.8166104553119808
 20
125.3668727749672058
 10
29.3672943601274206
 20
125.3668727749672058
 10
29.3672943601274206
 20
124.773280869402285
 10
27.8166104553119808
 20
124.773280869402285
 10
27.8166104553119808
 20
123.586846543001684
 10
29.6858253700580903
 20
123.586846543001684
 10
29.6858253700580903
 20
123.0
  0
LWPOLYLINE
  5
102
100
AcDbEntity
  8
VectorEngraving
 62
256
370
-1
 48
1.0
  6
BYLAYER
100
AcDbPolyline
 90
13
 70
129
 10
30.1827337455499425
 20
123.0
 10
30.1827337455499425
 20
126.9745175192055484
 10
30.8145493723065442
 20
126.9745175192055484
 10
31.5865186434326475
 20
125.1495222034851054
 10
32.3584879145587507
 20
126.9805133970395303
 10
32.990303541315356
 20
126.9805133970395303
 10
32.990303541315356
 20
123.0
 10
32.3644837923927398
 20
123.0
 10
32.3644837923927398
 20
125.7753419524077145
 10
31.7394135281993712
 20
124.3138467303728731
 10
31.388654674911006
 20
124.3138467303728731
 10
30.8018081319093184
 20
125.7685965898444778
 10
30.8018081319093184
 20
123.0
  0
LWPOLYLINE
  5
103
100
AcDbEntity
  8
VectorEngraving
 62
256
370
-1
 48
1.0
  6
BYLAYER
100
AcDbPolyline
 90
39
 70
129
 10
10.7748266816563625
 20
117.9486602960464694
 42
-0.0824589363782453
 10
10.0313378302417107
 20
118.066704140903127
 42
-0.1239231858746635
 10
9.4542345887202561
 20
118.4275810380363509
 10
9.8049934420086213
 20
119.0204234588720311
 10
9.8304759228030747
 20
119.0713884204609343
 10
9.88818624695522
 20
119.0399100618324866
 42
0.0468697015840573
 10
9.9230372868652825
 20
118.9409780775716712
 42
0.0914502355627238
 10
10.0215945287614776
 20
118.8225594903503861
 42
0.0681594634041884
 10
10.3757260633314612
 20
118.6250702641933685
 42
0.0950027158644859
 10
10.8003091624508158
 20
118.5482480794453863
 42
0.1544690761801871
 10
11.2882237211916827
 20
118.6790331646992769
 42
0.2606540762175959
 10
11.4763443882330911
 20
119.0653925426269524
 42
0.1208512743437722
 10
11.4190088064455697
 20
119.3044781712572586
 42
0.1219613454319486
 10
11.1926644182124804
 20
119.5308225594903462
 42
0.0382540592904288
 10
10.6916338767097638
 20
119.799138092561364
 42
-0.0581074828848944
 10
10.0440790706389365
 20
120.1592655049653331
 42
-0.1200427752267872
 10
9.7030635188308061
 20
120.5549934420086231
 42
-0.1126833292539361
 10
9.6011335956529908
 20
121.0365373805508682
 42
-0.1592312928671675
 10
9.7637717818999459
 20
121.5596777215664304
 42
-0.1317713073948123
 10
10.21346261944913
 20
121.9231778152520178
 42
-0.1105525077854751
 10
10.8707607270001887
 20
122.0573355817875267
 42
-0.2184592046670086
 10
12.0759321716320045
 20
121.5469364811691975
 10
11.6547217537942682
 20
121.062019861345334
 10
11.6164980326025873
 20
121.0178002623196534
 10
11.5655330710136788
 20
121.0560239835113379
 42
0.0525272950835203
 10
11.5434232715008456
 20
121.15458122540754
 42
0.0946983163544973
 10
11.4576072700018763
 20
121.2786209480981796
 42
0.1239145974077829
 10
11.1990350384110933
 20
121.4322653175941582
 42
0.0674802657518822
 10
10.8767566048341777
 20
121.4704890387858427
 42
0.1710695699774017
 10
10.4619168071950543
 20
121.3490725126475525
 42
0.2395241755843661
 10
10.3086471800637085
 20
121.0687652239085708
 42
0.1315107380141043
 10
10.3663575042158538
 20
120.8386734120292374
 42
0.1136957301831851
 10
10.5994472550121799
 20
120.6220723252763776
 42
0.0383547771665057
 10
11.1383267753419517
 20
120.3477609143713778
 42
-0.0534254991441856
 10
11.7697676597339349
 20
119.9872587596027813
 42
-0.1275968227178211
 10
12.0920460933108505
 20
119.601274124039719
 42
-0.1042366901074586
 10
12.1846074573730583
 20
119.1103616263818594
 42
-0.1279801959423837
 10
12.0377084504403236
 20
118.5546186996439957
 42
-0.1467899336018237
 10
11.5782743114109063
 20
118.1176691024920444
 42
-0.1239665239213993
  0
LWPOLYLINE
  5
104
100
AcDbEntity
  8
VectorEngraving
 62
256
370
-1
 48
1.0
  6
BYLAYER
100
AcDbPolyline
 90
18
 70
129
 10
12.6620292299044426
 20
121.9936293798013907
 10
13.4467397414277698
 20
121.9936293798013907
 10
13.4467397414277698
 20
121.9359190556492365
 42
0.1523096199732694
 10
13.3991474611204815
 20
121.849728311785654
 42
0.0437068677127843
 10
13.3897789020048741
 20
121.6998313659359212
 10
13.3897789020048741
 20
120.3792392729998113
 10
14.6144369495971524
 20
120.3792392729998113
 10
14.6144369495971524
 20
121.9936293798013907
 10
15.3991474611204815
 20
121.9936293798013907
 10
15.3991474611204815
 20
121.9359190556492365
 42
0.1689875292192488
 10
15.3545531197301877
 20
121.849728311785654
 42
0.0297994704279066
 10
15.3481824995315748
 20
121.6998313659359212
 10
15.3481824995315748
 20
118.0191118605958422
 10
14.6144369495971524
 20
118.0191118605958422
 10
14.6144369495971524
 20
119.8051339703953602
 10
13.3897789020048741
 20
119.8051339703953602
 10
13.3897789020048741
 20
118.0191118605958422
 10
12.6620292299044426
 20
118.0191118605958422
  0
LWPOLYLINE
  5
105
100
AcDbEntity
  8
VectorEngraving
 62
256
370
-1
 48
1.0
  6
BYLAYER
100
AcDbPolyline
 90
13
 70
129
 10
19.034148397976395
 20
121.9936293798013907
 10
19.7866310661420286
 20
121.9936293798013907
 10
21.1327056398725901
 20
119.3779276747236224
 10
21.0944819186809056
 20
121.9936293798013907
 10
21.7967491099868838
 20
121.9936293798013907
 10
21.7967491099868838
 20
121.9359190556492365
 42
0.1276856979477136
 10
21.7547779651489606
 20
121.849728311785654
 42
0.0454369266293495
 10
21.7450346636687293
 20
121.6998313659359212
 10
21.7450346636687293
 20
118.0191118605958422
 10
21.0757448004496908
 20
118.0191118605958422
 10
19.6847011429642151
 20
120.8071950534007897
 10
19.6847011429642151
 20
118.0191118605958422
 10
19.034148397976395
 20
118.0191118605958422
  0
LWPOLYLINE
  5
106
100
AcDbEntity
  8
VectorEngraving
 62
256
370
-1
 48
1.0
  6
BYLAYER
100
AcDbPolyline
 90
518
 70
129
 10
23.5947629754543762
 20
117.9426644182124875
 42
-0.2591303879110666
 10
22.4847760914371406
 20
118.4785459996252541
 10
22.4818424470017675
 20
118.4827394819626107
 10
22.4789202845407097
 20
118.4869467792650397
 10
22.476009604053953
 20
118.4911678915325837
 10
22.4731104055415045
 20
118.4954028187652142
 10
22.4702226890033678
 20
118.4996515609629597
 10
22.4673464544395287
 20
118.5039141181258202
 10
22.4644817018499978
 20
118.5081904902537673
 10
22.4616284312347823
 20
118.5124806773468151
 10
22.4587866425938643
 20
118.5167846794049638
 10
22.455956335927258
 20
118.5211024964282416
 10
22.45313751123496
 20
118.5254341284165918
 10
22.4503301685169561
 20
118.5297795753700569
 10
22.447534307773271
 20
118.5341388372886229
 10
22.4447499290038905
 20
118.5385119141722754
 10
22.4419770322088148
 20
118.5428988060210429
 10
22.4392156173880473
 20
118.5472995128349254
 10
22.436465684541588
 20
118.5517140346139087
 10
22.4337272336694369
 20
118.5561423713579785
 10
22.4310002647715869
 20
118.5605845230671491
 10
22.4282847778480416
 20
118.5650404897414347
 10
22.4255807728988117
 20
118.5695102713807927
 10
22.4228882499238793
 20
118.5739938679852941
 10
22.4202072089232622
 20
118.5784912795548536
 10
22.4175376498969463
 20
118.5830025060895565
 10
22.4148795728449457
 20
118.587527547589346
 10
22.4122329777672427
 20
118.5920664040542363
 10
22.4095978646638514
 20
118.5966190754842273
 10
22.4069742335347613
 20
118.6011855618793049
 10
22.4043620843799793
 20
118.605765863239526
 10
22.4017614171995092
 20
118.6103599795648336
 10
22.3991722319933402
 20
118.6149679108552135
 10
22.3965945287614758
 20
118.6195896571107369
 10
22.3940283075039268
 20
118.6242252183313326
 10
22.3914735682206789
 20
118.6288745945170433
 10
22.3889303109117392
 20
118.633537785667869
 10
22.3863985355771078
 20
118.6382147917837813
 10
22.383878242216781
 20
118.6429056128647943
 10
22.3813694308307589
 20
118.6476102489108939
 10
22.3788721014190486
 20
118.6523286999221227
 10
22.3763862539816358
 20
118.6570609658984239
 10
22.373911888518542
 20
118.6618070468398685
 10
22.3714490050297492
 20
118.6665669427463996
 10
22.3689976035152611
 20
118.6713406536180031
 10
22.3665576839750813
 20
118.67612817945475
 10
22.3641292464092096
 20
118.6809295202565693
 10
22.3617122908176427
 20
118.6857446760235177
 10
22.3593068172003839
 20
118.6905736467555528
 10
22.3569128255574334
 20
118.6954164324526886
 10
22.3545303158887876
 20
118.7002730331149394
 10
22.35215928819445
 20
118.7051434487422483
 10
22.349799742474417
 20
118.7100276793347149
 10
22.3474516787286888
 20
118.7149257248922538
 10
22.3451150969572687
 20
118.7198375854149077
 10
22.3427899971601605
 20
118.7247632609026624
 10
22.3404763793373533
 20
118.7297027513555179
 10
22.3381742434888544
 20
118.7346560567734741
 10
22.3358835896146672
 20
118.7396231771565027
 10
22.3336044177147741
 20
118.7446041125046747
 10
22.3313367277891999
 20
118.7495988628179475
 10
22.3290805198379267
 20
118.7546074280962927
 10
22.3268357938609654
 20
118.7596298083397812
 10
22.3246025498583016
 20
118.7646660035483421
 10
22.3223807878299532
 20
118.769716013722018
 10
22.3201705077759058
 20
118.7747798388607947
 10
22.3179717096961667
 20
118.7798574789646437
 10
22.3157843935907394
 20
118.784948934033622
 10
22.3136085594596096
 20
118.7900542040676868
 10
22.3114442073027988
 20
118.795173289066895
 10
22.3092913371202819
 20
118.8003061890311756
 10
22.3071499489120768
 20
118.8054529039605569
 10
22.3050200426781799
 20
118.8106134338550532
 10
22.3029016184185878
 20
118.8157877787146219
 10
22.3007946761333073
 20
118.8209759385393198
 10
22.2986992158223245
 20
118.8261779133291043
 10
22.296615237485657
 20
118.8313937030840322
 10
22.2945427411232906
 20
118.836623307804004
 10
22.2924817267352395
 20
118.841866727489105
 10
22.2904321943214825
 20
118.8471239621393067
 10
22.2883941438820408
 20
118.8523950117545951
 10
22.2863675754169037
 20
118.8576798763350126
 10
22.2843524889260749
 20
118.8629785558805168
 10
22.2823488844095507
 20
118.8682910503911216
 10
22.2803567618673313
 20
118.8736173598668557
 10
22.2783761212994236
 20
118.878957484307648
 10
22.276406962705817
 20
118.8843114237135694
 10
22.2744492860865222
 20
118.8896791780846058
 10
22.2725030914415321
 20
118.8950607474207146
 10
22.2705683787708466
 20
118.9004561317219384
 10
22.2686451480744694
 20
118.9058653309882629
 10
22.2667333993524039
 20
118.9112883452197025
 10
22.264833132604636
 20
118.9167251744162002
 10
22.2629443478311799
 20
118.9221758185778555
 10
22.2610670450320356
 20
118.9276402777045831
 10
22.2592012242071888
 20
118.9331185517964116
 10
22.2573468853566503
 20
118.9386106408533692
 10
22.2555040284804235
 20
118.944116544875385
 10
22.2536726535785014
 20
118.94963626386253
 10
22.251852760650884
 20
118.9551697978147899
 10
22.2500443496975748
 20
118.9607171467321223
 10
22.2482474207185703
 20
118.9662783106145838
 10
22.2464619737138705
 20
118.9718532894621319
 10
22.2446880086834824
 20
118.9774420832747808
 10
22.2429255256274061
 20
118.9830446920525304
 10
22.2411745245456274
 20
118.9886611157953809
 10
22.2394350054381604
 20
118.9942913545033605
 10
22.2377069683049946
 20
118.9999354081763983
 10
22.235990413146137
 20
119.0055932768145794
 10
22.2342853399615947
 20
119.011264960417833
 10
22.23259174875135
 20
119.0169504589862015
 10
22.23090963951541
 20
119.0226497725196566
 10
22.2292390122537853
 20
119.0283629010182551
 10
22.2275798669664653
 20
119.034089844481926
 10
22.2259322036534499
 20
119.0398306029106834
 10
22.2242960223147392
 20
119.04558517630457
 10
22.2226713229503332
 20
119.0513535646635432
 10
22.221058105560239
 20
119.0571357679876314
 10
22.2194563701444565
 20
119.0629317862768204
 10
22.2178661167029752
 20
119.0687416195310959
 10
22.2162873452357985
 20
119.0745652677504722
 10
22.2147200557429301
 20
119.080402730934992
 10
22.2131642482243663
 20
119.0862540090845698
 10
22.2116199226801108
 20
119.0921191021992769
 10
22.2100870791101634
 20
119.0979980102790705
 10
22.2085657175145244
 20
119.1038907333239649
 10
22.2070558378931864
 20
119.1097972713339601
 10
22.2055574402461602
 20
119.1157176243090703
 10
22.2040705245734387
 20
119.1216517922492812
 10
22.2025950908750254
 20
119.1275997751545788
 10
22.2011311391509167
 20
119.1335615730249913
 10
22.1996786694011163
 20
119.1395371858604904
 10
22.1982376816256206
 20
119.1455266136611044
 10
22.1968081758244367
 20
119.1515298564268335
 10
22.1953901519975503
 20
119.1575469141576491
 10
22.1939836101449792
 20
119.1635777868535655
 10
22.1925885502667128
 20
119.1696224745145969
 10
22.1912049723627547
 20
119.1756809771407006
 10
22.1898328764331012
 20
119.1817532947319336
 10
22.1884722624777524
 20
119.1878394272882531
 10
22.1871231304967083
 20
119.1939393748097018
 10
22.1857854804899759
 20
119.2000531372962371
 10
22.1844593124575482
 20
119.2061807147478589
 10
22.1831446263994323
 20
119.2123221071645958
 10
22.1818414223156211
 20
119.2184773145464476
 10
22.1805497002061145
 20
119.224646336893386
 10
22.1792694600709055
 20
119.2308291742054251
 10
22.1780007019100154
 20
119.2370258264825793
 10
22.1767434257234299
 20
119.2432362937248058
 10
22.1754976315111492
 20
119.2494605759321757
 10
22.1742633192731766
 20
119.255698673104618
 10
22.1730404890095159
 20
119.2619505852421753
 10
22.1718291407201491
 20
119.2682163123448333
 10
22.1706292744050977
 20
119.2744958544125922
 10
22.1694408900643545
 20
119.2807892114454376
 10
22.1682639876979124
 20
119.2870963834434122
 10
22.1670985673057785
 20
119.2934173704065017
 10
22.1659446288879565
 20
119.299752172334621
 10
22.164802172444432
 20
119.3061007892279122
 10
22.1636711979752263
 20
119.3124632210862615
 10
22.1625517054803183
 20
119.3188394679097541
 10
22.1614436949597149
 20
119.3252295296983334
 10
22.1603471664134233
 20
119.3316334064519992
 10
22.1592621198414399
 20
119.3380510981707801
 10
22.1581885552437612
 20
119.3444826048546759
 10
22.1571264726203907
 20
119.350927926503644
 10
22.1560758719713213
 20
119.3573870631177272
 10
22.1550367532965602
 20
119.3638600146969395
 10
22.1540091165961108
 20
119.37034678124121
 10
22.1529929618699626
 20
119.3768473627506097
 10
22.1519882891181297
 20
119.383361759225096
 10
22.1509950983405943
 20
119.389889970664683
 10
22.1500133895373708
 20
119.3964319970693992
 10
22.1490431627084519
 20
119.4029878384392021
 10
22.1480844178538376
 20
119.4095574947741056
 10
22.1471371549735352
 20
119.4161409660741242
 10
22.1462013740675374
 20
119.4227382523392009
 10
22.1452770751358443
 20
119.4293493535694068
 10
22.1443642581784594
 20
119.4359742697647278
 10
22.1434629231953792
 20
119.4426130009251494
 10
22.1425730701866108
 20
119.4492655470506719
 10
22.1416946991521471
 20
119.4559319081412809
 10
22.140827810091988
 20
119.4626120841969907
 10
22.1399724030061407
 20
119.4693060752178297
 10
22.1391284778945909
 20
119.4760138812037553
 10
22.1382960347573565
 20
119.4827355021547532
 10
22.1374750735944268
 20
119.4894709380708946
 10
22.1366655944057982
 20
119.4962201889521225
 10
22.1358675971914813
 20
119.5029832547984654
 10
22.1350810819514727
 20
119.5097601356098949
 10
22.1343060486857723
 20
119.5165508313864251
 10
22.1335424973943731
 20
119.5233553421280561
 10
22.1327904280772785
 20
119.5301736678348163
 10
22.1320498407344957
 20
119.5370058085066347
 10
22.1313207353660175
 20
119.5438517641435965
 10
22.1306031119718511
 20
119.5507115347456448
 10
22.1298969705519859
 20
119.5575851203127797
 10
22.1292023111064289
 20
119.5644725208450438
 10
22.1285191336351801
 20
119.5713737363423945
 10
22.127847438138236
 20
119.578288766804846
 10
22.1271872246155965
 20
119.5852176122324124
 10
22.1265384930672653
 20
119.5921602726250796
 10
22.1259012434932458
 20
119.5991167479828192
 10
22.1252754758935275
 20
119.606087038305688
 10
22.1246611902681209
 20
119.6130711435936718
 10
22.1240583866170155
 20
119.6200690638467279
 10
22.1234670649402183
 20
119.627080799064899
 10
22.1228872252377293
 20
119.6341063492481709
 10
22.1223188675095415
 20
119.6411457143965578
 10
22.1217619917556689
 20
119.6481988945100454
 10
22.1212165979761011
 20
119.6552658895886054
 10
22.1206826861708379
 20
119.6623466996322662
 10
22.1201602563398865
 20
119.6694413246410562
 10
22.1196493084832291
 20
119.676549764614947
 10
22.119149842600887
 20
119.6836720195539385
 10
22.1186618586928532
 20
119.6908080894580308
 10
22.118185356759124
 20
119.6979579743272097
 10
22.1177203367996995
 20
119.7051216741615178
 10
22.1172667988145868
 20
119.7122991889609125
 10
22.1168247428037787
 20
119.7194905187254079
 10
22.1163941687672754
 20
119.7266956634550041
 10
22.1159750767050767
 20
119.7339146231497153
 10
22.1155674666171898
 20
119.7411473978095131
 10
22.1151713385036111
 20
119.7483939874344117
 10
22.1147866923643335
 20
119.7556543920244252
 10
22.1144135281993606
 20
119.7629286115795253
 10
22.1140518460086994
 20
119.7702166460997546
 10
22.1137016457923465
 20
119.7775184955850705
 10
22.1133629275502983
 20
119.7848341600354729
 10
22.1130356912825548
 20
119.7921636394510045
 10
22.112719936989123
 20
119.7995069338316085
 10
22.1124156646699923
 20
119.8068640431773559
 10
22.1121228743251734
 20
119.8142349674881757
 10
22.1118415659546592
 20
119.821619706764082
 10
22.1115717395584497
 20
119.8290182610051176
 10
22.1113133951365484
 20
119.8364306302112539
 10
22.1110665326889553
 20
119.8438568143824909
 10
22.1108311522156669
 20
119.8512968135188146
 10
22.1106072537166796
 20
119.8587506276202674
 10
22.1103948371920112
 20
119.8662182566868069
 10
22.1101939026416368
 20
119.873699700718447
 10
22.1100044500655812
 20
119.881194959715188
 10
22.1098264794638233
 20
119.8887040336770298
 10
22.1096599908363807
 20
119.8962269226039865
 10
22.1095049841832392
 20
119.9037636264960298
 10
22.1093614595044059
 20
119.9113141453531881
 10
22.1092294167998773
 20
119.9188784791754614
 10
22.1091088560696569
 20
119.926456627962807
 10
22.1089997773137412
 20
119.9340485917152677
 10
22.1089021805321373
 20
119.9416543704328149
 10
22.108816065724838
 20
119.9492739641154913
 10
22.1087414328918399
 20
119.9569073727632542
 10
22.1086782820331536
 20
119.9645545963761037
 10
22.1086266131487754
 20
119.9722156349540967
 10
22.108586426238702
 20
119.979890488497162
 10
22.1085577213029332
 20
119.9875791570053423
 10
22.1085404983414726
 20
119.9952816404786233
 10
22.1085347573543203
 20
120.002997938916991
 42
-0.1520552001394002
 10
22.4847760914371406
 20
121.5083380176128998
 42
-0.2609893822229461
 10
23.5947629754543762
 20
122.05059021922429
 42
-0.2598887638008083
 10
24.6953813003560043
 20
121.5083380176128998
 42
-0.153235787644082
 10
25.074995315720443
 20
120.002997938916991
 10
25.0749895232702613
 20
119.9952816404786233
 10
25.0749721459197019
 20
119.9875791570053423
 10
25.0749431836687755
 20
119.979890488497162
 10
25.074902636517475
 20
119.9722156349540967
 10
25.0748505044658003
 20
119.9645545963761037
 10
25.0747867875137622
 20
119.9569073727632542
 10
25.0747114856613464
 20
119.9492739641154913
 10
25.0746245989085637
 20
119.9416543704328149
 10
25.0745261272554103
 20
119.9340485917152677
 10
25.0744160707018828
 20
119.926456627962807
 10
25.0742944292479812
 20
119.9188784791754614
 10
25.0741612028937162
 20
119.9113141453531881
 10
25.0740163916390735
 20
119.9037636264960298
 10
25.0738599954840637
 20
119.8962269226039865
 10
25.0736920144286799
 20
119.8887040336770298
 10
25.0735124484729219
 20
119.881194959715188
 10
25.0733212976168005
 20
119.873699700718447
 10
25.073118561860305
 20
119.8662182566868069
 10
25.0729042412034353
 20
119.8587506276202674
 10
25.0726783356461986
 20
119.8512968135188146
 10
25.0724408451885878
 20
119.8438568143824909
 10
25.0721917698306029
 20
119.8364306302112539
 10
25.071931109572251
 20
119.8290182610051176
 10
25.0716588644135285
 20
119.821619706764082
 10
25.0713750343544355
 20
119.8142349674881757
 10
25.0710796193949719
 20
119.8068640431773559
 10
25.070772619535127
 20
119.7995069338316085
 10
25.0704540347749223
 20
119.7921636394510045
 10
25.0701238651143434
 20
119.7848341600354729
 10
25.0697821105533905
 20
119.7775184955850705
 10
25.0694287710920669
 20
119.7702166460997546
 10
25.0690638467303728
 20
119.7629286115795253
 10
25.0686873374683081
 20
119.7556543920244252
 10
25.0682992433058764
 20
119.7483939874344117
 10
25.0678995642430671
 20
119.7411473978095131
 10
25.0674883002798872
 20
119.7339146231497153
 10
25.0670654514163367
 20
119.7266956634550041
 10
25.0666310176524156
 20
119.7194905187254079
 10
25.066184998988124
 20
119.7122991889609125
 10
25.0657273954234618
 20
119.7051216741615178
 10
25.0652582069584255
 20
119.6979579743272097
 10
25.0647774335930187
 20
119.6908080894580308
 10
25.0642850753272413
 20
119.6836720195539385
 10
25.0637811321610933
 20
119.676549764614947
 10
25.0632656040945747
 20
119.6694413246410562
 10
25.062738491127682
 20
119.6623466996322662
 10
25.0621997932604224
 20
119.6552658895886054
 10
25.061649510492785
 20
119.6481988945100454
 10
25.0610876428247806
 20
119.6411457143965578
 10
25.0605141902564057
 20
119.6341063492481709
 10
25.0599291527876602
 20
119.627080799064899
 10
25.0593325304185406
 20
119.6200690638467279
 10
25.0587243231490504
 20
119.6130711435936718
 10
25.0581045309791932
 20
119.606087038305688
 10
25.0574731539089584
 20
119.5991167479828192
 10
25.0568301919383529
 20
119.5921602726250796
 10
25.056175645067384
 20
119.5852176122324124
 10
25.0555095132960375
 20
119.578288766804846
 10
25.0548317966243204
 20
119.5713737363423945
 10
25.0541424950522256
 20
119.5644725208450438
 10
25.0534416085797709
 20
119.5575851203127797
 10
25.0527291372069421
 20
119.5507115347456448
 10
25.0520050809337356
 20
119.5438517641435965
 10
25.0512694397601692
 20
119.5370058085066347
 10
25.0505222136862216
 20
119.5301736678348163
 10
25.0497634027119069
 20
119.5233553421280561
 10
25.0489930068372217
 20
119.5165508313864251
 10
25.0482110260621624
 20
119.5097601356098949
 10
25.0474174603867326
 20
119.5029832547984654
 10
25.0466123098109321
 20
119.4962201889521225
 10
25.0457955743347576
 20
119.4894709380708946
 10
25.0449672539582195
 20
119.4827355021547532
 10
25.0441273486813039
 20
119.4760138812037553
 10
25.0432758585040176
 20
119.4693060752178297
 10
25.0424127834263608
 20
119.4626120841969907
 10
25.0415381234483334
 20
119.4559319081412809
 10
25.0406518785699319
 20
119.4492655470506719
 10
25.0397540487911634
 20
119.4426130009251494
 10
25.0388446341120243
 20
119.4359742697647278
 10
25.0379236345325111
 20
119.4293493535694068
 10
25.0369910500526274
 20
119.4227382523392009
 10
25.036046880672373
 20
119.4161409660741242
 10
25.0350911263917446
 20
119.4095574947741056
 10
25.0341237872107456
 20
119.4029878384392021
 10
25.0331448631293725
 20
119.3964319970693992
 10
25.0321543541476359
 20
119.389889970664683
 10
25.0311522602655288
 20
119.383361759225096
 10
25.0301385814830439
 20
119.3768473627506097
 10
25.0291133178001886
 20
119.37034678124121
 10
25.0280764692169697
 20
119.3638600146969395
 10
25.0270280357333661
 20
119.3573870631177272
 10
25.0259680173494026
 20
119.350927926503644
 10
25.0248964140650614
 20
119.3444826048546759
 10
25.0238132258803532
 20
119.3380510981707801
 10
25.0227184527952744
 20
119.3316334064519992
 10
25.021612094809818
 20
119.3252295296983334
 10
25.0204941519239945
 20
119.3188394679097541
 10
25.0193646241378005
 20
119.3124632210862615
 10
25.0182235114512359
 20
119.3061007892279122
 10
25.0170708138643008
 20
119.299752172334621
 10
25.0159065313769879
 20
119.2934173704065017
 10
25.0147306639893117
 20
119.2870963834434122
 10
25.0135432117012613
 20
119.2807892114454376
 10
25.0123441745128332
 20
119.2744958544125922
 10
25.0111335524240417
 20
119.2682163123448333
 10
25.0099113454348796
 20
119.2619505852421753
 10
25.0086775535453434
 20
119.255698673104618
 10
25.0074321767554366
 20
119.2494605759321757
 10
25.0061752150651557
 20
119.2432362937248058
 10
25.0049066684745043
 20
119.2370258264825793
 10
25.0036265369834823
 20
119.2308291742054251
 10
25.0023348205920968
 20
119.224646336893386
 10
25.0010315193003301
 20
119.2184773145464476
 10
24.9997166331081928
 20
119.2123221071645958
 10
24.9983901620156885
 20
119.2061807147478589
 10
24.9970521060228137
 20
119.2000531372962371
 10
24.9957024651295647
 20
119.1939393748097018
 10
24.9943412393359452
 20
119.1878394272882531
 10
24.9929684286419516
 20
119.1817532947319336
 10
24.9915840330475945
 20
119.1756809771407006
 10
24.9901880525528597
 20
119.1696224745145969
 10
24.9887804871577544
 20
119.1635777868535655
 10
24.987361336862282
 20
119.1575469141576491
 10
24.985930601666432
 20
119.1515298564268335
 10
24.984488281570215
 20
119.1455266136611044
 10
24.9830343765736202
 20
119.1395371858604904
 10
24.9815688866766656
 20
119.1335615730249913
 10
24.9800918118793334
 20
119.1275997751545788
 10
24.978603152181627
 20
119.1216517922492812
 10
24.9771029075835571
 20
119.1157176243090703
 10
24.9755910780851096
 20
119.1097972713339601
 10
24.974067663686295
 20
119.1038907333239649
 10
24.9725326643871064
 20
119.0979980102790705
 10
24.9709860801875507
 20
119.0921191021992769
 10
24.9694279110876138
 20
119.0862540090845698
 10
24.9678581570873135
 20
119.080402730934992
 10
24.9662768181866426
 20
119.0745652677504722
 10
24.9646838943855975
 20
119.0687416195310959
 10
24.9630793856841819
 20
119.0629317862768204
 10
24.9614632920823958
 20
119.0571357679876314
 10
24.9598356135802391
 20
119.0513535646635432
 10
24.9581963501777082
 20
119.04558517630457
 10
24.9565455018748104
 20
119.0398306029106834
 10
24.9548830686715419
 20
119.034089844481926
 10
24.9532090505678994
 20
119.0283629010182551
 10
24.9515234475638792
 20
119.0226497725196566
 10
24.9498262596594991
 20
119.0169504589862015
 10
24.9481174868547413
 20
119.011264960417833
 10
24.9463971291496129
 20
119.0055932768145794
 10
24.944665186544114
 20
118.9999354081763983
 10
24.9429216590382445
 20
118.9942913545033605
 10
24.9411665466320045
 20
118.9886611157953809
 10
24.9393998493253903
 20
118.9830446920525304
 10
24.9376215671184056
 20
118.9774420832747808
 10
24.9358317000110503
 20
118.9718532894621319
 10
24.934030248003328
 20
118.9662783106145838
 10
24.932217211095228
 20
118.9607171467321223
 10
24.9303925892867611
 20
118.9551697978147899
 10
24.9285563825779235
 20
118.94963626386253
 10
24.9267085909687083
 20
118.944116544875385
 10
24.9248492144591225
 20
118.9386106408533692
 10
24.9229782530491732
 20
118.9331185517964116
 10
24.9210957067388463
 20
118.9276402777045831
 10
24.9192015755281489
 20
118.9221758185778555
 10
24.9172958594170844
 20
118.9167251744162002
 10
24.9153785584056493
 20
118.9112883452197025
 10
24.9134496724938366
 20
118.9058653309882629
 10
24.9115092016816568
 20
118.9004561317219384
 10
24.9095571459691065
 20
118.8950607474207146
 10
24.9075935053561857
 20
118.8896791780846058
 10
24.9056182798428871
 20
118.8843114237135694
 10
24.9036314694292216
 20
118.878957484307648
 10
24.9016330741151855
 20
118.8736173598668557
 10
24.8996230939007788
 20
118.8682910503911216
 10
24.897601528785998
 20
118.8629785558805168
 10
24.8955683787708466
 20
118.8576798763350126
 10
24.8935236438553211
 20
118.8523950117545951
 10
24.8914673240394286
 20
118.8471239621393067
 10
24.8893994193231656
 20
118.841866727489105
 10
24.8873199297065284
 20
118.836623307804004
 10
24.8852288551895207
 20
118.8313937030840322
 10
24.8831261957721424
 20
118.8261779133291043
 10
24.881011951454397
 20
118.8209759385393198
 10
24.8788861222362776
 20
118.8157877787146219
 10
24.8767487081177805
 20
118.8106134338550532
 10
24.8745997090989235
 20
118.8054529039605569
 10
24.8724391251796888
 20
118.8003061890311756
 10
24.87026695636008
 20
118.795173289066895
 10
24.8680832026401077
 20
118.7900542040676868
 10
24.8658878640197578
 20
118.784948934033622
 10
24.8636809404990373
 20
118.7798574789646437
 10
24.8614624320779463
 20
118.7747798388607947
 10
24.8592323387564846
 20
118.769716013722018
 10
24.8569906605346524
 20
118.7646660035483421
 10
24.8547373974124426
 20
118.7596298083397812
 10
24.8524725493898728
 20
118.7546074280962927
 10
24.8501961164669254
 20
118.7495988628179475
 10
24.8479080986436109
 20
118.7446041125046747
 10
24.8456084959199188
 20
118.7396231771565027
 10
24.8432973082958597
 20
118.7346560567734741
 10
24.84097453577143
 20
118.7297027513555179
 10
24.8386401783466226
 20
118.7247632609026624
 10
24.8362942360214518
 20
118.7198375854149077
 10
24.8339367087959069
 20
118.7149257248922538
 10
24.8315675966699914
 20
118.7100276793347149
 10
24.8291868996437017
 20
118.7051434487422483
 10
24.8267946177170415
 20
118.7002730331149394
 10
24.8243907508900108
 20
118.6954164324526886
 10
24.8219752991626095
 20
118.6905736467555528
 10
24.8195482625348376
 20
118.6857446760235177
 10
24.8171096410066951
 20
118.6809295202565693
 10
24.814659434578175
 20
118.67612817945475
 10
24.8121976432492914
 20
118.6713406536180031
 10
24.8097242670200337
 20
118.6665669427463996
 10
24.8072393058904055
 20
118.6618070468398685
 10
24.8047427598604067
 20
118.6570609658984239
 10
24.8022346289300373
 20
118.6523286999221227
 10
24.7997149130992973
 20
118.6476102489108939
 10
24.7971836123681832
 20
118.6429056128647943
 10
24.7946407267366986
 20
118.6382147917837813
 10
24.7920862562048434
 20
118.633537785667869
 10
24.7895202007726141
 20
118.6288745945170433
 10
24.7869425604400142
 20
118.6242252183313326
 10
24.7843533352070473
 20
118.6195896571107369
 10
24.7817525250737063
 20
118.6149679108552135
 10
24.7791401300399912
 20
118.6103599795648336
 10
24.776516150105909
 20
118.605765863239526
 10
24.7738805852714528
 20
118.6011855618793049
 10
24.7712334355366295
 20
118.5966190754842273
 10
24.7685747009014321
 20
118.5920664040542363
 10
24.7659043813658606
 20
118.587527547589346
 10
24.7632224769299256
 20
118.5830025060895565
 10
24.760528987593613
 20
118.5784912795548536
 10
24.7578239133569333
 20
118.5739938679852941
 10
24.755107254219876
 20
118.5695102713807927
 10
24.7523790101824517
 20
118.5650404897414347
 10
24.7496391812446568
 20
118.5605845230671491
 10
24.7468877674064878
 20
118.5561423713579785
 10
24.7441247686679482
 20
118.5517140346139087
 10
24.7413501850290416
 20
118.5472995128349254
 10
24.7385640164897644
 20
118.5428988060210429
 10
24.7357662630501132
 20
118.5385119141722754
 10
24.7329569247100878
 20
118.5341388372886229
 10
24.7301360014696918
 20
118.5297795753700569
 10
24.7273034933289253
 20
118.5254341284165918
 10
24.7244594002877918
 20
118.5211024964282416
 10
24.7216037223462806
 20
118.5167846794049638
 10
24.7187364595044023
 20
118.5124806773468151
 10
24.7158576117621536
 20
118.5081904902537673
 10
24.7129671791195271
 20
118.5039141181258202
 10
24.7100651615765408
 20
118.4996515609629597
 10
24.7071515591331732
 20
118.4954028187652142
 10
24.7042263717894386
 20
118.4911678915325837
 10
24.7012895995453299
 20
118.4869467792650397
 10
24.6983412424008542
 20
118.4827394819626107
 10
24.6953813003560043
 20
118.4785459996252541
 42
-0.2580459804199843
  0
LWPOLYLINE
  5
107
100
AcDbEntity
  8
VectorEngraving
 62
256
370
-1
 48
1.0
  6
BYLAYER
100
AcDbPolyline
 90
8
 70
129
 10
23.5947629754543762
 20
118.5295109612141857
 42
0.292419967680971
 10
24.1561270376616086
 20
118.8963837361813773
 42
0.1214329083418485
 10
24.3599868840172391
 20
120.0097433014802277
 42
0.1202673064395541
 10
24.1561270376616086
 20
121.0841296608581672
 42
0.2966022124947322
 10
23.5947629754543762
 20
121.4637436762226059
 42
0.2995688277754208
 10
23.0236556117669124
 20
121.0841296608581672
 42
0.1186384765761804
 10
22.8227937043282765
 20
120.0097433014802277
 42
0.1197837217357279
 10
23.0236556117669124
 20
118.8963837361813773
 42
0.2952609534183162
  0
LWPOLYLINE
  5
108
100
AcDbEntity
  8
VectorEngraving
 62
256
370
-1
 48
1.0
  6
BYLAYER
100
AcDbPolyline
 90
12
 70
129
 10
25.622868652801202
 20
118.0191118605958422
 10
25.622868652801202
 20
118.5999625257635444
 10
26.4008338017612907
 20
118.5999625257635444
 10
26.4008338017612907
 20
121.4127787146336885
 10
25.6670882518268684
 20
121.4127787146336885
 10
25.6670882518268684
 20
121.9936293798013907
 10
27.8615795390668914
 20
121.9936293798013907
 10
27.8615795390668914
 20
121.4127787146336885
 10
27.0836143901068027
 20
121.4127787146336885
 10
27.0836143901068027
 20
118.5999625257635444
 10
27.8938073824245834
 20
118.5999625257635444
 10
27.8938073824245834
 20
118.0191118605958422
  0
LWPOLYLINE
  5
109
100
AcDbEntity
  8
VectorEngraving
 62
256
370
-1
 48
1.0
  6
BYLAYER
100
AcDbPolyline
 90
39
 70
129
 10
29.9091718193741798
 20
117.9486602960464694
 42
-0.0824589363782489
 10
29.1656829679595297
 20
118.066704140903127
 42
-0.1239231858746532
 10
28.5885797264380734
 20
118.4275810380363509
 10
28.9393385797264386
 20
119.0204234588720311
 10
28.9648210605208938
 20
119.0713884204609343
 10
29.0225313846730373
 20
119.0399100618324866
 42
0.0468697015840806
 10
29.0573824245830998
 20
118.9409780775716712
 42
0.0914502355627525
 10
29.1559396664792949
 20
118.8225594903503861
 42
0.0681594634041837
 10
29.5100712010492785
 20
118.6250702641933685
 42
0.0950027158644888
 10
29.9346543001686349
 20
118.5482480794453863
 42
0.1544690761801973
 10
30.4225688589095
 20
118.6790331646992769
 42
0.26065407621759
 10
30.6106895259509102
 20
119.0653925426269524
 42
0.1208512743437828
 10
30.553353944163387
 20
119.3044781712572586
 42
0.1219613454319232
 10
30.3270095559302995
 20
119.5308225594903462
 42
0.0382540592904246
 10
29.8259790144275811
 20
119.799138092561364
 42
-0.0581074828848915
 10
29.1784242083567555
 20
120.1592655049653331
 42
-0.1200427752267849
 10
28.8374086565486252
 20
120.5549934420086231
 42
-0.1126833292539259
 10
28.7354787333708082
 20
121.0365373805508682
 42
-0.159231292867174
 10
28.8981169196177632
 20
121.5596777215664304
 42
-0.1317713073947961
 10
29.3478077571669473
 20
121.9231778152520178
 42
-0.1105525077854765
 10
30.0051058647180078
 20
122.0573355817875267
 42
-0.2184592046670103
 10
31.2102773093498236
 20
121.5469364811691975
 10
30.7890668915120855
 20
121.062019861345334
 10
30.7508431703204046
 20
121.0178002623196534
 10
30.6998782087314979
 20
121.0560239835113379
 42
0.052527295083534
 10
30.6777684092186647
 20
121.15458122540754
 42
0.0946983163545042
 10
30.5919524077196918
 20
121.2786209480981796
 42
0.1239145974077916
 10
30.3333801761289124
 20
121.4322653175941582
 42
0.0674802657518886
 10
30.0111017425519968
 20
121.4704890387858427
 42
0.1710695699774026
 10
29.5962619449128717
 20
121.3490725126475525
 42
0.2395241755843956
 10
29.4429923177815276
 20
121.0687652239085708
 42
0.1315107380141103
 10
29.5007026419336711
 20
120.8386734120292374
 42
0.1136957301831755
 10
29.733792392729999
 20
120.6220723252763776
 42
0.0383547771665055
 10
30.2726719130597708
 20
120.3477609143713778
 42
-0.0534254991441841
 10
30.9041127974517522
 20
119.9872587596027813
 42
-0.1275968227178323
 10
31.2263912310286678
 20
119.601274124039719
 42
-0.1042366901074509
 10
31.3189525950908774
 20
119.1103616263818594
 42
-0.127980195942378
 10
31.1720535881581426
 20
118.5546186996439957
 42
-0.1467899336018092
 10
30.7126194491287237
 20
118.1176691024920444
 42
-0.1239665239214027
  0
LWPOLYLINE
  5
10A
100
AcDbEntity
  8
VectorEngraving
 62
256
370
-1
 48
1.0
  6
BYLAYER
100
AcDbPolyline
 90
12
 70
129
 10
31.8795671725688585
 20
118.0191118605958422
 10
31.8795671725688585
 20
121.9936293798013907
 10
34.4697863968521645
 20
121.9936293798013907
 10
34.4697863968521645
 20
121.4067828367997066
 10
32.5810848791455925
 20
121.4067828367997066
 10
32.5810848791455925
 20
120.3859846355630481
 10
34.1317687839610286
 20
120.3859846355630481
 10
34.1317687839610286
 20
119.7923927299981273
 10
32.5810848791455925
 20
119.7923927299981273
 10
32.5810848791455925
 20
118.6059584035975263
 10
34.4502997938917019
 20
118.6059584035975263
 10
34.4502997938917019
 20
118.0191118605958422
  0
LWPOLYLINE
  5
10B
100
AcDbEntity
  8
VectorEngraving
 62
256
370
-1
 48
1.0
  6
BYLAYER
100
AcDbPolyline
 90
8
 70
129
 10
40.3180157391793159
 20
118.0191118605958422
 10
40.0437043282743161
 20
118.9439760164886621
 10
39.0041690088064428
 20
118.9439760164886621
 10
38.7231122353382062
 20
118.0191118605958422
 10
38.00885328836425
 20
118.0191118605958422
 10
39.3549278620948115
 20
122.0191118605958422
 10
39.6996908375491842
 20
122.0191118605958422
 10
41.0457654112797456
 20
118.0191118605958422
  0
LWPOLYLINE
  5
10C
100
AcDbEntity
  8
VectorEngraving
 62
256
370
-1
 48
1.0
  6
BYLAYER
100
AcDbPolyline
 90
3
 70
129
 10
39.5273093498219978
 20
120.6857785272625136
 10
39.1570638935731665
 20
119.4611204796702282
 10
39.8908094435075924
 20
119.4611204796702282
  0
LWPOLYLINE
  5
10D
100
AcDbEntity
  8
VectorEngraving
 62
256
370
-1
 48
1.0
  6
BYLAYER
100
AcDbPolyline
 90
13
 70
129
 10
5.609565298857035
 20
96.0
 10
5.3479951283492584
 20
97.9872587596027671
 10
5.6605302604459418
 20
97.9872587596027671
 10
5.7946880269814489
 20
96.7401161701330352
 10
6.0498875772906118
 20
97.830991193554425
 10
6.2410061832490147
 20
97.830991193554425
 10
6.4962057335581775
 20
96.7431141090500262
 10
6.6015083380176112
 20
97.9872587596027671
 10
6.894931609518455
 20
97.9872587596027671
 10
6.6367341202922976
 20
96.0
 10
6.4103897320592083
 20
96.0
 10
6.1293329585909673
 20
97.2250327899568987
 10
5.8422803072887373
 20
96.0
  0
LWPOLYLINE
  5
10E
100
AcDbEntity
  8
VectorEngraving
 62
256
370
-1
 48
1.0
  6
BYLAYER
100
AcDbPolyline
 90
18
 70
129
 10
7.0317125726063319
 20
97.9872587596027671
 10
7.4240678283679955
 20
97.9872587596027671
 10
7.4240678283679955
 20
97.9584035975266971
 42
0.1523096199732857
 10
7.4002716882143513
 20
97.9153082255948988
 42
0.0437068677127978
 10
7.3955874086565476
 20
97.8403597526700395
 10
7.3955874086565476
 20
97.1800637062019916
 10
8.0079164324526868
 20
97.1800637062019916
 10
8.0079164324526868
 20
97.9872587596027671
 10
8.4002716882143513
 20
97.9872587596027671
 10
8.4002716882143513
 20
97.9584035975266971
 42
0.1689875292191234
 10
8.3779745175192044
 20
97.9153082255948988
 42
0.0297994704278729
 10
8.374789207419898
 20
97.8403597526700395
 10
8.374789207419898
 20
96.0
 10
8.0079164324526868
 20
96.0
 10
8.0079164324526868
 20
96.893011054899759
 10
7.3955874086565476
 20
96.893011054899759
 10
7.3955874086565476
 20
96.0
 10
7.0317125726063319
 20
96.0
  0
LWPOLYLINE
  5
10F
100
AcDbEntity
  8
VectorEngraving
 62
256
370
-1
 48
1.0
  6
BYLAYER
100
AcDbPolyline
 90
12
 70
129
 10
8.7285459996252559
 20
96.0
 10
8.7285459996252559
 20
96.2904253325838511
 10
9.1175285741053003
 20
96.2904253325838511
 10
9.1175285741053003
 20
97.6968334270189303
 10
8.7506557991380909
 20
97.6968334270189303
 10
8.7506557991380909
 20
97.9872587596027671
 10
9.8479014427581024
 20
97.9872587596027671
 10
9.8479014427581024
 20
97.6968334270189303
 10
9.4589188682780581
 20
97.6968334270189303
 10
9.4589188682780581
 20
96.2904253325838511
 10
9.8640153644369484
 20
96.2904253325838511
 10
9.8640153644369484
 20
96.0
  0
LWPOLYLINE
  5
110
100
AcDbEntity
  8
VectorEngraving
 62
256
370
-1
 48
1.0
  6
BYLAYER
100
AcDbPolyline
 90
8
 70
129
 10
10.7090593966647916
 20
96.0
 10
10.7090593966647916
 20
97.6840921866216974
 10
10.1731778152520125
 20
97.6840921866216974
 10
10.1731778152520125
 20
97.9872587596027671
 10
11.6181843732433947
 20
97.9872587596027671
 10
11.6181843732433947
 20
97.6840921866216974
 10
11.0534476297545421
 20
97.6840921866216974
 10
11.0534476297545421
 20
96.0
  0
LWPOLYLINE
  5
111
100
AcDbEntity
  8
VectorEngraving
 62
256
370
-1
 48
1.0
  6
BYLAYER
100
AcDbPolyline
 90
12
 70
129
 10
11.856895259509086
 20
96.0
 10
11.856895259509086
 20
97.9872587596027671
 10
13.1520048716507389
 20
97.9872587596027671
 10
13.1520048716507389
 20
97.6938354881019251
 10
12.2076541127974494
 20
97.6938354881019251
 10
12.2076541127974494
 20
97.18343638748361
 10
12.982996065205171
 20
97.18343638748361
 10
12.982996065205171
 20
96.8866404347011496
 10
12.2076541127974494
 20
96.8866404347011496
 10
12.2076541127974494
 20
96.293423271500842
 10
13.1422615701705059
 20
96.293423271500842
 10
13.1422615701705059
 20
96.0
  0
LWPOLYLINE
  5
112
100
AcDbEntity
  8
VectorEngraving
 62
256
370
-1
 48
1.0
  6
BYLAYER
100
AcDbPolyline
 90
11
 70
129
 10
22.1883548810192934
 20
96.0271688214352821
 10
22.1883548810192934
 20
98.0144275810380492
 10
22.7943132846168197
 20
98.0144275810380492
 42
-0.1698219834308818
 10
23.3238242458309841
 20
97.8740865654862517
 42
-0.2376804545435486
 10
23.4962057335581704
 20
97.5133970395353344
 42
-0.1334868191084269
 10
23.4244425707326158
 20
97.2615701705077953
 42
-0.1741473004688449
 10
23.2155237024545542
 20
97.0828180625819925
 42
-0.1323568410565651
 10
23.4754075323215226
 20
96.8836424957841729
 42
-0.1671509369152835
 10
23.5726531759415323
 20
96.601274124039719
 42
-0.2368289956690708
 10
23.3796608581600083
 20
96.1851227281244405
 42
-0.1709485884004231
 10
22.7913153456998252
 20
96.0271688214352821
  0
LWPOLYLINE
  5
113
100
AcDbEntity
  8
VectorEngraving
 62
256
370
-1
 48
1.0
  6
BYLAYER
100
AcDbPolyline
 90
7
 70
129
 10
22.5488570357878899
 20
97.2199737680344924
 10
22.7658328649053701
 20
97.2199737680344924
 42
0.1768225646009214
 10
23.0541971144837845
 20
97.2917369308600541
 42
0.2191258555940204
 10
23.1323308975079556
 20
97.4815439385422735
 42
0.2328955772464737
 10
23.052698145025289
 20
97.6571107363687645
 42
0.1722275257521094
 10
22.7976859658984381
 20
97.7240022484542123
 10
22.5488570357878899
 20
97.7240022484542123
  0
LWPOLYLINE
  5
114
100
AcDbEntity
  8
VectorEngraving
 62
256
370
-1
 48
1.0
  6
BYLAYER
100
AcDbPolyline
 90
7
 70
129
 10
22.5488570357878899
 20
96.3239647742177425
 10
22.8295390668915061
 20
96.3239647742177425
 42
0.1599163606513487
 10
23.098978827056392
 20
96.3972269065017997
 42
0.2533137356479319
 10
23.19940978077571
 20
96.6110174255199752
 42
0.2144617847099505
 10
23.1053494472550049
 20
96.8437324339516721
 42
0.1850030538216429
 10
22.7752014240209775
 20
96.9329211167322597
 10
22.5488570357878899
 20
96.9329211167322597
  0
LWPOLYLINE
  5
115
100
AcDbEntity
  8
VectorEngraving
 62
256
370
-1
 48
1.0
  6
BYLAYER
100
AcDbPolyline
 90
9
 70
129
 10
23.8465898444819118
 20
98.0144275810380492
 10
24.2389451002435763
 20
98.0144275810380492
 10
24.2389451002435763
 20
97.9855724189619792
 42
0.1523096199731957
 10
24.2151489600899303
 20
97.9424770470301809
 42
0.0437068677128466
 10
24.2104646805321266
 20
97.8675285741053216
 10
24.2104646805321266
 20
96.3205920929361241
 10
25.1225875960277243
 20
96.3205920929361241
 10
25.1225875960277243
 20
96.0271688214352821
 10
23.8465898444819118
 20
96.0271688214352821
  0
LWPOLYLINE
  5
116
100
AcDbEntity
  8
VectorEngraving
 62
256
370
-1
 48
1.0
  6
BYLAYER
100
AcDbPolyline
 90
17
 70
129
 10
26.0568203110361551
 20
95.9855724189619792
 42
-0.2187932598691022
 10
25.5511054899756331
 20
96.1802510773843125
 42
-0.1902783405959823
 10
25.3740397226906431
 20
96.7226906501780235
 10
25.3740397226906431
 20
98.0144275810380492
 10
25.7600243582536947
 20
98.0144275810380492
 10
25.7600243582536947
 20
97.9855724189619792
 42
0.1246165463758205
 10
25.739413528199357
 20
97.9424770470301809
 42
0.045436926629343
 10
25.7345418774592396
 20
97.8675285741053216
 10
25.7345418774592396
 20
96.7193179688964051
 42
0.1333400107448164
 10
25.8048060708262987
 20
96.3970395353194931
 42
0.2785909262070592
 10
26.0598182499531497
 20
96.2789956904628212
 42
0.2726441709264668
 10
26.3183904815439327
 20
96.3970395353194931
 42
0.137686288424885
 10
26.3918399850102965
 20
96.7290612703766328
 10
26.3918399850102965
 20
98.0144275810380492
 10
26.7425988382986617
 20
98.0144275810380492
 10
26.7425988382986617
 20
96.7320592092936238
 42
-0.2083302145650453
 10
26.5512928611579468
 20
96.1675098369870938
 42
-0.1989968553203709
  0
LWPOLYLINE
  5
117
100
AcDbEntity
  8
VectorEngraving
 62
256
370
-1
 48
1.0
  6
BYLAYER
100
AcDbPolyline
 90
12
 70
129
 10
27.0165355068390411
 20
96.0271688214352821
 10
27.0165355068390411
 20
98.0144275810380492
 10
28.3116451189806924
 20
98.0144275810380492
 10
28.3116451189806924
 20
97.7210043095372072
 10
27.3672943601274063
 20
97.7210043095372072
 10
27.3672943601274063
 20
97.2106052089188921
 10
28.1426363125351244
 20
97.2106052089188921
 10
28.1426363125351244
 20
96.9138092561364317
 10
27.3672943601274063
 20
96.9138092561364317
 10
27.3672943601274063
 20
96.3205920929361241
 10
28.3019018175004611
 20
96.3205920929361241
 10
28.3019018175004611
 20
96.0271688214352821
  0
LWPOLYLINE
  5
118
100
AcDbEntity
  8
VectorEngraving
 62
256
370
-1
 48
1.0
  6
BYLAYER
100
AcDbPolyline
 90
11
 70
129
 10
38.0501311598276146
 20
96.0031853100992976
 10
38.0501311598276146
 20
97.9904440697020647
 10
38.7261663856098934
 20
97.9904440697020647
 42
-0.1226157369347029
 10
39.1057804009743251
 20
97.9106239460370915
 42
-0.1499740507231747
 10
39.3274405096496125
 20
97.6985197676597181
 42
-0.1268020082315585
 10
39.3992036724751742
 20
97.4065954656173858
 42
-0.1268596194923174
 10
39.3291268502904217
 20
97.1212291549559552
 42
-0.1500081120373015
 10
39.1121510211729415
 20
96.9139966273187099
 42
-0.1226248171483558
 10
38.7422803072887376
 20
96.8358628442945388
 10
38.4166291924302001
 20
96.8358628442945388
 10
38.4166291924302001
 20
96.0031853100992976
  0
LWPOLYLINE
  5
119
100
AcDbEntity
  8
VectorEngraving
 62
256
370
-1
 48
1.0
  6
BYLAYER
100
AcDbPolyline
 90
7
 70
129
 10
38.4166291924302001
 20
97.1356567359939902
 10
38.716797826494286
 20
97.1356567359939902
 42
0.1964422541879452
 10
38.9495128349259829
 20
97.2121041783773592
 42
0.2132598586825378
 10
39.0293329585909703
 20
97.4065954656173858
 42
0.212905812503028
 10
38.9495128349259829
 20
97.601274124039719
 42
0.1973302280815656
 10
38.719795765411277
 20
97.6779089376053804
 10
38.4166291924302001
 20
97.6779089376053804
  0
LWPOLYLINE
  5
11A
100
AcDbEntity
  8
VectorEngraving
 62
256
370
-1
 48
1.0
  6
BYLAYER
100
AcDbPolyline
 90
12
 70
129
 10
39.7147367434888494
 20
96.0031853100992976
 10
39.7147367434888494
 20
96.2936106426831486
 10
40.1037193179688956
 20
96.2936106426831486
 10
40.1037193179688956
 20
97.7000187371182278
 10
39.7368465430016826
 20
97.7000187371182278
 10
39.7368465430016826
 20
97.9904440697020647
 10
40.8340921866216959
 20
97.9904440697020647
 10
40.8340921866216959
 20
97.7000187371182278
 10
40.4451096121416498
 20
97.7000187371182278
 10
40.4451096121416498
 20
96.2936106426831486
 10
40.8502061083005401
 20
96.2936106426831486
 10
40.8502061083005401
 20
96.0031853100992976
  0
LWPOLYLINE
  5
11B
100
AcDbEntity
  8
VectorEngraving
 62
256
370
-1
 48
1.0
  6
BYLAYER
100
AcDbPolyline
 90
13
 70
129
 10
41.2039629005058998
 20
97.9904440697020647
 10
41.5802042345887202
 20
97.9904440697020647
 10
42.2532415214540009
 20
96.6825932171631877
 10
42.2341296608581587
 20
97.9904440697020647
 10
42.5852632565111477
 20
97.9904440697020647
 10
42.5852632565111477
 20
97.9615889076259947
 42
0.1276856979475007
 10
42.5642776840921826
 20
97.9184935356941963
 42
0.0454369266294099
 10
42.5594060333520687
 20
97.8435450627693371
 10
42.5594060333520687
 20
96.0031853100992976
 10
42.2247611017425513
 20
96.0031853100992976
 10
41.5292392729998099
 20
97.3972269065017713
 10
41.5292392729998099
 20
96.0031853100992976
 10
41.2039629005058998
 20
96.0031853100992976
  0
LWPOLYLINE
  5
11C
100
AcDbEntity
  8
VectorEngraving
 62
256
370
-1
 48
1.0
  6
BYLAYER
100
AcDbPolyline
 90
17
 70
129
 10
43.2834082818062598
 20
96.9025669851976659
 10
43.1526231965523692
 20
96.7305602398350999
 10
43.1526231965523692
 20
96.0031853100992976
 10
42.7984916619823821
 20
96.0031853100992976
 10
42.7984916619823821
 20
97.9904440697020647
 10
43.1781056773468208
 20
97.9904440697020647
 10
43.1781056773468208
 20
97.9615889076259947
 42
0.1689875292190398
 10
43.1558085066516739
 20
97.9184935356941963
 42
0.0297994704277479
 10
43.1526231965523692
 20
97.8435450627693371
 10
43.1526231965523692
 20
97.1768783961026656
 10
43.8129192430204242
 20
98.0095559302979069
 42
0.053145612543404
 10
43.9339610267940799
 20
97.9936293798013764
 42
0.0100048626038085
 10
44.0456342514521282
 20
97.9904440697020647
 10
44.211645118980698
 20
97.9904440697020647
 10
43.5386078321154173
 20
97.1577665355068234
 10
44.2498688401723825
 20
96.006557991380916
 10
43.8384017238148758
 20
95.9904440697020647
  0
LWPOLYLINE
  5
11D
100
AcDbEntity
  8
VectorEngraving
 62
256
370
-1
 48
1.0
  6
BYLAYER
100
AcDbPolyline
 90
26
 70
129
 10
6.151817500468427
 20
15.9745175192055449
 42
-0.13718120615195
 10
5.7545905939666468
 20
16.0815064643057895
 42
-0.1521335773926464
 10
5.4675379426644177
 20
16.4148397976391216
 42
-0.1095731750364332
 10
5.3607363687464868
 20
16.9923177815252053
 42
-0.0854969824068566
 10
5.4324995315720441
 20
17.4851039910061807
 42
-0.1105493068353156
 10
5.6223065392542626
 20
17.8025107738429824
 42
-0.1092743849584248
 10
5.8821903691212292
 20
17.9730185497470494
 42
-0.0894144458589265
 10
6.1645587408656546
 20
18.0254824807944516
 42
-0.144279472525893
 10
6.5488570357878952
 20
17.9235525576166381
 42
-0.1501502099017879
 10
6.7930016863406406
 20
17.636499906314409
 10
6.5662825557429265
 20
17.4674910998688375
 10
6.5408000749484732
 20
17.4513771781899933
 10
6.5250608956342511
 20
17.4768596589844485
 42
0.1140804318625888
 10
6.5201892448941354
 20
17.5233277121978617
 42
0.0461095061682634
 10
6.486837174442571
 20
17.5919055649241152
 42
0.1205634682736131
 10
6.3414371369683344
 20
17.7050777590406589
 42
0.0973965581775472
 10
6.1836706014614951
 20
17.735431890575228
 42
0.1710454528741591
 10
5.9554525014052837
 20
17.652426456810943
 42
0.1324894010124661
 10
5.7832583848604084
 20
17.4084691774405087
 42
0.0957756120555083
 10
5.7178658422334649
 20
17.0080569608394221
 42
0.1424637919354484
 10
5.8439666479295482
 20
16.4674910998688375
 42
0.2705536969347356
 10
6.1611860595840362
 20
16.2713134719880088
 42
0.1360351973350431
 10
6.3654206483042906
 20
16.3222784335769155
 42
0.1254759824622782
 10
6.5216882143526327
 20
16.4912872400224835
 10
6.7705171444631818
 20
16.3065392542626952
 42
-0.1424969433067387
 10
6.5074480044969079
 20
16.0494659921304077
 42
-0.1161683907371262
  0
LWPOLYLINE
  5
11E
100
AcDbEntity
  8
VectorEngraving
 62
256
370
-1
 48
1.0
  6
BYLAYER
100
AcDbPolyline
 90
7
 70
129
 10
7.5454843545062769
 20
16.0033726812816184
 10
6.9072981075510587
 20
17.9970020610830055
 10
7.2648023234026606
 20
17.9970020610830055
 10
7.6826400599587785
 20
16.5999625257635373
 10
8.0716226344388229
 20
17.9970020610830055
 10
8.4193835488101918
 20
17.9970020610830055
 10
7.7875679220535883
 20
16.0033726812816184
  0
LWPOLYLINE
  5
11F
100
AcDbEntity
  8
VectorEngraving
 62
256
370
-1
 48
1.0
  6
BYLAYER
100
AcDbPolyline
 90
12
 70
129
 10
10.2687371182312148
 20
16.0097433014802313
 10
10.2687371182312148
 20
16.3001686340640788
 10
10.657719692711261
 20
16.3001686340640788
 10
10.657719692711261
 20
17.7065767284991544
 10
10.2908469177440516
 20
17.7065767284991544
 10
10.2908469177440516
 20
17.9970020610830055
 10
11.3880925613640613
 20
17.9970020610830055
 10
11.3880925613640613
 20
17.7065767284991544
 10
10.999109986884017
 20
17.7065767284991544
 10
10.999109986884017
 20
16.3001686340640788
 10
11.4042064830429091
 20
16.3001686340640788
 10
11.4042064830429091
 20
16.0097433014802313
  0
LWPOLYLINE
  5
120
100
AcDbEntity
  8
VectorEngraving
 62
256
370
-1
 48
1.0
  6
BYLAYER
100
AcDbPolyline
 90
13
 70
129
 10
11.757963275248267
 20
17.9970020610830055
 10
12.1342046093310856
 20
17.9970020610830055
 10
12.8072418961963646
 20
16.6891512085441249
 10
12.7881300356005241
 20
17.9970020610830055
 10
13.1392636312535132
 20
17.9970020610830055
 10
13.1392636312535132
 20
17.968146899006932
 42
0.1276856979476449
 10
13.1182780588345516
 20
17.9250515270751336
 42
0.0454369266294516
 10
13.1134064080944341
 20
17.8501030541502708
 10
13.1134064080944341
 20
16.0097433014802313
 10
12.7787614764849167
 20
16.0097433014802313
 10
12.0832396477421771
 20
17.403784897882705
 10
12.0832396477421771
 20
16.0097433014802313
 10
11.757963275248267
 20
16.0097433014802313
  0
LWPOLYLINE
  5
121
100
AcDbEntity
  8
VectorEngraving
 62
256
370
-1
 48
1.0
  6
BYLAYER
100
AcDbPolyline
 90
26
 70
129
 10
21.3545531197301841
 20
15.9745175192055466
 42
-0.1371812061519486
 10
20.9573262132284057
 20
16.0815064643057895
 42
-0.1521335773926383
 10
20.6702735619261766
 20
16.4148397976391216
 42
-0.1095731750364435
 10
20.5634719880082457
 20
16.9923177815251982
 42
-0.0854969824068544
 10
20.6352351508338003
 20
17.4851039910061807
 42
-0.1105493068353044
 10
20.8250421585160197
 20
17.8025107738429824
 42
-0.1092743849584363
 10
21.084925988382988
 20
17.9730185497470494
 42
-0.0894144458589266
 10
21.3672943601274135
 20
18.0254824807944516
 42
-0.1442794725258904
 10
21.7515926550496523
 20
17.9235525576166381
 42
-0.1501502099017911
 10
21.9957373056023968
 20
17.636499906314409
 10
21.7690181750046854
 20
17.4674910998688375
 10
21.7435356942102302
 20
17.4513771781899933
 10
21.7277965148960099
 20
17.4768596589844485
 42
0.1140804318625294
 10
21.7229248641558925
 20
17.5233277121978617
 42
0.046109506168213
 10
21.689572793704329
 20
17.5919055649241152
 42
0.1205634682735943
 10
21.5441727562300933
 20
17.7050777590406589
 42
0.0973965581775486
 10
21.3864062207232521
 20
17.735431890575228
 42
0.1710454528741581
 10
21.1581881206670417
 20
17.652426456810943
 42
0.1324894010124501
 10
20.9859940041221655
 20
17.4084691774405087
 42
0.0957756120555102
 10
20.9206014614952238
 20
17.0080569608394185
 42
0.1424637919354476
 10
21.0467022671913071
 20
16.4674910998688375
 42
0.2705536969347346
 10
21.3639216788457951
 20
16.2713134719880088
 42
0.1360351973350417
 10
21.5681562675660494
 20
16.3222784335769155
 42
0.12547598246227
 10
21.7244238336143916
 20
16.4912872400224835
 10
21.9732527637249397
 20
16.3065392542626952
 42
-0.1424969433067364
 10
21.7101836237586667
 20
16.0494659921304077
 42
-0.1161683907371265
  0
LWPOLYLINE
  5
122
100
AcDbEntity
  8
VectorEngraving
 62
256
370
-1
 48
1.0
  6
BYLAYER
100
AcDbPolyline
 90
9
 70
129
 10
22.2408188120667063
 20
17.9970020610830055
 10
22.6331740678283673
 20
17.9970020610830055
 10
22.6331740678283673
 20
17.968146899006932
 42
0.1523096199731409
 10
22.6093779276747249
 20
17.9250515270751336
 42
0.0437068677128453
 10
22.6046936481169212
 20
17.8501030541502708
 10
22.6046936481169212
 20
16.3031665729810733
 10
23.5168165636125153
 20
16.3031665729810733
 10
23.5168165636125153
 20
16.0097433014802313
 10
22.2408188120667063
 20
16.0097433014802313
  0
LWPOLYLINE
  5
123
100
AcDbEntity
  8
VectorEngraving
 62
256
370
-1
 48
1.0
  6
BYLAYER
100
AcDbPolyline
 90
17
 70
129
 10
24.2565579913809266
 20
16.9091249765785996
 10
24.1257729061270396
 20
16.7371182312160371
 10
24.1257729061270396
 20
16.0097433014802313
 10
23.771641371557056
 20
16.0097433014802313
 10
23.771641371557056
 20
17.9970020610830055
 10
24.1512553869214912
 20
17.9970020610830055
 10
24.1512553869214912
 20
17.968146899006932
 42
0.1689875292190584
 10
24.1289582162263443
 20
17.9250515270751336
 42
0.0297994704279501
 10
24.1257729061270396
 20
17.8501030541502743
 10
24.1257729061270396
 20
17.1834363874836029
 10
24.786068952595091
 20
18.0161139216788442
 42
0.053145612543425
 10
24.9071107363687467
 20
18.0001873711823102
 42
0.0100048626036864
 10
25.018783961026795
 20
17.9970020610830055
 10
25.1847948285553684
 20
17.9970020610830055
 10
24.5117575416900877
 20
17.1643245268877642
 10
25.2230185497470494
 20
16.0131159827618497
 10
24.8115514333895462
 20
15.9970020610830055
  0
LWPOLYLINE
  5
124
100
AcDbEntity
  8
VectorEngraving
 62
256
370
-1
 48
1.0
  6
BYLAYER
100
AcDbPolyline
 90
12
 70
129
 10
27.0660014989694595
 20
16.0097433014802313
 10
27.0660014989694595
 20
16.3001686340640788
 10
27.4549840734495021
 20
16.3001686340640788
 10
27.4549840734495021
 20
17.7065767284991544
 10
27.0881112984822927
 20
17.7065767284991544
 10
27.0881112984822927
 20
17.9970020610830055
 10
28.185356942102306
 20
17.9970020610830055
 10
28.185356942102306
 20
17.7065767284991544
 10
27.7963743676222599
 20
17.7065767284991544
 10
27.7963743676222599
 20
16.3001686340640788
 10
28.2014708637811502
 20
16.3001686340640788
 10
28.2014708637811502
 20
16.0097433014802313
  0
LWPOLYLINE
  5
125
100
AcDbEntity
  8
VectorEngraving
 62
256
370
-1
 48
1.0
  6
BYLAYER
100
AcDbPolyline
 90
13
 70
129
 10
28.5552276559865099
 20
17.9970020610830055
 10
28.9314689900693267
 20
17.9970020610830055
 10
29.6045062769346075
 20
16.6891512085441249
 10
29.5853944163387688
 20
17.9970020610830055
 10
29.9365280119917543
 20
17.9970020610830055
 10
29.9365280119917543
 20
17.968146899006932
 42
0.1276856979475559
 10
29.9155424395727927
 20
17.9250515270751336
 42
0.0454369266293955
 10
29.9106707888326788
 20
17.8501030541502708
 10
29.9106707888326788
 20
16.0097433014802313
 10
29.5760258572231578
 20
16.0097433014802313
 10
28.88050402848042
 20
17.403784897882705
 10
28.88050402848042
 20
16.0097433014802313
 10
28.5552276559865099
 20
16.0097433014802313
  0
LWPOLYLINE
  5
126
100
AcDbEntity
  8
VectorEngraving
 62
256
370
-1
 48
1.0
  6
BYLAYER
100
AcDbPolyline
 90
39
 70
129
 10
36.4233183436387478
 20
15.9775154581225394
 42
-0.0824589363782375
 10
36.051573917931421
 20
16.0365373805508717
 42
-0.1239231858746542
 10
35.7630222971706928
 20
16.2169758291174801
 10
35.9384017238148772
 20
16.5133970395353202
 10
35.951142964212103
 20
16.5388795203297718
 10
35.9799981262881801
 20
16.5231403410155515
 42
0.046869701584017
 10
35.997423646243206
 20
16.4736743488851403
 42
0.0914502355627802
 10
36.0467022671913071
 20
16.4144650552744977
 42
0.0681594634041864
 10
36.2237680344762936
 20
16.3157204421959889
 42
0.0950027158644772
 10
36.4360595840359736
 20
16.2773093498219978
 42
0.1544690761801921
 10
36.6800168634064079
 20
16.3427018924489396
 42
0.2606540762175598
 10
36.7740771969271094
 20
16.5358815814127773
 42
0.1208512743437348
 10
36.7454094060333532
 20
16.6554243957279375
 42
0.121961345431891
 10
36.6322372119168094
 20
16.7685965898444813
 42
0.038254059290403
 10
36.381721941165452
 20
16.9027543563799867
 42
-0.0581074828849106
 10
36.0579445381300374
 20
17.0828180625819748
 42
-0.1200427752267513
 10
35.8874367622259669
 20
17.2806820311036162
 42
-0.1126833292539309
 10
35.8364718006370637
 20
17.5214540003747423
 42
-0.1592312928671388
 10
35.9177908937605395
 20
17.7830241708825163
 42
-0.1317713073948289
 10
36.1426363125351315
 20
17.9647742177253136
 42
-0.1105525077854781
 10
36.47128536631066
 20
18.031853100993068
 42
-0.218459204666984
 10
37.0738710886265679
 20
17.7766535506839034
 10
36.8632658797076971
 20
17.5341952407719681
 10
36.8441540191118619
 20
17.5120854412591349
 10
36.8186715383174032
 20
17.5311973018549736
 42
0.0525272950837223
 10
36.8076166385609866
 20
17.5804759228030711
 42
0.0946983163543744
 10
36.764708637811502
 20
17.642495784148398
 42
0.1239145974077674
 10
36.635422522016114
 20
17.7193179688963838
 42
0.0674802657518457
 10
36.474283305227658
 20
17.7384298294922225
 42
0.1710695699773866
 10
36.2668634064080919
 20
17.6777215664230845
 42
0.2395241755843935
 10
36.1902285928424234
 20
17.5375679220535865
 42
0.1315107380140824
 10
36.2190837549184934
 20
17.4225220161139198
 42
0.1136957301832
 10
36.3356286303166556
 20
17.3142214727374935
 42
0.0383547771664933
 10
36.6050683904815415
 20
17.17706576728499
 42
-0.0534254991441841
 10
36.9207888326775304
 20
16.9968146899006918
 42
-0.1275968227178021
 10
37.0819280494659935
 20
16.8038223721191677
 42
-0.1042366901074036
 10
37.1282087314970966
 20
16.5583661232902379
 42
-0.1279801959423846
 10
37.0547592280307256
 20
16.2804946599213025
 42
-0.146789933601799
 10
36.8250421585160197
 20
16.0620198613453233
 42
-0.1239665239213905
  0
LWPOLYLINE
  5
127
100
AcDbEntity
  8
VectorEngraving
 62
256
370
-1
 48
1.0
  6
BYLAYER
100
AcDbPolyline
 90
28
 70
129
 10
38.5218755855349428
 20
15.968146899006932
 10
38.3656080194866007
 20
16.2042345887202544
 42
-0.1050746307173453
 10
38.1420741989881975
 20
16.0365373805508717
 42
-0.1100288468782774
 10
37.8709480981824953
 20
15.9775154581225394
 42
-0.1311157301592057
 10
37.5872681281618881
 20
16.0445943413902938
 42
-0.1374132849487402
 10
37.4038317406782852
 20
16.2265317594154013
 42
-0.1321815360490845
 10
37.3384391980513399
 20
16.4849166198238706
 42
-0.1333641579572345
 10
37.431000562113546
 20
16.8371744425707313
 42
-0.1246443013490045
 10
37.7019392917369274
 20
17.1099868840172356
 42
-0.0805952169309791
 10
37.5503560052463925
 20
17.3507588532883616
 42
-0.0957862411513124
 10
37.5040753232152895
 20
17.5915308225595091
 42
-0.1556366381194544
 10
37.5711542064830439
 20
17.8131909312347751
 42
-0.1221697280126278
 10
37.7467210043095349
 20
17.9679595278246182
 42
-0.1243522712891909
 10
37.9796233839235526
 20
18.0254824807944516
 42
-0.1416785788602874
 10
38.2172100430953705
 20
17.9632752482668145
 42
-0.128272950957834
 10
38.3734776091437126
 20
17.8021360314783585
 42
-0.1313520790192409
 10
38.4293142214727368
 20
17.5915308225594806
 42
-0.150590376771567
 10
38.3399381675098354
 20
17.2664418212478914
 42
-0.0910716806239782
 10
38.1167790893760525
 20
17.0365373805508717
 10
38.4038317406782852
 20
16.6378115045905943
 42
0.0411556632818221
 10
38.4866498032602564
 20
16.7704703016676007
 42
0.1077764202677633
 10
38.5248735244519409
 20
16.9027543563799867
 42
-0.0683048044628935
 10
38.5280588345512456
 20
16.9297358066329373
 42
-0.0720807053154821
 10
38.543985385047776
 20
16.9600899381675099
 10
38.7991849353569407
 20
16.7813378302417071
 42
-0.0261538647345524
 10
38.6940697020798225
 20
16.5836612329023794
 42
-0.031619396009616
 10
38.5792111673224625
 20
16.4178377365561161
 10
38.7579632752482652
 20
16.1817500468427937
  0
LWPOLYLINE
  5
128
100
AcDbEntity
  8
VectorEngraving
 62
256
370
-1
 48
1.0
  6
BYLAYER
100
AcDbPolyline
 90
8
 70
129
 10
37.9477702829304846
 20
17.2632565111485796
 42
0.1472326979821672
 10
38.0911092373992872
 20
17.4002248454187729
 42
0.1293382618869636
 10
38.1388888888888857
 20
17.5757916432452674
 42
0.1603060192507542
 10
38.0989788270563992
 20
17.7017050777590406
 42
0.2565445090077563
 10
37.9826213228405436
 20
17.7575416900880647
 42
0.2303421768546397
 10
37.856707888326774
 20
17.7033914183998498
 42
0.1838588693919121
 10
37.8106145774779847
 20
17.5821622634439549
 42
0.0971735308612258
 10
37.8439666479295482
 20
17.4337642870526501
 42
0.0694165647967967
  0
LWPOLYLINE
  5
129
100
AcDbEntity
  8
VectorEngraving
 62
256
370
-1
 48
1.0
  6
BYLAYER
100
AcDbPolyline
 90
6
 70
129
 10
37.8998032602585724
 20
16.2581974892261556
 42
0.1358337541233645
 10
38.0560708263069145
 20
16.301292861157954
 42
0.0759654335226536
 10
38.1962244706764125
 20
16.4178377365561161
 10
37.8709480981824953
 20
16.8738991943039167
 42
0.2575838397745391
 10
37.6734588720254848
 20
16.5167697208169528
 42
0.1811424447556897
 10
37.7339797639123091
 20
16.3299606520517138
 42
0.2317359273585675
  0
LWPOLYLINE
  5
12A
100
AcDbEntity
  8
VectorEngraving
 62
256
370
-1
 48
1.0
  6
BYLAYER
100
AcDbPolyline
 90
18
 70
129
 10
38.9614483792392718
 20
18.0
 10
39.3538036350009364
 20
18.0
 10
39.3538036350009364
 20
17.9711448379239265
 42
0.152309619973076
 10
39.330007494847294
 20
17.9280494659921281
 42
0.043706867712792
 10
39.3253232152894867
 20
17.8531009930672653
 10
39.3253232152894867
 20
17.1928049465992103
 10
39.9376522390856294
 20
17.1928049465992103
 10
39.9376522390856294
 20
18.0
 10
40.330007494847294
 20
18.0
 10
40.330007494847294
 20
17.9711448379239265
 42
0.168987529219091
 10
40.3077103241521471
 20
17.9280494659921281
 42
0.0297994704280611
 10
40.3045250140528353
 20
17.8531009930672653
 10
40.3045250140528353
 20
16.0127412403972258
 10
39.9376522390856294
 20
16.0127412403972258
 10
39.9376522390856294
 20
16.9057522952969812
 10
39.3253232152894867
 20
16.9057522952969812
 10
39.3253232152894867
 20
16.0127412403972258
 10
38.9614483792392718
 20
16.0127412403972258
  0
LWPOLYLINE
  5
12B
100
AcDbEntity
  8
VectorEngraving
 62
256
370
-1
 48
1.0
  6
BYLAYER
100
AcDbPolyline
 90
8
 70
129
 10
42.8332864905377519
 20
15.9745175192055484
 42
-0.2591303879110671
 10
42.2782930485291359
 20
16.2424583099119353
 42
-0.1527047570207509
 10
42.0901723814877258
 20
17.0046842795578037
 42
-0.1520552001394014
 10
42.2782930485291359
 20
17.757354318905751
 42
-0.2609893822229477
 10
42.8332864905377519
 20
18.0284804197114461
 42
-0.2598887638008162
 10
43.3835956529885678
 20
17.757354318905751
 42
-0.1532357876440768
 10
43.5734026606707872
 20
17.0046842795578073
 42
-0.1538924925182128
 10
43.3835956529885678
 20
16.2424583099119353
 42
-0.2580459804199897
  0
LWPOLYLINE
  5
12C
100
AcDbEntity
  8
VectorEngraving
 62
256
370
-1
 48
1.0
  6
BYLAYER
100
AcDbPolyline
 90
8
 70
129
 10
42.8332864905377519
 20
16.2679407907063904
 42
0.2924199676809691
 10
43.1139685216413682
 20
16.4513771781899933
 42
0.1214329083418652
 10
43.2158984448191887
 20
17.0080569608394221
 42
0.1202673064395642
 10
43.1139685216413682
 20
17.5452501405283847
 42
0.2966022124947314
 10
42.8332864905377519
 20
17.7350571482106041
 42
0.2995688277754296
 10
42.5477328086940219
 20
17.5452501405283847
 42
0.1186384765761681
 10
42.4473018549747039
 20
17.0080569608394256
 42
0.1197837217357242
 10
42.5477328086940219
 20
16.4513771781899933
 42
0.2952609534183034
  0
LWPOLYLINE
  5
12D
100
AcDbEntity
  8
VectorEngraving
 62
256
370
-1
 48
1.0
  6
BYLAYER
100
AcDbPolyline
 90
17
 70
129
 10
44.4214446318156249
 20
15.9711448379239229
 42
-0.2187932598690909
 10
43.9157298107551028
 20
16.1658234963462597
 42
-0.1902783405959874
 10
43.7386640434701164
 20
16.7082630691399672
 10
43.7386640434701164
 20
18.0
 10
44.1246486790331645
 20
18.0
 10
44.1246486790331645
 20
17.9711448379239265
 42
0.1246165463758586
 10
44.1040378489788267
 20
17.9280494659921281
 42
0.0454369266293815
 10
44.0991661982387129
 20
17.8531009930672653
 10
44.0991661982387129
 20
16.7048903878583452
 42
0.133340010744805
 10
44.169430391605772
 20
16.3826119542814297
 42
0.2785909262070408
 10
44.4244425707326229
 20
16.2645681094247685
 42
0.272644170926451
 10
44.6830148023233988
 20
16.3826119542814297
 42
0.1376862884248737
 10
44.7564643057897698
 20
16.7146336893385801
 10
44.7564643057897698
 20
18.0
 10
45.1072231590781314
 20
18.0
 10
45.1072231590781314
 20
16.7176316282555746
 42
-0.2083302145650432
 10
44.9159171819374166
 20
16.1530822559490339
 42
-0.1989968553203829
  0
LWPOLYLINE
  5
12E
100
AcDbEntity
  8
VectorEngraving
 62
256
370
-1
 48
1.0
  6
BYLAYER
100
AcDbPolyline
 90
8
 70
129
 10
45.8278527262507041
 20
16.0127412403972258
 10
45.8278527262507041
 20
17.6968334270189231
 10
45.2919711448379232
 20
17.6968334270189231
 10
45.2919711448379232
 20
18.0
 10
46.7369777028293072
 20
18.0
 10
46.7369777028293072
 20
17.6968334270189231
 10
46.1722409593404493
 20
17.6968334270189231
 10
46.1722409593404493
 20
16.0127412403972258
  0
LWPOLYLINE
  5
12F
100
AcDbEntity
  8
VectorEngraving
 62
256
370
-1
 48
1.0
  6
BYLAYER
100
AcDbPolyline
 90
13
 70
129
 10
19.4616357504215891
 20
114.4952220348510394
 10
20.0259977515458161
 20
114.4952220348510394
 10
21.0355536818437372
 20
112.5334457560427239
 10
21.0068858909499738
 20
114.4952220348510394
 10
21.5335862844294574
 20
114.4952220348510394
 10
21.5335862844294574
 20
114.4519392917369345
 42
0.1276856979477558
 10
21.5021079258010168
 20
114.3872962338392369
 42
0.0454369266294262
 10
21.4948004496908425
 20
114.274873524451948
 10
21.4948004496908425
 20
111.5143338954468817
 10
20.9928330522765627
 20
111.5143338954468817
 10
19.9495503091624542
 20
113.6053962900505923
 10
19.9495503091624542
 20
111.5143338954468817
 10
19.4616357504215891
 20
111.5143338954468817
  0
LWPOLYLINE
  5
130
100
AcDbEntity
  8
VectorEngraving
 62
256
370
-1
 48
1.0
  6
BYLAYER
100
AcDbPolyline
 90
8
 70
129
 10
22.8820966835300759
 20
111.4569983136593549
 42
-0.2591303879110698
 10
22.0496065205171483
 20
111.8589094997189477
 42
-0.1527047570207529
 10
21.7674255199550331
 20
113.0022484541877503
 42
-0.1520552001393942
 10
22.0496065205171483
 20
114.1312535132096713
 42
-0.2609893822229247
 10
22.8820966835300759
 20
114.5379426644182104
 42
-0.2598887638007808
 10
23.7075604272062996
 20
114.1312535132096713
 42
-0.1532357876440684
 10
23.9922709387296251
 20
113.0022484541877503
 42
-0.1538924925182085
 10
23.7075604272062996
 20
111.8589094997189477
 42
-0.2580459804200044
  0
LWPOLYLINE
  5
131
100
AcDbEntity
  8
VectorEngraving
 62
256
370
-1
 48
1.0
  6
BYLAYER
100
AcDbPolyline
 90
8
 70
129
 10
22.8820966835300759
 20
111.8971332209106322
 42
0.2924199676809356
 10
23.3031197301855002
 20
112.1722878021360259
 42
0.1214329083418598
 10
23.456014614952224
 20
113.0073074761101708
 42
0.1202673064395692
 10
23.3031197301855002
 20
113.8130972456436183
 42
0.2966022124946899
 10
22.8820966835300759
 20
114.0978077571669473
 42
0.2995688277754006
 10
22.4537661607644772
 20
113.8130972456436183
 42
0.1186384765761935
 10
22.3031197301855002
 20
113.0073074761101708
 42
0.1197837217357365
 10
22.4537661607644772
 20
112.1722878021360259
 42
0.2952609534182963
  0
LWPOLYLINE
  5
132
100
AcDbEntity
  8
VectorEngraving
 62
256
370
-1
 48
1.0
  6
BYLAYER
100
AcDbPolyline
 90
12
 70
129
 10
24.4031759415401943
 20
111.5143338954468817
 10
24.4031759415401943
 20
111.9499718943226583
 10
24.9866498032602635
 20
111.9499718943226583
 10
24.9866498032602635
 20
114.0595840359752629
 10
24.4363406408094477
 20
114.0595840359752629
 10
24.4363406408094477
 20
114.4952220348510394
 10
26.0822091062394641
 20
114.4952220348510394
 10
26.0822091062394641
 20
114.0595840359752629
 10
25.4987352445193949
 20
114.0595840359752629
 10
25.4987352445193949
 20
111.9499718943226583
 10
26.1063799887577339
 20
111.9499718943226583
 10
26.1063799887577339
 20
111.5143338954468817
  0
LWPOLYLINE
  5
133
100
AcDbEntity
  8
VectorEngraving
 62
256
370
-1
 48
1.0
  6
BYLAYER
100
AcDbPolyline
 90
39
 70
129
 10
27.6179033164699277
 20
111.4614952220348556
 42
-0.0824589363782335
 10
27.060286677908941
 20
111.5500281056773417
 42
-0.1239231858746221
 10
26.6274592467678488
 20
111.8206857785272632
 10
26.8905283867341254
 20
112.2653175941540269
 10
26.9096402473299641
 20
112.3035413153456972
 10
26.9529229904440726
 20
112.2799325463743685
 42
0.0468697015838569
 10
26.9790612703766186
 20
112.2057335581787498
 42
0.0914502355628486
 10
27.0529792017987667
 20
112.1169196177627896
 42
0.0681594634041907
 10
27.318577852726257
 20
111.9688026981450264
 42
0.0950027158644642
 10
27.6370151770657699
 20
111.9111860595840398
 42
0.1544690761801534
 10
28.0029510961214214
 20
112.009274873524447
 42
0.2606540762175297
 10
28.1440415964024773
 20
112.2990444069702107
 42
0.1208512743438189
 10
28.1010399100618358
 20
112.4783586284429475
 42
0.1219613454318247
 10
27.9312816188870201
 20
112.6481169196177632
 42
0.0382540592904297
 10
27.5555087127599805
 20
112.8493535694210266
 42
-0.0581074828849108
 10
27.0698426082068622
 20
113.1194491287239998
 42
-0.1200427752267725
 10
26.8140809443507635
 20
113.4162450815064602
 42
-0.1126833292539456
 10
26.7376335019674016
 20
113.7774030354131725
 42
-0.1592312928671718
 10
26.8596121416526188
 20
114.1697582911748157
 42
-0.1317713073948809
 10
27.1968802698145069
 20
114.4423833614390134
 42
-0.1105525077854788
 10
27.6898538504777996
 20
114.5430016863406451
 42
-0.2184592046670119
 10
28.5937324339516614
 20
114.1602023608768945
 10
28.2778246205733623
 20
113.7965148960090005
 10
28.249156829679599
 20
113.7633501967397365
 10
28.210933108487918
 20
113.7920179876334998
 42
0.0525272950835378
 10
28.1943507588532896
 20
113.8659359190556444
 42
0.094698316354414
 10
28.1299887577290662
 20
113.9589657110736312
 42
0.123914597407744
 10
27.9360595840359807
 20
114.0741989881956187
 42
0.0674802657518227
 10
27.6943507588532896
 20
114.102866779089382
 42
0.1710695699773708
 10
27.3832209106239475
 20
114.0118043844856714
 42
0.2395241755843967
 10
27.2682686902754376
 20
113.801573917931421
 42
0.1315107380139992
 10
27.3115514333895462
 20
113.6290050590219209
 42
0.1136957301831291
 10
27.486368746486793
 20
113.4665542439572761
 42
0.0383547771665033
 10
27.8905283867341254
 20
113.2608206857785262
 42
-0.0534254991441927
 10
28.3641090500281123
 20
112.9904440697020789
 42
-0.1275968227178383
 10
28.6058178752107963
 20
112.7009555930297893
 42
-0.1042366901074456
 10
28.6752388982574509
 20
112.3327712197863946
 42
-0.1279801959423846
 10
28.5650646430579016
 20
111.9159640247330003
 42
-0.1467899336018482
 10
28.2204890387858356
 20
111.5882518268690262
 42
-0.1239665239213959
  0
LWPOLYLINE
  5
134
100
AcDbEntity
  8
VectorEngraving
 62
256
370
-1
 48
1.0
  6
BYLAYER
100
AcDbPolyline
 90
12
 70
129
 10
29.0956998313659412
 20
111.5143338954468817
 10
29.0956998313659412
 20
114.4952220348510394
 10
31.038364249578418
 20
114.4952220348510394
 10
31.038364249578418
 20
114.0550871275997764
 10
29.6218381112984872
 20
114.0550871275997764
 10
29.6218381112984872
 20
113.2894884766722896
 10
30.7848510399100661
 20
113.2894884766722896
 10
30.7848510399100661
 20
112.8442945474985919
 10
29.6218381112984872
 20
112.8442945474985919
 10
29.6218381112984872
 20
111.9544688026981447
 10
31.0237492973580693
 20
111.9544688026981447
 10
31.0237492973580693
 20
111.5143338954468817
  0
INSERT
  5
135
100
AcDbEntity
  8
VectorEngraving
 62
256
370
-1
 48
1.0
  6
BYLAYER
100
AcDbBlockReference
  2
block 10
 10
25.25
 20
60.0
 30
0.0
  0
LWPOLYLINE
  5
136
100
AcDbEntity
  8
VectorEngraving
 62
256
370
-1
 48
1.0
  6
BYLAYER
100
AcDbPolyline
 90
39
 70
129
 10
18.0060427206295657
 20
40.9728311785647392
 42
-0.0824589363782426
 10
17.6342982949222389
 20
41.031853100993068
 42
-0.123923185874671
 10
17.3457466741615143
 20
41.21229154955968
 10
17.5211261008056951
 20
41.5087127599775201
 10
17.5338673412029209
 20
41.5341952407719717
 10
17.5627225032789944
 20
41.5184560614577478
 42
0.0468697015840995
 10
17.5801480232340275
 20
41.4689900693273401
 42
0.0914502355626948
 10
17.629426644182125
 20
41.4097807757166976
 42
0.0681594634041898
 10
17.806492411467115
 20
41.3110361626381888
 42
0.0950027158644819
 10
18.0187839610267915
 20
41.2726250702641977
 42
0.1544690761801952
 10
18.2627412403972258
 20
41.338017612891143
 42
0.2606540762175956
 10
18.3568015739179309
 20
41.5311973018549807
 42
0.120851274343831
 10
18.3281337830241711
 20
41.6507401161701338
 42
0.1219613454319223
 10
18.2149615889076273
 20
41.7639123102866776
 42
0.0382540592904338
 10
17.9644463181562664
 20
41.8980700768221865
 42
-0.0581074828848955
 10
17.6406689151208553
 20
42.0781337830241711
 42
-0.1200427752267727
 10
17.4701611392167884
 20
42.2759977515458161
 42
-0.1126833292539356
 10
17.4191961776278816
 20
42.5167697208169386
 42
-0.1592312928671565
 10
17.5005152707513574
 20
42.7783398913247197
 42
-0.1317713073948087
 10
17.7253606895259495
 20
42.9600899381675134
 42
-0.110552507785479
 10
18.0540097433014779
 20
43.0271688214352679
 42
-0.2184592046670044
 10
18.6565954656173858
 20
42.7719692711261033
 10
18.4459902566985186
 20
42.5295109612141715
 10
18.4268783961026799
 20
42.5074011617013312
 10
18.4013959153082247
 20
42.5265130222971734
 42
0.0525272950834444
 10
18.3903410155518081
 20
42.5757916432452745
 42
0.0946983163544968
 10
18.3474330148023235
 20
42.6378115045905943
 42
0.123914597407783
 10
18.218146899006932
 20
42.7146336893385836
 42
0.0674802657518854
 10
18.057007682218476
 20
42.7337455499344259
 42
0.1710695699773985
 10
17.8495877833989134
 20
42.6730372868652807
 42
0.2395241755844179
 10
17.7729529698332414
 20
42.5328836424957899
 42
0.1315107380140845
 10
17.8018081319093113
 20
42.4178377365561232
 42
0.113695730183165
 10
17.9183530073074735
 20
42.3095371931796933
 42
0.0383547771665097
 10
18.187792767472363
 20
42.1723814877271934
 42
-0.0534254991441924
 10
18.5035132096683519
 20
41.9921304103428952
 42
-0.1275968227178095
 10
18.6646524264568114
 20
41.799138092561364
 42
-0.1042366901074375
 10
18.7109331084879145
 20
41.5536818437324342
 42
-0.1279801959423541
 10
18.6374836050215471
 20
41.2758103803635024
 42
-0.1467899336018101
 10
18.4077665355068376
 20
41.0573355817875267
 42
-0.1239665239214015
  0
LWPOLYLINE
  5
137
100
AcDbEntity
  8
VectorEngraving
 62
256
370
-1
 48
1.0
  6
BYLAYER
100
AcDbPolyline
 90
8
 70
129
 10
20.0214071575791621
 20
41.0080569608394256
 10
19.8842514521266622
 20
41.4704890387858356
 10
19.3644837923927291
 20
41.4704890387858356
 10
19.2239554056586073
 20
41.0080569608394256
 10
18.8668259321716327
 20
41.0080569608394256
 10
19.5398632190369099
 20
43.0080569608394256
 10
19.7122447067640998
 20
43.0080569608394256
 10
20.385281993629377
 20
41.0080569608394256
  0
LWPOLYLINE
  5
138
100
AcDbEntity
  8
VectorEngraving
 62
256
370
-1
 48
1.0
  6
BYLAYER
100
AcDbPolyline
 90
3
 70
129
 10
19.6260539629005066
 20
42.3413902941727613
 10
19.440931234776091
 20
41.7290612703766186
 10
19.8078040097433004
 20
41.7290612703766186
  0
LWPOLYLINE
  5
139
100
AcDbEntity
  8
VectorEngraving
 62
256
370
-1
 48
1.0
  6
BYLAYER
100
AcDbPolyline
 90
13
 70
129
 10
20.5250608956342511
 20
41.0080569608394256
 10
20.5250608956342511
 20
42.9953157204421998
 10
20.8409687090125537
 20
42.9953157204421998
 10
21.2269533445756053
 20
42.0828180625819783
 10
21.6129379801386534
 20
42.9983136593591908
 10
21.9288457935169561
 20
42.9983136593591908
 10
21.9288457935169561
 20
41.0080569608394256
 10
21.6159359190556479
 20
41.0080569608394256
 10
21.6159359190556479
 20
42.3957279370432829
 10
21.3034007869589672
 20
41.6649803260258622
 10
21.1280213603147828
 20
41.6649803260258622
 10
20.8345980888139408
 20
42.3923552557616645
 10
20.8345980888139408
 20
41.0080569608394256
  0
LWPOLYLINE
  5
13A
100
AcDbEntity
  8
VectorEngraving
 62
256
370
-1
 48
1.0
  6
BYLAYER
100
AcDbPolyline
 90
11
 70
129
 10
22.1709293610642675
 20
41.0080569608394256
 10
22.1709293610642675
 20
42.9953157204421998
 10
22.8469645868465427
 20
42.9953157204421998
 42
-0.1226157369347577
 10
23.2265786022109779
 20
42.9154955967772196
 42
-0.1499740507230476
 10
23.4482387108862653
 20
42.7033914183998533
 42
-0.1268020082315195
 10
23.5200018737118235
 20
42.4114671163575068
 42
-0.1268596194923072
 10
23.4499250515270745
 20
42.1261008056960833
 42
-0.1500081120373337
 10
23.2329492224095944
 20
41.918868278058838
 42
-0.1226248171483551
 10
22.8630785085253869
 20
41.8407344950346669
 10
22.537427393666853
 20
41.8407344950346669
 10
22.537427393666853
 20
41.0080569608394256
  0
LWPOLYLINE
  5
13B
100
AcDbEntity
  8
VectorEngraving
 62
256
370
-1
 48
1.0
  6
BYLAYER
100
AcDbPolyline
 90
7
 70
129
 10
22.537427393666853
 20
42.1405283867341254
 10
22.8375960277309353
 20
42.1405283867341254
 42
0.1964422541879293
 10
23.0703110361626358
 20
42.2169758291174873
 42
0.2132598586825286
 10
23.150131159827616
 20
42.4114671163575068
 42
0.212905812503028
 10
23.0703110361626358
 20
42.60614577477984
 42
0.1973302280816734
 10
22.8405939666479298
 20
42.6827805883455156
 10
22.537427393666853
 20
42.6827805883455156
  0
LWPOLYLINE
  5
13C
100
AcDbEntity
  8
VectorEngraving
 62
256
370
-1
 48
1.0
  6
BYLAYER
100
AcDbPolyline
 90
9
 70
129
 10
23.7939385422521994
 20
42.9953157204421998
 10
24.1862937980138639
 20
42.9953157204421998
 10
24.1862937980138639
 20
42.9664605583661228
 42
0.1523096199733411
 10
24.1624976578602215
 20
42.9233651864343315
 42
0.0437068677127911
 10
24.1578133783024143
 20
42.8484167135094651
 10
24.1578133783024143
 20
41.3014802323402677
 10
25.0699362937980119
 20
41.3014802323402677
 10
25.0699362937980119
 20
41.0080569608394256
 10
23.7939385422521994
 20
41.0080569608394256
  0
LWPOLYLINE
  5
13D
100
AcDbEntity
  8
VectorEngraving
 62
256
370
-1
 48
1.0
  6
BYLAYER
100
AcDbPolyline
 90
12
 70
129
 10
25.3693554431328465
 20
41.0080569608394256
 10
25.3693554431328465
 20
42.9953157204421998
 10
26.6644650552744977
 20
42.9953157204421998
 10
26.6644650552744977
 20
42.7018924489413578
 10
25.7201142964212082
 20
42.7018924489413578
 10
25.7201142964212082
 20
42.1914933483230286
 10
26.4954562488289298
 20
42.1914933483230286
 10
26.4954562488289298
 20
41.8946973955405682
 10
25.7201142964212082
 20
41.8946973955405682
 10
25.7201142964212082
 20
41.3014802323402677
 10
26.6547217537942664
 20
41.3014802323402677
 10
26.6547217537942664
 20
41.0080569608394256
  0
LWPOLYLINE
  5
13E
100
AcDbEntity
  8
VectorEngraving
 62
256
370
-1
 48
1.0
  6
BYLAYER
100
AcDbPolyline
 90
26
 70
129
 10
29.2857878958216205
 20
40.9728311785647392
 42
-0.1371812061519287
 10
28.8885609893198421
 20
41.0798201236649803
 42
-0.1521335773926409
 10
28.6015083380176129
 20
41.413153456998316
 42
-0.1095731750364367
 10
28.4947067640996821
 20
41.9906314408843926
 42
-0.0854969824068521
 10
28.5664699269252367
 20
42.4834176503653751
 42
-0.1105493068353113
 10
28.756276934607456
 20
42.8008244332021732
 42
-0.1092743849584567
 10
29.0161607644744208
 20
42.9713322091062437
 42
-0.0894144458589337
 10
29.2985291362188462
 20
43.0237961401536495
 42
-0.1442794725259074
 10
29.6828274311410922
 20
42.9218662169758289
 42
-0.150150209901783
 10
29.9269720816938332
 20
42.6348135656736034
 10
29.7002529510961182
 20
42.4658047592280354
 10
29.6747704703016666
 20
42.4496908375491842
 10
29.6590312909874427
 20
42.4751733183436428
 42
0.1140804318626
 10
29.6541596402473289
 20
42.5216413715570596
 42
0.0461095061681405
 10
29.6208075697957653
 20
42.5902192242833095
 42
0.1205634682736323
 10
29.4754075323215261
 20
42.7033914183998533
 42
0.0973965581775231
 10
29.3176409968146885
 20
42.7337455499344259
 42
0.1710454528741307
 10
29.089422896758478
 20
42.6507401161701338
 42
0.1324894010124585
 10
28.9172287802136019
 20
42.4067828367997066
 42
0.0957756120555039
 10
28.8518362375866602
 20
42.0063706201986236
 42
0.1424637919354482
 10
28.9779370432827434
 20
41.4658047592280354
 42
0.2705536969347172
 10
29.2951564549372279
 20
41.2696271313471996
 42
0.1360351973350576
 10
29.4993910436574822
 20
41.3205920929361099
 42
0.1254759824623226
 10
29.6556586097058243
 20
41.4896008993816778
 10
29.9044875398163761
 20
41.304852913621886
 42
-0.1424969433067464
 10
29.6414183998501031
 20
41.0477796514896056
 42
-0.116168390737133
  0
LWPOLYLINE
  5
13F
100
AcDbEntity
  8
VectorEngraving
 62
256
370
-1
 48
1.0
  6
BYLAYER
100
AcDbPolyline
 90
9
 70
129
 10
30.1720535881581426
 20
42.9953157204421998
 10
30.5644088439198036
 20
42.9953157204421998
 10
30.5644088439198036
 20
42.9664605583661228
 42
0.1523096199731563
 10
30.5406127037661577
 20
42.9233651864343315
 42
0.0437068677127604
 10
30.5359284242083575
 20
42.8484167135094651
 10
30.5359284242083575
 20
41.3014802323402677
 10
31.4480513397039516
 20
41.3014802323402677
 10
31.4480513397039516
 20
41.0080569608394256
 10
30.1720535881581426
 20
41.0080569608394256
  0
LWPOLYLINE
  5
140
100
AcDbEntity
  8
VectorEngraving
 62
256
370
-1
 48
1.0
  6
BYLAYER
100
AcDbPolyline
 90
17
 70
129
 10
32.1877927674723594
 20
41.9074386359377939
 10
32.057007682218476
 20
41.7354318905752351
 10
32.057007682218476
 20
41.0080569608394256
 10
31.7028761476484888
 20
41.0080569608394256
 10
31.7028761476484888
 20
42.9953157204421998
 10
32.0824901630129276
 20
42.9953157204421998
 10
32.0824901630129276
 20
42.9664605583661228
 42
0.1689875292191906
 10
32.0601929923177806
 20
42.9233651864343315
 42
0.0297994704279455
 10
32.057007682218476
 20
42.8484167135094651
 10
32.057007682218476
 20
42.1817500468428008
 10
32.7173037286865309
 20
43.0144275810380421
 42
0.0531456125434619
 10
32.8383455124601795
 20
42.9985010305415045
 42
0.0100048626037495
 10
32.9500187371182278
 20
42.9953157204421998
 10
33.1160296046468048
 20
42.9953157204421998
 10
32.442992317781524
 20
42.1626381862469586
 10
33.1542533258384822
 20
41.011429642121044
 10
32.7427862094809825
 20
40.9953157204421998
  0
LWPOLYLINE
  5
141
100
AcDbEntity
  8
VectorEngraving
 62
256
370
-1
 48
1.0
  6
BYLAYER
100
AcDbPolyline
 90
26
 70
129
 10
21.3753513209668355
 20
66.9745175192055484
 42
-0.1371812061519631
 10
20.9781244144650572
 20
67.0815064643057895
 42
-0.1521335773926511
 10
20.6910717631628245
 20
67.414839797639118
 42
-0.1095731750364386
 10
20.5842701892448936
 20
67.9923177815252018
 42
-0.0854969824068457
 10
20.6560333520704518
 20
68.4851039910061843
 42
-0.1105493068352855
 10
20.8458403597526711
 20
68.8025107738429824
 42
-0.109274384958459
 10
21.1057241896196359
 20
68.9730185497470387
 42
-0.089414445858911
 10
21.3880925613640613
 20
69.0254824807944516
 42
-0.1442794725259089
 10
21.7723908562863038
 20
68.923552557616631
 42
-0.1501502099018372
 10
22.0165355068390483
 20
68.6364999063143983
 10
21.7898163762413333
 20
68.4674910998688375
 10
21.7643338954468817
 20
68.4513771781899862
 10
21.7485947161326578
 20
68.4768596589844378
 42
0.1140804318627397
 10
21.743723065392544
 20
68.5233277121978546
 42
0.0461095061682309
 10
21.7103709949409804
 20
68.5919055649241045
 42
0.1205634682737034
 10
21.5649709574667412
 20
68.7050777590406483
 42
0.0973965581777389
 10
21.4072044219599036
 20
68.735431890575228
 42
0.171045452874115
 10
21.1789863219036931
 20
68.652426456810943
 42
0.1324894010124406
 10
21.006792205358817
 20
68.4084691774405087
 42
0.0957756120555038
 10
20.9413996627318717
 20
68.0080569608394114
 42
0.1424637919354567
 10
21.067500468427955
 20
67.4674910998688375
 42
0.2705536969347554
 10
21.384719880082443
 20
67.2713134719880088
 42
0.1360351973349825
 10
21.5889544688026973
 20
67.322278433576912
 42
0.1254759824623012
 10
21.7452220348510394
 20
67.4912872400224728
 10
21.9940509649615876
 20
67.3065392542626881
 42
-0.1424969433067681
 10
21.7309818249953146
 20
67.0494659921304077
 42
-0.1161683907371179
  0
LWPOLYLINE
  5
142
100
AcDbEntity
  8
VectorEngraving
 62
256
370
-1
 48
1.0
  6
BYLAYER
100
AcDbPolyline
 90
7
 70
129
 10
22.7690181750046854
 20
67.0033726812816184
 10
22.1308319280494672
 20
68.9970020610829948
 10
22.4883361439010692
 20
68.9970020610829948
 10
22.9061738804571853
 20
67.5999625257635302
 10
23.2951564549372314
 20
68.9970020610829948
 10
23.6429173693085986
 20
68.9970020610829948
 10
23.0111017425519968
 20
67.0033726812816184
  0
LWPOLYLINE
  5
143
100
AcDbEntity
  8
VectorEngraving
 62
256
370
-1
 48
1.0
  6
BYLAYER
100
AcDbPolyline
 90
9
 70
129
 10
25.4506745362563223
 20
68.9970020610829948
 10
25.8430297920179868
 20
68.9970020610829948
 10
25.8430297920179868
 20
68.9681468990069249
 42
0.1523096199734103
 10
25.8192336518643444
 20
68.9250515270751265
 42
0.043706867712755
 10
25.8145493723065407
 20
68.8501030541502672
 10
25.8145493723065407
 20
67.3031665729810697
 10
26.7266722878021383
 20
67.3031665729810697
 10
26.7266722878021383
 20
67.0097433014802277
 10
25.4506745362563223
 20
67.0097433014802277
  0
LWPOLYLINE
  5
144
100
AcDbEntity
  8
VectorEngraving
 62
256
370
-1
 48
1.0
  6
BYLAYER
100
AcDbPolyline
 90
7
 70
129
 10
27.5526044594341393
 20
67.0033726812816184
 10
26.9144182124789211
 20
68.9970020610829948
 10
27.271922428330523
 20
68.9970020610829948
 10
27.6897601648866392
 20
67.5999625257635302
 10
28.0787427393666853
 20
68.9970020610829948
 10
28.426503653738056
 20
68.9970020610829948
 10
27.7946880269814507
 20
67.0033726812816184
  0
LWPOLYLINE
  5
145
100
AcDbEntity
  8
VectorEngraving
 62
256
370
-1
 48
1.0
  6
BYLAYER
100
AcDbPolyline
 90
9
 70
129
 10
28.6397320592092939
 20
68.9970020610829948
 10
29.0320873149709584
 20
68.9970020610829948
 10
29.0320873149709584
 20
68.9681468990069249
 42
0.1523096199732553
 10
29.0082911748173125
 20
68.9250515270751265
 42
0.0437068677127228
 10
29.0036068952595087
 20
68.8501030541502672
 10
29.0036068952595087
 20
67.3031665729810697
 10
29.9157298107551064
 20
67.3031665729810697
 10
29.9157298107551064
 20
67.0097433014802277
 10
28.6397320592092939
 20
67.0097433014802277
  0
LWPOLYLINE
  5
146
100
AcDbEntity
  8
VectorEngraving
 62
256
370
-1
 48
1.0
  6
BYLAYER
100
AcDbPolyline
 90
39
 70
129
 10
8.4501124227093865
 20
72.4614952220348556
 42
-0.082458936378233
 10
7.892495784148398
 20
72.5500281056773417
 42
-0.1239231858746208
 10
7.4596683530073093
 20
72.8206857785272632
 10
7.7227374929735824
 20
73.2653175941540269
 10
7.7418493535694211
 20
73.3035413153456972
 10
7.7851320966835296
 20
73.2799325463743685
 42
0.0468697015838719
 10
7.8112703766160756
 20
73.2057335581787498
 42
0.091450235562854
 10
7.8851883080382237
 20
73.1169196177627896
 42
0.068159463404192
 10
8.1507869589657105
 20
72.9688026981450264
 42
0.0950027158644651
 10
8.4692242833052269
 20
72.9111860595840398
 42
0.1544690761801539
 10
8.8351602023608784
 20
73.009274873524447
 42
0.2606540762175558
 10
8.9762507026419343
 20
73.2990444069702107
 42
0.1208512743438002
 10
8.9332490163012928
 20
73.4783586284429475
 42
0.1219613454318398
 10
8.7634907251264771
 20
73.6481169196177632
 42
0.0382540592904316
 10
8.3877178189994375
 20
73.8493535694210266
 42
-0.0581074828849039
 10
7.9020517144463183
 20
74.1194491287239998
 42
-0.1200427752267503
 10
7.6462900505902205
 20
74.4162450815064602
 42
-0.1126833292539591
 10
7.5698426082068586
 20
74.7774030354131582
 42
-0.1592312928671414
 10
7.6918212478920758
 20
75.1697582911748157
 42
-0.1317713073948805
 10
8.0290893760539639
 20
75.4423833614390134
 42
-0.1105525077854747
 10
8.5220629567172566
 20
75.5430016863406451
 42
-0.2184592046670116
 10
9.4259415401911184
 20
75.1602023608768945
 10
9.1100337268128158
 20
74.7965148960090005
 10
9.0813659359190559
 20
74.7633501967397365
 10
9.043142214727375
 20
74.7920179876334998
 42
0.0525272950834882
 10
9.0265598650927501
 20
74.8659359190556444
 42
0.0946983163544408
 10
8.9621978639685231
 20
74.9589657110736312
 42
0.1239145974077355
 10
8.7682686902754376
 20
75.0741989881956187
 42
0.0674802657518259
 10
8.5265598650927501
 20
75.102866779089382
 42
0.171069569977381
 10
8.215430016863408
 20
75.0118043844856714
 42
0.2395241755844225
 10
8.1004777965148982
 20
74.801573917931421
 42
0.1315107380140621
 10
8.1437605396290067
 20
74.6290050590219209
 42
0.1136957301831397
 10
8.3185778527262499
 20
74.4665542439572761
 42
0.0383547771664944
 10
8.7227374929735824
 20
74.2608206857785262
 42
-0.0534254991441985
 10
9.1963181562675658
 20
73.9904440697020789
 42
-0.1275968227178356
 10
9.4380269814502533
 20
73.7009555930297893
 42
-0.1042366901074433
 10
9.5074480044969079
 20
73.3327712197863946
 42
-0.1279801959423986
 10
9.3972737492973586
 20
72.9159640247330003
 42
-0.146789933601833
 10
9.0526981450252961
 20
72.5882518268690262
 42
-0.1239665239213959
  0
LWPOLYLINE
  5
147
100
AcDbEntity
  8
VectorEngraving
 62
256
370
-1
 48
1.0
  6
BYLAYER
100
AcDbPolyline
 90
8
 70
129
 10
11.4731590781337829
 20
72.5143338954468817
 10
11.2674255199550313
 20
73.2079820123665002
 10
10.4877740303541316
 20
73.2079820123665002
 10
10.2769814502529524
 20
72.5143338954468817
 10
9.7412872400224852
 20
72.5143338954468817
 10
10.7508431703204046
 20
75.5143338954468817
 10
11.0094154019111876
 20
75.5143338954468817
 10
12.018971332209107
 20
72.5143338954468817
  0
LWPOLYLINE
  5
148
100
AcDbEntity
  8
VectorEngraving
 62
256
370
-1
 48
1.0
  6
BYLAYER
100
AcDbPolyline
 90
3
 70
129
 10
10.8801292861157961
 20
74.5143338954468817
 10
10.6024451939291744
 20
73.5958403597526711
 10
11.1527543563799902
 20
73.5958403597526711
  0
LWPOLYLINE
  5
149
100
AcDbEntity
  8
VectorEngraving
 62
256
370
-1
 48
1.0
  6
BYLAYER
100
AcDbPolyline
 90
13
 70
129
 10
12.2286396852164145
 20
72.5143338954468817
 10
12.2286396852164145
 20
75.4952220348510394
 10
12.7025014052838685
 20
75.4952220348510394
 10
13.2814783586284442
 20
74.1264755480607107
 10
13.8604553119730198
 20
75.4997189432265401
 10
14.3343170320404738
 20
75.4997189432265401
 10
14.3343170320404738
 20
72.5143338954468817
 10
13.8649522203485116
 20
72.5143338954468817
 10
13.8649522203485116
 20
74.5958403597526711
 10
13.396149522203487
 20
73.4997189432265401
 10
13.1330803822372122
 20
73.4997189432265401
 10
12.6929454749859474
 20
74.5907813378302365
 10
12.6929454749859474
 20
72.5143338954468817
  0
LWPOLYLINE
  5
14A
100
AcDbEntity
  8
VectorEngraving
 62
256
370
-1
 48
1.0
  6
BYLAYER
100
AcDbPolyline
 90
11
 70
129
 10
14.6974423833614392
 20
72.5143338954468817
 10
14.6974423833614392
 20
75.4952220348510394
 10
15.711495222034852
 20
75.4952220348510394
 42
-0.1226157369347552
 10
16.2809162450815066
 20
75.3754918493535655
 42
-0.1499740507230473
 10
16.6134064080944341
 20
75.0573355817875267
 42
-0.1268020082315179
 10
16.7210511523327696
 20
74.6194491287239998
 42
-0.1268596194922887
 10
16.6159359190556515
 20
74.1913996627318681
 42
-0.1500081120373329
 10
16.2904721753794277
 20
73.8805508712760002
 42
-0.1226248171482943
 10
15.7356661045531201
 20
73.7633501967397365
 10
15.2471894322653192
 20
73.7633501967397365
 10
15.2471894322653192
 20
72.5143338954468817
  0
LWPOLYLINE
  5
14B
100
AcDbEntity
  8
VectorEngraving
 62
256
370
-1
 48
1.0
  6
BYLAYER
100
AcDbPolyline
 90
7
 70
129
 10
15.2471894322653192
 20
74.2130410342889348
 10
15.6974423833614392
 20
74.2130410342889348
 42
0.1964422541879994
 10
16.0465148960089934
 20
74.3277121978639741
 42
0.2132598586825557
 10
16.1662450815064638
 20
74.6194491287239998
 42
0.2129058125030956
 10
16.0465148960089934
 20
74.9114671163574997
 42
0.1973302280816533
 10
15.7019392917369309
 20
75.026419336706013
 10
15.2471894322653192
 20
75.026419336706013
  0
LWPOLYLINE
  5
14C
100
AcDbEntity
  8
VectorEngraving
 62
256
370
-1
 48
1.0
  6
BYLAYER
100
AcDbPolyline
 90
9
 70
129
 10
17.1319561551433388
 20
75.4952220348510394
 10
17.7204890387858356
 20
75.4952220348510394
 10
17.7204890387858356
 20
75.4519392917369345
 42
0.1523096199732397
 10
17.6847948285553684
 20
75.3872962338392369
 42
0.0437068677128239
 10
17.6777684092186611
 20
75.274873524451948
 10
17.6777684092186611
 20
72.9544688026981447
 10
19.0459527824620594
 20
72.9544688026981447
 10
19.0459527824620594
 20
72.5143338954468817
 10
17.1319561551433388
 20
72.5143338954468817
  0
LWPOLYLINE
  5
14D
100
AcDbEntity
  8
VectorEngraving
 62
256
370
-1
 48
1.0
  6
BYLAYER
100
AcDbPolyline
 90
12
 70
129
 10
19.4950815064643059
 20
72.5143338954468817
 10
19.4950815064643059
 20
75.4952220348510394
 10
21.4377459246767827
 20
75.4952220348510394
 10
21.4377459246767827
 20
75.0550871275997764
 10
20.021219786396852
 20
75.0550871275997764
 10
20.021219786396852
 20
74.2894884766722896
 10
21.1842327150084344
 20
74.2894884766722896
 10
21.1842327150084344
 20
73.8442945474985919
 10
20.021219786396852
 20
73.8442945474985919
 10
20.021219786396852
 20
72.9544688026981447
 10
21.4231309724564376
 20
72.9544688026981447
 10
21.4231309724564376
 20
72.5143338954468817
  0
LWPOLYLINE
  5
14E
100
AcDbEntity
  8
VectorEngraving
 62
256
370
-1
 48
1.0
  6
BYLAYER
100
AcDbPolyline
 90
8
 70
129
 10
25.8239179314221481
 20
72.5143338954468817
 10
25.6181843732433947
 20
73.2079820123665002
 10
24.8385328836424968
 20
73.2079820123665002
 10
24.6277403035413158
 20
72.5143338954468817
 10
24.0920460933108487
 20
72.5143338954468817
 10
25.1016020236087698
 20
75.5143338954468817
 10
25.3601742551995493
 20
75.5143338954468817
 10
26.3697301854974704
 20
72.5143338954468817
  0
LWPOLYLINE
  5
14F
100
AcDbEntity
  8
VectorEngraving
 62
256
370
-1
 48
1.0
  6
BYLAYER
100
AcDbPolyline
 90
3
 70
129
 10
25.2308881394041578
 20
74.5143338954468817
 10
24.9532040472175396
 20
73.5958403597526711
 10
25.5035132096683519
 20
73.5958403597526711
  0
LWPOLYLINE
  5
150
100
AcDbEntity
  8
VectorEngraving
 62
256
370
-1
 48
1.0
  6
BYLAYER
100
AcDbPolyline
 90
13
 70
129
 10
26.603569421023046
 20
75.4952220348510394
 10
27.167931422147273
 20
75.4952220348510394
 10
28.1774873524451941
 20
73.5334457560427239
 10
28.1488195615514343
 20
75.4952220348510394
 10
28.6755199550309179
 20
75.4952220348510394
 10
28.6755199550309179
 20
75.4519392917369345
 42
0.1276856979477034
 10
28.6440415964024737
 20
75.3872962338392369
 42
0.0454369266294306
 10
28.6367341202922994
 20
75.274873524451948
 10
28.6367341202922994
 20
72.5143338954468817
 10
28.1347667228780232
 20
72.5143338954468817
 10
27.0914839797639146
 20
74.6053962900505923
 10
27.0914839797639146
 20
72.5143338954468817
 10
26.603569421023046
 20
72.5143338954468817
  0
LWPOLYLINE
  5
151
100
AcDbEntity
  8
VectorEngraving
 62
256
370
-1
 48
1.0
  6
BYLAYER
100
AcDbPolyline
 90
10
 70
129
 10
29.0189713322091052
 20
72.5143338954468817
 10
29.0189713322091052
 20
75.4952220348510394
 10
29.7896290050590231
 20
75.4952220348510394
 42
-0.111808999117418
 10
30.3995222034851054
 20
75.3875772906127111
 42
-0.1180376728833376
 10
30.7654581225407533
 20
75.0837549184935398
 42
-0.0860317353694641
 10
30.9976110174255197
 20
74.6051152332771181
 42
-0.0734144486326969
 10
31.0813659359190559
 20
73.9831365935919081
 42
-0.0937972774119243
 10
30.9329679595278257
 20
73.2009555930297893
 42
-0.1638286356081282
 10
30.4998594716132665
 20
72.6913996627318681
 42
-0.1360343027579304
 10
29.7322934232714999
 20
72.5143338954468817
  0
LWPOLYLINE
  5
152
100
AcDbEntity
  8
VectorEngraving
 62
256
370
-1
 48
1.0
  6
BYLAYER
100
AcDbPolyline
 90
9
 70
129
 10
29.5456717256885888
 20
72.9353569421023025
 10
29.7176784710511512
 20
72.9353569421023025
 42
0.1550328994721741
 10
30.2081225407532301
 20
73.0646430578976975
 42
0.160923669638689
 10
30.4737211916807169
 20
73.4283305227656058
 42
0.0875887959747135
 10
30.5501686340640823
 20
73.9786396852164216
 42
0.0688444510862851
 10
30.4807476110174242
 20
74.5525576166385662
 42
0.1625887306929416
 10
30.2393198426082037
 20
74.9305789769533419
 42
0.1685507963357147
 10
29.7705171444631809
 20
75.0646430578976975
 10
29.5456717256885888
 20
75.0646430578976975
  0
LWPOLYLINE
  5
153
100
AcDbEntity
  8
VectorEngraving
 62
256
370
-1
 48
1.0
  6
BYLAYER
100
AcDbPolyline
 90
18
 70
129
 10
33.7834457560427239
 20
75.4952220348510394
 10
34.3719786396852172
 20
75.4952220348510394
 10
34.3719786396852172
 20
75.4519392917369345
 42
0.1523096199730685
 10
34.33628442945475
 20
75.3872962338392369
 42
0.0437068677127919
 10
34.3292580101180391
 20
75.274873524451948
 10
34.3292580101180391
 20
74.2844294547498549
 10
35.2477515458122497
 20
74.2844294547498549
 10
35.2477515458122497
 20
75.4952220348510394
 10
35.83628442945475
 20
75.4952220348510394
 10
35.83628442945475
 20
75.4519392917369345
 42
0.168987529219206
 10
35.8028386734120261
 20
75.3872962338392369
 42
0.0297994704277761
 10
35.7980607082630726
 20
75.274873524451948
 10
35.7980607082630726
 20
72.5143338954468817
 10
35.2477515458122497
 20
72.5143338954468817
 10
35.2477515458122497
 20
73.853850477796513
 10
34.3292580101180391
 20
73.853850477796513
 10
34.3292580101180391
 20
72.5143338954468817
 10
33.7834457560427239
 20
72.5143338954468817
  0
LWPOLYLINE
  5
154
100
AcDbEntity
  8
VectorEngraving
 62
256
370
-1
 48
1.0
  6
BYLAYER
100
AcDbPolyline
 90
8
 70
129
 10
37.1994097807757171
 20
72.4569983136593549
 42
-0.2591303879110709
 10
36.3669196177627896
 20
72.8589094997189477
 42
-0.1527047570207541
 10
36.0847386172006708
 20
74.0022484541877503
 42
-0.1520552001393976
 10
36.3669196177627896
 20
75.1312535132096713
 42
-0.2609893822229361
 10
37.1994097807757171
 20
75.5379426644182104
 42
-0.259888763800787
 10
38.0248735244519409
 20
75.1312535132096713
 42
-0.1532357876440795
 10
38.3095840359752629
 20
74.0022484541877503
 42
-0.1538924925182081
 10
38.0248735244519409
 20
72.8589094997189477
 42
-0.2580459804199894
  0
LWPOLYLINE
  5
155
100
AcDbEntity
  8
VectorEngraving
 62
256
370
-1
 48
1.0
  6
BYLAYER
100
AcDbPolyline
 90
8
 70
129
 10
37.1994097807757171
 20
72.897133220910618
 42
0.2924199676809329
 10
37.620432827431145
 20
73.1722878021360259
 42
0.1214329083418465
 10
37.7733277121978617
 20
74.0073074761101708
 42
0.1202673064395548
 10
37.620432827431145
 20
74.8130972456436183
 42
0.2966022124946768
 10
37.1994097807757171
 20
75.0978077571669473
 42
0.2995688277753816
 10
36.7710792580101185
 20
74.8130972456436183
 42
0.1186384765761992
 10
36.6204328274311379
 20
74.0073074761101708
 42
0.1197837217357469
 10
36.7710792580101185
 20
73.1722878021360259
 42
0.2952609534182901
  0
LWPOLYLINE
  5
156
100
AcDbEntity
  8
VectorEngraving
 62
256
370
-1
 48
1.0
  6
BYLAYER
100
AcDbPolyline
 90
9
 70
129
 10
38.6580944350758813
 20
75.4952220348510394
 10
39.2466273187183816
 20
75.4952220348510394
 10
39.2466273187183816
 20
75.4519392917369345
 42
0.1523096199731547
 10
39.2109331084879145
 20
75.3872962338392369
 42
0.0437068677128466
 10
39.2039066891512107
 20
75.274873524451948
 10
39.2039066891512107
 20
72.9544688026981447
 10
40.5720910623946054
 20
72.9544688026981447
 10
40.5720910623946054
 20
72.5143338954468817
 10
38.6580944350758813
 20
72.5143338954468817
  0
LWPOLYLINE
  5
157
100
AcDbEntity
  8
VectorEngraving
 62
256
370
-1
 48
1.0
  6
BYLAYER
100
AcDbPolyline
 90
10
 70
129
 10
40.9779370432827434
 20
72.5143338954468817
 10
40.9779370432827434
 20
75.4952220348510394
 10
41.7485947161326578
 20
75.4952220348510394
 42
-0.1118089991174243
 10
42.3584879145587365
 20
75.3875772906127111
 42
-0.118037672883341
 10
42.7244238336143951
 20
75.0837549184935398
 42
-0.086031735369439
 10
42.956576728499158
 20
74.6051152332771181
 42
-0.0734144486326938
 10
43.0403316469926907
 20
73.9831365935918939
 42
-0.0937972774119276
 10
42.8919336706014604
 20
73.2009555930297893
 42
-0.1638286356081365
 10
42.4588251826869012
 20
72.6913996627318681
 42
-0.1360343027579325
 10
41.6912591343451311
 20
72.5143338954468817
  0
LWPOLYLINE
  5
158
100
AcDbEntity
  8
VectorEngraving
 62
256
370
-1
 48
1.0
  6
BYLAYER
100
AcDbPolyline
 90
9
 70
129
 10
41.5046374367622235
 20
72.9353569421023025
 10
41.6766441821247895
 20
72.9353569421023025
 42
0.1550328994721714
 10
42.1670882518268684
 20
73.0646430578976975
 42
0.1609236696386935
 10
42.4326869027543552
 20
73.4283305227656058
 42
0.0875887959747155
 10
42.509134345137717
 20
73.9786396852164216
 42
0.0688444510862719
 10
42.4397133220910661
 20
74.5525576166385662
 42
0.1625887306929408
 10
42.198285553681842
 20
74.9305789769533419
 42
0.1685507963357091
 10
41.7294828555368156
 20
75.0646430578976975
 10
41.5046374367622235
 20
75.0646430578976975
  0
ENDSEC
  0
SECTION
  2
OBJECTS
  0
DICTIONARY
  5
C
100
AcDbDictionary
280
0
281
1
  3
ACAD_GROUP
350
D
  3
ACAD_LAYOUT
350
1A
  3
ACAD_MLINESTYLE
350
17
  3
ACAD_PLOTSETTINGS
350
19
  3
ACAD_PLOTSTYLENAME
350
E
  3
AcDbVariableDictionary
350
159
  3
QCAD_OBJECTS
350
15A
  0
DICTIONARY
  5
D
100
AcDbDictionary
280
0
281
1
  0
ACDBDICTIONARYWDFLT
  5
E
100
AcDbDictionary
281
1
  3
Normal
350
F
100
AcDbDictionaryWithDefault
340
F
  0
ACDBPLACEHOLDER
  5
F
  0
DICTIONARY
  5
17
100
AcDbDictionary
280
0
281
1
  3
Standard
350
18
  0
MLINESTYLE
  5
18
100
AcDbMlineStyle
  2
STANDARD
 70
0
  3

 62
256
 51
90.0
 52
90.0
 71
2
 49
0.5
 62
256
  6
BYLAYER
 49
-0.5
 62
256
  6
BYLAYER
  0
DICTIONARY
  5
19
100
AcDbDictionary
280
0
281
1
  0
DICTIONARY
  5
1A
100
AcDbDictionary
281
1
  3
Layout1
350
1E
  3
Layout2
350
26
  3
Model
350
22
  0
LAYOUT
  5
1E
100
AcDbPlotSettings
  1

  2
none_device
  4

  6

 40
0.0
 41
0.0
 42
0.0
 43
0.0
 44
0.0
 45
0.0
 46
0.0
 47
0.0
 48
0.0
 49
0.0
140
0.0
141
0.0
142
1.0
143
1.0
 70
688
 72
0
 73
0
 74
5
  7

 75
16
147
1.0
148
0.0
149
0.0
100
AcDbLayout
  1
Layout1
 70
1
 71
1
 10
0.0
 20
0.0
 11
420.0
 21
297.0
 12
0.0
 22
0.0
 32
0.0
 14
100000000000000000000.0
 24
100000000000000000000.0
 34
100000000000000000000.0
 15
-100000000000000000000.0
 25
-100000000000000000000.0
 35
-100000000000000000000.0
146
0.0
 13
0.0
 23
0.0
 33
0.0
 16
1.0
 26
0.0
 36
0.0
 17
0.0
 27
1.0
 37
0.0
 76
0
330
1B
  0
LAYOUT
  5
22
100
AcDbPlotSettings
  1

  2
none_device
  4

  6

 40
0.0
 41
0.0
 42
0.0
 43
0.0
 44
0.0
 45
0.0
 46
0.0
 47
0.0
 48
0.0
 49
0.0
140
0.0
141
0.0
142
1.0
143
1.0
 70
1712
 72
0
 73
0
 74
0
  7

 75
0
147
1.0
148
0.0
149
0.0
100
AcDbLayout
  1
Model
 70
1
 71
0
 10
0.0
 20
0.0
 11
12.0
 21
9.0
 12
0.0
 22
0.0
 32
0.0
 14
0.0
 24
0.0
 34
0.0
 15
0.0
 25
0.0
 35
0.0
146
0.0
 13
0.0
 23
0.0
 33
0.0
 16
1.0
 26
0.0
 36
0.0
 17
0.0
 27
1.0
 37
0.0
 76
0
330
1F
  0
LAYOUT
  5
26
100
AcDbPlotSettings
  1

  2
none_device
  4

  6

 40
0.0
 41
0.0
 42
0.0
 43
0.0
 44
0.0
 45
0.0
 46
0.0
 47
0.0
 48
0.0
 49
0.0
140
0.0
141
0.0
142
1.0
143
1.0
 70
688
 72
0
 73
0
 74
5
  7

 75
16
147
1.0
148
0.0
149
0.0
100
AcDbLayout
  1
Layout2
 70
1
 71
2
 10
0.0
 20
0.0
 11
12.0
 21
9.0
 12
0.0
 22
0.0
 32
0.0
 14
0.0
 24
0.0
 34
0.0
 15
0.0
 25
0.0
 35
0.0
146
0.0
 13
0.0
 23
0.0
 33
0.0
 16
1.0
 26
0.0
 36
0.0
 17
0.0
 27
1.0
 37
0.0
 76
0
330
23
  0
DICTIONARY
  5
159
100
AcDbDictionary
281
1
  3
DIMASSOC
350
15C
  3
HIDETEXT
350
15B
  0
DICTIONARYVAR
  5
15B
100
DictionaryVariables
280
0
  1
2
  0
DICTIONARYVAR
  5
15C
100
DictionaryVariables
280
0
  1
1
  0
DICTIONARY
  5
15A
100
AcDbDictionary
281
1
  3
ColorSettings/BackgroundColor
350
15D
  3
ColorSettings/ColorMode
350
15E
  3
Grid/DisplayGrid00
350
15F
  3
Grid/DisplayGrid01
350
160
  3
Grid/DisplayGrid02
350
161
  3
Grid/DisplayGrid03
350
162
  3
Grid/GridSpacingX00
350
163
  3
Grid/GridSpacingX01
350
164
  3
Grid/GridSpacingX02
350
165
  3
Grid/GridSpacingX03
350
166
  3
Grid/GridSpacingY00
350
167
  3
Grid/GridSpacingY01
350
168
  3
Grid/GridSpacingY02
350
169
  3
Grid/GridSpacingY03
350
16A
  3
Grid/IsometricGrid00
350
16B
  3
Grid/IsometricGrid01
350
16C
  3
Grid/IsometricGrid02
350
16D
  3
Grid/IsometricGrid03
350
16E
  3
Grid/IsometricProjection00
350
16F
  3
Grid/IsometricProjection01
350
170
  3
Grid/IsometricProjection02
350
171
  3
Grid/IsometricProjection03
350
172
  3
Grid/MetaGridSpacingX00
350
173
  3
Grid/MetaGridSpacingX01
350
174
  3
Grid/MetaGridSpacingX02
350
175
  3
Grid/MetaGridSpacingX03
350
176
  3
Grid/MetaGridSpacingY00
350
177
  3
Grid/MetaGridSpacingY01
350
178
  3
Grid/MetaGridSpacingY02
350
179
  3
Grid/MetaGridSpacingY03
350
17A
  3
MultiPageSettings/Columns
350
17B
  3
MultiPageSettings/GlueMarginsBottom
350
17C
  3
MultiPageSettings/GlueMarginsLeft
350
17D
  3
MultiPageSettings/GlueMarginsRight
350
17E
  3
MultiPageSettings/GlueMarginsTop
350
17F
  3
MultiPageSettings/PrintCropMarks
350
180
  3
MultiPageSettings/Rows
350
181
  3
PageSettings/OffsetX
350
182
  3
PageSettings/OffsetY
350
183
  3
PageSettings/PageOrientation
350
184
  3
PageSettings/PaperHeight
350
185
  3
PageSettings/PaperWidth
350
186
  3
PageSettings/Scale
350
187
  3
PageSettings/ShowPaperBorders
350
188
  3
PageTagSettings/EnablePageTags
350
189
  3
PageTagSettings/TagAlignment
350
18A
  3
PageTagSettings/TagFont
350
18B
  3
PageTagSettings/TagPosition
350
18C
  3
QCADVersion
350
18D
  3
UnitSettings/PaperUnit
350
18E
  3
ViewportCenter
350
18F
  3
ViewportHeight
350
190
  3
ViewportWidth
350
191
  0
XRECORD
  5
15D
330
15A
100
AcDbXrecord
280
1
1000
White
  0
XRECORD
  5
15E
330
15A
100
AcDbXrecord
280
1
1000
FullColor
  0
XRECORD
  5
15F
330
15A
100
AcDbXrecord
280
1
290
1
  0
XRECORD
  5
160
330
15A
100
AcDbXrecord
280
1
290
1
  0
XRECORD
  5
161
330
15A
100
AcDbXrecord
280
1
290
1
  0
XRECORD
  5
162
330
15A
100
AcDbXrecord
280
1
290
1
  0
XRECORD
  5
163
330
15A
100
AcDbXrecord
280
1
1000
auto
  0
XRECORD
  5
164
330
15A
100
AcDbXrecord
280
1
1000
auto
  0
XRECORD
  5
165
330
15A
100
AcDbXrecord
280
1
1000
auto
  0
XRECORD
  5
166
330
15A
100
AcDbXrecord
280
1
1000
auto
  0
XRECORD
  5
167
330
15A
100
AcDbXrecord
280
1
1000
auto
  0
XRECORD
  5
168
330
15A
100
AcDbXrecord
280
1
1000
auto
  0
XRECORD
  5
169
330
15A
100
AcDbXrecord
280
1
1000
auto
  0
XRECORD
  5
16A
330
15A
100
AcDbXrecord
280
1
1000
auto
  0
XRECORD
  5
16B
330
15A
100
AcDbXrecord
280
1
290
0
  0
XRECORD
  5
16C
330
15A
100
AcDbXrecord
280
1
290
0
  0
XRECORD
  5
16D
330
15A
100
AcDbXrecord
280
1
290
0
  0
XRECORD
  5
16E
330
15A
100
AcDbXrecord
280
1
290
0
  0
XRECORD
  5
16F
330
15A
100
AcDbXrecord
280
1
 90
65537
  0
XRECORD
  5
170
330
15A
100
AcDbXrecord
280
1
 90
65537
  0
XRECORD
  5
171
330
15A
100
AcDbXrecord
280
1
 90
65537
  0
XRECORD
  5
172
330
15A
100
AcDbXrecord
280
1
 90
65537
  0
XRECORD
  5
173
330
15A
100
AcDbXrecord
280
1
1000
auto
  0
XRECORD
  5
174
330
15A
100
AcDbXrecord
280
1
1000
auto
  0
XRECORD
  5
175
330
15A
100
AcDbXrecord
280
1
1000
auto
  0
XRECORD
  5
176
330
15A
100
AcDbXrecord
280
1
1000
auto
  0
XRECORD
  5
177
330
15A
100
AcDbXrecord
280
1
1000
auto
  0
XRECORD
  5
178
330
15A
100
AcDbXrecord
280
1
1000
auto
  0
XRECORD
  5
179
330
15A
100
AcDbXrecord
280
1
1000
auto
  0
XRECORD
  5
17A
330
15A
100
AcDbXrecord
280
1
1000
auto
  0
XRECORD
  5
17B
330
15A
100
AcDbXrecord
280
1
 90
1
  0
XRECORD
  5
17C
330
15A
100
AcDbXrecord
280
1
 40
10.0
  0
XRECORD
  5
17D
330
15A
100
AcDbXrecord
280
1
 40
10.0
  0
XRECORD
  5
17E
330
15A
100
AcDbXrecord
280
1
 40
10.0
  0
XRECORD
  5
17F
330
15A
100
AcDbXrecord
280
1
 40
10.0
  0
XRECORD
  5
180
330
15A
100
AcDbXrecord
280
1
290
0
  0
XRECORD
  5
181
330
15A
100
AcDbXrecord
280
1
 90
1
  0
XRECORD
  5
182
330
15A
100
AcDbXrecord
280
1
 40
0.0
  0
XRECORD
  5
183
330
15A
100
AcDbXrecord
280
1
 40
0.0
  0
XRECORD
  5
184
330
15A
100
AcDbXrecord
280
1
1000
Portrait
  0
XRECORD
  5
185
330
15A
100
AcDbXrecord
280
1
 40
297.0
  0
XRECORD
  5
186
330
15A
100
AcDbXrecord
280
1
 40
210.0
  0
XRECORD
  5
187
330
15A
100
AcDbXrecord
280
1
1000
1:1
  0
XRECORD
  5
188
330
15A
100
AcDbXrecord
280
1
290
1
  0
XRECORD
  5
189
330
15A
100
AcDbXrecord
280
1
290
0
  0
XRECORD
  5
18A
330
15A
100
AcDbXrecord
280
1
1000
Inside
  0
XRECORD
  5
18B
330
15A
100
AcDbXrecord
280
1
1000
Arial,10,-1,5,50,0,0,0,0,0
  0
XRECORD
  5
18C
330
15A
100
AcDbXrecord
280
1
1000
TopLeft
  0
XRECORD
  5
18D
330
15A
100
AcDbXrecord
280
1
1000
3.27.6.7
  0
XRECORD
  5
18E
330
15A
100
AcDbXrecord
280
1
 90
4
  0
XRECORD
  5
190
330
15A
100
AcDbXrecord
280
1
 40
122.715005151859657
  0
XRECORD
  5
191
330
15A
100
AcDbXrecord
280
1
 40
253.8433799027694135
  0
ENDSEC
  0
EOF
