<?xml version="1.0" encoding="UTF-8" standalone="no"?>
<!-- Created with Inkscape (http://www.inkscape.org/) -->

<svg
   width="34mm"
   height="31.810329mm"
   viewBox="0 0 34 31.810329"
   version="1.1"
   id="svg5"
   inkscape:version="1.2.1 (9c6d41e410, 2022-07-14)"
   sodipodi:docname="LargePotGauge.svg"
   inkscape:export-filename="LargePotGauge.png"
   inkscape:export-xdpi="317.818"
   inkscape:export-ydpi="317.818"
   xmlns:inkscape="http://www.inkscape.org/namespaces/inkscape"
   xmlns:sodipodi="http://sodipodi.sourceforge.net/DTD/sodipodi-0.dtd"
   xmlns="http://www.w3.org/2000/svg"
   xmlns:svg="http://www.w3.org/2000/svg">
  <sodipodi:namedview
     id="namedview7"
     pagecolor="#ffffff"
     bordercolor="#666666"
     borderopacity="1.0"
     inkscape:showpageshadow="2"
     inkscape:pageopacity="0.0"
     inkscape:pagecheckerboard="0"
     inkscape:deskcolor="#d1d1d1"
     inkscape:document-units="mm"
     showgrid="false"
     inkscape:zoom="2.0000001"
     inkscape:cx="12.749999"
     inkscape:cy="39.999998"
     inkscape:window-width="2560"
     inkscape:window-height="1351"
     inkscape:window-x="1920"
     inkscape:window-y="0"
     inkscape:window-maximized="1"
     inkscape:current-layer="layer1" />
  <defs
     id="defs2" />
  <g
     inkscape:label="Layer 1"
     inkscape:groupmode="layer"
     id="layer1"
     transform="translate(-53.825451,-100.62129)">
    <path
       id="rect3050"
       style="fill:#000000;fill-opacity:1;stroke-width:0.182078"
       d="m 70.649724,100.62129 v 3.71986 a 13.287875,13.287875 0 0 1 0.175616,-0.007 13.287875,13.287875 0 0 1 0.175789,0.002 v -3.71481 z m -3.699091,1.86053 -0.339386,0.091 0.607186,2.26635 a 13.287875,13.287875 0 0 1 0.339559,-0.0909 z m 7.749588,0 -0.605987,2.26155 a 13.287875,13.287875 0 0 1 0.339385,0.0908 l 0.605987,-2.26137 z m -12.222728,0.32925 -0.304194,0.17562 1.860017,3.22152 a 13.287875,13.287875 0 0 1 0.304194,-0.17563 z m 16.695695,0 -1.857273,3.21705 a 13.287875,13.287875 0 0 1 0.304197,0.17561 l 1.857442,-3.21704 z m -19.27311,3.63643 -0.248575,0.24842 1.659167,1.65916 a 13.287875,13.287875 0 0 1 0.248574,-0.24841 z m 21.850695,0 -1.655386,1.6554 a 13.287875,13.287875 0 0 1 0.248401,0.24857 l 1.65539,-1.65555 z m -25.559915,2.52163 -0.175788,0.30436 3.221511,1.85986 a 13.287875,13.287875 0 0 1 0.175788,-0.30437 z m 29.269136,0 -3.217047,1.85727 a 13.287875,13.287875 0 0 1 0.175616,0.30437 l 3.217048,-1.85728 z m -29.683201,4.43812 -0.09098,0.33938 2.266355,0.60736 a 13.287875,13.287875 0 0 1 0.09098,-0.33955 z m 30.097265,0 -2.261377,0.60599 a 13.287875,13.287875 0 0 1 0.09098,0.33938 l 2.261201,-0.60599 z m -32.048607,4.03848 v 0.35123 h 3.719863 a 13.287875,13.287875 0 0 1 -0.0078,-0.17562 13.287875,13.287875 0 0 1 0.0078,-0.17561 z m 30.285236,0 a 13.287875,13.287875 0 0 1 0.0027,0.17561 13.287875,13.287875 0 0 1 -0.0078,0.17562 h 3.719864 v -0.35123 z m -26.15852,3.44296 -2.266355,0.60736 0.09098,0.33939 2.266354,-0.60719 a 13.287875,13.287875 0 0 1 -0.09098,-0.33956 z m 25.746519,1.7e-4 a 13.287875,13.287875 0 0 1 -0.09098,0.33939 l 2.266358,0.60719 0.09081,-0.33939 z m -24.462105,3.22049 -3.221511,1.85984 0.175788,0.30437 3.221511,-1.85985 a 13.287875,13.287875 0 0 1 -0.175788,-0.30436 z m 23.17769,0 a 13.287875,13.287875 0 0 1 -0.175789,0.30436 l 3.221512,1.85985 0.175617,-0.30437 z m -21.103601,2.77826 -1.659168,1.65917 0.248574,0.2484 1.659167,-1.65917 a 13.287875,13.287875 0 0 1 -0.248573,-0.2484 z m 19.029513,0 a 13.287875,13.287875 0 0 1 -0.248573,0.2484 l 1.659163,1.65917 0.248405,-0.2484 z m -16.307041,2.14688 -1.859845,3.22151 0.304194,0.17562 1.859845,-3.22152 a 13.287875,13.287875 0 0 1 -0.304194,-0.17561 z m 13.584395,0 a 13.287875,13.287875 0 0 1 -0.304196,0.17561 l 1.859847,3.22152 0.304366,-0.17562 z" />
  </g>
</svg>
