999
dxflib 3.26.4.0
  0
SECTION
  2
HEADER
  9
$ACADVER
  1
AC1015
  9
$HANDSEED
  5
FFFF
  9
$DIMADEC
 70
0
  9
$DIMASZ
 40
2.5
  9
$DIMATFIT
 70
0
  9
$DIMAUNIT
 70
0
  9
$DIMAZIN
 70
2
  9
$DIMBLK
  1
0
  9
$DIMBLK1
  1
0
  9
$DIMBLK2
  1
0
  9
$DIMDEC
 70
4
  9
$DIMDLI
 40
5.0
  9
$DIMDSEP
 70
46
  9
$DIMEXE
 40
1.25
  9
$DIMEXO
 40
0.625
  9
$DIMGAP
 40
0.625
  9
$DIMLFAC
 40
1.0
  9
$DIMLUNIT
 70
2
  9
$DIMSCALE
 40
1.0
  9
$DIMTAD
 70
1
  9
$DIMTIH
 70
0
  9
$DIMTSZ
 40
0.0
  9
$DIMTXT
 40
2.5
  9
$DIMZIN
 70
8
  9
$DWGCODEPAGE
  3
ANSI_1252
  9
$INSUNITS
 70
4
  9
$LTSCALE
 40
1.0
  9
$MAXACTVP
 70
64
  9
$MEASUREMENT
 70
1
  9
$MIRRTEXT
 70
0
  9
$PDMODE
 70
0
  9
$PDSIZE
 40
0.0
  0
ENDSEC
  0
SECTION
  2
TABLES
  0
TABLE
  2
VPORT
  5
8
100
AcDbSymbolTable
 70
1
  0
VPORT
  5
30
100
AcDbSymbolTableRecord
100
AcDbViewportTableRecord
  2
*Active
 70
0
 10
0.0
 20
0.0
 11
1.0
 21
1.0
 12
286.3055555555554861
 22
148.5
 13
0.0
 23
0.0
 14
10.0
 24
10.0
 15
10.0
 25
10.0
 16
0.0
 26
0.0
 36
1.0
 17
0.0
 27
0.0
 37
0.0
 40
297.0
 41
1.92798353909465
 42
50.0
 43
0.0
 44
0.0
 50
0.0
 51
0.0
 71
0
 72
100
 73
1
 74
3
 75
1
 76
1
 77
0
 78
0
281
0
 65
1
110
0.0
120
0.0
130
0.0
111
1.0
121
0.0
131
0.0
112
0.0
122
1.0
132
0.0
 79
0
146
0.0
  0
ENDTAB
  0
TABLE
  2
LTYPE
  5
5
100
AcDbSymbolTable
 70
41
  0
LTYPE
  5
16
100
AcDbSymbolTableRecord
100
AcDbLinetypeTableRecord
  2
Continuous
 70
0
  3
Solid line
 72
65
 73
0
 40
0.0
  0
LTYPE
  5
31
100
AcDbSymbolTableRecord
100
AcDbLinetypeTableRecord
  2
DIVIDE2
 70
0
  3
Divide (.5x) __..__..__..__..__..__..__..__.._
 72
65
 73
6
 40
15.8749999999999982
 49
6.3499999999999996
 74
0
 49
-3.125
 74
0
 49
0.1
 74
0
 49
-3.0750000000000002
 74
0
 49
0.1
 74
0
 49
-3.125
 74
0
  0
LTYPE
  5
32
100
AcDbSymbolTableRecord
100
AcDbLinetypeTableRecord
  2
DOT2
 70
0
  3
Dot (.5x) ........................................
 72
65
 73
2
 40
3.1749999999999998
 49
0.1
 74
0
 49
-3.0749999999999997
 74
0
  0
LTYPE
  5
33
100
AcDbSymbolTableRecord
100
AcDbLinetypeTableRecord
  2
DASHDOT2
 70
0
  3
Dash dot (.5x) _._._._._._._._._._._._._._._.
 72
65
 73
4
 40
12.6999999999999993
 49
6.3499999999999996
 74
0
 49
-3.125
 74
0
 49
0.1
 74
0
 49
-3.125
 74
0
  0
LTYPE
  5
34
100
AcDbSymbolTableRecord
100
AcDbLinetypeTableRecord
  2
DASHED
 70
0
  3
Dashed __ __ __ __ __ __ __ __ __ __ __ __ __ _
 72
65
 73
2
 40
19.0499999999999972
 49
12.6999999999999993
 74
0
 49
-6.3499999999999996
 74
0
  0
LTYPE
  5
35
100
AcDbSymbolTableRecord
100
AcDbLinetypeTableRecord
  2
ACAD_ISO07W100
 70
0
  3
ISO dot . . . . . . . . . . . . . . . . . . . . 
 72
65
 73
2
 40
3.0
 49
0.1
 74
0
 49
-2.8999999999999999
 74
0
  0
LTYPE
  5
36
100
AcDbSymbolTableRecord
100
AcDbLinetypeTableRecord
  2
DASHED2
 70
0
  3
Dashed (.5x) _ _ _ _ _ _ _ _ _ _ _ _ _ _ _ _ _ 
 72
65
 73
2
 40
9.5249999999999986
 49
6.3499999999999996
 74
0
 49
-3.1749999999999998
 74
0
  0
LTYPE
  5
37
100
AcDbSymbolTableRecord
100
AcDbLinetypeTableRecord
  2
ACAD_ISO15W100
 70
0
  3
ISO double-dash triple-dot __ __ . . . __ __ . .
 72
65
 73
10
 40
39.0000000000000071
 49
12.0
 74
0
 49
-3.0
 74
0
 49
12.0
 74
0
 49
-2.9500000000000002
 74
0
 49
0.1
 74
0
 49
-2.9000000000000004
 74
0
 49
0.1
 74
0
 49
-2.9000000000000004
 74
0
 49
0.1
 74
0
 49
-2.9500000000000002
 74
0
  0
LTYPE
  5
38
100
AcDbSymbolTableRecord
100
AcDbLinetypeTableRecord
  2
DASHEDX2
 70
0
  3
Dashed (2x) ____  ____  ____  ____  ____  ___
 72
65
 73
2
 40
38.0999999999999943
 49
25.3999999999999986
 74
0
 49
-12.6999999999999993
 74
0
  0
LTYPE
  5
39
100
AcDbSymbolTableRecord
100
AcDbLinetypeTableRecord
  2
DOT
 70
0
  3
Dot . . . . . . . . . . . . . . . . . . . . . . . .
 72
65
 73
2
 40
6.3499999999999996
 49
0.1
 74
0
 49
-6.25
 74
0
  0
LTYPE
  5
3A
100
AcDbSymbolTableRecord
100
AcDbLinetypeTableRecord
  2
ACAD_ISO13W100
 70
0
  3
ISO double-dash double-dot __ __ . . __ __ . . _
 72
65
 73
8
 40
36.0000000000000071
 49
12.0
 74
0
 49
-3.0
 74
0
 49
12.0
 74
0
 49
-2.9500000000000002
 74
0
 49
0.1
 74
0
 49
-2.9000000000000004
 74
0
 49
0.1
 74
0
 49
-2.9500000000000002
 74
0
  0
LTYPE
  5
3B
100
AcDbSymbolTableRecord
100
AcDbLinetypeTableRecord
  2
ACAD_ISO03W100
 70
0
  3
ISO dash space __    __    __    __    __    __
 72
65
 73
2
 40
30.0
 49
12.0
 74
0
 49
-18.0
 74
0
  0
LTYPE
  5
3C
100
AcDbSymbolTableRecord
100
AcDbLinetypeTableRecord
  2
PHANTOMX2
 70
0
  3
Phantom (2x) ____________    ____    ____   _
 72
65
 73
6
 40
127.0000000000000142
 49
63.5
 74
0
 49
-12.6999999999999993
 74
0
 49
12.6999999999999993
 74
0
 49
-12.6999999999999993
 74
0
 49
12.6999999999999993
 74
0
 49
-12.6999999999999993
 74
0
  0
LTYPE
  5
3D
100
AcDbSymbolTableRecord
100
AcDbLinetypeTableRecord
  2
ACAD_ISO06W100
 70
0
  3
ISO long-dash triple-dot ____ ... ____ ... ____
 72
65
 73
8
 40
36.0000000000000071
 49
24.0
 74
0
 49
-2.9500000000000002
 74
0
 49
0.1
 74
0
 49
-2.9000000000000004
 74
0
 49
0.1
 74
0
 49
-2.9000000000000004
 74
0
 49
0.1
 74
0
 49
-2.9500000000000002
 74
0
  0
LTYPE
  5
14
100
AcDbSymbolTableRecord
100
AcDbLinetypeTableRecord
  2
BYBLOCK
 70
0
  3

 72
65
 73
0
 40
0.0
  0
LTYPE
  5
3E
100
AcDbSymbolTableRecord
100
AcDbLinetypeTableRecord
  2
DIVIDEX2
 70
0
  3
Divide (2x) ________  .  .  ________  .  .  _
 72
65
 73
6
 40
63.5
 49
25.3999999999999986
 74
0
 49
-12.6499999999999986
 74
0
 49
0.1
 74
0
 49
-12.5999999999999979
 74
0
 49
0.1
 74
0
 49
-12.6499999999999986
 74
0
  0
LTYPE
  5
3F
100
AcDbSymbolTableRecord
100
AcDbLinetypeTableRecord
  2
DIVIDE
 70
0
  3
Divide ____ . . ____ . . ____ . . ____ . . ____
 72
65
 73
6
 40
31.7500000000000036
 49
12.6999999999999993
 74
0
 49
-6.2999999999999998
 74
0
 49
0.1
 74
0
 49
-6.25
 74
0
 49
0.1
 74
0
 49
-6.2999999999999998
 74
0
  0
LTYPE
  5
15
100
AcDbSymbolTableRecord
100
AcDbLinetypeTableRecord
  2
BYLAYER
 70
0
  3

 72
65
 73
0
 40
0.0
  0
LTYPE
  5
40
100
AcDbSymbolTableRecord
100
AcDbLinetypeTableRecord
  2
PHANTOM
 70
0
  3
Phantom ______  __  __  ______  __  __  ______ 
 72
65
 73
6
 40
63.5000000000000071
 49
31.75
 74
0
 49
-6.3499999999999996
 74
0
 49
6.3499999999999996
 74
0
 49
-6.3499999999999996
 74
0
 49
6.3499999999999996
 74
0
 49
-6.3499999999999996
 74
0
  0
LTYPE
  5
41
100
AcDbSymbolTableRecord
100
AcDbLinetypeTableRecord
  2
CENTER2
 70
0
  3
Center (.5x) ___ _ ___ _ ___ _ ___ _ ___ _ ___
 72
65
 73
4
 40
28.5750000000000028
 49
19.0500000000000007
 74
0
 49
-3.1749999999999998
 74
0
 49
3.1749999999999998
 74
0
 49
-3.1749999999999998
 74
0
  0
LTYPE
  5
42
100
AcDbSymbolTableRecord
100
AcDbLinetypeTableRecord
  2
BORDERX2
 70
0
  3
Border (2x) ____  ____  .  ____  ____  .  ___
 72
65
 73
6
 40
88.8999999999999773
 49
25.3999999999999986
 74
0
 49
-12.6999999999999993
 74
0
 49
25.3999999999999986
 74
0
 49
-12.6499999999999986
 74
0
 49
0.1
 74
0
 49
-12.6499999999999986
 74
0
  0
LTYPE
  5
43
100
AcDbSymbolTableRecord
100
AcDbLinetypeTableRecord
  2
PHANTOM2
 70
0
  3
Phantom (.5x) ___ _ _ ___ _ _ ___ _ _ ___ _ _
 72
65
 73
6
 40
31.7500000000000036
 49
15.875
 74
0
 49
-3.1749999999999998
 74
0
 49
3.1749999999999998
 74
0
 49
-3.1749999999999998
 74
0
 49
3.1749999999999998
 74
0
 49
-3.1749999999999998
 74
0
  0
LTYPE
  5
44
100
AcDbSymbolTableRecord
100
AcDbLinetypeTableRecord
  2
ACAD_ISO14W100
 70
0
  3
ISO dash triple-dot __ . . . __ . . . __ . . . _
 72
65
 73
8
 40
24.0000000000000036
 49
12.0
 74
0
 49
-2.9500000000000002
 74
0
 49
0.1
 74
0
 49
-2.9000000000000004
 74
0
 49
0.1
 74
0
 49
-2.9000000000000004
 74
0
 49
0.1
 74
0
 49
-2.9500000000000002
 74
0
  0
LTYPE
  5
45
100
AcDbSymbolTableRecord
100
AcDbLinetypeTableRecord
  2
ACAD_ISO10W100
 70
0
  3
ISO dash dot __ . __ . __ . __ . __ . __ . __ . 
 72
65
 73
4
 40
18.0
 49
12.0
 74
0
 49
-2.9500000000000002
 74
0
 49
0.1
 74
0
 49
-2.9500000000000002
 74
0
  0
LTYPE
  5
46
100
AcDbSymbolTableRecord
100
AcDbLinetypeTableRecord
  2
DOTX2
 70
0
  3
Dot (2x) .  .  .  .  .  .  .  .  .  .  .  .  .  .
 72
65
 73
2
 40
12.6999999999999993
 49
0.1
 74
0
 49
-12.5999999999999996
 74
0
  0
LTYPE
  5
47
100
AcDbSymbolTableRecord
100
AcDbLinetypeTableRecord
  2
HIDDEN
 70
0
  3
Hidden __ __ __ __ __ __ __ __ __ __ __ __ __ __
 72
65
 73
2
 40
9.5249999999999986
 49
6.3499999999999996
 74
0
 49
-3.1749999999999998
 74
0
  0
LTYPE
  5
48
100
AcDbSymbolTableRecord
100
AcDbLinetypeTableRecord
  2
CENTERX2
 70
0
  3
Center (2x) ________  __  ________  __  _____
 72
65
 73
4
 40
101.6000000000000085
 49
63.5
 74
0
 49
-12.6999999999999993
 74
0
 49
12.6999999999999993
 74
0
 49
-12.6999999999999993
 74
0
  0
LTYPE
  5
49
100
AcDbSymbolTableRecord
100
AcDbLinetypeTableRecord
  2
BORDER
 70
0
  3
Border __ __ . __ __ . __ __ . __ __ . __ __ .
 72
65
 73
6
 40
44.4499999999999957
 49
12.6999999999999993
 74
0
 49
-6.3499999999999996
 74
0
 49
12.6999999999999993
 74
0
 49
-6.2999999999999998
 74
0
 49
0.1
 74
0
 49
-6.2999999999999998
 74
0
  0
LTYPE
  5
4A
100
AcDbSymbolTableRecord
100
AcDbLinetypeTableRecord
  2
DASHDOTX2
 70
0
  3
Dash dot (2x) ____  .  ____  .  ____  .  ___
 72
65
 73
4
 40
50.7999999999999972
 49
25.3999999999999986
 74
0
 49
-12.6499999999999986
 74
0
 49
0.1
 74
0
 49
-12.6499999999999986
 74
0
  0
LTYPE
  5
4B
100
AcDbSymbolTableRecord
100
AcDbLinetypeTableRecord
  2
HIDDEN2
 70
0
  3
Hidden (.5x) _ _ _ _ _ _ _ _ _ _ _ _ _ _ _ _ _ 
 72
65
 73
2
 40
4.7624999999999993
 49
3.1749999999999998
 74
0
 49
-1.5874999999999999
 74
0
  0
LTYPE
  5
4C
100
AcDbSymbolTableRecord
100
AcDbLinetypeTableRecord
  2
ACAD_ISO04W100
 70
0
  3
ISO long-dash dot ____ . ____ . ____ . ____ . _
 72
65
 73
4
 40
30.0
 49
24.0
 74
0
 49
-2.9500000000000002
 74
0
 49
0.1
 74
0
 49
-2.9500000000000002
 74
0
  0
LTYPE
  5
4D
100
AcDbSymbolTableRecord
100
AcDbLinetypeTableRecord
  2
ACAD_ISO11W100
 70
0
  3
ISO double-dash dot __ __ . __ __ . __ __ . __ _
 72
65
 73
6
 40
33.0
 49
12.0
 74
0
 49
-3.0
 74
0
 49
12.0
 74
0
 49
-2.9500000000000002
 74
0
 49
0.1
 74
0
 49
-2.9500000000000002
 74
0
  0
LTYPE
  5
4E
100
AcDbSymbolTableRecord
100
AcDbLinetypeTableRecord
  2
ACAD_ISO12W100
 70
0
  3
ISO dash double-dot __ . . __ . . __ . . __ . . 
 72
65
 73
6
 40
21.0
 49
12.0
 74
0
 49
-2.9500000000000002
 74
0
 49
0.1
 74
0
 49
-2.9000000000000004
 74
0
 49
0.1
 74
0
 49
-2.9500000000000002
 74
0
  0
LTYPE
  5
4F
100
AcDbSymbolTableRecord
100
AcDbLinetypeTableRecord
  2
CENTER
 70
0
  3
Center ____ _ ____ _ ____ _ ____ _ ____ _ ____
 72
65
 73
4
 40
50.8000000000000043
 49
31.75
 74
0
 49
-6.3499999999999996
 74
0
 49
6.3499999999999996
 74
0
 49
-6.3499999999999996
 74
0
  0
LTYPE
  5
50
100
AcDbSymbolTableRecord
100
AcDbLinetypeTableRecord
  2
ACAD_ISO02W100
 70
0
  3
ISO dash __ __ __ __ __ __ __ __ __ __ __ __ __
 72
65
 73
2
 40
15.0
 49
12.0
 74
0
 49
-3.0
 74
0
  0
LTYPE
  5
51
100
AcDbSymbolTableRecord
100
AcDbLinetypeTableRecord
  2
ACAD_ISO08W100
 70
0
  3
ISO long-dash short-dash ____ __ ____ __ ____ _
 72
65
 73
4
 40
36.0
 49
24.0
 74
0
 49
-3.0
 74
0
 49
6.0
 74
0
 49
-3.0
 74
0
  0
LTYPE
  5
52
100
AcDbSymbolTableRecord
100
AcDbLinetypeTableRecord
  2
DASHDOT
 70
0
  3
Dash dot __ . __ . __ . __ . __ . __ . __ . __
 72
65
 73
4
 40
25.4000000000000021
 49
12.6999999999999993
 74
0
 49
-6.2999999999999998
 74
0
 49
0.1
 74
0
 49
-6.2999999999999998
 74
0
  0
LTYPE
  5
53
100
AcDbSymbolTableRecord
100
AcDbLinetypeTableRecord
  2
BORDER2
 70
0
  3
Border (.5x) __.__.__.__.__.__.__.__.__.__.__.
 72
65
 73
6
 40
22.2250000000000014
 49
6.3499999999999996
 74
0
 49
-3.1749999999999998
 74
0
 49
6.3499999999999996
 74
0
 49
-3.125
 74
0
 49
0.1
 74
0
 49
-3.125
 74
0
  0
LTYPE
  5
54
100
AcDbSymbolTableRecord
100
AcDbLinetypeTableRecord
  2
ACAD_ISO09W100
 70
0
  3
ISO long-dash double-short-dash ____ __ __ ____
 72
65
 73
6
 40
45.0
 49
24.0
 74
0
 49
-3.0
 74
0
 49
6.0
 74
0
 49
-3.0
 74
0
 49
6.0
 74
0
 49
-3.0
 74
0
  0
LTYPE
  5
55
100
AcDbSymbolTableRecord
100
AcDbLinetypeTableRecord
  2
ACAD_ISO05W100
 70
0
  3
ISO long-dash double-dot ____ .. ____ .. ____ . 
 72
65
 73
6
 40
33.0000000000000071
 49
24.0
 74
0
 49
-2.9500000000000002
 74
0
 49
0.1
 74
0
 49
-2.9000000000000004
 74
0
 49
0.1
 74
0
 49
-2.9500000000000002
 74
0
  0
LTYPE
  5
56
100
AcDbSymbolTableRecord
100
AcDbLinetypeTableRecord
  2
HIDDENX2
 70
0
  3
Hidden (2x) ____ ____ ____ ____ ____ ____ ____ 
 72
65
 73
2
 40
19.0499999999999972
 49
12.6999999999999993
 74
0
 49
-6.3499999999999996
 74
0
  0
ENDTAB
  0
TABLE
  2
LAYER
  5
2
100
AcDbSymbolTable
 70
5
  0
LAYER
  5
57
100
AcDbSymbolTableRecord
100
AcDbLayerTableRecord
  2
UserDrawings
 70
0
 62
9
420
12632256
  6
Continuous
370
13
390
F
  0
LAYER
  5
58
100
AcDbSymbolTableRecord
100
AcDbLayerTableRecord
  2
VectorEngraving
 70
0
 62
5
420
255
  6
Continuous
370
13
390
F
  0
LAYER
  5
10
100
AcDbSymbolTableRecord
100
AcDbLayerTableRecord
  2
0
 70
0
 62
2
420
16776960
  6
Continuous
370
13
390
F
  0
LAYER
  5
59
100
AcDbSymbolTableRecord
100
AcDbLayerTableRecord
  2
AreaEngraving
 70
0
 62
3
420
65280
  6
Continuous
370
13
390
F
  0
LAYER
  5
5A
100
AcDbSymbolTableRecord
100
AcDbLayerTableRecord
  2
Cuts
 70
0
 62
1
420
16711680
  6
Continuous
370
13
390
F
  0
ENDTAB
  0
TABLE
  2
STYLE
  5
3
100
AcDbSymbolTable
 70
1
  0
STYLE
  5
5B
100
AcDbSymbolTableRecord
100
AcDbTextStyleTableRecord
  2
Standard
 70
0
 40
0.0
 41
1.0
 50
0.0
 71
0
 42
2.5
  3

  4

1001
ACAD
1000
txt
1071
0
  0
ENDTAB
  0
TABLE
  2
VIEW
  5
6
100
AcDbSymbolTable
 70
0
  0
ENDTAB
  0
TABLE
  2
UCS
  5
7
100
AcDbSymbolTable
 70
0
  0
ENDTAB
  0
TABLE
  2
APPID
  5
9
100
AcDbSymbolTable
 70
1
  0
APPID
  5
12
100
AcDbSymbolTableRecord
100
AcDbRegAppTableRecord
  2
ACAD
 70
0
  0
APPID
  5
5C
100
AcDbSymbolTableRecord
100
AcDbRegAppTableRecord
  2
QCAD
 70
0
  0
ENDTAB
  0
TABLE
  2
DIMSTYLE
  5
A
100
AcDbSymbolTable
 70
1
100
AcDbDimStyleTable
 71
0
  0
DIMSTYLE
105
27
100
AcDbSymbolTableRecord
100
AcDbDimStyleTableRecord
  2
Standard
 41
2.5
 42
0.625
 43
3.75
 44
1.25
 70
0
 73
0
 74
0
 77
1
 78
8
140
2.5
141
2.5
143
0.03937007874016
147
0.625
171
3
172
1
271
2
272
2
274
3
278
44
283
0
284
8
340
5B
  0
ENDTAB
  0
TABLE
  2
BLOCK_RECORD
  5
1
100
AcDbSymbolTable
 70
1
  0
BLOCK_RECORD
  5
1F
100
AcDbSymbolTableRecord
100
AcDbBlockTableRecord
  2
*Model_Space
340
22
  0
BLOCK_RECORD
  5
1B
100
AcDbSymbolTableRecord
100
AcDbBlockTableRecord
  2
*Paper_Space
340
1E
  0
BLOCK_RECORD
  5
23
100
AcDbSymbolTableRecord
100
AcDbBlockTableRecord
  2
*Paper_Space0
340
26
  0
BLOCK_RECORD
  5
5D
100
AcDbSymbolTableRecord
100
AcDbBlockTableRecord
  2
block 9
340
0
  0
BLOCK_RECORD
  5
5E
100
AcDbSymbolTableRecord
100
AcDbBlockTableRecord
  2
block 6
340
0
  0
BLOCK_RECORD
  5
5F
100
AcDbSymbolTableRecord
100
AcDbBlockTableRecord
  2
block 5
340
0
  0
BLOCK_RECORD
  5
60
100
AcDbSymbolTableRecord
100
AcDbBlockTableRecord
  2
block 8
340
0
  0
BLOCK_RECORD
  5
61
100
AcDbSymbolTableRecord
100
AcDbBlockTableRecord
  2
block 4
340
0
  0
BLOCK_RECORD
  5
62
100
AcDbSymbolTableRecord
100
AcDbBlockTableRecord
  2
block 7
340
0
  0
BLOCK_RECORD
  5
63
100
AcDbSymbolTableRecord
100
AcDbBlockTableRecord
  2
block 3
340
0
  0
BLOCK_RECORD
  5
64
100
AcDbSymbolTableRecord
100
AcDbBlockTableRecord
  2
SmallPotGauge
340
0
  0
BLOCK_RECORD
  5
65
100
AcDbSymbolTableRecord
100
AcDbBlockTableRecord
  2
block 2
340
0
  0
BLOCK_RECORD
  5
66
100
AcDbSymbolTableRecord
100
AcDbBlockTableRecord
  2
block 1
340
0
  0
BLOCK_RECORD
  5
67
100
AcDbSymbolTableRecord
100
AcDbBlockTableRecord
  2
LargePotGauge
340
0
  0
ENDTAB
  0
ENDSEC
  0
SECTION
  2
BLOCKS
  0
BLOCK
  5
20
100
AcDbEntity
  8
0
100
AcDbBlockBegin
  2
*Model_Space
 70
0
 10
0.0
 20
0.0
 30
0.0
  3
*Model_Space
  1

  0
ENDBLK
  5
21
100
AcDbEntity
  8
0
100
AcDbBlockEnd
  0
BLOCK
  5
1C
100
AcDbEntity
 67
1
  8
0
100
AcDbBlockBegin
  2
*Paper_Space
 70
0
 10
0.0
 20
0.0
 30
0.0
  3
*Paper_Space
  1

  0
ENDBLK
  5
1D
100
AcDbEntity
 67
1
  8
0
100
AcDbBlockEnd
  0
BLOCK
  5
24
100
AcDbEntity
  8
0
100
AcDbBlockBegin
  2
*Paper_Space0
 70
0
 10
0.0
 20
0.0
 30
0.0
  3
*Paper_Space0
  1

  0
ENDBLK
  5
25
100
AcDbEntity
  8
0
100
AcDbBlockEnd
  0
BLOCK
  5
68
100
AcDbEntity
  8
0
100
AcDbBlockBegin
  2
block 9
 70
0
 10
0.0
 20
0.0
 30
0.0
  3
block 9
  1

  0
LWPOLYLINE
  5
69
100
AcDbEntity
  8
AreaEngraving
 62
3
420
65280
370
-1
 48
1.0
  6
BYLAYER
100
AcDbPolyline
 90
6
 70
128
 10
-0.6863584872871513
 20
51.1120564188048405
 10
-0.6863584872871513
 20
39.9142964188048381
 42
-0.0033072788336863
 10
-0.1577084872871524
 20
39.9374964188048551
 42
-0.0033077266184061
 10
0.3714615127128411
 20
39.929496418804888
 10
0.3714615127128411
 20
51.1120564188048405
 10
-0.6863584872871513
 20
51.1120564188048405
  0
LWPOLYLINE
  5
6A
100
AcDbEntity
  8
AreaEngraving
 62
3
420
65280
370
-1
 48
1.0
  6
BYLAYER
100
AcDbPolyline
 90
5
 70
128
 10
-11.8215964872871382
 20
45.5113664188048404
 10
-12.8432394872871498
 20
45.2374864188048349
 10
-11.0154454872871383
 20
38.4151664188048301
 42
-0.0066141399769513
 10
-9.9932854872871815
 20
38.6890464188048497
 10
-11.8215964872871382
 20
45.5113664188048404
  0
LWPOLYLINE
  5
6B
100
AcDbEntity
  8
AreaEngraving
 62
3
420
65280
370
-1
 48
1.0
  6
BYLAYER
100
AcDbPolyline
 90
5
 70
128
 10
11.5067015127128514
 20
45.5113664188048404
 10
9.6825215127128672
 20
38.7035164188048384
 42
-0.0066101756053528
 10
10.7041615127128011
 20
38.4301464188048669
 10
12.5283415127128706
 20
45.2374864188048349
 10
11.5067015127128514
 20
45.5113664188048404
  0
LWPOLYLINE
  5
6C
100
AcDbEntity
  8
AreaEngraving
 62
3
420
65280
370
-1
 48
1.0
  6
BYLAYER
100
AcDbPolyline
 90
5
 70
128
 10
-25.2869244872871377
 20
44.5202164188048357
 10
-26.2026304872871378
 20
43.9915664188048368
 10
-20.6034894872871348
 20
34.2939664188048425
 42
-0.006608723992369
 10
-19.6877834872871347
 20
34.8226164188048557
 10
-25.2869244872871377
 20
44.5202164188048357
  0
LWPOLYLINE
  5
6D
100
AcDbEntity
  8
AreaEngraving
 62
3
420
65280
370
-1
 48
1.0
  6
BYLAYER
100
AcDbPolyline
 90
5
 70
128
 10
24.9715115127128513
 20
44.5202164188048357
 10
19.3806315127128528
 20
34.8360564188048301
 42
-0.0066087456461917
 10
20.2963415127127575
 20
34.3074064188048453
 10
25.8877315127128611
 20
43.9915664188048368
 10
24.9715115127128513
 20
44.5202164188048357
  0
LWPOLYLINE
  5
6E
100
AcDbEntity
  8
AreaEngraving
 62
3
420
65280
370
-1
 48
1.0
  6
BYLAYER
100
AcDbPolyline
 90
5
 70
128
 10
-33.0456244872871423
 20
33.5735964188048399
 10
-33.7938984872871231
 20
32.8258364188048404
 10
-28.799371487287118
 20
27.8313064188048429
 42
-0.0066118880942146
 10
-28.0510974872871657
 20
28.5790664188048282
 10
-33.0456244872871423
 20
33.5735964188048399
  0
LWPOLYLINE
  5
6F
100
AcDbEntity
  8
AreaEngraving
 62
3
420
65280
370
-1
 48
1.0
  6
BYLAYER
100
AcDbPolyline
 90
5
 70
128
 10
32.7307215127128472
 20
33.5735964188048399
 10
27.7475715127128524
 20
28.5904364188048419
 42
-0.0066118262234246
 10
28.4953215127127635
 20
27.8421664188048652
 10
33.4784815127128468
 20
32.8258364188048404
 10
32.7307215127128472
 20
33.5735964188048399
  0
LWPOLYLINE
  5
70
100
AcDbEntity
  8
AreaEngraving
 62
3
420
65280
370
-1
 48
1.0
  6
BYLAYER
100
AcDbPolyline
 90
5
 70
128
 10
-44.2113514872871463
 20
25.98284641880484
 10
-44.7405184872871473
 20
25.0666264188048444
 10
-35.042920487287148
 20
19.4679964188048444
 42
-0.0066131255020083
 10
-34.5137524872871779
 20
20.38421641880484
 10
-44.2113514872871463
 20
25.98284641880484
  0
LWPOLYLINE
  5
71
100
AcDbEntity
  8
AreaEngraving
 62
3
420
65280
370
-1
 48
1.0
  6
BYLAYER
100
AcDbPolyline
 90
5
 70
128
 10
43.8964515127128436
 20
25.98284641880484
 10
34.2122915127128522
 20
20.3919764188048305
 42
-0.0066115608445713
 10
34.7409415127128796
 20
19.4757464188048885
 10
44.425101512712871
 20
25.066626418804816
 10
43.8964515127128436
 20
25.98284641880484
  0
LWPOLYLINE
  5
72
100
AcDbEntity
  8
AreaEngraving
 62
3
420
65280
370
-1
 48
1.0
  6
BYLAYER
100
AcDbPolyline
 90
5
 70
128
 10
-45.457797487287138
 20
12.622936418804855
 10
-45.731682487287145
 20
11.6012964188048642
 10
-38.909357487287167
 20
9.7729864188048765
 42
-0.006614144830355
 10
-38.6354744872872118
 20
10.795146418804805
 10
-45.457797487287138
 20
12.622936418804855
  0
LWPOLYLINE
  5
73
100
AcDbEntity
  8
AreaEngraving
 62
3
420
65280
370
-1
 48
1.0
  6
BYLAYER
100
AcDbPolyline
 90
5
 70
128
 10
45.1428915127128505
 20
12.622936418804855
 10
38.3355515127128399
 20
10.7987564188048424
 42
-0.006611016540262
 10
38.6094415127128912
 20
9.7771164188047948
 10
45.4162515127128188
 20
11.6012964188048642
 10
45.1428915127128505
 20
12.622936418804855
  0
LWPOLYLINE
  5
74
100
AcDbEntity
  8
AreaEngraving
 62
3
420
65280
370
-1
 48
1.0
  6
BYLAYER
100
AcDbPolyline
 90
6
 70
128
 10
-51.3318474872871491
 20
0.4660564188048539
 10
-51.3318474872871491
 20
-0.591243581195144
 10
-40.1340814872871476
 20
-0.591243581195144
 42
-0.003307292549862
 10
-40.1573314872871379
 20
-0.0625935811951734
 42
-0.003307292549864
 10
-40.1340814872871476
 20
0.4660564188046834
 10
-51.3318474872871491
 20
0.4660564188048539
  0
LWPOLYLINE
  5
75
100
AcDbEntity
  8
AreaEngraving
 62
3
420
65280
370
-1
 48
1.0
  6
BYLAYER
100
AcDbPolyline
 90
6
 70
128
 10
39.8346815127128195
 20
0.4660564188047971
 42
-0.003304476883546
 10
39.8426815127128577
 20
-0.0625935811947755
 42
-0.0033072788336863
 10
39.8194815127128834
 20
-0.5912435811953145
 10
51.0172515127128179
 20
-0.591243581195144
 10
51.0172515127128179
 20
0.4660564188048539
 10
39.8346815127128764
 20
0.4660564188048539
  0
LWPOLYLINE
  5
76
100
AcDbEntity
  8
AreaEngraving
 62
3
420
65280
370
-1
 48
1.0
  6
BYLAYER
100
AcDbPolyline
 90
6
 70
128
 10
-38.9093484872871329
 20
-9.8981735811951665
 10
-45.7316724872871418
 20
-11.7264835811951542
 10
-45.4577874872871632
 20
-12.748123581195145
 10
-38.6354654872871492
 20
-10.9203235811951203
 42
-0.0066140844520288
 10
-38.9093484872871329
 20
-9.8981735811951665
 10
-38.9093484872871329
 20
-9.8981735811951665
  0
LWPOLYLINE
  5
77
100
AcDbEntity
  8
AreaEngraving
 62
3
420
65280
370
-1
 48
1.0
  6
BYLAYER
100
AcDbPolyline
 90
5
 70
128
 10
38.5944515127128227
 20
-9.8986835811951295
 42
-0.0066110165402621
 10
38.3205615127128283
 20
-10.9203235811951771
 10
45.1428915127128505
 20
-12.748123581195145
 10
45.4162515127128188
 20
-11.7264835811951542
 10
38.5944515127128795
 20
-9.8986835811951295
  0
LWPOLYLINE
  5
78
100
AcDbEntity
  8
AreaEngraving
 62
3
420
65280
370
-1
 48
1.0
  6
BYLAYER
100
AcDbPolyline
 90
5
 70
128
 10
-35.042920487287148
 20
-19.5931835811951345
 10
-44.7405184872871473
 20
-25.1918135811951487
 10
-44.2113514872871463
 20
-26.1080335811951585
 10
-34.5137524872871495
 20
-20.5094035811951443
 42
-0.0066131255020083
 10
-35.042920487287148
 20
-19.5931835811951345
  0
LWPOLYLINE
  5
79
100
AcDbEntity
  8
AreaEngraving
 62
3
420
65280
370
-1
 48
1.0
  6
BYLAYER
100
AcDbPolyline
 90
5
 70
128
 10
34.7280215127128429
 20
-19.5931835811950776
 42
-0.0066131317545044
 10
34.198851512712821
 20
-20.5094035811951443
 10
43.8964515127128436
 20
-26.1080335811951585
 10
44.425101512712871
 20
-25.1918135811951487
 10
34.7280215127128429
 20
-19.5931835811951345
  0
LWPOLYLINE
  5
7A
100
AcDbEntity
  8
AreaEngraving
 62
3
420
65280
370
-1
 48
1.0
  6
BYLAYER
100
AcDbPolyline
 90
5
 70
128
 10
-28.7993714872871465
 20
-27.9564935811951472
 10
-33.793899487287149
 20
-32.9510235811951588
 10
-33.0456274872871347
 20
-33.6987835811951868
 10
-28.0510984872871347
 20
-28.7042535811951893
 42
-0.0066118836727005
 10
-28.799371487287118
 20
-27.9564935811951472
  0
LWPOLYLINE
  5
7B
100
AcDbEntity
  8
AreaEngraving
 62
3
420
65280
370
-1
 48
1.0
  6
BYLAYER
100
AcDbPolyline
 90
5
 70
128
 10
28.484471512712787
 20
-27.9564935811951472
 42
-0.0066118704081765
 10
27.7362015127128245
 20
-28.7042535811951325
 10
32.7307215127128472
 20
-33.6987835811951868
 10
33.4784815127128468
 20
-32.9510235811951588
 10
28.4844715127128438
 20
-27.9564935811951472
  0
LWPOLYLINE
  5
7C
100
AcDbEntity
  8
AreaEngraving
 62
3
420
65280
370
-1
 48
1.0
  6
BYLAYER
100
AcDbPolyline
 90
5
 70
128
 10
-20.6040134872871477
 20
-34.4191535811951894
 10
-26.2026374872871486
 20
-44.1167535811951552
 10
-25.2869314872871485
 20
-44.6454035811951826
 10
-19.68830648728715
 20
-34.9478035811951599
 42
-0.0066087294058223
 10
-20.6040134872871192
 20
-34.4191535811951894
  0
LWPOLYLINE
  5
7D
100
AcDbEntity
  8
AreaEngraving
 62
3
420
65280
370
-1
 48
1.0
  6
BYLAYER
100
AcDbPolyline
 90
5
 70
128
 10
20.2885915127128555
 20
-34.4191535811951894
 42
-0.0066087456461919
 10
19.3728815127128371
 20
-34.9478035811952168
 10
24.9715115127128513
 20
-44.6454035811951826
 10
25.8877315127128611
 20
-44.1167535811951552
 10
20.2885915127128555
 20
-34.4191535811951894
  0
ENDBLK
  5
7E
100
AcDbEntity
  8
0
100
AcDbBlockEnd
  0
BLOCK
  5
7F
100
AcDbEntity
  8
0
100
AcDbBlockBegin
  2
block 6
 70
0
 10
0.0
 20
0.0
 30
0.0
  3
block 6
  1

  0
LWPOLYLINE
  5
80
100
AcDbEntity
  8
VectorEngraving
 62
256
370
-1
 48
1.0
  6
BYLAYER
100
AcDbPolyline
 90
20
 70
128
 10
-9.6223985434999992
 20
3.5055049324999992
 10
-9.6223985434999992
 20
3.0861113744999997
 10
-10.1231553694999992
 20
3.0861113744999997
 10
-10.1231553694999992
 20
2.2472725039999997
 10
-9.6223985434999992
 20
2.2472725039999997
 10
-9.6223985434999992
 20
-0.2365849774999997
 10
-10.1231553694999992
 20
-0.2365849774999997
 10
-10.1231553694999992
 20
-1.0753719874999996
 10
-9.6223985434999992
 20
-1.0753719874999996
 10
-9.6223985434999992
 20
-1.4939893074999997
 10
-9.6223985434999992
 20
-3.5055049325000001
 10
-7.2853780124999989
 20
-3.5055049325000001
 10
-7.2853780124999989
 20
-1.4939893074999997
 10
-6.7416104674999993
 20
-1.4939893074999997
 10
-6.0094962924999997
 20
-3.5055049325000001
 10
-3.6724756024999996
 20
-3.5055049325000001
 10
-4.6877568524999997
 20
-0.7159657374999995
 42
0.1923579134144613
 10
-3.9979806674999985
 20
1.0057578655002395
 42
0.4142131276425501
 10
-6.4977275224330144
 20
3.5055049324999992
 10
-9.6223985434999992
 20
3.5055049324999992
  0
LWPOLYLINE
  5
81
100
AcDbEntity
  8
VectorEngraving
 62
256
370
-1
 48
1.0
  6
BYLAYER
100
AcDbPolyline
 90
6
 70
128
 10
-7.2853780124999989
 20
1.8282930085000011
 10
-6.7073467624999994
 20
1.8282930085000011
 42
-0.4142108826965076
 10
-5.8848633474999996
 20
1.0057578654997137
 42
-0.4141924816972828
 10
-6.7073467624999994
 20
0.1832743975000009
 10
-7.2853780124999989
 20
0.1832743975
 10
-7.2853780124999989
 20
1.8282930085000011
  0
LWPOLYLINE
  5
82
100
AcDbEntity
  8
VectorEngraving
 62
256
370
-1
 48
1.0
  6
BYLAYER
100
AcDbPolyline
 90
5
 70
128
 10
-3.6129025424999988
 20
3.5055049324999992
 10
-1.0610868974999992
 20
-3.5055049325000001
 10
1.2758818524999995
 20
-3.5055049325000001
 10
-1.2758818524999995
 20
3.5055049324999992
 10
-3.6129025424999988
 20
3.5055049324999992
  0
LWPOLYLINE
  5
83
100
AcDbEntity
  8
VectorEngraving
 62
256
370
-1
 48
1.0
  6
BYLAYER
100
AcDbPolyline
 90
8
 70
128
 10
1.4906765424999993
 20
3.5055049324999992
 10
4.0424921874999988
 20
-3.5055049325000001
 10
6.379512612500001
 20
-3.5055049325000001
 10
8.9313279925000018
 20
3.5055049324999992
 10
6.5943075675000031
 20
3.5055049324999992
 10
5.2109765625000009
 20
-0.2950712724999995
 10
3.8276972325000003
 20
3.5055049324999992
 10
1.4906765424999993
 20
3.5055049324999992
  0
LINE
  5
84
100
AcDbEntity
  8
VectorEngraving
 62
256
370
-1
 48
1.0
  6
BYLAYER
100
AcDbLine
 10
0.1073974775000028
 20
-0.2950712724999986
 30
0.0
 11
1.490676542500001
 21
3.5055049325000009
 31
0.0
  0
LINE
  5
85
100
AcDbEntity
  8
VectorEngraving
 62
256
370
-1
 48
1.0
  6
BYLAYER
100
AcDbLine
 10
2.6591996787320564
 20
0.2950350650328817
 30
0.0
 11
1.2758818546243074
 21
-3.505504934606535
 31
0.0
  0
ENDBLK
  5
86
100
AcDbEntity
  8
0
100
AcDbBlockEnd
  0
BLOCK
  5
87
100
AcDbEntity
  8
0
100
AcDbBlockBegin
  2
block 5
 70
0
 10
0.0
 20
0.0
 30
0.0
  3
block 5
  1

  0
LWPOLYLINE
  5
88
100
AcDbEntity
  8
0
 62
256
370
-1
 48
1.0
  6
BYLAYER
100
AcDbPolyline
 90
20
 70
128
 10
-363.1093789999999899
 20
132.2832050000000095
 10
-363.1093789999999899
 20
116.4570330000000098
 10
-382.0058629999999766
 20
116.4570330000000098
 10
-382.0058629999999766
 20
84.8027360000000101
 10
-363.1093789999999899
 20
84.8027360000000101
 10
-363.1093789999999899
 20
-8.9277349999999842
 10
-382.0058629999999766
 20
-8.9277349999999842
 10
-382.0058629999999766
 20
-40.5800749999999937
 10
-363.1093789999999899
 20
-40.5800749999999937
 10
-363.1093789999999899
 20
-56.3769549999999811
 10
-363.1093789999999899
 20
-132.2832050000000095
 10
-274.9199249999999779
 20
-132.2832050000000095
 10
-274.9199249999999779
 20
-56.3769550000000095
 10
-254.4003949999999747
 20
-56.3769550000000095
 10
-226.7734449999999811
 20
-132.2832050000000095
 10
-138.5839849999999842
 20
-132.2832050000000095
 10
-176.8964849999999842
 20
-27.0175749999999937
 42
0.1923579134144613
 10
-150.8671949999999242
 20
37.9531270000090473
 42
0.4142131276425501
 10
-245.1972649974722458
 20
132.2832049999999811
 10
-363.1093789999999899
 20
132.2832050000000095
  0
LWPOLYLINE
  5
89
100
AcDbEntity
  8
0
 62
256
370
-1
 48
1.0
  6
BYLAYER
100
AcDbPolyline
 90
6
 70
128
 10
-274.9199249999999779
 20
68.9921890000000104
 10
-253.1074249999999779
 20
68.9921890000000104
 42
-0.4142108826965076
 10
-222.0703149999999937
 20
37.9531269999891805
 42
-0.4141924816972828
 10
-253.1074249999999779
 20
6.91601500000003
 10
-274.9199249999999779
 20
6.9160150000000158
 10
-274.9199249999999779
 20
68.9921890000000104
  0
LWPOLYLINE
  5
8A
100
AcDbEntity
  8
0
 62
256
370
-1
 48
1.0
  6
BYLAYER
100
AcDbPolyline
 90
5
 70
128
 10
56.2519449999999779
 20
132.2832050000000095
 10
4.0527350000000411
 20
-11.1347649999999874
 10
48.1464849999999842
 20
-132.2832050000000095
 10
100.3476550000000316
 20
11.1347649999999874
 10
56.2519449999999779
 20
132.2832050000000095
  0
LWPOLYLINE
  5
8B
100
AcDbEntity
  8
0
 62
256
370
-1
 48
1.0
  6
BYLAYER
100
AcDbPolyline
 90
5
 70
128
 10
-136.3359449999999811
 20
132.2832050000000095
 10
-40.0410149999999589
 20
-132.2832050000000095
 10
48.1464849999999842
 20
-132.2832050000000095
 10
-48.1464849999999842
 20
132.2832050000000095
 10
-136.3359449999999811
 20
132.2832050000000095
  0
LWPOLYLINE
  5
8C
100
AcDbEntity
  8
0
 62
256
370
-1
 48
1.0
  6
BYLAYER
100
AcDbPolyline
 90
8
 70
128
 10
56.2519449999999779
 20
132.2832050000000095
 10
152.546875
 20
-132.2832050000000095
 10
240.7363250000000789
 20
-132.2832050000000095
 10
337.0312450000001263
 20
132.2832050000000095
 10
248.8417950000000474
 20
132.2832050000000095
 10
196.640625
 20
-11.1347649999999874
 10
144.4414050000000316
 20
132.2832050000000095
 10
56.2519449999999779
 20
132.2832050000000095
  0
ENDBLK
  5
8D
100
AcDbEntity
  8
0
100
AcDbBlockEnd
  0
BLOCK
  5
8E
100
AcDbEntity
  8
0
100
AcDbBlockBegin
  2
block 8
 70
0
 10
0.0
 20
0.0
 30
0.0
  3
block 8
  1

  0
LWPOLYLINE
  5
8F
100
AcDbEntity
  8
AreaEngraving
 62
3
420
65280
370
-1
 48
1.0
  6
BYLAYER
100
AcDbPolyline
 90
6
 70
128
 10
-0.6863584872871229
 20
53.6120564188048263
 10
-0.6863584872871229
 20
42.4142964188048239
 42
-0.0033072788336863
 10
-0.1577084872871239
 20
42.4374964188048409
 42
-0.0033077266184061
 10
0.3714615127128695
 20
42.4294964188048738
 10
0.3714615127128695
 20
53.6120564188048263
 10
-0.6863584872871229
 20
53.6120564188048263
  0
LWPOLYLINE
  5
90
100
AcDbEntity
  8
AreaEngraving
 62
3
420
65280
370
-1
 48
1.0
  6
BYLAYER
100
AcDbPolyline
 90
5
 70
128
 10
-11.8215964872871098
 20
48.0113664188048261
 10
-12.8432394872871214
 20
47.7374864188048207
 10
-11.0154454872871099
 20
40.9151664188048159
 42
-0.0066141399769513
 10
-9.993285487287153
 20
41.1890464188048355
 10
-11.8215964872871098
 20
48.0113664188048261
  0
LWPOLYLINE
  5
91
100
AcDbEntity
  8
AreaEngraving
 62
3
420
65280
370
-1
 48
1.0
  6
BYLAYER
100
AcDbPolyline
 90
5
 70
128
 10
11.5067015127128798
 20
48.0113664188048261
 10
9.6825215127128956
 20
41.2035164188048242
 42
-0.0066101756053528
 10
10.7041615127128296
 20
40.9301464188048527
 10
12.528341512712899
 20
47.7374864188048207
 10
11.5067015127128798
 20
48.0113664188048261
  0
LWPOLYLINE
  5
92
100
AcDbEntity
  8
AreaEngraving
 62
3
420
65280
370
-1
 48
1.0
  6
BYLAYER
100
AcDbPolyline
 90
5
 70
128
 10
-25.2869244872871093
 20
47.0202164188048215
 10
-26.2026304872871094
 20
46.4915664188048225
 10
-20.6034894872871064
 20
36.7939664188048283
 42
-0.006608723992369
 10
-19.6877834872871063
 20
37.3226164188048415
 10
-25.2869244872871093
 20
47.0202164188048215
  0
LWPOLYLINE
  5
93
100
AcDbEntity
  8
AreaEngraving
 62
3
420
65280
370
-1
 48
1.0
  6
BYLAYER
100
AcDbPolyline
 90
5
 70
128
 10
24.9715115127128797
 20
47.0202164188048215
 10
19.3806315127128812
 20
37.3360564188048158
 42
-0.0066087456461917
 10
20.296341512712786
 20
36.8074064188048311
 10
25.8877315127128895
 20
46.4915664188048225
 10
24.9715115127128797
 20
47.0202164188048215
  0
LWPOLYLINE
  5
94
100
AcDbEntity
  8
AreaEngraving
 62
3
420
65280
370
-1
 48
1.0
  6
BYLAYER
100
AcDbPolyline
 90
5
 70
128
 10
-33.0456244872871139
 20
36.0735964188048257
 10
-33.7938984872870947
 20
35.3258364188048262
 10
-28.7993714872870896
 20
30.3313064188048287
 42
-0.0066118880942146
 10
-28.0510974872871373
 20
31.079066418804814
 10
-33.0456244872871139
 20
36.0735964188048257
  0
LWPOLYLINE
  5
95
100
AcDbEntity
  8
AreaEngraving
 62
3
420
65280
370
-1
 48
1.0
  6
BYLAYER
100
AcDbPolyline
 90
5
 70
128
 10
32.7307215127128757
 20
36.0735964188048257
 10
27.7475715127128808
 20
31.0904364188048277
 42
-0.0066118262234246
 10
28.4953215127127919
 20
30.342166418804851
 10
33.4784815127128752
 20
35.3258364188048262
 10
32.7307215127128757
 20
36.0735964188048257
  0
LWPOLYLINE
  5
96
100
AcDbEntity
  8
AreaEngraving
 62
3
420
65280
370
-1
 48
1.0
  6
BYLAYER
100
AcDbPolyline
 90
5
 70
128
 10
-44.2113514872871178
 20
28.4828464188048258
 10
-44.7405184872871189
 20
27.5666264188048302
 10
-35.0429204872871196
 20
21.9679964188048302
 42
-0.0066131255020083
 10
-34.5137524872871495
 20
22.8842164188048258
 10
-44.2113514872871178
 20
28.4828464188048258
  0
LWPOLYLINE
  5
97
100
AcDbEntity
  8
AreaEngraving
 62
3
420
65280
370
-1
 48
1.0
  6
BYLAYER
100
AcDbPolyline
 90
5
 70
128
 10
43.896451512712872
 20
28.4828464188048258
 10
34.2122915127128806
 20
22.8919764188048163
 42
-0.0066115608445713
 10
34.740941512712908
 20
21.9757464188048743
 10
44.4251015127128994
 20
27.5666264188048018
 10
43.896451512712872
 20
28.4828464188048258
  0
LWPOLYLINE
  5
98
100
AcDbEntity
  8
AreaEngraving
 62
3
420
65280
370
-1
 48
1.0
  6
BYLAYER
100
AcDbPolyline
 90
5
 70
128
 10
-45.4577974872871096
 20
15.1229364188048407
 10
-45.7316824872871166
 20
14.10129641880485
 10
-38.9093574872871386
 20
12.2729864188048623
 42
-0.006614144830355
 10
-38.6354744872871834
 20
13.2951464188047908
 10
-45.4577974872871096
 20
15.1229364188048407
  0
LWPOLYLINE
  5
99
100
AcDbEntity
  8
AreaEngraving
 62
3
420
65280
370
-1
 48
1.0
  6
BYLAYER
100
AcDbPolyline
 90
5
 70
128
 10
45.1428915127128789
 20
15.1229364188048407
 10
38.3355515127128683
 20
13.2987564188048282
 42
-0.006611016540262
 10
38.6094415127129196
 20
12.2771164188047806
 10
45.4162515127128472
 20
14.10129641880485
 10
45.1428915127128789
 20
15.1229364188048407
  0
LWPOLYLINE
  5
9A
100
AcDbEntity
  8
AreaEngraving
 62
3
420
65280
370
-1
 48
1.0
  6
BYLAYER
100
AcDbPolyline
 90
6
 70
128
 10
-51.3318474872871207
 20
2.9660564188048397
 10
-51.3318474872871207
 20
1.9087564188048418
 10
-40.1340814872871192
 20
1.9087564188048418
 42
-0.003307292549862
 10
-40.1573314872871094
 20
2.4374064188048123
 42
-0.003307292549864
 10
-40.1340814872871192
 20
2.9660564188046692
 10
-51.3318474872871207
 20
2.9660564188048397
  0
LWPOLYLINE
  5
9B
100
AcDbEntity
  8
AreaEngraving
 62
3
420
65280
370
-1
 48
1.0
  6
BYLAYER
100
AcDbPolyline
 90
6
 70
128
 10
39.834681512712848
 20
2.9660564188047829
 42
-0.003304476883546
 10
39.8426815127128862
 20
2.4374064188052103
 42
-0.0033072788336863
 10
39.8194815127129118
 20
1.9087564188046713
 10
51.0172515127128463
 20
1.9087564188048418
 10
51.0172515127128463
 20
2.9660564188048397
 10
39.8346815127129048
 20
2.9660564188048397
  0
LWPOLYLINE
  5
9C
100
AcDbEntity
  8
AreaEngraving
 62
3
420
65280
370
-1
 48
1.0
  6
BYLAYER
100
AcDbPolyline
 90
6
 70
128
 10
-38.9093484872871045
 20
-7.3981735811951808
 10
-45.7316724872871134
 20
-9.2264835811951684
 10
-45.4577874872871348
 20
-10.2481235811951592
 10
-38.6354654872871208
 20
-8.4203235811951345
 42
-0.0066140844520288
 10
-38.9093484872871045
 20
-7.3981735811951808
 10
-38.9093484872871045
 20
-7.3981735811951808
  0
LWPOLYLINE
  5
9D
100
AcDbEntity
  8
AreaEngraving
 62
3
420
65280
370
-1
 48
1.0
  6
BYLAYER
100
AcDbPolyline
 90
5
 70
128
 10
38.5944515127128511
 20
-7.3986835811951437
 42
-0.0066110165402621
 10
38.3205615127128567
 20
-8.4203235811951913
 10
45.1428915127128789
 20
-10.2481235811951592
 10
45.4162515127128472
 20
-9.2264835811951684
 10
38.594451512712908
 20
-7.3986835811951437
  0
LWPOLYLINE
  5
9E
100
AcDbEntity
  8
AreaEngraving
 62
3
420
65280
370
-1
 48
1.0
  6
BYLAYER
100
AcDbPolyline
 90
5
 70
128
 10
-35.0429204872871196
 20
-17.0931835811951487
 10
-44.7405184872871189
 20
-22.6918135811951629
 10
-44.2113514872871178
 20
-23.6080335811951727
 10
-34.5137524872871211
 20
-18.0094035811951585
 42
-0.0066131255020083
 10
-35.0429204872871196
 20
-17.0931835811951487
  0
LWPOLYLINE
  5
9F
100
AcDbEntity
  8
AreaEngraving
 62
3
420
65280
370
-1
 48
1.0
  6
BYLAYER
100
AcDbPolyline
 90
5
 70
128
 10
34.7280215127128713
 20
-17.0931835811950918
 42
-0.0066131317545044
 10
34.1988515127128494
 20
-18.0094035811951585
 10
43.896451512712872
 20
-23.6080335811951727
 10
44.4251015127128994
 20
-22.6918135811951629
 10
34.7280215127128713
 20
-17.0931835811951487
  0
LWPOLYLINE
  5
A0
100
AcDbEntity
  8
AreaEngraving
 62
3
420
65280
370
-1
 48
1.0
  6
BYLAYER
100
AcDbPolyline
 90
5
 70
128
 10
-28.799371487287118
 20
-25.4564935811951614
 10
-33.7938994872871206
 20
-30.4510235811951588
 10
-33.0456274872871063
 20
-31.1987835811951868
 10
-28.0510984872871063
 20
-26.2042535811951893
 42
-0.0066118836727005
 10
-28.7993714872870896
 20
-25.4564935811951614
  0
LWPOLYLINE
  5
A1
100
AcDbEntity
  8
AreaEngraving
 62
3
420
65280
370
-1
 48
1.0
  6
BYLAYER
100
AcDbPolyline
 90
5
 70
128
 10
28.4844715127128154
 20
-25.4564935811951614
 42
-0.0066118704081765
 10
27.7362015127128529
 20
-26.2042535811951325
 10
32.7307215127128757
 20
-31.1987835811951868
 10
33.4784815127128752
 20
-30.4510235811951588
 10
28.4844715127128723
 20
-25.4564935811951614
  0
LWPOLYLINE
  5
A2
100
AcDbEntity
  8
AreaEngraving
 62
3
420
65280
370
-1
 48
1.0
  6
BYLAYER
100
AcDbPolyline
 90
5
 70
128
 10
-20.6040134872871192
 20
-31.9191535811951894
 10
-26.2026374872871202
 20
-41.6167535811951552
 10
-25.28693148728712
 20
-42.1454035811951826
 10
-19.6883064872871216
 20
-32.4478035811951599
 42
-0.0066087294058223
 10
-20.6040134872870908
 20
-31.9191535811951894
  0
LWPOLYLINE
  5
A3
100
AcDbEntity
  8
AreaEngraving
 62
3
420
65280
370
-1
 48
1.0
  6
BYLAYER
100
AcDbPolyline
 90
5
 70
128
 10
20.288591512712884
 20
-31.9191535811951894
 42
-0.0066087456461919
 10
19.3728815127128655
 20
-32.4478035811952168
 10
24.9715115127128797
 20
-42.1454035811951826
 10
25.8877315127128895
 20
-41.6167535811951552
 10
20.288591512712884
 20
-31.9191535811951894
  0
ENDBLK
  5
A4
100
AcDbEntity
  8
0
100
AcDbBlockEnd
  0
BLOCK
  5
A5
100
AcDbEntity
  8
0
100
AcDbBlockBegin
  2
block 4
 70
0
 10
0.0
 20
0.0
 30
0.0
  3
block 4
  1

  0
LWPOLYLINE
  5
A6
100
AcDbEntity
  8
VectorEngraving
 62
256
370
-1
 48
1.0
  6
BYLAYER
100
AcDbPolyline
 90
6
 70
128
 10
-0.1447316216625225
 20
5.2278271675010188
 10
-0.1447316216625225
 20
3.4717371675010185
 42
-0.0094312964636997
 10
-0.012841621662524
 20
3.4777371675010471
 42
-0.0094282736998003
 10
0.1191083783374793
 20
3.4747371675010328
 10
0.1191083783374793
 20
5.2275271675010373
 10
-0.1447316216625225
 20
5.2278271675010188
  0
LWPOLYLINE
  5
A7
100
AcDbEntity
  8
VectorEngraving
 62
256
370
-1
 48
1.0
  6
BYLAYER
100
AcDbPolyline
 90
5
 70
128
 10
-2.5235516216625271
 20
4.5904471675010114
 10
-2.7520316216625318
 20
4.4585071675010255
 10
-1.8752716216625274
 20
2.9399371675010144
 42
-0.018850642653673
 10
-1.6458916216625212
 20
3.0702571675010262
 10
-2.5235516216625271
 20
4.5904471675010114
  0
LWPOLYLINE
  5
A8
100
AcDbEntity
  8
VectorEngraving
 62
256
370
-1
 48
1.0
  6
BYLAYER
100
AcDbPolyline
 90
5
 70
128
 10
2.4979683783374682
 20
4.5904471675010114
 10
1.6214783783374642
 20
3.0723371675010043
 42
-0.0188531870154901
 10
1.8500983783374707
 20
2.9406171675010029
 10
2.7264483783374729
 20
4.4585071675009971
 10
2.4979683783374682
 20
4.5904471675010114
  0
LWPOLYLINE
  5
A9
100
AcDbEntity
  8
VectorEngraving
 62
256
370
-1
 48
1.0
  6
BYLAYER
100
AcDbPolyline
 90
5
 70
128
 10
-4.493471621662529
 20
2.7170671675010141
 10
-4.6253716216625307
 20
2.4885871675010236
 10
-3.1052216216625297
 20
1.6109271675010319
 42
-0.0188520557002934
 10
-2.9748616216625337
 20
1.8403071675010239
 10
-4.493471621662529
 20
2.7170671675010141
  0
LWPOLYLINE
  5
AA
100
AcDbEntity
  8
VectorEngraving
 62
256
370
-1
 48
1.0
  6
BYLAYER
100
AcDbPolyline
 90
5
 70
128
 10
4.4678883783374701
 20
2.7170671675010141
 10
2.9499483783374743
 20
1.8407171675010119
 42
-0.0188549721058722
 10
3.0817183783375199
 20
1.6120971675010054
 10
4.5997783783374828
 20
2.4885871675009952
 10
4.4678883783374701
 20
2.7170671675010141
  0
LWPOLYLINE
  5
AB
100
AcDbEntity
  8
VectorEngraving
 62
256
370
-1
 48
1.0
  6
BYLAYER
100
AcDbPolyline
 90
6
 70
128
 10
-5.2628346216625275
 20
0.1097271675010205
 10
-5.2628346216625275
 20
-0.1541128324989671
 10
-3.506701621662522
 20
-0.1541128324989671
 42
-0.0094348651562602
 10
-3.5127016216625506
 20
-0.0221728324989812
 42
-0.00943201020193
 10
-3.5067016216625362
 20
0.1097271675010205
 10
-5.2628346216625275
 20
0.1097271675010205
  0
LWPOLYLINE
  5
AC
100
AcDbEntity
  8
VectorEngraving
 62
256
370
-1
 48
1.0
  6
BYLAYER
100
AcDbPolyline
 90
6
 70
128
 10
3.4844183783374589
 20
0.1097271675010205
 42
-0.009424702242363
 10
3.487418378337459
 20
-0.0221728324988959
 42
-0.0094348651562611
 10
3.4814183783374872
 20
-0.1541128324989671
 10
5.2375083783374734
 20
-0.1541128324989671
 10
5.2375083783374734
 20
0.1097271675010205
 10
3.4844183783374731
 20
0.1097271675010205
  0
LWPOLYLINE
  5
AD
100
AcDbEntity
  8
VectorEngraving
 62
256
370
-1
 48
1.0
  6
BYLAYER
100
AcDbPolyline
 90
5
 70
128
 10
3.0795883783374691
 20
-1.6552228324989784
 42
-0.0188551641205852
 10
2.9492283783374731
 20
-1.8846528324989862
 10
4.4678883783374701
 20
-2.7614128324989764
 10
4.5997783783374686
 20
-2.5329328324989859
 10
3.0795883783374691
 20
-1.6552228324989784
  0
LWPOLYLINE
  5
AE
100
AcDbEntity
  8
VectorEngraving
 62
256
370
-1
 48
1.0
  6
BYLAYER
100
AcDbPolyline
 90
5
 70
128
 10
-3.1052216216625297
 20
-1.6552728324989658
 10
-4.6253716216625307
 20
-2.5329328324989575
 10
-4.493471621662529
 20
-2.761412832498948
 10
-2.9748616216625337
 20
-1.8846528324989578
 42
-0.0188520557002923
 10
-3.1052216216625439
 20
-1.6552728324989658
  0
LWPOLYLINE
  5
AF
100
AcDbEntity
  8
VectorEngraving
 62
256
370
-1
 48
1.0
  6
BYLAYER
100
AcDbPolyline
 90
5
 70
128
 10
1.8496883783374685
 20
-2.984242832498964
 42
-0.0188520557002944
 10
1.6203083783374623
 20
-3.1146028324989601
 10
2.4979683783374682
 20
-4.6347928324989738
 10
2.7264483783374729
 20
-4.5028528324989878
 10
1.8496883783374685
 20
-2.984242832498964
  0
LWPOLYLINE
  5
B0
100
AcDbEntity
  8
VectorEngraving
 62
256
370
-1
 48
1.0
  6
BYLAYER
100
AcDbPolyline
 90
6
 70
128
 10
-1.8752716216625274
 20
-2.9842828324989767
 10
-2.7520316216625318
 20
-4.5028528324989878
 10
-2.5235516216625271
 20
-4.6347928324989738
 10
-1.6458916216625212
 20
-3.1146028324989601
 42
-0.0188506426536739
 10
-1.8752716216625274
 20
-2.9842828324989483
 10
-1.8752716216625274
 20
-2.9842828324989767
  0
ENDBLK
  5
B1
100
AcDbEntity
  8
0
100
AcDbBlockEnd
  0
BLOCK
  5
B2
100
AcDbEntity
  8
0
100
AcDbBlockBegin
  2
block 7
 70
0
 10
0.0
 20
0.0
 30
0.0
  3
block 7
  1

  0
LWPOLYLINE
  5
B3
100
AcDbEntity
  8
VectorEngraving
 62
3
420
65280
370
-1
 48
1.0
  6
BYLAYER
100
AcDbPolyline
 90
6
 70
128
 10
-0.1447316216625225
 20
5.2278271675010188
 10
-0.1447316216625225
 20
3.4717371675010185
 42
-0.0094312964636997
 10
-0.012841621662524
 20
3.4777371675010471
 42
-0.0094282736998003
 10
0.1191083783374793
 20
3.4747371675010328
 10
0.1191083783374793
 20
5.2275271675010373
 10
-0.1447316216625225
 20
5.2278271675010188
  0
LWPOLYLINE
  5
B4
100
AcDbEntity
  8
VectorEngraving
 62
3
420
65280
370
-1
 48
1.0
  6
BYLAYER
100
AcDbPolyline
 90
5
 70
128
 10
-2.5235516216625271
 20
4.5904471675010114
 10
-2.7520316216625318
 20
4.4585071675010255
 10
-1.8752716216625274
 20
2.9399371675010144
 42
-0.018850642653673
 10
-1.6458916216625212
 20
3.0702571675010262
 10
-2.5235516216625271
 20
4.5904471675010114
  0
LWPOLYLINE
  5
B5
100
AcDbEntity
  8
VectorEngraving
 62
3
420
65280
370
-1
 48
1.0
  6
BYLAYER
100
AcDbPolyline
 90
5
 70
128
 10
2.4979683783374682
 20
4.5904471675010114
 10
1.6214783783374642
 20
3.0723371675010043
 42
-0.0188531870154901
 10
1.8500983783374707
 20
2.9406171675010029
 10
2.7264483783374729
 20
4.4585071675009971
 10
2.4979683783374682
 20
4.5904471675010114
  0
LWPOLYLINE
  5
B6
100
AcDbEntity
  8
VectorEngraving
 62
3
420
65280
370
-1
 48
1.0
  6
BYLAYER
100
AcDbPolyline
 90
5
 70
128
 10
-4.493471621662529
 20
2.7170671675010141
 10
-4.6253716216625307
 20
2.4885871675010236
 10
-3.1052216216625297
 20
1.6109271675010319
 42
-0.0188520557002934
 10
-2.9748616216625337
 20
1.8403071675010239
 10
-4.493471621662529
 20
2.7170671675010141
  0
LWPOLYLINE
  5
B7
100
AcDbEntity
  8
VectorEngraving
 62
3
420
65280
370
-1
 48
1.0
  6
BYLAYER
100
AcDbPolyline
 90
5
 70
128
 10
4.4678883783374701
 20
2.7170671675010141
 10
2.9499483783374743
 20
1.8407171675010119
 42
-0.0188549721058722
 10
3.0817183783375199
 20
1.6120971675010054
 10
4.5997783783374828
 20
2.4885871675009952
 10
4.4678883783374701
 20
2.7170671675010141
  0
LWPOLYLINE
  5
B8
100
AcDbEntity
  8
VectorEngraving
 62
3
420
65280
370
-1
 48
1.0
  6
BYLAYER
100
AcDbPolyline
 90
6
 70
128
 10
-5.2628346216625275
 20
0.1097271675010205
 10
-5.2628346216625275
 20
-0.1541128324989671
 10
-3.506701621662522
 20
-0.1541128324989671
 42
-0.0094348651562602
 10
-3.5127016216625506
 20
-0.0221728324989812
 42
-0.00943201020193
 10
-3.5067016216625362
 20
0.1097271675010205
 10
-5.2628346216625275
 20
0.1097271675010205
  0
LWPOLYLINE
  5
B9
100
AcDbEntity
  8
VectorEngraving
 62
3
420
65280
370
-1
 48
1.0
  6
BYLAYER
100
AcDbPolyline
 90
6
 70
128
 10
3.4844183783374589
 20
0.1097271675010205
 42
-0.009424702242363
 10
3.487418378337459
 20
-0.0221728324988959
 42
-0.0094348651562611
 10
3.4814183783374872
 20
-0.1541128324989671
 10
5.2375083783374734
 20
-0.1541128324989671
 10
5.2375083783374734
 20
0.1097271675010205
 10
3.4844183783374731
 20
0.1097271675010205
  0
LWPOLYLINE
  5
BA
100
AcDbEntity
  8
VectorEngraving
 62
3
420
65280
370
-1
 48
1.0
  6
BYLAYER
100
AcDbPolyline
 90
5
 70
128
 10
3.0795883783374691
 20
-1.6552228324989784
 42
-0.0188551641205852
 10
2.9492283783374731
 20
-1.8846528324989862
 10
4.4678883783374701
 20
-2.7614128324989764
 10
4.5997783783374686
 20
-2.5329328324989859
 10
3.0795883783374691
 20
-1.6552228324989784
  0
LWPOLYLINE
  5
BB
100
AcDbEntity
  8
VectorEngraving
 62
3
420
65280
370
-1
 48
1.0
  6
BYLAYER
100
AcDbPolyline
 90
5
 70
128
 10
-3.1052216216625297
 20
-1.6552728324989658
 10
-4.6253716216625307
 20
-2.5329328324989575
 10
-4.493471621662529
 20
-2.761412832498948
 10
-2.9748616216625337
 20
-1.8846528324989578
 42
-0.0188520557002923
 10
-3.1052216216625439
 20
-1.6552728324989658
  0
LWPOLYLINE
  5
BC
100
AcDbEntity
  8
VectorEngraving
 62
3
420
65280
370
-1
 48
1.0
  6
BYLAYER
100
AcDbPolyline
 90
5
 70
128
 10
1.8496883783374685
 20
-2.984242832498964
 42
-0.0188520557002944
 10
1.6203083783374623
 20
-3.1146028324989601
 10
2.4979683783374682
 20
-4.6347928324989738
 10
2.7264483783374729
 20
-4.5028528324989878
 10
1.8496883783374685
 20
-2.984242832498964
  0
LWPOLYLINE
  5
BD
100
AcDbEntity
  8
VectorEngraving
 62
3
420
65280
370
-1
 48
1.0
  6
BYLAYER
100
AcDbPolyline
 90
6
 70
128
 10
-1.8752716216625274
 20
-2.9842828324989767
 10
-2.7520316216625318
 20
-4.5028528324989878
 10
-2.5235516216625271
 20
-4.6347928324989738
 10
-1.6458916216625212
 20
-3.1146028324989601
 42
-0.0188506426536739
 10
-1.8752716216625274
 20
-2.9842828324989483
 10
-1.8752716216625274
 20
-2.9842828324989767
  0
ENDBLK
  5
BE
100
AcDbEntity
  8
0
100
AcDbBlockEnd
  0
BLOCK
  5
BF
100
AcDbEntity
  8
0
100
AcDbBlockBegin
  2
block 3
 70
0
 10
0.0
 20
0.0
 30
0.0
  3
block 3
  1

  0
INSERT
  5
C0
100
AcDbEntity
  8
VectorEngraving
 62
256
370
-1
 48
1.0
  6
BYLAYER
100
AcDbBlockReference
  2
SmallPotGauge
 10
-105.0126316216625355
 20
145.1543371675010121
 30
0.0
  0
ENDBLK
  5
C1
100
AcDbEntity
  8
0
100
AcDbBlockEnd
  0
BLOCK
  5
C2
100
AcDbEntity
  8
0
100
AcDbBlockBegin
  2
SmallPotGauge
 70
0
 10
0.0
 20
0.0
 30
0.0
  3
SmallPotGauge
  1

  0
LWPOLYLINE
  5
C3
100
AcDbEntity
  8
0
 62
256
370
-1
 48
1.0
  6
BYLAYER
100
AcDbPolyline
 90
6
 70
128
 10
104.8679000000000059
 20
-139.9265100000000075
 10
104.8679000000000059
 20
-141.6826000000000079
 42
-0.0094312964636997
 10
104.9997900000000044
 20
-141.6765999999999792
 42
-0.0094282736998003
 10
105.1317400000000077
 20
-141.6795999999999935
 10
105.1317400000000077
 20
-139.926809999999989
 10
104.8679000000000059
 20
-139.9265100000000075
  0
LWPOLYLINE
  5
C4
100
AcDbEntity
  8
0
 62
256
370
-1
 48
1.0
  6
BYLAYER
100
AcDbPolyline
 90
5
 70
128
 10
102.4890800000000013
 20
-140.5638900000000149
 10
102.2605999999999966
 20
-140.6958300000000008
 10
103.137360000000001
 20
-142.2144000000000119
 42
-0.018850642653673
 10
103.3667400000000072
 20
-142.0840800000000002
 10
102.4890800000000013
 20
-140.5638900000000149
  0
LWPOLYLINE
  5
C5
100
AcDbEntity
  8
0
 62
256
370
-1
 48
1.0
  6
BYLAYER
100
AcDbPolyline
 90
5
 70
128
 10
107.5105999999999966
 20
-140.5638900000000149
 10
106.6341099999999926
 20
-142.0820000000000221
 42
-0.0188531870154901
 10
106.8627299999999991
 20
-142.2137200000000234
 10
107.7390800000000013
 20
-140.6958300000000293
 10
107.5105999999999966
 20
-140.5638900000000149
  0
LWPOLYLINE
  5
C6
100
AcDbEntity
  8
0
 62
256
370
-1
 48
1.0
  6
BYLAYER
100
AcDbPolyline
 90
5
 70
128
 10
100.5191599999999994
 20
-142.4372700000000123
 10
100.3872599999999977
 20
-142.6657500000000027
 10
101.9074099999999987
 20
-143.5434099999999944
 42
-0.0188520557002934
 10
102.0377699999999948
 20
-143.3140300000000025
 10
100.5191599999999994
 20
-142.4372700000000123
  0
LWPOLYLINE
  5
C7
100
AcDbEntity
  8
0
 62
256
370
-1
 48
1.0
  6
BYLAYER
100
AcDbPolyline
 90
5
 70
128
 10
109.4805199999999985
 20
-142.4372700000000123
 10
107.9625800000000027
 20
-143.3136200000000144
 42
-0.0188549721058722
 10
108.0943500000000483
 20
-143.5422400000000209
 10
109.6124100000000112
 20
-142.6657500000000312
 10
109.4805199999999985
 20
-142.4372700000000123
  0
LWPOLYLINE
  5
C8
100
AcDbEntity
  8
0
 62
256
370
-1
 48
1.0
  6
BYLAYER
100
AcDbPolyline
 90
6
 70
128
 10
99.7497970000000009
 20
-145.0446100000000058
 10
99.7497970000000009
 20
-145.3084499999999935
 10
101.5059300000000064
 20
-145.3084499999999935
 42
-0.0094348651562602
 10
101.4999299999999778
 20
-145.1765100000000075
 42
-0.00943201020193
 10
101.5059299999999922
 20
-145.0446100000000058
 10
99.7497970000000009
 20
-145.0446100000000058
  0
LWPOLYLINE
  5
C9
100
AcDbEntity
  8
0
 62
256
370
-1
 48
1.0
  6
BYLAYER
100
AcDbPolyline
 90
6
 70
128
 10
108.4970499999999873
 20
-145.0446100000000058
 42
-0.009424702242363
 10
108.5000499999999874
 20
-145.1765099999999222
 42
-0.0094348651562611
 10
108.4940500000000156
 20
-145.3084499999999935
 10
110.2501400000000018
 20
-145.3084499999999935
 10
110.2501400000000018
 20
-145.0446100000000058
 10
108.4970500000000015
 20
-145.0446100000000058
  0
LWPOLYLINE
  5
CA
100
AcDbEntity
  8
0
 62
256
370
-1
 48
1.0
  6
BYLAYER
100
AcDbPolyline
 90
5
 70
128
 10
108.0922199999999975
 20
-146.8095600000000047
 42
-0.0188551641205852
 10
107.9618600000000015
 20
-147.0389900000000125
 10
109.4805199999999985
 20
-147.9157500000000027
 10
109.612409999999997
 20
-147.6872700000000123
 10
108.0922199999999975
 20
-146.8095600000000047
  0
LWPOLYLINE
  5
CB
100
AcDbEntity
  8
0
 62
256
370
-1
 48
1.0
  6
BYLAYER
100
AcDbPolyline
 90
5
 70
128
 10
101.9074099999999987
 20
-146.8096099999999922
 10
100.3872599999999977
 20
-147.6872699999999838
 10
100.5191599999999994
 20
-147.9157499999999743
 10
102.0377699999999948
 20
-147.0389899999999841
 42
-0.0188520557002923
 10
101.9074099999999845
 20
-146.8096099999999922
  0
LWPOLYLINE
  5
CC
100
AcDbEntity
  8
0
 62
256
370
-1
 48
1.0
  6
BYLAYER
100
AcDbPolyline
 90
5
 70
128
 10
106.8623199999999969
 20
-148.1385799999999904
 42
-0.0188520557002944
 10
106.6329399999999907
 20
-148.2689399999999864
 10
107.5105999999999966
 20
-149.7891300000000001
 10
107.7390800000000013
 20
-149.6571900000000142
 10
106.8623199999999969
 20
-148.1385799999999904
  0
LWPOLYLINE
  5
CD
100
AcDbEntity
  8
0
 62
256
370
-1
 48
1.0
  6
BYLAYER
100
AcDbPolyline
 90
6
 70
128
 10
103.137360000000001
 20
-148.1386200000000031
 10
102.2605999999999966
 20
-149.6571900000000142
 10
102.4890800000000013
 20
-149.7891300000000001
 10
103.3667400000000072
 20
-148.2689399999999864
 42
-0.0188506426536739
 10
103.137360000000001
 20
-148.1386199999999747
 10
103.137360000000001
 20
-148.1386200000000031
  0
ENDBLK
  5
CE
100
AcDbEntity
  8
0
100
AcDbBlockEnd
  0
BLOCK
  5
CF
100
AcDbEntity
  8
0
100
AcDbBlockBegin
  2
block 2
 70
0
 10
0.0
 20
0.0
 30
0.0
  3
block 2
  1

  0
INSERT
  5
D0
100
AcDbEntity
  8
VectorEngraving
 62
256
370
-1
 48
1.0
  6
BYLAYER
100
AcDbBlockReference
  2
block 1
 10
-269.800785000000019
 20
132.2832050000000095
 30
0.0
  0
ENDBLK
  5
D1
100
AcDbEntity
  8
0
100
AcDbBlockEnd
  0
BLOCK
  5
D2
100
AcDbEntity
  8
0
100
AcDbBlockBegin
  2
block 1
 70
0
 10
0.0
 20
0.0
 30
0.0
  3
block 1
  1

  0
ENDBLK
  5
D3
100
AcDbEntity
  8
0
100
AcDbBlockEnd
  0
BLOCK
  5
D4
100
AcDbEntity
  8
0
100
AcDbBlockBegin
  2
LargePotGauge
 70
0
 10
0.0
 20
0.0
 30
0.0
  3
LargePotGauge
  1

  0
LWPOLYLINE
  5
D5
100
AcDbEntity
  8
0
 62
256
370
-1
 48
1.0
  6
BYLAYER
100
AcDbPolyline
 90
6
 70
128
 10
104.4709399999999988
 20
-100.6212699999999955
 10
104.4709399999999988
 20
-111.8190299999999979
 42
-0.0033072788336863
 10
104.9995899999999835
 20
-111.7958299999999809
 42
-0.0033077266184061
 10
105.5287599999999912
 20
-111.8038299999999481
 10
105.5287599999999912
 20
-100.6212699999999955
 10
104.4709399999999988
 20
-100.6212699999999955
  0
LWPOLYLINE
  5
D6
100
AcDbEntity
  8
0
 62
256
370
-1
 48
1.0
  6
BYLAYER
100
AcDbPolyline
 90
5
 70
128
 10
93.3357019999999977
 20
-106.2219599999999957
 10
92.3140590000000003
 20
-106.4958400000000012
 10
94.1418529999999976
 20
-113.318160000000006
 42
-0.0066141399769513
 10
95.1640129999999687
 20
-113.0442799999999863
 10
93.3357019999999977
 20
-106.2219599999999957
  0
LWPOLYLINE
  5
D7
100
AcDbEntity
  8
0
 62
256
370
-1
 48
1.0
  6
BYLAYER
100
AcDbPolyline
 90
5
 70
128
 10
116.6640000000000015
 20
-106.2219599999999957
 10
114.8398200000000031
 20
-113.0298099999999977
 42
-0.0066101756053528
 10
115.8614599999999371
 20
-113.3031799999999691
 10
117.6856400000000065
 20
-106.4958400000000012
 10
116.6640000000000015
 20
-106.2219599999999957
  0
LWPOLYLINE
  5
D8
100
AcDbEntity
  8
0
 62
256
370
-1
 48
1.0
  6
BYLAYER
100
AcDbPolyline
 90
5
 70
128
 10
79.8703739999999982
 20
-107.2131100000000004
 10
78.9546679999999981
 20
-107.7417599999999993
 10
84.5538090000000011
 20
-117.4393599999999935
 42
-0.006608723992369
 10
85.4695150000000012
 20
-116.9107099999999804
 10
79.8703739999999982
 20
-107.2131100000000004
  0
LWPOLYLINE
  5
D9
100
AcDbEntity
  8
0
 62
256
370
-1
 48
1.0
  6
BYLAYER
100
AcDbPolyline
 90
5
 70
128
 10
130.1288099999999872
 20
-107.2131100000000004
 10
124.5379299999999887
 20
-116.897270000000006
 42
-0.0066087456461917
 10
125.4536399999999077
 20
-117.4259199999999908
 10
131.045029999999997
 20
-107.7417599999999993
 10
130.1288099999999872
 20
-107.2131100000000004
  0
LWPOLYLINE
  5
DA
100
AcDbEntity
  8
0
 62
256
370
-1
 48
1.0
  6
BYLAYER
100
AcDbPolyline
 90
5
 70
128
 10
72.1116739999999936
 20
-118.1597299999999962
 10
71.3633999999999986
 20
-118.9074899999999957
 10
76.3579270000000037
 20
-123.9020199999999932
 42
-0.0066118880942146
 10
77.1062009999999702
 20
-123.1542600000000078
 10
72.1116739999999936
 20
-118.1597299999999962
  0
LWPOLYLINE
  5
DB
100
AcDbEntity
  8
0
 62
256
370
-1
 48
1.0
  6
BYLAYER
100
AcDbPolyline
 90
5
 70
128
 10
137.8880199999999832
 20
-118.1597299999999962
 10
132.9048699999999883
 20
-123.1428899999999942
 42
-0.0066118262234246
 10
133.6526199999998994
 20
-123.8911599999999709
 10
138.6357799999999827
 20
-118.9074899999999957
 10
137.8880199999999832
 20
-118.1597299999999962
  0
LWPOLYLINE
  5
DC
100
AcDbEntity
  8
0
 62
256
370
-1
 48
1.0
  6
BYLAYER
100
AcDbPolyline
 90
5
 70
128
 10
60.9459469999999897
 20
-125.750479999999996
 10
60.4167799999999886
 20
-126.6666999999999916
 10
70.1143779999999879
 20
-132.2653300000000058
 42
-0.0066131255020083
 10
70.6435459999999722
 20
-131.349109999999996
 10
60.9459469999999897
 20
-125.750479999999996
  0
LWPOLYLINE
  5
DD
100
AcDbEntity
  8
0
 62
256
370
-1
 48
1.0
  6
BYLAYER
100
AcDbPolyline
 90
5
 70
128
 10
149.0537499999999795
 20
-125.750479999999996
 10
139.3695899999999881
 20
-131.3413500000000056
 42
-0.0066115608445713
 10
139.8982400000000155
 20
-132.2575799999999617
 10
149.5823999999999785
 20
-126.6667000000000201
 10
149.0537499999999795
 20
-125.750479999999996
  0
LWPOLYLINE
  5
DE
100
AcDbEntity
  8
0
 62
256
370
-1
 48
1.0
  6
BYLAYER
100
AcDbPolyline
 90
5
 70
128
 10
59.6995009999999837
 20
-139.1103899999999953
 10
59.4256159999999838
 20
-140.1320299999999861
 10
66.2479409999999831
 20
-141.9603399999999738
 42
-0.006614144830355
 10
66.5218239999999241
 20
-140.9381800000000169
 10
59.6995009999999837
 20
-139.1103899999999953
  0
LWPOLYLINE
  5
DF
100
AcDbEntity
  8
0
 62
256
370
-1
 48
1.0
  6
BYLAYER
100
AcDbPolyline
 90
5
 70
128
 10
150.3001899999999864
 20
-139.1103899999999953
 10
143.4928499999999758
 20
-140.9345700000000079
 42
-0.006611016540262
 10
143.7667399999999986
 20
-141.9562100000000271
 10
150.5735499999999831
 20
-140.1320299999999861
 10
150.3001899999999864
 20
-139.1103899999999953
  0
LWPOLYLINE
  5
E0
100
AcDbEntity
  8
0
 62
256
370
-1
 48
1.0
  6
BYLAYER
100
AcDbPolyline
 90
6
 70
128
 10
53.8254509999999868
 20
-151.2672699999999963
 10
53.8254509999999868
 20
-152.3245699999999943
 10
65.0232169999999883
 20
-152.3245699999999943
 42
-0.003307292549862
 10
64.9999669999999981
 20
-151.7959200000000237
 42
-0.003307292549864
 10
65.0232169999999883
 20
-151.2672700000001669
 10
53.8254509999999868
 20
-151.2672699999999963
  0
LWPOLYLINE
  5
E1
100
AcDbEntity
  8
0
 62
256
370
-1
 48
1.0
  6
BYLAYER
100
AcDbPolyline
 90
6
 70
128
 10
144.9919799999999555
 20
-151.2672700000000532
 42
-0.003304476883546
 10
144.9999799999999937
 20
-151.7959199999996258
 42
-0.0033072788336863
 10
144.9767800000000193
 20
-152.3245700000001364
 10
156.1745499999999822
 20
-152.3245699999999943
 10
156.1745499999999822
 20
-151.2672699999999963
 10
144.9919799999999839
 20
-151.2672699999999963
  0
LWPOLYLINE
  5
E2
100
AcDbEntity
  8
0
 62
256
370
-1
 48
1.0
  6
BYLAYER
100
AcDbPolyline
 90
6
 70
128
 10
66.2479499999999888
 20
-161.6314999999999884
 10
59.425625999999987
 20
-163.4598099999999761
 10
59.6995109999999869
 20
-164.4814499999999668
 10
66.5218329999999867
 20
-162.6536499999999705
 42
-0.0066140844520288
 10
66.247950000000003
 20
-161.6314999999999884
 10
66.2479499999999888
 20
-161.6314999999999884
  0
LWPOLYLINE
  5
E3
100
AcDbEntity
  8
0
 62
256
370
-1
 48
1.0
  6
BYLAYER
100
AcDbPolyline
 90
5
 70
128
 10
143.7517499999999586
 20
-161.6320099999999798
 42
-0.0066110165402621
 10
143.4778599999999642
 20
-162.653649999999999
 10
150.3001899999999864
 20
-164.4814499999999668
 10
150.5735499999999831
 20
-163.4598099999999761
 10
143.751749999999987
 20
-161.6320099999999798
  0
LWPOLYLINE
  5
E4
100
AcDbEntity
  8
0
 62
256
370
-1
 48
1.0
  6
BYLAYER
100
AcDbPolyline
 90
5
 70
128
 10
70.1143779999999879
 20
-171.3265099999999848
 10
60.4167799999999886
 20
-176.925139999999999
 10
60.9459469999999897
 20
-177.8413600000000088
 10
70.6435459999999864
 20
-172.2427299999999946
 42
-0.0066131255020083
 10
70.1143779999999879
 20
-171.3265099999999848
  0
LWPOLYLINE
  5
E5
100
AcDbEntity
  8
0
 62
256
370
-1
 48
1.0
  6
BYLAYER
100
AcDbPolyline
 90
5
 70
128
 10
139.8853199999999788
 20
-171.3265099999999279
 42
-0.0066131317545044
 10
139.3561499999999569
 20
-172.2427299999999661
 10
149.0537499999999795
 20
-177.8413600000000088
 10
149.5823999999999785
 20
-176.925139999999999
 10
139.8853199999999788
 20
-171.3265099999999848
  0
LWPOLYLINE
  5
E6
100
AcDbEntity
  8
0
 62
256
370
-1
 48
1.0
  6
BYLAYER
100
AcDbPolyline
 90
5
 70
128
 10
76.3579269999999894
 20
-179.6898199999999974
 10
71.3633989999999869
 20
-184.6843499999999949
 10
72.111670999999987
 20
-185.4321099999999944
 10
77.106199999999987
 20
-180.437579999999997
 42
-0.0066118836727005
 10
76.3579270000000179
 20
-179.689819999999969
  0
LWPOLYLINE
  5
E7
100
AcDbEntity
  8
0
 62
256
370
-1
 48
1.0
  6
BYLAYER
100
AcDbPolyline
 90
5
 70
128
 10
133.6417699999999229
 20
-179.6898199999999974
 42
-0.0066118704081765
 10
132.8934999999999604
 20
-180.4375799999999685
 10
137.8880199999999832
 20
-185.4321099999999944
 10
138.6357799999999827
 20
-184.6843499999999949
 10
133.6417699999999797
 20
-179.6898199999999974
  0
LWPOLYLINE
  5
E8
100
AcDbEntity
  8
0
 62
256
370
-1
 48
1.0
  6
BYLAYER
100
AcDbPolyline
 90
5
 70
128
 10
84.5532849999999883
 20
-186.1524799999999971
 10
78.9546609999999873
 20
-195.8500799999999913
 10
79.8703669999999875
 20
-196.3787299999999902
 10
85.4689919999999859
 20
-186.681129999999996
 42
-0.0066087294058223
 10
84.5532850000000025
 20
-186.1524799999999971
  0
LWPOLYLINE
  5
E9
100
AcDbEntity
  8
0
 62
256
370
-1
 48
1.0
  6
BYLAYER
100
AcDbPolyline
 90
5
 70
128
 10
125.4458899999999915
 20
-186.1524800000000255
 42
-0.0066087456461919
 10
124.530179999999973
 20
-186.6811300000000244
 10
130.1288099999999872
 20
-196.3787299999999902
 10
131.045029999999997
 20
-195.8500799999999913
 10
125.4458899999999915
 20
-186.1524799999999971
  0
ENDBLK
  5
EA
100
AcDbEntity
  8
0
100
AcDbBlockEnd
  0
ENDSEC
  0
SECTION
  2
ENTITIES
  0
LWPOLYLINE
  5
EB
100
AcDbEntity
  8
VectorEngraving
 62
5
420
255
370
-1
 48
1.0
  6
BYLAYER
100
AcDbPolyline
 90
20
 70
128
 10
16.127601456499999
 20
9.8055049324999999
 10
16.127601456499999
 20
9.3861113745000004
 10
15.6268446304999991
 20
9.3861113745000004
 10
15.6268446304999991
 20
8.5472725039999986
 10
16.127601456499999
 20
8.5472725039999986
 10
16.127601456499999
 20
6.0634150225000001
 10
15.6268446304999991
 20
6.0634150225000001
 10
15.6268446304999991
 20
5.2246280125000002
 10
16.127601456499999
 20
5.2246280125000002
 10
16.127601456499999
 20
4.8060106925000001
 10
16.127601456499999
 20
2.7944950674999998
 10
18.4646219874999993
 20
2.7944950674999998
 10
18.4646219874999993
 20
4.8060106925000001
 10
19.0083895324999972
 20
4.8060106925000001
 10
19.7405037074999967
 20
2.7944950674999998
 10
22.0775243974999995
 20
2.7944950674999998
 10
21.0622431474999985
 20
5.5840342625000003
 42
0.1923579134144613
 10
21.752019332499998
 20
7.3057578655002393
 42
0.4142131276425501
 10
19.2522724775669829
 20
9.8055049324999999
 10
16.127601456499999
 20
9.8055049324999999
  0
LWPOLYLINE
  5
EC
100
AcDbEntity
  8
VectorEngraving
 62
5
420
255
370
-1
 48
1.0
  6
BYLAYER
100
AcDbPolyline
 90
6
 70
128
 10
18.4646219874999993
 20
8.1282930085000018
 10
19.0426532374999979
 20
8.1282930085000018
 42
-0.4142108826965076
 10
19.8651366524999986
 20
7.3057578654997135
 42
-0.4141924816972828
 10
19.0426532374999979
 20
6.4832743975000007
 10
18.4646219874999993
 20
6.4832743974999998
 10
18.4646219874999993
 20
8.1282930085000018
  0
LWPOLYLINE
  5
ED
100
AcDbEntity
  8
VectorEngraving
 62
5
420
255
370
-1
 48
1.0
  6
BYLAYER
100
AcDbPolyline
 90
5
 70
128
 10
22.1370974574999977
 20
9.8055049324999999
 10
24.688913102499999
 20
2.7944950674999998
 10
27.0258818524999995
 20
2.7944950674999998
 10
24.4741181475000005
 20
9.8055049324999999
 10
22.1370974574999977
 20
9.8055049324999999
  0
LWPOLYLINE
  5
EE
100
AcDbEntity
  8
VectorEngraving
 62
5
420
255
370
-1
 48
1.0
  6
BYLAYER
100
AcDbPolyline
 90
8
 70
128
 10
27.2406765424999975
 20
9.8055049324999999
 10
29.7924921874999953
 20
2.7944950674999998
 10
32.129512612500001
 20
2.7944950674999998
 10
34.6813279925000018
 20
9.8055049324999999
 10
32.3443075675000031
 20
9.8055049324999999
 10
30.9609765625000009
 20
6.0049287275000003
 10
29.5776972325000003
 20
9.8055049324999999
 10
27.2406765424999975
 20
9.8055049324999999
  0
LINE
  5
EF
100
AcDbEntity
  8
VectorEngraving
 62
5
420
255
370
-1
 48
1.0
  6
BYLAYER
100
AcDbLine
 10
25.8573974775000011
 20
6.0049287275000012
 30
0.0
 11
27.2406765424999975
 21
9.8055049324999999
 31
0.0
  0
LINE
  5
F0
100
AcDbEntity
  8
VectorEngraving
 62
5
420
255
370
-1
 48
1.0
  6
BYLAYER
100
AcDbLine
 10
28.4091996787320582
 20
6.5950350650328815
 30
0.0
 11
27.0258818546243056
 21
2.7944950653934648
 31
0.0
  0
LINE
  5
F1
100
AcDbEntity
  8
Cuts
 62
1
420
16711680
370
-1
 48
1.0
  6
BYLAYER
100
AcDbLine
 10
0.0
 20
0.0
 30
0.0
 11
50.5
 21
0.0
 31
0.0
  0
LINE
  5
F2
100
AcDbEntity
  8
Cuts
 62
1
420
16711680
370
-1
 48
1.0
  6
BYLAYER
100
AcDbLine
 10
50.5
 20
0.0
 30
0.0
 11
50.5
 21
128.5
 31
0.0
  0
LINE
  5
F3
100
AcDbEntity
  8
Cuts
 62
1
420
16711680
370
-1
 48
1.0
  6
BYLAYER
100
AcDbLine
 10
50.5
 20
128.5
 30
0.0
 11
0.0
 21
128.5
 31
0.0
  0
LINE
  5
F4
100
AcDbEntity
  8
Cuts
 62
1
420
16711680
370
-1
 48
1.0
  6
BYLAYER
100
AcDbLine
 10
0.0
 20
128.5
 30
0.0
 11
0.0
 21
0.0
 31
0.0
  0
DIMENSION
  5
F5
100
AcDbEntity
  8
UserDrawings
 62
256
370
-1
 48
1.0
  6
BYLAYER
100
AcDbDimension
 10
-10.0
 20
0.0
 30
0.0
 11
-11.875
 21
64.25
 31
0.0
 70
0
 71
8
 72
2
 74
0
 75
0
 41
1.0
 42
0.0
  1

  3
Standard
100
AcDbAlignedDimension
 13
-0.0
 23
-0.0
 33
0.0
 14
0.0
 24
128.5
 34
0.0
 50
90.0
100
AcDbRotatedDimension
1001
ACAD
1000
DSTYLE
1002
{
1070
144
1040
1.0
1070
40
1040
1.0
1002
}
  0
DIMENSION
  5
F6
100
AcDbEntity
  8
UserDrawings
 62
256
370
-1
 48
1.0
  6
BYLAYER
100
AcDbDimension
 10
0.0
 20
136.7913298366080426
 30
0.0
 11
25.2500000000000036
 21
138.6663298366080426
 31
0.0
 70
0
 71
8
 72
2
 74
0
 75
0
 41
1.0
 42
0.0
  1

  3
Standard
100
AcDbAlignedDimension
 13
0.0
 23
128.5
 33
0.0
 14
50.5000000000000071
 24
128.5
 34
0.0
 50
0.0
100
AcDbRotatedDimension
1001
ACAD
1000
DSTYLE
1002
{
1070
144
1040
1.0
1070
40
1040
1.0
1002
}
  0
LINE
  5
F7
100
AcDbEntity
  8
Cuts
 62
1
420
16711680
370
-1
 48
1.0
  6
BYLAYER
100
AcDbLine
 10
6.5000000000000107
 20
127.1000000000000369
 30
0.0
 11
8.5000000000000107
 21
127.1000000000000369
 31
0.0
  0
LINE
  5
F8
100
AcDbEntity
  8
Cuts
 62
1
420
16711680
370
-1
 48
1.0
  6
BYLAYER
100
AcDbLine
 10
42.0000000000000142
 20
127.1000000000000512
 30
0.0
 11
44.0000000000000142
 21
127.1000000000000512
 31
0.0
  0
LINE
  5
F9
100
AcDbEntity
  8
Cuts
 62
1
420
16711680
370
-1
 48
1.0
  6
BYLAYER
100
AcDbLine
 10
6.5000000000000107
 20
4.6000000000000227
 30
0.0
 11
8.5000000000000107
 21
4.6000000000000227
 31
0.0
  0
LINE
  5
FA
100
AcDbEntity
  8
Cuts
 62
1
420
16711680
370
-1
 48
1.0
  6
BYLAYER
100
AcDbLine
 10
42.0000000000000142
 20
4.6000000000000227
 30
0.0
 11
44.0000000000000142
 21
4.6000000000000227
 31
0.0
  0
LINE
  5
FB
100
AcDbEntity
  8
Cuts
 62
1
420
16711680
370
-1
 48
1.0
  6
BYLAYER
100
AcDbLine
 10
6.5000000000000107
 20
123.9000000000000341
 30
0.0
 11
8.5000000000000107
 21
123.9000000000000341
 31
0.0
  0
LINE
  5
FC
100
AcDbEntity
  8
Cuts
 62
1
420
16711680
370
-1
 48
1.0
  6
BYLAYER
100
AcDbLine
 10
42.0000000000000142
 20
123.9000000000000483
 30
0.0
 11
44.0000000000000142
 21
123.9000000000000483
 31
0.0
  0
LINE
  5
FD
100
AcDbEntity
  8
Cuts
 62
1
420
16711680
370
-1
 48
1.0
  6
BYLAYER
100
AcDbLine
 10
6.5000000000000107
 20
1.4000000000000203
 30
0.0
 11
8.5000000000000107
 21
1.4000000000000203
 31
0.0
  0
LINE
  5
FE
100
AcDbEntity
  8
Cuts
 62
1
420
16711680
370
-1
 48
1.0
  6
BYLAYER
100
AcDbLine
 10
42.0000000000000142
 20
1.4000000000000208
 30
0.0
 11
44.0000000000000142
 21
1.4000000000000208
 31
0.0
  0
ARC
  5
FF
100
AcDbEntity
  8
Cuts
 62
1
420
16711680
370
-1
 48
1.0
  6
BYLAYER
100
AcDbCircle
 10
8.5000000000000107
 20
125.5000000000000426
 30
0.0
 40
1.6000000000000085
100
AcDbArc
 50
270.0
 51
90.0
  0
ARC
  5
100
100
AcDbEntity
  8
Cuts
 62
1
420
16711680
370
-1
 48
1.0
  6
BYLAYER
100
AcDbCircle
 10
44.0000000000000142
 20
125.5000000000000568
 30
0.0
 40
1.6000000000000085
100
AcDbArc
 50
270.0
 51
90.0
  0
ARC
  5
101
100
AcDbEntity
  8
Cuts
 62
1
420
16711680
370
-1
 48
1.0
  6
BYLAYER
100
AcDbCircle
 10
8.5000000000000107
 20
3.0000000000000289
 30
0.0
 40
1.6000000000000085
100
AcDbArc
 50
270.0
 51
90.0
  0
ARC
  5
102
100
AcDbEntity
  8
Cuts
 62
1
420
16711680
370
-1
 48
1.0
  6
BYLAYER
100
AcDbCircle
 10
44.0000000000000142
 20
3.0000000000000293
 30
0.0
 40
1.6000000000000085
100
AcDbArc
 50
270.0
 51
90.0
  0
ARC
  5
103
100
AcDbEntity
  8
Cuts
 62
1
420
16711680
370
-1
 48
1.0
  6
BYLAYER
100
AcDbCircle
 10
6.5000000000000107
 20
125.5000000000000426
 30
0.0
 40
1.6000000000000085
100
AcDbArc
 50
90.0
 51
270.0
  0
ARC
  5
104
100
AcDbEntity
  8
Cuts
 62
1
420
16711680
370
-1
 48
1.0
  6
BYLAYER
100
AcDbCircle
 10
42.0000000000000142
 20
125.5000000000000568
 30
0.0
 40
1.6000000000000085
100
AcDbArc
 50
90.0
 51
270.0
  0
ARC
  5
105
100
AcDbEntity
  8
Cuts
 62
1
420
16711680
370
-1
 48
1.0
  6
BYLAYER
100
AcDbCircle
 10
6.5000000000000107
 20
3.0000000000000289
 30
0.0
 40
1.6000000000000085
100
AcDbArc
 50
90.0
 51
270.0
  0
ARC
  5
106
100
AcDbEntity
  8
Cuts
 62
1
420
16711680
370
-1
 48
1.0
  6
BYLAYER
100
AcDbCircle
 10
42.0000000000000142
 20
3.0000000000000293
 30
0.0
 40
1.6000000000000085
100
AcDbArc
 50
90.0
 51
270.0
  0
CIRCLE
  5
107
100
AcDbEntity
  8
Cuts
 62
256
370
-1
 48
1.0
  6
BYLAYER
100
AcDbCircle
 10
12.25
 20
25.0
 30
0.0
 40
3.2000000000000002
  0
CIRCLE
  5
108
100
AcDbEntity
  8
Cuts
 62
256
370
-1
 48
1.0
  6
BYLAYER
100
AcDbCircle
 10
25.25
 20
25.0
 30
0.0
 40
3.2000000000000002
  0
CIRCLE
  5
109
100
AcDbEntity
  8
Cuts
 62
256
370
-1
 48
1.0
  6
BYLAYER
100
AcDbCircle
 10
14.25
 20
98.0
 30
0.0
 40
3.2000000000000002
  0
CIRCLE
  5
10A
100
AcDbEntity
  8
Cuts
 62
256
370
-1
 48
1.0
  6
BYLAYER
100
AcDbCircle
 10
25.25
 20
98.0
 30
0.0
 40
3.2000000000000002
  0
CIRCLE
  5
10B
100
AcDbEntity
  8
Cuts
 62
256
370
-1
 48
1.0
  6
BYLAYER
100
AcDbCircle
 10
36.25
 20
98.0
 30
0.0
 40
3.2000000000000002
  0
CIRCLE
  5
10C
100
AcDbEntity
  8
Cuts
 62
1
420
16711680
370
-1
 48
1.0
  6
BYLAYER
100
AcDbCircle
 10
25.25
 20
85.0
 30
0.0
 40
3.2000000000000002
  0
CIRCLE
  5
10D
100
AcDbEntity
  8
Cuts
 62
1
420
16711680
370
-1
 48
1.0
  6
BYLAYER
100
AcDbCircle
 10
38.25
 20
25.0
 30
0.0
 40
3.2000000000000002
  0
INSERT
  5
10E
100
AcDbEntity
  8
Cuts
 62
3
420
65280
370
-1
 48
1.0
  6
BYLAYER
100
AcDbBlockReference
  2
block 7
 10
38.25
 20
25.0
 30
0.0
  0
INSERT
  5
10F
100
AcDbEntity
  8
Cuts
 62
3
420
65280
370
-1
 48
1.0
  6
BYLAYER
100
AcDbBlockReference
  2
block 7
 10
25.25
 20
85.0
 30
0.0
  0
LWPOLYLINE
  5
110
100
AcDbEntity
  8
VectorEngraving
 62
256
370
-1
 48
1.0
  6
BYLAYER
100
AcDbPolyline
 90
268
 70
129
 10
9.2360876897133224
 20
118.0161139216788513
 10
9.2360876897133224
 20
121.9906314408843997
 10
10.4929735806632944
 20
121.9906314408843997
 10
10.4986473342240796
 20
121.9906265747687968
 10
10.504309216978756
 20
121.9906119764219881
 10
10.5099592289273289
 20
121.9905876458439451
 10
10.5155973700697967
 20
121.9905535830347105
 10
10.5212236404061574
 20
121.9905097879942844
 10
10.5268380399364094
 20
121.9904562607226239
 10
10.5324405686605616
 20
121.9903930012197435
 10
10.5380312265786014
 20
121.9903200094856714
 10
10.5436100136905395
 20
121.9902372855203794
 10
10.5491769299963689
 20
121.9901448293238815
 10
10.5547319754960931
 20
121.9900426408962062
 10
10.5602751501897139
 20
121.9899307202372682
 10
10.5658064540772259
 20
121.9898090673471387
 10
10.5713258871586326
 20
121.9896776822258033
 10
10.5768334494339342
 20
121.9895365648732621
 10
10.5823291409031306
 20
121.9893857152895009
 10
10.5878129615662164
 20
121.9892251334745197
 10
10.5932849114232024
 20
121.9890548194283468
 10
10.5987449904740796
 20
121.9888747731509682
 10
10.6041931987188498
 20
121.9886849946423553
 10
10.6096295361575148
 20
121.9884854839025365
 10
10.6150540027900764
 20
121.9882762409315404
 10
10.620466598616531
 20
121.9880572657293101
 10
10.6258673236368733
 20
121.9878285582958739
 10
10.6312561778511157
 20
121.9875901186312035
 10
10.6366331612592528
 20
121.9873419467353699
 10
10.6419982738612831
 20
121.9870840426082879
 10
10.6473515156572045
 20
121.9868164062500142
 10
10.6526928866470207
 20
121.9865390376605205
 10
10.6580223868307318
 20
121.9862519368398068
 10
10.6633400162083412
 20
121.9859551037879015
 10
10.6686457747798382
 20
121.9856485385047904
 10
10.6739396625452319
 20
121.9853322409904592
 10
10.6792216795045221
 20
121.9850062112448938
 10
10.6844918256577053
 20
121.9846704492681511
 10
10.689750101004778
 20
121.9843249550602025
 10
10.694996505545749
 20
121.9839697286210196
 10
10.7002310392806113
 20
121.9836047699506594
 10
10.7054537022093683
 20
121.9832300790490507
 10
10.7106644943320219
 20
121.9828456559162504
 10
10.7158634156485668
 20
121.9824515005522443
 10
10.7210504661590083
 20
121.9820476129570181
 10
10.7262256458633427
 20
121.981633993130572
 10
10.731388954761572
 20
121.9812106410729484
 10
10.7365403928536924
 20
121.9807775567840764
 10
10.7416799601397077
 20
121.980334740264027
 10
10.7468076566196196
 20
121.9798821915127576
 10
10.7519234822934227
 20
121.9794199105302539
 10
10.7570274371611205
 20
121.9789478973165728
 10
10.762119521222715
 20
121.9784661518716575
 10
10.7671997344782007
 20
121.9779746741955506
 10
10.7722680769275811
 20
121.9774734642882095
 10
10.7773245485708564
 20
121.9769625221496909
 10
10.7823691494080229
 20
121.9764418477799524
 10
10.7874018794390878
 20
121.9759114411789938
 10
10.7924227386640439
 20
121.9753713023468435
 10
10.7974317270828948
 20
121.9748214312834591
 10
10.8024288446956387
 20
121.9742618279888688
 10
10.8074140915022774
 20
121.9736924924630728
 10
10.8123874675028127
 20
121.9731134247060709
 10
10.8173489726972374
 20
121.972524624717849
 10
10.8222986070855569
 20
121.9719260924984212
 10
10.827236370667773
 20
121.9713178280478019
 10
10.8321622634438803
 20
121.9706998313659483
 10
10.837076285413886
 20
121.9700721024528889
 10
10.8419784365777829
 20
121.9694346413086237
 10
10.8468687169355746
 20
121.9687874479331384
 10
10.8517471264872594
 20
121.9681305223264474
 10
10.8566136652328389
 20
121.9674638644885647
 10
10.8614683331723114
 20
121.9667874744194478
 10
10.8663111303056787
 20
121.9661013521191251
 10
10.8711420566329409
 20
121.9654054975875965
 10
10.8759611121540942
 20
121.9646999108248622
 10
10.8807682968691459
 20
121.963984591830922
 10
10.8855636107780889
 20
121.9632595406057476
 10
10.8903470538809266
 20
121.9625247571493958
 10
10.8951186261776574
 20
121.9617802414618097
 10
10.8998783276682829
 20
121.9610259935430179
 10
10.9046261583528032
 20
121.9602620133930202
 10
10.9093621182312166
 20
121.9594883010118025
 10
10.9140862073035247
 20
121.9587048563993932
 10
10.9187984255697241
 20
121.9579116795557638
 10
10.9234987730298219
 20
121.9571087704809287
 10
10.9281872496838126
 20
121.9562961291748877
 10
10.9328638555316946
 20
121.9554737556376125
 10
10.9375285905734714
 20
121.9546416498691599
 10
10.9421814548091447
 20
121.9537998118694588
 10
10.9468224482387111
 20
121.9529482416385662
 10
10.9514515708621705
 20
121.9520869391764677
 10
10.9560688226795246
 20
121.9512159044831492
 10
10.9606742036907718
 20
121.9503351375586391
 10
10.9652677138959156
 20
121.9494446384029089
 10
10.9698493532949506
 20
121.9485444070159588
 10
10.9744191218878822
 20
121.947634443397817
 10
10.978977019674705
 20
121.946714747548441
 10
10.9835230466554243
 20
121.9457853194678876
 10
10.9880572028300367
 20
121.9448461591560857
 10
10.9925794881985439
 20
121.9438972666130923
 10
10.9970899027609441
 20
121.9429386418389072
 10
11.0015884465172391
 20
121.9419702848334737
 10
11.0060751194674271
 20
121.9409921955968628
 10
11.0105499216115099
 20
121.9400043741290176
 10
11.0150128529494857
 20
121.9390068204299666
 10
11.0194639134813563
 20
121.9379995344997099
 10
11.0239031032071217
 20
121.9369825163382757
 10
11.0283304221267802
 20
121.9359557659455788
 10
11.0327458702403334
 20
121.9349192833217046
 10
11.0371494475477796
 20
121.9338730684666245
 10
11.0415411540491206
 20
121.9328171213803103
 10
11.0459209897443564
 20
121.9317514420627901
 10
11.0502889546334853
 20
121.9306760305140642
 10
11.0546450487165071
 20
121.9295908867341325
 10
11.0589892719934255
 20
121.9284960107229807
 10
11.0633216244642352
 20
121.9273914024806231
 10
11.0676421061289414
 20
121.9262770620070455
 10
11.0719507169875406
 20
121.9251529893022621
 10
11.0762474570400347
 20
121.9240191843663013
 10
11.0805323262864199
 20
121.9228756471991062
 10
11.0848053247267018
 20
121.9217223778007053
 10
11.0890664523608784
 20
121.9205593761710986
 10
11.0933157091889463
 20
121.9193866423102577
 10
11.0975530952109089
 20
121.9182041762182109
 10
11.1017786104267664
 20
121.9170119778949584
 10
11.1059922548365186
 20
121.9158100473405
 10
11.1101940284401657
 20
121.9145983845548358
 10
11.114383931237704
 20
121.9133769895379658
 10
11.118561963229137
 20
121.9121458622898615
 10
11.1227281244144649
 20
121.9109050028105798
 10
11.1268824147936876
 20
121.909654411100064
 10
11.1310248343668032
 20
121.9083940871583422
 10
11.1351553831338119
 20
121.9071240309854147
 10
11.1392740610947154
 20
121.9058442425812672
 10
11.1433808682495155
 20
121.904554721945928
 10
11.147475804598205
 20
121.9032554690793688
 10
11.1515588701407928
 20
121.901946483981618
 10
11.1556300648772719
 20
121.9006277666526046
 10
11.1596893888076458
 20
121.8992993170924422
 10
11.1637368419319145
 20
121.8979611353010455
 10
11.1677724242500762
 20
121.8966132212784146
 10
11.1717961357621327
 20
121.8952555750245921
 10
11.1758079764680822
 20
121.8938881965395638
 10
11.1798079463679247
 20
121.8925110858233154
 10
11.1837960454616656
 20
121.8911242428758896
 10
11.1877722737492959
 20
121.8897276676972297
 10
11.1917366312308246
 20
121.8883213602873354
 10
11.1956891179062445
 20
121.8869053206462638
 10
11.1996297337755593
 20
121.885479548773958
 10
11.2035584788387688
 20
121.8840440446704747
 10
11.2074753530958695
 20
121.8825988083357572
 10
11.211380356546865
 20
121.8811438397698339
 10
11.2152734891917572
 20
121.8796791389727048
 10
11.2191547510305405
 20
121.8782047059443556
 10
11.2230241420632204
 20
121.8767205406848007
 10
11.2268816622897951
 20
121.8752266431940541
 10
11.2307273117102611
 20
121.8737230134721017
 10
11.2345610903246218
 20
121.8722096515189008
 10
11.2383829981328773
 20
121.8706865573344942
 10
11.2421930351350241
 20
121.8691537309188817
 10
11.2459912013310674
 20
121.8676111722720634
 10
11.2497774967210038
 20
121.8660588813940535
 10
11.2535519213048367
 20
121.8644968582848094
 10
11.2573144750825591
 20
121.8629251029443594
 10
11.2610651580541798
 20
121.8613436153727179
 10
11.2648039702196918
 20
121.8597523955698705
 10
11.2685309115790986
 20
121.8581514435357889
 10
11.2722459821324019
 20
121.8565407592704872
 10
11.2759491818795965
 20
121.854920342773994
 10
11.2796405108206876
 20
121.8532901940462807
 10
11.2833199689556682
 20
121.8516503130873758
 10
11.2869875562845472
 20
121.8500006998972509
 10
11.2906432728073192
 20
121.848341354475906
 10
11.2942871185239824
 20
121.8466722768233694
 10
11.2979190934345421
 20
121.8449934669395986
 10
11.3015391975389967
 20
121.8433049248246505
 10
11.3051474308373443
 20
121.8416066504784681
 10
11.3087437933295849
 20
121.8398986439010798
 10
11.3123282850157221
 20
121.8381809050924858
 10
11.3159009058957523
 20
121.8364534340526717
 10
11.3194616559696772
 20
121.8347162307816518
 10
11.3230105352374935
 20
121.8329692952794403
 10
11.3265475436992062
 20
121.8312126275459661
 10
11.330072681354812
 20
121.829446227581343
 10
11.3335859482043091
 20
121.8276700953854856
 10
11.3370873442477045
 20
121.8258842309584082
 10
11.3405768694849929
 20
121.8240886343001392
 10
11.3440545239161743
 20
121.8222833054106502
 10
11.3475203075412523
 20
121.8204682442899696
 10
11.3509742203602215
 20
121.8186434509380405
 10
11.3544162623730855
 20
121.8168089253549198
 10
11.3578464335798444
 20
121.8149646675405933
 10
11.3612647339804962
 20
121.8131106774950467
 10
11.3646711635750428
 20
121.8112469552182944
 10
11.3680657223634825
 20
121.8093735007103362
 10
11.3714484103458169
 20
121.8074903139711722
 10
11.3748192275220461
 20
121.805597395000774
 10
11.3781781738921648
 20
121.8036947437991984
 10
11.3815252494561836
 20
121.8017823603663885
 10
11.3848604542140954
 20
121.7998602447023728
 10
11.3881837881659003
 20
121.7979283968071655
 10
11.3914952513115981
 20
121.795986816680724
 10
11.3947948436511908
 20
121.7940355043230909
 10
11.39808256518468
 20
121.7920744597342377
 10
11.4013584159120587
 20
121.7901036829141646
 10
11.4046223958333321
 20
121.7881231738628998
 10
11.4078745049485022
 20
121.7861329325804149
 10
11.4111147432575653
 20
121.7841329590667101
 10
11.4143431107605213
 20
121.7821232533218136
 10
11.417559607457374
 20
121.7801038153456972
 10
11.4207642333481196
 20
121.7780746451383891
 10
11.4239569884327583
 20
121.776035742699861
 10
11.42713787271129
 20
121.7739871080301128
 10
11.4303068861837165
 20
121.7719287411291447
 10
11.4334640288500378
 20
121.7698606419969849
 10
11.4366093007102521
 20
121.7677828106336335
 10
11.4397427017643647
 20
121.7656952470390195
 10
11.4428642320123668
 20
121.763597951213228
 10
11.4459738914542637
 20
121.7614909231562308
 10
11.4490716800900572
 20
121.7593741628680277
 10
11.4521575979197419
 20
121.7572476703485904
 10
11.4552316449433214
 20
121.7551114455979757
 10
11.4582938211607939
 20
121.7529654886161126
 10
11.4613441265721612
 20
121.7508097994030578
 10
11.4643825611774233
 20
121.7486443779587972
 10
11.4674091249765784
 20
121.7464692242833166
 10
11.4704238179696301
 20
121.7442843383766302
 10
11.473426640156573
 20
121.7420897202387096
 10
11.4764175915374089
 20
121.7398853698696399
 10
11.4793966721121432
 20
121.7376712872693076
 10
11.4823638818807687
 20
121.7354474724377837
 10
11.4853192208432873
 20
121.733213925375054
 10
11.4882626889997024
 20
121.7309706460811043
 10
11.4911942863500105
 20
121.7287176345559487
 10
11.4941140128942116
 20
121.7264548907995731
 10
11.4970218686323076
 20
121.7241824148119917
 10
11.4999178535642983
 20
121.7219002065932045
 10
11.5028019676901838
 20
121.7196082661432115
 10
11.5056742110099606
 20
121.7173065934620126
 10
11.5085345835236339
 20
121.7149951885495938
 10
11.5113830852311985
 20
121.7126740514059691
 10
11.5142197161326578
 20
121.7103431820311101
 10
11.517044476228012
 20
121.7080025804250738
 10
11.5198573655172627
 20
121.7056522465878032
 10
11.5226583840004047
 20
121.7032921805193411
 10
11.5254475316774414
 20
121.7009223822196589
 10
11.5282248085483694
 20
121.6985428516887708
 10
11.5309902146131957
 20
121.6961535889266628
 10
11.5337437498719151
 20
121.6937545939333631
 10
11.5364854143245292
 20
121.6913458667088435
 10
11.5392152079710328
 20
121.6889274072530895
 10
11.541933130811433
 20
121.6864992155661866
 10
11.5446391828457298
 20
121.6840612916480069
 10
11.5473333640739177
 20
121.6816136354986355
 10
11.5500156744960005
 20
121.6791562471180725
 10
11.5526861141119799
 20
121.6766891265062895
 10
11.5553446829218487
 20
121.6742122736633007
 10
11.5579913809256141
 20
121.6717256885891061
 42
-0.2148899109718801
 10
11.8960089938167517
 20
120.8229342327150135
 42
-0.1001913794401138
 10
11.8038223721191695
 20
120.3859846355630623
 42
-0.0965402896310536
 10
11.5422522016113938
 20
119.9936293798013907
 42
-0.1106023788063924
 10
11.1502716882143531
 20
119.7384298294922331
 10
12.0046842795578037
 20
118.0161139216788513
 10
11.2454562488289316
 20
118.0161139216788513
 10
10.4420086190743877
 20
119.6687277496721009
 10
9.9630878770845044
 20
119.6687277496721009
 10
9.9630878770845044
 20
118.0161139216788513
  0
LWPOLYLINE
  5
111
100
AcDbEntity
  8
VectorEngraving
 62
256
370
-1
 48
1.0
  6
BYLAYER
100
AcDbPolyline
 90
7
 70
129
 10
9.9630878770845044
 20
120.2683155330710179
 10
10.543938542252203
 20
120.2683155330710179
 42
0.1918312228860108
 10
11.0029979389169945
 20
120.4118418587221413
 42
0.2154606779080996
 10
11.1562675660483421
 20
120.8041971144837987
 42
0.195509870772942
 10
11.0029979389169945
 20
121.1995503091624613
 42
0.2146607426727112
 10
10.543938542252203
 20
121.3655611766910312
 10
9.9630878770845044
 20
121.3655611766910312
  0
LWPOLYLINE
  5
112
100
AcDbEntity
  8
VectorEngraving
 62
256
370
-1
 48
1.0
  6
BYLAYER
100
AcDbPolyline
 90
13
 70
129
 10
12.7249391043657489
 20
118.0161139216788513
 10
12.2017987633501974
 20
121.9906314408843997
 10
12.8268690275435642
 20
121.9906314408843997
 10
13.0951845606145785
 20
119.4963462619449217
 10
13.6055836612329024
 20
121.6780963087877154
 10
13.98782087314971
 20
121.6780963087877154
 10
14.498219973768034
 20
119.5023421397789036
 10
14.7088251826869048
 20
121.9906314408843997
 10
15.2956717256885888
 20
121.9906314408843997
 10
14.7792767472362758
 20
118.0161139216788513
 10
14.3265879707700954
 20
118.0161139216788513
 10
13.7644744238336152
 20
120.4661795015926629
 10
13.1903691212291569
 20
118.0161139216788513
  0
LWPOLYLINE
  5
113
100
AcDbEntity
  8
VectorEngraving
 62
256
370
-1
 48
1.0
  6
BYLAYER
100
AcDbPolyline
 90
12
 70
129
 10
18.8414839797639146
 20
118.0161139216788513
 10
18.8414839797639146
 20
121.9906314408843997
 10
21.4317032040472171
 20
121.9906314408843997
 10
21.4317032040472171
 20
121.4037848978827157
 10
19.5430016863406415
 20
121.4037848978827157
 10
19.5430016863406415
 20
120.3829866966460571
 10
21.0936855911560812
 20
120.3829866966460571
 10
21.0936855911560812
 20
119.7893947910811363
 10
19.5430016863406415
 20
119.7893947910811363
 10
19.5430016863406415
 20
118.6029604646805353
 10
21.4122166010867545
 20
118.6029604646805353
 10
21.4122166010867545
 20
118.0161139216788513
  0
LWPOLYLINE
  5
114
100
AcDbEntity
  8
VectorEngraving
 62
256
370
-1
 48
1.0
  6
BYLAYER
100
AcDbPolyline
 90
13
 70
129
 10
21.9091249765786031
 20
118.0161139216788513
 10
21.9091249765786031
 20
121.9906314408843997
 10
22.5409406033352084
 20
121.9906314408843997
 10
23.3129098744613081
 20
120.1656361251639566
 10
24.0848791455874078
 20
121.9966273187183816
 10
24.7166947723440131
 20
121.9966273187183816
 10
24.7166947723440131
 20
118.0161139216788513
 10
24.0908750234213969
 20
118.0161139216788513
 10
24.0908750234213969
 20
120.7914558740865658
 10
23.4658047592280319
 20
119.3299606520517244
 10
23.1150459059396667
 20
119.3299606520517244
 10
22.5281993629379826
 20
120.784710511523329
 10
22.5281993629379826
 20
118.0161139216788513
  0
LWPOLYLINE
  5
115
100
AcDbEntity
  8
VectorEngraving
 62
256
370
-1
 48
1.0
  6
BYLAYER
100
AcDbPolyline
 90
13
 70
129
 10
28.6702267191305964
 20
118.0161139216788513
 10
28.1470863781150449
 20
121.9906314408843997
 10
28.7721566423084134
 20
121.9906314408843997
 10
29.0404721753794277
 20
119.4963462619449217
 10
29.5508712759977534
 20
121.6780963087877154
 10
29.9331084879145592
 20
121.6780963087877154
 10
30.443507588532885
 20
119.5023421397789036
 10
30.6541127974517522
 20
121.9906314408843997
 10
31.2409593404534398
 20
121.9906314408843997
 10
30.7245643620011251
 20
118.0161139216788513
 10
30.2718755855349464
 20
118.0161139216788513
 10
29.7097620385984627
 20
120.4661795015926629
 10
29.1356567359940044
 20
118.0161139216788513
  0
LWPOLYLINE
  5
116
100
AcDbEntity
  8
VectorEngraving
 62
256
370
-1
 48
1.0
  6
BYLAYER
100
AcDbPolyline
 90
39
 70
129
 10
32.8163762413340834
 20
117.9456623571294784
 42
-0.0824589363782426
 10
32.0728873899194298
 20
118.0637062019861361
 42
-0.1239231858746554
 10
31.495784148397977
 20
118.42458309911936
 10
31.8465430016863422
 20
119.0174255199550402
 10
31.8720254824807938
 20
119.0683904815439433
 10
31.9297358066329409
 20
119.0369121229154956
 42
0.0468697015840603
 10
31.9645868465430034
 20
118.9379801386546802
 42
0.0914502355626731
 10
32.0631440884392021
 20
118.8195615514333952
 42
0.0681594634041956
 10
32.4172756230091821
 20
118.6220723252763776
 42
0.0950027158644843
 10
32.841858722128535
 20
118.5452501405283954
 42
0.1544690761801905
 10
33.3297732808694036
 20
118.6760352257822859
 42
0.2606540762175961
 10
33.5178939479108067
 20
119.0623946037099614
 42
0.120851274343738
 10
33.4605583661232941
 20
119.3014802323402677
 42
0.1219613454319458
 10
33.2342139778901995
 20
119.5278246205733552
 42
0.0382540592904298
 10
32.7331834363874847
 20
119.7961401536443731
 42
-0.0581074828848915
 10
32.0856286303166556
 20
120.1562675660483421
 42
-0.1200427752267849
 10
31.7446130785085252
 20
120.5519955030916321
 42
-0.1126833292539168
 10
31.6426831553307117
 20
121.0335394416338772
 42
-0.1592312928671784
 10
31.8053213415776668
 20
121.5566797826494394
 42
-0.1317713073948117
 10
32.2550121791268509
 20
121.9201798763350268
 42
-0.1105525077854789
 10
32.9123102866779078
 20
122.0543376428705358
 42
-0.2184592046670044
 10
34.1174817313097236
 20
121.5439385422522065
 10
33.6962713134719891
 20
121.059021922428343
 10
33.6580475922803117
 20
121.0148023234026624
 10
33.6070826306913943
 20
121.0530260445943469
 42
0.0525272950834555
 10
33.5849728311785611
 20
121.1515832864905491
 42
0.0946983163544341
 10
33.4991568296795919
 20
121.2756230091811886
 42
0.1239145974077866
 10
33.2405845980888159
 20
121.4292673786771672
 42
0.0674802657518838
 10
32.9183061645118968
 20
121.4674910998688517
 42
0.1710695699774063
 10
32.5034663668727717
 20
121.3460745737305615
 42
0.2395241755843518
 10
32.3501967397414276
 20
121.0657672849915798
 42
0.1315107380140955
 10
32.4079070638935747
 20
120.8356754731122464
 42
0.113695730183157
 10
32.640996814689899
 20
120.6190743863593866
 42
0.0383547771665051
 10
33.1798763350196708
 20
120.3447629754543868
 42
-0.0534254991441777
 10
33.8113172194116558
 20
119.9842608206857903
 42
-0.1275968227178107
 10
34.1335956529885749
 20
119.5982761851227281
 42
-0.1042366901074357
 10
34.226157017050781
 20
119.1073636874648685
 42
-0.1279801959423769
 10
34.0792580101180391
 20
118.5516207607270047
 42
-0.1467899336018187
 10
33.6198238710886272
 20
118.1146711635750535
 42
-0.1239665239214036
  0
LWPOLYLINE
  5
117
100
AcDbEntity
  8
VectorEngraving
 62
256
370
-1
 48
1.0
  6
BYLAYER
100
AcDbPolyline
 90
8
 70
129
 10
40.0361626381862479
 20
118.0161139216788513
 10
39.761851227281241
 20
118.9409780775716712
 10
38.7223159078133818
 20
118.9409780775716712
 10
38.4412591343451382
 20
118.0161139216788513
 10
37.727000187371182
 20
118.0161139216788513
 10
39.0730747611017435
 20
122.0161139216788513
 10
39.4178377365561161
 20
122.0161139216788513
 10
40.7639123102866776
 20
118.0161139216788513
  0
LWPOLYLINE
  5
118
100
AcDbEntity
  8
VectorEngraving
 62
256
370
-1
 48
1.0
  6
BYLAYER
100
AcDbPolyline
 90
3
 70
129
 10
39.2454562488289298
 20
120.6827805883455227
 10
38.8752107925801056
 20
119.4581225407532372
 10
39.6089563425145172
 20
119.4581225407532372
  0
LWPOLYLINE
  5
119
100
AcDbEntity
  8
VectorEngraving
 62
256
370
-1
 48
1.0
  6
BYLAYER
100
AcDbPolyline
 90
39
 70
129
 10
4.2301386546749109
 20
103.9728311785647605
 42
-0.0824589363782449
 10
3.858394228967585
 20
104.0318531009930894
 42
-0.1239231858746379
 10
3.5698426082068577
 20
104.2122915495596942
 10
3.7452220348510403
 20
104.5087127599775272
 10
3.757963275248267
 20
104.534195240771993
 10
3.7868184373243396
 20
104.5184560614577691
 42
0.0468697015840181
 10
3.8042439572793709
 20
104.4689900693273614
 42
0.0914502355627732
 10
3.8535225782274685
 20
104.4097807757167118
 42
0.0681594634041871
 10
4.0305883455124603
 20
104.311036162638203
 42
0.0950027158644167
 10
4.2428798950721376
 20
104.2726250702642119
 42
0.1544690761802262
 10
4.486837174442571
 20
104.3380176128911501
 42
0.2606540762175368
 10
4.5808975079632752
 20
104.5311973018549878
 42
0.1208512743437335
 10
4.5522297170695145
 20
104.6507401161701551
 42
0.121961345431861
 10
4.4390575229529698
 20
104.7639123102866989
 42
0.0382540592903407
 10
4.1885422522016116
 20
104.8980700768222079
 42
-0.0581074828849142
 10
3.8647648491661979
 20
105.0781337830241853
 42
-0.1200427752267837
 10
3.6942570732621327
 20
105.2759977515458303
 42
-0.1126833292539266
 10
3.6432921116732251
 20
105.5167697208169528
 42
-0.1592312928671333
 10
3.7246112047967026
 20
105.7783398913247339
 42
-0.1317713073948026
 10
3.9494566235712947
 20
105.9600899381675276
 42
-0.110552507785477
 10
4.278105677346824
 20
106.0271688214352821
 42
-0.2184592046670021
 10
4.8806913996627319
 20
105.7719692711261246
 10
4.6700861907438638
 20
105.5295109612141857
 10
4.6509743301480233
 20
105.5074011617013525
 10
4.6254918493535691
 20
105.5265130222971948
 42
0.052527295083626
 10
4.6144369495971524
 20
105.5757916432452816
 42
0.094698316354482
 10
4.5715289488476678
 20
105.6378115045906156
 42
0.1239145974075827
 10
4.4422428330522763
 20
105.7146336893385978
 42
0.0674802657518838
 10
4.2811036162638185
 20
105.7337455499344401
 42
0.1710695699775369
 10
4.0736837174442568
 20
105.673037286865295
 42
0.2395241755843813
 10
3.9970489038785839
 20
105.5328836424958041
 42
0.1315107380140717
 10
4.0259040659546566
 20
105.4178377365561374
 42
0.1136957301830736
 10
4.1424489413528196
 20
105.3095371931797075
 42
0.038354777166459
 10
4.4118887015177055
 20
105.1723814877272076
 42
-0.0534254991442214
 10
4.7276091437136971
 20
104.9921304103429094
 42
-0.1275968227177929
 10
4.8887483605021549
 20
104.7991380925613782
 42
-0.1042366901074433
 10
4.9350290425332588
 20
104.5536818437324484
 42
-0.1279801959423909
 10
4.8615795390668914
 20
104.2758103803635237
 42
-0.146789933601833
 10
4.6318624695521828
 20
104.0573355817875409
 42
-0.1239665239213515
  0
LWPOLYLINE
  5
11A
100
AcDbEntity
  8
VectorEngraving
 62
256
370
-1
 48
1.0
  6
BYLAYER
100
AcDbPolyline
 90
8
 70
129
 10
6.2455030916245082
 20
104.0080569608394399
 10
6.1083473861720066
 20
104.4704890387858569
 10
5.5885797264380734
 20
104.4704890387858569
 10
5.4480513397039534
 20
104.0080569608394399
 10
5.0909218662169762
 20
104.0080569608394399
 10
5.763959153082256
 20
106.0080569608394399
 10
5.9363406408094441
 20
106.0080569608394399
 10
6.6093779276747231
 20
104.0080569608394399
  0
LWPOLYLINE
  5
11B
100
AcDbEntity
  8
VectorEngraving
 62
256
370
-1
 48
1.0
  6
BYLAYER
100
AcDbPolyline
 90
3
 70
129
 10
5.8501498969458492
 20
105.3413902941727684
 10
5.6650271688214353
 20
104.7290612703766328
 10
6.0318999437886447
 20
104.7290612703766328
  0
LWPOLYLINE
  5
11C
100
AcDbEntity
  8
VectorEngraving
 62
256
370
-1
 48
1.0
  6
BYLAYER
100
AcDbPolyline
 90
13
 70
129
 10
6.9406501780026231
 20
104.0080569608394399
 10
6.6790800074948473
 20
105.995315720442207
 10
6.9916151395915307
 20
105.995315720442207
 10
7.1257729061270378
 20
104.7481731309724751
 10
7.3809724564362007
 20
105.8390481543938648
 10
7.5720910623946036
 20
105.8390481543938648
 10
7.8272906127037665
 20
104.751171069889466
 10
7.9325932171632001
 20
105.995315720442207
 10
8.2260164886640439
 20
105.995315720442207
 10
7.9678189994378865
 20
104.0080569608394399
 10
7.7414746112047963
 20
104.0080569608394399
 10
7.4604178377365562
 20
105.2330897507963385
 10
7.1733651864343262
 20
104.0080569608394399
  0
LWPOLYLINE
  5
11D
100
AcDbEntity
  8
VectorEngraving
 62
256
370
-1
 48
1.0
  6
BYLAYER
100
AcDbPolyline
 90
12
 70
129
 10
10.0596308787708448
 20
104.0080569608394399
 10
10.0596308787708448
 20
104.2984822934232909
 10
10.4486134532508892
 20
104.2984822934232909
 10
10.4486134532508892
 20
105.7048903878583701
 10
10.0817406782836798
 20
105.7048903878583701
 10
10.0817406782836798
 20
105.995315720442207
 10
11.1789863219036913
 20
105.995315720442207
 10
11.1789863219036913
 20
105.7048903878583701
 10
10.790003747423647
 20
105.7048903878583701
 10
10.790003747423647
 20
104.2984822934232909
 10
11.1951002435825373
 20
104.2984822934232909
 10
11.1951002435825373
 20
104.0080569608394399
  0
LWPOLYLINE
  5
11E
100
AcDbEntity
  8
VectorEngraving
 62
256
370
-1
 48
1.0
  6
BYLAYER
100
AcDbPolyline
 90
13
 70
129
 10
11.5488570357878952
 20
105.995315720442207
 10
11.9250983698707138
 20
105.995315720442207
 10
12.5981356567359946
 20
104.6874648679033299
 10
12.5790237961401541
 20
105.995315720442207
 10
12.9301573917931414
 20
105.995315720442207
 10
12.9301573917931414
 20
105.966460558366137
 42
0.1276856979477559
 10
12.9091718193741798
 20
105.9233651864343386
 42
0.0454369266293906
 10
12.9043001686340641
 20
105.8484167135094793
 10
12.9043001686340641
 20
104.0080569608394399
 10
12.5696552370245449
 20
104.0080569608394399
 10
11.8741334082818053
 20
105.4020985572419136
 10
11.8741334082818053
 20
104.0080569608394399
 10
11.5488570357878952
 20
104.0080569608394399
  0
LWPOLYLINE
  5
11F
100
AcDbEntity
  8
VectorEngraving
 62
256
370
-1
 48
1.0
  6
BYLAYER
100
AcDbPolyline
 90
12
 70
129
 10
16.6298013865467489
 20
105.0112422709387232
 10
16.6298013865467489
 20
105.3016676035225743
 10
17.018783961026795
 20
105.3016676035225743
 10
17.018783961026795
 20
106.7080756979576535
 10
16.6519111860595856
 20
106.7080756979576535
 10
16.6519111860595856
 20
106.9985010305414903
 10
17.7491568296795954
 20
106.9985010305414903
 10
17.7491568296795954
 20
106.7080756979576535
 10
17.3601742551995493
 20
106.7080756979576535
 10
17.3601742551995493
 20
105.3016676035225743
 10
17.7652707513584431
 20
105.3016676035225743
 10
17.7652707513584431
 20
105.0112422709387232
  0
LWPOLYLINE
  5
120
100
AcDbEntity
  8
VectorEngraving
 62
256
370
-1
 48
1.0
  6
BYLAYER
100
AcDbPolyline
 90
13
 70
129
 10
18.1190275435637993
 20
106.9985010305414903
 10
18.4952688776466161
 20
106.9985010305414903
 10
19.1683061645118968
 20
105.6906501780026133
 10
19.1491943039160581
 20
106.9985010305414903
 10
19.5003278995690472
 20
106.9985010305414903
 10
19.5003278995690472
 20
106.9696458684654203
 42
0.1276856979481063
 10
19.4793423271500856
 20
106.926550496533622
 42
0.0454369266293527
 10
19.4744706764099682
 20
106.8516020236087627
 10
19.4744706764099682
 20
105.0112422709387232
 10
19.1398257448004507
 20
105.0112422709387232
 10
18.4443039160577094
 20
106.4052838673411969
 10
18.4443039160577094
 20
105.0112422709387232
 10
18.1190275435637993
 20
105.0112422709387232
  0
LWPOLYLINE
  5
121
100
AcDbEntity
  8
VectorEngraving
 62
256
370
-1
 48
1.0
  6
BYLAYER
100
AcDbPolyline
 90
7
 70
129
 10
20.2846636687277488
 20
105.0048716507401139
 10
19.6464774217725306
 20
106.9985010305414903
 10
20.0039816376241326
 20
106.9985010305414903
 10
20.4218193741802523
 20
105.6014614952220256
 10
20.8108019486602949
 20
106.9985010305414903
 10
21.1585628630316656
 20
106.9985010305414903
 10
20.5267472362750603
 20
105.0048716507401139
  0
LWPOLYLINE
  5
122
100
AcDbEntity
  8
VectorEngraving
 62
256
370
-1
 48
1.0
  6
BYLAYER
100
AcDbPolyline
 90
39
 70
129
 10
23.5565392542626952
 20
104.9760164886640439
 42
-0.0824589363782411
 10
23.1847948285553684
 20
105.0350384110923727
 42
-0.1239231858747201
 10
22.8962432077946403
 20
105.2154768596589776
 10
23.0716226344388247
 20
105.5118980700768105
 10
23.0843638748360505
 20
105.5373805508712763
 10
23.113219036912124
 20
105.5216413715570525
 42
0.0468697015840177
 10
23.1306445568671535
 20
105.4721753794266306
 42
0.0914502355629499
 10
23.179923177815251
 20
105.4129660858159951
 42
0.0681594634041846
 10
23.3569889451002446
 20
105.3142214727374864
 42
0.0950027158645502
 10
23.569280494659921
 20
105.2758103803634953
 42
0.1544690761800868
 10
23.8132377740303554
 20
105.3412029229904334
 42
0.2606540762176148
 10
23.9072981075510569
 20
105.5343826119542712
 42
0.1208512743437553
 10
23.8786303166572971
 20
105.6539254262694385
 42
0.1219613454319031
 10
23.7654581225407533
 20
105.7670976203859823
 42
0.0382540592904269
 10
23.5149428517893959
 20
105.9012553869214912
 42
-0.0581074828848331
 10
23.1911654487539813
 20
106.0813190931234686
 42
-0.1200427752267837
 10
23.0206576728499144
 20
106.2791830616451136
 42
-0.1126833292539405
 10
22.9696927112610076
 20
106.5199550309162362
 42
-0.1592312928671513
 10
23.0510118043844869
 20
106.7815252014240173
 42
-0.1317713073948955
 10
23.275857223159079
 20
106.963275248266811
 42
-0.1105525077854768
 10
23.6045062769346075
 20
107.0303541315345655
 42
-0.218459204666999
 10
24.2070919992505154
 20
106.7751545812254079
 10
23.9964867903316481
 20
106.5326962713134691
 10
23.9773749297358059
 20
106.5105864718006359
 10
23.9518924489413507
 20
106.5296983323964639
 42
0.0525272950834535
 10
23.9408375491849341
 20
106.578976953344565
 42
0.0946983163544483
 10
23.8979295484354495
 20
106.640996814689899
 42
0.1239145974077158
 10
23.7686434326400615
 20
106.7178189994378812
 42
0.0674802657518798
 10
23.607504215851602
 20
106.7369308600337234
 42
0.1710695699774139
 10
23.4000843170320394
 20
106.6762225969645783
 42
0.2395241755844033
 10
23.3234495034663674
 20
106.5360689525950875
 42
0.1315107380141202
 10
23.3523046655424409
 20
106.4210230466554208
 42
0.1136957301831791
 10
23.468849540940603
 20
106.3127225032789909
 42
0.0383547771665473
 10
23.738289301105489
 20
106.175566797826491
 42
-0.0534254991441482
 10
24.0540097433014779
 20
105.9953157204421927
 42
-0.1275968227177719
 10
24.2151489600899374
 20
105.8023234026606616
 42
-0.1042366901074424
 10
24.2614296421210405
 20
105.5568671538317318
 42
-0.1279801959424067
 10
24.1879801386546731
 20
105.278995690462807
 42
-0.1467899336018283
 10
23.9582630691399672
 20
105.0605208918868243
 42
-0.123966523921418
  0
LWPOLYLINE
  5
123
100
AcDbEntity
  8
VectorEngraving
 62
256
370
-1
 48
1.0
  6
BYLAYER
100
AcDbPolyline
 90
8
 70
129
 10
25.5719036912122917
 20
105.0112422709387232
 10
25.4347479857597918
 20
105.4736743488851403
 10
24.9149803260258551
 20
105.4736743488851403
 10
24.7744519392917368
 20
105.0112422709387232
 10
24.4173224658047587
 20
105.0112422709387232
 10
25.0903597526700395
 20
107.0112422709387232
 10
25.2627412403972258
 20
107.0112422709387232
 10
25.9357785272625065
 20
105.0112422709387232
  0
LWPOLYLINE
  5
124
100
AcDbEntity
  8
VectorEngraving
 62
256
370
-1
 48
1.0
  6
BYLAYER
100
AcDbPolyline
 90
3
 70
129
 10
25.1765504965336326
 20
106.3445756042720518
 10
24.991427768409217
 20
105.7322465804759162
 10
25.3583005433764299
 20
105.7322465804759162
  0
LWPOLYLINE
  5
125
100
AcDbEntity
  8
VectorEngraving
 62
256
370
-1
 48
1.0
  6
BYLAYER
100
AcDbPolyline
 90
13
 70
129
 10
26.2670507775904056
 20
105.0112422709387232
 10
26.0054806070826316
 20
106.9985010305414903
 10
26.3180157391793159
 20
106.9985010305414903
 10
26.4521735057148213
 20
105.7513584410717584
 10
26.7073730560239824
 20
106.8422334644931482
 10
26.8984916619823871
 20
106.8422334644931482
 10
27.1536912122915481
 20
105.7543563799887494
 10
27.2589938167509835
 20
106.9985010305414903
 10
27.5524170882518291
 20
106.9985010305414903
 10
27.29421959902567
 20
105.0112422709387232
 10
27.0678752107925789
 20
105.0112422709387232
 10
26.7868184373243388
 20
106.2362750608956219
 10
26.4997657860221096
 20
105.0112422709387232
  0
LWPOLYLINE
  5
126
100
AcDbEntity
  8
VectorEngraving
 62
256
370
-1
 48
1.0
  6
BYLAYER
100
AcDbPolyline
 90
8
 70
129
 10
29.9665074011616994
 20
104.9730185497470529
 42
-0.25913038791105
 10
29.4115139591530834
 20
105.2409593404534291
 42
-0.1527047570207378
 10
29.2233932921116732
 20
106.0031853100992976
 42
-0.1520552001394028
 10
29.4115139591530834
 20
106.7558553494472449
 42
-0.2609893822229496
 10
29.9665074011616994
 20
107.0269814502529471
 42
-0.2598887638008017
 10
30.5168165636125153
 20
106.7558553494472449
 42
-0.1532357876440888
 10
30.7066235712947346
 20
106.0031853100992976
 42
-0.1538924925182062
 10
30.5168165636125153
 20
105.2409593404534291
 42
-0.2580459804199857
  0
LWPOLYLINE
  5
127
100
AcDbEntity
  8
VectorEngraving
 62
256
370
-1
 48
1.0
  6
BYLAYER
100
AcDbPolyline
 90
8
 70
129
 10
29.9665074011616994
 20
105.2664418212478665
 42
0.2924199676809898
 10
30.2471894322653156
 20
105.4498782087314908
 42
0.121432908341846
 10
30.3491193554431327
 20
106.006557991380916
 42
0.1202673064395584
 10
30.2471894322653156
 20
106.5437511710698857
 42
0.29660221249469
 10
29.9665074011616994
 20
106.7335581787521051
 42
0.2995688277753739
 10
29.6809537193179693
 20
106.5437511710698857
 42
0.1186384765761928
 10
29.5805227655986513
 20
106.006557991380916
 42
0.1197837217357388
 10
29.6809537193179693
 20
105.4498782087314908
 42
0.2952609534183155
  0
LWPOLYLINE
  5
128
100
AcDbEntity
  8
VectorEngraving
 62
256
370
-1
 48
1.0
  6
BYLAYER
100
AcDbPolyline
 90
17
 70
129
 10
31.5546655424395723
 20
104.9696458684654203
 42
-0.2187932598690465
 10
31.0489507213790503
 20
105.1643245268877536
 42
-0.1902783405959821
 10
30.8718849540940603
 20
105.7067640996814646
 10
30.8718849540940603
 20
106.9985010305414903
 10
31.2578695896571119
 20
106.9985010305414903
 10
31.2578695896571119
 20
106.9696458684654203
 42
0.1246165463763916
 10
31.2372587596027742
 20
106.926550496533622
 42
0.0454369266293474
 10
31.2323871088626568
 20
106.8516020236087627
 10
31.2323871088626568
 20
105.7033914183998462
 42
0.1333400107447925
 10
31.3026513022297159
 20
105.3811129848229342
 42
0.2785909262070428
 10
31.5576634813565668
 20
105.2630691399662624
 42
0.2726441709264258
 10
31.8162357129473463
 20
105.3811129848229342
 42
0.1376862884248654
 10
31.8896852164137172
 20
105.7131347198800739
 10
31.8896852164137172
 20
106.9985010305414903
 10
32.2404440697020789
 20
106.9985010305414903
 10
32.2404440697020789
 20
105.7161326587970649
 42
-0.2083302145650196
 10
32.049138092561364
 20
105.1515832864905349
 42
-0.1989968553204356
  0
LWPOLYLINE
  5
129
100
AcDbEntity
  8
VectorEngraving
 62
256
370
-1
 48
1.0
  6
BYLAYER
100
AcDbPolyline
 90
8
 70
129
 10
32.9610736368746515
 20
105.0112422709387232
 10
32.9610736368746515
 20
106.6953344575604206
 10
32.4251920554618707
 20
106.6953344575604206
 10
32.4251920554618707
 20
106.9985010305414903
 10
33.8701986134532476
 20
106.9985010305414903
 10
33.8701986134532476
 20
106.6953344575604206
 10
33.3054618699643967
 20
106.6953344575604206
 10
33.3054618699643967
 20
105.0112422709387232
  0
LWPOLYLINE
  5
12A
100
AcDbEntity
  8
VectorEngraving
 62
256
370
-1
 48
1.0
  6
BYLAYER
100
AcDbPolyline
 90
8
 70
129
 10
37.2797920179876243
 20
104.0129286115795537
 10
37.2797920179876243
 20
105.6970207982012511
 10
36.7439104365748506
 20
105.6970207982012511
 10
36.7439104365748506
 20
106.0001873711823208
 10
38.1889169945662275
 20
106.0001873711823208
 10
38.1889169945662275
 20
105.6970207982012511
 10
37.6241802510773766
 20
105.6970207982012511
 10
37.6241802510773766
 20
104.0129286115795537
  0
LWPOLYLINE
  5
12B
100
AcDbEntity
  8
VectorEngraving
 62
256
370
-1
 48
1.0
  6
BYLAYER
100
AcDbPolyline
 90
13
 70
129
 10
38.4085160202360782
 20
104.0129286115795537
 10
38.4085160202360782
 20
106.0001873711823208
 10
39.0369589657110652
 20
106.0001873711823208
 42
-0.1905232060051468
 10
39.5694678658422276
 20
105.8407344950346811
 42
-0.2148899109718604
 10
39.7384766722877956
 20
105.4163387670976419
 42
-0.100191379440112
 10
39.6923833614390063
 20
105.1978639685216592
 42
-0.096540289630985
 10
39.5615982761851157
 20
105.0016863406408305
 42
-0.1106023788063744
 10
39.3656080194865936
 20
104.8740865654862375
 10
39.7928143151583242
 20
104.0129286115795537
 10
39.4132002997938855
 20
104.0129286115795537
 10
39.0114764849166136
 20
104.8392355255761856
 10
38.7720161139216728
 20
104.8392355255761856
 10
38.7720161139216728
 20
104.0129286115795537
  0
LWPOLYLINE
  5
12C
100
AcDbEntity
  8
VectorEngraving
 62
256
370
-1
 48
1.0
  6
BYLAYER
100
AcDbPolyline
 90
7
 70
129
 10
38.7720161139216728
 20
105.139029417275637
 10
39.0624414465055168
 20
105.139029417275637
 42
0.1918312228860125
 10
39.2919711448379161
 20
105.2107925801011987
 42
0.215460677908025
 10
39.3686059584035917
 20
105.4069702079820274
 42
0.1955098707729566
 10
39.2919711448379161
 20
105.6046468053213516
 42
0.2146607426726384
 10
39.0624414465055168
 20
105.6876522390856366
 10
38.7720161139216728
 20
105.6876522390856366
  0
LWPOLYLINE
  5
12D
100
AcDbEntity
  8
VectorEngraving
 62
256
370
-1
 48
1.0
  6
BYLAYER
100
AcDbPolyline
 90
12
 70
129
 10
40.0828649053775479
 20
104.0129286115795537
 10
40.0828649053775479
 20
104.3033539441634048
 10
40.4718474798575869
 20
104.3033539441634048
 10
40.4718474798575869
 20
105.709762038598484
 10
40.1049747048903811
 20
105.709762038598484
 10
40.1049747048903811
 20
106.0001873711823208
 10
41.2022203485103944
 20
106.0001873711823208
 10
41.2022203485103944
 20
105.709762038598484
 10
40.8132377740303482
 20
105.709762038598484
 10
40.8132377740303482
 20
104.3033539441634048
 10
41.2183342701892386
 20
104.3033539441634048
 10
41.2183342701892386
 20
104.0129286115795537
  0
LWPOLYLINE
  5
12E
100
AcDbEntity
  8
VectorEngraving
 62
256
370
-1
 48
1.0
  6
BYLAYER
100
AcDbPolyline
 90
8
 70
129
 10
43.8523983511335871
 20
103.9747048903878692
 42
-0.2591303879110997
 10
43.2974049091249711
 20
104.2426456810942597
 42
-0.152704757020758
 10
43.1092842420835609
 20
105.0048716507401281
 42
-0.1520552001394187
 10
43.2974049091249711
 20
105.7575416900880754
 42
-0.2609893822229384
 10
43.8523983511335871
 20
106.0286677908937776
 42
-0.259888763800807
 10
44.4027075135844029
 20
105.7575416900880754
 42
-0.1532357876441029
 10
44.5925145212666223
 20
105.0048716507401281
 42
-0.1538924925182394
 10
44.4027075135844029
 20
104.2426456810942597
 42
-0.2580459804200103
  0
LWPOLYLINE
  5
12F
100
AcDbEntity
  8
VectorEngraving
 62
256
370
-1
 48
1.0
  6
BYLAYER
100
AcDbPolyline
 90
8
 70
129
 10
43.8523983511335871
 20
104.2681281618887255
 42
0.2924199676809247
 10
44.1330803822372033
 20
104.4515645493723213
 42
0.1214329083418607
 10
44.2350103054150168
 20
105.0082443320217465
 42
0.1202673064395471
 10
44.1330803822372033
 20
105.5454375117107162
 42
0.2966022124947539
 10
43.8523983511335871
 20
105.7352445193929356
 42
0.2995688277754439
 10
43.566844669289857
 20
105.5454375117107162
 42
0.1186384765761931
 10
43.466413715570539
 20
105.0082443320217465
 42
0.1197837217357526
 10
43.566844669289857
 20
104.4515645493723213
 42
0.2952609534182521
  0
LWPOLYLINE
  5
130
100
AcDbEntity
  8
VectorEngraving
 62
256
370
-1
 48
1.0
  6
BYLAYER
100
AcDbPolyline
 90
17
 70
129
 10
45.44055649241146
 20
103.9713322091062366
 42
-0.2187932598690965
 10
44.934841671350938
 20
104.1660108675285841
 42
-0.1902783405959826
 10
44.7577759040659444
 20
104.7084504403222951
 10
44.7577759040659444
 20
106.0001873711823208
 10
45.1437605396289996
 20
106.0001873711823208
 10
45.1437605396289996
 20
105.9713322091062508
 42
0.124616546376127
 10
45.1231497095746619
 20
105.9282368371744525
 42
0.0454369266294893
 10
45.1182780588345409
 20
105.8532883642495932
 10
45.1182780588345409
 20
104.7050777590406767
 42
0.1333400107448639
 10
45.1885422522016071
 20
104.3827993254637647
 42
0.2785909262070653
 10
45.443554431328451
 20
104.2647554806070929
 42
0.2726441709264234
 10
45.702126662919234
 20
104.3827993254637647
 42
0.1376862884248708
 10
45.7755761663856049
 20
104.7148210605209044
 10
45.7755761663856049
 20
106.0001873711823208
 10
46.1263350196739665
 20
106.0001873711823208
 10
46.1263350196739665
 20
104.7178189994378954
 42
-0.2083302145650179
 10
45.9350290425332517
 20
104.1532696271313654
 42
-0.1989968553203573
  0
LWPOLYLINE
  5
131
100
AcDbEntity
  8
VectorEngraving
 62
256
370
-1
 48
1.0
  6
BYLAYER
100
AcDbPolyline
 90
8
 70
129
 10
46.8469645868465321
 20
104.0129286115795537
 10
46.8469645868465321
 20
105.6970207982012511
 10
46.3110830054337583
 20
105.6970207982012511
 10
46.3110830054337583
 20
106.0001873711823208
 10
47.7560895634251352
 20
106.0001873711823208
 10
47.7560895634251352
 20
105.6970207982012511
 10
47.1913528199362844
 20
105.6970207982012511
 10
47.1913528199362844
 20
104.0129286115795537
  0
LWPOLYLINE
  5
132
100
AcDbEntity
  8
VectorEngraving
 62
256
370
-1
 48
1.0
  6
BYLAYER
100
AcDbPolyline
 90
30
 70
129
 10
22.6988945100243598
 20
76.9728311785647463
 42
-0.15860894529018
 10
22.2698145025295098
 20
77.1004309537193251
 42
-0.1435269886225688
 10
21.994004122166011
 20
77.4577477983886098
 42
-0.0990234869126218
 10
21.8984448191868104
 20
77.9936293798013907
 42
-0.0941134427108375
 10
21.9797639123102861
 20
78.5120854412591314
 42
-0.1147907923108974
 10
22.186996439947535
 20
78.8278058834551274
 42
-0.1080283260736541
 10
22.450065579913808
 20
78.9840734495034695
 42
-0.0755668809637169
 10
22.6958965711073617
 20
79.0271688214352679
 42
-0.1248023965008503
 10
23.0610830054337654
 20
78.9362937980138639
 42
-0.1515255901720978
 10
23.3209668353007302
 20
78.6794079070638901
 10
23.110361626381863
 20
78.4721753794266448
 10
23.0912497657860207
 20
78.4496908375491842
 10
23.0691399662731875
 20
78.4721753794266448
 42
0.0464973731751794
 10
23.0578976953344572
 20
78.5216413715570525
 42
0.0790744500632808
 10
23.0178002623196569
 20
78.586846543001684
 42
0.0965291984036747
 10
22.8920741989881975
 20
78.689151208544132
 42
0.121944589606609
 10
22.7052651302229727
 20
78.7273749297358165
 42
0.1476595164001066
 10
22.4836050215476853
 20
78.6602960464680621
 42
0.1555793406301283
 10
22.3177815252014256
 20
78.4386359377927675
 42
0.0933033501345615
 10
22.255574292673785
 20
78.0254824807944516
 42
0.1406135625353488
 10
22.3784897882705636
 20
77.454562488289298
 42
0.2696925324161323
 10
22.6988945100243598
 20
77.2662544500655883
 42
0.0654059016376211
 10
22.8568484167135111
 20
77.2870526513022327
 42
0.1135031983045858
 10
23.0020610830054331
 20
77.3651864343264037
 10
23.0020610830054331
 20
77.7320592092936096
 10
22.6734120292299046
 20
77.7320592092936096
 10
22.6734120292299046
 20
78.0318531009930751
 10
23.3273374554993431
 20
78.0318531009930751
 10
23.3273374554993431
 20
77.1804384485666191
 42
-0.0993875771290944
 10
23.02435825370058
 20
77.0191118605958422
 42
-0.0710946541307663
  0
LWPOLYLINE
  5
133
100
AcDbEntity
  8
VectorEngraving
 62
256
370
-1
 48
1.0
  6
BYLAYER
100
AcDbPolyline
 90
8
 70
129
 10
24.6059584035975263
 20
77.0080569608394256
 10
24.4688026981450264
 20
77.4704890387858427
 10
23.9490350384110933
 20
77.4704890387858427
 10
23.8085066516769714
 20
77.0080569608394256
 10
23.4513771781899933
 20
77.0080569608394256
 10
24.1244144650552741
 20
79.0080569608394256
 10
24.2967959527824604
 20
79.0080569608394256
 10
24.9698332396477412
 20
77.0080569608394256
  0
LWPOLYLINE
  5
134
100
AcDbEntity
  8
VectorEngraving
 62
256
370
-1
 48
1.0
  6
BYLAYER
100
AcDbPolyline
 90
3
 70
129
 10
24.2106052089188672
 20
78.3413902941727542
 10
24.0254824807944551
 20
77.7290612703766186
 10
24.3923552557616645
 20
77.7290612703766186
  0
LWPOLYLINE
  5
135
100
AcDbEntity
  8
VectorEngraving
 62
256
370
-1
 48
1.0
  6
BYLAYER
100
AcDbPolyline
 90
12
 70
129
 10
25.2310286677908948
 20
77.0080569608394256
 10
25.2310286677908948
 20
77.2984822934232767
 10
25.6200112422709374
 20
77.2984822934232767
 10
25.6200112422709374
 20
78.7048903878583559
 10
25.253138467303728
 20
78.7048903878583559
 10
25.253138467303728
 20
78.9953157204421927
 10
26.3503841109237413
 20
78.9953157204421927
 10
26.3503841109237413
 20
78.7048903878583559
 10
25.9614015364436952
 20
78.7048903878583559
 10
25.9614015364436952
 20
77.2984822934232767
 10
26.3664980326025855
 20
77.2984822934232767
 10
26.3664980326025855
 20
77.0080569608394256
  0
LWPOLYLINE
  5
136
100
AcDbEntity
  8
VectorEngraving
 62
256
370
-1
 48
1.0
  6
BYLAYER
100
AcDbPolyline
 90
13
 70
129
 10
26.7202548248079452
 20
78.9953157204421927
 10
27.096496158890762
 20
78.9953157204421927
 10
27.7695334457560428
 20
77.6874648679033157
 10
27.7504215851602005
 20
78.9953157204421927
 10
28.1015551808131896
 20
78.9953157204421927
 10
28.1015551808131896
 20
78.9664605583661228
 42
0.1276856979481453
 10
28.080569608394228
 20
78.9233651864343244
 42
0.045436926629373
 10
28.0756979576541141
 20
78.8484167135094651
 10
28.0756979576541141
 20
77.0080569608394256
 10
27.7410530260445931
 20
77.0080569608394256
 10
27.0455311973018553
 20
78.4020985572418994
 10
27.0455311973018553
 20
77.0080569608394256
 10
26.7202548248079452
 20
77.0080569608394256
  0
LWPOLYLINE
  5
137
100
AcDbEntity
  8
VectorEngraving
 62
256
370
-1
 48
1.0
  6
BYLAYER
100
AcDbPolyline
 90
8
 70
129
 10
6.0866123290237963
 20
16.0
 10
6.0866123290237963
 20
17.6840921866216974
 10
5.5507307476110173
 20
17.6840921866216974
 10
5.5507307476110173
 20
17.9872587596027742
 10
6.9957373056023986
 20
17.9872587596027742
 10
6.9957373056023986
 20
17.6840921866216974
 10
6.4310005621135469
 20
17.6840921866216974
 10
6.4310005621135469
 20
16.0
  0
LWPOLYLINE
  5
138
100
AcDbEntity
  8
VectorEngraving
 62
256
370
-1
 48
1.0
  6
BYLAYER
100
AcDbPolyline
 90
13
 70
129
 10
7.2153363312722503
 20
16.0
 10
7.2153363312722503
 20
17.9872587596027742
 10
7.8437792767472363
 20
17.9872587596027742
 42
-0.1905232060051795
 10
8.376288176878397
 20
17.8278058834551238
 42
-0.2148899109718773
 10
8.5452969833239649
 20
17.4034101555180847
 42
-0.1001913794401142
 10
8.4992036724751738
 20
17.1849353569421019
 42
-0.0965402896310359
 10
8.3684185872212851
 20
16.9887577290612697
 42
-0.1106023788063834
 10
8.1724283305227665
 20
16.8611579539066909
 10
8.5996346261944918
 20
16.0
 10
8.2200206108300549
 20
16.0
 10
7.8182967959527829
 20
16.8263069139966284
 10
7.5788364249578422
 20
16.8263069139966284
 10
7.5788364249578422
 20
16.0
  0
LWPOLYLINE
  5
139
100
AcDbEntity
  8
VectorEngraving
 62
256
370
-1
 48
1.0
  6
BYLAYER
100
AcDbPolyline
 90
7
 70
129
 10
7.5788364249578422
 20
17.1261008056960833
 10
7.8692617575416897
 20
17.1261008056960833
 42
0.1918312228859952
 10
8.0987914558740872
 20
17.1978639685216415
 42
0.2154606779080455
 10
8.175426269439761
 20
17.3940415964024737
 42
0.1955098707729284
 10
8.0987914558740872
 20
17.5917181937418015
 42
0.2146607426726947
 10
7.8692617575416897
 20
17.6747236275060899
 10
7.5788364249578422
 20
17.6747236275060899
  0
LWPOLYLINE
  5
13A
100
AcDbEntity
  8
VectorEngraving
 62
256
370
-1
 48
1.0
  6
BYLAYER
100
AcDbPolyline
 90
12
 70
129
 10
8.8896852164137155
 20
16.0
 10
8.8896852164137155
 20
16.2904253325838475
 10
9.2786677908937598
 20
16.2904253325838475
 10
9.2786677908937598
 20
17.6968334270189231
 10
8.9117950159265504
 20
17.6968334270189231
 10
8.9117950159265504
 20
17.9872587596027742
 10
10.009040659546562
 20
17.9872587596027742
 10
10.009040659546562
 20
17.6968334270189231
 10
9.6200580850665176
 20
17.6968334270189231
 10
9.6200580850665176
 20
16.2904253325838475
 10
10.0251545812254079
 20
16.2904253325838475
 10
10.0251545812254079
 20
16.0
  0
LWPOLYLINE
  5
13B
100
AcDbEntity
  8
VectorEngraving
 62
256
370
-1
 48
1.0
  6
BYLAYER
100
AcDbPolyline
 90
12
 70
129
 10
12.0787427393666853
 20
16.0
 10
12.0787427393666853
 20
16.2904253325838475
 10
12.4677253138467314
 20
16.2904253325838475
 10
12.4677253138467314
 20
17.6968334270189231
 10
12.1008525388795203
 20
17.6968334270189231
 10
12.1008525388795203
 20
17.9872587596027742
 10
13.1980981824995318
 20
17.9872587596027742
 10
13.1980981824995318
 20
17.6968334270189231
 10
12.8091156080194857
 20
17.6968334270189231
 10
12.8091156080194857
 20
16.2904253325838475
 10
13.214212104178376
 20
16.2904253325838475
 10
13.214212104178376
 20
16.0
  0
LWPOLYLINE
  5
13C
100
AcDbEntity
  8
VectorEngraving
 62
256
370
-1
 48
1.0
  6
BYLAYER
100
AcDbPolyline
 90
13
 70
129
 10
13.5679688963837357
 20
17.9872587596027742
 10
13.9442102304665543
 20
17.9872587596027742
 10
14.617247517331835
 20
16.6794079070638936
 10
14.5981356567359946
 20
17.9872587596027742
 10
14.9492692523889819
 20
17.9872587596027742
 10
14.9492692523889819
 20
17.9584035975267007
 42
0.1276856979476859
 10
14.9282836799700203
 20
17.9153082255949023
 42
0.0454369266294135
 10
14.9234120292299046
 20
17.8403597526700395
 10
14.9234120292299046
 20
16.0
 10
14.5887670976203854
 20
16.0
 10
13.8932452688776458
 20
17.3940415964024737
 10
13.8932452688776458
 20
16.0
 10
13.5679688963837357
 20
16.0
  0
LWPOLYLINE
  5
13D
100
AcDbEntity
  8
VectorEngraving
 62
256
370
-1
 48
1.0
  6
BYLAYER
100
AcDbPolyline
 90
39
 70
129
 10
19.6260539629005066
 20
15.9760164886640439
 42
-0.082458936378233
 10
19.2543095371931798
 20
16.0350384110923763
 42
-0.1239231858746556
 10
18.9657579164324517
 20
16.2154768596589847
 10
19.1411373430766361
 20
16.5118980700768248
 10
19.1538785834738619
 20
16.5373805508712763
 10
19.1827337455499354
 20
16.521641371557056
 42
0.0468697015839514
 10
19.2001592655049649
 20
16.4721753794266448
 42
0.0914502355627494
 10
19.2494378864530624
 20
16.4129660858160022
 42
0.0681594634041826
 10
19.426503653738056
 20
16.3142214727374935
 42
0.0950027158644787
 10
19.6387952032977324
 20
16.2758103803635024
 42
0.154469076180168
 10
19.8827524826681667
 20
16.3412029229904441
 42
0.2606540762175563
 10
19.9768128161888683
 20
16.5343826119542818
 42
0.120851274343754
 10
19.9481450252951085
 20
16.6539254262694421
 42
0.1219613454319186
 10
19.8349728311785647
 20
16.7670976203859858
 42
0.0382540592904164
 10
19.5844575604272073
 20
16.9012553869214912
 42
-0.0581074828848995
 10
19.2606801573917927
 20
17.0813190931234793
 42
-0.120042775226783
 10
19.0901723814877258
 20
17.2791830616451207
 42
-0.1126833292539183
 10
19.039207419898819
 20
17.5199550309162504
 42
-0.1592312928671628
 10
19.1205265130222983
 20
17.7815252014240208
 42
-0.1317713073948295
 10
19.3453719317968904
 20
17.9632752482668181
 42
-0.1105525077854784
 10
19.6740209855724189
 20
18.0303541315345726
 42
-0.2184592046669978
 10
20.2766067078883268
 20
17.7751545812254079
 10
20.0660014989694595
 20
17.5326962713134726
 10
20.0468896383736173
 20
17.5105864718006394
 10
20.0214071575791621
 20
17.5296983323964781
 42
0.0525272950834349
 10
20.0103522578227455
 20
17.5789769533445757
 42
0.0946983163543866
 10
19.9674442570732609
 20
17.6409968146899025
 42
0.1239145974077801
 10
19.8381581412778729
 20
17.7178189994378883
 42
0.0674802657518619
 10
19.6770189244894134
 20
17.736930860033727
 42
0.1710695699774063
 10
19.4695990256698508
 20
17.676222596964589
 42
0.2395241755844133
 10
19.3929642121041788
 20
17.536068952595091
 42
0.1315107380140995
 10
19.4218193741802523
 20
17.4210230466554243
 42
0.1136957301831413
 10
19.5383642495784144
 20
17.312722503278998
 42
0.0383547771664955
 10
19.8078040097433004
 20
17.1755667978264945
 42
-0.0534254991441762
 10
20.1235244519392928
 20
16.9953157204421963
 42
-0.1275968227178104
 10
20.2846636687277488
 20
16.8023234026606723
 42
-0.1042366901074458
 10
20.3309443507588554
 20
16.5568671538317389
 42
-0.1279801959423839
 10
20.2574948472924845
 20
16.278995690462807
 42
-0.1467899336018276
 10
20.0277777777777786
 20
16.0605208918868279
 42
-0.1239665239213941
  0
LWPOLYLINE
  5
13E
100
AcDbEntity
  8
VectorEngraving
 62
256
370
-1
 48
1.0
  6
BYLAYER
100
AcDbPolyline
 90
12
 70
129
 10
20.6719599025669858
 20
16.0112422709387303
 10
20.6719599025669858
 20
16.3016676035225778
 10
21.0609424770470284
 20
16.3016676035225778
 10
21.0609424770470284
 20
17.7080756979576535
 10
20.694069702079819
 20
17.7080756979576535
 10
20.694069702079819
 20
17.9985010305415045
 10
21.7913153456998323
 20
17.9985010305415045
 10
21.7913153456998323
 20
17.7080756979576535
 10
21.4023327712197862
 20
17.7080756979576535
 10
21.4023327712197862
 20
16.3016676035225778
 10
21.8074292673786765
 20
16.3016676035225778
 10
21.8074292673786765
 20
16.0112422709387303
  0
LWPOLYLINE
  5
13F
100
AcDbEntity
  8
VectorEngraving
 62
256
370
-1
 48
1.0
  6
BYLAYER
100
AcDbPolyline
 90
13
 70
129
 10
22.1611860595840362
 20
17.9985010305415045
 10
22.537427393666853
 20
17.9985010305415045
 10
23.2104646805321337
 20
16.690650178002624
 10
23.1913528199362915
 20
17.9985010305415045
 10
23.5424864155892806
 20
17.9985010305415045
 10
23.5424864155892806
 20
17.969645868465431
 42
0.1276856979475943
 10
23.521500843170319
 20
17.9265504965336326
 42
0.045436926629388
 10
23.5166291924302051
 20
17.8516020236087698
 10
23.5166291924302051
 20
16.0112422709387303
 10
23.1819842608206841
 20
16.0112422709387303
 10
22.4864624320779463
 20
17.405283867341204
 10
22.4864624320779463
 20
16.0112422709387303
 10
22.1611860595840362
 20
16.0112422709387303
  0
LWPOLYLINE
  5
140
100
AcDbEntity
  8
VectorEngraving
 62
256
370
-1
 48
1.0
  6
BYLAYER
100
AcDbPolyline
 90
12
 70
129
 10
23.8003091624508158
 20
16.0112422709387303
 10
23.8003091624508158
 20
17.9985010305415045
 10
25.0954187745924671
 20
17.9985010305415045
 10
25.0954187745924671
 20
17.7050777590406589
 10
24.1510680157391775
 20
17.7050777590406589
 10
24.1510680157391775
 20
17.1946786584223368
 10
24.9264099681468991
 20
17.1946786584223368
 10
24.9264099681468991
 20
16.8978827056398728
 10
24.1510680157391775
 20
16.8978827056398728
 10
24.1510680157391775
 20
16.3046655424395723
 10
25.0856754731122358
 20
16.3046655424395723
 10
25.0856754731122358
 20
16.0112422709387303
  0
LWPOLYLINE
  5
141
100
AcDbEntity
  8
VectorEngraving
 62
256
370
-1
 48
1.0
  6
BYLAYER
100
AcDbPolyline
 90
8
 70
129
 10
27.6305508712759966
 20
15.9730185497470529
 42
-0.2591303879110685
 10
27.0755574292673771
 20
16.2409593404534398
 42
-0.1527047570207415
 10
26.8874367622259669
 20
17.0031853100993082
 42
-0.1520552001393893
 10
27.0755574292673771
 20
17.7558553494472555
 42
-0.2609893822229577
 10
27.6305508712759966
 20
18.0269814502529506
 42
-0.2598887638008143
 10
28.1808600337268125
 20
17.7558553494472555
 42
-0.1532357876440786
 10
28.3706670414090318
 20
17.0031853100993082
 42
-0.1538924925182124
 10
28.1808600337268125
 20
16.2409593404534398
 42
-0.2580459804199909
  0
LWPOLYLINE
  5
142
100
AcDbEntity
  8
VectorEngraving
 62
256
370
-1
 48
1.0
  6
BYLAYER
100
AcDbPolyline
 90
8
 70
129
 10
27.6305508712759966
 20
16.2664418212478949
 42
0.2924199676809719
 10
27.9112329023796129
 20
16.4498782087314979
 42
0.1214329083418564
 10
28.0131628255574299
 20
17.0065579913809231
 42
0.1202673064395561
 10
27.9112329023796129
 20
17.5437511710698892
 42
0.2966022124947305
 10
27.6305508712759966
 20
17.7335581787521086
 42
0.299568827775429
 10
27.344997189432263
 20
17.5437511710698892
 42
0.1186384765761827
 10
27.244566235712945
 20
17.0065579913809266
 42
0.1197837217357365
 10
27.344997189432263
 20
16.4498782087314979
 42
0.2952609534182933
  0
LWPOLYLINE
  5
143
100
AcDbEntity
  8
VectorEngraving
 62
256
370
-1
 48
1.0
  6
BYLAYER
100
AcDbPolyline
 90
17
 70
129
 10
29.2187090125538695
 20
15.969645868465431
 42
-0.2187932598690991
 10
28.7129941914933475
 20
16.1643245268877642
 42
-0.1902783405960046
 10
28.5359284242083575
 20
16.7067640996814717
 10
28.5359284242083575
 20
17.9985010305415045
 10
28.9219130597714056
 20
17.9985010305415045
 10
28.9219130597714056
 20
17.969645868465431
 42
0.1246165463758198
 10
28.9013022297170679
 20
17.9265504965336326
 42
0.0454369266293873
 10
28.896430578976954
 20
17.8516020236087698
 10
28.896430578976954
 20
16.7033914183998498
 42
0.1333400107448071
 10
28.9666947723440131
 20
16.3811129848229342
 42
0.2785909262070551
 10
29.2217069514708641
 20
16.263069139966273
 42
0.2726441709264227
 10
29.4802791830616471
 20
16.3811129848229342
 42
0.1376862884248704
 10
29.5537286865280109
 20
16.7131347198800846
 10
29.5537286865280109
 20
17.9985010305415045
 10
29.9044875398163761
 20
17.9985010305415045
 10
29.9044875398163761
 20
16.7161326587970791
 42
-0.2083302145650379
 10
29.7131815626756577
 20
16.1515832864905384
 42
-0.1989968553204026
  0
LWPOLYLINE
  5
144
100
AcDbEntity
  8
VectorEngraving
 62
256
370
-1
 48
1.0
  6
BYLAYER
100
AcDbPolyline
 90
8
 70
129
 10
30.6251171069889452
 20
16.0112422709387303
 10
30.6251171069889452
 20
17.6953344575604277
 10
30.0892355255761643
 20
17.6953344575604277
 10
30.0892355255761643
 20
17.9985010305415045
 10
31.5342420835675483
 20
17.9985010305415045
 10
31.5342420835675483
 20
17.6953344575604277
 10
30.9695053400786975
 20
17.6953344575604277
 10
30.9695053400786975
 20
16.0112422709387303
  0
LWPOLYLINE
  5
145
100
AcDbEntity
  8
VectorEngraving
 62
256
370
-1
 48
1.0
  6
BYLAYER
100
AcDbPolyline
 90
10
 70
129
 10
34.7740771969271094
 20
16.0095559302979318
 10
34.7740771969271094
 20
17.996814689900706
 10
35.2878489788270571
 20
17.996814689900706
 42
-0.1118089991174202
 10
35.6944444444444429
 20
17.9250515270751478
 42
-0.1180376728833682
 10
35.9384017238148772
 20
17.7225032789957027
 42
-0.0860317353694644
 10
36.0931703204047238
 20
17.4034101555180918
 42
-0.0734144486326786
 10
36.149006932733748
 20
16.9887577290612946
 42
-0.0937972774119968
 10
36.0500749484729255
 20
16.467303728686538
 42
-0.1638286356081057
 10
35.7613359565298836
 20
16.127599775154593
 42
-0.1360343027579365
 10
35.2496252576353726
 20
16.0095559302979318
  0
LWPOLYLINE
  5
146
100
AcDbEntity
  8
VectorEngraving
 62
256
370
-1
 48
1.0
  6
BYLAYER
100
AcDbPolyline
 90
9
 70
129
 10
35.1252107925800985
 20
16.290237961401548
 10
35.2398819561551448
 20
16.290237961401548
 42
0.1550328994721436
 10
35.5668446692898641
 20
16.3764287052651412
 42
0.1609236696387099
 10
35.7439104365748506
 20
16.6188870151770764
 42
0.0875887959746771
 10
35.7948753981637608
 20
16.9857597901442894
 42
0.0688444510862953
 10
35.7485947161326578
 20
17.3683717444257191
 42
0.1625887306929332
 10
35.5876428705265155
 20
17.6203859846355755
 42
0.1685507963357326
 10
35.2751077384298313
 20
17.7097620385984769
 10
35.1252107925800985
 20
17.7097620385984769
  0
LWPOLYLINE
  5
147
100
AcDbEntity
  8
VectorEngraving
 62
256
370
-1
 48
1.0
  6
BYLAYER
100
AcDbPolyline
 90
12
 70
129
 10
36.4581693835488068
 20
16.0095559302979318
 10
36.4581693835488068
 20
16.2999812628817793
 10
36.8471519580288529
 20
16.2999812628817793
 10
36.8471519580288529
 20
17.7063893573168549
 10
36.4802791830616471
 20
17.7063893573168549
 10
36.4802791830616471
 20
17.996814689900706
 10
37.5775248266816533
 20
17.996814689900706
 10
37.5775248266816533
 20
17.7063893573168549
 10
37.1885422522016142
 20
17.7063893573168549
 10
37.1885422522016142
 20
16.2999812628817793
 10
37.5936387483605046
 20
16.2999812628817793
 10
37.5936387483605046
 20
16.0095559302979318
  0
LWPOLYLINE
  5
148
100
AcDbEntity
  8
VectorEngraving
 62
256
370
-1
 48
1.0
  6
BYLAYER
100
AcDbPolyline
 90
39
 70
129
 10
38.6013209668353028
 20
15.9743301480232471
 42
-0.0824589363782297
 10
38.229576541127976
 20
16.0333520704515777
 42
-0.1239231858746433
 10
37.9410249203672478
 20
16.2137905190181861
 10
38.1164043470114322
 20
16.5102117294360227
 10
38.129145587408658
 20
16.5356942102304778
 10
38.158000749484728
 20
16.5199550309162575
 42
0.0468697015841865
 10
38.175426269439761
 20
16.4704890387858462
 42
0.0914502355628696
 10
38.224704890387855
 20
16.4112797451752037
 42
0.0681594634041619
 10
38.4017706576728486
 20
16.3125351320966949
 42
0.0950027158644875
 10
38.6140622072325286
 20
16.2741240397227038
 42
0.1544690761801916
 10
38.8580194866029629
 20
16.3395165823496455
 42
0.2606540762175527
 10
38.9520798201236644
 20
16.5326962713134833
 42
0.1208512743437781
 10
38.9234120292299011
 20
16.6522390856286435
 42
0.1219613454319296
 10
38.8102398351133573
 20
16.7654112797451873
 42
0.0382540592904518
 10
38.5597245643619999
 20
16.8995690462806927
 42
-0.0581074828849097
 10
38.2359471613265853
 20
17.0796327524826808
 42
-0.12004277522678
 10
38.0654393854225219
 20
17.2774967210043222
 42
-0.1126833292539541
 10
38.0144744238336116
 20
17.5182686902754483
 42
-0.1592312928671755
 10
38.0957935169570945
 20
17.7798388607832223
 42
-0.1317713073948697
 10
38.3206389357316866
 20
17.9615889076260196
 42
-0.1105525077854695
 10
38.649287989507215
 20
18.0286677908937705
 42
-0.2184592046669981
 10
39.2518737118231229
 20
17.7734682405846094
 10
39.0412685029042521
 20
17.5310099306726741
 10
39.0221566423084099
 20
17.5089001311598409
 10
38.9966741615139583
 20
17.5280119917556796
 42
0.0525272950834368
 10
38.9856192617575417
 20
17.5772906127037771
 42
0.0946983163544433
 10
38.942711261008057
 20
17.639310474049104
 42
0.1239145974077155
 10
38.813425145212662
 20
17.7161326587970898
 42
0.0674802657518629
 10
38.652285928424206
 20
17.7352445193929285
 42
0.1710695699774469
 10
38.4448660296046469
 20
17.6745362563237904
 42
0.2395241755844148
 10
38.3682312160389714
 20
17.5343826119542925
 42
0.1315107380141423
 10
38.3970863781150484
 20
17.4193367060146258
 42
0.1136957301831139
 10
38.5136312535132106
 20
17.3110361626381994
 42
0.0383547771664939
 10
38.7830710136780965
 20
17.173880457185696
 42
-0.0534254991441831
 10
39.0987914558740854
 20
16.9936293798013978
 42
-0.1275968227177662
 10
39.2599306726625414
 20
16.8006370620198737
 42
-0.1042366901074002
 10
39.3062113546936445
 20
16.5551808131909439
 42
-0.1279801959424006
 10
39.2327618512272807
 20
16.2773093498220085
 42
-0.146789933601782
 10
39.0030447817125747
 20
16.0588345512460293
 42
-0.1239665239213797
  0
LWPOLYLINE
  5
149
100
AcDbEntity
  8
VectorEngraving
 62
256
370
-1
 48
1.0
  6
BYLAYER
100
AcDbPolyline
 90
8
 70
129
 10
40.0332115420648336
 20
16.0095559302979318
 10
40.0332115420648336
 20
17.6936481169196291
 10
39.4973299606520527
 20
17.6936481169196291
 10
39.4973299606520527
 20
17.996814689900706
 10
40.9423365186434296
 20
17.996814689900706
 10
40.9423365186434296
 20
17.6936481169196291
 10
40.3775997751545788
 20
17.6936481169196291
 10
40.3775997751545788
 20
16.0095559302979318
  0
LWPOLYLINE
  5
14A
100
AcDbEntity
  8
VectorEngraving
 62
256
370
-1
 48
1.0
  6
BYLAYER
100
AcDbPolyline
 90
8
 70
129
 10
41.8222315907813353
 20
15.9713322091062473
 42
-0.2591303879110593
 10
41.2672381487727193
 20
16.2392729998126413
 42
-0.1527047570207501
 10
41.0791174817313092
 20
17.0014989694585097
 42
-0.1520552001394012
 10
41.2672381487727193
 20
17.754169008806457
 42
-0.2609893822229385
 10
41.8222315907813353
 20
18.0252951096121521
 42
-0.2598887638007979
 10
42.3725407532321512
 20
17.754169008806457
 42
-0.153235787644077
 10
42.5623477609143706
 20
17.0014989694585097
 42
-0.1538924925182124
 10
42.3725407532321512
 20
16.2392729998126413
 42
-0.2580459804199819
  0
LWPOLYLINE
  5
14B
100
AcDbEntity
  8
VectorEngraving
 62
256
370
-1
 48
1.0
  6
BYLAYER
100
AcDbPolyline
 90
8
 70
129
 10
41.8222315907813353
 20
16.2647554806070964
 42
0.2924199676809691
 10
42.1029136218849516
 20
16.4481918680906993
 42
0.1214329083418658
 10
42.2048435450627721
 20
17.0048716507401281
 42
0.1202673064395678
 10
42.1029136218849516
 20
17.5420648304290907
 42
0.2966022124947285
 10
41.8222315907813353
 20
17.7318718381113101
 42
0.2995688277754276
 10
41.5366779089376053
 20
17.5420648304290907
 42
0.1186384765761729
 10
41.4362469552182873
 20
17.0048716507401281
 42
0.1197837217357272
 10
41.5366779089376053
 20
16.4481918680906993
 42
0.2952609534183005
  0
LWPOLYLINE
  5
14C
100
AcDbEntity
  8
VectorEngraving
 62
256
370
-1
 48
1.0
  6
BYLAYER
100
AcDbPolyline
 90
13
 70
129
 10
42.7564643057897698
 20
16.0095559302979318
 10
42.7564643057897698
 20
17.996814689900706
 10
43.3849072512647567
 20
17.996814689900706
 42
-0.1905232060051738
 10
43.917416151395912
 20
17.8373618137530556
 42
-0.2148899109719061
 10
44.0864249578414871
 20
17.4129660858160129
 42
-0.1001913794401459
 10
44.0403316469926907
 20
17.1944912872400337
 42
-0.0965402896310594
 10
43.9095465617388072
 20
16.9983136593592015
 42
-0.11060237880634
 10
43.7135563050402851
 20
16.8707138842046191
 10
44.1407626007120086
 20
16.0095559302979318
 10
43.7611485853475699
 20
16.0095559302979318
 10
43.359424770470298
 20
16.8358628442945601
 10
43.1199643994753643
 20
16.8358628442945601
 10
43.1199643994753643
 20
16.0095559302979318
  0
LWPOLYLINE
  5
14D
100
AcDbEntity
  8
VectorEngraving
 62
256
370
-1
 48
1.0
  6
BYLAYER
100
AcDbPolyline
 90
7
 70
129
 10
43.1199643994753643
 20
17.1356567359940151
 10
43.4103897320592083
 20
17.1356567359940151
 42
0.1918312228860125
 10
43.6399194303916076
 20
17.2074198988195732
 42
0.2154606779080759
 10
43.7165542439572761
 20
17.4035975267004055
 42
0.1955098707729815
 10
43.6399194303916076
 20
17.6012741240397332
 42
0.2146607426726923
 10
43.4103897320592083
 20
17.6842795578040217
 10
43.1199643994753643
 20
17.6842795578040217
  0
LWPOLYLINE
  5
14E
100
AcDbEntity
  8
VectorEngraving
 62
256
370
-1
 48
1.0
  6
BYLAYER
100
AcDbPolyline
 90
8
 70
129
 10
44.8167978264942803
 20
16.0095559302979318
 10
44.8167978264942803
 20
17.6936481169196291
 10
44.2809162450815066
 20
17.6936481169196291
 10
44.2809162450815066
 20
17.996814689900706
 10
45.7259228030728906
 20
17.996814689900706
 10
45.7259228030728906
 20
17.6936481169196291
 10
45.1611860595840326
 20
17.6936481169196291
 10
45.1611860595840326
 20
16.0095559302979318
  0
LWPOLYLINE
  5
14F
100
AcDbEntity
  8
VectorEngraving
 62
256
370
-1
 48
1.0
  6
BYLAYER
100
AcDbPolyline
 90
8
 70
129
 10
7.0771500843170365
 20
31.5143338954468746
 10
7.0771500843170365
 20
34.0404721753794206
 10
6.2733277121978688
 20
34.0404721753794206
 10
6.2733277121978688
 20
34.4952220348510323
 10
8.4408375491849412
 20
34.4952220348510323
 10
8.4408375491849412
 20
34.0404721753794206
 10
7.593732433951665
 20
34.0404721753794206
 10
7.593732433951665
 20
31.5143338954468746
  0
LWPOLYLINE
  5
150
100
AcDbEntity
  8
VectorEngraving
 62
256
370
-1
 48
1.0
  6
BYLAYER
100
AcDbPolyline
 90
13
 70
129
 10
8.770236087689721
 20
31.5143338954468746
 10
8.770236087689721
 20
34.4952220348510323
 10
9.7129005059021978
 20
34.4952220348510323
 42
-0.1905232060051799
 10
10.5116638560989379
 20
34.2560427206295586
 42
-0.2148899109718806
 10
10.7651770657672898
 20
33.6194491287239998
 42
-0.1001913794401138
 10
10.6960370994941023
 20
33.2917369308600257
 42
-0.0965402896310563
 10
10.4998594716132718
 20
32.9974704890387827
 42
-0.1106023788063512
 10
10.2058740865654922
 20
32.8060708263069074
 10
10.8466835300730793
 20
31.5143338954468746
 10
10.2772625070264247
 20
31.5143338954468746
 10
9.6746767847105168
 20
32.7537942664418154
 10
9.3154862282181057
 20
32.7537942664418154
 10
9.3154862282181057
 20
31.5143338954468746
  0
LWPOLYLINE
  5
151
100
AcDbEntity
  8
VectorEngraving
 62
256
370
-1
 48
1.0
  6
BYLAYER
100
AcDbPolyline
 90
7
 70
129
 10
9.3154862282181057
 20
33.2034851039909995
 10
9.7511242270938787
 20
33.2034851039909995
 42
0.1918312228859869
 10
10.0954187745924742
 20
33.311129848229335
 42
0.2154606779080559
 10
10.210370994940984
 20
33.6053962900505852
 42
0.1955098707729291
 10
10.0954187745924742
 20
33.9019111860595785
 42
0.2146607426726799
 10
9.7511242270938787
 20
34.0264193367060059
 10
9.3154862282181057
 20
34.0264193367060059
  0
LWPOLYLINE
  5
152
100
AcDbEntity
  8
VectorEngraving
 62
256
370
-1
 48
1.0
  6
BYLAYER
100
AcDbPolyline
 90
12
 70
129
 10
11.2817594154019183
 20
31.5143338954468746
 10
11.2817594154019183
 20
31.9499718943226476
 10
11.8652332771219839
 20
31.9499718943226476
 10
11.8652332771219839
 20
34.0595840359752629
 10
11.3149241146711681
 20
34.0595840359752629
 10
11.3149241146711681
 20
34.4952220348510323
 10
12.9607925801011863
 20
34.4952220348510323
 10
12.9607925801011863
 20
34.0595840359752629
 10
12.3773187183811189
 20
34.0595840359752629
 10
12.3773187183811189
 20
31.9499718943226476
 10
12.9849634626194543
 20
31.9499718943226476
 10
12.9849634626194543
 20
31.5143338954468746
  0
LWPOLYLINE
  5
153
100
AcDbEntity
  8
VectorEngraving
 62
256
370
-1
 48
1.0
  6
BYLAYER
100
AcDbPolyline
 90
8
 70
129
 10
15.1277403035413212
 20
31.5143338954468746
 10
14.9220067453625695
 20
32.2079820123664931
 10
14.1423552557616681
 20
32.2079820123664931
 10
13.9315626756604889
 20
31.5143338954468746
 10
13.3958684654300235
 20
31.5143338954468746
 10
14.4054243957279429
 20
34.5143338954468746
 10
14.6639966273187241
 20
34.5143338954468746
 10
15.6735525576166435
 20
31.5143338954468746
  0
LWPOLYLINE
  5
154
100
AcDbEntity
  8
VectorEngraving
 62
256
370
-1
 48
1.0
  6
BYLAYER
100
AcDbPolyline
 90
3
 70
129
 10
14.5347105115233326
 20
33.5143338954468746
 10
14.2570264193367109
 20
32.595840359752664
 10
14.8073355817875267
 20
32.595840359752664
  0
LWPOLYLINE
  5
155
100
AcDbEntity
  8
VectorEngraving
 62
256
370
-1
 48
1.0
  6
BYLAYER
100
AcDbPolyline
 90
13
 70
129
 10
15.9073917931422208
 20
34.4952220348510323
 10
16.4717537942664478
 20
34.4952220348510323
 10
17.4813097245643689
 20
32.5334457560427168
 10
17.4526419336706056
 20
34.4952220348510323
 10
17.9793423271500892
 20
34.4952220348510323
 10
17.9793423271500892
 20
34.4519392917369274
 42
0.1276856979477176
 10
17.947863968521645
 20
34.3872962338392298
 42
0.0454369266293813
 10
17.9405564924114742
 20
34.2748735244519338
 10
17.9405564924114742
 20
31.5143338954468746
 10
17.4385890949971945
 20
31.5143338954468746
 10
16.3953063518830859
 20
33.6053962900505852
 10
16.3953063518830859
 20
31.5143338954468746
 10
15.9073917931422208
 20
31.5143338954468746
  0
LWPOLYLINE
  5
156
100
AcDbEntity
  8
VectorEngraving
 62
256
370
-1
 48
1.0
  6
BYLAYER
100
AcDbPolyline
 90
30
 70
129
 10
19.4425238898257504
 20
31.4614952220348449
 42
-0.1586089452901691
 10
18.7989038785834808
 20
31.6528948847667166
 42
-0.1435269886225838
 10
18.3851883080382308
 20
32.1888701517706508
 42
-0.0990234869126376
 10
18.2418493535694246
 20
32.9926925238898221
 42
-0.0941134427108302
 10
18.3638279932546418
 20
33.7703766160764403
 42
-0.1147907923108927
 10
18.6746767847105168
 20
34.2439572793704272
 42
-0.1080283260736182
 10
19.0692804946599281
 20
34.4783586284429404
 42
-0.0755668809636792
 10
19.4380269814502569
 20
34.5430016863406379
 42
-0.1248023965008626
 10
19.9858066329398589
 20
34.4066891512085391
 42
-0.1515255901720755
 10
20.3756323777403097
 20
34.0213603147835784
 10
20.059724564362007
 20
33.7105115233277104
 10
20.0310567734682472
 20
33.6767847105115194
 10
19.9978920741989938
 20
33.7105115233277104
 42
0.0464973731751186
 10
19.9810286677908984
 20
33.7847105115233219
 42
0.0790744500631571
 10
19.9208825182686944
 20
33.8825182686902693
 42
0.096529198403626
 10
19.732293423271507
 20
34.0359752670039271
 42
0.1219445896066
 10
19.4520798201236715
 20
34.0933108487914467
 42
0.1476595164000907
 10
19.1195896571107404
 20
33.9926925238898221
 42
0.155579340630118
 10
18.8708544125913491
 20
33.6602023608768945
 42
0.09330335013455
 10
18.7775435637998918
 20
33.0404721753794206
 42
0.1406135625353415
 10
18.9619168071950597
 20
32.1840921866216902
 42
0.2696925324160838
 10
19.4425238898257504
 20
31.9016301292861115
 42
0.0654059016376061
 10
19.6794547498594774
 20
31.9328274311410851
 42
0.1135031983046551
 10
19.8972737492973621
 20
32.0500281056773417
 10
19.8972737492973621
 20
32.6003372681281576
 10
19.4043001686340695
 20
32.6003372681281576
 10
19.4043001686340695
 20
33.0500281056773417
 10
20.3851883080382308
 20
33.0500281056773417
 10
20.3851883080382308
 20
31.7729061270376576
 42
-0.0993875771290734
 10
19.9307195053400861
 20
31.5309162450814995
 42
-0.0710946541308163
  0
LWPOLYLINE
  5
157
100
AcDbEntity
  8
VectorEngraving
 62
256
370
-1
 48
1.0
  6
BYLAYER
100
AcDbPolyline
 90
9
 70
129
 10
20.7865373805508753
 20
34.4952220348510323
 10
21.3750702641933721
 20
34.4952220348510323
 10
21.3750702641933721
 20
34.4519392917369274
 42
0.1523096199731573
 10
21.3393760539629049
 20
34.3872962338392298
 42
0.0437068677127579
 10
21.3323496346261976
 20
34.2748735244519338
 10
21.3323496346261976
 20
31.9544688026981412
 10
22.7005340078695959
 20
31.9544688026981412
 10
22.7005340078695959
 20
31.5143338954468746
 10
20.7865373805508753
 20
31.5143338954468746
  0
LWPOLYLINE
  5
158
100
AcDbEntity
  8
VectorEngraving
 62
256
370
-1
 48
1.0
  6
BYLAYER
100
AcDbPolyline
 90
12
 70
129
 10
23.1496627318718424
 20
31.5143338954468746
 10
23.1496627318718424
 20
34.4952220348510323
 10
25.0923271500843228
 20
34.4952220348510323
 10
25.0923271500843228
 20
34.0550871275997693
 10
23.675801011804392
 20
34.0550871275997693
 10
23.675801011804392
 20
33.2894884766722825
 10
24.8388139404159709
 20
33.2894884766722825
 10
24.8388139404159709
 20
32.8442945474985919
 10
23.675801011804392
 20
32.8442945474985919
 10
23.675801011804392
 20
31.9544688026981412
 10
25.0777121978639741
 20
31.9544688026981412
 10
25.0777121978639741
 20
31.5143338954468746
  0
LWPOLYLINE
  5
159
100
AcDbEntity
  8
VectorEngraving
 62
256
370
-1
 48
1.0
  6
BYLAYER
100
AcDbPolyline
 90
8
 70
129
 10
28.6032883642495825
 20
31.5143338954468746
 10
28.6032883642495825
 20
34.0404721753794206
 10
27.7994659921304148
 20
34.0404721753794206
 10
27.7994659921304148
 20
34.4952220348510323
 10
29.9669758291174873
 20
34.4952220348510323
 10
29.9669758291174873
 20
34.0404721753794206
 10
29.119870713884211
 20
34.0404721753794206
 10
29.119870713884211
 20
31.5143338954468746
  0
LWPOLYLINE
  5
15A
100
AcDbEntity
  8
VectorEngraving
 62
256
370
-1
 48
1.0
  6
BYLAYER
100
AcDbPolyline
 90
8
 70
129
 10
31.2868184373243423
 20
31.4569983136593585
 42
-0.2591303879110506
 10
30.4543282743114183
 20
31.858909499718937
 42
-0.1527047570207504
 10
30.1721472737493031
 20
33.0022484541877432
 42
-0.1520552001394034
 10
30.4543282743114183
 20
34.1312535132096642
 42
-0.260989382222952
 10
31.2868184373243423
 20
34.5379426644182104
 42
-0.2598887638008088
 10
32.1122821810005661
 20
34.1312535132096642
 42
-0.1532357876440711
 10
32.3969926925238951
 20
33.0022484541877432
 42
-0.1538924925182074
 10
32.1122821810005661
 20
31.858909499718937
 42
-0.2580459804199843
  0
LWPOLYLINE
  5
15B
100
AcDbEntity
  8
VectorEngraving
 62
256
370
-1
 48
1.0
  6
BYLAYER
100
AcDbPolyline
 90
8
 70
129
 10
31.2868184373243423
 20
31.8971332209106109
 42
0.2924199676809753
 10
31.7078414839797667
 20
32.1722878021360259
 42
0.1214329083418503
 10
31.8607363687464904
 20
33.0073074761101708
 42
0.1202673064395502
 10
31.7078414839797667
 20
33.8130972456436112
 42
0.2966022124947452
 10
31.2868184373243423
 20
34.0978077571669402
 42
0.2995688277754401
 10
30.8584879145587472
 20
33.8130972456436112
 42
0.1186384765761809
 10
30.7078414839797702
 20
33.0073074761101708
 42
0.1197837217357388
 10
30.8584879145587472
 20
32.1722878021360259
 42
0.2952609534182967
  0
LWPOLYLINE
  5
15C
100
AcDbEntity
  8
VectorEngraving
 62
256
370
-1
 48
1.0
  6
BYLAYER
100
AcDbPolyline
 90
39
 70
129
 10
36.0226250702641977
 20
31.4614952220348485
 42
-0.0824589363782324
 10
35.465008431703211
 20
31.5500281056773417
 42
-0.1239231858746608
 10
35.0321810005621188
 20
31.8206857785272561
 10
35.2952501405283954
 20
32.2653175941540127
 10
35.3143620011242305
 20
32.3035413153456972
 10
35.3576447442383426
 20
32.2799325463743614
 42
0.0468697015838907
 10
35.3837830241708815
 20
32.2057335581787498
 42
0.0914502355627962
 10
35.4577009555930402
 20
32.1169196177627825
 42
0.0681594634041922
 10
35.723299606520527
 20
31.9688026981450193
 42
0.0950027158645079
 10
36.0417369308600399
 20
31.9111860595840291
 42
0.1544690761801809
 10
36.4076728499156843
 20
32.009274873524447
 42
0.2606540762176063
 10
36.5487633501967508
 20
32.2990444069702036
 42
0.1208512743437474
 10
36.5057616638561058
 20
32.4783586284429404
 42
0.1219613454318983
 10
36.3360033726812901
 20
32.6481169196177561
 42
0.0382540592903836
 10
35.9602304665542505
 20
32.8493535694210195
 42
-0.0581074828849204
 10
35.4745643620011322
 20
33.1194491287239998
 42
-0.1200427752268133
 10
35.2188026981450264
 20
33.4162450815064602
 42
-0.112683329253949
 10
35.1423552557616716
 20
33.7774030354131511
 42
-0.1592312928671592
 10
35.2643338954468817
 20
34.1697582911748086
 42
-0.1317713073948614
 10
35.6016020236087769
 20
34.4423833614390063
 42
-0.1105525077854795
 10
36.094575604272066
 20
34.5430016863406379
 42
-0.2184592046669928
 10
36.9984541877459279
 20
34.1602023608768945
 10
36.6825463743676323
 20
33.7965148960089863
 10
36.653878583473869
 20
33.7633501967397365
 10
36.6156548622821845
 20
33.7920179876334998
 42
0.0525272950833934
 10
36.5990725126475667
 20
33.8659359190556444
 42
0.0946983163544512
 10
36.534710511523329
 20
33.9589657110736312
 42
0.1239145974077857
 10
36.3407813378302507
 20
34.0741989881956115
 42
0.0674802657518516
 10
36.0990725126475525
 20
34.1028667790893678
 42
0.1710695699774348
 10
35.7879426644182246
 20
34.0118043844856572
 42
0.239524175584473
 10
35.6729904440697112
 20
33.8015739179314139
 42
0.1315107380140656
 10
35.7162731871838162
 20
33.6290050590219138
 42
0.1136957301830945
 10
35.8910905002810594
 20
33.4665542439572761
 42
0.0383547771665095
 10
36.2952501405283954
 20
33.2608206857785191
 42
-0.053425499144172
 10
36.7688308038223823
 20
32.9904440697020718
 42
-0.1275968227178015
 10
37.0105396290050663
 20
32.7009555930297893
 42
-0.1042366901074126
 10
37.0799606520517244
 20
32.3327712197863946
 42
-0.1279801959423855
 10
36.9697863968521716
 20
31.9159640247329897
 42
-0.1467899336018178
 10
36.6252107925801056
 20
31.5882518268690227
 42
-0.1239665239213954
  0
LWPOLYLINE
  5
15D
100
AcDbEntity
  8
VectorEngraving
 62
256
370
-1
 48
1.0
  6
BYLAYER
100
AcDbPolyline
 90
12
 70
129
 10
37.5914839797639218
 20
31.5143338954468746
 10
37.5914839797639218
 20
31.9499718943226476
 10
38.1749578414839874
 20
31.9499718943226476
 10
38.1749578414839874
 20
34.0595840359752629
 10
37.6246486790331716
 20
34.0595840359752629
 10
37.6246486790331716
 20
34.4952220348510323
 10
39.2705171444631844
 20
34.4952220348510323
 10
39.2705171444631844
 20
34.0595840359752629
 10
38.6870432827431188
 20
34.0595840359752629
 10
38.6870432827431188
 20
31.9499718943226476
 10
39.2946880269814471
 20
31.9499718943226476
 10
39.2946880269814471
 20
31.5143338954468746
  0
LWPOLYLINE
  5
15E
100
AcDbEntity
  8
VectorEngraving
 62
256
370
-1
 48
1.0
  6
BYLAYER
100
AcDbPolyline
 90
13
 70
129
 10
39.8253232152894867
 20
34.4952220348510323
 10
40.3896852164137243
 20
34.4952220348510323
 10
41.3992411467116312
 20
32.5334457560427168
 10
41.3705733558178821
 20
34.4952220348510323
 10
41.8972737492973692
 20
34.4952220348510323
 10
41.8972737492973692
 20
34.4519392917369274
 42
0.1276856979477529
 10
41.8657953906689215
 20
34.3872962338392298
 42
0.045436926629328
 10
41.8584879145587507
 20
34.2748735244519338
 10
41.8584879145587507
 20
31.5143338954468746
 10
41.3565205171444745
 20
31.5143338954468746
 10
40.3132377740303554
 20
33.6053962900505852
 10
40.3132377740303554
 20
31.5143338954468746
 10
39.8253232152894867
 20
31.5143338954468746
  0
LWPOLYLINE
  5
15F
100
AcDbEntity
  8
VectorEngraving
 62
256
370
-1
 48
1.0
  6
BYLAYER
100
AcDbPolyline
 90
12
 70
129
 10
42.284007869589658
 20
31.5143338954468746
 10
42.284007869589658
 20
34.4952220348510323
 10
44.2266722878021312
 20
34.4952220348510323
 10
44.2266722878021312
 20
34.0550871275997693
 10
42.8101461495222111
 20
34.0550871275997693
 10
42.8101461495222111
 20
33.2894884766722825
 10
43.97315907813379
 20
33.2894884766722825
 10
43.97315907813379
 20
32.8442945474985919
 10
42.8101461495222111
 20
32.8442945474985919
 10
42.8101461495222111
 20
31.9544688026981412
 10
44.2120573355817896
 20
31.9544688026981412
 10
44.2120573355817896
 20
31.5143338954468746
  0
LWPOLYLINE
  5
160
100
AcDbEntity
  8
VectorEngraving
 62
256
370
-1
 48
1.0
  6
BYLAYER
100
AcDbPolyline
 90
39
 70
129
 10
8.4883361439010745
 20
108.4614952220348556
 42
-0.0824589363782324
 10
7.9307195053400861
 20
108.5500281056773417
 42
-0.1239231858746186
 10
7.4978920741989974
 20
108.8206857785272632
 10
7.7609612141652704
 20
109.2653175941540269
 10
7.7800730747611091
 20
109.3035413153456972
 10
7.8233558178752176
 20
109.2799325463743685
 42
0.0468697015838929
 10
7.8494940978077636
 20
109.2057335581787498
 42
0.0914502355628495
 10
7.9234120292299117
 20
109.1169196177627896
 42
0.0681594634041922
 10
8.1890106801573985
 20
108.9688026981450264
 42
0.0950027158644651
 10
8.507448004496915
 20
108.9111860595840398
 42
0.1544690761801468
 10
8.8733839235525664
 20
109.009274873524447
 42
0.2606540762175788
 10
9.0144744238336223
 20
109.2990444069702107
 42
0.1208512743438065
 10
8.9714727374929808
 20
109.4783586284429475
 42
0.1219613454318588
 10
8.8017144463181651
 20
109.6481169196177632
 42
0.0382540592904308
 10
8.4259415401911255
 20
109.8493535694210266
 42
-0.0581074828849046
 10
7.9402754356380072
 20
110.1194491287239998
 42
-0.1200427752267596
 10
7.6845137717819085
 20
110.4162450815064602
 42
-0.1126833292539358
 10
7.6080663293985467
 20
110.7774030354131582
 42
-0.1592312928671472
 10
7.7300449690837638
 20
111.1697582911748157
 42
-0.1317713073948732
 10
8.0673130972456519
 20
111.4423833614390134
 42
-0.1105525077854773
 10
8.5602866779089446
 20
111.5430016863406451
 42
-0.2184592046670142
 10
9.4641652613828064
 20
111.1602023608768945
 10
9.1482574480045038
 20
110.7965148960090005
 10
9.119589657110744
 20
110.7633501967397365
 10
9.081365935919063
 20
110.7920179876334998
 42
0.0525272950834902
 10
9.0647835862844381
 20
110.8659359190556444
 42
0.0946983163544496
 10
9.0004215851602112
 20
110.9589657110736312
 42
0.1239145974077365
 10
8.8064924114671257
 20
111.0741989881956187
 42
0.0674802657518249
 10
8.5647835862844381
 20
111.102866779089382
 42
0.1710695699773904
 10
8.2536537380550961
 20
111.0118043844856714
 42
0.239524175584421
 10
8.1387015177065862
 20
110.801573917931421
 42
0.1315107380140835
 10
8.1819842608206947
 20
110.6290050590219209
 42
0.11369573018315
 10
8.356801573917938
 20
110.4665542439572761
 42
0.0383547771664935
 10
8.7609612141652704
 20
110.2608206857785262
 42
-0.0534254991441983
 10
9.2345418774592538
 20
109.9904440697020789
 42
-0.1275968227178409
 10
9.4762507026419414
 20
109.7009555930297893
 42
-0.1042366901074579
 10
9.5456717256885959
 20
109.3327712197863946
 42
-0.1279801959423947
 10
9.4354974704890466
 20
108.9159640247330003
 42
-0.1467899336018283
 10
9.0909218662169842
 20
108.5882518268690262
 42
-0.1239665239213948
  0
LWPOLYLINE
  5
161
100
AcDbEntity
  8
VectorEngraving
 62
256
370
-1
 48
1.0
  6
BYLAYER
100
AcDbPolyline
 90
8
 70
129
 10
11.5113827993254709
 20
108.5143338954468817
 10
11.3056492411467193
 20
109.2079820123665002
 10
10.5259977515458196
 20
109.2079820123665002
 10
10.3152051714446404
 20
108.5143338954468817
 10
9.7795109612141733
 20
108.5143338954468817
 10
10.7890668915120926
 20
111.5143338954468817
 10
11.0476391231028757
 20
111.5143338954468817
 10
12.057195053400795
 20
108.5143338954468817
  0
LWPOLYLINE
  5
162
100
AcDbEntity
  8
VectorEngraving
 62
256
370
-1
 48
1.0
  6
BYLAYER
100
AcDbPolyline
 90
3
 70
129
 10
10.9183530073074841
 20
110.5143338954468817
 10
10.6406689151208624
 20
109.5958403597526711
 10
11.1909780775716783
 20
109.5958403597526711
  0
LWPOLYLINE
  5
163
100
AcDbEntity
  8
VectorEngraving
 62
256
370
-1
 48
1.0
  6
BYLAYER
100
AcDbPolyline
 90
13
 70
129
 10
12.5541034288926436
 20
108.5143338954468817
 10
12.1617481731309809
 20
111.4952220348510394
 10
12.6305508712760055
 20
111.4952220348510394
 10
12.8317875210792671
 20
109.6245081506464345
 10
13.2145868465430105
 20
111.2608206857785262
 10
13.5012647554806158
 20
111.2608206857785262
 10
13.8840640809443592
 20
109.6290050590219209
 10
14.0420179876335105
 20
111.4952220348510394
 10
14.4821528948847735
 20
111.4952220348510394
 10
14.0948566610455401
 20
108.5143338954468817
 10
13.7553400786959035
 20
108.5143338954468817
 10
13.3337549184935433
 20
110.3518830803822368
 10
12.9031759415401979
 20
108.5143338954468817
  0
LWPOLYLINE
  5
164
100
AcDbEntity
  8
VectorEngraving
 62
256
370
-1
 48
1.0
  6
BYLAYER
100
AcDbPolyline
 90
8
 70
129
 10
17.8115514333895533
 20
108.5143338954468817
 10
17.8115514333895533
 20
111.0404721753794348
 10
17.007729061270382
 20
111.0404721753794348
 10
17.007729061270382
 20
111.4952220348510394
 10
19.1752388982574544
 20
111.4952220348510394
 10
19.1752388982574544
 20
111.0404721753794348
 10
18.3281337830241782
 20
111.0404721753794348
 10
18.3281337830241782
 20
108.5143338954468817
  0
LWPOLYLINE
  5
165
100
AcDbEntity
  8
VectorEngraving
 62
256
370
-1
 48
1.0
  6
BYLAYER
100
AcDbPolyline
 90
8
 70
129
 10
20.495081506464313
 20
108.4569983136593407
 42
-0.2591303879110775
 10
19.6625913434513855
 20
108.8589094997189477
 42
-0.1527047570207481
 10
19.3804103428892702
 20
110.0022484541877503
 42
-0.1520552001393935
 10
19.6625913434513855
 20
111.1312535132096713
 42
-0.2609893822229286
 10
20.495081506464313
 20
111.5379426644182104
 42
-0.2598887638007879
 10
21.3205452501405368
 20
111.1312535132096713
 42
-0.1532357876440679
 10
21.6052557616638659
 20
110.0022484541877503
 42
-0.1538924925182056
 10
21.3205452501405368
 20
108.8589094997189477
 42
-0.258045980420003
  0
LWPOLYLINE
  5
166
100
AcDbEntity
  8
VectorEngraving
 62
256
370
-1
 48
1.0
  6
BYLAYER
100
AcDbPolyline
 90
8
 70
129
 10
20.495081506464313
 20
108.8971332209106322
 42
0.2924199676809356
 10
20.9161045531197374
 20
109.1722878021360259
 42
0.1214329083418638
 10
21.0689994378864611
 20
110.0073074761101708
 42
0.1202673064395732
 10
20.9161045531197374
 20
110.8130972456436183
 42
0.2966022124946812
 10
20.495081506464313
 20
111.0978077571669473
 42
0.299568827775365
 10
20.0667509836987144
 20
110.8130972456436183
 42
0.1186384765761926
 10
19.9161045531197374
 20
110.0073074761101708
 42
0.1197837217357385
 10
20.0667509836987144
 20
109.1722878021360259
 42
0.2952609534182742
  0
LWPOLYLINE
  5
167
100
AcDbEntity
  8
VectorEngraving
 62
256
370
-1
 48
1.0
  6
BYLAYER
100
AcDbPolyline
 90
8
 70
129
 10
24.9869308600337341
 20
108.5143338954468817
 10
24.9869308600337341
 20
111.0404721753794348
 10
24.1831084879145664
 20
111.0404721753794348
 10
24.1831084879145664
 20
111.4952220348510394
 10
26.3506183249016352
 20
111.4952220348510394
 10
26.3506183249016352
 20
111.0404721753794348
 10
25.503513209668359
 20
111.0404721753794348
 10
25.503513209668359
 20
108.5143338954468817
  0
LWPOLYLINE
  5
168
100
AcDbEntity
  8
VectorEngraving
 62
256
370
-1
 48
1.0
  6
BYLAYER
100
AcDbPolyline
 90
13
 70
129
 10
26.680016863406415
 20
108.5143338954468817
 10
26.680016863406415
 20
111.4952220348510394
 10
27.6226812816188918
 20
111.4952220348510394
 42
-0.1905232060051786
 10
28.4214446318156355
 20
111.2560427206295657
 42
-0.2148899109718989
 10
28.6749578414839874
 20
110.6194491287239998
 42
-0.100191379440136
 10
28.6058178752107999
 20
110.2917369308600399
 42
-0.0965402896310814
 10
28.4096402473299676
 20
109.9974704890387898
 42
-0.1106023788064027
 10
28.115654862282188
 20
109.8060708263069216
 10
28.7564643057897769
 20
108.5143338954468817
 10
28.1870432827431223
 20
108.5143338954468817
 10
27.5844575604272144
 20
109.7537942664418296
 10
27.2252670039348033
 20
109.7537942664418296
 10
27.2252670039348033
 20
108.5143338954468817
  0
LWPOLYLINE
  5
169
100
AcDbEntity
  8
VectorEngraving
 62
256
370
-1
 48
1.0
  6
BYLAYER
100
AcDbPolyline
 90
7
 70
129
 10
27.2252670039348033
 20
110.2034851039910137
 10
27.6609050028105763
 20
110.2034851039910137
 42
0.1918312228860046
 10
28.0051995503091682
 20
110.3111298482293421
 42
0.2154606779080738
 10
28.1201517706576816
 20
110.6053962900505923
 42
0.1955098707728835
 10
28.0051995503091682
 20
110.9019111860595785
 42
0.2146607426726912
 10
27.6609050028105763
 20
111.026419336706013
 10
27.2252670039348033
 20
111.026419336706013
  0
LWPOLYLINE
  5
16A
100
AcDbEntity
  8
VectorEngraving
 62
256
370
-1
 48
1.0
  6
BYLAYER
100
AcDbPolyline
 90
12
 70
129
 10
29.1915401911186123
 20
108.5143338954468817
 10
29.1915401911186123
 20
108.9499718943226583
 10
29.7750140528386815
 20
108.9499718943226583
 10
29.7750140528386815
 20
111.0595840359752629
 10
29.2247048903878657
 20
111.0595840359752629
 10
29.2247048903878657
 20
111.4952220348510394
 10
30.8705733558178821
 20
111.4952220348510394
 10
30.8705733558178821
 20
111.0595840359752629
 10
30.2870994940978164
 20
111.0595840359752629
 10
30.2870994940978164
 20
108.9499718943226583
 10
30.8947442383361519
 20
108.9499718943226583
 10
30.8947442383361519
 20
108.5143338954468817
  0
LWPOLYLINE
  5
16B
100
AcDbEntity
  8
VectorEngraving
 62
256
370
-1
 48
1.0
  6
BYLAYER
100
AcDbPolyline
 90
8
 70
129
 10
33.0375210792580134
 20
108.5143338954468817
 10
32.8317875210792636
 20
109.2079820123665002
 10
32.0521360314783692
 20
109.2079820123665002
 10
31.8413434513771847
 20
108.5143338954468817
 10
31.3056492411467175
 20
108.5143338954468817
 10
32.3152051714446387
 20
111.5143338954468817
 10
32.5737774030354217
 20
111.5143338954468817
 10
33.5833333333333428
 20
108.5143338954468817
  0
LWPOLYLINE
  5
16C
100
AcDbEntity
  8
VectorEngraving
 62
256
370
-1
 48
1.0
  6
BYLAYER
100
AcDbPolyline
 90
3
 70
129
 10
32.4444912872400266
 20
110.5143338954468817
 10
32.1668071950534085
 20
109.5958403597526711
 10
32.7171163575042243
 20
109.5958403597526711
  0
LWPOLYLINE
  5
16D
100
AcDbEntity
  8
VectorEngraving
 62
256
370
-1
 48
1.0
  6
BYLAYER
100
AcDbPolyline
 90
13
 70
129
 10
33.817172568858922
 20
111.4952220348510394
 10
34.3815345699831454
 20
111.4952220348510394
 10
35.3910905002810665
 20
109.5334457560427239
 10
35.3624227093873031
 20
111.4952220348510394
 10
35.8891231028667903
 20
111.4952220348510394
 10
35.8891231028667903
 20
111.4519392917369345
 42
0.1276856979477584
 10
35.8576447442383426
 20
111.3872962338392369
 42
0.0454369266293231
 10
35.8503372681281718
 20
111.274873524451948
 10
35.8503372681281718
 20
108.5143338954468817
 10
35.3483698707138956
 20
108.5143338954468817
 10
34.3050871275997764
 20
110.6053962900505923
 10
34.3050871275997764
 20
108.5143338954468817
 10
33.817172568858922
 20
108.5143338954468817
  0
LWPOLYLINE
  5
16E
100
AcDbEntity
  8
VectorEngraving
 62
256
370
-1
 48
1.0
  6
BYLAYER
100
AcDbPolyline
 90
30
 70
129
 10
37.352304665542448
 20
108.4614952220348556
 42
-0.1586089452901631
 10
36.7086846543001712
 20
108.6528948847667237
 42
-0.1435269886225792
 10
36.2949690837549213
 20
109.1888701517706579
 42
-0.0990234869126395
 10
36.1516301292861186
 20
109.9926925238898292
 42
-0.0941134427108389
 10
36.2736087689713429
 20
110.7703766160764474
 42
-0.1147907923109102
 10
36.5844575604272109
 20
111.2439572793704343
 42
-0.1080283260736153
 10
36.9790612703766257
 20
111.4783586284429475
 42
-0.0755668809636867
 10
37.3478077571669616
 20
111.5430016863406451
 42
-0.1248023965008441
 10
37.895587408656553
 20
111.4066891512085391
 42
-0.1515255901720945
 10
38.2854131534570001
 20
111.0213603147835926
 10
37.9695053400786975
 20
110.7105115233277104
 10
37.9408375491849483
 20
110.6767847105115266
 10
37.9076728499156843
 20
110.7105115233277104
 42
0.046497373175016
 10
37.8908094435075924
 20
110.784710511523329
 42
0.0790744500630879
 10
37.8306632939853955
 20
110.8825182686902764
 42
0.0965291984036562
 10
37.6420741989882046
 20
111.0359752670039342
 42
0.121944589606632
 10
37.3618605958403691
 20
111.0933108487914609
 42
0.1476595164000881
 10
37.0293704328274345
 20
110.9926925238898292
 42
0.1555793406301195
 10
36.7806351883080467
 20
110.6602023608768945
 42
0.0933033501345563
 10
36.6873243395165929
 20
110.0404721753794348
 42
0.1406135625353504
 10
36.8716975829117501
 20
109.1840921866216974
 42
0.2696925324160678
 10
37.352304665542448
 20
108.9016301292861186
 42
0.0654059016375403
 10
37.5892355255761714
 20
108.9328274311410922
 42
0.1135031983045808
 10
37.8070545250140526
 20
109.0500281056773417
 10
37.8070545250140526
 20
109.6003372681281576
 10
37.3140809443507635
 20
109.6003372681281576
 10
37.3140809443507635
 20
110.0500281056773417
 10
38.2949690837549213
 20
110.0500281056773417
 10
38.2949690837549213
 20
108.7729061270376576
 42
-0.0993875771291041
 10
37.8405002810567765
 20
108.5309162450815137
 42
-0.0710946541307916
  0
LWPOLYLINE
  5
16F
100
AcDbEntity
  8
VectorEngraving
 62
256
370
-1
 48
1.0
  6
BYLAYER
100
AcDbPolyline
 90
9
 70
129
 10
38.6963181562675729
 20
111.4952220348510394
 10
39.2848510399100661
 20
111.4952220348510394
 10
39.2848510399100661
 20
111.4519392917369345
 42
0.1523096199731572
 10
39.2491568296796061
 20
111.3872962338392369
 42
0.0437068677127889
 10
39.2421304103428952
 20
111.274873524451948
 10
39.2421304103428952
 20
108.9544688026981447
 10
40.6103147835862899
 20
108.9544688026981447
 10
40.6103147835862899
 20
108.5143338954468817
 10
38.6963181562675729
 20
108.5143338954468817
  0
LWPOLYLINE
  5
170
100
AcDbEntity
  8
VectorEngraving
 62
256
370
-1
 48
1.0
  6
BYLAYER
100
AcDbPolyline
 90
12
 70
129
 10
41.05944350758854
 20
108.5143338954468817
 10
41.05944350758854
 20
111.4952220348510394
 10
43.0021079258010133
 20
111.4952220348510394
 10
43.0021079258010133
 20
111.0550871275997764
 10
41.5855817875210789
 20
111.0550871275997764
 10
41.5855817875210789
 20
110.2894884766722896
 10
42.7485947161326578
 20
110.2894884766722896
 10
42.7485947161326578
 20
109.8442945474985919
 10
41.5855817875210789
 20
109.8442945474985919
 10
41.5855817875210789
 20
108.9544688026981447
 10
42.9874929735806717
 20
108.9544688026981447
 10
42.9874929735806717
 20
108.5143338954468817
  0
ENDSEC
  0
SECTION
  2
OBJECTS
  0
DICTIONARY
  5
C
100
AcDbDictionary
280
0
281
1
  3
ACAD_GROUP
350
D
  3
ACAD_LAYOUT
350
1A
  3
ACAD_MLINESTYLE
350
17
  3
ACAD_PLOTSETTINGS
350
19
  3
ACAD_PLOTSTYLENAME
350
E
  3
AcDbVariableDictionary
350
171
  3
QCAD_OBJECTS
350
172
  0
DICTIONARY
  5
D
100
AcDbDictionary
280
0
281
1
  0
ACDBDICTIONARYWDFLT
  5
E
100
AcDbDictionary
281
1
  3
Normal
350
F
100
AcDbDictionaryWithDefault
340
F
  0
ACDBPLACEHOLDER
  5
F
  0
DICTIONARY
  5
17
100
AcDbDictionary
280
0
281
1
  3
Standard
350
18
  0
MLINESTYLE
  5
18
100
AcDbMlineStyle
  2
STANDARD
 70
0
  3

 62
256
 51
90.0
 52
90.0
 71
2
 49
0.5
 62
256
  6
BYLAYER
 49
-0.5
 62
256
  6
BYLAYER
  0
DICTIONARY
  5
19
100
AcDbDictionary
280
0
281
1
  0
DICTIONARY
  5
1A
100
AcDbDictionary
281
1
  3
Layout1
350
1E
  3
Layout2
350
26
  3
Model
350
22
  0
LAYOUT
  5
1E
100
AcDbPlotSettings
  1

  2
none_device
  4

  6

 40
0.0
 41
0.0
 42
0.0
 43
0.0
 44
0.0
 45
0.0
 46
0.0
 47
0.0
 48
0.0
 49
0.0
140
0.0
141
0.0
142
1.0
143
1.0
 70
688
 72
0
 73
0
 74
5
  7

 75
16
147
1.0
148
0.0
149
0.0
100
AcDbLayout
  1
Layout1
 70
1
 71
1
 10
0.0
 20
0.0
 11
420.0
 21
297.0
 12
0.0
 22
0.0
 32
0.0
 14
100000000000000000000.0
 24
100000000000000000000.0
 34
100000000000000000000.0
 15
-100000000000000000000.0
 25
-100000000000000000000.0
 35
-100000000000000000000.0
146
0.0
 13
0.0
 23
0.0
 33
0.0
 16
1.0
 26
0.0
 36
0.0
 17
0.0
 27
1.0
 37
0.0
 76
0
330
1B
  0
LAYOUT
  5
22
100
AcDbPlotSettings
  1

  2
none_device
  4

  6

 40
0.0
 41
0.0
 42
0.0
 43
0.0
 44
0.0
 45
0.0
 46
0.0
 47
0.0
 48
0.0
 49
0.0
140
0.0
141
0.0
142
1.0
143
1.0
 70
1712
 72
0
 73
0
 74
0
  7

 75
0
147
1.0
148
0.0
149
0.0
100
AcDbLayout
  1
Model
 70
1
 71
0
 10
0.0
 20
0.0
 11
12.0
 21
9.0
 12
0.0
 22
0.0
 32
0.0
 14
0.0
 24
0.0
 34
0.0
 15
0.0
 25
0.0
 35
0.0
146
0.0
 13
0.0
 23
0.0
 33
0.0
 16
1.0
 26
0.0
 36
0.0
 17
0.0
 27
1.0
 37
0.0
 76
0
330
1F
  0
LAYOUT
  5
26
100
AcDbPlotSettings
  1

  2
none_device
  4

  6

 40
0.0
 41
0.0
 42
0.0
 43
0.0
 44
0.0
 45
0.0
 46
0.0
 47
0.0
 48
0.0
 49
0.0
140
0.0
141
0.0
142
1.0
143
1.0
 70
688
 72
0
 73
0
 74
5
  7

 75
16
147
1.0
148
0.0
149
0.0
100
AcDbLayout
  1
Layout2
 70
1
 71
2
 10
0.0
 20
0.0
 11
12.0
 21
9.0
 12
0.0
 22
0.0
 32
0.0
 14
0.0
 24
0.0
 34
0.0
 15
0.0
 25
0.0
 35
0.0
146
0.0
 13
0.0
 23
0.0
 33
0.0
 16
1.0
 26
0.0
 36
0.0
 17
0.0
 27
1.0
 37
0.0
 76
0
330
23
  0
DICTIONARY
  5
171
100
AcDbDictionary
281
1
  3
DIMASSOC
350
174
  3
HIDETEXT
350
173
  0
DICTIONARYVAR
  5
173
100
DictionaryVariables
280
0
  1
2
  0
DICTIONARYVAR
  5
174
100
DictionaryVariables
280
0
  1
1
  0
DICTIONARY
  5
172
100
AcDbDictionary
281
1
  3
ColorSettings/BackgroundColor
350
175
  3
ColorSettings/ColorMode
350
176
  3
Grid/DisplayGrid00
350
177
  3
Grid/DisplayGrid01
350
178
  3
Grid/DisplayGrid02
350
179
  3
Grid/DisplayGrid03
350
17A
  3
Grid/GridSpacingX00
350
17B
  3
Grid/GridSpacingX01
350
17C
  3
Grid/GridSpacingX02
350
17D
  3
Grid/GridSpacingX03
350
17E
  3
Grid/GridSpacingY00
350
17F
  3
Grid/GridSpacingY01
350
180
  3
Grid/GridSpacingY02
350
181
  3
Grid/GridSpacingY03
350
182
  3
Grid/IsometricGrid00
350
183
  3
Grid/IsometricGrid01
350
184
  3
Grid/IsometricGrid02
350
185
  3
Grid/IsometricGrid03
350
186
  3
Grid/IsometricProjection00
350
187
  3
Grid/IsometricProjection01
350
188
  3
Grid/IsometricProjection02
350
189
  3
Grid/IsometricProjection03
350
18A
  3
Grid/MetaGridSpacingX00
350
18B
  3
Grid/MetaGridSpacingX01
350
18C
  3
Grid/MetaGridSpacingX02
350
18D
  3
Grid/MetaGridSpacingX03
350
18E
  3
Grid/MetaGridSpacingY00
350
18F
  3
Grid/MetaGridSpacingY01
350
190
  3
Grid/MetaGridSpacingY02
350
191
  3
Grid/MetaGridSpacingY03
350
192
  3
MultiPageSettings/Columns
350
193
  3
MultiPageSettings/GlueMarginsBottom
350
194
  3
MultiPageSettings/GlueMarginsLeft
350
195
  3
MultiPageSettings/GlueMarginsRight
350
196
  3
MultiPageSettings/GlueMarginsTop
350
197
  3
MultiPageSettings/PrintCropMarks
350
198
  3
MultiPageSettings/Rows
350
199
  3
PageSettings/OffsetX
350
19A
  3
PageSettings/OffsetY
350
19B
  3
PageSettings/PageOrientation
350
19C
  3
PageSettings/PaperHeight
350
19D
  3
PageSettings/PaperWidth
350
19E
  3
PageSettings/Scale
350
19F
  3
PageSettings/ShowPaperBorders
350
1A0
  3
PageTagSettings/EnablePageTags
350
1A1
  3
PageTagSettings/TagAlignment
350
1A2
  3
PageTagSettings/TagFont
350
1A3
  3
PageTagSettings/TagPosition
350
1A4
  3
QCADVersion
350
1A5
  3
UnitSettings/PaperUnit
350
1A6
  3
ViewportCenter
350
1A7
  3
ViewportHeight
350
1A8
  3
ViewportWidth
350
1A9
  0
XRECORD
  5
175
330
172
100
AcDbXrecord
280
1
1000
White
  0
XRECORD
  5
176
330
172
100
AcDbXrecord
280
1
1000
FullColor
  0
XRECORD
  5
177
330
172
100
AcDbXrecord
280
1
290
1
  0
XRECORD
  5
178
330
172
100
AcDbXrecord
280
1
290
1
  0
XRECORD
  5
179
330
172
100
AcDbXrecord
280
1
290
1
  0
XRECORD
  5
17A
330
172
100
AcDbXrecord
280
1
290
1
  0
XRECORD
  5
17B
330
172
100
AcDbXrecord
280
1
1000
auto
  0
XRECORD
  5
17C
330
172
100
AcDbXrecord
280
1
1000
auto
  0
XRECORD
  5
17D
330
172
100
AcDbXrecord
280
1
1000
auto
  0
XRECORD
  5
17E
330
172
100
AcDbXrecord
280
1
1000
auto
  0
XRECORD
  5
17F
330
172
100
AcDbXrecord
280
1
1000
auto
  0
XRECORD
  5
180
330
172
100
AcDbXrecord
280
1
1000
auto
  0
XRECORD
  5
181
330
172
100
AcDbXrecord
280
1
1000
auto
  0
XRECORD
  5
182
330
172
100
AcDbXrecord
280
1
1000
auto
  0
XRECORD
  5
183
330
172
100
AcDbXrecord
280
1
290
0
  0
XRECORD
  5
184
330
172
100
AcDbXrecord
280
1
290
0
  0
XRECORD
  5
185
330
172
100
AcDbXrecord
280
1
290
0
  0
XRECORD
  5
186
330
172
100
AcDbXrecord
280
1
290
0
  0
XRECORD
  5
187
330
172
100
AcDbXrecord
280
1
 90
65537
  0
XRECORD
  5
188
330
172
100
AcDbXrecord
280
1
 90
65537
  0
XRECORD
  5
189
330
172
100
AcDbXrecord
280
1
 90
65537
  0
XRECORD
  5
18A
330
172
100
AcDbXrecord
280
1
 90
65537
  0
XRECORD
  5
18B
330
172
100
AcDbXrecord
280
1
1000
auto
  0
XRECORD
  5
18C
330
172
100
AcDbXrecord
280
1
1000
auto
  0
XRECORD
  5
18D
330
172
100
AcDbXrecord
280
1
1000
auto
  0
XRECORD
  5
18E
330
172
100
AcDbXrecord
280
1
1000
auto
  0
XRECORD
  5
18F
330
172
100
AcDbXrecord
280
1
1000
auto
  0
XRECORD
  5
190
330
172
100
AcDbXrecord
280
1
1000
auto
  0
XRECORD
  5
191
330
172
100
AcDbXrecord
280
1
1000
auto
  0
XRECORD
  5
192
330
172
100
AcDbXrecord
280
1
1000
auto
  0
XRECORD
  5
193
330
172
100
AcDbXrecord
280
1
 90
1
  0
XRECORD
  5
194
330
172
100
AcDbXrecord
280
1
 40
10.0
  0
XRECORD
  5
195
330
172
100
AcDbXrecord
280
1
 40
10.0
  0
XRECORD
  5
196
330
172
100
AcDbXrecord
280
1
 40
10.0
  0
XRECORD
  5
197
330
172
100
AcDbXrecord
280
1
 40
10.0
  0
XRECORD
  5
198
330
172
100
AcDbXrecord
280
1
290
0
  0
XRECORD
  5
199
330
172
100
AcDbXrecord
280
1
 90
1
  0
XRECORD
  5
19A
330
172
100
AcDbXrecord
280
1
 40
0.0
  0
XRECORD
  5
19B
330
172
100
AcDbXrecord
280
1
 40
0.0
  0
XRECORD
  5
19C
330
172
100
AcDbXrecord
280
1
1000
Portrait
  0
XRECORD
  5
19D
330
172
100
AcDbXrecord
280
1
 40
297.0
  0
XRECORD
  5
19E
330
172
100
AcDbXrecord
280
1
 40
210.0
  0
XRECORD
  5
19F
330
172
100
AcDbXrecord
280
1
1000
1:1
  0
XRECORD
  5
1A0
330
172
100
AcDbXrecord
280
1
290
1
  0
XRECORD
  5
1A1
330
172
100
AcDbXrecord
280
1
290
0
  0
XRECORD
  5
1A2
330
172
100
AcDbXrecord
280
1
1000
Inside
  0
XRECORD
  5
1A3
330
172
100
AcDbXrecord
280
1
1000
Arial,10,-1,5,50,0,0,0,0,0
  0
XRECORD
  5
1A4
330
172
100
AcDbXrecord
280
1
1000
TopLeft
  0
XRECORD
  5
1A5
330
172
100
AcDbXrecord
280
1
1000
3.27.6.7
  0
XRECORD
  5
1A6
330
172
100
AcDbXrecord
280
1
 90
4
  0
XRECORD
  5
1A8
330
172
100
AcDbXrecord
280
1
 40
212.0515289024134802
  0
XRECORD
  5
1A9
330
172
100
AcDbXrecord
280
1
 40
438.6413604719855357
  0
ENDSEC
  0
EOF
