999
dxflib 3.26.4.0
  0
SECTION
  2
HEADER
  9
$ACADVER
  1
AC1015
  9
$HANDSEED
  5
FFFF
  9
$DIMADEC
 70
0
  9
$DIMASZ
 40
2.5
  9
$DIMATFIT
 70
0
  9
$DIMAUNIT
 70
0
  9
$DIMAZIN
 70
2
  9
$DIMBLK
  1
0
  9
$DIMBLK1
  1
0
  9
$DIMBLK2
  1
0
  9
$DIMDEC
 70
4
  9
$DIMDLI
 40
5.0
  9
$DIMDSEP
 70
46
  9
$DIMEXE
 40
1.25
  9
$DIMEXO
 40
0.625
  9
$DIMGAP
 40
0.625
  9
$DIMLFAC
 40
1.0
  9
$DIMLUNIT
 70
2
  9
$DIMSCALE
 40
1.0
  9
$DIMTAD
 70
1
  9
$DIMTIH
 70
0
  9
$DIMTSZ
 40
0.0
  9
$DIMTXT
 40
2.5
  9
$DIMZIN
 70
8
  9
$DWGCODEPAGE
  3
ANSI_1252
  9
$INSUNITS
 70
4
  9
$LTSCALE
 40
1.0
  9
$MAXACTVP
 70
64
  9
$MEASUREMENT
 70
1
  9
$MIRRTEXT
 70
0
  9
$PDMODE
 70
0
  9
$PDSIZE
 40
0.0
  0
ENDSEC
  0
SECTION
  2
TABLES
  0
TABLE
  2
VPORT
  5
8
100
AcDbSymbolTable
 70
1
  0
VPORT
  5
30
100
AcDbSymbolTableRecord
100
AcDbViewportTableRecord
  2
*Active
 70
0
 10
0.0
 20
0.0
 11
1.0
 21
1.0
 12
286.3055555555554861
 22
148.5
 13
0.0
 23
0.0
 14
10.0
 24
10.0
 15
10.0
 25
10.0
 16
0.0
 26
0.0
 36
1.0
 17
0.0
 27
0.0
 37
0.0
 40
297.0
 41
1.92798353909465
 42
50.0
 43
0.0
 44
0.0
 50
0.0
 51
0.0
 71
0
 72
100
 73
1
 74
3
 75
1
 76
1
 77
0
 78
0
281
0
 65
1
110
0.0
120
0.0
130
0.0
111
1.0
121
0.0
131
0.0
112
0.0
122
1.0
132
0.0
 79
0
146
0.0
  0
ENDTAB
  0
TABLE
  2
LTYPE
  5
5
100
AcDbSymbolTable
 70
41
  0
LTYPE
  5
16
100
AcDbSymbolTableRecord
100
AcDbLinetypeTableRecord
  2
Continuous
 70
0
  3
Solid line
 72
65
 73
0
 40
0.0
  0
LTYPE
  5
31
100
AcDbSymbolTableRecord
100
AcDbLinetypeTableRecord
  2
DIVIDEX2
 70
0
  3
Divide (2x) ________  .  .  ________  .  .  _
 72
65
 73
6
 40
63.5
 49
25.3999999999999986
 74
0
 49
-12.6499999999999986
 74
0
 49
0.1
 74
0
 49
-12.5999999999999979
 74
0
 49
0.1
 74
0
 49
-12.6499999999999986
 74
0
  0
LTYPE
  5
32
100
AcDbSymbolTableRecord
100
AcDbLinetypeTableRecord
  2
DOT
 70
0
  3
Dot . . . . . . . . . . . . . . . . . . . . . . . .
 72
65
 73
2
 40
6.3499999999999996
 49
0.1
 74
0
 49
-6.25
 74
0
  0
LTYPE
  5
33
100
AcDbSymbolTableRecord
100
AcDbLinetypeTableRecord
  2
DOT2
 70
0
  3
Dot (.5x) ........................................
 72
65
 73
2
 40
3.1749999999999998
 49
0.1
 74
0
 49
-3.0749999999999997
 74
0
  0
LTYPE
  5
34
100
AcDbSymbolTableRecord
100
AcDbLinetypeTableRecord
  2
CENTERX2
 70
0
  3
Center (2x) ________  __  ________  __  _____
 72
65
 73
4
 40
101.6000000000000085
 49
63.5
 74
0
 49
-12.6999999999999993
 74
0
 49
12.6999999999999993
 74
0
 49
-12.6999999999999993
 74
0
  0
LTYPE
  5
35
100
AcDbSymbolTableRecord
100
AcDbLinetypeTableRecord
  2
ACAD_ISO14W100
 70
0
  3
ISO dash triple-dot __ . . . __ . . . __ . . . _
 72
65
 73
8
 40
24.0000000000000036
 49
12.0
 74
0
 49
-2.9500000000000002
 74
0
 49
0.1
 74
0
 49
-2.9000000000000004
 74
0
 49
0.1
 74
0
 49
-2.9000000000000004
 74
0
 49
0.1
 74
0
 49
-2.9500000000000002
 74
0
  0
LTYPE
  5
36
100
AcDbSymbolTableRecord
100
AcDbLinetypeTableRecord
  2
ACAD_ISO05W100
 70
0
  3
ISO long-dash double-dot ____ .. ____ .. ____ . 
 72
65
 73
6
 40
33.0000000000000071
 49
24.0
 74
0
 49
-2.9500000000000002
 74
0
 49
0.1
 74
0
 49
-2.9000000000000004
 74
0
 49
0.1
 74
0
 49
-2.9500000000000002
 74
0
  0
LTYPE
  5
37
100
AcDbSymbolTableRecord
100
AcDbLinetypeTableRecord
  2
PHANTOM2
 70
0
  3
Phantom (.5x) ___ _ _ ___ _ _ ___ _ _ ___ _ _
 72
65
 73
6
 40
31.7500000000000036
 49
15.875
 74
0
 49
-3.1749999999999998
 74
0
 49
3.1749999999999998
 74
0
 49
-3.1749999999999998
 74
0
 49
3.1749999999999998
 74
0
 49
-3.1749999999999998
 74
0
  0
LTYPE
  5
38
100
AcDbSymbolTableRecord
100
AcDbLinetypeTableRecord
  2
ACAD_ISO03W100
 70
0
  3
ISO dash space __    __    __    __    __    __
 72
65
 73
2
 40
30.0
 49
12.0
 74
0
 49
-18.0
 74
0
  0
LTYPE
  5
39
100
AcDbSymbolTableRecord
100
AcDbLinetypeTableRecord
  2
BORDER
 70
0
  3
Border __ __ . __ __ . __ __ . __ __ . __ __ .
 72
65
 73
6
 40
44.4499999999999957
 49
12.6999999999999993
 74
0
 49
-6.3499999999999996
 74
0
 49
12.6999999999999993
 74
0
 49
-6.2999999999999998
 74
0
 49
0.1
 74
0
 49
-6.2999999999999998
 74
0
  0
LTYPE
  5
3A
100
AcDbSymbolTableRecord
100
AcDbLinetypeTableRecord
  2
ACAD_ISO15W100
 70
0
  3
ISO double-dash triple-dot __ __ . . . __ __ . .
 72
65
 73
10
 40
39.0000000000000071
 49
12.0
 74
0
 49
-3.0
 74
0
 49
12.0
 74
0
 49
-2.9500000000000002
 74
0
 49
0.1
 74
0
 49
-2.9000000000000004
 74
0
 49
0.1
 74
0
 49
-2.9000000000000004
 74
0
 49
0.1
 74
0
 49
-2.9500000000000002
 74
0
  0
LTYPE
  5
3B
100
AcDbSymbolTableRecord
100
AcDbLinetypeTableRecord
  2
DASHDOT2
 70
0
  3
Dash dot (.5x) _._._._._._._._._._._._._._._.
 72
65
 73
4
 40
12.6999999999999993
 49
6.3499999999999996
 74
0
 49
-3.125
 74
0
 49
0.1
 74
0
 49
-3.125
 74
0
  0
LTYPE
  5
3C
100
AcDbSymbolTableRecord
100
AcDbLinetypeTableRecord
  2
ACAD_ISO12W100
 70
0
  3
ISO dash double-dot __ . . __ . . __ . . __ . . 
 72
65
 73
6
 40
21.0
 49
12.0
 74
0
 49
-2.9500000000000002
 74
0
 49
0.1
 74
0
 49
-2.9000000000000004
 74
0
 49
0.1
 74
0
 49
-2.9500000000000002
 74
0
  0
LTYPE
  5
3D
100
AcDbSymbolTableRecord
100
AcDbLinetypeTableRecord
  2
ACAD_ISO04W100
 70
0
  3
ISO long-dash dot ____ . ____ . ____ . ____ . _
 72
65
 73
4
 40
30.0
 49
24.0
 74
0
 49
-2.9500000000000002
 74
0
 49
0.1
 74
0
 49
-2.9500000000000002
 74
0
  0
LTYPE
  5
3E
100
AcDbSymbolTableRecord
100
AcDbLinetypeTableRecord
  2
ACAD_ISO10W100
 70
0
  3
ISO dash dot __ . __ . __ . __ . __ . __ . __ . 
 72
65
 73
4
 40
18.0
 49
12.0
 74
0
 49
-2.9500000000000002
 74
0
 49
0.1
 74
0
 49
-2.9500000000000002
 74
0
  0
LTYPE
  5
3F
100
AcDbSymbolTableRecord
100
AcDbLinetypeTableRecord
  2
BORDER2
 70
0
  3
Border (.5x) __.__.__.__.__.__.__.__.__.__.__.
 72
65
 73
6
 40
22.2250000000000014
 49
6.3499999999999996
 74
0
 49
-3.1749999999999998
 74
0
 49
6.3499999999999996
 74
0
 49
-3.125
 74
0
 49
0.1
 74
0
 49
-3.125
 74
0
  0
LTYPE
  5
15
100
AcDbSymbolTableRecord
100
AcDbLinetypeTableRecord
  2
BYLAYER
 70
0
  3

 72
65
 73
0
 40
0.0
  0
LTYPE
  5
40
100
AcDbSymbolTableRecord
100
AcDbLinetypeTableRecord
  2
DIVIDE
 70
0
  3
Divide ____ . . ____ . . ____ . . ____ . . ____
 72
65
 73
6
 40
31.7500000000000036
 49
12.6999999999999993
 74
0
 49
-6.2999999999999998
 74
0
 49
0.1
 74
0
 49
-6.25
 74
0
 49
0.1
 74
0
 49
-6.2999999999999998
 74
0
  0
LTYPE
  5
41
100
AcDbSymbolTableRecord
100
AcDbLinetypeTableRecord
  2
ACAD_ISO06W100
 70
0
  3
ISO long-dash triple-dot ____ ... ____ ... ____
 72
65
 73
8
 40
36.0000000000000071
 49
24.0
 74
0
 49
-2.9500000000000002
 74
0
 49
0.1
 74
0
 49
-2.9000000000000004
 74
0
 49
0.1
 74
0
 49
-2.9000000000000004
 74
0
 49
0.1
 74
0
 49
-2.9500000000000002
 74
0
  0
LTYPE
  5
42
100
AcDbSymbolTableRecord
100
AcDbLinetypeTableRecord
  2
ACAD_ISO07W100
 70
0
  3
ISO dot . . . . . . . . . . . . . . . . . . . . 
 72
65
 73
2
 40
3.0
 49
0.1
 74
0
 49
-2.8999999999999999
 74
0
  0
LTYPE
  5
43
100
AcDbSymbolTableRecord
100
AcDbLinetypeTableRecord
  2
DOTX2
 70
0
  3
Dot (2x) .  .  .  .  .  .  .  .  .  .  .  .  .  .
 72
65
 73
2
 40
12.6999999999999993
 49
0.1
 74
0
 49
-12.5999999999999996
 74
0
  0
LTYPE
  5
44
100
AcDbSymbolTableRecord
100
AcDbLinetypeTableRecord
  2
HIDDENX2
 70
0
  3
Hidden (2x) ____ ____ ____ ____ ____ ____ ____ 
 72
65
 73
2
 40
19.0499999999999972
 49
12.6999999999999993
 74
0
 49
-6.3499999999999996
 74
0
  0
LTYPE
  5
45
100
AcDbSymbolTableRecord
100
AcDbLinetypeTableRecord
  2
DASHED
 70
0
  3
Dashed __ __ __ __ __ __ __ __ __ __ __ __ __ _
 72
65
 73
2
 40
19.0499999999999972
 49
12.6999999999999993
 74
0
 49
-6.3499999999999996
 74
0
  0
LTYPE
  5
46
100
AcDbSymbolTableRecord
100
AcDbLinetypeTableRecord
  2
DASHEDX2
 70
0
  3
Dashed (2x) ____  ____  ____  ____  ____  ___
 72
65
 73
2
 40
38.0999999999999943
 49
25.3999999999999986
 74
0
 49
-12.6999999999999993
 74
0
  0
LTYPE
  5
47
100
AcDbSymbolTableRecord
100
AcDbLinetypeTableRecord
  2
ACAD_ISO08W100
 70
0
  3
ISO long-dash short-dash ____ __ ____ __ ____ _
 72
65
 73
4
 40
36.0
 49
24.0
 74
0
 49
-3.0
 74
0
 49
6.0
 74
0
 49
-3.0
 74
0
  0
LTYPE
  5
48
100
AcDbSymbolTableRecord
100
AcDbLinetypeTableRecord
  2
PHANTOMX2
 70
0
  3
Phantom (2x) ____________    ____    ____   _
 72
65
 73
6
 40
127.0000000000000142
 49
63.5
 74
0
 49
-12.6999999999999993
 74
0
 49
12.6999999999999993
 74
0
 49
-12.6999999999999993
 74
0
 49
12.6999999999999993
 74
0
 49
-12.6999999999999993
 74
0
  0
LTYPE
  5
49
100
AcDbSymbolTableRecord
100
AcDbLinetypeTableRecord
  2
DIVIDE2
 70
0
  3
Divide (.5x) __..__..__..__..__..__..__..__.._
 72
65
 73
6
 40
15.8749999999999982
 49
6.3499999999999996
 74
0
 49
-3.125
 74
0
 49
0.1
 74
0
 49
-3.0750000000000002
 74
0
 49
0.1
 74
0
 49
-3.125
 74
0
  0
LTYPE
  5
4A
100
AcDbSymbolTableRecord
100
AcDbLinetypeTableRecord
  2
HIDDEN2
 70
0
  3
Hidden (.5x) _ _ _ _ _ _ _ _ _ _ _ _ _ _ _ _ _ 
 72
65
 73
2
 40
4.7624999999999993
 49
3.1749999999999998
 74
0
 49
-1.5874999999999999
 74
0
  0
LTYPE
  5
4B
100
AcDbSymbolTableRecord
100
AcDbLinetypeTableRecord
  2
DASHDOTX2
 70
0
  3
Dash dot (2x) ____  .  ____  .  ____  .  ___
 72
65
 73
4
 40
50.7999999999999972
 49
25.3999999999999986
 74
0
 49
-12.6499999999999986
 74
0
 49
0.1
 74
0
 49
-12.6499999999999986
 74
0
  0
LTYPE
  5
4C
100
AcDbSymbolTableRecord
100
AcDbLinetypeTableRecord
  2
CENTER2
 70
0
  3
Center (.5x) ___ _ ___ _ ___ _ ___ _ ___ _ ___
 72
65
 73
4
 40
28.5750000000000028
 49
19.0500000000000007
 74
0
 49
-3.1749999999999998
 74
0
 49
3.1749999999999998
 74
0
 49
-3.1749999999999998
 74
0
  0
LTYPE
  5
4D
100
AcDbSymbolTableRecord
100
AcDbLinetypeTableRecord
  2
DASHDOT
 70
0
  3
Dash dot __ . __ . __ . __ . __ . __ . __ . __
 72
65
 73
4
 40
25.4000000000000021
 49
12.6999999999999993
 74
0
 49
-6.2999999999999998
 74
0
 49
0.1
 74
0
 49
-6.2999999999999998
 74
0
  0
LTYPE
  5
4E
100
AcDbSymbolTableRecord
100
AcDbLinetypeTableRecord
  2
ACAD_ISO09W100
 70
0
  3
ISO long-dash double-short-dash ____ __ __ ____
 72
65
 73
6
 40
45.0
 49
24.0
 74
0
 49
-3.0
 74
0
 49
6.0
 74
0
 49
-3.0
 74
0
 49
6.0
 74
0
 49
-3.0
 74
0
  0
LTYPE
  5
4F
100
AcDbSymbolTableRecord
100
AcDbLinetypeTableRecord
  2
ACAD_ISO11W100
 70
0
  3
ISO double-dash dot __ __ . __ __ . __ __ . __ _
 72
65
 73
6
 40
33.0
 49
12.0
 74
0
 49
-3.0
 74
0
 49
12.0
 74
0
 49
-2.9500000000000002
 74
0
 49
0.1
 74
0
 49
-2.9500000000000002
 74
0
  0
LTYPE
  5
50
100
AcDbSymbolTableRecord
100
AcDbLinetypeTableRecord
  2
DASHED2
 70
0
  3
Dashed (.5x) _ _ _ _ _ _ _ _ _ _ _ _ _ _ _ _ _ 
 72
65
 73
2
 40
9.5249999999999986
 49
6.3499999999999996
 74
0
 49
-3.1749999999999998
 74
0
  0
LTYPE
  5
51
100
AcDbSymbolTableRecord
100
AcDbLinetypeTableRecord
  2
CENTER
 70
0
  3
Center ____ _ ____ _ ____ _ ____ _ ____ _ ____
 72
65
 73
4
 40
50.8000000000000043
 49
31.75
 74
0
 49
-6.3499999999999996
 74
0
 49
6.3499999999999996
 74
0
 49
-6.3499999999999996
 74
0
  0
LTYPE
  5
52
100
AcDbSymbolTableRecord
100
AcDbLinetypeTableRecord
  2
HIDDEN
 70
0
  3
Hidden __ __ __ __ __ __ __ __ __ __ __ __ __ __
 72
65
 73
2
 40
9.5249999999999986
 49
6.3499999999999996
 74
0
 49
-3.1749999999999998
 74
0
  0
LTYPE
  5
53
100
AcDbSymbolTableRecord
100
AcDbLinetypeTableRecord
  2
PHANTOM
 70
0
  3
Phantom ______  __  __  ______  __  __  ______ 
 72
65
 73
6
 40
63.5000000000000071
 49
31.75
 74
0
 49
-6.3499999999999996
 74
0
 49
6.3499999999999996
 74
0
 49
-6.3499999999999996
 74
0
 49
6.3499999999999996
 74
0
 49
-6.3499999999999996
 74
0
  0
LTYPE
  5
14
100
AcDbSymbolTableRecord
100
AcDbLinetypeTableRecord
  2
BYBLOCK
 70
0
  3

 72
65
 73
0
 40
0.0
  0
LTYPE
  5
54
100
AcDbSymbolTableRecord
100
AcDbLinetypeTableRecord
  2
ACAD_ISO13W100
 70
0
  3
ISO double-dash double-dot __ __ . . __ __ . . _
 72
65
 73
8
 40
36.0000000000000071
 49
12.0
 74
0
 49
-3.0
 74
0
 49
12.0
 74
0
 49
-2.9500000000000002
 74
0
 49
0.1
 74
0
 49
-2.9000000000000004
 74
0
 49
0.1
 74
0
 49
-2.9500000000000002
 74
0
  0
LTYPE
  5
55
100
AcDbSymbolTableRecord
100
AcDbLinetypeTableRecord
  2
ACAD_ISO02W100
 70
0
  3
ISO dash __ __ __ __ __ __ __ __ __ __ __ __ __
 72
65
 73
2
 40
15.0
 49
12.0
 74
0
 49
-3.0
 74
0
  0
LTYPE
  5
56
100
AcDbSymbolTableRecord
100
AcDbLinetypeTableRecord
  2
BORDERX2
 70
0
  3
Border (2x) ____  ____  .  ____  ____  .  ___
 72
65
 73
6
 40
88.8999999999999773
 49
25.3999999999999986
 74
0
 49
-12.6999999999999993
 74
0
 49
25.3999999999999986
 74
0
 49
-12.6499999999999986
 74
0
 49
0.1
 74
0
 49
-12.6499999999999986
 74
0
  0
ENDTAB
  0
TABLE
  2
LAYER
  5
2
100
AcDbSymbolTable
 70
5
  0
LAYER
  5
57
100
AcDbSymbolTableRecord
100
AcDbLayerTableRecord
  2
AreaEngraving
 70
0
 62
3
420
65280
  6
Continuous
370
13
390
F
  0
LAYER
  5
58
100
AcDbSymbolTableRecord
100
AcDbLayerTableRecord
  2
VectorEngraving
 70
0
 62
5
420
255
  6
Continuous
370
13
390
F
  0
LAYER
  5
59
100
AcDbSymbolTableRecord
100
AcDbLayerTableRecord
  2
UserDrawings
 70
0
 62
9
420
12632256
  6
Continuous
370
13
390
F
  0
LAYER
  5
10
100
AcDbSymbolTableRecord
100
AcDbLayerTableRecord
  2
0
 70
0
 62
2
420
16776960
  6
Continuous
370
13
390
F
  0
LAYER
  5
5A
100
AcDbSymbolTableRecord
100
AcDbLayerTableRecord
  2
Cuts
 70
0
 62
1
420
16711680
  6
Continuous
370
13
390
F
  0
ENDTAB
  0
TABLE
  2
STYLE
  5
3
100
AcDbSymbolTable
 70
1
  0
STYLE
  5
5B
100
AcDbSymbolTableRecord
100
AcDbTextStyleTableRecord
  2
Standard
 70
0
 40
0.0
 41
1.0
 50
0.0
 71
0
 42
2.5
  3

  4

1001
ACAD
1000
txt
1071
0
  0
ENDTAB
  0
TABLE
  2
VIEW
  5
6
100
AcDbSymbolTable
 70
0
  0
ENDTAB
  0
TABLE
  2
UCS
  5
7
100
AcDbSymbolTable
 70
0
  0
ENDTAB
  0
TABLE
  2
APPID
  5
9
100
AcDbSymbolTable
 70
1
  0
APPID
  5
12
100
AcDbSymbolTableRecord
100
AcDbRegAppTableRecord
  2
ACAD
 70
0
  0
APPID
  5
5C
100
AcDbSymbolTableRecord
100
AcDbRegAppTableRecord
  2
QCAD
 70
0
  0
ENDTAB
  0
TABLE
  2
DIMSTYLE
  5
A
100
AcDbSymbolTable
 70
1
100
AcDbDimStyleTable
 71
0
  0
DIMSTYLE
105
27
100
AcDbSymbolTableRecord
100
AcDbDimStyleTableRecord
  2
Standard
 41
2.5
 42
0.625
 43
3.75
 44
1.25
 70
0
 73
0
 74
0
 77
1
 78
8
140
2.5
141
2.5
143
0.03937007874016
147
0.625
171
3
172
1
271
2
272
2
274
3
278
44
283
0
284
8
340
5B
  0
ENDTAB
  0
TABLE
  2
BLOCK_RECORD
  5
1
100
AcDbSymbolTable
 70
1
  0
BLOCK_RECORD
  5
1F
100
AcDbSymbolTableRecord
100
AcDbBlockTableRecord
  2
*Model_Space
340
22
  0
BLOCK_RECORD
  5
1B
100
AcDbSymbolTableRecord
100
AcDbBlockTableRecord
  2
*Paper_Space
340
1E
  0
BLOCK_RECORD
  5
23
100
AcDbSymbolTableRecord
100
AcDbBlockTableRecord
  2
*Paper_Space0
340
26
  0
BLOCK_RECORD
  5
5D
100
AcDbSymbolTableRecord
100
AcDbBlockTableRecord
  2
block 3
340
0
  0
BLOCK_RECORD
  5
5E
100
AcDbSymbolTableRecord
100
AcDbBlockTableRecord
  2
block 5
340
0
  0
BLOCK_RECORD
  5
5F
100
AcDbSymbolTableRecord
100
AcDbBlockTableRecord
  2
SmallPotGauge
340
0
  0
BLOCK_RECORD
  5
60
100
AcDbSymbolTableRecord
100
AcDbBlockTableRecord
  2
block 7
340
0
  0
BLOCK_RECORD
  5
61
100
AcDbSymbolTableRecord
100
AcDbBlockTableRecord
  2
block 6
340
0
  0
BLOCK_RECORD
  5
62
100
AcDbSymbolTableRecord
100
AcDbBlockTableRecord
  2
RW_Logo_Trans
340
0
  0
BLOCK_RECORD
  5
63
100
AcDbSymbolTableRecord
100
AcDbBlockTableRecord
  2
block 8
340
0
  0
BLOCK_RECORD
  5
64
100
AcDbSymbolTableRecord
100
AcDbBlockTableRecord
  2
block 1
340
0
  0
BLOCK_RECORD
  5
65
100
AcDbSymbolTableRecord
100
AcDbBlockTableRecord
  2
LargePotGauge
340
0
  0
BLOCK_RECORD
  5
66
100
AcDbSymbolTableRecord
100
AcDbBlockTableRecord
  2
block 4
340
0
  0
BLOCK_RECORD
  5
67
100
AcDbSymbolTableRecord
100
AcDbBlockTableRecord
  2
block 2
340
0
  0
ENDTAB
  0
ENDSEC
  0
SECTION
  2
BLOCKS
  0
BLOCK
  5
20
100
AcDbEntity
  8
0
100
AcDbBlockBegin
  2
*Model_Space
 70
0
 10
0.0
 20
0.0
 30
0.0
  3
*Model_Space
  1

  0
ENDBLK
  5
21
100
AcDbEntity
  8
0
100
AcDbBlockEnd
  0
BLOCK
  5
1C
100
AcDbEntity
 67
1
  8
0
100
AcDbBlockBegin
  2
*Paper_Space
 70
0
 10
0.0
 20
0.0
 30
0.0
  3
*Paper_Space
  1

  0
ENDBLK
  5
1D
100
AcDbEntity
 67
1
  8
0
100
AcDbBlockEnd
  0
BLOCK
  5
24
100
AcDbEntity
  8
0
100
AcDbBlockBegin
  2
*Paper_Space0
 70
0
 10
0.0
 20
0.0
 30
0.0
  3
*Paper_Space0
  1

  0
ENDBLK
  5
25
100
AcDbEntity
  8
0
100
AcDbBlockEnd
  0
BLOCK
  5
68
100
AcDbEntity
  8
0
100
AcDbBlockBegin
  2
block 3
 70
0
 10
0.0
 20
0.0
 30
0.0
  3
block 3
  1

  0
INSERT
  5
69
100
AcDbEntity
  8
VectorEngraving
 62
256
370
-1
 48
1.0
  6
BYLAYER
100
AcDbBlockReference
  2
SmallPotGauge
 10
-105.0126316216625355
 20
145.1543371675010121
 30
0.0
  0
ENDBLK
  5
6A
100
AcDbEntity
  8
0
100
AcDbBlockEnd
  0
BLOCK
  5
6B
100
AcDbEntity
  8
0
100
AcDbBlockBegin
  2
block 5
 70
0
 10
0.0
 20
0.0
 30
0.0
  3
block 5
  1

  0
LWPOLYLINE
  5
6C
100
AcDbEntity
  8
0
 62
256
370
-1
 48
1.0
  6
BYLAYER
100
AcDbPolyline
 90
20
 70
128
 10
-363.1093789999999899
 20
132.2832050000000095
 10
-363.1093789999999899
 20
116.4570330000000098
 10
-382.0058629999999766
 20
116.4570330000000098
 10
-382.0058629999999766
 20
84.8027360000000101
 10
-363.1093789999999899
 20
84.8027360000000101
 10
-363.1093789999999899
 20
-8.9277349999999842
 10
-382.0058629999999766
 20
-8.9277349999999842
 10
-382.0058629999999766
 20
-40.5800749999999937
 10
-363.1093789999999899
 20
-40.5800749999999937
 10
-363.1093789999999899
 20
-56.3769549999999811
 10
-363.1093789999999899
 20
-132.2832050000000095
 10
-274.9199249999999779
 20
-132.2832050000000095
 10
-274.9199249999999779
 20
-56.3769550000000095
 10
-254.4003949999999747
 20
-56.3769550000000095
 10
-226.7734449999999811
 20
-132.2832050000000095
 10
-138.5839849999999842
 20
-132.2832050000000095
 10
-176.8964849999999842
 20
-27.0175749999999937
 42
0.1923579134144613
 10
-150.8671949999999242
 20
37.9531270000090473
 42
0.4142131276425501
 10
-245.1972649974722458
 20
132.2832049999999811
 10
-363.1093789999999899
 20
132.2832050000000095
  0
LWPOLYLINE
  5
6D
100
AcDbEntity
  8
0
 62
256
370
-1
 48
1.0
  6
BYLAYER
100
AcDbPolyline
 90
6
 70
128
 10
-274.9199249999999779
 20
68.9921890000000104
 10
-253.1074249999999779
 20
68.9921890000000104
 42
-0.4142108826965076
 10
-222.0703149999999937
 20
37.9531269999891805
 42
-0.4141924816972828
 10
-253.1074249999999779
 20
6.91601500000003
 10
-274.9199249999999779
 20
6.9160150000000158
 10
-274.9199249999999779
 20
68.9921890000000104
  0
LWPOLYLINE
  5
6E
100
AcDbEntity
  8
0
 62
256
370
-1
 48
1.0
  6
BYLAYER
100
AcDbPolyline
 90
5
 70
128
 10
56.2519449999999779
 20
132.2832050000000095
 10
4.0527350000000411
 20
-11.1347649999999874
 10
48.1464849999999842
 20
-132.2832050000000095
 10
100.3476550000000316
 20
11.1347649999999874
 10
56.2519449999999779
 20
132.2832050000000095
  0
LWPOLYLINE
  5
6F
100
AcDbEntity
  8
0
 62
256
370
-1
 48
1.0
  6
BYLAYER
100
AcDbPolyline
 90
5
 70
128
 10
-136.3359449999999811
 20
132.2832050000000095
 10
-40.0410149999999589
 20
-132.2832050000000095
 10
48.1464849999999842
 20
-132.2832050000000095
 10
-48.1464849999999842
 20
132.2832050000000095
 10
-136.3359449999999811
 20
132.2832050000000095
  0
LWPOLYLINE
  5
70
100
AcDbEntity
  8
0
 62
256
370
-1
 48
1.0
  6
BYLAYER
100
AcDbPolyline
 90
8
 70
128
 10
56.2519449999999779
 20
132.2832050000000095
 10
152.546875
 20
-132.2832050000000095
 10
240.7363250000000789
 20
-132.2832050000000095
 10
337.0312450000001263
 20
132.2832050000000095
 10
248.8417950000000474
 20
132.2832050000000095
 10
196.640625
 20
-11.1347649999999874
 10
144.4414050000000316
 20
132.2832050000000095
 10
56.2519449999999779
 20
132.2832050000000095
  0
ENDBLK
  5
71
100
AcDbEntity
  8
0
100
AcDbBlockEnd
  0
BLOCK
  5
72
100
AcDbEntity
  8
0
100
AcDbBlockBegin
  2
SmallPotGauge
 70
0
 10
0.0
 20
0.0
 30
0.0
  3
SmallPotGauge
  1

  0
LWPOLYLINE
  5
73
100
AcDbEntity
  8
0
 62
256
370
-1
 48
1.0
  6
BYLAYER
100
AcDbPolyline
 90
6
 70
128
 10
104.8679000000000059
 20
-139.9265100000000075
 10
104.8679000000000059
 20
-141.6826000000000079
 42
-0.0094312964636997
 10
104.9997900000000044
 20
-141.6765999999999792
 42
-0.0094282736998003
 10
105.1317400000000077
 20
-141.6795999999999935
 10
105.1317400000000077
 20
-139.926809999999989
 10
104.8679000000000059
 20
-139.9265100000000075
  0
LWPOLYLINE
  5
74
100
AcDbEntity
  8
0
 62
256
370
-1
 48
1.0
  6
BYLAYER
100
AcDbPolyline
 90
5
 70
128
 10
102.4890800000000013
 20
-140.5638900000000149
 10
102.2605999999999966
 20
-140.6958300000000008
 10
103.137360000000001
 20
-142.2144000000000119
 42
-0.018850642653673
 10
103.3667400000000072
 20
-142.0840800000000002
 10
102.4890800000000013
 20
-140.5638900000000149
  0
LWPOLYLINE
  5
75
100
AcDbEntity
  8
0
 62
256
370
-1
 48
1.0
  6
BYLAYER
100
AcDbPolyline
 90
5
 70
128
 10
107.5105999999999966
 20
-140.5638900000000149
 10
106.6341099999999926
 20
-142.0820000000000221
 42
-0.0188531870154901
 10
106.8627299999999991
 20
-142.2137200000000234
 10
107.7390800000000013
 20
-140.6958300000000293
 10
107.5105999999999966
 20
-140.5638900000000149
  0
LWPOLYLINE
  5
76
100
AcDbEntity
  8
0
 62
256
370
-1
 48
1.0
  6
BYLAYER
100
AcDbPolyline
 90
5
 70
128
 10
100.5191599999999994
 20
-142.4372700000000123
 10
100.3872599999999977
 20
-142.6657500000000027
 10
101.9074099999999987
 20
-143.5434099999999944
 42
-0.0188520557002934
 10
102.0377699999999948
 20
-143.3140300000000025
 10
100.5191599999999994
 20
-142.4372700000000123
  0
LWPOLYLINE
  5
77
100
AcDbEntity
  8
0
 62
256
370
-1
 48
1.0
  6
BYLAYER
100
AcDbPolyline
 90
5
 70
128
 10
109.4805199999999985
 20
-142.4372700000000123
 10
107.9625800000000027
 20
-143.3136200000000144
 42
-0.0188549721058722
 10
108.0943500000000483
 20
-143.5422400000000209
 10
109.6124100000000112
 20
-142.6657500000000312
 10
109.4805199999999985
 20
-142.4372700000000123
  0
LWPOLYLINE
  5
78
100
AcDbEntity
  8
0
 62
256
370
-1
 48
1.0
  6
BYLAYER
100
AcDbPolyline
 90
6
 70
128
 10
99.7497970000000009
 20
-145.0446100000000058
 10
99.7497970000000009
 20
-145.3084499999999935
 10
101.5059300000000064
 20
-145.3084499999999935
 42
-0.0094348651562602
 10
101.4999299999999778
 20
-145.1765100000000075
 42
-0.00943201020193
 10
101.5059299999999922
 20
-145.0446100000000058
 10
99.7497970000000009
 20
-145.0446100000000058
  0
LWPOLYLINE
  5
79
100
AcDbEntity
  8
0
 62
256
370
-1
 48
1.0
  6
BYLAYER
100
AcDbPolyline
 90
6
 70
128
 10
108.4970499999999873
 20
-145.0446100000000058
 42
-0.009424702242363
 10
108.5000499999999874
 20
-145.1765099999999222
 42
-0.0094348651562611
 10
108.4940500000000156
 20
-145.3084499999999935
 10
110.2501400000000018
 20
-145.3084499999999935
 10
110.2501400000000018
 20
-145.0446100000000058
 10
108.4970500000000015
 20
-145.0446100000000058
  0
LWPOLYLINE
  5
7A
100
AcDbEntity
  8
0
 62
256
370
-1
 48
1.0
  6
BYLAYER
100
AcDbPolyline
 90
5
 70
128
 10
108.0922199999999975
 20
-146.8095600000000047
 42
-0.0188551641205852
 10
107.9618600000000015
 20
-147.0389900000000125
 10
109.4805199999999985
 20
-147.9157500000000027
 10
109.612409999999997
 20
-147.6872700000000123
 10
108.0922199999999975
 20
-146.8095600000000047
  0
LWPOLYLINE
  5
7B
100
AcDbEntity
  8
0
 62
256
370
-1
 48
1.0
  6
BYLAYER
100
AcDbPolyline
 90
5
 70
128
 10
101.9074099999999987
 20
-146.8096099999999922
 10
100.3872599999999977
 20
-147.6872699999999838
 10
100.5191599999999994
 20
-147.9157499999999743
 10
102.0377699999999948
 20
-147.0389899999999841
 42
-0.0188520557002923
 10
101.9074099999999845
 20
-146.8096099999999922
  0
LWPOLYLINE
  5
7C
100
AcDbEntity
  8
0
 62
256
370
-1
 48
1.0
  6
BYLAYER
100
AcDbPolyline
 90
5
 70
128
 10
106.8623199999999969
 20
-148.1385799999999904
 42
-0.0188520557002944
 10
106.6329399999999907
 20
-148.2689399999999864
 10
107.5105999999999966
 20
-149.7891300000000001
 10
107.7390800000000013
 20
-149.6571900000000142
 10
106.8623199999999969
 20
-148.1385799999999904
  0
LWPOLYLINE
  5
7D
100
AcDbEntity
  8
0
 62
256
370
-1
 48
1.0
  6
BYLAYER
100
AcDbPolyline
 90
6
 70
128
 10
103.137360000000001
 20
-148.1386200000000031
 10
102.2605999999999966
 20
-149.6571900000000142
 10
102.4890800000000013
 20
-149.7891300000000001
 10
103.3667400000000072
 20
-148.2689399999999864
 42
-0.0188506426536739
 10
103.137360000000001
 20
-148.1386199999999747
 10
103.137360000000001
 20
-148.1386200000000031
  0
ENDBLK
  5
7E
100
AcDbEntity
  8
0
100
AcDbBlockEnd
  0
BLOCK
  5
7F
100
AcDbEntity
  8
0
100
AcDbBlockBegin
  2
block 7
 70
0
 10
0.0
 20
0.0
 30
0.0
  3
block 7
  1

  0
LWPOLYLINE
  5
80
100
AcDbEntity
  8
VectorEngraving
 62
3
420
65280
370
-1
 48
1.0
  6
BYLAYER
100
AcDbPolyline
 90
6
 70
128
 10
-0.1447316216625225
 20
5.2278271675010188
 10
-0.1447316216625225
 20
3.4717371675010185
 42
-0.0094312964636997
 10
-0.012841621662524
 20
3.4777371675010471
 42
-0.0094282736998003
 10
0.1191083783374793
 20
3.4747371675010328
 10
0.1191083783374793
 20
5.2275271675010373
 10
-0.1447316216625225
 20
5.2278271675010188
  0
LWPOLYLINE
  5
81
100
AcDbEntity
  8
VectorEngraving
 62
3
420
65280
370
-1
 48
1.0
  6
BYLAYER
100
AcDbPolyline
 90
5
 70
128
 10
-2.5235516216625271
 20
4.5904471675010114
 10
-2.7520316216625318
 20
4.4585071675010255
 10
-1.8752716216625274
 20
2.9399371675010144
 42
-0.018850642653673
 10
-1.6458916216625212
 20
3.0702571675010262
 10
-2.5235516216625271
 20
4.5904471675010114
  0
LWPOLYLINE
  5
82
100
AcDbEntity
  8
VectorEngraving
 62
3
420
65280
370
-1
 48
1.0
  6
BYLAYER
100
AcDbPolyline
 90
5
 70
128
 10
2.4979683783374682
 20
4.5904471675010114
 10
1.6214783783374642
 20
3.0723371675010043
 42
-0.0188531870154901
 10
1.8500983783374707
 20
2.9406171675010029
 10
2.7264483783374729
 20
4.4585071675009971
 10
2.4979683783374682
 20
4.5904471675010114
  0
LWPOLYLINE
  5
83
100
AcDbEntity
  8
VectorEngraving
 62
3
420
65280
370
-1
 48
1.0
  6
BYLAYER
100
AcDbPolyline
 90
5
 70
128
 10
-4.493471621662529
 20
2.7170671675010141
 10
-4.6253716216625307
 20
2.4885871675010236
 10
-3.1052216216625297
 20
1.6109271675010319
 42
-0.0188520557002934
 10
-2.9748616216625337
 20
1.8403071675010239
 10
-4.493471621662529
 20
2.7170671675010141
  0
LWPOLYLINE
  5
84
100
AcDbEntity
  8
VectorEngraving
 62
3
420
65280
370
-1
 48
1.0
  6
BYLAYER
100
AcDbPolyline
 90
5
 70
128
 10
4.4678883783374701
 20
2.7170671675010141
 10
2.9499483783374743
 20
1.8407171675010119
 42
-0.0188549721058722
 10
3.0817183783375199
 20
1.6120971675010054
 10
4.5997783783374828
 20
2.4885871675009952
 10
4.4678883783374701
 20
2.7170671675010141
  0
LWPOLYLINE
  5
85
100
AcDbEntity
  8
VectorEngraving
 62
3
420
65280
370
-1
 48
1.0
  6
BYLAYER
100
AcDbPolyline
 90
6
 70
128
 10
-5.2628346216625275
 20
0.1097271675010205
 10
-5.2628346216625275
 20
-0.1541128324989671
 10
-3.506701621662522
 20
-0.1541128324989671
 42
-0.0094348651562602
 10
-3.5127016216625506
 20
-0.0221728324989812
 42
-0.00943201020193
 10
-3.5067016216625362
 20
0.1097271675010205
 10
-5.2628346216625275
 20
0.1097271675010205
  0
LWPOLYLINE
  5
86
100
AcDbEntity
  8
VectorEngraving
 62
3
420
65280
370
-1
 48
1.0
  6
BYLAYER
100
AcDbPolyline
 90
6
 70
128
 10
3.4844183783374589
 20
0.1097271675010205
 42
-0.009424702242363
 10
3.487418378337459
 20
-0.0221728324988959
 42
-0.0094348651562611
 10
3.4814183783374872
 20
-0.1541128324989671
 10
5.2375083783374734
 20
-0.1541128324989671
 10
5.2375083783374734
 20
0.1097271675010205
 10
3.4844183783374731
 20
0.1097271675010205
  0
LWPOLYLINE
  5
87
100
AcDbEntity
  8
VectorEngraving
 62
3
420
65280
370
-1
 48
1.0
  6
BYLAYER
100
AcDbPolyline
 90
5
 70
128
 10
3.0795883783374691
 20
-1.6552228324989784
 42
-0.0188551641205852
 10
2.9492283783374731
 20
-1.8846528324989862
 10
4.4678883783374701
 20
-2.7614128324989764
 10
4.5997783783374686
 20
-2.5329328324989859
 10
3.0795883783374691
 20
-1.6552228324989784
  0
LWPOLYLINE
  5
88
100
AcDbEntity
  8
VectorEngraving
 62
3
420
65280
370
-1
 48
1.0
  6
BYLAYER
100
AcDbPolyline
 90
5
 70
128
 10
-3.1052216216625297
 20
-1.6552728324989658
 10
-4.6253716216625307
 20
-2.5329328324989575
 10
-4.493471621662529
 20
-2.761412832498948
 10
-2.9748616216625337
 20
-1.8846528324989578
 42
-0.0188520557002923
 10
-3.1052216216625439
 20
-1.6552728324989658
  0
LWPOLYLINE
  5
89
100
AcDbEntity
  8
VectorEngraving
 62
3
420
65280
370
-1
 48
1.0
  6
BYLAYER
100
AcDbPolyline
 90
5
 70
128
 10
1.8496883783374685
 20
-2.984242832498964
 42
-0.0188520557002944
 10
1.6203083783374623
 20
-3.1146028324989601
 10
2.4979683783374682
 20
-4.6347928324989738
 10
2.7264483783374729
 20
-4.5028528324989878
 10
1.8496883783374685
 20
-2.984242832498964
  0
LWPOLYLINE
  5
8A
100
AcDbEntity
  8
VectorEngraving
 62
3
420
65280
370
-1
 48
1.0
  6
BYLAYER
100
AcDbPolyline
 90
6
 70
128
 10
-1.8752716216625274
 20
-2.9842828324989767
 10
-2.7520316216625318
 20
-4.5028528324989878
 10
-2.5235516216625271
 20
-4.6347928324989738
 10
-1.6458916216625212
 20
-3.1146028324989601
 42
-0.0188506426536739
 10
-1.8752716216625274
 20
-2.9842828324989483
 10
-1.8752716216625274
 20
-2.9842828324989767
  0
ENDBLK
  5
8B
100
AcDbEntity
  8
0
100
AcDbBlockEnd
  0
BLOCK
  5
8C
100
AcDbEntity
  8
0
100
AcDbBlockBegin
  2
block 6
 70
0
 10
0.0
 20
0.0
 30
0.0
  3
block 6
  1

  0
LWPOLYLINE
  5
8D
100
AcDbEntity
  8
VectorEngraving
 62
256
370
-1
 48
1.0
  6
BYLAYER
100
AcDbPolyline
 90
20
 70
128
 10
-9.6223985434999992
 20
3.5055049324999992
 10
-9.6223985434999992
 20
3.0861113744999997
 10
-10.1231553694999992
 20
3.0861113744999997
 10
-10.1231553694999992
 20
2.2472725039999997
 10
-9.6223985434999992
 20
2.2472725039999997
 10
-9.6223985434999992
 20
-0.2365849774999997
 10
-10.1231553694999992
 20
-0.2365849774999997
 10
-10.1231553694999992
 20
-1.0753719874999996
 10
-9.6223985434999992
 20
-1.0753719874999996
 10
-9.6223985434999992
 20
-1.4939893074999997
 10
-9.6223985434999992
 20
-3.5055049325000001
 10
-7.2853780124999989
 20
-3.5055049325000001
 10
-7.2853780124999989
 20
-1.4939893074999997
 10
-6.7416104674999993
 20
-1.4939893074999997
 10
-6.0094962924999997
 20
-3.5055049325000001
 10
-3.6724756024999996
 20
-3.5055049325000001
 10
-4.6877568524999997
 20
-0.7159657374999995
 42
0.1923579134144613
 10
-3.9979806674999985
 20
1.0057578655002395
 42
0.4142131276425501
 10
-6.4977275224330144
 20
3.5055049324999992
 10
-9.6223985434999992
 20
3.5055049324999992
  0
LWPOLYLINE
  5
8E
100
AcDbEntity
  8
VectorEngraving
 62
256
370
-1
 48
1.0
  6
BYLAYER
100
AcDbPolyline
 90
6
 70
128
 10
-7.2853780124999989
 20
1.8282930085000011
 10
-6.7073467624999994
 20
1.8282930085000011
 42
-0.4142108826965076
 10
-5.8848633474999996
 20
1.0057578654997137
 42
-0.4141924816972828
 10
-6.7073467624999994
 20
0.1832743975000009
 10
-7.2853780124999989
 20
0.1832743975
 10
-7.2853780124999989
 20
1.8282930085000011
  0
LWPOLYLINE
  5
8F
100
AcDbEntity
  8
VectorEngraving
 62
256
370
-1
 48
1.0
  6
BYLAYER
100
AcDbPolyline
 90
5
 70
128
 10
-3.6129025424999988
 20
3.5055049324999992
 10
-1.0610868974999992
 20
-3.5055049325000001
 10
1.2758818524999995
 20
-3.5055049325000001
 10
-1.2758818524999995
 20
3.5055049324999992
 10
-3.6129025424999988
 20
3.5055049324999992
  0
LWPOLYLINE
  5
90
100
AcDbEntity
  8
VectorEngraving
 62
256
370
-1
 48
1.0
  6
BYLAYER
100
AcDbPolyline
 90
8
 70
128
 10
1.4906765424999993
 20
3.5055049324999992
 10
4.0424921874999988
 20
-3.5055049325000001
 10
6.379512612500001
 20
-3.5055049325000001
 10
8.9313279925000018
 20
3.5055049324999992
 10
6.5943075675000031
 20
3.5055049324999992
 10
5.2109765625000009
 20
-0.2950712724999995
 10
3.8276972325000003
 20
3.5055049324999992
 10
1.4906765424999993
 20
3.5055049324999992
  0
LINE
  5
91
100
AcDbEntity
  8
VectorEngraving
 62
256
370
-1
 48
1.0
  6
BYLAYER
100
AcDbLine
 10
0.1073974775000028
 20
-0.2950712724999986
 30
0.0
 11
1.490676542500001
 21
3.5055049325000009
 31
0.0
  0
LINE
  5
92
100
AcDbEntity
  8
VectorEngraving
 62
256
370
-1
 48
1.0
  6
BYLAYER
100
AcDbLine
 10
2.6591996787320564
 20
0.2950350650328817
 30
0.0
 11
1.2758818546243074
 21
-3.505504934606535
 31
0.0
  0
ENDBLK
  5
93
100
AcDbEntity
  8
0
100
AcDbBlockEnd
  0
BLOCK
  5
94
100
AcDbEntity
  8
0
100
AcDbBlockBegin
  2
RW_Logo_Trans
 70
0
 10
0.0
 20
0.0
 30
0.0
  3
RW_Logo_Trans
  1

  0
LWPOLYLINE
  5
95
100
AcDbEntity
  8
0
 62
256
370
-1
 48
1.0
  6
BYLAYER
100
AcDbPolyline
 90
20
 70
128
 10
56.6914060000000006
 20
0.0
 10
56.6914060000000006
 20
-15.8261719999999997
 10
37.7949219999999997
 20
-15.8261719999999997
 10
37.7949219999999997
 20
-47.4804689999999994
 10
56.6914060000000006
 20
-47.4804689999999994
 10
56.6914060000000006
 20
-141.2109399999999937
 10
37.7949219999999997
 20
-141.2109399999999937
 10
37.7949219999999997
 20
-172.8632800000000032
 10
56.6914060000000006
 20
-172.8632800000000032
 10
56.6914060000000006
 20
-188.6601599999999905
 10
56.6914060000000006
 20
-264.566410000000019
 10
144.8808599999999842
 20
-264.566410000000019
 10
144.8808599999999842
 20
-188.660160000000019
 10
165.4003899999999874
 20
-188.660160000000019
 10
193.027339999999981
 20
-264.566410000000019
 10
281.2167999999999779
 20
-264.566410000000019
 10
242.9043000000000063
 20
-159.3007800000000032
 42
0.1923579134144613
 10
268.9335900000000379
 20
-94.3300779999909622
 42
0.4142131276425501
 10
174.6035200025277163
 20
-0.0000000000000284
 10
56.6914060000000006
 20
0.0
  0
LWPOLYLINE
  5
96
100
AcDbEntity
  8
0
 62
256
370
-1
 48
1.0
  6
BYLAYER
100
AcDbPolyline
 90
6
 70
128
 10
144.8808599999999842
 20
-63.2910159999999991
 10
166.6933599999999842
 20
-63.2910159999999991
 42
-0.4142108826965076
 10
197.7304699999999684
 20
-94.330078000010829
 42
-0.4141924816972828
 10
166.6933599999999842
 20
-125.3671899999999795
 10
144.8808599999999842
 20
-125.3671899999999937
 10
144.8808599999999842
 20
-63.2910159999999991
  0
LWPOLYLINE
  5
97
100
AcDbEntity
  8
0
 62
256
370
-1
 48
1.0
  6
BYLAYER
100
AcDbPolyline
 90
5
 70
128
 10
476.0527299999999968
 20
0.0
 10
423.8535200000000032
 20
-143.4179699999999968
 10
467.9472700000000032
 20
-264.566410000000019
 10
520.1484400000000505
 20
-121.1484400000000221
 10
476.0527299999999968
 20
0.0
  0
LWPOLYLINE
  5
98
100
AcDbEntity
  8
0
 62
256
370
-1
 48
1.0
  6
BYLAYER
100
AcDbPolyline
 90
5
 70
128
 10
283.464839999999981
 20
0.0
 10
379.7597700000000032
 20
-264.566410000000019
 10
467.9472700000000032
 20
-264.566410000000019
 10
371.6542999999999779
 20
0.0
 10
283.464839999999981
 20
0.0
  0
LWPOLYLINE
  5
99
100
AcDbEntity
  8
0
 62
256
370
-1
 48
1.0
  6
BYLAYER
100
AcDbPolyline
 90
8
 70
128
 10
476.0527299999999968
 20
0.0
 10
572.347660000000019
 20
-264.566410000000019
 10
660.5371099999999842
 20
-264.566410000000019
 10
756.8320300000000316
 20
0.0
 10
668.6425799999999526
 20
0.0
 10
616.441410000000019
 20
-143.4179699999999968
 10
564.2421900000000505
 20
0.0
 10
476.0527299999999968
 20
0.0
  0
ENDBLK
  5
9A
100
AcDbEntity
  8
0
100
AcDbBlockEnd
  0
BLOCK
  5
9B
100
AcDbEntity
  8
0
100
AcDbBlockBegin
  2
block 8
 70
0
 10
0.0
 20
0.0
 30
0.0
  3
block 8
  1

  0
LWPOLYLINE
  5
9C
100
AcDbEntity
  8
VectorEngraving
 62
5
420
255
370
-1
 48
1.0
  6
BYLAYER
100
AcDbPolyline
 90
20
 70
128
 10
-9.6223985434999992
 20
3.5055049325000001
 10
-9.6223985434999992
 20
3.0861113745000006
 10
-10.1231553694999992
 20
3.0861113745000006
 10
-10.1231553694999992
 20
2.2472725039999988
 10
-9.6223985434999992
 20
2.2472725039999988
 10
-9.6223985434999992
 20
-0.2365849774999997
 10
-10.1231553694999992
 20
-0.2365849774999997
 10
-10.1231553694999992
 20
-1.0753719874999996
 10
-9.6223985434999992
 20
-1.0753719874999996
 10
-9.6223985434999992
 20
-1.4939893074999997
 10
-9.6223985434999992
 20
-3.5055049325000001
 10
-7.2853780124999989
 20
-3.5055049325000001
 10
-7.2853780124999989
 20
-1.4939893074999997
 10
-6.7416104674999993
 20
-1.4939893074999997
 10
-6.0094962924999997
 20
-3.5055049325000001
 10
-3.6724756024999996
 20
-3.5055049325000001
 10
-4.6877568524999997
 20
-0.7159657374999995
 42
0.1923579134144613
 10
-3.9979806674999985
 20
1.0057578655002395
 42
0.4142131276425501
 10
-6.4977275224330144
 20
3.5055049325000001
 10
-9.6223985434999992
 20
3.5055049325000001
  0
LWPOLYLINE
  5
9D
100
AcDbEntity
  8
VectorEngraving
 62
5
420
255
370
-1
 48
1.0
  6
BYLAYER
100
AcDbPolyline
 90
6
 70
128
 10
-7.2853780124999989
 20
1.828293008500002
 10
-6.7073467624999994
 20
1.828293008500002
 42
-0.4142108826965076
 10
-5.8848633474999996
 20
1.0057578654997137
 42
-0.4141924816972828
 10
-6.7073467624999994
 20
0.1832743975000009
 10
-7.2853780124999989
 20
0.1832743975
 10
-7.2853780124999989
 20
1.828293008500002
  0
LWPOLYLINE
  5
9E
100
AcDbEntity
  8
VectorEngraving
 62
5
420
255
370
-1
 48
1.0
  6
BYLAYER
100
AcDbPolyline
 90
5
 70
128
 10
-3.6129025424999988
 20
3.5055049325000001
 10
-1.0610868974999992
 20
-3.5055049325000001
 10
1.2758818524999995
 20
-3.5055049325000001
 10
-1.2758818524999995
 20
3.5055049325000001
 10
-3.6129025424999988
 20
3.5055049325000001
  0
LWPOLYLINE
  5
9F
100
AcDbEntity
  8
VectorEngraving
 62
5
420
255
370
-1
 48
1.0
  6
BYLAYER
100
AcDbPolyline
 90
8
 70
128
 10
1.4906765424999993
 20
3.5055049325000001
 10
4.0424921874999988
 20
-3.5055049325000001
 10
6.3795126125000028
 20
-3.5055049325000001
 10
8.9313279925000035
 20
3.5055049325000001
 10
6.5943075675000049
 20
3.5055049325000001
 10
5.2109765625000026
 20
-0.2950712724999995
 10
3.8276972325000003
 20
3.5055049325000001
 10
1.4906765424999993
 20
3.5055049325000001
  0
LINE
  5
A0
100
AcDbEntity
  8
VectorEngraving
 62
5
420
255
370
-1
 48
1.0
  6
BYLAYER
100
AcDbLine
 10
0.1073974775000028
 20
-0.2950712724999986
 30
0.0
 11
1.490676542500001
 21
3.5055049325000001
 31
0.0
  0
LINE
  5
A1
100
AcDbEntity
  8
VectorEngraving
 62
5
420
255
370
-1
 48
1.0
  6
BYLAYER
100
AcDbLine
 10
2.6591996787320564
 20
0.2950350650328817
 30
0.0
 11
1.2758818546243074
 21
-3.505504934606535
 31
0.0
  0
ENDBLK
  5
A2
100
AcDbEntity
  8
0
100
AcDbBlockEnd
  0
BLOCK
  5
A3
100
AcDbEntity
  8
0
100
AcDbBlockBegin
  2
block 1
 70
0
 10
0.0
 20
0.0
 30
0.0
  3
block 1
  1

  0
ENDBLK
  5
A4
100
AcDbEntity
  8
0
100
AcDbBlockEnd
  0
BLOCK
  5
A5
100
AcDbEntity
  8
0
100
AcDbBlockBegin
  2
LargePotGauge
 70
0
 10
0.0
 20
0.0
 30
0.0
  3
LargePotGauge
  1

  0
LWPOLYLINE
  5
A6
100
AcDbEntity
  8
0
 62
256
370
-1
 48
1.0
  6
BYLAYER
100
AcDbPolyline
 90
6
 70
128
 10
104.4709399999999988
 20
-100.6212699999999955
 10
104.4709399999999988
 20
-111.8190299999999979
 42
-0.0033072788336863
 10
104.9995899999999835
 20
-111.7958299999999809
 42
-0.0033077266184061
 10
105.5287599999999912
 20
-111.8038299999999481
 10
105.5287599999999912
 20
-100.6212699999999955
 10
104.4709399999999988
 20
-100.6212699999999955
  0
LWPOLYLINE
  5
A7
100
AcDbEntity
  8
0
 62
256
370
-1
 48
1.0
  6
BYLAYER
100
AcDbPolyline
 90
5
 70
128
 10
93.3357019999999977
 20
-106.2219599999999957
 10
92.3140590000000003
 20
-106.4958400000000012
 10
94.1418529999999976
 20
-113.318160000000006
 42
-0.0066141399769513
 10
95.1640129999999687
 20
-113.0442799999999863
 10
93.3357019999999977
 20
-106.2219599999999957
  0
LWPOLYLINE
  5
A8
100
AcDbEntity
  8
0
 62
256
370
-1
 48
1.0
  6
BYLAYER
100
AcDbPolyline
 90
5
 70
128
 10
116.6640000000000015
 20
-106.2219599999999957
 10
114.8398200000000031
 20
-113.0298099999999977
 42
-0.0066101756053528
 10
115.8614599999999371
 20
-113.3031799999999691
 10
117.6856400000000065
 20
-106.4958400000000012
 10
116.6640000000000015
 20
-106.2219599999999957
  0
LWPOLYLINE
  5
A9
100
AcDbEntity
  8
0
 62
256
370
-1
 48
1.0
  6
BYLAYER
100
AcDbPolyline
 90
5
 70
128
 10
79.8703739999999982
 20
-107.2131100000000004
 10
78.9546679999999981
 20
-107.7417599999999993
 10
84.5538090000000011
 20
-117.4393599999999935
 42
-0.006608723992369
 10
85.4695150000000012
 20
-116.9107099999999804
 10
79.8703739999999982
 20
-107.2131100000000004
  0
LWPOLYLINE
  5
AA
100
AcDbEntity
  8
0
 62
256
370
-1
 48
1.0
  6
BYLAYER
100
AcDbPolyline
 90
5
 70
128
 10
130.1288099999999872
 20
-107.2131100000000004
 10
124.5379299999999887
 20
-116.897270000000006
 42
-0.0066087456461917
 10
125.4536399999999077
 20
-117.4259199999999908
 10
131.045029999999997
 20
-107.7417599999999993
 10
130.1288099999999872
 20
-107.2131100000000004
  0
LWPOLYLINE
  5
AB
100
AcDbEntity
  8
0
 62
256
370
-1
 48
1.0
  6
BYLAYER
100
AcDbPolyline
 90
5
 70
128
 10
72.1116739999999936
 20
-118.1597299999999962
 10
71.3633999999999986
 20
-118.9074899999999957
 10
76.3579270000000037
 20
-123.9020199999999932
 42
-0.0066118880942146
 10
77.1062009999999702
 20
-123.1542600000000078
 10
72.1116739999999936
 20
-118.1597299999999962
  0
LWPOLYLINE
  5
AC
100
AcDbEntity
  8
0
 62
256
370
-1
 48
1.0
  6
BYLAYER
100
AcDbPolyline
 90
5
 70
128
 10
137.8880199999999832
 20
-118.1597299999999962
 10
132.9048699999999883
 20
-123.1428899999999942
 42
-0.0066118262234246
 10
133.6526199999998994
 20
-123.8911599999999709
 10
138.6357799999999827
 20
-118.9074899999999957
 10
137.8880199999999832
 20
-118.1597299999999962
  0
LWPOLYLINE
  5
AD
100
AcDbEntity
  8
0
 62
256
370
-1
 48
1.0
  6
BYLAYER
100
AcDbPolyline
 90
5
 70
128
 10
60.9459469999999897
 20
-125.750479999999996
 10
60.4167799999999886
 20
-126.6666999999999916
 10
70.1143779999999879
 20
-132.2653300000000058
 42
-0.0066131255020083
 10
70.6435459999999722
 20
-131.349109999999996
 10
60.9459469999999897
 20
-125.750479999999996
  0
LWPOLYLINE
  5
AE
100
AcDbEntity
  8
0
 62
256
370
-1
 48
1.0
  6
BYLAYER
100
AcDbPolyline
 90
5
 70
128
 10
149.0537499999999795
 20
-125.750479999999996
 10
139.3695899999999881
 20
-131.3413500000000056
 42
-0.0066115608445713
 10
139.8982400000000155
 20
-132.2575799999999617
 10
149.5823999999999785
 20
-126.6667000000000201
 10
149.0537499999999795
 20
-125.750479999999996
  0
LWPOLYLINE
  5
AF
100
AcDbEntity
  8
0
 62
256
370
-1
 48
1.0
  6
BYLAYER
100
AcDbPolyline
 90
5
 70
128
 10
59.6995009999999837
 20
-139.1103899999999953
 10
59.4256159999999838
 20
-140.1320299999999861
 10
66.2479409999999831
 20
-141.9603399999999738
 42
-0.006614144830355
 10
66.5218239999999241
 20
-140.9381800000000169
 10
59.6995009999999837
 20
-139.1103899999999953
  0
LWPOLYLINE
  5
B0
100
AcDbEntity
  8
0
 62
256
370
-1
 48
1.0
  6
BYLAYER
100
AcDbPolyline
 90
5
 70
128
 10
150.3001899999999864
 20
-139.1103899999999953
 10
143.4928499999999758
 20
-140.9345700000000079
 42
-0.006611016540262
 10
143.7667399999999986
 20
-141.9562100000000271
 10
150.5735499999999831
 20
-140.1320299999999861
 10
150.3001899999999864
 20
-139.1103899999999953
  0
LWPOLYLINE
  5
B1
100
AcDbEntity
  8
0
 62
256
370
-1
 48
1.0
  6
BYLAYER
100
AcDbPolyline
 90
6
 70
128
 10
53.8254509999999868
 20
-151.2672699999999963
 10
53.8254509999999868
 20
-152.3245699999999943
 10
65.0232169999999883
 20
-152.3245699999999943
 42
-0.003307292549862
 10
64.9999669999999981
 20
-151.7959200000000237
 42
-0.003307292549864
 10
65.0232169999999883
 20
-151.2672700000001669
 10
53.8254509999999868
 20
-151.2672699999999963
  0
LWPOLYLINE
  5
B2
100
AcDbEntity
  8
0
 62
256
370
-1
 48
1.0
  6
BYLAYER
100
AcDbPolyline
 90
6
 70
128
 10
144.9919799999999555
 20
-151.2672700000000532
 42
-0.003304476883546
 10
144.9999799999999937
 20
-151.7959199999996258
 42
-0.0033072788336863
 10
144.9767800000000193
 20
-152.3245700000001364
 10
156.1745499999999822
 20
-152.3245699999999943
 10
156.1745499999999822
 20
-151.2672699999999963
 10
144.9919799999999839
 20
-151.2672699999999963
  0
LWPOLYLINE
  5
B3
100
AcDbEntity
  8
0
 62
256
370
-1
 48
1.0
  6
BYLAYER
100
AcDbPolyline
 90
6
 70
128
 10
66.2479499999999888
 20
-161.6314999999999884
 10
59.425625999999987
 20
-163.4598099999999761
 10
59.6995109999999869
 20
-164.4814499999999668
 10
66.5218329999999867
 20
-162.6536499999999705
 42
-0.0066140844520288
 10
66.247950000000003
 20
-161.6314999999999884
 10
66.2479499999999888
 20
-161.6314999999999884
  0
LWPOLYLINE
  5
B4
100
AcDbEntity
  8
0
 62
256
370
-1
 48
1.0
  6
BYLAYER
100
AcDbPolyline
 90
5
 70
128
 10
143.7517499999999586
 20
-161.6320099999999798
 42
-0.0066110165402621
 10
143.4778599999999642
 20
-162.653649999999999
 10
150.3001899999999864
 20
-164.4814499999999668
 10
150.5735499999999831
 20
-163.4598099999999761
 10
143.751749999999987
 20
-161.6320099999999798
  0
LWPOLYLINE
  5
B5
100
AcDbEntity
  8
0
 62
256
370
-1
 48
1.0
  6
BYLAYER
100
AcDbPolyline
 90
5
 70
128
 10
70.1143779999999879
 20
-171.3265099999999848
 10
60.4167799999999886
 20
-176.925139999999999
 10
60.9459469999999897
 20
-177.8413600000000088
 10
70.6435459999999864
 20
-172.2427299999999946
 42
-0.0066131255020083
 10
70.1143779999999879
 20
-171.3265099999999848
  0
LWPOLYLINE
  5
B6
100
AcDbEntity
  8
0
 62
256
370
-1
 48
1.0
  6
BYLAYER
100
AcDbPolyline
 90
5
 70
128
 10
139.8853199999999788
 20
-171.3265099999999279
 42
-0.0066131317545044
 10
139.3561499999999569
 20
-172.2427299999999661
 10
149.0537499999999795
 20
-177.8413600000000088
 10
149.5823999999999785
 20
-176.925139999999999
 10
139.8853199999999788
 20
-171.3265099999999848
  0
LWPOLYLINE
  5
B7
100
AcDbEntity
  8
0
 62
256
370
-1
 48
1.0
  6
BYLAYER
100
AcDbPolyline
 90
5
 70
128
 10
76.3579269999999894
 20
-179.6898199999999974
 10
71.3633989999999869
 20
-184.6843499999999949
 10
72.111670999999987
 20
-185.4321099999999944
 10
77.106199999999987
 20
-180.437579999999997
 42
-0.0066118836727005
 10
76.3579270000000179
 20
-179.689819999999969
  0
LWPOLYLINE
  5
B8
100
AcDbEntity
  8
0
 62
256
370
-1
 48
1.0
  6
BYLAYER
100
AcDbPolyline
 90
5
 70
128
 10
133.6417699999999229
 20
-179.6898199999999974
 42
-0.0066118704081765
 10
132.8934999999999604
 20
-180.4375799999999685
 10
137.8880199999999832
 20
-185.4321099999999944
 10
138.6357799999999827
 20
-184.6843499999999949
 10
133.6417699999999797
 20
-179.6898199999999974
  0
LWPOLYLINE
  5
B9
100
AcDbEntity
  8
0
 62
256
370
-1
 48
1.0
  6
BYLAYER
100
AcDbPolyline
 90
5
 70
128
 10
84.5532849999999883
 20
-186.1524799999999971
 10
78.9546609999999873
 20
-195.8500799999999913
 10
79.8703669999999875
 20
-196.3787299999999902
 10
85.4689919999999859
 20
-186.681129999999996
 42
-0.0066087294058223
 10
84.5532850000000025
 20
-186.1524799999999971
  0
LWPOLYLINE
  5
BA
100
AcDbEntity
  8
0
 62
256
370
-1
 48
1.0
  6
BYLAYER
100
AcDbPolyline
 90
5
 70
128
 10
125.4458899999999915
 20
-186.1524800000000255
 42
-0.0066087456461919
 10
124.530179999999973
 20
-186.6811300000000244
 10
130.1288099999999872
 20
-196.3787299999999902
 10
131.045029999999997
 20
-195.8500799999999913
 10
125.4458899999999915
 20
-186.1524799999999971
  0
ENDBLK
  5
BB
100
AcDbEntity
  8
0
100
AcDbBlockEnd
  0
BLOCK
  5
BC
100
AcDbEntity
  8
0
100
AcDbBlockBegin
  2
block 4
 70
0
 10
0.0
 20
0.0
 30
0.0
  3
block 4
  1

  0
LWPOLYLINE
  5
BD
100
AcDbEntity
  8
VectorEngraving
 62
256
370
-1
 48
1.0
  6
BYLAYER
100
AcDbPolyline
 90
6
 70
128
 10
-0.1447316216625225
 20
5.2278271675010188
 10
-0.1447316216625225
 20
3.4717371675010185
 42
-0.0094312964636997
 10
-0.012841621662524
 20
3.4777371675010471
 42
-0.0094282736998003
 10
0.1191083783374793
 20
3.4747371675010328
 10
0.1191083783374793
 20
5.2275271675010373
 10
-0.1447316216625225
 20
5.2278271675010188
  0
LWPOLYLINE
  5
BE
100
AcDbEntity
  8
VectorEngraving
 62
256
370
-1
 48
1.0
  6
BYLAYER
100
AcDbPolyline
 90
5
 70
128
 10
-2.5235516216625271
 20
4.5904471675010114
 10
-2.7520316216625318
 20
4.4585071675010255
 10
-1.8752716216625274
 20
2.9399371675010144
 42
-0.018850642653673
 10
-1.6458916216625212
 20
3.0702571675010262
 10
-2.5235516216625271
 20
4.5904471675010114
  0
LWPOLYLINE
  5
BF
100
AcDbEntity
  8
VectorEngraving
 62
256
370
-1
 48
1.0
  6
BYLAYER
100
AcDbPolyline
 90
5
 70
128
 10
2.4979683783374682
 20
4.5904471675010114
 10
1.6214783783374642
 20
3.0723371675010043
 42
-0.0188531870154901
 10
1.8500983783374707
 20
2.9406171675010029
 10
2.7264483783374729
 20
4.4585071675009971
 10
2.4979683783374682
 20
4.5904471675010114
  0
LWPOLYLINE
  5
C0
100
AcDbEntity
  8
VectorEngraving
 62
256
370
-1
 48
1.0
  6
BYLAYER
100
AcDbPolyline
 90
5
 70
128
 10
-4.493471621662529
 20
2.7170671675010141
 10
-4.6253716216625307
 20
2.4885871675010236
 10
-3.1052216216625297
 20
1.6109271675010319
 42
-0.0188520557002934
 10
-2.9748616216625337
 20
1.8403071675010239
 10
-4.493471621662529
 20
2.7170671675010141
  0
LWPOLYLINE
  5
C1
100
AcDbEntity
  8
VectorEngraving
 62
256
370
-1
 48
1.0
  6
BYLAYER
100
AcDbPolyline
 90
5
 70
128
 10
4.4678883783374701
 20
2.7170671675010141
 10
2.9499483783374743
 20
1.8407171675010119
 42
-0.0188549721058722
 10
3.0817183783375199
 20
1.6120971675010054
 10
4.5997783783374828
 20
2.4885871675009952
 10
4.4678883783374701
 20
2.7170671675010141
  0
LWPOLYLINE
  5
C2
100
AcDbEntity
  8
VectorEngraving
 62
256
370
-1
 48
1.0
  6
BYLAYER
100
AcDbPolyline
 90
6
 70
128
 10
-5.2628346216625275
 20
0.1097271675010205
 10
-5.2628346216625275
 20
-0.1541128324989671
 10
-3.506701621662522
 20
-0.1541128324989671
 42
-0.0094348651562602
 10
-3.5127016216625506
 20
-0.0221728324989812
 42
-0.00943201020193
 10
-3.5067016216625362
 20
0.1097271675010205
 10
-5.2628346216625275
 20
0.1097271675010205
  0
LWPOLYLINE
  5
C3
100
AcDbEntity
  8
VectorEngraving
 62
256
370
-1
 48
1.0
  6
BYLAYER
100
AcDbPolyline
 90
6
 70
128
 10
3.4844183783374589
 20
0.1097271675010205
 42
-0.009424702242363
 10
3.487418378337459
 20
-0.0221728324988959
 42
-0.0094348651562611
 10
3.4814183783374872
 20
-0.1541128324989671
 10
5.2375083783374734
 20
-0.1541128324989671
 10
5.2375083783374734
 20
0.1097271675010205
 10
3.4844183783374731
 20
0.1097271675010205
  0
LWPOLYLINE
  5
C4
100
AcDbEntity
  8
VectorEngraving
 62
256
370
-1
 48
1.0
  6
BYLAYER
100
AcDbPolyline
 90
5
 70
128
 10
3.0795883783374691
 20
-1.6552228324989784
 42
-0.0188551641205852
 10
2.9492283783374731
 20
-1.8846528324989862
 10
4.4678883783374701
 20
-2.7614128324989764
 10
4.5997783783374686
 20
-2.5329328324989859
 10
3.0795883783374691
 20
-1.6552228324989784
  0
LWPOLYLINE
  5
C5
100
AcDbEntity
  8
VectorEngraving
 62
256
370
-1
 48
1.0
  6
BYLAYER
100
AcDbPolyline
 90
5
 70
128
 10
-3.1052216216625297
 20
-1.6552728324989658
 10
-4.6253716216625307
 20
-2.5329328324989575
 10
-4.493471621662529
 20
-2.761412832498948
 10
-2.9748616216625337
 20
-1.8846528324989578
 42
-0.0188520557002923
 10
-3.1052216216625439
 20
-1.6552728324989658
  0
LWPOLYLINE
  5
C6
100
AcDbEntity
  8
VectorEngraving
 62
256
370
-1
 48
1.0
  6
BYLAYER
100
AcDbPolyline
 90
5
 70
128
 10
1.8496883783374685
 20
-2.984242832498964
 42
-0.0188520557002944
 10
1.6203083783374623
 20
-3.1146028324989601
 10
2.4979683783374682
 20
-4.6347928324989738
 10
2.7264483783374729
 20
-4.5028528324989878
 10
1.8496883783374685
 20
-2.984242832498964
  0
LWPOLYLINE
  5
C7
100
AcDbEntity
  8
VectorEngraving
 62
256
370
-1
 48
1.0
  6
BYLAYER
100
AcDbPolyline
 90
6
 70
128
 10
-1.8752716216625274
 20
-2.9842828324989767
 10
-2.7520316216625318
 20
-4.5028528324989878
 10
-2.5235516216625271
 20
-4.6347928324989738
 10
-1.6458916216625212
 20
-3.1146028324989601
 42
-0.0188506426536739
 10
-1.8752716216625274
 20
-2.9842828324989483
 10
-1.8752716216625274
 20
-2.9842828324989767
  0
ENDBLK
  5
C8
100
AcDbEntity
  8
0
100
AcDbBlockEnd
  0
BLOCK
  5
C9
100
AcDbEntity
  8
0
100
AcDbBlockBegin
  2
block 2
 70
0
 10
0.0
 20
0.0
 30
0.0
  3
block 2
  1

  0
INSERT
  5
CA
100
AcDbEntity
  8
VectorEngraving
 62
256
370
-1
 48
1.0
  6
BYLAYER
100
AcDbBlockReference
  2
block 1
 10
-269.800785000000019
 20
132.2832050000000095
 30
0.0
  0
ENDBLK
  5
CB
100
AcDbEntity
  8
0
100
AcDbBlockEnd
  0
ENDSEC
  0
SECTION
  2
ENTITIES
  0
LWPOLYLINE
  5
CC
100
AcDbEntity
  8
VectorEngraving
 62
5
420
255
370
-1
 48
1.0
  6
BYLAYER
100
AcDbPolyline
 90
20
 70
128
 10
1.1351024391742337
 20
8.200289337985474
 10
1.1351024391742337
 20
7.9905925589854743
 10
0.8847240261742337
 20
7.9905925589854743
 10
0.8847240261742337
 20
7.5711731237354734
 10
1.1351024391742337
 20
7.5711731237354734
 10
1.1351024391742337
 20
6.3292443829854745
 10
0.8847240261742337
 20
6.3292443829854745
 10
0.8847240261742337
 20
5.909850877985475
 10
1.1351024391742337
 20
5.909850877985475
 10
1.1351024391742337
 20
5.7005422179854746
 10
1.1351024391742337
 20
4.6947844054854748
 10
2.3036127046742338
 20
4.6947844054854748
 10
2.3036127046742338
 20
5.7005422179854746
 10
2.5754964771742337
 20
5.7005422179854746
 10
2.9415535646742335
 20
4.6947844054854748
 10
4.1100639096742331
 20
4.6947844054854748
 10
3.6024232846742335
 20
6.0895540029854747
 42
0.1923579134144613
 10
3.9473113771742341
 20
6.9504158044855942
 42
0.4142131276425501
 10
2.6974379497077261
 20
8.200289337985474
 10
1.1351024391742337
 20
8.200289337985474
  0
LWPOLYLINE
  5
CD
100
AcDbEntity
  8
VectorEngraving
 62
5
420
255
370
-1
 48
1.0
  6
BYLAYER
100
AcDbPolyline
 90
6
 70
128
 10
2.3036127046742338
 20
7.361683375985475
 10
2.5926283296742336
 20
7.361683375985475
 42
-0.4142108826965076
 10
3.0038700371742335
 20
6.9504158044853313
 42
-0.4141924816972828
 10
2.5926283296742336
 20
6.5391740704854744
 10
2.3036127046742338
 20
6.5391740704854744
 10
2.3036127046742338
 20
7.361683375985475
  0
LWPOLYLINE
  5
CE
100
AcDbEntity
  8
VectorEngraving
 62
5
420
255
370
-1
 48
1.0
  6
BYLAYER
100
AcDbPolyline
 90
5
 70
128
 10
4.1398504396742339
 20
8.200289337985474
 10
5.4157582621742337
 20
4.6947844054854748
 10
6.5842426371742331
 20
4.6947844054854748
 10
5.3083607846742336
 20
8.200289337985474
 10
4.1398504396742339
 20
8.200289337985474
  0
LWPOLYLINE
  5
CF
100
AcDbEntity
  8
VectorEngraving
 62
5
420
255
370
-1
 48
1.0
  6
BYLAYER
100
AcDbPolyline
 90
8
 70
128
 10
6.6916399821742329
 20
8.200289337985474
 10
7.9675478046742327
 20
4.6947844054854748
 10
9.1360580171742356
 20
4.6947844054854748
 10
10.411965707174236
 20
8.200289337985474
 10
9.2434554946742367
 20
8.200289337985474
 10
8.5517899921742355
 20
6.3000012354854746
 10
7.8601503271742335
 20
8.200289337985474
 10
6.6916399821742329
 20
8.200289337985474
  0
LINE
  5
D0
100
AcDbEntity
  8
VectorEngraving
 62
5
420
255
370
-1
 48
1.0
  6
BYLAYER
100
AcDbLine
 10
6.0000004496742347
 20
6.3000012354854746
 30
0.0
 11
6.6916399821742338
 21
8.200289337985474
 31
0.0
  0
LINE
  5
D1
100
AcDbEntity
  8
VectorEngraving
 62
5
420
255
370
-1
 48
1.0
  6
BYLAYER
100
AcDbLine
 10
7.2759015502902615
 20
6.5950544042519148
 30
0.0
 11
6.584242638236387
 21
4.6947844044322071
 31
0.0
  0
LWPOLYLINE
  5
D2
100
AcDbEntity
  8
VectorEngraving
 62
3
420
65280
370
-1
 48
1.0
  6
BYLAYER
100
AcDbPolyline
 90
6
 70
128
 10
9.8552683783374775
 20
68.2278271675010188
 10
9.8552683783374775
 20
66.4717371675010185
 42
-0.0094312964636997
 10
9.987158378337476
 20
66.4777371675010471
 42
-0.0094282736998003
 10
10.1191083783374793
 20
66.4747371675010328
 10
10.1191083783374793
 20
68.2275271675010373
 10
9.8552683783374775
 20
68.2278271675010188
  0
LWPOLYLINE
  5
D3
100
AcDbEntity
  8
VectorEngraving
 62
3
420
65280
370
-1
 48
1.0
  6
BYLAYER
100
AcDbPolyline
 90
5
 70
128
 10
7.4764483783374729
 20
67.5904471675010114
 10
7.2479683783374682
 20
67.4585071675010255
 10
8.1247283783374726
 20
65.9399371675010144
 42
-0.018850642653673
 10
8.3541083783374788
 20
66.0702571675010262
 10
7.4764483783374729
 20
67.5904471675010114
  0
LWPOLYLINE
  5
D4
100
AcDbEntity
  8
VectorEngraving
 62
3
420
65280
370
-1
 48
1.0
  6
BYLAYER
100
AcDbPolyline
 90
5
 70
128
 10
12.4979683783374682
 20
67.5904471675010114
 10
11.6214783783374642
 20
66.0723371675010043
 42
-0.0188531870154901
 10
11.8500983783374707
 20
65.9406171675010029
 10
12.7264483783374729
 20
67.4585071675009971
 10
12.4979683783374682
 20
67.5904471675010114
  0
LWPOLYLINE
  5
D5
100
AcDbEntity
  8
VectorEngraving
 62
3
420
65280
370
-1
 48
1.0
  6
BYLAYER
100
AcDbPolyline
 90
5
 70
128
 10
5.506528378337471
 20
65.7170671675010141
 10
5.3746283783374693
 20
65.4885871675010236
 10
6.8947783783374703
 20
64.6109271675010319
 42
-0.0188520557002934
 10
7.0251383783374663
 20
64.8403071675010239
 10
5.506528378337471
 20
65.7170671675010141
  0
LWPOLYLINE
  5
D6
100
AcDbEntity
  8
VectorEngraving
 62
3
420
65280
370
-1
 48
1.0
  6
BYLAYER
100
AcDbPolyline
 90
5
 70
128
 10
14.4678883783374701
 20
65.7170671675010141
 10
12.9499483783374743
 20
64.8407171675010119
 42
-0.0188549721058722
 10
13.0817183783375199
 20
64.6120971675010054
 10
14.5997783783374828
 20
65.4885871675009952
 10
14.4678883783374701
 20
65.7170671675010141
  0
LWPOLYLINE
  5
D7
100
AcDbEntity
  8
VectorEngraving
 62
3
420
65280
370
-1
 48
1.0
  6
BYLAYER
100
AcDbPolyline
 90
6
 70
128
 10
4.7371653783374725
 20
63.1097271675010205
 10
4.7371653783374725
 20
62.8458871675010329
 10
6.493298378337478
 20
62.8458871675010329
 42
-0.0094348651562602
 10
6.4872983783374494
 20
62.9778271675010188
 42
-0.00943201020193
 10
6.4932983783374638
 20
63.1097271675010205
 10
4.7371653783374725
 20
63.1097271675010205
  0
LWPOLYLINE
  5
D8
100
AcDbEntity
  8
VectorEngraving
 62
3
420
65280
370
-1
 48
1.0
  6
BYLAYER
100
AcDbPolyline
 90
6
 70
128
 10
13.4844183783374589
 20
63.1097271675010205
 42
-0.009424702242363
 10
13.487418378337459
 20
62.9778271675011041
 42
-0.0094348651562611
 10
13.4814183783374872
 20
62.8458871675010329
 10
15.2375083783374734
 20
62.8458871675010329
 10
15.2375083783374734
 20
63.1097271675010205
 10
13.4844183783374731
 20
63.1097271675010205
  0
LWPOLYLINE
  5
D9
100
AcDbEntity
  8
VectorEngraving
 62
3
420
65280
370
-1
 48
1.0
  6
BYLAYER
100
AcDbPolyline
 90
5
 70
128
 10
13.0795883783374691
 20
61.3447771675010216
 42
-0.0188551641205852
 10
12.9492283783374731
 20
61.1153471675010138
 10
14.4678883783374701
 20
60.2385871675010236
 10
14.5997783783374686
 20
60.4670671675010141
 10
13.0795883783374691
 20
61.3447771675010216
  0
LWPOLYLINE
  5
DA
100
AcDbEntity
  8
VectorEngraving
 62
3
420
65280
370
-1
 48
1.0
  6
BYLAYER
100
AcDbPolyline
 90
5
 70
128
 10
6.8947783783374703
 20
61.3447271675010342
 10
5.3746283783374693
 20
60.4670671675010425
 10
5.506528378337471
 20
60.238587167501052
 10
7.0251383783374663
 20
61.1153471675010422
 42
-0.0188520557002923
 10
6.8947783783374561
 20
61.3447271675010342
  0
LWPOLYLINE
  5
DB
100
AcDbEntity
  8
VectorEngraving
 62
3
420
65280
370
-1
 48
1.0
  6
BYLAYER
100
AcDbPolyline
 90
5
 70
128
 10
11.8496883783374685
 20
60.015757167501036
 42
-0.0188520557002944
 10
11.6203083783374623
 20
59.8853971675010399
 10
12.4979683783374682
 20
58.3652071675010262
 10
12.7264483783374729
 20
58.4971471675010122
 10
11.8496883783374685
 20
60.015757167501036
  0
LWPOLYLINE
  5
DC
100
AcDbEntity
  8
VectorEngraving
 62
3
420
65280
370
-1
 48
1.0
  6
BYLAYER
100
AcDbPolyline
 90
6
 70
128
 10
8.1247283783374726
 20
60.0157171675010233
 10
7.2479683783374682
 20
58.4971471675010122
 10
7.4764483783374729
 20
58.3652071675010262
 10
8.3541083783374788
 20
59.8853971675010399
 42
-0.0188506426536739
 10
8.1247283783374726
 20
60.0157171675010517
 10
8.1247283783374726
 20
60.0157171675010233
  0
LINE
  5
DD
100
AcDbEntity
  8
Cuts
 62
1
420
16711680
370
-1
 48
1.0
  6
BYLAYER
100
AcDbLine
 10
0.0
 20
0.0
 30
0.0
 11
20.0
 21
0.0
 31
0.0
  0
LINE
  5
DE
100
AcDbEntity
  8
Cuts
 62
1
420
16711680
370
-1
 48
1.0
  6
BYLAYER
100
AcDbLine
 10
20.0
 20
0.0
 30
0.0
 11
20.0
 21
128.5
 31
0.0
  0
LINE
  5
DF
100
AcDbEntity
  8
Cuts
 62
1
420
16711680
370
-1
 48
1.0
  6
BYLAYER
100
AcDbLine
 10
20.0
 20
128.5
 30
0.0
 11
0.0
 21
128.5
 31
0.0
  0
LINE
  5
E0
100
AcDbEntity
  8
Cuts
 62
1
420
16711680
370
-1
 48
1.0
  6
BYLAYER
100
AcDbLine
 10
0.0
 20
128.5
 30
0.0
 11
0.0
 21
0.0
 31
0.0
  0
DIMENSION
  5
E1
100
AcDbEntity
  8
UserDrawings
 62
256
370
-1
 48
1.0
  6
BYLAYER
100
AcDbDimension
 10
-10.0
 20
0.0
 30
0.0
 11
-11.875
 21
64.25
 31
0.0
 70
0
 71
8
 72
2
 74
0
 75
0
 41
1.0
 42
0.0
  1

  3
Standard
100
AcDbAlignedDimension
 13
-0.0
 23
-0.0
 33
0.0
 14
0.0
 24
128.5
 34
0.0
 50
90.0
100
AcDbRotatedDimension
1001
ACAD
1000
DSTYLE
1002
{
1070
144
1040
1.0
1070
40
1040
1.0
1002
}
  0
DIMENSION
  5
E2
100
AcDbEntity
  8
UserDrawings
 62
256
370
-1
 48
1.0
  6
BYLAYER
100
AcDbDimension
 10
0.0
 20
136.7913298366080426
 30
0.0
 11
10.0
 21
138.6663298366080426
 31
0.0
 70
0
 71
8
 72
2
 74
0
 75
0
 41
1.0
 42
0.0
  1

  3
Standard
100
AcDbAlignedDimension
 13
0.0
 23
128.5
 33
0.0
 14
20.0
 24
128.5
 34
0.0
 50
0.0
100
AcDbRotatedDimension
1001
ACAD
1000
DSTYLE
1002
{
1070
144
1040
1.0
1070
40
1040
1.0
1002
}
  0
LINE
  5
E3
100
AcDbEntity
  8
Cuts
 62
1
420
16711680
370
-1
 48
1.0
  6
BYLAYER
100
AcDbLine
 10
11.5000000000000107
 20
127.1000000000000369
 30
0.0
 11
13.5000000000000107
 21
127.1000000000000369
 31
0.0
  0
LINE
  5
E4
100
AcDbEntity
  8
Cuts
 62
1
420
16711680
370
-1
 48
1.0
  6
BYLAYER
100
AcDbLine
 10
11.5000000000000107
 20
4.6000000000000227
 30
0.0
 11
13.5000000000000107
 21
4.6000000000000227
 31
0.0
  0
LINE
  5
E5
100
AcDbEntity
  8
Cuts
 62
1
420
16711680
370
-1
 48
1.0
  6
BYLAYER
100
AcDbLine
 10
11.5000000000000107
 20
123.9000000000000341
 30
0.0
 11
13.5000000000000107
 21
123.9000000000000341
 31
0.0
  0
LINE
  5
E6
100
AcDbEntity
  8
Cuts
 62
1
420
16711680
370
-1
 48
1.0
  6
BYLAYER
100
AcDbLine
 10
11.5000000000000107
 20
1.4000000000000203
 30
0.0
 11
13.5000000000000107
 21
1.4000000000000203
 31
0.0
  0
ARC
  5
E7
100
AcDbEntity
  8
Cuts
 62
1
420
16711680
370
-1
 48
1.0
  6
BYLAYER
100
AcDbCircle
 10
13.5000000000000107
 20
125.5000000000000426
 30
0.0
 40
1.6000000000000085
100
AcDbArc
 50
270.0
 51
90.0
  0
ARC
  5
E8
100
AcDbEntity
  8
Cuts
 62
1
420
16711680
370
-1
 48
1.0
  6
BYLAYER
100
AcDbCircle
 10
13.5000000000000107
 20
3.0000000000000289
 30
0.0
 40
1.6000000000000085
100
AcDbArc
 50
270.0
 51
90.0
  0
ARC
  5
E9
100
AcDbEntity
  8
Cuts
 62
1
420
16711680
370
-1
 48
1.0
  6
BYLAYER
100
AcDbCircle
 10
11.5000000000000107
 20
125.5000000000000426
 30
0.0
 40
1.6000000000000085
100
AcDbArc
 50
90.0
 51
270.0
  0
ARC
  5
EA
100
AcDbEntity
  8
Cuts
 62
1
420
16711680
370
-1
 48
1.0
  6
BYLAYER
100
AcDbCircle
 10
11.5000000000000107
 20
3.0000000000000289
 30
0.0
 40
1.6000000000000085
100
AcDbArc
 50
90.0
 51
270.0
  0
CIRCLE
  5
EB
100
AcDbEntity
  8
Cuts
 62
1
420
16711680
370
-1
 48
1.0
  6
BYLAYER
100
AcDbCircle
 10
10.0
 20
25.0
 30
0.0
 40
3.2000000000000002
  0
CIRCLE
  5
EC
100
AcDbEntity
  8
Cuts
 62
1
420
16711680
370
-1
 48
1.0
  6
BYLAYER
100
AcDbCircle
 10
10.0
 20
63.0
 30
0.0
 40
3.2000000000000002
  0
CIRCLE
  5
ED
100
AcDbEntity
  8
Cuts
 62
1
420
16711680
370
-1
 48
1.0
  6
BYLAYER
100
AcDbCircle
 10
12.0
 20
107.0
 30
0.0
 40
3.2000000000000002
  0
LWPOLYLINE
  5
EE
100
AcDbEntity
  8
VectorEngraving
 62
5
420
255
370
-1
 48
1.0
  6
BYLAYER
100
AcDbPolyline
 90
8
 70
129
 10
8.419711448379239
 20
15.9747048903878568
 42
-0.2591303879110638
 10
7.8647180063706204
 20
16.242645681094249
 42
-0.1527047570207464
 10
7.6765973393292111
 20
17.0048716507401174
 42
-0.1520552001393959
 10
7.8647180063706204
 20
17.7575416900880647
 42
-0.260989382222952
 10
8.419711448379239
 20
18.0286677908937598
 42
-0.2598887638008126
 10
8.9700206108300549
 20
17.7575416900880647
 42
-0.1532357876440763
 10
9.1598276185122725
 20
17.0048716507401174
 42
-0.1538924925182083
 10
8.9700206108300549
 20
16.242645681094249
 42
-0.2580459804199897
  0
LWPOLYLINE
  5
EF
100
AcDbEntity
  8
VectorEngraving
 62
5
420
255
370
-1
 48
1.0
  6
BYLAYER
100
AcDbPolyline
 90
8
 70
129
 10
8.419711448379239
 20
16.2681281618887041
 42
0.2924199676809525
 10
8.7003934794828552
 20
16.4515645493723071
 42
0.1214329083418451
 10
8.8023234026606705
 20
17.0082443320217358
 42
0.1202673064395457
 10
8.7003934794828552
 20
17.5454375117106984
 42
0.2966022124947182
 10
8.419711448379239
 20
17.7352445193929178
 42
0.2995688277754189
 10
8.1341577665355072
 20
17.5454375117106984
 42
0.1186384765761756
 10
8.0337268128161892
 20
17.0082443320217358
 42
0.1197837217357299
 10
8.1341577665355072
 20
16.4515645493723071
 42
0.2952609534182957
  0
LWPOLYLINE
  5
F0
100
AcDbEntity
  8
VectorEngraving
 62
5
420
255
370
-1
 48
1.0
  6
BYLAYER
100
AcDbPolyline
 90
17
 70
129
 10
10.0078695896571102
 20
15.9713322091062402
 42
-0.2187932598690972
 10
9.5021547685965899
 20
16.1660108675285734
 42
-0.190278340595999
 10
9.3250890013115981
 20
16.7084504403222809
 10
9.3250890013115981
 20
18.0001873711823137
 10
9.711073636874648
 20
18.0001873711823137
 10
9.711073636874648
 20
17.9713322091062402
 42
0.1246165463759442
 10
9.6904628068203102
 20
17.9282368371744418
 42
0.0454369266293655
 10
9.6855911560801946
 20
17.853288364249579
 10
9.6855911560801946
 20
16.7050777590406589
 42
0.133340010744801
 10
9.7558553494472555
 20
16.3827993254637434
 42
0.2785909262070493
 10
10.0108675285741047
 20
16.2647554806070822
 42
0.2726441709264236
 10
10.2694397601648859
 20
16.3827993254637434
 42
0.1376862884248651
 10
10.3428892636312533
 20
16.7148210605208938
 10
10.3428892636312533
 20
18.0001873711823137
 10
10.6936481169196185
 20
18.0001873711823137
 10
10.6936481169196185
 20
16.7178189994378883
 42
-0.2083302145650363
 10
10.5023421397789019
 20
16.1532696271313476
 42
-0.1989968553203903
  0
LWPOLYLINE
  5
F1
100
AcDbEntity
  8
VectorEngraving
 62
5
420
255
370
-1
 48
1.0
  6
BYLAYER
100
AcDbPolyline
 90
8
 70
129
 10
11.4142776840921876
 20
16.0129286115795395
 10
11.4142776840921876
 20
17.6970207982012369
 10
10.8783961026794085
 20
17.6970207982012369
 10
10.8783961026794085
 20
18.0001873711823137
 10
12.3234026606707889
 20
18.0001873711823137
 10
12.3234026606707889
 20
17.6970207982012369
 10
11.7586659171819363
 20
17.6970207982012369
 10
11.7586659171819363
 20
16.0129286115795395
  0
LWPOLYLINE
  5
F2
100
AcDbEntity
  8
VectorEngraving
 62
5
420
255
370
-1
 48
1.0
  6
BYLAYER
100
AcDbPolyline
 90
26
 70
129
 10
4.5308225594903497
 20
53.9745175192055484
 42
-0.1371812061519581
 10
4.1335956529885705
 20
54.0815064643057895
 42
-0.1521335773926483
 10
3.8465430016863413
 20
54.4148397976391252
 42
-0.109573175036438
 10
3.7397414277684096
 20
54.9923177815252018
 42
-0.0854969824068505
 10
3.8115045905939668
 20
55.4851039910061843
 42
-0.1105493068353002
 10
4.0013115982761853
 20
55.8025107738429824
 42
-0.1092743849584158
 10
4.2611954281431519
 20
55.9730185497470529
 42
-0.0894144458589379
 10
4.5435637998875773
 20
56.0254824807944587
 42
-0.1442794725258736
 10
4.927862094809818
 20
55.9235525576166381
 42
-0.1501502099018014
 10
5.1720067453625633
 20
55.6364999063144126
 10
4.9452876147648492
 20
55.4674910998688446
 10
4.9198051339703959
 20
55.4513771781900004
 10
4.9040659546561738
 20
55.476859658984452
 42
0.1140804318625514
 10
4.8991943039160581
 20
55.5233277121978688
 42
0.0461095061681242
 10
4.8658422334644937
 20
55.5919055649241187
 42
0.1205634682736518
 10
4.7204421959902572
 20
55.7050777590406625
 42
0.0973965581775224
 10
4.5626756604834178
 20
55.7354318905752351
 42
0.1710454528741274
 10
4.3344575604272064
 20
55.652426456810943
 42
0.1324894010125175
 10
4.1622634438823312
 20
55.4084691774405087
 42
0.0957756120555064
 10
4.0968709012553877
 20
55.0080569608394327
 42
0.1424637919354499
 10
4.2229717069514709
 20
54.4674910998688446
 42
0.2705536969347103
 10
4.5401911186059589
 20
54.2713134719880088
 42
0.1360351973350578
 10
4.7444257073262133
 20
54.3222784335769191
 42
0.125475982462263
 10
4.9006932733745554
 20
54.491287240022487
 10
5.1495222034851045
 20
54.3065392542626952
 42
-0.1424969433067572
 10
4.8864530635188306
 20
54.0494659921304148
 42
-0.1161683907371355
  0
LWPOLYLINE
  5
F3
100
AcDbEntity
  8
VectorEngraving
 62
5
420
255
370
-1
 48
1.0
  6
BYLAYER
100
AcDbPolyline
 90
9
 70
129
 10
5.4170882518268693
 20
55.997002061083009
 10
5.8094435075885329
 20
55.997002061083009
 10
5.8094435075885329
 20
55.968146899006932
 42
0.1523096199730519
 10
5.7856473674348887
 20
55.9250515270751407
 42
0.0437068677127361
 10
5.780963087877085
 20
55.8501030541502743
 10
5.780963087877085
 20
54.3031665729810769
 10
6.6930860033726809
 20
54.3031665729810769
 10
6.6930860033726809
 20
54.0097433014802348
 10
5.4170882518268693
 20
54.0097433014802348
  0
LWPOLYLINE
  5
F4
100
AcDbEntity
  8
VectorEngraving
 62
5
420
255
370
-1
 48
1.0
  6
BYLAYER
100
AcDbPolyline
 90
17
 70
129
 10
7.4328274311410905
 20
54.9091249765786031
 10
7.3020423458872026
 20
54.7371182312160443
 10
7.3020423458872026
 20
54.0097433014802348
 10
6.9479108113172199
 20
54.0097433014802348
 10
6.9479108113172199
 20
55.997002061083009
 10
7.3275248266816568
 20
55.997002061083009
 10
7.3275248266816568
 20
55.968146899006932
 42
0.1689875292190395
 10
7.3052276559865099
 20
55.9250515270751407
 42
0.0297994704279046
 10
7.3020423458872026
 20
55.8501030541502743
 10
7.3020423458872026
 20
55.18343638748361
 10
7.9623383923552558
 20
56.0161139216788513
 42
0.0531456125433419
 10
8.0833801761289124
 20
56.0001873711823137
 42
0.010004862603622
 10
8.1950534007869571
 20
55.997002061083009
 10
8.3610642683155341
 20
55.997002061083009
 10
7.6880269814502533
 20
55.1643245268877678
 10
8.399287989507215
 20
54.0131159827618532
 10
7.98782087314971
 20
53.997002061083009
  0
LWPOLYLINE
  5
F5
100
AcDbEntity
  8
VectorEngraving
 62
5
420
255
370
-1
 48
1.0
  6
BYLAYER
100
AcDbPolyline
 90
13
 70
129
 10
10.1624508150646431
 20
54.0097433014802348
 10
10.1624508150646431
 20
55.997002061083009
 10
10.7908937605396282
 20
55.997002061083009
 42
-0.1905232060051605
 10
11.3234026606707889
 20
55.8375491849353622
 42
-0.2148899109718674
 10
11.4924114671163586
 20
55.413153456998316
 42
-0.1001913794401353
 10
11.4463181562675658
 20
55.1946786584223403
 42
-0.0965402896310182
 10
11.3155330710136788
 20
54.9985010305415045
 42
-0.110602378806398
 10
11.1195428143151585
 20
54.8709012553869258
 10
11.5467491099868838
 20
54.0097433014802348
 10
11.1671350946224468
 20
54.0097433014802348
 10
10.7654112797451749
 20
54.8360502154768596
 10
10.5259509087502341
 20
54.8360502154768596
 10
10.5259509087502341
 20
54.0097433014802348
  0
LWPOLYLINE
  5
F6
100
AcDbEntity
  8
VectorEngraving
 62
5
420
255
370
-1
 48
1.0
  6
BYLAYER
100
AcDbPolyline
 90
7
 70
129
 10
10.5259509087502341
 20
55.1358441071763181
 10
10.8163762413340834
 20
55.1358441071763181
 42
0.1918312228859644
 10
11.0459059396664792
 20
55.2076072700018727
 42
0.2154606779080341
 10
11.122540753232153
 20
55.4037848978827085
 42
0.1955098707729349
 10
11.0459059396664792
 20
55.6014614952220398
 42
0.2146607426726554
 10
10.8163762413340834
 20
55.6844669289863248
 10
10.5259509087502341
 20
55.6844669289863248
  0
LWPOLYLINE
  5
F7
100
AcDbEntity
  8
VectorEngraving
 62
5
420
255
370
-1
 48
1.0
  6
BYLAYER
100
AcDbPolyline
 90
8
 70
129
 10
12.8062581974892264
 20
54.0097433014802348
 10
12.6691024920367248
 20
54.4721753794266448
 10
12.1493348323027917
 20
54.4721753794266448
 10
12.0088064455686716
 20
54.0097433014802348
 10
11.6516769720816935
 20
54.0097433014802348
 10
12.3247142589469743
 20
56.0097433014802348
 10
12.4970957466741623
 20
56.0097433014802348
 10
13.1701330335394413
 20
54.0097433014802348
  0
LWPOLYLINE
  5
F8
100
AcDbEntity
  8
VectorEngraving
 62
5
420
255
370
-1
 48
1.0
  6
BYLAYER
100
AcDbPolyline
 90
3
 70
129
 10
12.4109050028105674
 20
55.3430766348135705
 10
12.2257822746861535
 20
54.7307476110174278
 10
12.5926550496533629
 20
54.7307476110174278
  0
LWPOLYLINE
  5
F9
100
AcDbEntity
  8
VectorEngraving
 62
5
420
255
370
-1
 48
1.0
  6
BYLAYER
100
AcDbPolyline
 90
8
 70
129
 10
13.817313097245643
 20
54.0097433014802348
 10
13.817313097245643
 20
55.6938354881019322
 10
13.281431515832864
 20
55.6938354881019322
 10
13.281431515832864
 20
55.997002061083009
 10
14.7264380738242462
 20
55.997002061083009
 10
14.7264380738242462
 20
55.6938354881019322
 10
14.1617013303353936
 20
55.6938354881019322
 10
14.1617013303353936
 20
54.0097433014802348
  0
LWPOLYLINE
  5
FA
100
AcDbEntity
  8
VectorEngraving
 62
5
420
255
370
-1
 48
1.0
  6
BYLAYER
100
AcDbPolyline
 90
12
 70
129
 10
14.9651489600899374
 20
54.0097433014802348
 10
14.9651489600899374
 20
55.997002061083009
 10
16.2602585722315922
 20
55.997002061083009
 10
16.2602585722315922
 20
55.703578789582167
 10
15.3159078133783026
 20
55.703578789582167
 10
15.3159078133783026
 20
55.1931796889638377
 10
16.0912497657860243
 20
55.1931796889638377
 10
16.0912497657860243
 20
54.8963837361813773
 10
15.3159078133783026
 20
54.8963837361813773
 10
15.3159078133783026
 20
54.3031665729810769
 10
16.2505152707513574
 20
54.3031665729810769
 10
16.2505152707513574
 20
54.0097433014802348
  0
LWPOLYLINE
  5
FB
100
AcDbEntity
  8
VectorEngraving
 62
5
420
255
370
-1
 48
1.0
  6
BYLAYER
100
AcDbPolyline
 90
39
 70
129
 10
10.3576915870339139
 20
98.1881662630705705
 42
-0.0824589363782458
 10
9.9859471613265889
 20
98.2471881854988993
 42
-0.1239231858747242
 10
9.6973955405658607
 20
98.4276266340655042
 10
9.8727749672100433
 20
98.7240478444833371
 10
9.8855162076072709
 20
98.7495303252778029
 10
9.9143713696833426
 20
98.7337911459635791
 42
0.0468697015839636
 10
9.9317968896383739
 20
98.6843251538331572
 42
0.0914502355628921
 10
9.9810755105864715
 20
98.6251158602225217
 42
0.0681594634041996
 10
10.1581412778714633
 20
98.526371247144013
 42
0.095002715864558
 10
10.3704328274311415
 20
98.4879601547700219
 42
0.1544690761801057
 10
10.614390106801574
 20
98.55335269739696
 42
0.2606540762175954
 10
10.7084504403222791
 20
98.7465323863607978
 42
0.120851274343756
 10
10.6797826494285175
 20
98.8660752006759651
 42
0.121961345431886
 10
10.5666104553119737
 20
98.9792473947925089
 42
0.0382540592904312
 10
10.3160951845606146
 20
99.1134051613280178
 42
-0.0581074828848442
 10
9.9923177815252018
 20
99.2934688675299952
 42
-0.1200427752267663
 10
9.8218100056211348
 20
99.4913328360516402
 42
-0.1126833292539675
 10
9.7708450440322281
 20
99.7321048053227628
 42
-0.1592312928671928
 10
9.8521641371557056
 20
99.9936749758305439
 42
-0.1317713073948794
 10
10.0770095559302977
 20
100.1754250226733376
 42
-0.1105525077854713
 10
10.4056586097058279
 20
100.2425039059410921
 42
-0.2184592046669954
 10
11.0082443320217358
 20
99.9873043556319345
 10
10.7976391231028668
 20
99.7448460457199957
 10
10.7785272625070263
 20
99.7227362462071625
 10
10.7530447817125729
 20
99.7418481068029905
 42
0.0525272950835355
 10
10.7419898819561546
 20
99.7911267277510916
 42
0.0946983163545056
 10
10.6990818812066699
 20
99.8531465890964256
 42
0.1239145974077275
 10
10.5697957654112802
 20
99.9299687738444078
 42
0.0674802657518838
 10
10.4086565486228224
 20
99.94908063444025
 42
0.1710695699773914
 10
10.2012366498032598
 20
99.8883723713711049
 42
0.2395241755843675
 10
10.1246018362375878
 20
99.7482187270016141
 42
0.1315107380140507
 10
10.1534569983136596
 20
99.6331728210619474
 42
0.1136957301832073
 10
10.2700018737118235
 20
99.5248722776855175
 42
0.0383547771665513
 10
10.5394416338767094
 20
99.3877165722330176
 42
-0.0534254991441464
 10
10.8551620760727001
 20
99.2074654948487193
 42
-0.1275968227177335
 10
11.0163012928611579
 20
99.0144731770671882
 42
-0.1042366901074359
 10
11.0625819748922609
 20
98.7690169282382584
 42
-0.1279801959424071
 10
10.9891324714258953
 20
98.4911454648693336
 42
-0.1467899336018335
 10
10.7594154019111858
 20
98.2726706662933509
 42
-0.1239665239214243
  0
LWPOLYLINE
  5
FC
100
AcDbEntity
  8
VectorEngraving
 62
5
420
255
370
-1
 48
1.0
  6
BYLAYER
100
AcDbPolyline
 90
17
 70
129
 10
12.3857972643807379
 20
97.7575872861172144
 42
-0.1550153839587492
 10
11.9569046280682034
 20
97.8501486501794204
 42
-0.2319974721400045
 10
11.821435263256511
 20
98.2072781236663985
 42
-0.2151892992018647
 10
11.4034101555180811
 20
98.5231859370447012
 42
-0.1371993947971364
 10
11.2439572793704325
 20
99.2153350845058242
 42
-0.1042972442425928
 10
11.3460745737305615
 20
99.8119249289877501
 42
-0.1539874995234677
 10
11.6172006745362566
 20
100.1403866115809649
 42
-0.1393245135541709
 10
11.984073449503466
 20
100.2425039059410921
 42
-0.1478214670751771
 10
12.3620011242270937
 20
100.1340159913823555
 42
-0.1521378941202918
 10
12.6250702641933668
 20
99.7989963174082106
 42
-0.1009235753205528
 10
12.7178189994378865
 20
99.2187077657874426
 42
-0.1373005561576263
 10
12.5662357129473499
 20
98.5087583560066662
 42
-0.2038934570961731
 10
12.1594528761476486
 20
98.2072781236663985
 42
0.1543445979814883
 10
12.2040472175379424
 20
98.087922680533552
 42
0.2355970728074027
 10
12.3348323027918312
 20
98.0446399374194471
 10
12.5964024732996069
 20
98.05738117781668
 10
12.5900318531009923
 20
97.7575872861172144
  0
LWPOLYLINE
  5
FD
100
AcDbEntity
  8
VectorEngraving
 62
5
420
255
370
-1
 48
1.0
  6
BYLAYER
100
AcDbPolyline
 90
10
 70
129
 10
11.9904440697020807
 20
98.4849622158530309
 42
0.1806339103518577
 10
12.1753794266441826
 20
98.5567253786785784
 42
0.1344799946027905
 10
12.3157204421959907
 20
98.7847561075524823
 42
0.0814731877151332
 10
12.3700580850665176
 20
99.1962232239099819
 42
0.078503878671793
 10
12.3142214727374935
 20
99.6427287513598685
 42
0.1410093459015939
 10
12.1706951470863789
 20
99.8788164410731838
 42
0.175029092568949
 10
11.984073449503466
 20
99.94908063444025
 42
0.2967461616877379
 10
11.7002061083005433
 20
99.7592736267580307
 42
0.1220336188243816
 10
11.5980888139404161
 20
99.2471881854988993
 42
0.1216306078314379
 10
11.7048903878583488
 20
98.6794535030930433
 42
0.2926619041395115
  0
LWPOLYLINE
  5
FE
100
AcDbEntity
  8
VectorEngraving
 62
5
420
255
370
-1
 48
1.0
  6
BYLAYER
100
AcDbPolyline
 90
13
 70
129
 10
12.9183061645118986
 20
98.2233920453452498
 10
12.9183061645118986
 20
100.2106508049480169
 10
13.5467491099868838
 20
100.2106508049480169
 42
-0.1905232060051989
 10
14.0792580101180445
 20
100.0511979288003772
 42
-0.2148899109718676
 10
14.2482668165636124
 20
99.626802200863338
 42
-0.1001913794400916
 10
14.2021735057148213
 20
99.4083274022873553
 42
-0.0965402896310735
 10
14.0713884204609325
 20
99.2121497744065266
 42
-0.1106023788063472
 10
13.875398163762414
 20
99.0845499992519336
 10
14.3026044594341393
 20
98.2233920453452498
 10
13.9229904440697023
 20
98.2233920453452498
 10
13.5212666291924304
 20
99.0496989593418817
 10
13.2818062581974896
 20
99.0496989593418817
 10
13.2818062581974896
 20
98.2233920453452498
  0
LWPOLYLINE
  5
FF
100
AcDbEntity
  8
VectorEngraving
 62
5
420
255
370
-1
 48
1.0
  6
BYLAYER
100
AcDbPolyline
 90
7
 70
129
 10
13.2818062581974896
 20
99.3494928510413331
 10
13.5722315907813389
 20
99.3494928510413331
 42
0.1918312228858953
 10
13.8017612891137347
 20
99.4212560138668948
 42
0.2154606779080573
 10
13.8783961026794085
 20
99.6174336417477235
 42
0.1955098707729704
 10
13.8017612891137347
 20
99.8151102390870477
 42
0.2146607426726458
 10
13.5722315907813389
 20
99.8981156728513326
 10
13.2818062581974896
 20
99.8981156728513326
  0
LWPOLYLINE
  5
100
100
AcDbEntity
  8
VectorEngraving
 62
5
420
255
370
-1
 48
1.0
  6
BYLAYER
100
AcDbPolyline
 90
8
 70
129
 10
10.2986696646055833
 20
114.0
 10
10.2986696646055833
 20
115.6840921866216974
 10
9.762788083192806
 20
115.6840921866216974
 10
9.762788083192806
 20
115.9872587596027671
 10
11.2077946411841864
 20
115.9872587596027671
 10
11.2077946411841864
 20
115.6840921866216974
 10
10.6430578976953338
 20
115.6840921866216974
 10
10.6430578976953338
 20
114.0
  0
LWPOLYLINE
  5
101
100
AcDbEntity
  8
VectorEngraving
 62
5
420
255
370
-1
 48
1.0
  6
BYLAYER
100
AcDbPolyline
 90
13
 70
129
 10
11.4273936668540372
 20
114.0
 10
11.4273936668540372
 20
115.9872587596027671
 10
12.0558366123290241
 20
115.9872587596027671
 42
-0.1905232060051493
 10
12.5883455124601831
 20
115.8278058834551274
 42
-0.2148899109718901
 10
12.7573543189057528
 20
115.4034101555180882
 42
-0.1001913794401214
 10
12.7112610080569617
 20
115.1849353569421055
 42
-0.0965402896310011
 10
12.5804759228030729
 20
114.9887577290612768
 42
-0.1106023788063548
 10
12.3844856661045526
 20
114.8611579539066838
 10
12.8116919617762797
 20
114.0
 10
12.4320779464118409
 20
114.0
 10
12.030354131534569
 20
114.8263069139966319
 10
11.7908937605396282
 20
114.8263069139966319
 10
11.7908937605396282
 20
114.0
  0
LWPOLYLINE
  5
102
100
AcDbEntity
  8
VectorEngraving
 62
5
420
255
370
-1
 48
1.0
  6
BYLAYER
100
AcDbPolyline
 90
7
 70
129
 10
11.7908937605396282
 20
115.1261008056960833
 10
12.0813190931234775
 20
115.1261008056960833
 42
0.1918312228859941
 10
12.3108487914558751
 20
115.197863968521645
 42
0.2154606779079864
 10
12.3874836050215471
 20
115.3940415964024737
 42
0.1955098707729109
 10
12.3108487914558751
 20
115.5917181937417979
 42
0.2146607426726465
 10
12.0813190931234775
 20
115.6747236275060828
 10
11.7908937605396282
 20
115.6747236275060828
  0
LWPOLYLINE
  5
103
100
AcDbEntity
  8
VectorEngraving
 62
5
420
255
370
-1
 48
1.0
  6
BYLAYER
100
AcDbPolyline
 90
12
 70
129
 10
13.1017425519955033
 20
114.0
 10
13.1017425519955033
 20
114.2904253325838511
 10
13.4907251264755477
 20
114.2904253325838511
 10
13.4907251264755477
 20
115.6968334270189303
 10
13.1238523515083383
 20
115.6968334270189303
 10
13.1238523515083383
 20
115.9872587596027671
 10
14.2210979951283498
 20
115.9872587596027671
 10
14.2210979951283498
 20
115.6968334270189303
 10
13.8321154206483037
 20
115.6968334270189303
 10
13.8321154206483037
 20
114.2904253325838511
 10
14.2372119168071958
 20
114.2904253325838511
 10
14.2372119168071958
 20
114.0
  0
LWPOLYLINE
  5
104
100
AcDbEntity
  8
VectorEngraving
 62
5
420
255
370
-1
 48
1.0
  6
BYLAYER
100
AcDbPolyline
 90
13
 70
129
 10
1.3207794641184183
 20
119.0112422709387232
 10
1.3207794641184183
 20
120.9985010305414903
 10
1.9492224095934052
 20
120.9985010305414903
 42
-0.1905232060051877
 10
2.4817313097245641
 20
120.8390481543938506
 42
-0.2148899109718634
 10
2.6507401161701329
 20
120.4146524264568114
 42
-0.1001913794400959
 10
2.6046468053213419
 20
120.1961776278808287
 42
-0.0965402896310661
 10
2.473861720067454
 20
120.0
 42
-0.1106023788063393
 10
2.2778714633689332
 20
119.872400224845407
 10
2.7050777590406589
 20
119.0112422709387232
 10
2.3254637436762229
 20
119.0112422709387232
 10
1.9237399287989501
 20
119.8375491849353551
 10
1.6842795578040093
 20
119.8375491849353551
 10
1.6842795578040093
 20
119.0112422709387232
  0
LWPOLYLINE
  5
105
100
AcDbEntity
  8
VectorEngraving
 62
5
420
255
370
-1
 48
1.0
  6
BYLAYER
100
AcDbPolyline
 90
7
 70
129
 10
1.6842795578040093
 20
120.1373430766348065
 10
1.9747048903878586
 20
120.1373430766348065
 42
0.1918312228859045
 10
2.2042345887202544
 20
120.2091062394603682
 42
0.2154606779080852
 10
2.2808694022859282
 20
120.4052838673411969
 42
0.1955098707729519
 10
2.2042345887202544
 20
120.6029604646805211
 42
0.2146607426726559
 10
1.9747048903878586
 20
120.685965898444806
 10
1.6842795578040093
 20
120.685965898444806
  0
LWPOLYLINE
  5
106
100
AcDbEntity
  8
VectorEngraving
 62
5
420
255
370
-1
 48
1.0
  6
BYLAYER
100
AcDbPolyline
 90
13
 70
129
 10
3.0652051714446316
 20
119.0112422709387232
 10
2.8036350009368558
 20
120.9985010305414903
 10
3.1161701330335392
 20
120.9985010305414903
 10
3.2503278995690463
 20
119.7513584410717584
 10
3.5055274498782083
 20
120.8422334644931482
 10
3.6966460558366121
 20
120.8422334644931482
 10
3.9518456061457741
 20
119.7543563799887494
 10
4.0571482106052095
 20
120.9985010305414903
 10
4.3505714821060515
 20
120.9985010305414903
 10
4.092373992879895
 20
119.0112422709387232
 10
3.8660296046468048
 20
119.0112422709387232
 10
3.5849728311785647
 20
120.2362750608956219
 10
3.2979201798763356
 20
119.0112422709387232
  0
LWPOLYLINE
  5
107
100
AcDbEntity
  8
VectorEngraving
 62
5
420
255
370
-1
 48
1.0
  6
BYLAYER
100
AcDbPolyline
 90
12
 70
129
 10
6.1234776091437135
 20
119.0112422709387232
 10
6.1234776091437135
 20
120.9985010305414903
 10
7.4185872212853665
 20
120.9985010305414903
 10
7.4185872212853665
 20
120.7050777590406483
 10
6.4742364624320778
 20
120.7050777590406483
 10
6.4742364624320778
 20
120.1946786584223332
 10
7.2495784148397977
 20
120.1946786584223332
 10
7.2495784148397977
 20
119.8978827056398728
 10
6.4742364624320778
 20
119.8978827056398728
 10
6.4742364624320778
 20
119.3046655424395652
 10
7.4088439198051335
 20
119.3046655424395652
 10
7.4088439198051335
 20
119.0112422709387232
  0
LWPOLYLINE
  5
108
100
AcDbEntity
  8
VectorEngraving
 62
5
420
255
370
-1
 48
1.0
  6
BYLAYER
100
AcDbPolyline
 90
13
 70
129
 10
7.6572981075510587
 20
119.0112422709387232
 10
7.6572981075510587
 20
120.9985010305414903
 10
7.9732059209293604
 20
120.9985010305414903
 10
8.3591905564924112
 20
120.0860033726812759
 10
8.7451751920554628
 20
121.0014989694584955
 10
9.0610830054337637
 20
121.0014989694584955
 10
9.0610830054337637
 20
119.0112422709387232
 10
8.7481731309724573
 20
119.0112422709387232
 10
8.7481731309724573
 20
120.3989132471425876
 10
8.435637998875773
 20
119.6681656361251527
 10
8.2602585722315904
 20
119.6681656361251527
 10
7.9668353007307475
 20
120.3955405658609692
 10
7.9668353007307475
 20
119.0112422709387232
  0
LWPOLYLINE
  5
109
100
AcDbEntity
  8
VectorEngraving
 62
5
420
255
370
-1
 48
1.0
  6
BYLAYER
100
AcDbPolyline
 90
9
 70
129
 10
10.9261757541690088
 20
120.9985010305414903
 10
11.3185310099306715
 20
120.9985010305414903
 10
11.3185310099306715
 20
120.9696458684654203
 42
0.1523096199735524
 10
11.2947348697770273
 20
120.926550496533622
 42
0.0437068677127323
 10
11.2900505902192236
 20
120.8516020236087627
 10
11.2900505902192236
 20
119.3046655424395652
 10
12.2021735057148213
 20
119.3046655424395652
 10
12.2021735057148213
 20
119.0112422709387232
 10
10.9261757541690088
 20
119.0112422709387232
  0
LWPOLYLINE
  5
10A
100
AcDbEntity
  8
VectorEngraving
 62
5
420
255
370
-1
 48
1.0
  6
BYLAYER
100
AcDbPolyline
 90
10
 70
129
 10
12.5495596777215663
 20
119.0112422709387232
 10
12.5495596777215663
 20
120.9985010305414903
 10
13.786958965711074
 20
120.9985010305414903
 10
13.786958965711074
 20
120.7080756979576535
 10
12.871463368933858
 20
120.7080756979576535
 10
12.871463368933858
 20
120.2265317594153942
 10
13.6149522203485098
 20
120.2265317594153942
 10
13.6149522203485098
 20
119.9361064268315431
 10
12.871463368933858
 20
119.9361064268315431
 10
12.871463368933858
 20
119.0112422709387232
  0
LWPOLYLINE
  5
10B
100
AcDbEntity
  8
VectorEngraving
 62
5
420
255
370
-1
 48
1.0
  6
BYLAYER
100
AcDbPolyline
 90
8
 70
129
 10
14.7373056023983509
 20
118.9730185497470387
 42
-0.2591303879110497
 10
14.1823121603897313
 20
119.2409593404534291
 42
-0.1527047570207404
 10
13.9941914933483229
 20
120.0031853100992976
 42
-0.1520552001393964
 10
14.1823121603897313
 20
120.7558553494472449
 42
-0.2609893822229596
 10
14.7373056023983509
 20
121.0269814502529471
 42
-0.2598887638008023
 10
15.2876147648491649
 20
120.7558553494472449
 42
-0.1532357876440882
 10
15.4774217725313843
 20
120.0031853100992976
 42
-0.1538924925182124
 10
15.2876147648491649
 20
119.2409593404534291
 42
-0.258045980419967
  0
LWPOLYLINE
  5
10C
100
AcDbEntity
  8
VectorEngraving
 62
5
420
255
370
-1
 48
1.0
  6
BYLAYER
100
AcDbPolyline
 90
8
 70
129
 10
14.7373056023983509
 20
119.2664418212478807
 42
0.2924199676809621
 10
15.0179876335019671
 20
119.4498782087314908
 42
0.1214329083418487
 10
15.1199175566797823
 20
120.006557991380916
 42
0.1202673064395656
 10
15.0179876335019671
 20
120.5437511710698857
 42
0.2966022124946862
 10
14.7373056023983509
 20
120.7335581787521051
 42
0.2995688277753999
 10
14.451751920554619
 20
120.5437511710698857
 42
0.1186384765761955
 10
14.351320966835301
 20
120.006557991380916
 42
0.1197837217357263
 10
14.451751920554619
 20
119.4498782087314908
 42
0.2952609534183414
  0
LWPOLYLINE
  5
10D
100
AcDbEntity
  8
VectorEngraving
 62
5
420
255
370
-1
 48
1.0
  6
BYLAYER
100
AcDbPolyline
 90
8
 70
129
 10
18.3153456998313651
 20
119.0112422709387232
 10
18.1781899943788652
 20
119.4736743488851403
 10
17.6584223346449321
 20
119.4736743488851403
 10
17.5178939479108102
 20
119.0112422709387232
 10
17.1607644744238321
 20
119.0112422709387232
 10
17.8338017612891129
 20
121.0112422709387232
 10
18.0061832490162992
 20
121.0112422709387232
 10
18.6792205358815799
 20
119.0112422709387232
  0
LWPOLYLINE
  5
10E
100
AcDbEntity
  8
VectorEngraving
 62
5
420
255
370
-1
 48
1.0
  6
BYLAYER
100
AcDbPolyline
 90
3
 70
129
 10
17.919992505152706
 20
120.3445756042720518
 10
17.7348697770282939
 20
119.7322465804759162
 10
18.1017425519955033
 20
119.7322465804759162
  0
ENDSEC
  0
SECTION
  2
OBJECTS
  0
DICTIONARY
  5
C
100
AcDbDictionary
280
0
281
1
  3
ACAD_GROUP
350
D
  3
ACAD_LAYOUT
350
1A
  3
ACAD_MLINESTYLE
350
17
  3
ACAD_PLOTSETTINGS
350
19
  3
ACAD_PLOTSTYLENAME
350
E
  3
AcDbVariableDictionary
350
10F
  3
QCAD_OBJECTS
350
110
  0
DICTIONARY
  5
D
100
AcDbDictionary
280
0
281
1
  0
ACDBDICTIONARYWDFLT
  5
E
100
AcDbDictionary
281
1
  3
Normal
350
F
100
AcDbDictionaryWithDefault
340
F
  0
ACDBPLACEHOLDER
  5
F
  0
DICTIONARY
  5
17
100
AcDbDictionary
280
0
281
1
  3
Standard
350
18
  0
MLINESTYLE
  5
18
100
AcDbMlineStyle
  2
STANDARD
 70
0
  3

 62
256
 51
90.0
 52
90.0
 71
2
 49
0.5
 62
256
  6
BYLAYER
 49
-0.5
 62
256
  6
BYLAYER
  0
DICTIONARY
  5
19
100
AcDbDictionary
280
0
281
1
  0
DICTIONARY
  5
1A
100
AcDbDictionary
281
1
  3
Layout1
350
1E
  3
Layout2
350
26
  3
Model
350
22
  0
LAYOUT
  5
1E
100
AcDbPlotSettings
  1

  2
none_device
  4

  6

 40
0.0
 41
0.0
 42
0.0
 43
0.0
 44
0.0
 45
0.0
 46
0.0
 47
0.0
 48
0.0
 49
0.0
140
0.0
141
0.0
142
1.0
143
1.0
 70
688
 72
0
 73
0
 74
5
  7

 75
16
147
1.0
148
0.0
149
0.0
100
AcDbLayout
  1
Layout1
 70
1
 71
1
 10
0.0
 20
0.0
 11
420.0
 21
297.0
 12
0.0
 22
0.0
 32
0.0
 14
100000000000000000000.0
 24
100000000000000000000.0
 34
100000000000000000000.0
 15
-100000000000000000000.0
 25
-100000000000000000000.0
 35
-100000000000000000000.0
146
0.0
 13
0.0
 23
0.0
 33
0.0
 16
1.0
 26
0.0
 36
0.0
 17
0.0
 27
1.0
 37
0.0
 76
0
330
1B
  0
LAYOUT
  5
22
100
AcDbPlotSettings
  1

  2
none_device
  4

  6

 40
0.0
 41
0.0
 42
0.0
 43
0.0
 44
0.0
 45
0.0
 46
0.0
 47
0.0
 48
0.0
 49
0.0
140
0.0
141
0.0
142
1.0
143
1.0
 70
1712
 72
0
 73
0
 74
0
  7

 75
0
147
1.0
148
0.0
149
0.0
100
AcDbLayout
  1
Model
 70
1
 71
0
 10
0.0
 20
0.0
 11
12.0
 21
9.0
 12
0.0
 22
0.0
 32
0.0
 14
0.0
 24
0.0
 34
0.0
 15
0.0
 25
0.0
 35
0.0
146
0.0
 13
0.0
 23
0.0
 33
0.0
 16
1.0
 26
0.0
 36
0.0
 17
0.0
 27
1.0
 37
0.0
 76
0
330
1F
  0
LAYOUT
  5
26
100
AcDbPlotSettings
  1

  2
none_device
  4

  6

 40
0.0
 41
0.0
 42
0.0
 43
0.0
 44
0.0
 45
0.0
 46
0.0
 47
0.0
 48
0.0
 49
0.0
140
0.0
141
0.0
142
1.0
143
1.0
 70
688
 72
0
 73
0
 74
5
  7

 75
16
147
1.0
148
0.0
149
0.0
100
AcDbLayout
  1
Layout2
 70
1
 71
2
 10
0.0
 20
0.0
 11
12.0
 21
9.0
 12
0.0
 22
0.0
 32
0.0
 14
0.0
 24
0.0
 34
0.0
 15
0.0
 25
0.0
 35
0.0
146
0.0
 13
0.0
 23
0.0
 33
0.0
 16
1.0
 26
0.0
 36
0.0
 17
0.0
 27
1.0
 37
0.0
 76
0
330
23
  0
DICTIONARY
  5
10F
100
AcDbDictionary
281
1
  3
DIMASSOC
350
112
  3
HIDETEXT
350
111
  0
DICTIONARYVAR
  5
111
100
DictionaryVariables
280
0
  1
2
  0
DICTIONARYVAR
  5
112
100
DictionaryVariables
280
0
  1
1
  0
DICTIONARY
  5
110
100
AcDbDictionary
281
1
  3
ColorSettings/BackgroundColor
350
113
  3
ColorSettings/ColorMode
350
114
  3
Grid/DisplayGrid00
350
115
  3
Grid/DisplayGrid01
350
116
  3
Grid/DisplayGrid02
350
117
  3
Grid/DisplayGrid03
350
118
  3
Grid/GridSpacingX00
350
119
  3
Grid/GridSpacingX01
350
11A
  3
Grid/GridSpacingX02
350
11B
  3
Grid/GridSpacingX03
350
11C
  3
Grid/GridSpacingY00
350
11D
  3
Grid/GridSpacingY01
350
11E
  3
Grid/GridSpacingY02
350
11F
  3
Grid/GridSpacingY03
350
120
  3
Grid/IsometricGrid00
350
121
  3
Grid/IsometricGrid01
350
122
  3
Grid/IsometricGrid02
350
123
  3
Grid/IsometricGrid03
350
124
  3
Grid/IsometricProjection00
350
125
  3
Grid/IsometricProjection01
350
126
  3
Grid/IsometricProjection02
350
127
  3
Grid/IsometricProjection03
350
128
  3
Grid/MetaGridSpacingX00
350
129
  3
Grid/MetaGridSpacingX01
350
12A
  3
Grid/MetaGridSpacingX02
350
12B
  3
Grid/MetaGridSpacingX03
350
12C
  3
Grid/MetaGridSpacingY00
350
12D
  3
Grid/MetaGridSpacingY01
350
12E
  3
Grid/MetaGridSpacingY02
350
12F
  3
Grid/MetaGridSpacingY03
350
130
  3
MultiPageSettings/Columns
350
131
  3
MultiPageSettings/GlueMarginsBottom
350
132
  3
MultiPageSettings/GlueMarginsLeft
350
133
  3
MultiPageSettings/GlueMarginsRight
350
134
  3
MultiPageSettings/GlueMarginsTop
350
135
  3
MultiPageSettings/PrintCropMarks
350
136
  3
MultiPageSettings/Rows
350
137
  3
PageSettings/OffsetX
350
138
  3
PageSettings/OffsetY
350
139
  3
PageSettings/PageOrientation
350
13A
  3
PageSettings/PaperHeight
350
13B
  3
PageSettings/PaperWidth
350
13C
  3
PageSettings/Scale
350
13D
  3
PageSettings/ShowPaperBorders
350
13E
  3
PageTagSettings/EnablePageTags
350
13F
  3
PageTagSettings/TagAlignment
350
140
  3
PageTagSettings/TagFont
350
141
  3
PageTagSettings/TagPosition
350
142
  3
QCADVersion
350
143
  3
UnitSettings/PaperUnit
350
144
  3
ViewportCenter
350
145
  3
ViewportHeight
350
146
  3
ViewportWidth
350
147
  0
XRECORD
  5
113
330
110
100
AcDbXrecord
280
1
1000
White
  0
XRECORD
  5
114
330
110
100
AcDbXrecord
280
1
1000
FullColor
  0
XRECORD
  5
115
330
110
100
AcDbXrecord
280
1
290
1
  0
XRECORD
  5
116
330
110
100
AcDbXrecord
280
1
290
1
  0
XRECORD
  5
117
330
110
100
AcDbXrecord
280
1
290
1
  0
XRECORD
  5
118
330
110
100
AcDbXrecord
280
1
290
1
  0
XRECORD
  5
119
330
110
100
AcDbXrecord
280
1
1000
auto
  0
XRECORD
  5
11A
330
110
100
AcDbXrecord
280
1
1000
auto
  0
XRECORD
  5
11B
330
110
100
AcDbXrecord
280
1
1000
auto
  0
XRECORD
  5
11C
330
110
100
AcDbXrecord
280
1
1000
auto
  0
XRECORD
  5
11D
330
110
100
AcDbXrecord
280
1
1000
auto
  0
XRECORD
  5
11E
330
110
100
AcDbXrecord
280
1
1000
auto
  0
XRECORD
  5
11F
330
110
100
AcDbXrecord
280
1
1000
auto
  0
XRECORD
  5
120
330
110
100
AcDbXrecord
280
1
1000
auto
  0
XRECORD
  5
121
330
110
100
AcDbXrecord
280
1
290
0
  0
XRECORD
  5
122
330
110
100
AcDbXrecord
280
1
290
0
  0
XRECORD
  5
123
330
110
100
AcDbXrecord
280
1
290
0
  0
XRECORD
  5
124
330
110
100
AcDbXrecord
280
1
290
0
  0
XRECORD
  5
125
330
110
100
AcDbXrecord
280
1
 90
65537
  0
XRECORD
  5
126
330
110
100
AcDbXrecord
280
1
 90
65537
  0
XRECORD
  5
127
330
110
100
AcDbXrecord
280
1
 90
65537
  0
XRECORD
  5
128
330
110
100
AcDbXrecord
280
1
 90
65537
  0
XRECORD
  5
129
330
110
100
AcDbXrecord
280
1
1000
auto
  0
XRECORD
  5
12A
330
110
100
AcDbXrecord
280
1
1000
auto
  0
XRECORD
  5
12B
330
110
100
AcDbXrecord
280
1
1000
auto
  0
XRECORD
  5
12C
330
110
100
AcDbXrecord
280
1
1000
auto
  0
XRECORD
  5
12D
330
110
100
AcDbXrecord
280
1
1000
auto
  0
XRECORD
  5
12E
330
110
100
AcDbXrecord
280
1
1000
auto
  0
XRECORD
  5
12F
330
110
100
AcDbXrecord
280
1
1000
auto
  0
XRECORD
  5
130
330
110
100
AcDbXrecord
280
1
1000
auto
  0
XRECORD
  5
131
330
110
100
AcDbXrecord
280
1
 90
1
  0
XRECORD
  5
132
330
110
100
AcDbXrecord
280
1
 40
10.0
  0
XRECORD
  5
133
330
110
100
AcDbXrecord
280
1
 40
10.0
  0
XRECORD
  5
134
330
110
100
AcDbXrecord
280
1
 40
10.0
  0
XRECORD
  5
135
330
110
100
AcDbXrecord
280
1
 40
10.0
  0
XRECORD
  5
136
330
110
100
AcDbXrecord
280
1
290
0
  0
XRECORD
  5
137
330
110
100
AcDbXrecord
280
1
 90
1
  0
XRECORD
  5
138
330
110
100
AcDbXrecord
280
1
 40
0.0
  0
XRECORD
  5
139
330
110
100
AcDbXrecord
280
1
 40
0.0
  0
XRECORD
  5
13A
330
110
100
AcDbXrecord
280
1
1000
Portrait
  0
XRECORD
  5
13B
330
110
100
AcDbXrecord
280
1
 40
297.0
  0
XRECORD
  5
13C
330
110
100
AcDbXrecord
280
1
 40
210.0
  0
XRECORD
  5
13D
330
110
100
AcDbXrecord
280
1
1000
1:1
  0
XRECORD
  5
13E
330
110
100
AcDbXrecord
280
1
290
1
  0
XRECORD
  5
13F
330
110
100
AcDbXrecord
280
1
290
0
  0
XRECORD
  5
140
330
110
100
AcDbXrecord
280
1
1000
Inside
  0
XRECORD
  5
141
330
110
100
AcDbXrecord
280
1
1000
Arial,10,-1,5,50,0,0,0,0,0
  0
XRECORD
  5
142
330
110
100
AcDbXrecord
280
1
1000
TopLeft
  0
XRECORD
  5
143
330
110
100
AcDbXrecord
280
1
1000
3.27.6.7
  0
XRECORD
  5
144
330
110
100
AcDbXrecord
280
1
 90
4
  0
XRECORD
  5
146
330
110
100
AcDbXrecord
280
1
 40
71.0156279814002573
  0
XRECORD
  5
147
330
110
100
AcDbXrecord
280
1
 40
146.9001041103989849
  0
ENDSEC
  0
EOF
