<?xml version="1.0" standalone="no"?>
 <!DOCTYPE svg PUBLIC "-//W3C//DTD SVG 1.1//EN" 
 "http://www.w3.org/Graphics/SVG/1.1/DTD/svg11.dtd"> 
<svg
  xmlns:svg="http://www.w3.org/2000/svg"
  xmlns="http://www.w3.org/2000/svg"
  xmlns:xlink="http://www.w3.org/1999/xlink"
  version="1.1"
  width="2.011680cm" height="12.862560cm" viewBox="0 0 20116800 128625600">
<title>SVG Picture created as -F_Silkscreen.svg date 2022/09/20 10:52:57 </title>
  <desc>Picture generated by PCBNEW </desc>
<g style="fill:#000000; fill-opacity:1.000000;stroke:#000000; stroke-opacity:1.000000;
stroke-linecap:round; stroke-linejoin:round;"
 transform="translate(0 0) scale(1 1)">
</g>
<g style="fill:#000000; fill-opacity:0.0; 
stroke:#000000; stroke-width:0.000000; stroke-opacity:1; 
stroke-linecap:round; stroke-linejoin:round;">
<g >
</g>
<g >
</g>
<g >
</g>
</g>
<g style="fill:#000000; fill-opacity:0.0; 
stroke:#000000; stroke-width:0.000000; stroke-opacity:1; 
stroke-linecap:round; stroke-linejoin:round;">
</g>
<g style="fill:#000000; fill-opacity:0.0; 
stroke:#000000; stroke-width:130000.000000; stroke-opacity:1; 
stroke-linecap:round; stroke-linejoin:round;">
<path d="M18166743 8832753
L17984993 8220424
" />
<path d="M17799870 8832753
L18166743 8832753
" />
<path d="M17984993 8220424
L17799870 8832753
" />
<path d="M18744221 9553758
L18380346 9553758
" />
<path d="M18071183 7553758
L18744221 9553758
" />
<path d="M17898802 7553758
L18071183 7553758
" />
<path d="M17225764 9553758
L17898802 7553758
" />
<path d="M17582894 9553758
L17225764 9553758
" />
<path d="M17723422 9091326
L17582894 9553758
" />
<path d="M18243190 9091326
L17723422 9091326
" />
<path d="M18380346 9553758
L18243190 9091326
" />
<path d="M14516727.207605 9115133.241564 A312460.000000 312460.000000 0.0 0 0 14802306.001225 9298558.380527" />
<path d="M14416328.847357 8558442.471073 A1197523.000000 1197523.000000 0.0 0 0 14516751.669109 9115122.146543" />
<path d="M14516752.623261 8021249.279075 A1167818.000000 1167818.000000 0.0 0 0 14416321.371178 8558441.980923" />
<path d="M14802306.156964 7831477.115212 A311826.000000 311826.000000 0.0 0 0 14516752.216946 8021249.092276" />
<path d="M15082949.900459 8021265.082992 A310709.000000 310709.000000 0.0 0 0 14802306.007621 7831441.577678" />
<path d="M15184931.283765 8558442.689176 A1153080.000000 1153080.000000 0.0 0 0 15082987.628686 8021249.168909" />
<path d="M15082975.453333 9115116.354729 A1182286.000000 1182286.000000 0.0 0 0 15184918.483136 8558441.970704" />
<path d="M14802306.314402 9298589.496667 A311205.000000 311205.000000 0.0 0 0 15082988.020214 9115122.009098" />
<path d="M14802306.988869 9591962.013220 A632418.000000 632418.000000 0.0 0 0 15352614.655631 9324040.757977" />
<path d="M15352621.222361 9324044.810117 A1306279.000000 1306279.000000 0.0 0 0 15542421.774949 8561815.013823" />
<path d="M15542438.666326 8561815.951986 A1296148.000000 1296148.000000 0.0 0 0 15352615.171434 7809144.894620" />
<path d="M15352640.217964 7809127.579285 A629994.000000 629994.000000 0.0 0 0 14802305.996242 7538018.926096" />
<path d="M14802304.472325 7538046.148479 A631952.000000 631952.000000 0.0 0 0 14247312.047391 7809145.032828" />
<path d="M14247303.379690 7809139.753718 A1305021.000000 1305021.000000 0.0 0 0 14059190.968659 8561815.001785" />
<path d="M14059170.666602 8561813.756508 A1315282.000000 1315282.000000 0.0 0 0 14247311.962716 9324041.022607" />
<path d="M14247267.230090 9324072.557301 A634526.000000 634526.000000 0.0 0 0 14802305.985102 9591980.740769" />
<path d="M12936463 9553758
L12614560 9553758
" />
<path d="M12936463 8628894
L12936463 9553758
" />
<path d="M13679952 8628894
L12936463 8628894
" />
<path d="M13679952 8338468
L13679952 8628894
" />
<path d="M12936463 8338468
L13679952 8338468
" />
<path d="M12936463 7856924
L12936463 8338468
" />
<path d="M13851959 7856924
L12936463 7856924
" />
<path d="M13851959 7566499
L13851959 7856924
" />
<path d="M12614560 7566499
L13851959 7566499
" />
<path d="M12614560 9553758
L12614560 7566499
" />
<path d="M10991176 9553758
L10991176 7566499
" />
<path d="M12267174 9553758
L10991176 9553758
" />
<path d="M12267174 9260334
L12267174 9553758
" />
<path d="M11355051 9260334
L12267174 9260334
" />
<path d="M11355051 7713398
L11355051 9260334
" />
<path d="M11359741.812605 7638451.028780 A430282.000000 430282.000000 0.0 0 0 11355051.011478 7713397.999715" />
<path d="M11383553.447675 7595377.459546 A82659.000000 82659.000000 0.0 0 0 11359735.257404 7638450.052934" />
<path d="M11383531 7566499
L11383531 7595354
" />
<path d="M10991176 7566499
L11383531 7566499
" />
<path d="M8031835 9553758
L7722298 9553758
" />
<path d="M8031835 8169459
L8031835 9553758
" />
<path d="M8325259 8896834
L8031835 8169459
" />
<path d="M8500638 8896834
L8325259 8896834
" />
<path d="M8813173 8166087
L8500638 8896834
" />
<path d="M8813173 9553758
L8813173 8166087
" />
<path d="M9126083 9553758
L8813173 9553758
" />
<path d="M9126083 7563501
L9126083 9553758
" />
<path d="M8810175 7563501
L9126083 7563501
" />
<path d="M8424191 8478997
L8810175 7563501
" />
<path d="M8038206 7566499
L8424191 8478997
" />
<path d="M7722298 7566499
L8038206 7566499
" />
<path d="M7722298 9553758
L7722298 7566499
" />
<path d="M7473844 9553758
L6188478 9553758
" />
<path d="M7473844 9260334
L7473844 9553758
" />
<path d="M6539236 9260334
L7473844 9260334
" />
<path d="M6539236 8667117
L6539236 9260334
" />
<path d="M7314578 8667117
L6539236 8667117
" />
<path d="M7314578 8370321
L7314578 8667117
" />
<path d="M6539236 8370321
L7314578 8370321
" />
<path d="M6539236 7859922
L6539236 8370321
" />
<path d="M7483587 7859922
L6539236 7859922
" />
<path d="M7483587 7566499
L7483587 7859922
" />
<path d="M6188478 7566499
L7483587 7566499
" />
<path d="M6188478 9553758
L6188478 7566499
" />
<path d="M3362920 9553758
L3130205 9553758
" />
<path d="M3649973 8328725
L3362920 9553758
" />
<path d="M3931030 9553758
L3649973 8328725
" />
<path d="M4157374 9553758
L3931030 9553758
" />
<path d="M4415571 7566499
L4157374 9553758
" />
<path d="M4122148 7566499
L4415571 7566499
" />
<path d="M4016846 8810644
L4122148 7566499
" />
<path d="M3761646 7722767
L4016846 8810644
" />
<path d="M3570527 7722767
L3761646 7722767
" />
<path d="M3315328 8813642
L3570527 7722767
" />
<path d="M3181170 7566499
L3315328 8813642
" />
<path d="M2868635 7566499
L3181170 7566499
" />
<path d="M3130205 9553758
L2868635 7566499
" />
<path d="M1749280 7879034
L1749280 8427657
" />
<path d="M2039705 7879034
L1749280 7879034
" />
<path d="M2269232.005463 7962043.088648 A297352.000000 297352.000000 0.0 0 0 2039704.992750 7879033.904660" />
<path d="M2345867.472873 8159715.975060 A281455.000000 281455.000000 0.0 0 0 2269235.173720 7962039.836209" />
<path d="M2269225.754138 8355884.538996 A255714.000000 255714.000000 0.0 0 0 2345868.724633 8159716.014324" />
<path d="M2039704.838656 8427659.116567 A324899.000000 324899.000000 0.0 0 0 2269235.164300 8355894.202287" />
<path d="M1749280 8427657
L2039705 8427657
" />
<path d="M1749280 9553758
L1385779 9553758
" />
<path d="M1749280 8727451
L1749280 9553758
" />
<path d="M1988740 8727451
L1749280 8727451
" />
<path d="M2390464 9553758
L1988740 8727451
" />
<path d="M2770078 9553758
L2390464 9553758
" />
<path d="M2342871 8692600
L2770078 9553758
" />
<path d="M2342866.694231 8692588.447043 A535079.000000 535079.000000 0.0 0 0 2538861.856379 8564999.859779" />
<path d="M2538859.826319 8564997.847477 A616221.000000 616221.000000 0.0 0 0 2669646.778479 8368821.907511" />
<path d="M2669638.959709 8368818.527676 A562759.000000 562759.000000 0.0 0 0 2715739.805054 8150347.998390" />
<path d="M2715745.378408 8150348.238670 A555992.000000 555992.000000 0.0 0 0 2546730.826740 7725952.179231" />
<path d="M2546730.894375 7725952.134016 A755878.000000 755878.000000 0.0 0 0 2014222.006410 7566499.074712" />
<path d="M1385779 7566499
L2014222 7566499
" />
<path d="M1385779 9553758
L1385779 7566499
" />
<path d="M14302212 14565000
L13166743 14565000
" />
<path d="M14302212 14274575
L14302212 14565000
" />
<path d="M13897115 14274575
L14302212 14274575
" />
<path d="M13897115 12868167
L13897115 14274575
" />
<path d="M14286098 12868167
L13897115 12868167
" />
<path d="M14286098 12577741
L14286098 12868167
" />
<path d="M13188852 12577741
L14286098 12577741
" />
<path d="M13188852 12868167
L13188852 12577741
" />
<path d="M13555725 12868167
L13188852 12868167
" />
<path d="M13555725 14274575
L13555725 12868167
" />
<path d="M13166743 14274575
L13555725 14274575
" />
<path d="M13166743 14565000
L13166743 14274575
" />
<path d="M11855894 12890276
L11855894 13438899
" />
<path d="M12146319 12890276
L11855894 12890276
" />
<path d="M12375871.028091 12973259.272690 A297383.000000 297383.000000 0.0 0 0 12146318.966225 12890275.556484" />
<path d="M12452518.081558 13170958.552070 A281455.000000 281455.000000 0.0 0 0 12375849.261181 12973281.753656" />
<path d="M12375874.489829 13367162.072640 A255732.000000 255732.000000 0.0 0 0 12452483.725485 13170958.014341" />
<path d="M12146318.824703 13438901.301210 A324940.000000 324940.000000 0.0 0 0 12375848.894364 13367135.869927" />
<path d="M11855894 13438899
L12146319 13438899
" />
<path d="M11855894 14565000
L11492394 14565000
" />
<path d="M11855894 13738693
L11855894 14565000
" />
<path d="M12095354 13738693
L11855894 13738693
" />
<path d="M12497078 14565000
L12095354 13738693
" />
<path d="M12876692 14565000
L12497078 14565000
" />
<path d="M12449486 13703842
L12876692 14565000
" />
<path d="M12449488.367946 13703848.352273 A535049.000000 535049.000000 0.0 0 0 12645476.212960 13576242.207879" />
<path d="M12645467.075607 13576233.161901 A616251.000000 616251.000000 0.0 0 0 12776261.251455 13380065.105004" />
<path d="M12776274.757784 13380070.939833 A562773.000000 562773.000000 0.0 0 0 12822354.281554 13161590.002296" />
<path d="M12822323.564037 13161588.647118 A555972.000000 555972.000000 0.0 0 0 12653345.667090 12737194.344334" />
<path d="M12653371.984811 12737161.024751 A755930.000000 755930.000000 0.0 0 0 12120836.978384 12577740.748224" />
<path d="M11492394 12577741
L12120837 12577741
" />
<path d="M11492394 14565000
L11492394 12577741
" />
<path d="M10708058 14565000
L10363670 14565000
" />
<path d="M10708058 12880908
L10708058 14565000
" />
<path d="M11272795 12880908
L10708058 12880908
" />
<path d="M11272795 12577741
L11272795 12880908
" />
<path d="M9827788 12577741
L11272795 12577741
" />
<path d="M9827788 12880908
L9827788 12577741
" />
<path d="M10363670 12880908
L9827788 12880908
" />
<path d="M10363670 14565000
L10363670 12880908
" />
<path d="M13346806 28666884
L13346806 29215507
" />
<path d="M13637232 28666884
L13346806 28666884
" />
<path d="M13866774.950250 28749875.608313 A297374.000000 297374.000000 0.0 0 0 13637231.968993 28666883.592608" />
<path d="M13943420.954639 28947566.404920 A281458.000000 281458.000000 0.0 0 0 13866761.085999 28749889.918895" />
<path d="M13866785.015581 29143768.564110 A255744.000000 255744.000000 0.0 0 0 13943396.158466 28947565.991727" />
<path d="M13637231.292619 29215516.291245 A324954.000000 324954.000000 0.0 0 0 13866761.036142 29143744.044502" />
<path d="M13346806 29215507
L13637232 29215507
" />
<path d="M13346806 30341608
L12983306 30341608
" />
<path d="M13346806 29515301
L13346806 30341608
" />
<path d="M13586267 29515301
L13346806 29515301
" />
<path d="M13987990 30341608
L13586267 29515301
" />
<path d="M14367604 30341608
L13987990 30341608
" />
<path d="M13940398 29480450
L14367604 30341608
" />
<path d="M13940401.175755 29480458.518897 A535063.000000 535063.000000 0.0 0 0 14136388.087550 29352850.085460" />
<path d="M14136379.675463 29352841.756030 A616266.000000 616266.000000 0.0 0 0 14267174.178748 29156673.074644" />
<path d="M14267185.824121 29156678.105041 A562786.000000 562786.000000 0.0 0 0 14313267.216685 28938198.001770" />
<path d="M14313226.231788 28938196.187303 A555975.000000 555975.000000 0.0 0 0 14144257.952277 28513802.049358" />
<path d="M14144277.706909 28513776.992514 A755921.000000 755921.000000 0.0 0 0 13611748.978637 28354348.751128" />
<path d="M12983306 28354349
L13611749 28354349
" />
<path d="M12983306 30341608
L12983306 28354349
" />
<path d="M11769932.694855 29885527.783084 A320369.000000 320369.000000 0.0 0 0 12055443.996111 30080038.136008" />
<path d="M11663089.971912 29317812.054600 A1205007.000000 1205007.000000 0.0 0 0 11769889.912180 29885546.040064" />
<path d="M11765225.716888 28805735.275945 A1085659.000000 1085659.000000 0.0 0 0 11663088.932179 29317812.003121" />
<path d="M12049072.506126 28615879.638335 A313045.000000 313045.000000 0.0 0 0 11765206.071491 28805726.030598" />
<path d="M12235689.590131 28686190.335787 A293508.000000 293508.000000 0.0 0 0 12049073.001475 28615918.891028" />
<path d="M12379203.262831 28922275.832579 A499573.000000 499573.000000 0.0 0 0 12235694.864539 28686184.147035" />
<path d="M12435045.486288 29368776.595539 A1441798.000000 1441798.000000 0.0 0 0 12379221.349481 28922270.899101" />
<path d="M12380725.098327 29780245.542952 A1281986.000000 1281986.000000 0.0 0 0 12435057.970725 29368777.000917" />
<path d="M12240385.432874 30008281.880767 A506764.000000 506764.000000 0.0 0 0 12380720.396395 29780244.115836" />
<path d="M12055444.405928 30080069.573948 A283493.000000 283493.000000 0.0 0 0 12240378.925129 30008274.915959" />
<path d="M12655032 30807413
L12450797 30807413
" />
<path d="M12661402 30507619
L12655032 30807413
" />
<path d="M12399832 30520360
L12661402 30507619
" />
<path d="M12269027.099122 30477097.033364 A154341.000000 154341.000000 0.0 0 0 12399832.054410 30520360.377256" />
<path d="M12224465.265247 30357721.371067 A211312.000000 211312.000000 0.0 0 0 12269046.797200 30477077.158602" />
<path d="M12224441.676400 30357674.798227 A646615.000000 646615.000000 0.0 0 0 12631236.176559 30056242.103643" />
<path d="M12631252.823993 30056250.827808 A1346754.000000 1346754.000000 0.0 0 0 12782818.801056 29346292.012464" />
<path d="M12782820.312872 29346292.056058 A1470509.000000 1470509.000000 0.0 0 0 12690070.155804 28766003.941415" />
<path d="M12690095.412434 28765994.325300 A716158.000000 716158.000000 0.0 0 0 12427001.045424 28430983.934043" />
<path d="M12427007.568943 28430973.820020 A679471.000000 679471.000000 0.0 0 0 12049072.997102 28322495.793318" />
<path d="M12049072.939243 28322507.217566 A696603.000000 696603.000000 0.0 0 0 11682200.976565 28424612.961630" />
<path d="M11682216.866214 28424637.478829 A707816.000000 707816.000000 0.0 0 0 11411075.033653 28753075.013619" />
<path d="M11411079.950485 28753076.962239 A1466619.000000 1466619.000000 0.0 0 0 11308956.829976 29349665.006516" />
<path d="M11308957.485016 29349665.022460 A1318604.000000 1318604.000000 0.0 0 0 11468410.256522 30041813.860154" />
<path d="M11468383.913980 30041828.243222 A636917.000000 636917.000000 0.0 0 0 11886435.070405 30357721.689779" />
<path d="M11886466.681487 30357724.969454 A433726.000000 433726.000000 0.0 0 0 12021904.691777 30714851.329287" />
<path d="M12021895.177231 30714868.151240 A724586.000000 724586.000000 0.0 0 0 12450796.960704 30807412.587991" />
<path d="M10422692.837446 30376812.754405 A840565.000000 840565.000000 0.0 0 0 10824414.876605 30292328.747117" />
<path d="M10824418.216556 30292335.350496 A551551.000000 551551.000000 0.0 0 0 11054132.241626 30073855.138011" />
<path d="M11054141.195607 30073860.179224 A570686.000000 570686.000000 0.0 0 0 11127581.824759 29795982.999330" />
<path d="M11127599.953953 29795983.382011 A605637.000000 605637.000000 0.0 0 0 11081301.165444 29550526.931191" />
<path d="M11081309.078385 29550523.178209 A500593.000000 500593.000000 0.0 0 0 10920161.780473 29357535.306703" />
<path d="M10920164.186733 29357531.972379 A1705969.000000 1705969.000000 0.0 0 0 10604441.982126 29177283.040900" />
<path d="M10335000.464503 29040130.518454 A1973407.000000 1973407.000000 0.0 0 0 10604442.001888 29177282.995461" />
<path d="M10218453.621402 28931829.290004 A354380.000000 354380.000000 0.0 0 0 10335001.969583 29040128.052839" />
<path d="M10189608.544217 28816781.103242 A229420.000000 229420.000000 0.0 0 0 10218456.875746 28931827.069039" />
<path d="M10266238.538668 28676630.248156 A176278.000000 176278.000000 0.0 0 0 10189602.265598 28816781.008018" />
<path d="M10473658.269644 28615895.527745 A325079.000000 325079.000000 0.0 0 0 10266237.031362 28676628.043587" />
<path d="M10634792.912616 28635042.946693 A603865.000000 603865.000000 0.0 0 0 10473656.992007 28615918.519483" />
<path d="M10764077.746208 28711857.276599 A308102.000000 308102.000000 0.0 0 0 10634795.890628 28635031.366995" />
<path d="M10806997.578236 28773869.646634 A200988.000000 200988.000000 0.0 0 0 10764082.132196 28711852.865491" />
<path d="M10818052.327130 28823151.147482 A240967.000000 240967.000000 0.0 0 0 10806990.386991 28773872.869257" />
<path d="M10843527 28842264
L10818045 28823152
" />
<path d="M10862639 28820154
L10843527 28842264
" />
<path d="M11073244 28577696
L10862639 28820154
" />
<path d="M11073225.828906 28577712.592455 A784645.000000 784645.000000 0.0 0 0 10470659.009289 28322496.314828" />
<path d="M10470659.317026 28322479.169642 A767757.000000 767757.000000 0.0 0 0 10142009.952208 28389574.893442" />
<path d="M10142009.790809 28389574.528723 A558013.000000 558013.000000 0.0 0 0 9917163.924029 28571324.944731" />
<path d="M9917184.689125 28571339.685450 A441000.000000 441000.000000 0.0 0 0 9835844.930903 28832895.000986" />
<path d="M9835823.530873 28832894.661957 A552945.000000 552945.000000 0.0 0 0 9886810.403454 29073666.813448" />
<path d="M9886805.612049 29073669.241946 A551819.000000 551819.000000 0.0 0 0 10057318.048434 29271530.932238" />
<path d="M10057321.650083 29271525.926400 A1599283.000000 1599283.000000 0.0 0 0 10381095.016099 29451594.960998" />
<path d="M10631612.778593 29585748.647081 A1859689.000000 1859689.000000 0.0 0 0 10381095.082490 29451594.812858" />
<path d="M10744800.974263 29698914.157109 A332959.000000 332959.000000 0.0 0 0 10631609.872823 29585753.210948" />
<path d="M10773431.374199 29818467.901259 A258035.000000 258035.000000 0.0 0 0 10744783.292682 29698924.849214" />
<path d="M10679410.470402 30011676.420930 A220107.000000 220107.000000 0.0 0 0 10773449.949935 29818468.002855" />
<path d="M10435433.199244 30077035.536942 A418552.000000 418552.000000 0.0 0 0 10679389.837060 30011646.744877" />
<path d="M10223146.410665 30038614.987448 A572871.000000 572871.000000 0.0 0 0 10435433.002861 30077040.276271" />
<path d="M10046080.994220 29939877.360111 A746994.000000 746994.000000 0.0 0 0 10223141.122597 30038628.686370" />
<path d="M9996790.196709 29880678.821506 A212314.000000 212314.000000 0.0 0 0 10046075.912974 29939884.104556" />
<path d="M9979374.395009 29831208.151226 A280398.000000 280398.000000 0.0 0 0 9996797.040203 29880674.981450" />
<path d="M9950516 29815470
L9979371 29831209
" />
<path d="M9937775 29840952
L9950516 29815470
" />
<path d="M9762396 30137373
L9937775 29840952
" />
<path d="M9762394.932446 30137374.025653 A697120.000000 697120.000000 0.0 0 0 10050947.153077 30317811.525793" />
<path d="M10050941.901811 30317827.284093 A1148963.000000 1148963.000000 0.0 0 0 10422691.998542 30376833.795538" />
<path d="M16315515 74555257
L15030149 74555257
" />
<path d="M16315515 74261833
L16315515 74555257
" />
<path d="M15380908 74261833
L16315515 74261833
" />
<path d="M15380908 73668616
L15380908 74261833
" />
<path d="M16156250 73668616
L15380908 73668616
" />
<path d="M16156250 73371820
L16156250 73668616
" />
<path d="M15380908 73371820
L16156250 73371820
" />
<path d="M15380908 72861421
L15380908 73371820
" />
<path d="M16325259 72861421
L15380908 72861421
" />
<path d="M16325259 72567998
L16325259 72861421
" />
<path d="M15030149 72567998
L16325259 72567998
" />
<path d="M15030149 74555257
L15030149 72567998
" />
<path d="M14226701 74555257
L13882313 74555257
" />
<path d="M14226701 72871165
L14226701 74555257
" />
<path d="M14791438 72871165
L14226701 72871165
" />
<path d="M14791438 72567998
L14791438 72871165
" />
<path d="M13346432 72567998
L14791438 72567998
" />
<path d="M13346432 72871165
L13346432 72567998
" />
<path d="M13882313 72871165
L13346432 72871165
" />
<path d="M13882313 74555257
L13882313 72871165
" />
<path d="M12657655 73834252
L12475905 73221923
" />
<path d="M12290782 73834252
L12657655 73834252
" />
<path d="M12475905 73221923
L12290782 73834252
" />
<path d="M13235133 74555257
L12871258 74555257
" />
<path d="M12562096 72555257
L13235133 74555257
" />
<path d="M12389714 72555257
L12562096 72555257
" />
<path d="M11716677 74555257
L12389714 72555257
" />
<path d="M12073806 74555257
L11716677 74555257
" />
<path d="M12214335 74092825
L12073806 74555257
" />
<path d="M12734102 74092825
L12214335 74092825
" />
<path d="M12871258 74555257
L12734102 74092825
" />
<path d="M10590951 72880533
L10590951 73429156
" />
<path d="M10881376 72880533
L10590951 72880533
" />
<path d="M11110885.740787 72963559.890949 A297321.000000 297321.000000 0.0 0 0 10881376.030018 72880533.395106" />
<path d="M11187519.167663 73161214.641999 A281457.000000 281457.000000 0.0 0 0 11110905.994173 72963539.005493" />
<path d="M11110891.851122 73357378.519620 A255686.000000 255686.000000 0.0 0 0 11187540.634987 73161215.018991" />
<path d="M10881377.376283 73429137.966711 A324880.000000 324880.000000 0.0 0 0 11110906.201334 73357393.247918" />
<path d="M10590951 73429156
L10881376 73429156
" />
<path d="M10590951 74555257
L10227451 74555257
" />
<path d="M10590951 73728950
L10590951 74555257
" />
<path d="M10830411 73728950
L10590951 73728950
" />
<path d="M11232135 74555257
L10830411 73728950
" />
<path d="M11611749 74555257
L11232135 74555257
" />
<path d="M11184543 73694099
L11611749 74555257
" />
<path d="M11184547.701836 73694111.610774 A535129.000000 535129.000000 0.0 0 0 11380532.780528 73566498.785763" />
<path d="M11380541.664465 73566507.578718 A616286.000000 616286.000000 0.0 0 0 11511317.654877 73370320.855923" />
<path d="M11511308.141802 73370316.742365 A562730.000000 562730.000000 0.0 0 0 11557410.812323 73151846.998450" />
<path d="M11557427.383398 73151847.727032 A555974.000000 555974.000000 0.0 0 0 11388403.342059 72727450.646127" />
<path d="M11388396.481530 72727459.270268 A755868.000000 755868.000000 0.0 0 0 10855894.007023 72567998.081867" />
<path d="M10227451 72567998
L10855894 72567998
" />
<path d="M10227451 74555257
L10227451 72567998
" />
<path d="M8052821 74567998
L7497827 73655875
" />
<path d="M8464288 74551884
L8052821 74567998
" />
<path d="M7753027 73400675
L8464288 74551884
" />
<path d="M8426064 72567998
L7753027 73400675
" />
<path d="M8260053 72567998
L8426064 72567998
" />
<path d="M8148380 72564813
L8260053 72567998
" />
<path d="M8027339.638320 72548879.219764 A575889.000000 575889.000000 0.0 0 0 8148379.989848 72564813.411023" />
<path d="M7367042 73381564
L8027338 72548886
" />
<path d="M7367042 72714897
L7367042 73381564
" />
<path d="M7370225.096473 72639947.702673 A629751.000000 629751.000000 0.0 0 0 7367041.563520 72714897.007484" />
<path d="M7392509.057651 72596836.187297 A73816.000000 73816.000000 0.0 0 0 7370227.729318 72639947.961282" />
<path d="M7392525 72567998
L7392525 72596853
" />
<path d="M7012911 72567998
L7392525 72567998
" />
<path d="M7012911 74555257
L7012911 72567998
" />
<path d="M7367042 74555257
L7012911 74555257
" />
<path d="M7367042 73827882
L7367042 74555257
" />
<path d="M7497827 73655875
L7367042 73827882
" />
<path d="M5482088 74555257
L5482088 72567998
" />
<path d="M6758086 74555257
L5482088 74555257
" />
<path d="M6758086 74261833
L6758086 74555257
" />
<path d="M5845963 74261833
L6758086 74261833
" />
<path d="M5845963 72714897
L5845963 74261833
" />
<path d="M5850653.132569 72639948.925924 A430370.000000 430370.000000 0.0 0 0 5845962.959440 72714897.001008" />
<path d="M5874448.402377 72596857.593908 A82746.000000 82746.000000 0.0 0 0 5850646.866214 72639947.972514" />
<path d="M5874444 72567998
L5874444 72596853
" />
<path d="M5482088 72567998
L5874444 72567998
" />
<path d="M4595822.765723 74590491.940567 A792712.000000 792712.000000 0.0 0 0 4951452.986482 74515533.971213" />
<path d="M4951452.501882 74515533.067920 A658460.000000 658460.000000 0.0 0 0 5214522.223906 74258461.126381" />
<path d="M4965693 74073713
L5214522 74258461
" />
<path d="M4809436.209966 74242737.755589 A465845.000000 465845.000000 0.0 0 0 4965692.772383 74073712.876680" />
<path d="M4605191.318155 74293674.724835 A394007.000000 394007.000000 0.0 0 0 4809425.955812 74242721.921901" />
<path d="M4287965.729676 74097512.332796 A369907.000000 369907.000000 0.0 0 0 4605190.991955 74293687.316192" />
<path d="M4161870.341277 73556942.964497 A993840.000000 993840.000000 0.0 0 0 4287972.101497 74097508.942933" />
<path d="M4227279.930890 73156537.236054 A1068680.000000 1068680.000000 0.0 0 0 4161870.963470 73556943.001062" />
<path d="M4399468.108512 72912586.181444 A573343.000000 573343.000000 0.0 0 0 4227262.662871 73156530.876462" />
<path d="M4627676.297321 72829597.972660 A365320.000000 365320.000000 0.0 0 0 4399457.983358 72912573.979734" />
<path d="M4785445.395171 72859913.601869 A416336.000000 416336.000000 0.0 0 0 4627675.998217 72829567.569467" />
<path d="M4930841.804926 72973094.154360 A387587.000000 387587.000000 0.0 0 0 4785441.994259 72859922.012806" />
<path d="M4964190.487120 73041673.324060 A414315.000000 414315.000000 0.0 0 0 4930841.999819 72973094.000109" />
<path d="M4969044.992699 73088137.400763 A103730.000000 103730.000000 0.0 0 0 4964193.553654 73041672.153469" />
<path d="M4984805 73113623
L4969066 73088140
" />
<path d="M5010288 73097509
L4984805 73113623
" />
<path d="M5237007 72928500
L5010288 73097509
" />
<path d="M5237014.818471 72928496.632206 A641553.000000 641553.000000 0.0 0 0 4992862.209740 72641446.671252" />
<path d="M4992868.849392 72641435.722881 A703245.000000 703245.000000 0.0 0 0 4608564.003617 72539518.132191" />
<path d="M4608564.008639 72539519.612811 A809492.000000 809492.000000 0.0 0 0 4326195.049293 72591981.130153" />
<path d="M4326193.437535 72591976.886187 A719611.000000 719611.000000 0.0 0 0 4066312.342243 72762489.333493" />
<path d="M4066321.778573 72762498.278934 A846542.000000 846542.000000 0.0 0 0 3876505.014402 73079896.004753" />
<path d="M3876507.485687 73079896.810510 A1466753.000000 1466753.000000 0.0 0 0 3804741.453501 73572681.988222" />
<path d="M3804740.406467 73572681.978982 A1355989.000000 1355989.000000 0.0 0 0 3911542.578236 74150160.178894" />
<path d="M3911544.610325 74150159.302014 A739664.000000 739664.000000 0.0 0 0 4198595.849671 74483494.240883" />
<path d="M4198591.682021 74483501.273644 A763817.000000 763817.000000 0.0 0 0 4595822.998994 74590481.895029" />
<path d="M11823666 112552071
L11479278 112552071
" />
<path d="M11823666 110867979
L11823666 112552071
" />
<path d="M12388403 110867979
L11823666 110867979
" />
<path d="M12388403 110564813
L12388403 110867979
" />
<path d="M10943396 110564813
L12388403 110564813
" />
<path d="M10943396 110867979
L10943396 110564813
" />
<path d="M11479278 110867979
L10943396 110867979
" />
<path d="M11479278 112552071
L11479278 110867979
" />
<path d="M10072870.280310 112593661.049686 A688120.000000 688120.000000 0.0 0 0 10567341.676164 112411729.649182" />
<path d="M10567320.047374 112411710.054591 A746379.000000 746379.000000 0.0 0 0 10758647.589448 111847181.034566" />
<path d="M10758648 110564813
L10758648 111847181
" />
<path d="M10407889 110564813
L10758648 110564813
" />
<path d="M10407889 111850179
L10407889 110564813
" />
<path d="M10334464.621718 112182214.173290 A629176.000000 629176.000000 0.0 0 0 10407889.397051 111850178.977738" />
<path d="M10075869.644494 112300229.281846 A279949.000000 279949.000000 0.0 0 0 10334440.363316 112182201.253993" />
<path d="M9820863.623057 112182195.177115 A271780.000000 271780.000000 0.0 0 0 10075867.982580 112300244.841915" />
<path d="M9750605.703521 111859922.743305 A629397.000000 629397.000000 0.0 0 0 9820854.567589 112182201.224979" />
<path d="M9750591 110711712
L9750591 111859922
" />
<path d="M9755465.282421 110636763.358442 A414048.000000 414048.000000 0.0 0 0 9750590.590669 110711712.010594" />
<path d="M9776063.180001 110593659.001121 A97337.000000 97337.000000 0.0 0 0 9755462.769170 110636762.953714" />
<path d="M9776074 110564813
L9776074 110593668
" />
<path d="M9390089 110564813
L9776074 110564813
" />
<path d="M9390089 111856550
L9390089 110564813
" />
<path d="M9390088.083362 111856549.944441 A776845.000000 776845.000000 0.0 0 0 9567155.175852 112398988.854394" />
<path d="M9567139.793560 112399003.821702 A648869.000000 648869.000000 0.0 0 0 10072869.996080 112593667.938199" />
<path d="M8199173.844717 112113427.820256 A312374.000000 312374.000000 0.0 0 0 8484711.001178 112296872.363939" />
<path d="M8098729.029787 111556756.121824 A1197522.000000 1197522.000000 0.0 0 0 8199158.380658 112113434.831412" />
<path d="M8199153.339950 111019559.913431 A1167813.000000 1167813.000000 0.0 0 0 8098727.098129 111556755.994955" />
<path d="M8484711.142947 110829787.093064 A311816.000000 311816.000000 0.0 0 0 8199157.656115 111019561.853744" />
<path d="M8765343.336536 111019582.961860 A310696.000000 310696.000000 0.0 0 0 8484711.005960 110829754.670037" />
<path d="M8867339.426414 111556756.852490 A1152989.000000 1152989.000000 0.0 0 0 8765393.407845 111019561.814462" />
<path d="M8765375.078495 112113426.936185 A1182290.000000 1182290.000000 0.0 0 0 8867323.339832 111556755.979398" />
<path d="M8484711.274413 112296899.447616 A311215.000000 311215.000000 0.0 0 0 8765393.115960 112113435.052193" />
<path d="M8484712.026192 112590275.293168 A632431.000000 632431.000000 0.0 0 0 9035021.159639 112322354.112198" />
<path d="M9035021.333120 112322354.203981 A1306284.000000 1306284.000000 0.0 0 0 9224827.583528 111560128.025577" />
<path d="M9224835.948878 111560128.454120 A1296146.000000 1296146.000000 0.0 0 0 9035020.912553 110807458.053752" />
<path d="M9035037.539713 110807446.574817 A629981.000000 629981.000000 0.0 0 0 8484710.984201 110536331.689268" />
<path d="M8484709.511330 110536358.451039 A631940.000000 631940.000000 0.0 0 0 7929717.772153 110807457.842171" />
<path d="M7929703.499162 110807449.174976 A1305016.000000 1305016.000000 0.0 0 0 7741596.718137 111560128.016058" />
<path d="M7741597.213159 111560128.013040 A1315297.000000 1315297.000000 0.0 0 0 7929718.026808 112322353.983746" />
<path d="M7929734.796165 112322342.162487 A634535.000000 634535.000000 0.0 0 0 8484711.011836 112590295.206489" />
<circle cx="12065000.000000" cy="21565000.000000" r="3200000.000000" /> 
<circle cx="10065000.000000" cy="65565000.000000" r="3200000.000000" /> 
<circle cx="10065000.000000" cy="103565000.000000" r="3200000.000000" /> 
<path d="M11565000.000000 123965000.000000 A1600000.000000 1600000.000000 0.0 0 0 11565000.000000 127165000.000000" />
<path d="M11565000.000000 1465000.000000 A1600000.000000 1600000.000000 0.0 0 0 11565000.000000 4665000.000000" />
<path d="M13565000.000000 127165000.000000 A1600000.000000 1600000.000000 0.0 0 0 13565000.000000 123965000.000000" />
<path d="M13565000.000000 4665000.000000 A1600000.000000 1600000.000000 0.0 0 0 13565000.000000 1465000.000000" />
<path d="M11565000 127165000
L13565000 127165000
" />
<path d="M11565000 4665000
L13565000 4665000
" />
<path d="M11565000 123965000
L13565000 123965000
" />
<path d="M11565000 1465000
L13565000 1465000
" />
<path d="M65000 65000
L65000 128565000
" />
<path d="M20065000 65000
L65000 65000
" />
<path d="M20065000 128565000
L20065000 65000
" />
<path d="M65000 128565000
L20065000 128565000
" />
</g>
<g style="fill:#000000; fill-opacity:1.0; 
stroke:#000000; stroke-width:1.000000; stroke-opacity:1; 
stroke-linecap:round; stroke-linejoin:round;">
<circle cx="8189728.000000" cy="68549283.000000" r="65000.000000" /> 
</g>
<g style="fill:#000000; fill-opacity:1.0; 
stroke:#000000; stroke-width:130000.000000; stroke-opacity:1; 
stroke-linecap:round; stroke-linejoin:round;">
</g>
<g style="fill:#000000; fill-opacity:0.0; 
stroke:#000000; stroke-width:130000.000000; stroke-opacity:1; 
stroke-linecap:round; stroke-linejoin:round;">
<path d="M8419108 68679603
L8189728 68549283
" />
<path d="M7541448 70199793
L8419108 68679603
" />
<path d="M7312968 70067853
L7541448 70199793
" />
<path d="M8189728 68549283
L7312968 70067853
" />
<path d="M12791448 70067853
L11914688 68549243
" />
<path d="M12562968 70199793
L12791448 70067853
" />
<path d="M11685308 68679603
L12562968 70199793
" />
<path d="M11914688 68549243
L11685308 68679603
" />
<path d="M7090138 67449653
L6959778 67220273
" />
<path d="M5571528 68326413
L7090138 67449653
" />
<path d="M5439628 68097933
L5571528 68326413
" />
<path d="M6959778 67220273
L5439628 68097933
" />
<path d="M14664778 68097933
L13144588 67220223
" />
<path d="M14532888 68326413
L14664778 68097933
" />
<path d="M13014228 67449653
L14532888 68326413
" />
<path d="M13144588 67220223
L13014228 67449653
" />
<path d="M15302508 65455273
L13549418 65455273
" />
<path d="M15302508 65719113
L15302508 65455273
" />
<path d="M13546418 65719113
L15302508 65719113
" />
<path d="M13552418 65587173
L13546418 65719113
" />
<path d="M13549418 65455273
L13552418 65587173
" />
<path d="M6558298 65455273
L4802165 65455273
" />
<path d="M6552298 65587173
L6558298 65455273
" />
<path d="M6558298 65719113
L6552298 65587173
" />
<path d="M4802165 65719113
L6558298 65719113
" />
<path d="M4802165 65455273
L4802165 65719113
" />
<path d="M14664778 63076413
L14532888 62847933
" />
<path d="M13146718 63952903
L14664778 63076413
" />
<path d="M13014948 63724283
L13146718 63952903
" />
<path d="M14532888 62847933
L13014948 63724283
" />
<path d="M7090138 63724693
L5571528 62847933
" />
<path d="M6959778 63954073
L7090138 63724693
" />
<path d="M5439628 63076413
L6959778 63954073
" />
<path d="M5571528 62847933
L5439628 63076413
" />
<path d="M12791448 61106493
L12562968 60974553
" />
<path d="M11915098 62624383
L12791448 61106493
" />
<path d="M11686478 62492663
L11915098 62624383
" />
<path d="M12562968 60974553
L11686478 62492663
" />
<path d="M8419108 62494743
L7541448 60974553
" />
<path d="M8189728 62625063
L8419108 62494743
" />
<path d="M7312968 61106493
L8189728 62625063
" />
<path d="M7541448 60974553
L7312968 61106493
" />
<path d="M10184108 60337473
L9920268 60337173
" />
<path d="M10184108 62090263
L10184108 60337473
" />
<path d="M10052158 62087263
L10184108 62090263
" />
<path d="M9920268 62093263
L10052158 62087263
" />
<path d="M9920268 60337173
L9920268 62093263
" />
<path d="M7340902 121969946
L6649243 123870216
" />
<path d="M6065000 122264999
L6756640 120364711
" />
<path d="M7925150 120364711
L6756640 120364711
" />
<path d="M8616790 122264999
L7925150 120364711
" />
<path d="M9308455 120364711
L8616790 122264999
" />
<path d="M10476966 120364711
L9308455 120364711
" />
<path d="M9201058 123870216
L10476966 120364711
" />
<path d="M8032548 123870216
L9201058 123870216
" />
<path d="M6756640 120364711
L8032548 123870216
" />
<path d="M5373361 120364711
L4204850 120364711
" />
<path d="M6649243 123870216
L5373361 120364711
" />
<path d="M5480758 123870216
L6649243 123870216
" />
<path d="M4204850 120364711
L5480758 123870216
" />
<path d="M2368613 122025826
L2368613 121203317
" />
<path d="M2657628 122025826
L2368613 122025826
" />
<path d="M2657628.002996 122025869.999047 A411270.000000 411270.000000 0.0 0 0 3068869.999689 121614584.000000" />
<path d="M3068862.999762 121614583.999762 A411253.000000 411253.000000 0.0 0 0 2657628.000000 121203317.000394" />
<path d="M2368613 121203317
L2657628 121203317
" />
<path d="M2762438 120364711
L1200102 120364711
" />
<path d="M4012308.999994 121614583.999994 A1249869.000000 1249869.000000 0.0 0 0 2762438.000000 120364711.000002" />
<path d="M3667421.121513 122475444.210555 A1249872.000000 1249872.000000 0.0 0 0 4012311.400668 121614584.000392" />
<path d="M4175064 123870216
L3667423 122475446
" />
<path d="M3006554 123870216
L4175064 123870216
" />
<path d="M2640496 122864458
L3006554 123870216
" />
<path d="M2368613 122864458
L2640496 122864458
" />
<path d="M2368613 123870216
L2368613 122864458
" />
<path d="M1200102 123870216
L2368613 123870216
" />
<path d="M1200102 122864458
L1200102 123870216
" />
<path d="M1200102 122655149
L1200102 122864458
" />
<path d="M949724 122655149
L1200102 122655149
" />
<path d="M949724 122235756
L949724 122655149
" />
<path d="M1200102 122235756
L949724 122235756
" />
<path d="M1200102 120993827
L1200102 122235756
" />
<path d="M949724 120993827
L1200102 120993827
" />
<path d="M949724 120574407
L949724 120993827
" />
<path d="M1200102 120574407
L949724 120574407
" />
<path d="M1200102 120364711
L1200102 120574407
" />
<g >
</g>
<g >
</g>
<g >
</g>
</g> 
</svg>
