999
dxflib 3.26.4.0
  0
SECTION
  2
HEADER
  9
$ACADVER
  1
AC1015
  9
$HANDSEED
  5
FFFF
  9
$DIMADEC
 70
0
  9
$DIMASZ
 40
2.5
  9
$DIMATFIT
 70
0
  9
$DIMAUNIT
 70
0
  9
$DIMAZIN
 70
2
  9
$DIMBLK
  1
0
  9
$DIMBLK1
  1
0
  9
$DIMBLK2
  1
0
  9
$DIMDEC
 70
4
  9
$DIMDLI
 40
5.0
  9
$DIMDSEP
 70
46
  9
$DIMEXE
 40
1.25
  9
$DIMEXO
 40
0.625
  9
$DIMGAP
 40
0.625
  9
$DIMLFAC
 40
1.0
  9
$DIMLUNIT
 70
2
  9
$DIMSCALE
 40
1.0
  9
$DIMTAD
 70
1
  9
$DIMTIH
 70
0
  9
$DIMTSZ
 40
0.0
  9
$DIMTXT
 40
2.5
  9
$DIMZIN
 70
8
  9
$DWGCODEPAGE
  3
ANSI_1252
  9
$INSUNITS
 70
4
  9
$LTSCALE
 40
1.0
  9
$MAXACTVP
 70
64
  9
$MEASUREMENT
 70
1
  9
$MIRRTEXT
 70
0
  9
$PDMODE
 70
0
  9
$PDSIZE
 40
0.0
  0
ENDSEC
  0
SECTION
  2
TABLES
  0
TABLE
  2
VPORT
  5
8
100
AcDbSymbolTable
 70
1
  0
VPORT
  5
30
100
AcDbSymbolTableRecord
100
AcDbViewportTableRecord
  2
*Active
 70
0
 10
0.0
 20
0.0
 11
1.0
 21
1.0
 12
286.3055555555554861
 22
148.5
 13
0.0
 23
0.0
 14
10.0
 24
10.0
 15
10.0
 25
10.0
 16
0.0
 26
0.0
 36
1.0
 17
0.0
 27
0.0
 37
0.0
 40
297.0
 41
1.92798353909465
 42
50.0
 43
0.0
 44
0.0
 50
0.0
 51
0.0
 71
0
 72
100
 73
1
 74
3
 75
1
 76
1
 77
0
 78
0
281
0
 65
1
110
0.0
120
0.0
130
0.0
111
1.0
121
0.0
131
0.0
112
0.0
122
1.0
132
0.0
 79
0
146
0.0
  0
ENDTAB
  0
TABLE
  2
LTYPE
  5
5
100
AcDbSymbolTable
 70
41
  0
LTYPE
  5
16
100
AcDbSymbolTableRecord
100
AcDbLinetypeTableRecord
  2
Continuous
 70
0
  3
Solid line
 72
65
 73
0
 40
0.0
  0
LTYPE
  5
31
100
AcDbSymbolTableRecord
100
AcDbLinetypeTableRecord
  2
PHANTOM2
 70
0
  3
Phantom (.5x) ___ _ _ ___ _ _ ___ _ _ ___ _ _
 72
65
 73
6
 40
31.7500000000000036
 49
15.875
 74
0
 49
-3.1749999999999998
 74
0
 49
3.1749999999999998
 74
0
 49
-3.1749999999999998
 74
0
 49
3.1749999999999998
 74
0
 49
-3.1749999999999998
 74
0
  0
LTYPE
  5
32
100
AcDbSymbolTableRecord
100
AcDbLinetypeTableRecord
  2
HIDDENX2
 70
0
  3
Hidden (2x) ____ ____ ____ ____ ____ ____ ____ 
 72
65
 73
2
 40
19.0499999999999972
 49
12.6999999999999993
 74
0
 49
-6.3499999999999996
 74
0
  0
LTYPE
  5
33
100
AcDbSymbolTableRecord
100
AcDbLinetypeTableRecord
  2
ACAD_ISO08W100
 70
0
  3
ISO long-dash short-dash ____ __ ____ __ ____ _
 72
65
 73
4
 40
36.0
 49
24.0
 74
0
 49
-3.0
 74
0
 49
6.0
 74
0
 49
-3.0
 74
0
  0
LTYPE
  5
34
100
AcDbSymbolTableRecord
100
AcDbLinetypeTableRecord
  2
ACAD_ISO11W100
 70
0
  3
ISO double-dash dot __ __ . __ __ . __ __ . __ _
 72
65
 73
6
 40
33.0
 49
12.0
 74
0
 49
-3.0
 74
0
 49
12.0
 74
0
 49
-2.9500000000000002
 74
0
 49
0.1
 74
0
 49
-2.9500000000000002
 74
0
  0
LTYPE
  5
35
100
AcDbSymbolTableRecord
100
AcDbLinetypeTableRecord
  2
DASHED
 70
0
  3
Dashed __ __ __ __ __ __ __ __ __ __ __ __ __ _
 72
65
 73
2
 40
19.0499999999999972
 49
12.6999999999999993
 74
0
 49
-6.3499999999999996
 74
0
  0
LTYPE
  5
36
100
AcDbSymbolTableRecord
100
AcDbLinetypeTableRecord
  2
DASHDOT
 70
0
  3
Dash dot __ . __ . __ . __ . __ . __ . __ . __
 72
65
 73
4
 40
25.4000000000000021
 49
12.6999999999999993
 74
0
 49
-6.2999999999999998
 74
0
 49
0.1
 74
0
 49
-6.2999999999999998
 74
0
  0
LTYPE
  5
37
100
AcDbSymbolTableRecord
100
AcDbLinetypeTableRecord
  2
ACAD_ISO06W100
 70
0
  3
ISO long-dash triple-dot ____ ... ____ ... ____
 72
65
 73
8
 40
36.0000000000000071
 49
24.0
 74
0
 49
-2.9500000000000002
 74
0
 49
0.1
 74
0
 49
-2.9000000000000004
 74
0
 49
0.1
 74
0
 49
-2.9000000000000004
 74
0
 49
0.1
 74
0
 49
-2.9500000000000002
 74
0
  0
LTYPE
  5
38
100
AcDbSymbolTableRecord
100
AcDbLinetypeTableRecord
  2
DOTX2
 70
0
  3
Dot (2x) .  .  .  .  .  .  .  .  .  .  .  .  .  .
 72
65
 73
2
 40
12.6999999999999993
 49
0.1
 74
0
 49
-12.5999999999999996
 74
0
  0
LTYPE
  5
39
100
AcDbSymbolTableRecord
100
AcDbLinetypeTableRecord
  2
DASHDOT2
 70
0
  3
Dash dot (.5x) _._._._._._._._._._._._._._._.
 72
65
 73
4
 40
12.6999999999999993
 49
6.3499999999999996
 74
0
 49
-3.125
 74
0
 49
0.1
 74
0
 49
-3.125
 74
0
  0
LTYPE
  5
3A
100
AcDbSymbolTableRecord
100
AcDbLinetypeTableRecord
  2
CENTERX2
 70
0
  3
Center (2x) ________  __  ________  __  _____
 72
65
 73
4
 40
101.6000000000000085
 49
63.5
 74
0
 49
-12.6999999999999993
 74
0
 49
12.6999999999999993
 74
0
 49
-12.6999999999999993
 74
0
  0
LTYPE
  5
3B
100
AcDbSymbolTableRecord
100
AcDbLinetypeTableRecord
  2
DIVIDE2
 70
0
  3
Divide (.5x) __..__..__..__..__..__..__..__.._
 72
65
 73
6
 40
15.8749999999999982
 49
6.3499999999999996
 74
0
 49
-3.125
 74
0
 49
0.1
 74
0
 49
-3.0750000000000002
 74
0
 49
0.1
 74
0
 49
-3.125
 74
0
  0
LTYPE
  5
3C
100
AcDbSymbolTableRecord
100
AcDbLinetypeTableRecord
  2
ACAD_ISO10W100
 70
0
  3
ISO dash dot __ . __ . __ . __ . __ . __ . __ . 
 72
65
 73
4
 40
18.0
 49
12.0
 74
0
 49
-2.9500000000000002
 74
0
 49
0.1
 74
0
 49
-2.9500000000000002
 74
0
  0
LTYPE
  5
3D
100
AcDbSymbolTableRecord
100
AcDbLinetypeTableRecord
  2
ACAD_ISO14W100
 70
0
  3
ISO dash triple-dot __ . . . __ . . . __ . . . _
 72
65
 73
8
 40
24.0000000000000036
 49
12.0
 74
0
 49
-2.9500000000000002
 74
0
 49
0.1
 74
0
 49
-2.9000000000000004
 74
0
 49
0.1
 74
0
 49
-2.9000000000000004
 74
0
 49
0.1
 74
0
 49
-2.9500000000000002
 74
0
  0
LTYPE
  5
3E
100
AcDbSymbolTableRecord
100
AcDbLinetypeTableRecord
  2
ACAD_ISO09W100
 70
0
  3
ISO long-dash double-short-dash ____ __ __ ____
 72
65
 73
6
 40
45.0
 49
24.0
 74
0
 49
-3.0
 74
0
 49
6.0
 74
0
 49
-3.0
 74
0
 49
6.0
 74
0
 49
-3.0
 74
0
  0
LTYPE
  5
3F
100
AcDbSymbolTableRecord
100
AcDbLinetypeTableRecord
  2
ACAD_ISO12W100
 70
0
  3
ISO dash double-dot __ . . __ . . __ . . __ . . 
 72
65
 73
6
 40
21.0
 49
12.0
 74
0
 49
-2.9500000000000002
 74
0
 49
0.1
 74
0
 49
-2.9000000000000004
 74
0
 49
0.1
 74
0
 49
-2.9500000000000002
 74
0
  0
LTYPE
  5
40
100
AcDbSymbolTableRecord
100
AcDbLinetypeTableRecord
  2
CENTER
 70
0
  3
Center ____ _ ____ _ ____ _ ____ _ ____ _ ____
 72
65
 73
4
 40
50.8000000000000043
 49
31.75
 74
0
 49
-6.3499999999999996
 74
0
 49
6.3499999999999996
 74
0
 49
-6.3499999999999996
 74
0
  0
LTYPE
  5
41
100
AcDbSymbolTableRecord
100
AcDbLinetypeTableRecord
  2
BORDERX2
 70
0
  3
Border (2x) ____  ____  .  ____  ____  .  ___
 72
65
 73
6
 40
88.8999999999999773
 49
25.3999999999999986
 74
0
 49
-12.6999999999999993
 74
0
 49
25.3999999999999986
 74
0
 49
-12.6499999999999986
 74
0
 49
0.1
 74
0
 49
-12.6499999999999986
 74
0
  0
LTYPE
  5
42
100
AcDbSymbolTableRecord
100
AcDbLinetypeTableRecord
  2
BORDER2
 70
0
  3
Border (.5x) __.__.__.__.__.__.__.__.__.__.__.
 72
65
 73
6
 40
22.2250000000000014
 49
6.3499999999999996
 74
0
 49
-3.1749999999999998
 74
0
 49
6.3499999999999996
 74
0
 49
-3.125
 74
0
 49
0.1
 74
0
 49
-3.125
 74
0
  0
LTYPE
  5
43
100
AcDbSymbolTableRecord
100
AcDbLinetypeTableRecord
  2
HIDDEN2
 70
0
  3
Hidden (.5x) _ _ _ _ _ _ _ _ _ _ _ _ _ _ _ _ _ 
 72
65
 73
2
 40
4.7624999999999993
 49
3.1749999999999998
 74
0
 49
-1.5874999999999999
 74
0
  0
LTYPE
  5
44
100
AcDbSymbolTableRecord
100
AcDbLinetypeTableRecord
  2
ACAD_ISO15W100
 70
0
  3
ISO double-dash triple-dot __ __ . . . __ __ . .
 72
65
 73
10
 40
39.0000000000000071
 49
12.0
 74
0
 49
-3.0
 74
0
 49
12.0
 74
0
 49
-2.9500000000000002
 74
0
 49
0.1
 74
0
 49
-2.9000000000000004
 74
0
 49
0.1
 74
0
 49
-2.9000000000000004
 74
0
 49
0.1
 74
0
 49
-2.9500000000000002
 74
0
  0
LTYPE
  5
45
100
AcDbSymbolTableRecord
100
AcDbLinetypeTableRecord
  2
PHANTOM
 70
0
  3
Phantom ______  __  __  ______  __  __  ______ 
 72
65
 73
6
 40
63.5000000000000071
 49
31.75
 74
0
 49
-6.3499999999999996
 74
0
 49
6.3499999999999996
 74
0
 49
-6.3499999999999996
 74
0
 49
6.3499999999999996
 74
0
 49
-6.3499999999999996
 74
0
  0
LTYPE
  5
46
100
AcDbSymbolTableRecord
100
AcDbLinetypeTableRecord
  2
ACAD_ISO03W100
 70
0
  3
ISO dash space __    __    __    __    __    __
 72
65
 73
2
 40
30.0
 49
12.0
 74
0
 49
-18.0
 74
0
  0
LTYPE
  5
47
100
AcDbSymbolTableRecord
100
AcDbLinetypeTableRecord
  2
ACAD_ISO04W100
 70
0
  3
ISO long-dash dot ____ . ____ . ____ . ____ . _
 72
65
 73
4
 40
30.0
 49
24.0
 74
0
 49
-2.9500000000000002
 74
0
 49
0.1
 74
0
 49
-2.9500000000000002
 74
0
  0
LTYPE
  5
48
100
AcDbSymbolTableRecord
100
AcDbLinetypeTableRecord
  2
ACAD_ISO05W100
 70
0
  3
ISO long-dash double-dot ____ .. ____ .. ____ . 
 72
65
 73
6
 40
33.0000000000000071
 49
24.0
 74
0
 49
-2.9500000000000002
 74
0
 49
0.1
 74
0
 49
-2.9000000000000004
 74
0
 49
0.1
 74
0
 49
-2.9500000000000002
 74
0
  0
LTYPE
  5
49
100
AcDbSymbolTableRecord
100
AcDbLinetypeTableRecord
  2
DIVIDEX2
 70
0
  3
Divide (2x) ________  .  .  ________  .  .  _
 72
65
 73
6
 40
63.5
 49
25.3999999999999986
 74
0
 49
-12.6499999999999986
 74
0
 49
0.1
 74
0
 49
-12.5999999999999979
 74
0
 49
0.1
 74
0
 49
-12.6499999999999986
 74
0
  0
LTYPE
  5
4A
100
AcDbSymbolTableRecord
100
AcDbLinetypeTableRecord
  2
ACAD_ISO02W100
 70
0
  3
ISO dash __ __ __ __ __ __ __ __ __ __ __ __ __
 72
65
 73
2
 40
15.0
 49
12.0
 74
0
 49
-3.0
 74
0
  0
LTYPE
  5
4B
100
AcDbSymbolTableRecord
100
AcDbLinetypeTableRecord
  2
PHANTOMX2
 70
0
  3
Phantom (2x) ____________    ____    ____   _
 72
65
 73
6
 40
127.0000000000000142
 49
63.5
 74
0
 49
-12.6999999999999993
 74
0
 49
12.6999999999999993
 74
0
 49
-12.6999999999999993
 74
0
 49
12.6999999999999993
 74
0
 49
-12.6999999999999993
 74
0
  0
LTYPE
  5
4C
100
AcDbSymbolTableRecord
100
AcDbLinetypeTableRecord
  2
DOT2
 70
0
  3
Dot (.5x) ........................................
 72
65
 73
2
 40
3.1749999999999998
 49
0.1
 74
0
 49
-3.0749999999999997
 74
0
  0
LTYPE
  5
14
100
AcDbSymbolTableRecord
100
AcDbLinetypeTableRecord
  2
BYBLOCK
 70
0
  3

 72
65
 73
0
 40
0.0
  0
LTYPE
  5
4D
100
AcDbSymbolTableRecord
100
AcDbLinetypeTableRecord
  2
DASHDOTX2
 70
0
  3
Dash dot (2x) ____  .  ____  .  ____  .  ___
 72
65
 73
4
 40
50.7999999999999972
 49
25.3999999999999986
 74
0
 49
-12.6499999999999986
 74
0
 49
0.1
 74
0
 49
-12.6499999999999986
 74
0
  0
LTYPE
  5
4E
100
AcDbSymbolTableRecord
100
AcDbLinetypeTableRecord
  2
ACAD_ISO07W100
 70
0
  3
ISO dot . . . . . . . . . . . . . . . . . . . . 
 72
65
 73
2
 40
3.0
 49
0.1
 74
0
 49
-2.8999999999999999
 74
0
  0
LTYPE
  5
4F
100
AcDbSymbolTableRecord
100
AcDbLinetypeTableRecord
  2
DASHED2
 70
0
  3
Dashed (.5x) _ _ _ _ _ _ _ _ _ _ _ _ _ _ _ _ _ 
 72
65
 73
2
 40
9.5249999999999986
 49
6.3499999999999996
 74
0
 49
-3.1749999999999998
 74
0
  0
LTYPE
  5
15
100
AcDbSymbolTableRecord
100
AcDbLinetypeTableRecord
  2
BYLAYER
 70
0
  3

 72
65
 73
0
 40
0.0
  0
LTYPE
  5
50
100
AcDbSymbolTableRecord
100
AcDbLinetypeTableRecord
  2
ACAD_ISO13W100
 70
0
  3
ISO double-dash double-dot __ __ . . __ __ . . _
 72
65
 73
8
 40
36.0000000000000071
 49
12.0
 74
0
 49
-3.0
 74
0
 49
12.0
 74
0
 49
-2.9500000000000002
 74
0
 49
0.1
 74
0
 49
-2.9000000000000004
 74
0
 49
0.1
 74
0
 49
-2.9500000000000002
 74
0
  0
LTYPE
  5
51
100
AcDbSymbolTableRecord
100
AcDbLinetypeTableRecord
  2
HIDDEN
 70
0
  3
Hidden __ __ __ __ __ __ __ __ __ __ __ __ __ __
 72
65
 73
2
 40
9.5249999999999986
 49
6.3499999999999996
 74
0
 49
-3.1749999999999998
 74
0
  0
LTYPE
  5
52
100
AcDbSymbolTableRecord
100
AcDbLinetypeTableRecord
  2
BORDER
 70
0
  3
Border __ __ . __ __ . __ __ . __ __ . __ __ .
 72
65
 73
6
 40
44.4499999999999957
 49
12.6999999999999993
 74
0
 49
-6.3499999999999996
 74
0
 49
12.6999999999999993
 74
0
 49
-6.2999999999999998
 74
0
 49
0.1
 74
0
 49
-6.2999999999999998
 74
0
  0
LTYPE
  5
53
100
AcDbSymbolTableRecord
100
AcDbLinetypeTableRecord
  2
DIVIDE
 70
0
  3
Divide ____ . . ____ . . ____ . . ____ . . ____
 72
65
 73
6
 40
31.7500000000000036
 49
12.6999999999999993
 74
0
 49
-6.2999999999999998
 74
0
 49
0.1
 74
0
 49
-6.25
 74
0
 49
0.1
 74
0
 49
-6.2999999999999998
 74
0
  0
LTYPE
  5
54
100
AcDbSymbolTableRecord
100
AcDbLinetypeTableRecord
  2
DOT
 70
0
  3
Dot . . . . . . . . . . . . . . . . . . . . . . . .
 72
65
 73
2
 40
6.3499999999999996
 49
0.1
 74
0
 49
-6.25
 74
0
  0
LTYPE
  5
55
100
AcDbSymbolTableRecord
100
AcDbLinetypeTableRecord
  2
DASHEDX2
 70
0
  3
Dashed (2x) ____  ____  ____  ____  ____  ___
 72
65
 73
2
 40
38.0999999999999943
 49
25.3999999999999986
 74
0
 49
-12.6999999999999993
 74
0
  0
LTYPE
  5
56
100
AcDbSymbolTableRecord
100
AcDbLinetypeTableRecord
  2
CENTER2
 70
0
  3
Center (.5x) ___ _ ___ _ ___ _ ___ _ ___ _ ___
 72
65
 73
4
 40
28.5750000000000028
 49
19.0500000000000007
 74
0
 49
-3.1749999999999998
 74
0
 49
3.1749999999999998
 74
0
 49
-3.1749999999999998
 74
0
  0
ENDTAB
  0
TABLE
  2
LAYER
  5
2
100
AcDbSymbolTable
 70
5
  0
LAYER
  5
57
100
AcDbSymbolTableRecord
100
AcDbLayerTableRecord
  2
AreaEngraving
 70
0
 62
3
420
65280
  6
Continuous
370
13
390
F
  0
LAYER
  5
58
100
AcDbSymbolTableRecord
100
AcDbLayerTableRecord
  2
Cuts
 70
0
 62
1
420
16711680
  6
Continuous
370
13
390
F
  0
LAYER
  5
10
100
AcDbSymbolTableRecord
100
AcDbLayerTableRecord
  2
0
 70
0
 62
2
420
16776960
  6
Continuous
370
13
390
F
  0
LAYER
  5
59
100
AcDbSymbolTableRecord
100
AcDbLayerTableRecord
  2
UserDrawings
 70
0
 62
9
420
12632256
  6
Continuous
370
13
390
F
  0
LAYER
  5
5A
100
AcDbSymbolTableRecord
100
AcDbLayerTableRecord
  2
VectorEngraving
 70
0
 62
5
420
255
  6
Continuous
370
13
390
F
  0
ENDTAB
  0
TABLE
  2
STYLE
  5
3
100
AcDbSymbolTable
 70
1
  0
STYLE
  5
5B
100
AcDbSymbolTableRecord
100
AcDbTextStyleTableRecord
  2
Standard
 70
0
 40
0.0
 41
1.0
 50
0.0
 71
0
 42
2.5
  3

  4

1001
ACAD
1000
txt
1071
0
  0
ENDTAB
  0
TABLE
  2
VIEW
  5
6
100
AcDbSymbolTable
 70
0
  0
ENDTAB
  0
TABLE
  2
UCS
  5
7
100
AcDbSymbolTable
 70
0
  0
ENDTAB
  0
TABLE
  2
APPID
  5
9
100
AcDbSymbolTable
 70
1
  0
APPID
  5
12
100
AcDbSymbolTableRecord
100
AcDbRegAppTableRecord
  2
ACAD
 70
0
  0
APPID
  5
5C
100
AcDbSymbolTableRecord
100
AcDbRegAppTableRecord
  2
QCAD
 70
0
  0
ENDTAB
  0
TABLE
  2
DIMSTYLE
  5
A
100
AcDbSymbolTable
 70
1
100
AcDbDimStyleTable
 71
0
  0
DIMSTYLE
105
27
100
AcDbSymbolTableRecord
100
AcDbDimStyleTableRecord
  2
Standard
 41
2.5
 42
0.625
 43
3.75
 44
1.25
 70
0
 73
0
 74
0
 77
1
 78
8
140
2.5
141
2.5
143
0.03937007874016
147
0.625
171
3
172
1
271
2
272
2
274
3
278
44
283
0
284
8
340
5B
  0
ENDTAB
  0
TABLE
  2
BLOCK_RECORD
  5
1
100
AcDbSymbolTable
 70
1
  0
BLOCK_RECORD
  5
1F
100
AcDbSymbolTableRecord
100
AcDbBlockTableRecord
  2
*Model_Space
340
22
  0
BLOCK_RECORD
  5
1B
100
AcDbSymbolTableRecord
100
AcDbBlockTableRecord
  2
*Paper_Space
340
1E
  0
BLOCK_RECORD
  5
23
100
AcDbSymbolTableRecord
100
AcDbBlockTableRecord
  2
*Paper_Space0
340
26
  0
BLOCK_RECORD
  5
5D
100
AcDbSymbolTableRecord
100
AcDbBlockTableRecord
  2
block 2
340
0
  0
BLOCK_RECORD
  5
5E
100
AcDbSymbolTableRecord
100
AcDbBlockTableRecord
  2
block 10
340
0
  0
BLOCK_RECORD
  5
5F
100
AcDbSymbolTableRecord
100
AcDbBlockTableRecord
  2
block 5
340
0
  0
BLOCK_RECORD
  5
60
100
AcDbSymbolTableRecord
100
AcDbBlockTableRecord
  2
block 7
340
0
  0
BLOCK_RECORD
  5
61
100
AcDbSymbolTableRecord
100
AcDbBlockTableRecord
  2
block 6
340
0
  0
BLOCK_RECORD
  5
62
100
AcDbSymbolTableRecord
100
AcDbBlockTableRecord
  2
block 9
340
0
  0
BLOCK_RECORD
  5
63
100
AcDbSymbolTableRecord
100
AcDbBlockTableRecord
  2
block 4
340
0
  0
BLOCK_RECORD
  5
64
100
AcDbSymbolTableRecord
100
AcDbBlockTableRecord
  2
block 8
340
0
  0
BLOCK_RECORD
  5
65
100
AcDbSymbolTableRecord
100
AcDbBlockTableRecord
  2
block 1
340
0
  0
BLOCK_RECORD
  5
66
100
AcDbSymbolTableRecord
100
AcDbBlockTableRecord
  2
block 3
340
0
  0
ENDTAB
  0
ENDSEC
  0
SECTION
  2
BLOCKS
  0
BLOCK
  5
20
100
AcDbEntity
  8
0
100
AcDbBlockBegin
  2
*Model_Space
 70
0
 10
0.0
 20
0.0
 30
0.0
  3
*Model_Space
  1

  0
ENDBLK
  5
21
100
AcDbEntity
  8
0
100
AcDbBlockEnd
  0
BLOCK
  5
1C
100
AcDbEntity
 67
1
  8
0
100
AcDbBlockBegin
  2
*Paper_Space
 70
0
 10
0.0
 20
0.0
 30
0.0
  3
*Paper_Space
  1

  0
ENDBLK
  5
1D
100
AcDbEntity
 67
1
  8
0
100
AcDbBlockEnd
  0
BLOCK
  5
24
100
AcDbEntity
  8
0
100
AcDbBlockBegin
  2
*Paper_Space0
 70
0
 10
0.0
 20
0.0
 30
0.0
  3
*Paper_Space0
  1

  0
ENDBLK
  5
25
100
AcDbEntity
  8
0
100
AcDbBlockEnd
  0
BLOCK
  5
67
100
AcDbEntity
  8
0
100
AcDbBlockBegin
  2
block 2
 70
0
 10
0.0
 20
0.0
 30
0.0
  3
block 2
  1

  0
INSERT
  5
68
100
AcDbEntity
  8
VectorEngraving
 62
256
370
-1
 48
1.0
  6
BYLAYER
100
AcDbBlockReference
  2
block 1
 10
-269.800785000000019
 20
132.2832050000000095
 30
0.0
  0
ENDBLK
  5
69
100
AcDbEntity
  8
0
100
AcDbBlockEnd
  0
BLOCK
  5
6A
100
AcDbEntity
  8
0
100
AcDbBlockBegin
  2
block 10
 70
0
 10
0.0
 20
0.0
 30
0.0
  3
block 10
  1

  0
LWPOLYLINE
  5
6B
100
AcDbEntity
  8
AreaEngraving
 62
3
420
65280
370
-1
 48
1.0
  6
BYLAYER
100
AcDbPolyline
 90
6
 70
128
 10
-0.1241871991868777
 20
5.2656190505156095
 10
-0.1241871991868777
 20
3.5095290505156091
 42
-0.0094312964636997
 10
0.0077028008131208
 20
3.5155290505156378
 42
-0.0094282736998003
 10
0.1396528008131099
 20
3.5125290505156235
 10
0.1396528008131099
 20
5.265319050515628
 10
-0.1241871991868777
 20
5.2656190505156095
  0
LWPOLYLINE
  5
6C
100
AcDbEntity
  8
AreaEngraving
 62
3
420
65280
370
-1
 48
1.0
  6
BYLAYER
100
AcDbPolyline
 90
5
 70
128
 10
-2.5030071991868965
 20
4.6282390505156021
 10
-2.731487199186887
 20
4.4962990505156162
 10
-1.8547271991868968
 20
2.9777290505156051
 42
-0.018850642653673
 10
-1.6253471991869048
 20
3.1080490505156169
 10
-2.5030071991868965
 20
4.6282390505156021
  0
LWPOLYLINE
  5
6D
100
AcDbEntity
  8
AreaEngraving
 62
3
420
65280
370
-1
 48
1.0
  6
BYLAYER
100
AcDbPolyline
 90
5
 70
128
 10
2.518512800813113
 20
4.6282390505156021
 10
1.6420228008130948
 20
3.110129050515595
 42
-0.0188531870154901
 10
1.8706428008131013
 20
2.9784090505155936
 10
2.7469928008131035
 20
4.4962990505155878
 10
2.518512800813113
 20
4.6282390505156021
  0
LWPOLYLINE
  5
6E
100
AcDbEntity
  8
AreaEngraving
 62
3
420
65280
370
-1
 48
1.0
  6
BYLAYER
100
AcDbPolyline
 90
5
 70
128
 10
-4.4729271991868984
 20
2.7548590505156048
 10
-4.6048271991869001
 20
2.5263790505156143
 10
-3.0846771991868991
 20
1.6487190505156226
 42
-0.0188520557002934
 10
-2.9543171991869031
 20
1.8780990505156145
 10
-4.4729271991868984
 20
2.7548590505156048
  0
LWPOLYLINE
  5
6F
100
AcDbEntity
  8
AreaEngraving
 62
3
420
65280
370
-1
 48
1.0
  6
BYLAYER
100
AcDbPolyline
 90
5
 70
128
 10
4.4884328008131149
 20
2.7548590505156048
 10
2.9704928008131049
 20
1.8785090505156026
 42
-0.0188549721058722
 10
3.1022628008131505
 20
1.6498890505155961
 10
4.6203228008131134
 20
2.5263790505155859
 10
4.4884328008131149
 20
2.7548590505156048
  0
LWPOLYLINE
  5
70
100
AcDbEntity
  8
AreaEngraving
 62
3
420
65280
370
-1
 48
1.0
  6
BYLAYER
100
AcDbPolyline
 90
6
 70
128
 10
-5.2422901991868969
 20
0.1475190505156112
 10
-5.2422901991868969
 20
-0.1163209494843764
 10
-3.4861571991868914
 20
-0.1163209494843764
 42
-0.0094348651562602
 10
-3.49215719918692
 20
0.0156190505156095
 42
-0.00943201020193
 10
-3.4861571991869198
 20
0.1475190505156112
 10
-5.2422901991868969
 20
0.1475190505156112
  0
LWPOLYLINE
  5
71
100
AcDbEntity
  8
AreaEngraving
 62
3
420
65280
370
-1
 48
1.0
  6
BYLAYER
100
AcDbPolyline
 90
6
 70
128
 10
3.5049628008131037
 20
0.1475190505156112
 42
-0.009424702242363
 10
3.5079628008130896
 20
0.0156190505156948
 42
-0.0094348651562611
 10
3.5019628008131178
 20
-0.1163209494843764
 10
5.2580528008130898
 20
-0.1163209494843764
 10
5.2580528008130898
 20
0.1475190505156112
 10
3.5049628008131037
 20
0.1475190505156112
  0
LWPOLYLINE
  5
72
100
AcDbEntity
  8
AreaEngraving
 62
3
420
65280
370
-1
 48
1.0
  6
BYLAYER
100
AcDbPolyline
 90
5
 70
128
 10
3.1001328008130997
 20
-1.6174309494843877
 42
-0.0188551641205852
 10
2.9697728008131037
 20
-1.8468609494843955
 10
4.4884328008131149
 20
-2.7236209494843857
 10
4.6203228008131134
 20
-2.4951409494843952
 10
3.1001328008130997
 20
-1.6174309494843877
  0
LWPOLYLINE
  5
73
100
AcDbEntity
  8
AreaEngraving
 62
3
420
65280
370
-1
 48
1.0
  6
BYLAYER
100
AcDbPolyline
 90
5
 70
128
 10
-3.0846771991868991
 20
-1.6174809494843752
 10
-4.6048271991869001
 20
-2.4951409494843668
 10
-4.4729271991868984
 20
-2.7236209494843573
 10
-2.9543171991869031
 20
-1.8468609494843671
 42
-0.0188520557002923
 10
-3.0846771991869275
 20
-1.6174809494843752
  0
LWPOLYLINE
  5
74
100
AcDbEntity
  8
AreaEngraving
 62
3
420
65280
370
-1
 48
1.0
  6
BYLAYER
100
AcDbPolyline
 90
5
 70
128
 10
1.8702328008131133
 20
-2.9464509494843734
 42
-0.0188520557002944
 10
1.6408528008130929
 20
-3.0768109494843694
 10
2.518512800813113
 20
-4.5970009494843831
 10
2.7469928008131035
 20
-4.4650609494843971
 10
1.8702328008131133
 20
-2.9464509494843734
  0
LWPOLYLINE
  5
75
100
AcDbEntity
  8
AreaEngraving
 62
3
420
65280
370
-1
 48
1.0
  6
BYLAYER
100
AcDbPolyline
 90
6
 70
128
 10
-1.8547271991868968
 20
-2.9464909494843861
 10
-2.731487199186887
 20
-4.4650609494843971
 10
-2.5030071991868965
 20
-4.5970009494843831
 10
-1.6253471991869048
 20
-3.0768109494843694
 42
-0.0188506426536739
 10
-1.8547271991868968
 20
-2.9464909494843576
 10
-1.8547271991868968
 20
-2.9464909494843861
  0
ENDBLK
  5
76
100
AcDbEntity
  8
0
100
AcDbBlockEnd
  0
BLOCK
  5
77
100
AcDbEntity
  8
0
100
AcDbBlockBegin
  2
block 5
 70
0
 10
0.0
 20
0.0
 30
0.0
  3
block 5
  1

  0
LWPOLYLINE
  5
78
100
AcDbEntity
  8
0
 62
256
370
-1
 48
1.0
  6
BYLAYER
100
AcDbPolyline
 90
20
 70
128
 10
-363.1093789999999899
 20
132.2832050000000095
 10
-363.1093789999999899
 20
116.4570330000000098
 10
-382.0058629999999766
 20
116.4570330000000098
 10
-382.0058629999999766
 20
84.8027360000000101
 10
-363.1093789999999899
 20
84.8027360000000101
 10
-363.1093789999999899
 20
-8.9277349999999842
 10
-382.0058629999999766
 20
-8.9277349999999842
 10
-382.0058629999999766
 20
-40.5800749999999937
 10
-363.1093789999999899
 20
-40.5800749999999937
 10
-363.1093789999999899
 20
-56.3769549999999811
 10
-363.1093789999999899
 20
-132.2832050000000095
 10
-274.9199249999999779
 20
-132.2832050000000095
 10
-274.9199249999999779
 20
-56.3769550000000095
 10
-254.4003949999999747
 20
-56.3769550000000095
 10
-226.7734449999999811
 20
-132.2832050000000095
 10
-138.5839849999999842
 20
-132.2832050000000095
 10
-176.8964849999999842
 20
-27.0175749999999937
 42
0.1923579134144613
 10
-150.8671949999999242
 20
37.9531270000090473
 42
0.4142131276425501
 10
-245.1972649974722458
 20
132.2832049999999811
 10
-363.1093789999999899
 20
132.2832050000000095
  0
LWPOLYLINE
  5
79
100
AcDbEntity
  8
0
 62
256
370
-1
 48
1.0
  6
BYLAYER
100
AcDbPolyline
 90
6
 70
128
 10
-274.9199249999999779
 20
68.9921890000000104
 10
-253.1074249999999779
 20
68.9921890000000104
 42
-0.4142108826965076
 10
-222.0703149999999937
 20
37.9531269999891805
 42
-0.4141924816972828
 10
-253.1074249999999779
 20
6.91601500000003
 10
-274.9199249999999779
 20
6.9160150000000158
 10
-274.9199249999999779
 20
68.9921890000000104
  0
LWPOLYLINE
  5
7A
100
AcDbEntity
  8
0
 62
256
370
-1
 48
1.0
  6
BYLAYER
100
AcDbPolyline
 90
5
 70
128
 10
56.2519449999999779
 20
132.2832050000000095
 10
4.0527350000000411
 20
-11.1347649999999874
 10
48.1464849999999842
 20
-132.2832050000000095
 10
100.3476550000000316
 20
11.1347649999999874
 10
56.2519449999999779
 20
132.2832050000000095
  0
LWPOLYLINE
  5
7B
100
AcDbEntity
  8
0
 62
256
370
-1
 48
1.0
  6
BYLAYER
100
AcDbPolyline
 90
5
 70
128
 10
-136.3359449999999811
 20
132.2832050000000095
 10
-40.0410149999999589
 20
-132.2832050000000095
 10
48.1464849999999842
 20
-132.2832050000000095
 10
-48.1464849999999842
 20
132.2832050000000095
 10
-136.3359449999999811
 20
132.2832050000000095
  0
LWPOLYLINE
  5
7C
100
AcDbEntity
  8
0
 62
256
370
-1
 48
1.0
  6
BYLAYER
100
AcDbPolyline
 90
8
 70
128
 10
56.2519449999999779
 20
132.2832050000000095
 10
152.546875
 20
-132.2832050000000095
 10
240.7363250000000789
 20
-132.2832050000000095
 10
337.0312450000001263
 20
132.2832050000000095
 10
248.8417950000000474
 20
132.2832050000000095
 10
196.640625
 20
-11.1347649999999874
 10
144.4414050000000316
 20
132.2832050000000095
 10
56.2519449999999779
 20
132.2832050000000095
  0
ENDBLK
  5
7D
100
AcDbEntity
  8
0
100
AcDbBlockEnd
  0
BLOCK
  5
7E
100
AcDbEntity
  8
0
100
AcDbBlockBegin
  2
block 7
 70
0
 10
0.0
 20
0.0
 30
0.0
  3
block 7
  1

  0
LWPOLYLINE
  5
7F
100
AcDbEntity
  8
VectorEngraving
 62
3
420
65280
370
-1
 48
1.0
  6
BYLAYER
100
AcDbPolyline
 90
6
 70
128
 10
-0.1447316216625225
 20
5.2278271675010188
 10
-0.1447316216625225
 20
3.4717371675010185
 42
-0.0094312964636997
 10
-0.012841621662524
 20
3.4777371675010471
 42
-0.0094282736998003
 10
0.1191083783374793
 20
3.4747371675010328
 10
0.1191083783374793
 20
5.2275271675010373
 10
-0.1447316216625225
 20
5.2278271675010188
  0
LWPOLYLINE
  5
80
100
AcDbEntity
  8
VectorEngraving
 62
3
420
65280
370
-1
 48
1.0
  6
BYLAYER
100
AcDbPolyline
 90
5
 70
128
 10
-2.5235516216625271
 20
4.5904471675010114
 10
-2.7520316216625318
 20
4.4585071675010255
 10
-1.8752716216625274
 20
2.9399371675010144
 42
-0.018850642653673
 10
-1.6458916216625212
 20
3.0702571675010262
 10
-2.5235516216625271
 20
4.5904471675010114
  0
LWPOLYLINE
  5
81
100
AcDbEntity
  8
VectorEngraving
 62
3
420
65280
370
-1
 48
1.0
  6
BYLAYER
100
AcDbPolyline
 90
5
 70
128
 10
2.4979683783374682
 20
4.5904471675010114
 10
1.6214783783374642
 20
3.0723371675010043
 42
-0.0188531870154901
 10
1.8500983783374707
 20
2.9406171675010029
 10
2.7264483783374729
 20
4.4585071675009971
 10
2.4979683783374682
 20
4.5904471675010114
  0
LWPOLYLINE
  5
82
100
AcDbEntity
  8
VectorEngraving
 62
3
420
65280
370
-1
 48
1.0
  6
BYLAYER
100
AcDbPolyline
 90
5
 70
128
 10
-4.493471621662529
 20
2.7170671675010141
 10
-4.6253716216625307
 20
2.4885871675010236
 10
-3.1052216216625297
 20
1.6109271675010319
 42
-0.0188520557002934
 10
-2.9748616216625337
 20
1.8403071675010239
 10
-4.493471621662529
 20
2.7170671675010141
  0
LWPOLYLINE
  5
83
100
AcDbEntity
  8
VectorEngraving
 62
3
420
65280
370
-1
 48
1.0
  6
BYLAYER
100
AcDbPolyline
 90
5
 70
128
 10
4.4678883783374701
 20
2.7170671675010141
 10
2.9499483783374743
 20
1.8407171675010119
 42
-0.0188549721058722
 10
3.0817183783375199
 20
1.6120971675010054
 10
4.5997783783374828
 20
2.4885871675009952
 10
4.4678883783374701
 20
2.7170671675010141
  0
LWPOLYLINE
  5
84
100
AcDbEntity
  8
VectorEngraving
 62
3
420
65280
370
-1
 48
1.0
  6
BYLAYER
100
AcDbPolyline
 90
6
 70
128
 10
-5.2628346216625275
 20
0.1097271675010205
 10
-5.2628346216625275
 20
-0.1541128324989671
 10
-3.506701621662522
 20
-0.1541128324989671
 42
-0.0094348651562602
 10
-3.5127016216625506
 20
-0.0221728324989812
 42
-0.00943201020193
 10
-3.5067016216625362
 20
0.1097271675010205
 10
-5.2628346216625275
 20
0.1097271675010205
  0
LWPOLYLINE
  5
85
100
AcDbEntity
  8
VectorEngraving
 62
3
420
65280
370
-1
 48
1.0
  6
BYLAYER
100
AcDbPolyline
 90
6
 70
128
 10
3.4844183783374589
 20
0.1097271675010205
 42
-0.009424702242363
 10
3.487418378337459
 20
-0.0221728324988959
 42
-0.0094348651562611
 10
3.4814183783374872
 20
-0.1541128324989671
 10
5.2375083783374734
 20
-0.1541128324989671
 10
5.2375083783374734
 20
0.1097271675010205
 10
3.4844183783374731
 20
0.1097271675010205
  0
LWPOLYLINE
  5
86
100
AcDbEntity
  8
VectorEngraving
 62
3
420
65280
370
-1
 48
1.0
  6
BYLAYER
100
AcDbPolyline
 90
5
 70
128
 10
3.0795883783374691
 20
-1.6552228324989784
 42
-0.0188551641205852
 10
2.9492283783374731
 20
-1.8846528324989862
 10
4.4678883783374701
 20
-2.7614128324989764
 10
4.5997783783374686
 20
-2.5329328324989859
 10
3.0795883783374691
 20
-1.6552228324989784
  0
LWPOLYLINE
  5
87
100
AcDbEntity
  8
VectorEngraving
 62
3
420
65280
370
-1
 48
1.0
  6
BYLAYER
100
AcDbPolyline
 90
5
 70
128
 10
-3.1052216216625297
 20
-1.6552728324989658
 10
-4.6253716216625307
 20
-2.5329328324989575
 10
-4.493471621662529
 20
-2.761412832498948
 10
-2.9748616216625337
 20
-1.8846528324989578
 42
-0.0188520557002923
 10
-3.1052216216625439
 20
-1.6552728324989658
  0
LWPOLYLINE
  5
88
100
AcDbEntity
  8
VectorEngraving
 62
3
420
65280
370
-1
 48
1.0
  6
BYLAYER
100
AcDbPolyline
 90
5
 70
128
 10
1.8496883783374685
 20
-2.984242832498964
 42
-0.0188520557002944
 10
1.6203083783374623
 20
-3.1146028324989601
 10
2.4979683783374682
 20
-4.6347928324989738
 10
2.7264483783374729
 20
-4.5028528324989878
 10
1.8496883783374685
 20
-2.984242832498964
  0
LWPOLYLINE
  5
89
100
AcDbEntity
  8
VectorEngraving
 62
3
420
65280
370
-1
 48
1.0
  6
BYLAYER
100
AcDbPolyline
 90
6
 70
128
 10
-1.8752716216625274
 20
-2.9842828324989767
 10
-2.7520316216625318
 20
-4.5028528324989878
 10
-2.5235516216625271
 20
-4.6347928324989738
 10
-1.6458916216625212
 20
-3.1146028324989601
 42
-0.0188506426536739
 10
-1.8752716216625274
 20
-2.9842828324989483
 10
-1.8752716216625274
 20
-2.9842828324989767
  0
ENDBLK
  5
8A
100
AcDbEntity
  8
0
100
AcDbBlockEnd
  0
BLOCK
  5
8B
100
AcDbEntity
  8
0
100
AcDbBlockBegin
  2
block 6
 70
0
 10
0.0
 20
0.0
 30
0.0
  3
block 6
  1

  0
LWPOLYLINE
  5
8C
100
AcDbEntity
  8
VectorEngraving
 62
256
370
-1
 48
1.0
  6
BYLAYER
100
AcDbPolyline
 90
20
 70
128
 10
-9.6223985434999992
 20
3.5055049324999992
 10
-9.6223985434999992
 20
3.0861113744999997
 10
-10.1231553694999992
 20
3.0861113744999997
 10
-10.1231553694999992
 20
2.2472725039999997
 10
-9.6223985434999992
 20
2.2472725039999997
 10
-9.6223985434999992
 20
-0.2365849774999997
 10
-10.1231553694999992
 20
-0.2365849774999997
 10
-10.1231553694999992
 20
-1.0753719874999996
 10
-9.6223985434999992
 20
-1.0753719874999996
 10
-9.6223985434999992
 20
-1.4939893074999997
 10
-9.6223985434999992
 20
-3.5055049325000001
 10
-7.2853780124999989
 20
-3.5055049325000001
 10
-7.2853780124999989
 20
-1.4939893074999997
 10
-6.7416104674999993
 20
-1.4939893074999997
 10
-6.0094962924999997
 20
-3.5055049325000001
 10
-3.6724756024999996
 20
-3.5055049325000001
 10
-4.6877568524999997
 20
-0.7159657374999995
 42
0.1923579134144613
 10
-3.9979806674999985
 20
1.0057578655002395
 42
0.4142131276425501
 10
-6.4977275224330144
 20
3.5055049324999992
 10
-9.6223985434999992
 20
3.5055049324999992
  0
LWPOLYLINE
  5
8D
100
AcDbEntity
  8
VectorEngraving
 62
256
370
-1
 48
1.0
  6
BYLAYER
100
AcDbPolyline
 90
6
 70
128
 10
-7.2853780124999989
 20
1.8282930085000011
 10
-6.7073467624999994
 20
1.8282930085000011
 42
-0.4142108826965076
 10
-5.8848633474999996
 20
1.0057578654997137
 42
-0.4141924816972828
 10
-6.7073467624999994
 20
0.1832743975000009
 10
-7.2853780124999989
 20
0.1832743975
 10
-7.2853780124999989
 20
1.8282930085000011
  0
LWPOLYLINE
  5
8E
100
AcDbEntity
  8
VectorEngraving
 62
256
370
-1
 48
1.0
  6
BYLAYER
100
AcDbPolyline
 90
5
 70
128
 10
-3.6129025424999988
 20
3.5055049324999992
 10
-1.0610868974999992
 20
-3.5055049325000001
 10
1.2758818524999995
 20
-3.5055049325000001
 10
-1.2758818524999995
 20
3.5055049324999992
 10
-3.6129025424999988
 20
3.5055049324999992
  0
LWPOLYLINE
  5
8F
100
AcDbEntity
  8
VectorEngraving
 62
256
370
-1
 48
1.0
  6
BYLAYER
100
AcDbPolyline
 90
8
 70
128
 10
1.4906765424999993
 20
3.5055049324999992
 10
4.0424921874999988
 20
-3.5055049325000001
 10
6.379512612500001
 20
-3.5055049325000001
 10
8.9313279925000018
 20
3.5055049324999992
 10
6.5943075675000031
 20
3.5055049324999992
 10
5.2109765625000009
 20
-0.2950712724999995
 10
3.8276972325000003
 20
3.5055049324999992
 10
1.4906765424999993
 20
3.5055049324999992
  0
LINE
  5
90
100
AcDbEntity
  8
VectorEngraving
 62
256
370
-1
 48
1.0
  6
BYLAYER
100
AcDbLine
 10
0.1073974775000028
 20
-0.2950712724999986
 30
0.0
 11
1.490676542500001
 21
3.5055049325000009
 31
0.0
  0
LINE
  5
91
100
AcDbEntity
  8
VectorEngraving
 62
256
370
-1
 48
1.0
  6
BYLAYER
100
AcDbLine
 10
2.6591996787320564
 20
0.2950350650328817
 30
0.0
 11
1.2758818546243074
 21
-3.505504934606535
 31
0.0
  0
ENDBLK
  5
92
100
AcDbEntity
  8
0
100
AcDbBlockEnd
  0
BLOCK
  5
93
100
AcDbEntity
  8
0
100
AcDbBlockBegin
  2
block 9
 70
0
 10
0.0
 20
0.0
 30
0.0
  3
block 9
  1

  0
LWPOLYLINE
  5
94
100
AcDbEntity
  8
AreaEngraving
 62
3
420
65280
370
-1
 48
1.0
  6
BYLAYER
100
AcDbPolyline
 90
6
 70
128
 10
-0.6863584872871513
 20
51.1120564188048405
 10
-0.6863584872871513
 20
39.9142964188048381
 42
-0.0033072788336863
 10
-0.1577084872871524
 20
39.9374964188048551
 42
-0.0033077266184061
 10
0.3714615127128411
 20
39.929496418804888
 10
0.3714615127128411
 20
51.1120564188048405
 10
-0.6863584872871513
 20
51.1120564188048405
  0
LWPOLYLINE
  5
95
100
AcDbEntity
  8
AreaEngraving
 62
3
420
65280
370
-1
 48
1.0
  6
BYLAYER
100
AcDbPolyline
 90
5
 70
128
 10
-11.8215964872871382
 20
45.5113664188048404
 10
-12.8432394872871498
 20
45.2374864188048349
 10
-11.0154454872871383
 20
38.4151664188048301
 42
-0.0066141399769513
 10
-9.9932854872871815
 20
38.6890464188048497
 10
-11.8215964872871382
 20
45.5113664188048404
  0
LWPOLYLINE
  5
96
100
AcDbEntity
  8
AreaEngraving
 62
3
420
65280
370
-1
 48
1.0
  6
BYLAYER
100
AcDbPolyline
 90
5
 70
128
 10
11.5067015127128514
 20
45.5113664188048404
 10
9.6825215127128672
 20
38.7035164188048384
 42
-0.0066101756053528
 10
10.7041615127128011
 20
38.4301464188048669
 10
12.5283415127128706
 20
45.2374864188048349
 10
11.5067015127128514
 20
45.5113664188048404
  0
LWPOLYLINE
  5
97
100
AcDbEntity
  8
AreaEngraving
 62
3
420
65280
370
-1
 48
1.0
  6
BYLAYER
100
AcDbPolyline
 90
5
 70
128
 10
-25.2869244872871377
 20
44.5202164188048357
 10
-26.2026304872871378
 20
43.9915664188048368
 10
-20.6034894872871348
 20
34.2939664188048425
 42
-0.006608723992369
 10
-19.6877834872871347
 20
34.8226164188048557
 10
-25.2869244872871377
 20
44.5202164188048357
  0
LWPOLYLINE
  5
98
100
AcDbEntity
  8
AreaEngraving
 62
3
420
65280
370
-1
 48
1.0
  6
BYLAYER
100
AcDbPolyline
 90
5
 70
128
 10
24.9715115127128513
 20
44.5202164188048357
 10
19.3806315127128528
 20
34.8360564188048301
 42
-0.0066087456461917
 10
20.2963415127127575
 20
34.3074064188048453
 10
25.8877315127128611
 20
43.9915664188048368
 10
24.9715115127128513
 20
44.5202164188048357
  0
LWPOLYLINE
  5
99
100
AcDbEntity
  8
AreaEngraving
 62
3
420
65280
370
-1
 48
1.0
  6
BYLAYER
100
AcDbPolyline
 90
5
 70
128
 10
-33.0456244872871423
 20
33.5735964188048399
 10
-33.7938984872871231
 20
32.8258364188048404
 10
-28.799371487287118
 20
27.8313064188048429
 42
-0.0066118880942146
 10
-28.0510974872871657
 20
28.5790664188048282
 10
-33.0456244872871423
 20
33.5735964188048399
  0
LWPOLYLINE
  5
9A
100
AcDbEntity
  8
AreaEngraving
 62
3
420
65280
370
-1
 48
1.0
  6
BYLAYER
100
AcDbPolyline
 90
5
 70
128
 10
32.7307215127128472
 20
33.5735964188048399
 10
27.7475715127128524
 20
28.5904364188048419
 42
-0.0066118262234246
 10
28.4953215127127635
 20
27.8421664188048652
 10
33.4784815127128468
 20
32.8258364188048404
 10
32.7307215127128472
 20
33.5735964188048399
  0
LWPOLYLINE
  5
9B
100
AcDbEntity
  8
AreaEngraving
 62
3
420
65280
370
-1
 48
1.0
  6
BYLAYER
100
AcDbPolyline
 90
5
 70
128
 10
-44.2113514872871463
 20
25.98284641880484
 10
-44.7405184872871473
 20
25.0666264188048444
 10
-35.042920487287148
 20
19.4679964188048444
 42
-0.0066131255020083
 10
-34.5137524872871779
 20
20.38421641880484
 10
-44.2113514872871463
 20
25.98284641880484
  0
LWPOLYLINE
  5
9C
100
AcDbEntity
  8
AreaEngraving
 62
3
420
65280
370
-1
 48
1.0
  6
BYLAYER
100
AcDbPolyline
 90
5
 70
128
 10
43.8964515127128436
 20
25.98284641880484
 10
34.2122915127128522
 20
20.3919764188048305
 42
-0.0066115608445713
 10
34.7409415127128796
 20
19.4757464188048885
 10
44.425101512712871
 20
25.066626418804816
 10
43.8964515127128436
 20
25.98284641880484
  0
LWPOLYLINE
  5
9D
100
AcDbEntity
  8
AreaEngraving
 62
3
420
65280
370
-1
 48
1.0
  6
BYLAYER
100
AcDbPolyline
 90
5
 70
128
 10
-45.457797487287138
 20
12.622936418804855
 10
-45.731682487287145
 20
11.6012964188048642
 10
-38.909357487287167
 20
9.7729864188048765
 42
-0.006614144830355
 10
-38.6354744872872118
 20
10.795146418804805
 10
-45.457797487287138
 20
12.622936418804855
  0
LWPOLYLINE
  5
9E
100
AcDbEntity
  8
AreaEngraving
 62
3
420
65280
370
-1
 48
1.0
  6
BYLAYER
100
AcDbPolyline
 90
5
 70
128
 10
45.1428915127128505
 20
12.622936418804855
 10
38.3355515127128399
 20
10.7987564188048424
 42
-0.006611016540262
 10
38.6094415127128912
 20
9.7771164188047948
 10
45.4162515127128188
 20
11.6012964188048642
 10
45.1428915127128505
 20
12.622936418804855
  0
LWPOLYLINE
  5
9F
100
AcDbEntity
  8
AreaEngraving
 62
3
420
65280
370
-1
 48
1.0
  6
BYLAYER
100
AcDbPolyline
 90
6
 70
128
 10
-51.3318474872871491
 20
0.4660564188048539
 10
-51.3318474872871491
 20
-0.591243581195144
 10
-40.1340814872871476
 20
-0.591243581195144
 42
-0.003307292549862
 10
-40.1573314872871379
 20
-0.0625935811951734
 42
-0.003307292549864
 10
-40.1340814872871476
 20
0.4660564188046834
 10
-51.3318474872871491
 20
0.4660564188048539
  0
LWPOLYLINE
  5
A0
100
AcDbEntity
  8
AreaEngraving
 62
3
420
65280
370
-1
 48
1.0
  6
BYLAYER
100
AcDbPolyline
 90
6
 70
128
 10
39.8346815127128195
 20
0.4660564188047971
 42
-0.003304476883546
 10
39.8426815127128577
 20
-0.0625935811947755
 42
-0.0033072788336863
 10
39.8194815127128834
 20
-0.5912435811953145
 10
51.0172515127128179
 20
-0.591243581195144
 10
51.0172515127128179
 20
0.4660564188048539
 10
39.8346815127128764
 20
0.4660564188048539
  0
LWPOLYLINE
  5
A1
100
AcDbEntity
  8
AreaEngraving
 62
3
420
65280
370
-1
 48
1.0
  6
BYLAYER
100
AcDbPolyline
 90
6
 70
128
 10
-38.9093484872871329
 20
-9.8981735811951665
 10
-45.7316724872871418
 20
-11.7264835811951542
 10
-45.4577874872871632
 20
-12.748123581195145
 10
-38.6354654872871492
 20
-10.9203235811951203
 42
-0.0066140844520288
 10
-38.9093484872871329
 20
-9.8981735811951665
 10
-38.9093484872871329
 20
-9.8981735811951665
  0
LWPOLYLINE
  5
A2
100
AcDbEntity
  8
AreaEngraving
 62
3
420
65280
370
-1
 48
1.0
  6
BYLAYER
100
AcDbPolyline
 90
5
 70
128
 10
38.5944515127128227
 20
-9.8986835811951295
 42
-0.0066110165402621
 10
38.3205615127128283
 20
-10.9203235811951771
 10
45.1428915127128505
 20
-12.748123581195145
 10
45.4162515127128188
 20
-11.7264835811951542
 10
38.5944515127128795
 20
-9.8986835811951295
  0
LWPOLYLINE
  5
A3
100
AcDbEntity
  8
AreaEngraving
 62
3
420
65280
370
-1
 48
1.0
  6
BYLAYER
100
AcDbPolyline
 90
5
 70
128
 10
-35.042920487287148
 20
-19.5931835811951345
 10
-44.7405184872871473
 20
-25.1918135811951487
 10
-44.2113514872871463
 20
-26.1080335811951585
 10
-34.5137524872871495
 20
-20.5094035811951443
 42
-0.0066131255020083
 10
-35.042920487287148
 20
-19.5931835811951345
  0
LWPOLYLINE
  5
A4
100
AcDbEntity
  8
AreaEngraving
 62
3
420
65280
370
-1
 48
1.0
  6
BYLAYER
100
AcDbPolyline
 90
5
 70
128
 10
34.7280215127128429
 20
-19.5931835811950776
 42
-0.0066131317545044
 10
34.198851512712821
 20
-20.5094035811951443
 10
43.8964515127128436
 20
-26.1080335811951585
 10
44.425101512712871
 20
-25.1918135811951487
 10
34.7280215127128429
 20
-19.5931835811951345
  0
LWPOLYLINE
  5
A5
100
AcDbEntity
  8
AreaEngraving
 62
3
420
65280
370
-1
 48
1.0
  6
BYLAYER
100
AcDbPolyline
 90
5
 70
128
 10
-28.7993714872871465
 20
-27.9564935811951472
 10
-33.793899487287149
 20
-32.9510235811951588
 10
-33.0456274872871347
 20
-33.6987835811951868
 10
-28.0510984872871347
 20
-28.7042535811951893
 42
-0.0066118836727005
 10
-28.799371487287118
 20
-27.9564935811951472
  0
LWPOLYLINE
  5
A6
100
AcDbEntity
  8
AreaEngraving
 62
3
420
65280
370
-1
 48
1.0
  6
BYLAYER
100
AcDbPolyline
 90
5
 70
128
 10
28.484471512712787
 20
-27.9564935811951472
 42
-0.0066118704081765
 10
27.7362015127128245
 20
-28.7042535811951325
 10
32.7307215127128472
 20
-33.6987835811951868
 10
33.4784815127128468
 20
-32.9510235811951588
 10
28.4844715127128438
 20
-27.9564935811951472
  0
LWPOLYLINE
  5
A7
100
AcDbEntity
  8
AreaEngraving
 62
3
420
65280
370
-1
 48
1.0
  6
BYLAYER
100
AcDbPolyline
 90
5
 70
128
 10
-20.6040134872871477
 20
-34.4191535811951894
 10
-26.2026374872871486
 20
-44.1167535811951552
 10
-25.2869314872871485
 20
-44.6454035811951826
 10
-19.68830648728715
 20
-34.9478035811951599
 42
-0.0066087294058223
 10
-20.6040134872871192
 20
-34.4191535811951894
  0
LWPOLYLINE
  5
A8
100
AcDbEntity
  8
AreaEngraving
 62
3
420
65280
370
-1
 48
1.0
  6
BYLAYER
100
AcDbPolyline
 90
5
 70
128
 10
20.2885915127128555
 20
-34.4191535811951894
 42
-0.0066087456461919
 10
19.3728815127128371
 20
-34.9478035811952168
 10
24.9715115127128513
 20
-44.6454035811951826
 10
25.8877315127128611
 20
-44.1167535811951552
 10
20.2885915127128555
 20
-34.4191535811951894
  0
ENDBLK
  5
A9
100
AcDbEntity
  8
0
100
AcDbBlockEnd
  0
BLOCK
  5
AA
100
AcDbEntity
  8
0
100
AcDbBlockBegin
  2
block 4
 70
0
 10
0.0
 20
0.0
 30
0.0
  3
block 4
  1

  0
LWPOLYLINE
  5
AB
100
AcDbEntity
  8
VectorEngraving
 62
256
370
-1
 48
1.0
  6
BYLAYER
100
AcDbPolyline
 90
6
 70
128
 10
-0.1447316216625225
 20
5.2278271675010188
 10
-0.1447316216625225
 20
3.4717371675010185
 42
-0.0094312964636997
 10
-0.012841621662524
 20
3.4777371675010471
 42
-0.0094282736998003
 10
0.1191083783374793
 20
3.4747371675010328
 10
0.1191083783374793
 20
5.2275271675010373
 10
-0.1447316216625225
 20
5.2278271675010188
  0
LWPOLYLINE
  5
AC
100
AcDbEntity
  8
VectorEngraving
 62
256
370
-1
 48
1.0
  6
BYLAYER
100
AcDbPolyline
 90
5
 70
128
 10
-2.5235516216625271
 20
4.5904471675010114
 10
-2.7520316216625318
 20
4.4585071675010255
 10
-1.8752716216625274
 20
2.9399371675010144
 42
-0.018850642653673
 10
-1.6458916216625212
 20
3.0702571675010262
 10
-2.5235516216625271
 20
4.5904471675010114
  0
LWPOLYLINE
  5
AD
100
AcDbEntity
  8
VectorEngraving
 62
256
370
-1
 48
1.0
  6
BYLAYER
100
AcDbPolyline
 90
5
 70
128
 10
2.4979683783374682
 20
4.5904471675010114
 10
1.6214783783374642
 20
3.0723371675010043
 42
-0.0188531870154901
 10
1.8500983783374707
 20
2.9406171675010029
 10
2.7264483783374729
 20
4.4585071675009971
 10
2.4979683783374682
 20
4.5904471675010114
  0
LWPOLYLINE
  5
AE
100
AcDbEntity
  8
VectorEngraving
 62
256
370
-1
 48
1.0
  6
BYLAYER
100
AcDbPolyline
 90
5
 70
128
 10
-4.493471621662529
 20
2.7170671675010141
 10
-4.6253716216625307
 20
2.4885871675010236
 10
-3.1052216216625297
 20
1.6109271675010319
 42
-0.0188520557002934
 10
-2.9748616216625337
 20
1.8403071675010239
 10
-4.493471621662529
 20
2.7170671675010141
  0
LWPOLYLINE
  5
AF
100
AcDbEntity
  8
VectorEngraving
 62
256
370
-1
 48
1.0
  6
BYLAYER
100
AcDbPolyline
 90
5
 70
128
 10
4.4678883783374701
 20
2.7170671675010141
 10
2.9499483783374743
 20
1.8407171675010119
 42
-0.0188549721058722
 10
3.0817183783375199
 20
1.6120971675010054
 10
4.5997783783374828
 20
2.4885871675009952
 10
4.4678883783374701
 20
2.7170671675010141
  0
LWPOLYLINE
  5
B0
100
AcDbEntity
  8
VectorEngraving
 62
256
370
-1
 48
1.0
  6
BYLAYER
100
AcDbPolyline
 90
6
 70
128
 10
-5.2628346216625275
 20
0.1097271675010205
 10
-5.2628346216625275
 20
-0.1541128324989671
 10
-3.506701621662522
 20
-0.1541128324989671
 42
-0.0094348651562602
 10
-3.5127016216625506
 20
-0.0221728324989812
 42
-0.00943201020193
 10
-3.5067016216625362
 20
0.1097271675010205
 10
-5.2628346216625275
 20
0.1097271675010205
  0
LWPOLYLINE
  5
B1
100
AcDbEntity
  8
VectorEngraving
 62
256
370
-1
 48
1.0
  6
BYLAYER
100
AcDbPolyline
 90
6
 70
128
 10
3.4844183783374589
 20
0.1097271675010205
 42
-0.009424702242363
 10
3.487418378337459
 20
-0.0221728324988959
 42
-0.0094348651562611
 10
3.4814183783374872
 20
-0.1541128324989671
 10
5.2375083783374734
 20
-0.1541128324989671
 10
5.2375083783374734
 20
0.1097271675010205
 10
3.4844183783374731
 20
0.1097271675010205
  0
LWPOLYLINE
  5
B2
100
AcDbEntity
  8
VectorEngraving
 62
256
370
-1
 48
1.0
  6
BYLAYER
100
AcDbPolyline
 90
5
 70
128
 10
3.0795883783374691
 20
-1.6552228324989784
 42
-0.0188551641205852
 10
2.9492283783374731
 20
-1.8846528324989862
 10
4.4678883783374701
 20
-2.7614128324989764
 10
4.5997783783374686
 20
-2.5329328324989859
 10
3.0795883783374691
 20
-1.6552228324989784
  0
LWPOLYLINE
  5
B3
100
AcDbEntity
  8
VectorEngraving
 62
256
370
-1
 48
1.0
  6
BYLAYER
100
AcDbPolyline
 90
5
 70
128
 10
-3.1052216216625297
 20
-1.6552728324989658
 10
-4.6253716216625307
 20
-2.5329328324989575
 10
-4.493471621662529
 20
-2.761412832498948
 10
-2.9748616216625337
 20
-1.8846528324989578
 42
-0.0188520557002923
 10
-3.1052216216625439
 20
-1.6552728324989658
  0
LWPOLYLINE
  5
B4
100
AcDbEntity
  8
VectorEngraving
 62
256
370
-1
 48
1.0
  6
BYLAYER
100
AcDbPolyline
 90
5
 70
128
 10
1.8496883783374685
 20
-2.984242832498964
 42
-0.0188520557002944
 10
1.6203083783374623
 20
-3.1146028324989601
 10
2.4979683783374682
 20
-4.6347928324989738
 10
2.7264483783374729
 20
-4.5028528324989878
 10
1.8496883783374685
 20
-2.984242832498964
  0
LWPOLYLINE
  5
B5
100
AcDbEntity
  8
VectorEngraving
 62
256
370
-1
 48
1.0
  6
BYLAYER
100
AcDbPolyline
 90
6
 70
128
 10
-1.8752716216625274
 20
-2.9842828324989767
 10
-2.7520316216625318
 20
-4.5028528324989878
 10
-2.5235516216625271
 20
-4.6347928324989738
 10
-1.6458916216625212
 20
-3.1146028324989601
 42
-0.0188506426536739
 10
-1.8752716216625274
 20
-2.9842828324989483
 10
-1.8752716216625274
 20
-2.9842828324989767
  0
ENDBLK
  5
B6
100
AcDbEntity
  8
0
100
AcDbBlockEnd
  0
BLOCK
  5
B7
100
AcDbEntity
  8
0
100
AcDbBlockBegin
  2
block 8
 70
0
 10
0.0
 20
0.0
 30
0.0
  3
block 8
  1

  0
LWPOLYLINE
  5
B8
100
AcDbEntity
  8
AreaEngraving
 62
3
420
65280
370
-1
 48
1.0
  6
BYLAYER
100
AcDbPolyline
 90
6
 70
128
 10
-0.6863584872871229
 20
53.6120564188048263
 10
-0.6863584872871229
 20
42.4142964188048239
 42
-0.0033072788336863
 10
-0.1577084872871239
 20
42.4374964188048409
 42
-0.0033077266184061
 10
0.3714615127128695
 20
42.4294964188048738
 10
0.3714615127128695
 20
53.6120564188048263
 10
-0.6863584872871229
 20
53.6120564188048263
  0
LWPOLYLINE
  5
B9
100
AcDbEntity
  8
AreaEngraving
 62
3
420
65280
370
-1
 48
1.0
  6
BYLAYER
100
AcDbPolyline
 90
5
 70
128
 10
-11.8215964872871098
 20
48.0113664188048261
 10
-12.8432394872871214
 20
47.7374864188048207
 10
-11.0154454872871099
 20
40.9151664188048159
 42
-0.0066141399769513
 10
-9.993285487287153
 20
41.1890464188048355
 10
-11.8215964872871098
 20
48.0113664188048261
  0
LWPOLYLINE
  5
BA
100
AcDbEntity
  8
AreaEngraving
 62
3
420
65280
370
-1
 48
1.0
  6
BYLAYER
100
AcDbPolyline
 90
5
 70
128
 10
11.5067015127128798
 20
48.0113664188048261
 10
9.6825215127128956
 20
41.2035164188048242
 42
-0.0066101756053528
 10
10.7041615127128296
 20
40.9301464188048527
 10
12.528341512712899
 20
47.7374864188048207
 10
11.5067015127128798
 20
48.0113664188048261
  0
LWPOLYLINE
  5
BB
100
AcDbEntity
  8
AreaEngraving
 62
3
420
65280
370
-1
 48
1.0
  6
BYLAYER
100
AcDbPolyline
 90
5
 70
128
 10
-25.2869244872871093
 20
47.0202164188048215
 10
-26.2026304872871094
 20
46.4915664188048225
 10
-20.6034894872871064
 20
36.7939664188048283
 42
-0.006608723992369
 10
-19.6877834872871063
 20
37.3226164188048415
 10
-25.2869244872871093
 20
47.0202164188048215
  0
LWPOLYLINE
  5
BC
100
AcDbEntity
  8
AreaEngraving
 62
3
420
65280
370
-1
 48
1.0
  6
BYLAYER
100
AcDbPolyline
 90
5
 70
128
 10
24.9715115127128797
 20
47.0202164188048215
 10
19.3806315127128812
 20
37.3360564188048158
 42
-0.0066087456461917
 10
20.296341512712786
 20
36.8074064188048311
 10
25.8877315127128895
 20
46.4915664188048225
 10
24.9715115127128797
 20
47.0202164188048215
  0
LWPOLYLINE
  5
BD
100
AcDbEntity
  8
AreaEngraving
 62
3
420
65280
370
-1
 48
1.0
  6
BYLAYER
100
AcDbPolyline
 90
5
 70
128
 10
-33.0456244872871139
 20
36.0735964188048257
 10
-33.7938984872870947
 20
35.3258364188048262
 10
-28.7993714872870896
 20
30.3313064188048287
 42
-0.0066118880942146
 10
-28.0510974872871373
 20
31.079066418804814
 10
-33.0456244872871139
 20
36.0735964188048257
  0
LWPOLYLINE
  5
BE
100
AcDbEntity
  8
AreaEngraving
 62
3
420
65280
370
-1
 48
1.0
  6
BYLAYER
100
AcDbPolyline
 90
5
 70
128
 10
32.7307215127128757
 20
36.0735964188048257
 10
27.7475715127128808
 20
31.0904364188048277
 42
-0.0066118262234246
 10
28.4953215127127919
 20
30.342166418804851
 10
33.4784815127128752
 20
35.3258364188048262
 10
32.7307215127128757
 20
36.0735964188048257
  0
LWPOLYLINE
  5
BF
100
AcDbEntity
  8
AreaEngraving
 62
3
420
65280
370
-1
 48
1.0
  6
BYLAYER
100
AcDbPolyline
 90
5
 70
128
 10
-44.2113514872871178
 20
28.4828464188048258
 10
-44.7405184872871189
 20
27.5666264188048302
 10
-35.0429204872871196
 20
21.9679964188048302
 42
-0.0066131255020083
 10
-34.5137524872871495
 20
22.8842164188048258
 10
-44.2113514872871178
 20
28.4828464188048258
  0
LWPOLYLINE
  5
C0
100
AcDbEntity
  8
AreaEngraving
 62
3
420
65280
370
-1
 48
1.0
  6
BYLAYER
100
AcDbPolyline
 90
5
 70
128
 10
43.896451512712872
 20
28.4828464188048258
 10
34.2122915127128806
 20
22.8919764188048163
 42
-0.0066115608445713
 10
34.740941512712908
 20
21.9757464188048743
 10
44.4251015127128994
 20
27.5666264188048018
 10
43.896451512712872
 20
28.4828464188048258
  0
LWPOLYLINE
  5
C1
100
AcDbEntity
  8
AreaEngraving
 62
3
420
65280
370
-1
 48
1.0
  6
BYLAYER
100
AcDbPolyline
 90
5
 70
128
 10
-45.4577974872871096
 20
15.1229364188048407
 10
-45.7316824872871166
 20
14.10129641880485
 10
-38.9093574872871386
 20
12.2729864188048623
 42
-0.006614144830355
 10
-38.6354744872871834
 20
13.2951464188047908
 10
-45.4577974872871096
 20
15.1229364188048407
  0
LWPOLYLINE
  5
C2
100
AcDbEntity
  8
AreaEngraving
 62
3
420
65280
370
-1
 48
1.0
  6
BYLAYER
100
AcDbPolyline
 90
5
 70
128
 10
45.1428915127128789
 20
15.1229364188048407
 10
38.3355515127128683
 20
13.2987564188048282
 42
-0.006611016540262
 10
38.6094415127129196
 20
12.2771164188047806
 10
45.4162515127128472
 20
14.10129641880485
 10
45.1428915127128789
 20
15.1229364188048407
  0
LWPOLYLINE
  5
C3
100
AcDbEntity
  8
AreaEngraving
 62
3
420
65280
370
-1
 48
1.0
  6
BYLAYER
100
AcDbPolyline
 90
6
 70
128
 10
-51.3318474872871207
 20
2.9660564188048397
 10
-51.3318474872871207
 20
1.9087564188048418
 10
-40.1340814872871192
 20
1.9087564188048418
 42
-0.003307292549862
 10
-40.1573314872871094
 20
2.4374064188048123
 42
-0.003307292549864
 10
-40.1340814872871192
 20
2.9660564188046692
 10
-51.3318474872871207
 20
2.9660564188048397
  0
LWPOLYLINE
  5
C4
100
AcDbEntity
  8
AreaEngraving
 62
3
420
65280
370
-1
 48
1.0
  6
BYLAYER
100
AcDbPolyline
 90
6
 70
128
 10
39.834681512712848
 20
2.9660564188047829
 42
-0.003304476883546
 10
39.8426815127128862
 20
2.4374064188052103
 42
-0.0033072788336863
 10
39.8194815127129118
 20
1.9087564188046713
 10
51.0172515127128463
 20
1.9087564188048418
 10
51.0172515127128463
 20
2.9660564188048397
 10
39.8346815127129048
 20
2.9660564188048397
  0
LWPOLYLINE
  5
C5
100
AcDbEntity
  8
AreaEngraving
 62
3
420
65280
370
-1
 48
1.0
  6
BYLAYER
100
AcDbPolyline
 90
6
 70
128
 10
-38.9093484872871045
 20
-7.3981735811951808
 10
-45.7316724872871134
 20
-9.2264835811951684
 10
-45.4577874872871348
 20
-10.2481235811951592
 10
-38.6354654872871208
 20
-8.4203235811951345
 42
-0.0066140844520288
 10
-38.9093484872871045
 20
-7.3981735811951808
 10
-38.9093484872871045
 20
-7.3981735811951808
  0
LWPOLYLINE
  5
C6
100
AcDbEntity
  8
AreaEngraving
 62
3
420
65280
370
-1
 48
1.0
  6
BYLAYER
100
AcDbPolyline
 90
5
 70
128
 10
38.5944515127128511
 20
-7.3986835811951437
 42
-0.0066110165402621
 10
38.3205615127128567
 20
-8.4203235811951913
 10
45.1428915127128789
 20
-10.2481235811951592
 10
45.4162515127128472
 20
-9.2264835811951684
 10
38.594451512712908
 20
-7.3986835811951437
  0
LWPOLYLINE
  5
C7
100
AcDbEntity
  8
AreaEngraving
 62
3
420
65280
370
-1
 48
1.0
  6
BYLAYER
100
AcDbPolyline
 90
5
 70
128
 10
-35.0429204872871196
 20
-17.0931835811951487
 10
-44.7405184872871189
 20
-22.6918135811951629
 10
-44.2113514872871178
 20
-23.6080335811951727
 10
-34.5137524872871211
 20
-18.0094035811951585
 42
-0.0066131255020083
 10
-35.0429204872871196
 20
-17.0931835811951487
  0
LWPOLYLINE
  5
C8
100
AcDbEntity
  8
AreaEngraving
 62
3
420
65280
370
-1
 48
1.0
  6
BYLAYER
100
AcDbPolyline
 90
5
 70
128
 10
34.7280215127128713
 20
-17.0931835811950918
 42
-0.0066131317545044
 10
34.1988515127128494
 20
-18.0094035811951585
 10
43.896451512712872
 20
-23.6080335811951727
 10
44.4251015127128994
 20
-22.6918135811951629
 10
34.7280215127128713
 20
-17.0931835811951487
  0
LWPOLYLINE
  5
C9
100
AcDbEntity
  8
AreaEngraving
 62
3
420
65280
370
-1
 48
1.0
  6
BYLAYER
100
AcDbPolyline
 90
5
 70
128
 10
-28.799371487287118
 20
-25.4564935811951614
 10
-33.7938994872871206
 20
-30.4510235811951588
 10
-33.0456274872871063
 20
-31.1987835811951868
 10
-28.0510984872871063
 20
-26.2042535811951893
 42
-0.0066118836727005
 10
-28.7993714872870896
 20
-25.4564935811951614
  0
LWPOLYLINE
  5
CA
100
AcDbEntity
  8
AreaEngraving
 62
3
420
65280
370
-1
 48
1.0
  6
BYLAYER
100
AcDbPolyline
 90
5
 70
128
 10
28.4844715127128154
 20
-25.4564935811951614
 42
-0.0066118704081765
 10
27.7362015127128529
 20
-26.2042535811951325
 10
32.7307215127128757
 20
-31.1987835811951868
 10
33.4784815127128752
 20
-30.4510235811951588
 10
28.4844715127128723
 20
-25.4564935811951614
  0
LWPOLYLINE
  5
CB
100
AcDbEntity
  8
AreaEngraving
 62
3
420
65280
370
-1
 48
1.0
  6
BYLAYER
100
AcDbPolyline
 90
5
 70
128
 10
-20.6040134872871192
 20
-31.9191535811951894
 10
-26.2026374872871202
 20
-41.6167535811951552
 10
-25.28693148728712
 20
-42.1454035811951826
 10
-19.6883064872871216
 20
-32.4478035811951599
 42
-0.0066087294058223
 10
-20.6040134872870908
 20
-31.9191535811951894
  0
LWPOLYLINE
  5
CC
100
AcDbEntity
  8
AreaEngraving
 62
3
420
65280
370
-1
 48
1.0
  6
BYLAYER
100
AcDbPolyline
 90
5
 70
128
 10
20.288591512712884
 20
-31.9191535811951894
 42
-0.0066087456461919
 10
19.3728815127128655
 20
-32.4478035811952168
 10
24.9715115127128797
 20
-42.1454035811951826
 10
25.8877315127128895
 20
-41.6167535811951552
 10
20.288591512712884
 20
-31.9191535811951894
  0
ENDBLK
  5
CD
100
AcDbEntity
  8
0
100
AcDbBlockEnd
  0
BLOCK
  5
CE
100
AcDbEntity
  8
0
100
AcDbBlockBegin
  2
block 1
 70
0
 10
0.0
 20
0.0
 30
0.0
  3
block 1
  1

  0
ENDBLK
  5
CF
100
AcDbEntity
  8
0
100
AcDbBlockEnd
  0
BLOCK
  5
D0
100
AcDbEntity
  8
0
100
AcDbBlockBegin
  2
block 3
 70
0
 10
0.0
 20
0.0
 30
0.0
  3
block 3
  1

  0
ENDBLK
  5
D1
100
AcDbEntity
  8
0
100
AcDbBlockEnd
  0
ENDSEC
  0
SECTION
  2
ENTITIES
  0
LWPOLYLINE
  5
D2
100
AcDbEntity
  8
VectorEngraving
 62
5
420
255
370
-1
 48
1.0
  6
BYLAYER
100
AcDbPolyline
 90
20
 70
128
 10
11.0276014564999976
 20
9.8055049324999999
 10
11.0276014564999976
 20
9.3861113745000004
 10
10.5268446304999976
 20
9.3861113745000004
 10
10.5268446304999976
 20
8.5472725039999986
 10
11.0276014564999976
 20
8.5472725039999986
 10
11.0276014564999976
 20
6.0634150225000001
 10
10.5268446304999976
 20
6.0634150225000001
 10
10.5268446304999976
 20
5.2246280125000002
 10
11.0276014564999976
 20
5.2246280125000002
 10
11.0276014564999976
 20
4.8060106925000001
 10
11.0276014564999976
 20
2.7944950674999998
 10
13.3646219874999979
 20
2.7944950674999998
 10
13.3646219874999979
 20
4.8060106925000001
 10
13.9083895324999958
 20
4.8060106925000001
 10
14.6405037074999953
 20
2.7944950674999998
 10
16.9775243974999981
 20
2.7944950674999998
 10
15.9622431474999971
 20
5.5840342625000003
 42
0.1923579134144613
 10
16.6520193324999966
 20
7.3057578655002393
 42
0.4142131276425501
 10
14.1522724775669815
 20
9.8055049324999999
 10
11.0276014564999976
 20
9.8055049324999999
  0
LWPOLYLINE
  5
D3
100
AcDbEntity
  8
VectorEngraving
 62
5
420
255
370
-1
 48
1.0
  6
BYLAYER
100
AcDbPolyline
 90
6
 70
128
 10
13.3646219874999979
 20
8.1282930085000018
 10
13.9426532374999965
 20
8.1282930085000018
 42
-0.4142108826965076
 10
14.7651366524999972
 20
7.3057578654997135
 42
-0.4141924816972828
 10
13.9426532374999965
 20
6.4832743975000007
 10
13.3646219874999979
 20
6.4832743974999998
 10
13.3646219874999979
 20
8.1282930085000018
  0
LWPOLYLINE
  5
D4
100
AcDbEntity
  8
VectorEngraving
 62
5
420
255
370
-1
 48
1.0
  6
BYLAYER
100
AcDbPolyline
 90
5
 70
128
 10
17.0370974574999963
 20
9.8055049324999999
 10
19.5889131024999976
 20
2.7944950674999998
 10
21.9258818524999981
 20
2.7944950674999998
 10
19.3741181474999991
 20
9.8055049324999999
 10
17.0370974574999963
 20
9.8055049324999999
  0
LWPOLYLINE
  5
D5
100
AcDbEntity
  8
VectorEngraving
 62
5
420
255
370
-1
 48
1.0
  6
BYLAYER
100
AcDbPolyline
 90
8
 70
128
 10
22.1406765424999961
 20
9.8055049324999999
 10
24.6924921874999939
 20
2.7944950674999998
 10
27.0295126124999996
 20
2.7944950674999998
 10
29.5813279925000003
 20
9.8055049324999999
 10
27.2443075675000017
 20
9.8055049324999999
 10
25.8609765624999994
 20
6.0049287275000003
 10
24.4776972324999988
 20
9.8055049324999999
 10
22.1406765424999961
 20
9.8055049324999999
  0
LINE
  5
D6
100
AcDbEntity
  8
VectorEngraving
 62
5
420
255
370
-1
 48
1.0
  6
BYLAYER
100
AcDbLine
 10
20.7573974774999996
 20
6.0049287275000012
 30
0.0
 11
22.1406765424999961
 21
9.8055049324999999
 31
0.0
  0
LINE
  5
D7
100
AcDbEntity
  8
VectorEngraving
 62
5
420
255
370
-1
 48
1.0
  6
BYLAYER
100
AcDbLine
 10
23.3091996787320568
 20
6.5950350650328815
 30
0.0
 11
21.9258818546243042
 21
2.7944950653934648
 31
0.0
  0
LINE
  5
D8
100
AcDbEntity
  8
Cuts
 62
1
420
16711680
370
-1
 48
1.0
  6
BYLAYER
100
AcDbLine
 10
0.0
 20
0.0
 30
0.0
 11
40.2999999999999972
 21
0.0
 31
0.0
  0
LINE
  5
D9
100
AcDbEntity
  8
Cuts
 62
1
420
16711680
370
-1
 48
1.0
  6
BYLAYER
100
AcDbLine
 10
40.2999999999999972
 20
0.0
 30
0.0
 11
40.2999999999999972
 21
128.5
 31
0.0
  0
LINE
  5
DA
100
AcDbEntity
  8
Cuts
 62
1
420
16711680
370
-1
 48
1.0
  6
BYLAYER
100
AcDbLine
 10
40.2999999999999972
 20
128.5
 30
0.0
 11
0.0
 21
128.5
 31
0.0
  0
LINE
  5
DB
100
AcDbEntity
  8
Cuts
 62
1
420
16711680
370
-1
 48
1.0
  6
BYLAYER
100
AcDbLine
 10
0.0
 20
128.5
 30
0.0
 11
0.0
 21
0.0
 31
0.0
  0
DIMENSION
  5
DC
100
AcDbEntity
  8
UserDrawings
 62
256
370
-1
 48
1.0
  6
BYLAYER
100
AcDbDimension
 10
-10.0
 20
0.0
 30
0.0
 11
-11.875
 21
64.25
 31
0.0
 70
0
 71
8
 72
2
 74
0
 75
0
 41
1.0
 42
0.0
  1

  3
Standard
100
AcDbAlignedDimension
 13
-0.0
 23
-0.0
 33
0.0
 14
0.0
 24
128.5
 34
0.0
 50
90.0
100
AcDbRotatedDimension
1001
ACAD
1000
DSTYLE
1002
{
1070
144
1040
1.0
1070
40
1040
1.0
1002
}
  0
DIMENSION
  5
DD
100
AcDbEntity
  8
UserDrawings
 62
256
370
-1
 48
1.0
  6
BYLAYER
100
AcDbDimension
 10
0.0
 20
136.7913298366080426
 30
0.0
 11
20.1499999999999986
 21
138.6663298366080426
 31
0.0
 70
0
 71
8
 72
2
 74
0
 75
0
 41
1.0
 42
0.0
  1

  3
Standard
100
AcDbAlignedDimension
 13
0.0
 23
128.5
 33
0.0
 14
40.2999999999999972
 24
128.5
 34
0.0
 50
0.0
100
AcDbRotatedDimension
1001
ACAD
1000
DSTYLE
1002
{
1070
144
1040
1.0
1070
40
1040
1.0
1002
}
  0
LINE
  5
DE
100
AcDbEntity
  8
Cuts
 62
1
420
16711680
370
-1
 48
1.0
  6
BYLAYER
100
AcDbLine
 10
6.5000000000000107
 20
127.1000000000000369
 30
0.0
 11
8.5000000000000107
 21
127.1000000000000369
 31
0.0
  0
LINE
  5
DF
100
AcDbEntity
  8
Cuts
 62
1
420
16711680
370
-1
 48
1.0
  6
BYLAYER
100
AcDbLine
 10
31.8000000000000078
 20
127.1000000000000512
 30
0.0
 11
33.8000000000000114
 21
127.1000000000000512
 31
0.0
  0
LINE
  5
E0
100
AcDbEntity
  8
Cuts
 62
1
420
16711680
370
-1
 48
1.0
  6
BYLAYER
100
AcDbLine
 10
6.5000000000000107
 20
4.6000000000000227
 30
0.0
 11
8.5000000000000107
 21
4.6000000000000227
 31
0.0
  0
LINE
  5
E1
100
AcDbEntity
  8
Cuts
 62
1
420
16711680
370
-1
 48
1.0
  6
BYLAYER
100
AcDbLine
 10
31.8000000000000078
 20
4.6000000000000227
 30
0.0
 11
33.8000000000000114
 21
4.6000000000000227
 31
0.0
  0
LINE
  5
E2
100
AcDbEntity
  8
Cuts
 62
1
420
16711680
370
-1
 48
1.0
  6
BYLAYER
100
AcDbLine
 10
6.5000000000000107
 20
123.9000000000000341
 30
0.0
 11
8.5000000000000107
 21
123.9000000000000341
 31
0.0
  0
LINE
  5
E3
100
AcDbEntity
  8
Cuts
 62
1
420
16711680
370
-1
 48
1.0
  6
BYLAYER
100
AcDbLine
 10
31.8000000000000078
 20
123.9000000000000483
 30
0.0
 11
33.8000000000000114
 21
123.9000000000000483
 31
0.0
  0
LINE
  5
E4
100
AcDbEntity
  8
Cuts
 62
1
420
16711680
370
-1
 48
1.0
  6
BYLAYER
100
AcDbLine
 10
6.5000000000000107
 20
1.4000000000000203
 30
0.0
 11
8.5000000000000107
 21
1.4000000000000203
 31
0.0
  0
LINE
  5
E5
100
AcDbEntity
  8
Cuts
 62
1
420
16711680
370
-1
 48
1.0
  6
BYLAYER
100
AcDbLine
 10
31.8000000000000078
 20
1.4000000000000208
 30
0.0
 11
33.8000000000000114
 21
1.4000000000000208
 31
0.0
  0
ARC
  5
E6
100
AcDbEntity
  8
Cuts
 62
1
420
16711680
370
-1
 48
1.0
  6
BYLAYER
100
AcDbCircle
 10
8.5000000000000107
 20
125.5000000000000426
 30
0.0
 40
1.6000000000000085
100
AcDbArc
 50
270.0
 51
90.0
  0
ARC
  5
E7
100
AcDbEntity
  8
Cuts
 62
1
420
16711680
370
-1
 48
1.0
  6
BYLAYER
100
AcDbCircle
 10
33.8000000000000114
 20
125.5000000000000568
 30
0.0
 40
1.6000000000000085
100
AcDbArc
 50
270.0
 51
90.0
  0
ARC
  5
E8
100
AcDbEntity
  8
Cuts
 62
1
420
16711680
370
-1
 48
1.0
  6
BYLAYER
100
AcDbCircle
 10
8.5000000000000107
 20
3.0000000000000289
 30
0.0
 40
1.6000000000000085
100
AcDbArc
 50
270.0
 51
90.0
  0
ARC
  5
E9
100
AcDbEntity
  8
Cuts
 62
1
420
16711680
370
-1
 48
1.0
  6
BYLAYER
100
AcDbCircle
 10
33.8000000000000114
 20
3.0000000000000293
 30
0.0
 40
1.6000000000000085
100
AcDbArc
 50
270.0
 51
90.0
  0
ARC
  5
EA
100
AcDbEntity
  8
Cuts
 62
1
420
16711680
370
-1
 48
1.0
  6
BYLAYER
100
AcDbCircle
 10
6.5000000000000107
 20
125.5000000000000426
 30
0.0
 40
1.6000000000000085
100
AcDbArc
 50
90.0
 51
270.0
  0
ARC
  5
EB
100
AcDbEntity
  8
Cuts
 62
1
420
16711680
370
-1
 48
1.0
  6
BYLAYER
100
AcDbCircle
 10
31.8000000000000078
 20
125.5000000000000568
 30
0.0
 40
1.6000000000000085
100
AcDbArc
 50
90.0
 51
270.0
  0
ARC
  5
EC
100
AcDbEntity
  8
Cuts
 62
1
420
16711680
370
-1
 48
1.0
  6
BYLAYER
100
AcDbCircle
 10
6.5000000000000107
 20
3.0000000000000289
 30
0.0
 40
1.6000000000000085
100
AcDbArc
 50
90.0
 51
270.0
  0
ARC
  5
ED
100
AcDbEntity
  8
Cuts
 62
1
420
16711680
370
-1
 48
1.0
  6
BYLAYER
100
AcDbCircle
 10
31.8000000000000078
 20
3.0000000000000293
 30
0.0
 40
1.6000000000000085
100
AcDbArc
 50
90.0
 51
270.0
  0
CIRCLE
  5
EE
100
AcDbEntity
  8
Cuts
 62
1
420
16711680
370
-1
 48
1.0
  6
BYLAYER
100
AcDbCircle
 10
6.1500000000000004
 20
23.0
 30
0.0
 40
3.2000000000000002
  0
CIRCLE
  5
EF
100
AcDbEntity
  8
Cuts
 62
1
420
16711680
370
-1
 48
1.0
  6
BYLAYER
100
AcDbCircle
 10
34.1499999999999986
 20
23.0
 30
0.0
 40
3.2000000000000002
  0
CIRCLE
  5
F0
100
AcDbEntity
  8
Cuts
 62
1
420
16711680
370
-1
 48
1.0
  6
BYLAYER
100
AcDbCircle
 10
30.1499999999999986
 20
105.0
 30
0.0
 40
3.2000000000000002
  0
CIRCLE
  5
F1
100
AcDbEntity
  8
Cuts
 62
1
420
16711680
370
-1
 48
1.0
  6
BYLAYER
100
AcDbCircle
 10
30.1499999999999986
 20
90.0
 30
0.0
 40
3.2000000000000002
  0
CIRCLE
  5
F2
100
AcDbEntity
  8
Cuts
 62
1
420
16711680
370
-1
 48
1.0
  6
BYLAYER
100
AcDbCircle
 10
10.1500000000000004
 20
90.0
 30
0.0
 40
3.2000000000000002
  0
CIRCLE
  5
F3
100
AcDbEntity
  8
Cuts
 62
1
420
16711680
370
-1
 48
1.0
  6
BYLAYER
100
AcDbCircle
 10
10.1500000000000004
 20
105.0
 30
0.0
 40
3.2000000000000002
  0
INSERT
  5
F4
100
AcDbEntity
  8
VectorEngraving
 62
256
370
-1
 48
1.0
  6
BYLAYER
100
AcDbBlockReference
  2
block 10
 10
10.1500000000000004
 20
90.0
 30
0.0
  0
INSERT
  5
F5
100
AcDbEntity
  8
VectorEngraving
 62
256
370
-1
 48
1.0
  6
BYLAYER
100
AcDbBlockReference
  2
block 10
 10
10.1500000000000004
 20
105.0
 30
0.0
  0
LWPOLYLINE
  5
F6
100
AcDbEntity
  8
VectorEngraving
 62
256
370
-1
 48
1.0
  6
BYLAYER
100
AcDbPolyline
 90
268
 70
129
 10
2.7915589282368352
 20
118.025857223159079
 10
2.7915589282368352
 20
122.0003747423646274
 10
4.048444819186809
 20
122.0003747423646274
 10
4.0541185727475924
 20
122.0003698762490245
 10
4.0597804555022714
 20
122.0003552779022016
 10
4.0654304674508435
 20
122.0003309473242012
 10
4.0710686085933103
 20
122.0002968845149525
 10
4.0766948789296711
 20
122.0002530894745121
 10
4.0823092784599257
 20
122.0001995622028375
 10
4.0879118071840752
 20
122.0001363026999712
 10
4.0935024651021168
 20
122.0000633109658992
 10
4.0990812522140541
 20
121.9999805870006213
 10
4.1046481685198852
 20
121.9998881308041234
 10
4.1102032140196085
 20
121.9997859423764055
 10
4.1157463887132284
 20
121.999674021717496
 10
4.1212776926007413
 20
121.9995523688273664
 10
4.1267971256821481
 20
121.9994209837060168
 10
4.1323046879574488
 20
121.9992798663534899
 10
4.1378003794266434
 20
121.9991290167697287
 10
4.1432842000897319
 20
121.9989684349547616
 10
4.148756149946716
 20
121.9987981209085603
 10
4.1542162289975932
 20
121.9986180746311959
 10
4.1596644372423643
 20
121.998428296122583
 10
4.1651007746810293
 20
121.9982287853827785
 10
4.1705252413135883
 20
121.9980195424117682
 10
4.1759378371400411
 20
121.9978005672095378
 10
4.1813385621603887
 20
121.9975718597761016
 10
4.1867274163746302
 20
121.9973334201114454
 10
4.1921043997827656
 20
121.9970852482155692
 10
4.1974695123847949
 20
121.9968273440885298
 10
4.202822754180719
 20
121.9965597077302419
 10
4.2081641251705371
 20
121.9962823391407483
 10
4.2134936253542481
 20
121.9959952383200346
 10
4.2188112547318539
 20
121.9956984052681292
 10
4.2241170133033528
 20
121.9953918399850181
 10
4.2294109010687473
 20
121.995075542470687
 10
4.2346929180280339
 20
121.99474951272515
 10
4.2399630641812163
 20
121.994413750748393
 10
4.2452213395282925
 20
121.994068256540416
 10
4.2504677440692618
 20
121.9937130301012473
 10
4.2557022778041267
 20
121.9933480714308729
 10
4.2609249407328837
 20
121.9929733805292926
 10
4.2661357328555356
 20
121.9925889573964923
 10
4.2713346541720822
 20
121.992194802032472
 10
4.2765217046825219
 20
121.9917909144372459
 10
4.2816968843868564
 20
121.9913772946107997
 10
4.2868601932850838
 20
121.9909539425531761
 10
4.2920116313772061
 20
121.9905208582643326
 10
4.2971511986632223
 20
121.9900780417442547
 10
4.3022788951431332
 20
121.9896254929929853
 10
4.3073947208169372
 20
121.9891632120104958
 10
4.3124986756846351
 20
121.9886911987968006
 10
4.3175907597462277
 20
121.9882094533518853
 10
4.3226709730017152
 20
121.9877179756757783
 10
4.3277393154510948
 20
121.9872167657684656
 10
4.3327957870943692
 20
121.9867058236299187
 10
4.3378403879315384
 20
121.9861851492601801
 10
4.3428731179626006
 20
121.9856547426592215
 10
4.3478939771875567
 20
121.9851146038270429
 10
4.3529029656064075
 20
121.9845647327636868
 10
4.3579000832191532
 20
121.9840051294690966
 10
4.3628853300257919
 20
121.9834357939433005
 10
4.3678587060263236
 20
121.9828567261862844
 10
4.3728202112207519
 20
121.9822679261980767
 10
4.3777698456090715
 20
121.9816693939786489
 10
4.3827076091912867
 20
121.9810611295280296
 10
4.3876335019673967
 20
121.980443132846176
 10
4.3925475239373988
 20
121.9798154039331166
 10
4.3974496751012957
 20
121.9791779427888514
 10
4.4023399554590874
 20
121.9785307494133662
 10
4.4072183650107721
 20
121.9778738238066751
 10
4.4120849037563517
 20
121.9772071659687924
 10
4.4169395716958242
 20
121.9765307758996755
 10
4.4217823688291915
 20
121.9758446535993528
 10
4.4266132951564536
 20
121.9751487990678527
 10
4.4314323506776088
 20
121.9744432123050899
 10
4.4362395353926578
 20
121.9737278933111497
 10
4.4410348493016016
 20
121.9730028420860037
 10
4.4458182924044385
 20
121.9722680586296235
 10
4.450589864701171
 20
121.9715235429420375
 10
4.4553495661917966
 20
121.9707692950232456
 10
4.460097396876316
 20
121.9700053148732479
 10
4.4648333567547294
 20
121.9692316024920302
 10
4.4695574458270366
 20
121.9684481578796351
 10
4.4742696640932387
 20
121.9676549810359916
 10
4.4789700115533346
 20
121.9668520719611422
 10
4.4836584882073245
 20
121.9660394306551012
 10
4.4883350940552083
 20
121.965217057117826
 10
4.4929998290969859
 20
121.9643849513493734
 10
4.4976526933326575
 20
121.9635431133496866
 10
4.5022936867622239
 20
121.9626915431188081
 10
4.5069228093856841
 20
121.9618302406566954
 10
4.5115400612030383
 20
121.9609592059633769
 10
4.5161454422142864
 20
121.9600784390388526
 10
4.5207389524194292
 20
121.9591879398831225
 10
4.5253205918184651
 20
121.9582877084961865
 10
4.5298903604113949
 20
121.9573777448780305
 10
4.5344482581982195
 20
121.9564580490286687
 10
4.5389942851789371
 20
121.9555286209481011
 10
4.5435284413535495
 20
121.9545894606363134
 10
4.5480507267220567
 20
121.9536405680933058
 10
4.5525611412844569
 20
121.9526819433191349
 10
4.5570596850407519
 20
121.9517135863137156
 10
4.5615463579909399
 20
121.9507354970770905
 10
4.5660211601350227
 20
121.9497476756092453
 10
4.5704840914729994
 20
121.9487501219101944
 10
4.57493515200487
 20
121.9477428359799376
 10
4.5793743417306354
 20
121.946725817818475
 10
4.5838016606502938
 20
121.945699067425835
 10
4.5882171087638461
 20
121.9446625848019323
 10
4.5926206860712924
 20
121.9436163699468381
 10
4.5970123925726334
 20
121.942560422860538
 10
4.6013922282678692
 20
121.9414947435430179
 10
4.605760193156998
 20
121.940419331994292
 10
4.6101162872400199
 20
121.9393341882143602
 10
4.6144605105169383
 20
121.9382393122032084
 10
4.6187928629877488
 20
121.9371347039608509
 10
4.6231133446524542
 20
121.9360203634872732
 10
4.6274219555110534
 20
121.9348962907825182
 10
4.6317186955635457
 20
121.933762485846529
 10
4.6360035648099336
 20
121.9326189486793339
 10
4.6402765632502145
 20
121.931465679280933
 10
4.6445376908843903
 20
121.9303026776513263
 10
4.648786947712459
 20
121.9291299437904712
 10
4.6530243337344226
 20
121.9279474776984387
 10
4.65724984895028
 20
121.9267552793751861
 10
4.6614634933600314
 20
121.9255533488207419
 10
4.6656652669636767
 20
121.9243416860350635
 10
4.6698551697612167
 20
121.9231202910181935
 10
4.6740332017526516
 20
121.9218891637701176
 10
4.6781993629379777
 20
121.9206483042908076
 10
4.6823536533172003
 20
121.9193977125802917
 10
4.686496072890316
 20
121.91813738863857
 10
4.6906266216573256
 20
121.9168673324656567
 10
4.6947452996182291
 20
121.9155875440615091
 10
4.6988521067730273
 20
121.9142980234261699
 10
4.7029470431217195
 20
121.9129987705595966
 10
4.7070301086643047
 20
121.9116897854618173
 10
4.7111013034007847
 20
121.9103710681328465
 10
4.7151606273311586
 20
121.9090426185726557
 10
4.7192080804554273
 20
121.9077044367812732
 10
4.723243662773589
 20
121.9063565227586565
 10
4.7272673742856455
 20
121.9049988765048198
 10
4.731279214991595
 20
121.9036314980197915
 10
4.7352791848914393
 20
121.9022543873035573
 10
4.7392672839851784
 20
121.9008675443561032
 10
4.7432435122728105
 20
121.899470969177429
 10
4.7472078697543374
 20
121.8980646617675916
 10
4.7511603564297573
 20
121.8966486221264915
 10
4.7551009722990711
 20
121.8952228502541857
 10
4.7590297173622798
 20
121.8937873461507024
 10
4.7629465916193841
 20
121.8923421098159849
 10
4.7668515950703796
 20
121.8908871412500616
 10
4.7707447277152699
 20
121.8894224404529325
 10
4.774625989554055
 20
121.8879480074245834
 10
4.7784953805867332
 20
121.8864638421650284
 10
4.7823529008133061
 20
121.8849699446742534
 10
4.7861985502337729
 20
121.883466314952301
 10
4.7900323288481337
 20
121.8819529529991144
 10
4.7938542366563883
 20
121.8804298588147219
 10
4.7976642736585378
 20
121.8788970323991236
 10
4.8014624398545802
 20
121.8773544737522911
 10
4.8052487352445166
 20
121.8758021828742812
 10
4.8090231598283486
 20
121.8742401597650371
 10
4.8127857136060737
 20
121.8726684044246156
 10
4.8165363965776926
 20
121.8710869168529314
 10
4.8202752087432064
 20
121.869495697050084
 10
4.8240021501026131
 20
121.8678947450160024
 10
4.8277172206559138
 20
121.866284060750715
 10
4.8314204204031093
 20
121.8646636442542217
 10
4.8351117493441986
 20
121.8630334955265084
 10
4.8387912074791819
 20
121.8613936145676035
 10
4.84245879480806
 20
121.8597440013774644
 10
4.8461145113308319
 20
121.8580846559561337
 10
4.8497583570474969
 20
121.8564155783035687
 10
4.8533903319580558
 20
121.8547367684198406
 10
4.8570104360625104
 20
121.8530482263048782
 10
4.8606186693608571
 20
121.8513499519586958
 10
4.8642150318530986
 20
121.8496419453812933
 10
4.8677995235392348
 20
121.8479242065727135
 10
4.8713721444192641
 20
121.8461967355329136
 10
4.8749328944931882
 20
121.8444595322618795
 10
4.8784817737610062
 20
121.842712596759668
 10
4.8820187822227172
 20
121.8409559290262365
 10
4.8855439198783239
 20
121.8391895290615707
 10
4.8890571867278236
 20
121.8374133968656849
 10
4.8925585827712181
 20
121.8356275324386502
 10
4.8960481080085057
 20
121.833831935780367
 10
4.899525762439688
 20
121.8320266068908779
 10
4.9029915460647642
 20
121.8302115457701689
 10
4.9064454588837343
 20
121.828386752418254
 10
4.9098875008965983
 20
121.8265522268351475
 10
4.9133176721033571
 20
121.8247079690208068
 10
4.916735972504009
 20
121.8228539789752745
 10
4.9201424020985556
 20
121.8209902566985221
 10
4.9235369608869961
 20
121.8191168021905639
 10
4.9269196488693296
 20
121.8172336154513857
 10
4.930290466045558
 20
121.8153406964810159
 10
4.933649412415682
 20
121.8134380452794261
 10
4.9369964879796973
 20
121.8115256618466304
 10
4.9403316927376082
 20
121.8096035461826148
 10
4.9436550266894121
 20
121.8076716982873791
 10
4.9469664898351109
 20
121.8057301181609517
 10
4.9502660821747044
 20
121.8037788058033186
 10
4.953553803708191
 20
121.8018177612144655
 10
4.9568296544355714
 20
121.7998469843943923
 10
4.9600936343568458
 20
121.7978664753431275
 10
4.963345743472015
 20
121.7958762340606427
 10
4.9665859817810789
 20
121.7938762605469663
 10
4.9698143492840341
 20
121.7918665548020414
 10
4.9730308459808867
 20
121.7898471168259107
 10
4.9762354718716315
 20
121.787817946618631
 10
4.9794282269562711
 20
121.7857790441800887
 10
4.9826091112348028
 20
121.7837304095103264
 10
4.985778124707231
 20
121.7816720426093582
 10
4.9889352673735523
 20
121.7796039434772268
 10
4.9920805392337666
 20
121.7775261121138328
 10
4.9952139402878757
 20
121.7754385485192472
 10
4.9983354705358796
 20
121.77334125269347
 10
5.0014451299777773
 20
121.7712342246364727
 10
5.0045429186135681
 20
121.7691174643482555
 10
5.0076288364432546
 20
121.7669909718288181
 10
5.0107028834668341
 20
121.764854747078175
 10
5.0137650596843075
 20
121.7627087900963403
 10
5.0168153650956739
 20
121.7605531008832855
 10
5.019853799700936
 20
121.7583876794390108
 10
5.022880363500092
 20
121.7562125257635444
 10
5.0258950564931411
 20
121.7540276398568722
 10
5.0288978786800849
 20
121.7518330217189657
 10
5.0318888300609226
 20
121.7496286713498392
 10
5.0348679106356542
 20
121.7474145887495354
 10
5.0378351204042806
 20
121.7451907739180115
 10
5.0407904593668
 20
121.7429572268552675
 10
5.0437339275232143
 20
121.7407139475613178
 10
5.0466655248735224
 20
121.7384609360361765
 10
5.0495852514177244
 20
121.7361981922798009
 10
5.0524931071558203
 20
121.7339257162922195
 10
5.0553890920878111
 20
121.731643508073418
 10
5.0582732062136948
 20
121.7293515676234392
 10
5.0611454495334725
 20
121.7270498949422404
 10
5.0640058220471449
 20
121.7247384900298215
 10
5.0668543237547121
 20
121.7224173528861826
 10
5.0696909546561724
 20
121.7200864835113379
 10
5.0725157147515265
 20
121.7177458819052873
 10
5.0753286040407755
 20
121.7153955480680452
 10
5.0781296225239183
 20
121.7130354819995688
 10
5.0809187702009542
 20
121.7106656836998866
 10
5.0836960470718839
 20
121.7082861531689986
 10
5.0864614531367085
 20
121.7058968904068905
 10
5.089214988395427
 20
121.7034978954135767
 10
5.0919566528480402
 20
121.701089168189057
 10
5.0946864464945456
 20
121.6986707087333457
 10
5.0974043693349476
 20
121.696242517046386
 10
5.1001104213692425
 20
121.6938045931282204
 10
5.1028046025974305
 20
121.6913569369788775
 10
5.1054869130195142
 20
121.6888995485983287
 10
5.1081573526354909
 20
121.6864324279865173
 10
5.1108159214453615
 20
121.6839555751435284
 10
5.1134626194491268
 20
121.6814689900693338
 42
-0.2148899109718796
 10
5.4514802323402645
 20
120.8326775341952413
 42
-0.1001913794401259
 10
5.3592936106426823
 20
120.39572793704329
 42
-0.0965402896310486
 10
5.0977234401349065
 20
120.0033726812816184
 42
-0.1106023788064045
 10
4.705742926737865
 20
119.7481731309724609
 10
5.5601555180813165
 20
118.025857223159079
 10
4.8009274873524443
 20
118.025857223159079
 10
3.9974798575978987
 20
119.6784710511523286
 10
3.5185591156080172
 20
119.6784710511523286
 10
3.5185591156080172
 20
118.025857223159079
  0
LWPOLYLINE
  5
F7
100
AcDbEntity
  8
VectorEngraving
 62
256
370
-1
 48
1.0
  6
BYLAYER
100
AcDbPolyline
 90
7
 70
129
 10
3.5185591156080172
 20
120.2780588345512456
 10
4.0994097807757157
 20
120.2780588345512456
 42
0.1918312228860065
 10
4.5584691774405073
 20
120.421585160202369
 42
0.2154606779080921
 10
4.7117388045718549
 20
120.8139404159640264
 42
0.1955098707729439
 10
4.5584691774405073
 20
121.209293610642689
 42
0.2146607426727104
 10
4.0994097807757157
 20
121.3753044781712589
 10
3.5185591156080172
 20
121.3753044781712589
  0
LWPOLYLINE
  5
F8
100
AcDbEntity
  8
VectorEngraving
 62
256
370
-1
 48
1.0
  6
BYLAYER
100
AcDbPolyline
 90
13
 70
129
 10
6.2804103428892617
 20
118.025857223159079
 10
5.7572700018737102
 20
122.0003747423646274
 10
6.3823402660670769
 20
122.0003747423646274
 10
6.6506557991380912
 20
119.5060895634251494
 10
7.1610548997564152
 20
121.6878396102679432
 10
7.5432921116732228
 20
121.6878396102679432
 10
8.0536912122915467
 20
119.5120854412591314
 10
8.2642964212104175
 20
122.0003747423646274
 10
8.8511429642121016
 20
122.0003747423646274
 10
8.3347479857597886
 20
118.025857223159079
 10
7.8820592092936081
 20
118.025857223159079
 10
7.319945662357128
 20
120.4759228030728906
 10
6.7458403597526697
 20
118.025857223159079
  0
LWPOLYLINE
  5
F9
100
AcDbEntity
  8
VectorEngraving
 62
256
370
-1
 48
1.0
  6
BYLAYER
100
AcDbPolyline
 90
12
 70
129
 10
12.3969552182874256
 20
118.025857223159079
 10
12.3969552182874256
 20
122.0003747423646274
 10
14.9871744425707316
 20
122.0003747423646274
 10
14.9871744425707316
 20
121.4135281993629434
 10
13.0984729248641543
 20
121.4135281993629434
 10
13.0984729248641543
 20
120.3927299981262848
 10
14.649156829679594
 20
120.3927299981262848
 10
14.649156829679594
 20
119.799138092561364
 10
13.0984729248641543
 20
119.799138092561364
 10
13.0984729248641543
 20
118.6127037661607631
 10
14.9676878396102655
 20
118.6127037661607631
 10
14.9676878396102655
 20
118.025857223159079
  0
LWPOLYLINE
  5
FA
100
AcDbEntity
  8
VectorEngraving
 62
256
370
-1
 48
1.0
  6
BYLAYER
100
AcDbPolyline
 90
13
 70
129
 10
15.4645962151021159
 20
118.025857223159079
 10
15.4645962151021159
 20
122.0003747423646274
 10
16.0964118418587177
 20
122.0003747423646274
 10
16.8683811129848209
 20
120.1753794266441844
 10
17.6403503841109242
 20
122.0063706201986093
 10
18.2721660108675259
 20
122.0063706201986093
 10
18.2721660108675259
 20
118.025857223159079
 10
17.6463462619449132
 20
118.025857223159079
 10
17.6463462619449132
 20
120.8011991755667935
 10
17.0212759977515447
 20
119.3397039535319522
 10
16.6705171444631794
 20
119.3397039535319522
 10
16.0836706014614919
 20
120.7944538130035568
 10
16.0836706014614919
 20
118.025857223159079
  0
LWPOLYLINE
  5
FB
100
AcDbEntity
  8
VectorEngraving
 62
256
370
-1
 48
1.0
  6
BYLAYER
100
AcDbPolyline
 90
518
 70
129
 10
23.2464961588907606
 20
117.94940978077571
 42
-0.259130387911067
 10
22.1365092748735215
 20
118.4852913621884909
 10
22.1335756304381484
 20
118.4894848445258333
 10
22.1306534679770905
 20
118.4936921418282765
 10
22.1277427874903374
 20
118.4979132540958204
 10
22.1248435889778854
 20
118.502148181328451
 10
22.1219558724397416
 20
118.5063969235262107
 10
22.1190796378759131
 20
118.510659480689057
 10
22.1162148852863822
 20
118.5149358528169898
 10
22.1133616146711631
 20
118.5192260399100519
 10
22.1105198260302416
 20
118.5235300419682147
 10
22.1076895193636389
 20
118.5278478589914783
 10
22.1048706946713338
 20
118.5321794909798285
 10
22.1020633519533405
 20
118.5365249379332937
 10
22.0992674912096518
 20
118.5408841998518596
 10
22.0964831124402714
 20
118.5452572767355264
 10
22.0937102156451957
 20
118.5496441685842939
 10
22.0909488008244317
 20
118.554044875398148
 10
22.0881988679779653
 20
118.5584593971771312
 10
22.0854604171058142
 20
118.5628877339212295
 10
22.0827334482079678
 20
118.5673298856303859
 10
22.0800179612844261
 20
118.5717858523046431
 10
22.0773139563351926
 20
118.5762556339440437
 10
22.0746214333602637
 20
118.580739230548545
 10
22.0719403923596431
 20
118.5852366421181046
 10
22.0692708333333307
 20
118.5897478686527791
 10
22.066612756281323
 20
118.5942729101525828
 10
22.06396616120362
 20
118.598811766617473
 10
22.0613310481002287
 20
118.6033644380474641
 10
22.0587074169711386
 20
118.6079309244425701
 10
22.0560952678163638
 20
118.6125112258027627
 10
22.0534946006358865
 20
118.6171053421280703
 10
22.0509054154297175
 20
118.6217132734184503
 10
22.0483277121978603
 20
118.6263350196739736
 10
22.0457614909403112
 20
118.6309705808945694
 10
22.0432067516570598
 20
118.6356199570802801
 10
22.0406634943481201
 20
118.6402831482310916
 10
22.0381317190134887
 20
118.6449601543469896
 10
22.0356114256531654
 20
118.6496509754280169
 10
22.0331026142671398
 20
118.6543556114741307
 10
22.0306052848554295
 20
118.6590740624853595
 10
22.0281194374180203
 20
118.6638063284616891
 10
22.0256450719549264
 20
118.6685524094031052
 10
22.0231821884661265
 20
118.6733123053096364
 10
22.0207307869516455
 20
118.6780860161812541
 10
22.0182908674114657
 20
118.682873542018001
 10
22.0158624298455905
 20
118.6876748828198203
 10
22.0134454742540235
 20
118.6924900385867545
 10
22.0110400006367684
 20
118.6973190093187753
 10
22.0086460089938143
 20
118.7021617950159253
 10
22.0062634993251649
 20
118.7070183956781619
 10
22.0038924716308273
 20
118.7118888113054993
 10
22.0015329259107943
 20
118.7167730418979517
 10
21.9991848621650661
 20
118.7216710874554906
 10
21.9968482803936531
 20
118.7265829479781303
 10
21.9945231805965378
 20
118.7315086234658992
 10
21.9922095627737377
 20
118.7364481139187546
 10
21.9899074269252317
 20
118.7414014193366967
 10
21.9876167730510481
 20
118.7463685397197537
 10
21.9853376011511585
 20
118.7513494750679115
 10
21.9830699112255807
 20
118.7563442253811843
 10
21.9808137032743076
 20
118.7613527906595436
 10
21.9785689772973392
 20
118.7663751709030038
 10
21.976335733294686
 20
118.7714113661115789
 10
21.974113971266334
 20
118.7764613762852406
 10
21.9719036912122903
 20
118.7815252014240173
 10
21.9697048931325476
 20
118.7866028415279089
 10
21.9675175770271167
 20
118.791694296596873
 10
21.9653417428959941
 20
118.796799566630952
 10
21.9631773907391761
 20
118.8019186516301318
 10
21.9610245205566628
 20
118.8070515515944123
 10
21.9588831323484612
 20
118.8121982665237937
 10
21.9567532261145644
 20
118.8173587964182758
 10
21.9546348018549722
 20
118.8225331412778587
 10
21.9525278595696882
 20
118.8277213011025566
 10
21.9504323992587089
 20
118.8329232758923553
 10
21.9483484209220379
 20
118.8381390656472689
 10
21.946275924559675
 20
118.8433686703672407
 10
21.9442149101716169
 20
118.8486120900523417
 10
21.9421653777578669
 20
118.8538693247025435
 10
21.9401273273184216
 20
118.8591403743178319
 10
21.9381007588532881
 20
118.8644252388982494
 10
21.9360856723624558
 20
118.8697239184437677
 10
21.9340820678459316
 20
118.8750364129543726
 10
21.9320899453037157
 20
118.8803627224300641
 10
21.9301093047358044
 20
118.885702846870899
 10
21.9281401461421979
 20
118.8910567862768062
 10
21.9261824695229031
 20
118.8964245406478284
 10
21.9242362748779129
 20
118.9018061099839656
 10
21.922301562207231
 20
118.9072014942851609
 10
21.9203783315108538
 20
118.9126106935514997
 10
21.9184665827887812
 20
118.9180337077829392
 10
21.9165663160410169
 20
118.9234705369794654
 10
21.9146775312675643
 20
118.9289211811410922
 10
21.9128002284684129
 20
118.9343856402678341
 10
21.9109344076435697
 20
118.9398639143596768
 10
21.9090800687930347
 20
118.9453560034165776
 10
21.907237211916808
 20
118.9508619074386502
 10
21.9054058370148823
 20
118.956381626425781
 10
21.9035859440872684
 20
118.9619151603780267
 10
21.9017775331339521
 20
118.967462509295359
 10
21.8999806041549547
 20
118.9730236731778064
 10
21.8981951571502584
 20
118.9785986520253687
 10
21.8964211921198668
 20
118.9841874458380175
 10
21.8946587090637834
 20
118.9897900546157672
 10
21.8929077079820118
 20
118.9954064783586318
 10
21.8911681888745413
 20
119.0010367170665972
 10
21.8894401517413755
 20
119.0066807707396492
 10
21.887723596582525
 20
119.0123386393778162
 10
21.886018523397972
 20
119.0180103229810697
 10
21.8843249321877309
 20
119.0236958215494383
 10
21.8826428229517944
 20
119.0293951350829076
 10
21.8809721956901626
 20
119.0351082635814777
 10
21.8793130504028426
 20
119.0408352070451485
 10
21.8776653870898343
 20
119.0465759654739202
 10
21.8760292057511236
 20
119.0523305388678068
 10
21.8744045063867176
 20
119.05809892722678
 10
21.8727912889966234
 20
119.0638811305508682
 10
21.8711895535808338
 20
119.0696771488400429
 10
21.869599300139356
 20
119.0754869820943469
 10
21.8680205286721829
 20
119.0813106303137232
 10
21.8664532391793109
 20
119.0871480934982145
 10
21.8648974316607507
 20
119.0929993716478066
 10
21.8633531061164952
 20
119.0988644647624994
 10
21.8618202625465514
 20
119.1047433728423073
 10
21.8602989009509017
 20
119.1106360958872017
 10
21.8587890213295708
 20
119.1165426338971827
 10
21.8572906236825411
 20
119.1224629868723071
 10
21.8558037080098231
 20
119.128397154812518
 10
21.8543282743114062
 20
119.1343451377178155
 10
21.8528643225872976
 20
119.140306935588228
 10
21.8514118528375008
 20
119.1462825484237271
 10
21.849970865062005
 20
119.1522719762243412
 10
21.8485413592608175
 20
119.158275218990056
 10
21.8471233354339347
 20
119.1642922767208859
 10
21.8457167935813636
 20
119.1703231494167881
 10
21.8443217337030973
 20
119.1763678370778337
 10
21.8429381557991356
 20
119.1824263397039374
 10
21.8415660598694856
 20
119.1884986572951846
 10
21.8402054459141368
 20
119.1945847898514899
 10
21.8388563139330927
 20
119.2006847373729386
 10
21.8375186639263603
 20
119.2067984998594738
 10
21.8361924958939326
 20
119.2129260773111099
 10
21.8348778098358132
 20
119.2190674697278325
 10
21.8335746057520019
 20
119.2252226771096844
 10
21.8322828836424918
 20
119.2313916994566227
 10
21.8310026435072899
 20
119.2375745367686619
 10
21.8297338853463998
 20
119.2437711890458161
 10
21.8284766091598144
 20
119.2499816562880568
 10
21.8272308149475336
 20
119.2562059384954125
 10
21.825996502709561
 20
119.2624440356678548
 10
21.8247736724458932
 20
119.2686959478054121
 10
21.8235623241565371
 20
119.2749616749080701
 10
21.8223624578414785
 20
119.2812412169758289
 10
21.8211740735007353
 20
119.2875345740086743
 10
21.8199971711342968
 20
119.2938417460066489
 10
21.818831750742163
 20
119.3001627329697101
 10
21.8176778123243373
 20
119.3064975348978862
 10
21.8165353558808164
 20
119.3128461517911489
 10
21.8154043814116072
 20
119.3192085836495124
 10
21.8142848889166991
 20
119.3255848304729909
 10
21.8131768783960993
 20
119.3319748922615702
 10
21.8120803498498077
 20
119.3383787690152502
 10
21.8109953032778208
 20
119.344796460734031
 10
21.8099217386801421
 20
119.3512279674179126
 10
21.8088596560567716
 20
119.3576732890668808
 10
21.8078090554077022
 20
119.3641324256809781
 10
21.8067699367329446
 20
119.3706053772601763
 10
21.8057423000324917
 20
119.3770921438044468
 10
21.8047261453063506
 20
119.3835927253138607
 10
21.803721472554507
 20
119.3901071217883327
 10
21.8027282817769787
 20
119.396635333227934
 10
21.8017465729737552
 20
119.403177359632636
 10
21.8007763461448363
 20
119.4097332010024388
 10
21.7998176012902256
 20
119.4163028573373282
 10
21.7988703384099196
 20
119.4228863286373326
 10
21.7979345575039218
 20
119.4294836149024377
 10
21.7970102585722287
 20
119.4360947161326436
 10
21.7960974416148439
 20
119.4427196323279645
 10
21.7951961066317637
 20
119.4493583634883862
 10
21.7943062536229952
 20
119.4560109096139087
 10
21.7934278825885315
 20
119.4626772707045177
 10
21.7925609935283724
 20
119.4693574467602275
 10
21.7917055864425251
 20
119.4760514377810523
 10
21.7908616613309754
 20
119.4827592437669637
 10
21.7900292181937409
 20
119.4894808647180184
 10
21.7892082570308077
 20
119.4962163006341171
 10
21.7883987778421826
 20
119.5029655515153593
 10
21.7876007806278658
 20
119.509728617361688
 10
21.7868142653878536
 20
119.5165054981731458
 10
21.7860392321221497
 20
119.5232961939496619
 10
21.7852756808307539
 20
119.5301007046912929
 10
21.7845236115136629
 20
119.5369190303980531
 10
21.7837830241708836
 20
119.5437511710698857
 10
21.7830539188024019
 20
119.5505971267068333
 10
21.7823362954082356
 20
119.5574568973088816
 10
21.7816301539883703
 20
119.5643304828760307
 10
21.7809354945428097
 20
119.5712178834082806
 10
21.780252317071561
 20
119.5781190989056313
 10
21.7795806215746204
 20
119.585034129368097
 10
21.7789204080519809
 20
119.5919629747956492
 10
21.7782716765036497
 20
119.5989056351883022
 10
21.7776344269296303
 20
119.605862110546056
 10
21.7770086593299084
 20
119.6128324008689248
 10
21.7763943737045054
 20
119.6198165061569085
 10
21.7757915700533999
 20
119.6268144264099647
 10
21.7752002483766063
 20
119.6338261616281358
 10
21.7746204086741102
 20
119.6408517118114077
 10
21.7740520509459259
 20
119.6478910769597803
 10
21.7734951751920534
 20
119.654944257073268
 10
21.7729497814124855
 20
119.662011252151828
 10
21.7724158696072223
 20
119.6690920621955172
 10
21.7718934397762638
 20
119.6761866872043072
 10
21.7713824919196135
 20
119.683295127178198
 10
21.770883026037275
 20
119.6904173821171753
 10
21.7703950421292376
 20
119.6975534520212818
 10
21.7699185401955049
 20
119.7047033368904465
 10
21.7694535202360839
 20
119.7118670367247688
 10
21.7689999822509712
 20
119.7190445515241493
 10
21.7685579262401632
 20
119.7262358812886589
 10
21.7681273522036562
 20
119.7334410260182551
 10
21.7677082601414646
 20
119.7406599857129379
 10
21.7673006500535777
 20
119.7478927603727357
 10
21.7669045219399919
 20
119.7551393499976484
 10
21.7665198758007179
 20
119.7623997545876762
 10
21.7661467116357485
 20
119.7696739741427763
 10
21.7657850294450839
 20
119.7769620086629914
 10
21.765434829228731
 20
119.784263858148293
 10
21.7650961109866827
 20
119.7915795225986955
 10
21.7647688747189427
 20
119.7989090020142555
 10
21.7644531204255038
 20
119.8062522963948595
 10
21.7641488481063767
 20
119.8136094057405927
 10
21.7638560577615578
 20
119.8209803300514125
 10
21.7635747493910401
 20
119.8283650693273188
 10
21.7633049229948341
 20
119.8357636235683685
 10
21.7630465785729328
 20
119.8431759927745048
 10
21.7627997161253361
 20
119.8506021769457277
 10
21.7625643356520477
 20
119.8580421760820656
 10
21.7623404371530675
 20
119.8654959901835042
 10
21.7621280206283956
 20
119.8729636192500436
 10
21.7619270860780247
 20
119.8804450632816696
 10
21.7617376335019657
 20
119.8879403222784248
 10
21.7615596629002113
 20
119.8954493962402665
 10
21.7613931742727615
 20
119.9029722851672233
 10
21.7612381676196236
 20
119.9105089890592808
 10
21.7610946429407903
 20
119.9180595079164249
 10
21.7609626002362617
 20
119.9256238417386697
 10
21.7608420395060449
 20
119.9332019905260296
 10
21.7607329607501256
 20
119.9407939542784902
 10
21.7606353639685182
 20
119.94839973299608
 10
21.7605492491612189
 20
119.956019326678728
 10
21.7604746163282243
 20
119.963652735326491
 10
21.7604114654695415
 20
119.9712999589393689
 10
21.7603597965851563
 20
119.9789609975173335
 10
21.7603196096750864
 20
119.9866358510603987
 10
21.7602909047393211
 20
119.994324519568579
 10
21.760273681777857
 20
120.0020270030418601
 10
21.7602679407907047
 20
120.0097433014802277
 42
-0.152055200139399
 10
22.1365092748735215
 20
121.5150833801761365
 42
-0.2609893822229443
 10
23.2464961588907606
 20
122.0573355817875267
 42
-0.2598887638008053
 10
24.3471144837923887
 20
121.5150833801761365
 42
-0.1532357876440852
 10
24.7267284991568275
 20
120.0097433014802277
 10
24.7267227067066386
 20
120.0020270030418601
 10
24.7267053293560828
 20
119.994324519568579
 10
24.7266763671051599
 20
119.9866358510603987
 10
24.7266358199538558
 20
119.9789609975173335
 10
24.7265836879021847
 20
119.9712999589393689
 10
24.7265199709501466
 20
119.963652735326491
 10
24.7264446690977309
 20
119.956019326678728
 10
24.7263577823449445
 20
119.94839973299608
 10
24.7262593106917947
 20
119.9407939542784902
 10
24.7261492541382708
 20
119.9332019905260296
 10
24.7260276126843692
 20
119.9256238417386697
 10
24.7258943863300971
 20
119.9180595079164249
 10
24.7257495750754579
 20
119.9105089890592808
 10
24.7255931789204482
 20
119.9029722851672233
 10
24.7254251978650643
 20
119.8954493962402665
 10
24.7252456319093135
 20
119.8879403222784248
 10
24.7250544810531885
 20
119.8804450632816696
 10
24.7248517452966894
 20
119.8729636192500436
 10
24.7246374246398197
 20
119.8654959901835042
 10
24.7244115190825759
 20
119.8580421760820656
 10
24.7241740286249687
 20
119.8506021769457277
 10
24.7239249532669874
 20
119.8431759927745048
 10
24.723664293008639
 20
119.8357636235683685
 10
24.723392047849913
 20
119.8283650693273188
 10
24.7231082177908164
 20
119.8209803300514125
 10
24.7228128028313563
 20
119.8136094057405927
 10
24.7225058029715115
 20
119.8062522963948595
 10
24.7221872182113067
 20
119.7989090020142555
 10
24.7218570485507243
 20
119.7915795225986955
 10
24.7215152939897749
 20
119.784263858148293
 10
24.7211619545284513
 20
119.7769620086629914
 10
24.7207970301667608
 20
119.7696739741427763
 10
24.7204205209046961
 20
119.7623997545876762
 10
24.7200324267422573
 20
119.7551393499976484
 10
24.7196327476794515
 20
119.7478927603727357
 10
24.7192214837162716
 20
119.7406599857129379
 10
24.7187986348527247
 20
119.7334410260182551
 10
24.7183642010887965
 20
119.7262358812886589
 10
24.7179181824245084
 20
119.7190445515241493
 10
24.7174605788598463
 20
119.7118670367247688
 10
24.71699139039481
 20
119.7047033368904465
 10
24.7165106170293996
 20
119.6975534520212818
 10
24.7160182587636257
 20
119.6904173821171753
 10
24.7155143155974777
 20
119.683295127178198
 10
24.7149987875309591
 20
119.6761866872043072
 10
24.71447167456407
 20
119.6690920621955172
 10
24.7139329766968068
 20
119.662011252151828
 10
24.7133826939291765
 20
119.654944257073268
 10
24.7128208262611651
 20
119.6478910769597803
 10
24.7122473736927901
 20
119.6408517118114077
 10
24.7116623362240446
 20
119.6338261616281358
 10
24.7110657138549286
 20
119.6268144264099647
 10
24.7104575065854348
 20
119.6198165061569085
 10
24.7098377144155776
 20
119.6128324008689248
 10
24.7092063373453428
 20
119.605862110546056
 10
24.7085633753747409
 20
119.5989056351883022
 10
24.7079088285037649
 20
119.5919629747956492
 10
24.7072426967324184
 20
119.585034129368097
 10
24.7065649800607048
 20
119.5781190989056313
 10
24.7058756784886171
 20
119.5712178834082806
 10
24.7051747920161553
 20
119.5643304828760307
 10
24.7044623206433265
 20
119.5574568973088816
 10
24.7037382643701235
 20
119.5505971267068333
 10
24.7030026231965536
 20
119.5437511710698857
 10
24.7022553971226024
 20
119.5369190303980531
 10
24.7014965861482914
 20
119.5301007046912929
 10
24.7007261902736026
 20
119.5232961939496619
 10
24.6999442094985433
 20
119.5165054981731458
 10
24.699150643823117
 20
119.509728617361688
 10
24.6983454932473165
 20
119.5029655515153593
 10
24.6975287577711455
 20
119.4962163006341171
 10
24.6967004373946004
 20
119.4894808647180184
 10
24.6958605321176847
 20
119.4827592437669637
 10
24.695009041940402
 20
119.4760514377810523
 10
24.6941459668627452
 20
119.4693574467602275
 10
24.6932713068847178
 20
119.4626772707045177
 10
24.6923850620063199
 20
119.4560109096139087
 10
24.6914872322275514
 20
119.4493583634883862
 10
24.6905778175484087
 20
119.4427196323279645
 10
24.6896568179688956
 20
119.4360947161326436
 10
24.6887242334890082
 20
119.4294836149024377
 10
24.6877800641087539
 20
119.4228863286373326
 10
24.686824309828129
 20
119.4163028573373282
 10
24.68585697064713
 20
119.4097332010024388
 10
24.684878046565764
 20
119.403177359632636
 10
24.6838875375840239
 20
119.396635333227934
 10
24.6828854437019061
 20
119.3901071217883327
 10
24.6818717649194284
 20
119.3835927253138607
 10
24.680846501236573
 20
119.3770921438044468
 10
24.679809652653347
 20
119.3706053772601763
 10
24.6787612191697541
 20
119.3641324256809781
 10
24.677701200785787
 20
119.3576732890668808
 10
24.6766295975014494
 20
119.3512279674179126
 10
24.6755464093167376
 20
119.344796460734031
 10
24.6744516362316588
 20
119.3383787690152502
 10
24.6733452782462024
 20
119.3319748922615702
 10
24.6722273353603789
 20
119.3255848304729909
 10
24.6710978075741849
 20
119.3192085836495124
 10
24.6699566948876203
 20
119.3128461517911489
 10
24.6688039973006852
 20
119.3064975348978862
 10
24.6676397148133724
 20
119.3001627329697101
 10
24.6664638474256961
 20
119.2938417460066489
 10
24.6652763951376457
 20
119.2875345740086743
 10
24.6640773579492176
 20
119.2812412169758289
 10
24.6628667358604261
 20
119.2749616749080701
 10
24.661644528871264
 20
119.2686959478054121
 10
24.6604107369817278
 20
119.2624440356678548
 10
24.659165360191821
 20
119.2562059384954125
 10
24.6579083985015401
 20
119.2499816562880568
 10
24.6566398519108887
 20
119.2437711890458161
 10
24.6553597204198702
 20
119.2375745367686619
 10
24.6540680040284776
 20
119.2313916994566227
 10
24.6527647027367109
 20
119.2252226771096844
 10
24.6514498165445808
 20
119.2190674697278325
 10
24.650123345452073
 20
119.2129260773111099
 10
24.6487852894591981
 20
119.2067984998594738
 10
24.6474356485659492
 20
119.2006847373729386
 10
24.6460744227723296
 20
119.1945847898514899
 10
24.644701612078336
 20
119.1884986572951846
 10
24.6433172164839789
 20
119.1824263397039374
 10
24.6419212359892441
 20
119.1763678370778337
 10
24.6405136705941388
 20
119.1703231494167881
 10
24.6390945202986629
 20
119.1642922767208859
 10
24.6376637851028164
 20
119.158275218990056
 10
24.6362214650065994
 20
119.1522719762243412
 10
24.6347675600100118
 20
119.1462825484237271
 10
24.6333020701130501
 20
119.140306935588228
 10
24.6318249953157178
 20
119.1343451377178155
 10
24.6303363356180149
 20
119.128397154812518
 10
24.628836091019938
 20
119.1224629868723071
 10
24.6273242615214976
 20
119.1165426338971827
 10
24.6258008471226759
 20
119.1106360958872017
 10
24.6242658478234944
 20
119.1047433728423073
 10
24.6227192636239316
 20
119.0988644647624994
 10
24.6211610945239983
 20
119.0929993716478066
 10
24.6195913405236979
 20
119.0871480934982145
 10
24.618010001623027
 20
119.0813106303137232
 10
24.616417077821982
 20
119.0754869820943469
 10
24.6148125691205664
 20
119.0696771488400429
 10
24.6131964755187838
 20
119.0638811305508682
 10
24.6115687970166235
 20
119.05809892722678
 10
24.6099295336140926
 20
119.0523305388678068
 10
24.6082786853111948
 20
119.0465759654739202
 10
24.6066162521079228
 20
119.0408352070451485
 10
24.6049422340042803
 20
119.0351082635814777
 10
24.6032566310002672
 20
119.0293951350829076
 10
24.6015594430958799
 20
119.0236958215494383
 10
24.5998506702911257
 20
119.0180103229810697
 10
24.5981303125859974
 20
119.0123386393778162
 10
24.5963983699804984
 20
119.0066807707396492
 10
24.5946548424746254
 20
119.0010367170665972
 10
24.5928997300683854
 20
118.9954064783586318
 10
24.5911330327617748
 20
118.9897900546157672
 10
24.58935475055479
 20
118.9841874458380175
 10
24.5875648834474418
 20
118.9785986520253687
 10
24.585763431439716
 20
118.9730236731778064
 10
24.5839503945316125
 20
118.967462509295359
 10
24.5821257727231455
 20
118.9619151603780267
 10
24.5802895660143079
 20
118.956381626425781
 10
24.5784417744050963
 20
118.9508619074386502
 10
24.5765823978955069
 20
118.9453560034165776
 10
24.5747114364855612
 20
118.9398639143596768
 10
24.5728288901752308
 20
118.9343856402678341
 10
24.5709347589645368
 20
118.9289211811410922
 10
24.5690290428534723
 20
118.9234705369794654
 10
24.5671117418420302
 20
118.9180337077829392
 10
24.5651828559302245
 20
118.9126106935514997
 10
24.5632423851180413
 20
118.9072014942851609
 10
24.561290329405491
 20
118.9018061099839656
 10
24.559326688792563
 20
118.8964245406478284
 10
24.5573514632792751
 20
118.8910567862768062
 10
24.555364652865606
 20
118.885702846870899
 10
24.5533662575515699
 20
118.8803627224300641
 10
24.5513562773371561
 20
118.8750364129543726
 10
24.5493347122223753
 20
118.8697239184437677
 10
24.547301562207231
 20
118.8644252388982494
 10
24.5452568272917055
 20
118.8591403743178319
 10
24.5432005074758131
 20
118.8538693247025435
 10
24.54113260275955
 20
118.8486120900523417
 10
24.5390531131429164
 20
118.8433686703672407
 10
24.5369620386259051
 20
118.8381390656472689
 10
24.5348593792085303
 20
118.8329232758923553
 10
24.5327451348907815
 20
118.8277213011025566
 10
24.530619305672662
 20
118.8225331412778587
 10
24.5284818915541649
 20
118.8173587964182758
 10
24.5263328925353044
 20
118.8121982665237937
 10
24.5241723086160697
 20
118.8070515515944123
 10
24.522000139796468
 20
118.8019186516301318
 10
24.5198163860764886
 20
118.796799566630952
 10
24.5176210474561422
 20
118.791694296596873
 10
24.5154141239354253
 20
118.7866028415279089
 10
24.5131956155143307
 20
118.7815252014240173
 10
24.5109655221928691
 20
118.7764613762852406
 10
24.5087238439710369
 20
118.7714113661115789
 10
24.5064705808488341
 20
118.7663751709030038
 10
24.5042057328262537
 20
118.7613527906595436
 10
24.5019292999033098
 20
118.7563442253811843
 10
24.4996412820799954
 20
118.7513494750679115
 10
24.4973416793563032
 20
118.7463685397197537
 10
24.4950304917322441
 20
118.7414014193366967
 10
24.4927077192078109
 20
118.7364481139187546
 10
24.4903733617830071
 20
118.7315086234658992
 10
24.4880274194578362
 20
118.7265829479781303
 10
24.4856698922322913
 20
118.7216710874554906
 10
24.4833007801063758
 20
118.7167730418979517
 10
24.4809200830800862
 20
118.7118888113054993
 10
24.4785278011534224
 20
118.7070183956781619
 10
24.4761239343263988
 20
118.7021617950159253
 10
24.473708482599001
 20
118.6973190093187753
 10
24.4712814459712256
 20
118.6924900385867545
 10
24.4688428244430796
 20
118.6876748828198203
 10
24.4663926180145594
 20
118.682873542018001
 10
24.4639308266856794
 20
118.6780860161812541
 10
24.4614574504564217
 20
118.6733123053096364
 10
24.4589724893267935
 20
118.6685524094031052
 10
24.4564759432967911
 20
118.6638063284616891
 10
24.4539678123664181
 20
118.6590740624853595
 10
24.4514480965356782
 20
118.6543556114741307
 10
24.4489167958045641
 20
118.6496509754280169
 10
24.446373910173083
 20
118.6449601543469896
 10
24.4438194396412243
 20
118.6402831482310916
 10
24.4412533842089985
 20
118.6356199570802801
 10
24.4386757438763986
 20
118.6309705808945694
 10
24.4360865186434282
 20
118.6263350196739736
 10
24.4334857085100907
 20
118.6217132734184503
 10
24.4308733134763756
 20
118.6171053421280703
 10
24.4282493335422934
 20
118.6125112258027627
 10
24.4256137687078407
 20
118.6079309244425701
 10
24.4229666189730139
 20
118.6033644380474641
 10
24.4203078843378165
 20
118.598811766617473
 10
24.417637564802245
 20
118.5942729101525828
 10
24.4149556603663065
 20
118.5897478686527791
 10
24.4122621710299974
 20
118.5852366421181046
 10
24.4095570967933178
 20
118.580739230548545
 10
24.4068404376562604
 20
118.5762556339440437
 10
24.4041121936188397
 20
118.5717858523046431
 10
24.4013723646810377
 20
118.5673298856303859
 10
24.3986209508428722
 20
118.5628877339212295
 10
24.3958579521043362
 20
118.5584593971771312
 10
24.393083368465426
 20
118.554044875398148
 10
24.3902971999261418
 20
118.5496441685842939
 10
24.3874994464864976
 20
118.5452572767355264
 10
24.3846901081464722
 20
118.5408841998518596
 10
24.3818691849060762
 20
118.5365249379332937
 10
24.3790366767653097
 20
118.5321794909798285
 10
24.3761925837241726
 20
118.5278478589914783
 10
24.373336905782665
 20
118.5235300419682147
 10
24.3704696429407868
 20
118.5192260399100519
 10
24.3675907951985344
 20
118.5149358528169898
 10
24.3647003625559151
 20
118.510659480689057
 10
24.3617983450129216
 20
118.5063969235262107
 10
24.3588847425695576
 20
118.502148181328451
 10
24.3559595552258195
 20
118.4979132540958204
 10
24.3530227829817179
 20
118.4936921418282765
 10
24.3500744258372315
 20
118.4894848445258333
 10
24.3471144837923887
 20
118.4852913621884909
 42
-0.2580459804199925
  0
LWPOLYLINE
  5
FC
100
AcDbEntity
  8
VectorEngraving
 62
256
370
-1
 48
1.0
  6
BYLAYER
100
AcDbPolyline
 90
8
 70
129
 10
23.2464961588907606
 20
118.5362563237773941
 42
0.2924199676809869
 10
23.807860221097993
 20
118.9031290987446141
 42
0.1214329083418489
 10
24.0117200674536235
 20
120.0164886640434645
 42
0.1202673064395511
 10
23.807860221097993
 20
121.090875023421404
 42
0.296602212494736
 10
23.2464961588907606
 20
121.4704890387858427
 42
0.2995688277754038
 10
22.6753887952032969
 20
121.090875023421404
 42
0.118638476576182
 10
22.4745268877646609
 20
120.0164886640434645
 42
0.1197837217357328
 10
22.6753887952032969
 20
118.9031290987446141
 42
0.2952609534183236
  0
LWPOLYLINE
  5
FD
100
AcDbEntity
  8
VectorEngraving
 62
256
370
-1
 48
1.0
  6
BYLAYER
100
AcDbPolyline
 90
272
 70
129
 10
26.4228124414465029
 20
117.9426644182124733
 42
-0.2187932598690879
 10
25.4113827993254624
 20
118.3320217350571539
 42
-0.1902783405960199
 10
25.0572512647554788
 20
119.4169008806445618
 10
25.0572512647554788
 20
122.0003747423646274
 10
25.8292205358815785
 20
122.0003747423646274
 10
25.8292205358815785
 20
121.9426644182124733
 42
0.1246165463759014
 10
25.7879988757729031
 20
121.8564736743488908
 42
0.0454369266293981
 10
25.7782555742926718
 20
121.706576728499158
 10
25.7782555742926718
 20
119.410155518081325
 42
0.1333400107447947
 10
25.9187839610267901
 20
118.7655986509274868
 42
0.2785909262070587
 10
26.4288083192804919
 20
118.5295109612141715
 42
0.2726441709264324
 10
26.9459527824620544
 20
118.7655986509274868
 42
0.1376862884248808
 10
27.0928517893947891
 20
119.4296421210417805
 10
27.0928517893947891
 20
122.0003747423646274
 10
27.794369495971516
 20
122.0003747423646274
 10
27.794369495971516
 20
119.4356379988757766
 10
27.7943636577764153
 20
119.4296658111909863
 10
27.7943461431911096
 20
119.4237058717078241
 10
27.7943169522155884
 20
119.417758180426361
 10
27.7942760848498658
 20
119.411822737346597
 10
27.7942235410939382
 20
119.4058995424685037
 10
27.7941593209478022
 20
119.3999885957920526
 10
27.7940834244114576
 20
119.3940898973173006
 10
27.7939958514849152
 20
119.3882034470442193
 10
27.7938966021681573
 20
119.382329244972837
 10
27.7937856764611979
 20
119.3764672911030971
 10
27.7936630743640301
 20
119.3706175854350278
 10
27.7935287958766573
 20
119.3647801279686718
 10
27.7933828409990831
 20
119.3589549187039722
 10
27.7932252097312968
 20
119.3531419576409434
 10
27.7930559020733021
 20
119.3473412447795852
 10
27.7928749180251025
 20
119.3415527801199261
 10
27.7926822575867014
 20
119.3357765636619376
 10
27.7924779207580883
 20
119.3300125954056057
 10
27.7922619075392703
 20
119.3242608753509444
 10
27.7920342179302473
 20
119.3185214034979964
 10
27.7917948519310194
 20
119.3127941798466765
 10
27.7915438095415794
 20
119.3070792043970698
 10
27.7912810907619381
 20
119.3013764771491338
 10
27.7910066955920882
 20
119.2956859981028686
 10
27.7907206240320335
 20
119.2900077672582739
 10
27.7904228760817738
 20
119.2843417846153784
 10
27.7901134517413055
 20
119.2786880501741251
 10
27.7897923510106324
 20
119.2730465639345567
 10
27.7894595738897472
 20
119.2674173258966732
 10
27.7891151203786606
 20
119.2618003360604746
 10
27.7887589904773655
 20
119.2561955944259324
 10
27.7883911841858691
 20
119.2506031009930609
 10
27.7880117015041641
 20
119.2450228557618885
 10
27.7876205424322507
 20
119.2394548587323726
 10
27.7872177069701358
 20
119.2338991099045415
 10
27.7868031951178018
 20
119.228355609278367
 10
27.7863770068752736
 20
119.2228243568539057
 10
27.7859391422425333
 20
119.2173053526311151
 10
27.7854896012195951
 20
119.2117985966099809
 10
27.7850283838064414
 20
119.2063040887905174
 10
27.7845554900030827
 20
119.200821829172753
 10
27.7840709198095226
 20
119.1953518177566593
 10
27.783574673225754
 20
119.1898940545422079
 10
27.783066750251777
 20
119.1844485395294555
 10
27.7825471508875914
 20
119.1790152727184022
 10
27.782015875133208
 20
119.1735942541089912
 10
27.7814729229886126
 20
119.1681854837012793
 10
27.7809182944538087
 20
119.1627889614952238
 10
27.7803519895288034
 20
119.1574046874908674
 10
27.7797740082135896
 20
119.1520326616881533
 10
27.7791843505081708
 20
119.1466728840871383
 10
27.77858301641254
 20
119.1413253546877939
 10
27.7779700059267078
 20
119.1359900734901203
 10
27.7773453190506672
 20
119.1306670404941315
 10
27.7767089557844216
 20
119.1253562556998418
 10
27.7760609161279675
 20
119.1200577191071659
 10
27.7754012000813084
 20
119.1147714307162033
 10
27.774729807644448
 20
119.1094973905269399
 10
27.7740467388173755
 20
119.1042355985393044
 10
27.7733519936000945
 20
119.0989860547533681
 10
27.7726455719926157
 20
119.0937487591691024
 10
27.7719274739949213
 20
119.0885237117865358
 10
27.7711976996070291
 20
119.0833109126055973
 10
27.7704562488289248
 20
119.0781103616263721
 10
27.7697031216606156
 20
119.0729220588488317
 10
27.7689383181021014
 20
119.0677460042729479
 10
27.7681618381533823
 20
119.0625821978987346
 10
27.7673736818144548
 20
119.0574306397261921
 10
27.7665738490853187
 20
119.0522913297553487
 10
27.7657623399659776
 20
119.0471642679861759
 10
27.7649391544564281
 20
119.0420494544186738
 10
27.7641042925566808
 20
119.0369468890528282
 10
27.7632577542667178
 20
119.0318565718886674
 10
27.7623995395865499
 20
119.02677850292622
 10
27.7615296485161736
 20
119.0217126821654148
 10
27.7606480810556029
 20
119.0166591096062803
 10
27.7597548372048166
 20
119.0116177852488306
 10
27.7588499169638219
 20
119.0065887090930801
 10
27.7579333203326257
 20
119.0015718811389718
 10
27.7570050473112211
 20
118.9965673013865342
 10
27.756065097899608
 20
118.9915749698357956
 10
27.7551134720977899
 20
118.9865948864867278
 10
27.7541501699057704
 20
118.9816270513393306
 10
27.7531751913235425
 20
118.9766714643936325
 10
27.7521885363511061
 20
118.9717281256495767
 10
27.7511902049884576
 20
118.9667970351072199
 10
27.7501801972356112
 20
118.9618781927665196
 10
27.74915851309256
 20
118.9569715986275042
 10
27.7481251525592967
 20
118.9520772526901737
 10
27.747080115635832
 20
118.9471951549544997
 10
27.7460234023221552
 20
118.9423253054205105
 10
27.7449550126182771
 20
118.9374677040882062
 10
27.743874946524187
 20
118.9326223509575726
 10
27.7427832040398954
 20
118.9277892460286239
 10
27.7416797851653989
 20
118.9229683893013316
 10
27.7405646899006939
 20
118.9181597807757242
 10
27.739437918245784
 20
118.9133634204517875
 10
27.7382994702006584
 20
118.9085793083295357
 10
27.7371493457653351
 20
118.9038074444089546
 10
27.7359875449398032
 20
118.8990478286900441
 10
27.7348140677240664
 20
118.8943004611728327
 10
27.7336289141181211
 20
118.8895653418572635
 10
27.7324320841219709
 20
118.8848424707433935
 10
27.7312235777356193
 20
118.8801318478311941
 10
27.7300033949590556
 20
118.8754334731206512
 10
27.7287715357922835
 20
118.8707473466118074
 10
27.7275280002353099
 20
118.8660734683046343
 10
27.7262727882881279
 20
118.8614118381991176
 10
27.7250058999507374
 20
118.8567624562953142
 10
27.7237273352231455
 20
118.8521253225931673
 10
27.7224370941053451
 20
118.8475004370926911
 10
27.7211351765973362
 20
118.8428877997938855
 10
27.7198215826991223
 20
118.838287410696779
 10
27.7184963124107036
 20
118.8336992698013148
 10
27.7171593657320798
 20
118.8291233771075781
 10
27.7158107426632441
 20
118.8245597326154552
 10
27.7144504432042069
 20
118.8200083363250599
 10
27.7130784673549613
 20
118.8154691882363068
 10
27.7116948151155071
 20
118.8109422883492527
 10
27.7102994864858516
 20
118.806427636663841
 10
27.7088924814659876
 20
118.8019252331801425
 10
27.7074738000559151
 20
118.7974350778981005
 10
27.7060434422556412
 20
118.7929571708177434
 10
27.7046014080651553
 20
118.788491511939057
 10
27.7031476974844679
 20
118.7840381012620412
 10
27.7016823105135686
 20
118.7795969387867103
 10
27.7002052471524678
 20
118.7751680245130501
 10
27.6987165074011585
 20
118.7707513584410748
 10
27.6972160912596443
 20
118.7663469405707701
 10
27.6957039987279252
 20
118.7619547709021219
 10
27.694180229805994
 20
118.7575748494351728
 10
27.692644784493865
 20
118.7532071761698944
 10
27.6910976627915204
 20
118.7488517511063009
 10
27.6895388646989744
 20
118.7445085742443638
 10
27.6879683902162199
 20
118.7401776455841116
 10
27.686386239343264
 20
118.7358589651255443
 10
27.6847924120800997
 20
118.7315525328686476
 10
27.6831869084267232
 20
118.7272583488134217
 10
27.6815697283831454
 20
118.7229764129598664
 10
27.6799408719493556
 20
118.7187067253079817
 10
27.6783003391253715
 20
118.7144492858577962
 10
27.6766481299111717
 20
118.7102040946092529
 10
27.6749842443067671
 20
118.7059711515624372
 10
27.6733086823121575
 20
118.7017504567172637
 10
27.6716214439273429
 20
118.6975420100737608
 10
27.6699225291523163
 20
118.6933458116319571
 10
27.6682119379870883
 20
118.6891618613917956
 10
27.6664896704316519
 20
118.6849901593533332
 10
27.664755726486014
 20
118.6808307055165557
 10
27.6630101061501676
 20
118.6766834998814204
 10
27.6612528094241128
 20
118.6725485424479984
 10
27.6594838363078459
 20
118.6684258332162472
 10
27.6577031868013776
 20
118.6643153721861381
 10
27.6559108609047115
 20
118.6602171593577282
 10
27.6541068586178298
 20
118.6561311947309889
 10
27.6522911799407431
 20
118.6520574783059487
 10
27.6504638248734516
 20
118.6479960100825508
 10
27.6486247934159515
 20
118.6439467900608236
 10
27.6467740855682464
 20
118.6399098182408238
 10
27.6449117013303365
 20
118.6358850946224379
 10
27.6430376407022109
 20
118.6318726192057653
 10
27.6411519036838911
 20
118.6278723919907634
 10
27.6392544902753592
 20
118.6238844129774321
 10
27.6373454004766224
 20
118.6199086821657716
 10
27.6354246342876735
 20
118.6159451995557959
 10
27.6334921917085268
 20
118.611993965147505
 10
27.6315480727391787
 20
118.6080549789408849
 10
27.629592277379615
 20
118.6041282409359212
 10
27.6276248056298428
 20
118.6002137511326566
 10
27.6256456574898692
 20
118.5963115095310485
 10
27.6236548329596872
 20
118.592421516131111
 10
27.6216523320393001
 20
118.5885437709328727
 10
27.6196381547287046
 20
118.584678273936305
 10
27.6176123010279042
 20
118.5808250251414222
 10
27.6155747709368953
 20
118.5769840245482101
 10
27.613525564455685
 20
118.5731552721566402
 10
27.6114646815842626
 20
118.5693387679667836
 10
27.6093921223226388
 20
118.5655345119785835
 10
27.607307886670803
 20
118.5617425041920683
 10
27.6052119746287659
 20
118.5579627446072379
 10
27.6031043861965202
 20
118.5541952332240641
 10
27.6009851213740731
 20
118.5504399700425751
 10
27.5988541801614176
 20
118.5466969550627567
 10
27.59671156255855
 20
118.5429661882846233
 10
27.594557268565481
 20
118.5392476697081605
 10
27.5923912981822035
 20
118.5355413993333684
 10
27.5902136514087211
 20
118.5318473771602612
 10
27.5880243282450337
 20
118.5281656031888105
 10
27.5858233286911378
 20
118.5244960774190588
 10
27.5836106527470406
 20
118.520838799850992
 10
27.5813863004127278
 20
118.5171937704845817
 10
27.57915027168821
 20
118.5135609893198563
 10
27.5769025665734908
 20
118.5099404563567873
 10
27.5746431850685667
 20
118.5063321715954032
 10
27.5723721271734341
 20
118.5027361350357182
 10
27.5700893928880895
 20
118.4991523466776755
 10
27.5677949822125434
 20
118.4955808065213319
 10
27.565488895146796
 20
118.4920215145666447
 10
27.563171131690833
 20
118.4884744708136282
 10
27.560841691844665
 20
118.4849396752622965
 10
27.5585005756082992
 20
118.4814171279126924
 10
27.5561477829817214
 20
118.4779068287647021
 10
27.5537833139649315
 20
118.474408777818411
 10
27.5514071685579438
 20
118.4709229750737762
 10
27.549019346760744
 20
118.4674494205308406
 10
27.5466198485733429
 20
118.4639881141895756
 10
27.5442086739957332
 20
118.4605390560499814
 10
27.5417858230279187
 20
118.4571022461120577
 10
27.5393512956698956
 20
118.4536776843758048
 10
27.5369050919216676
 20
118.4502653708412367
 10
27.5344472117832311
 20
118.4468653055083394
 10
27.5319776552545896
 20
118.4434774883771269
 10
27.5294964223357397
 20
118.440101919447585
 10
27.5270035130266884
 20
118.4367385987197281
 10
27.5244989273274285
 20
118.433387526193556
 10
27.5219826652379673
 20
118.4300487018690404
 10
27.5194547267582834
 20
118.4267221257461813
 10
27.5169151118884088
 20
118.4234077978250355
 10
27.5143638206283256
 20
118.4201057181055461
 10
27.5118008529780269
 20
118.4168158865877274
 10
27.5092262089375303
 20
118.4135383032715936
 10
27.5066398885068253
 20
118.4102729681571446
 10
27.5040418916859117
 20
118.4070198812443664
 10
27.5014322184747932
 20
118.403779042533273
 10
27.4988108688734734
 20
118.4005504520238503
 10
27.4961778428819414
 20
118.3973341097160983
 10
27.4935331405002046
 20
118.3941300156100169
 10
27.4908767617282663
 20
118.3909381697056062
 10
27.488208706566116
 20
118.3877585720028804
 10
27.4855289750137572
 20
118.3845912225018111
 10
27.4828375670711935
 20
118.3814361212024409
 10
27.480134482738432
 20
118.3782932681047555
 10
27.4774197220154583
 20
118.3751626632087124
 10
27.4746932849022691
 20
118.3720443065143684
 10
27.4719551713988821
 20
118.3689381980217092
 10
27.4692053815052972
 20
118.3658443377307208
 10
27.4664439152214932
 20
118.3627627256413888
 10
27.4636707725474878
 20
118.3596933617537417
 10
27.4608859534832774
 20
118.3566362460677936
 10
27.458089458028855
 20
118.3535913785834737
 10
27.4552812861842241
 20
118.3505587593008528
 10
27.4524614379493954
 20
118.3475383882199168
 10
27.4496299133243582
 20
118.3445302653406372
 10
27.446786712309116
 20
118.3415343906630568
 10
27.4439318349036618
 20
118.338550764187147
 10
27.4410652811080062
 20
118.3355793859128937
 10
27.4381870509221457
 20
118.3326202558403679
 10
27.4352971443460731
 20
118.3296733739694702
 10
27.4323955613797956
 20
118.3267387403002715
 10
27.4294823020233132
 20
118.3238163548327435
 10
27.4265573662766258
 20
118.3209062175668578
 10
27.4236207541397334
 20
118.3180083285026711
 10
27.4206724656126291
 20
118.3151226876401552
 10
27.4177125006953197
 20
118.3122492949793241
 10
27.4147408593878055
 20
118.3093881505201921
 10
27.4117575416900863
 20
118.3065392542627023
 42
-0.1989968553203712
  0
LWPOLYLINE
  5
FE
100
AcDbEntity
  8
VectorEngraving
 62
256
370
-1
 48
1.0
  6
BYLAYER
100
AcDbPolyline
 90
8
 70
129
 10
29.2356286303166542
 20
118.025857223159079
 10
29.2356286303166542
 20
121.3940415964024737
 10
28.163865467491096
 20
121.3940415964024737
 10
28.163865467491096
 20
122.0003747423646274
 10
31.0538785834738604
 20
122.0003747423646274
 10
31.0538785834738604
 20
121.3940415964024737
 10
29.9244050964961552
 20
121.3940415964024737
 10
29.9244050964961552
 20
118.025857223159079
  0
LWPOLYLINE
  5
FF
100
AcDbEntity
  8
VectorEngraving
 62
256
370
-1
 48
1.0
  6
BYLAYER
100
AcDbPolyline
 90
8
 70
129
 10
36.7806913996627287
 20
118.025857223159079
 10
36.5063799887577289
 20
118.9507213790518989
 10
35.4668446692898627
 20
118.9507213790518989
 10
35.185787895821619
 20
118.025857223159079
 10
34.4715289488476628
 20
118.025857223159079
 10
35.8176035225782243
 20
122.025857223159079
 10
36.162366498032597
 20
122.025857223159079
 10
37.5084410717631584
 20
118.025857223159079
  0
LWPOLYLINE
  5
100
100
AcDbEntity
  8
VectorEngraving
 62
256
370
-1
 48
1.0
  6
BYLAYER
100
AcDbPolyline
 90
3
 70
129
 10
35.9899850103054106
 20
120.6925238898257504
 10
35.6197395540565864
 20
119.4678658422334649
 10
36.3534851039910052
 20
119.4678658422334649
  0
LWPOLYLINE
  5
101
100
AcDbEntity
  8
VectorEngraving
 62
256
370
-1
 48
1.0
  6
BYLAYER
100
AcDbPolyline
 90
9
 70
129
 10
24.9007963275248265
 20
16.0001873711823102
 10
25.2931515832864875
 20
16.0001873711823102
 10
25.2931515832864875
 20
15.9713322091062366
 42
0.1523096199732325
 10
25.2693554431328451
 20
15.9282368371744401
 42
0.0437068677127427
 10
25.2646711635750414
 20
15.8532883642495737
 10
25.2646711635750414
 20
14.3063518830803797
 10
26.176794079070639
 20
14.3063518830803797
 10
26.176794079070639
 20
14.012928611579536
 10
24.9007963275248265
 20
14.012928611579536
  0
LWPOLYLINE
  5
102
100
AcDbEntity
  8
VectorEngraving
 62
256
370
-1
 48
1.0
  6
BYLAYER
100
AcDbPolyline
 90
12
 70
129
 10
26.5369214914746081
 20
14.012928611579536
 10
26.5369214914746081
 20
14.3033539441633852
 10
26.9259040659546542
 20
14.3033539441633852
 10
26.9259040659546542
 20
15.7097620385984609
 10
26.5590312909874449
 20
15.7097620385984609
 10
26.5590312909874449
 20
16.0001873711823102
 10
27.6562769346074546
 20
16.0001873711823102
 10
27.6562769346074546
 20
15.7097620385984609
 10
27.267294360127412
 20
15.7097620385984609
 10
27.267294360127412
 20
14.3033539441633852
 10
27.6723908562863024
 20
14.3033539441633852
 10
27.6723908562863024
 20
14.012928611579536
  0
LWPOLYLINE
  5
103
100
AcDbEntity
  8
VectorEngraving
 62
256
370
-1
 48
1.0
  6
BYLAYER
100
AcDbPolyline
 90
13
 70
129
 10
28.0261476484916621
 20
16.0001873711823102
 10
28.4023889825744789
 20
16.0001873711823102
 10
29.0754262694397596
 20
14.6923365186434296
 10
29.0563144088439174
 20
16.0001873711823102
 10
29.4074480044969064
 20
16.0001873711823102
 10
29.4074480044969064
 20
15.9713322091062366
 42
0.1276856979475385
 10
29.3864624320779448
 20
15.9282368371744401
 42
0.045436926629451
 10
29.3815907813378274
 20
15.8532883642495754
 10
29.3815907813378274
 20
14.012928611579536
 10
29.04694584972831
 20
14.012928611579536
 10
28.3514240209855721
 20
15.4069702079820097
 10
28.3514240209855721
 20
14.012928611579536
 10
28.0261476484916621
 20
14.012928611579536
  0
LWPOLYLINE
  5
104
100
AcDbEntity
  8
VectorEngraving
 62
256
370
-1
 48
1.0
  6
BYLAYER
100
AcDbPolyline
 90
12
 70
129
 10
29.6652707513584417
 20
14.012928611579536
 10
29.6652707513584417
 20
16.0001873711823102
 10
30.9603803635000929
 20
16.0001873711823102
 10
30.9603803635000929
 20
15.7067640996814664
 10
30.0160296046468034
 20
15.7067640996814664
 10
30.0160296046468034
 20
15.1963649990631406
 10
30.791371557054525
 20
15.1963649990631406
 10
30.791371557054525
 20
14.8995690462806785
 10
30.0160296046468034
 20
14.8995690462806785
 10
30.0160296046468034
 20
14.3063518830803797
 10
30.9506370620198581
 20
14.3063518830803797
 10
30.9506370620198581
 20
14.012928611579536
  0
LWPOLYLINE
  5
105
100
AcDbEntity
  8
VectorEngraving
 62
256
370
-1
 48
1.0
  6
BYLAYER
100
AcDbPolyline
 90
8
 70
129
 10
33.4955124601836189
 20
13.9747048903878586
 42
-0.2591303879110665
 10
32.9405190181750029
 20
14.2426456810942454
 42
-0.1527047570207505
 10
32.7523983511335928
 20
15.0048716507401156
 42
-0.1520552001394024
 10
32.9405190181750029
 20
15.7575416900880612
 42
-0.2609893822229569
 10
33.4955124601836189
 20
16.0286677908937563
 42
-0.2598887638008111
 10
34.0458216226344348
 20
15.7575416900880612
 42
-0.1532357876440957
 10
34.2356286303166542
 20
15.0048716507401174
 42
-0.1538924925182306
 10
34.0458216226344348
 20
14.2426456810942454
 42
-0.2580459804199902
  0
LWPOLYLINE
  5
106
100
AcDbEntity
  8
VectorEngraving
 62
256
370
-1
 48
1.0
  6
BYLAYER
100
AcDbPolyline
 90
8
 70
129
 10
33.4955124601836189
 20
14.2681281618887041
 42
0.2924199676809647
 10
33.7761944912872352
 20
14.4515645493723035
 42
0.1214329083418392
 10
33.8781244144650557
 20
15.0082443320217358
 42
0.120267306439543
 10
33.7761944912872352
 20
15.5454375117106949
 42
0.296602212494719
 10
33.4955124601836189
 20
15.7352445193929142
 42
0.2995688277754263
 10
33.2099587783398889
 20
15.5454375117106949
 42
0.1186384765762014
 10
33.1095278246205709
 20
15.0082443320217322
 42
0.11978372173575
 10
33.2099587783398889
 20
14.4515645493723035
 42
0.2952609534183014
  0
LWPOLYLINE
  5
107
100
AcDbEntity
  8
VectorEngraving
 62
256
370
-1
 48
1.0
  6
BYLAYER
100
AcDbPolyline
 90
17
 70
129
 10
35.0836706014614919
 20
13.9713322091062313
 42
-0.2187932598690946
 10
34.5779557804009698
 20
14.1660108675285716
 42
-0.1902783405960169
 10
34.4008900131159834
 20
14.7084504403222756
 10
34.4008900131159834
 20
16.0001873711823102
 10
34.7868746486790315
 20
16.0001873711823102
 10
34.7868746486790315
 20
15.9713322091062366
 42
0.1246165463759882
 10
34.7662638186246937
 20
15.9282368371744401
 42
0.0454369266293828
 10
34.7613921678845799
 20
15.8532883642495772
 10
34.7613921678845799
 20
14.7050777590406572
 42
0.1333400107448101
 10
34.831656361251639
 20
14.3827993254637398
 42
0.2785909262070767
 10
35.0866685403784899
 20
14.2647554806070787
 42
0.2726441709264193
 10
35.3452407719692729
 20
14.3827993254637398
 42
0.1376862884248871
 10
35.4186902754356367
 20
14.7148210605208885
 10
35.4186902754356367
 20
16.0001873711823102
 10
35.7694491287239984
 20
16.0001873711823102
 10
35.7694491287239984
 20
14.717818999437883
 42
-0.2083302145650228
 10
35.5781431515832836
 20
14.1532696271313441
 42
-0.1989968553204028
  0
LWPOLYLINE
  5
108
100
AcDbEntity
  8
VectorEngraving
 62
256
370
-1
 48
1.0
  6
BYLAYER
100
AcDbPolyline
 90
8
 70
129
 10
36.490078695896571
 20
14.012928611579536
 10
36.490078695896571
 20
15.6970207982012333
 10
35.9541971144837902
 20
15.6970207982012333
 10
35.9541971144837902
 20
16.0001873711823102
 10
37.3992036724751742
 20
16.0001873711823102
 10
37.3992036724751742
 20
15.6970207982012333
 10
36.8344669289863234
 20
15.6970207982012333
 10
36.8344669289863234
 20
14.012928611579536
  0
LWPOLYLINE
  5
109
100
AcDbEntity
  8
VectorEngraving
 62
256
370
-1
 48
1.0
  6
BYLAYER
100
AcDbPolyline
 90
11
 70
129
 10
2.0892917369308606
 20
14.0129286115795395
 10
2.0892917369308606
 20
16.0001873711823137
 10
2.7653269627131349
 20
16.0001873711823137
 42
-0.1226157369347465
 10
3.1449409780775719
 20
15.9203672475173317
 42
-0.1499740507230593
 10
3.3666010867528575
 20
15.7082630691399672
 42
-0.1268020082315401
 10
3.4383642495784148
 20
15.4163387670976189
 42
-0.1268596194922991
 10
3.3682874273936667
 20
15.1309724564362007
 42
-0.1500081120373297
 10
3.1513115982761857
 20
14.9237399287989518
 42
-0.1226248171483324
 10
2.7814408843919809
 20
14.8456061457747808
 10
2.4557897695334461
 20
14.8456061457747808
 10
2.4557897695334461
 20
14.0129286115795395
  0
LWPOLYLINE
  5
10A
100
AcDbEntity
  8
VectorEngraving
 62
256
370
-1
 48
1.0
  6
BYLAYER
100
AcDbPolyline
 90
7
 70
129
 10
2.4557897695334461
 20
15.1454000374742375
 10
2.7559584035975266
 20
15.1454000374742375
 42
0.1964422541879371
 10
2.9886734120292298
 20
15.2218474798575976
 42
0.2132598586825441
 10
3.06849353569421
 20
15.4163387670976206
 42
0.2129058125030515
 10
2.9886734120292298
 20
15.6110174255199556
 42
0.1973302280816638
 10
2.7589563425145212
 20
15.6876522390856294
 10
2.4557897695334461
 20
15.6876522390856294
  0
LWPOLYLINE
  5
10B
100
AcDbEntity
  8
VectorEngraving
 62
256
370
-1
 48
1.0
  6
BYLAYER
100
AcDbPolyline
 90
18
 70
129
 10
3.6515926550496536
 20
16.0001873711823137
 10
4.0439479108113172
 20
16.0001873711823137
 10
4.0439479108113172
 20
15.9713322091062402
 42
0.1523096199731024
 10
4.020151770657673
 20
15.9282368371744436
 42
0.0437068677127843
 10
4.0154674910998693
 20
15.8532883642495808
 10
4.0154674910998693
 20
15.1929923177815258
 10
4.6277965148960085
 20
15.1929923177815258
 10
4.6277965148960085
 20
16.0001873711823137
 10
5.020151770657673
 20
16.0001873711823137
 10
5.020151770657673
 20
15.9713322091062402
 42
0.1689875292190609
 10
4.9978545999625261
 20
15.9282368371744436
 42
0.0297994704278983
 10
4.9946692898632197
 20
15.8532883642495808
 10
4.9946692898632197
 20
14.0129286115795395
 10
4.6277965148960085
 20
14.0129286115795395
 10
4.6277965148960085
 20
14.9059396664792967
 10
4.0154674910998693
 20
14.9059396664792967
 10
4.0154674910998693
 20
14.0129286115795395
 10
3.6515926550496536
 20
14.0129286115795395
  0
LWPOLYLINE
  5
10C
100
AcDbEntity
  8
VectorEngraving
 62
256
370
-1
 48
1.0
  6
BYLAYER
100
AcDbPolyline
 90
8
 70
129
 10
5.9289020048716505
 20
13.9747048903878586
 42
-0.2591303879110619
 10
5.3739085628630319
 20
14.242645681094249
 42
-0.1527047570207439
 10
5.1857878958216226
 20
15.0048716507401156
 42
-0.152055200139397
 10
5.3739085628630319
 20
15.7575416900880647
 42
-0.260989382222947
 10
5.9289020048716505
 20
16.0286677908937598
 42
-0.2598887638008115
 10
6.4792111673224655
 20
15.7575416900880647
 42
-0.1532357876440793
 10
6.669018175004684
 20
15.0048716507401139
 42
-0.1538924925182119
 10
6.4792111673224655
 20
14.242645681094249
 42
-0.2580459804199885
  0
LWPOLYLINE
  5
10D
100
AcDbEntity
  8
VectorEngraving
 62
256
370
-1
 48
1.0
  6
BYLAYER
100
AcDbPolyline
 90
8
 70
129
 10
5.9289020048716505
 20
14.2681281618887041
 42
0.292419967680966
 10
6.2095840359752668
 20
14.4515645493723071
 42
0.1214329083418492
 10
6.311513959153082
 20
15.0082443320217376
 42
0.1202673064395502
 10
6.2095840359752668
 20
15.5454375117106984
 42
0.2966022124947257
 10
5.9289020048716505
 20
15.7352445193929178
 42
0.2995688277754154
 10
5.6433483230279187
 20
15.5454375117106984
 42
0.1186384765761814
 10
5.5429173693086007
 20
15.0082443320217376
 42
0.1197837217357309
 10
5.6433483230279187
 20
14.4515645493723071
 42
0.2952609534182988
  0
LWPOLYLINE
  5
10E
100
AcDbEntity
  8
VectorEngraving
 62
256
370
-1
 48
1.0
  6
BYLAYER
100
AcDbPolyline
 90
13
 70
129
 10
6.8376522390856289
 20
16.0001873711823137
 10
7.2138935731684466
 20
16.0001873711823137
 10
7.8869308600337265
 20
14.6923365186434332
 10
7.867818999437886
 20
16.0001873711823137
 10
8.2189525950908759
 20
16.0001873711823137
 10
8.2189525950908759
 20
15.9713322091062402
 42
0.1276856979476137
 10
8.1979670226719126
 20
15.9282368371744436
 42
0.045436926629416
 10
8.1930953719317969
 20
15.853288364249579
 10
8.1930953719317969
 20
14.0129286115795395
 10
7.8584504403222786
 20
14.0129286115795395
 10
7.162928611579539
 20
15.4069702079820132
 10
7.162928611579539
 20
14.0129286115795395
 10
6.8376522390856289
 20
14.0129286115795395
  0
LWPOLYLINE
  5
10F
100
AcDbEntity
  8
VectorEngraving
 62
256
370
-1
 48
1.0
  6
BYLAYER
100
AcDbPolyline
 90
12
 70
129
 10
8.4767753419524077
 20
14.0129286115795395
 10
8.4767753419524077
 20
16.0001873711823137
 10
9.7718849540940589
 20
16.0001873711823137
 10
9.7718849540940589
 20
15.7067640996814699
 10
8.8275341952407729
 20
15.7067640996814699
 10
8.8275341952407729
 20
15.1963649990631442
 10
9.602876147648491
 20
15.1963649990631442
 10
9.602876147648491
 20
14.899569046280682
 10
8.8275341952407729
 20
14.899569046280682
 10
8.8275341952407729
 20
14.3063518830803833
 10
9.7621416526138276
 20
14.3063518830803833
 10
9.7621416526138276
 20
14.0129286115795395
  0
LWPOLYLINE
  5
110
100
AcDbEntity
  8
VectorEngraving
 62
256
370
-1
 48
1.0
  6
BYLAYER
100
AcDbPolyline
 90
8
 70
129
 10
12.3070170507775902
 20
13.9747048903878586
 42
-0.2591303879110624
 10
11.7520236087689707
 20
14.242645681094249
 42
-0.1527047570207472
 10
11.5639029417275623
 20
15.0048716507401174
 42
-0.1520552001393989
 10
11.7520236087689707
 20
15.7575416900880647
 42
-0.2609893822229483
 10
12.3070170507775902
 20
16.0286677908937598
 42
-0.2598887638008106
 10
12.8573262132284043
 20
15.7575416900880647
 42
-0.1532357876440777
 10
13.0471332209106237
 20
15.0048716507401174
 42
-0.1538924925182119
 10
12.8573262132284043
 20
14.242645681094249
 42
-0.258045980419989
  0
LWPOLYLINE
  5
111
100
AcDbEntity
  8
VectorEngraving
 62
256
370
-1
 48
1.0
  6
BYLAYER
100
AcDbPolyline
 90
8
 70
129
 10
12.3070170507775902
 20
14.2681281618887041
 42
0.2924199676809683
 10
12.5876990818812065
 20
14.4515645493723071
 42
0.1214329083418471
 10
12.6896290050590217
 20
15.0082443320217376
 42
0.1202673064395511
 10
12.5876990818812065
 20
15.5454375117106984
 42
0.2966022124947242
 10
12.3070170507775902
 20
15.7352445193929178
 42
0.2995688277754245
 10
12.0214633689338584
 20
15.5454375117106984
 42
0.1186384765761797
 10
11.9210324152145404
 20
15.0082443320217376
 42
0.1197837217357313
 10
12.0214633689338584
 20
14.4515645493723071
 42
0.2952609534183024
  0
LWPOLYLINE
  5
112
100
AcDbEntity
  8
VectorEngraving
 62
256
370
-1
 48
1.0
  6
BYLAYER
100
AcDbPolyline
 90
17
 70
129
 10
13.8951751920554614
 20
13.9713322091062402
 42
-0.2187932598690923
 10
13.3894603709949411
 20
14.1660108675285752
 42
-0.1902783405960149
 10
13.2123946037099493
 20
14.7084504403222791
 10
13.2123946037099493
 20
16.0001873711823137
 10
13.5983792392729992
 20
16.0001873711823137
 10
13.5983792392729992
 20
15.9713322091062402
 42
0.1246165463758053
 10
13.5777684092186615
 20
15.9282368371744436
 42
0.0454369266294178
 10
13.5728967584785458
 20
15.853288364249579
 10
13.5728967584785458
 20
14.7050777590406607
 42
0.1333400107447866
 10
13.643160951845605
 20
14.3827993254637434
 42
0.2785909262070732
 10
13.8981731309724559
 20
14.2647554806070822
 42
0.2726441709264437
 10
14.1567453625632371
 20
14.3827993254637434
 42
0.1376862884248755
 10
14.2301948660296045
 20
14.714821060520892
 10
14.2301948660296045
 20
16.0001873711823137
 10
14.5809537193179679
 20
16.0001873711823137
 10
14.5809537193179679
 20
14.7178189994378865
 42
-0.2083302145650321
 10
14.3896477421772531
 20
14.1532696271313476
 42
-0.1989968553203984
  0
LWPOLYLINE
  5
113
100
AcDbEntity
  8
VectorEngraving
 62
256
370
-1
 48
1.0
  6
BYLAYER
100
AcDbPolyline
 90
8
 70
129
 10
15.301583286490537
 20
14.0129286115795395
 10
15.301583286490537
 20
15.6970207982012369
 10
14.7657017050777579
 20
15.6970207982012369
 10
14.7657017050777579
 20
16.0001873711823137
 10
16.2107082630691401
 20
16.0001873711823137
 10
16.2107082630691401
 20
15.6970207982012369
 10
15.6459715195802875
 20
15.6970207982012369
 10
15.6459715195802875
 20
14.0129286115795395
  0
LWPOLYLINE
  5
114
100
AcDbEntity
  8
VectorEngraving
 62
256
370
-1
 48
1.0
  6
BYLAYER
100
AcDbPolyline
 90
9
 70
129
 10
2.3366216975829106
 20
97.9921304103428952
 10
2.7289769533445742
 20
97.9921304103428952
 10
2.7289769533445742
 20
97.9632752482668252
 42
0.1523096199736851
 10
2.7051808131909301
 20
97.9201798763350268
 42
0.0437068677127708
 10
2.7004965336331264
 20
97.8452314034101676
 10
2.7004965336331264
 20
96.2982949222409701
 10
3.6126194491287231
 20
96.2982949222409701
 10
3.6126194491287231
 20
96.0048716507401281
 10
2.3366216975829106
 20
96.0048716507401281
  0
LWPOLYLINE
  5
115
100
AcDbEntity
  8
VectorEngraving
 62
256
370
-1
 48
1.0
  6
BYLAYER
100
AcDbPolyline
 90
4
 70
129
 10
4.2279464118418577
 20
95.8677159452876282
 10
3.8962994191493339
 20
96.0112422709387374
 10
4.8784991568296778
 20
98.1322840547124002
 10
5.2037755293235888
 20
97.9666479295484436
  0
LWPOLYLINE
  5
116
100
AcDbEntity
  8
VectorEngraving
 62
256
370
-1
 48
1.0
  6
BYLAYER
100
AcDbPolyline
 90
13
 70
129
 10
5.4458590968709002
 20
96.0048716507401281
 10
5.4458590968709002
 20
97.9921304103428952
 10
5.761766910249202
 20
97.9921304103428952
 10
6.1477515458122527
 20
97.0796327524826808
 10
6.5337361813753034
 20
97.9951283492599003
 10
6.8496439947536061
 20
97.9951283492599003
 10
6.8496439947536061
 20
96.0048716507401281
 10
6.5367341202922979
 20
96.0048716507401281
 10
6.5367341202922979
 20
97.3925426269439924
 10
6.2241989881956146
 20
96.6617950159265575
 10
6.048819561551432
 20
96.6617950159265575
 10
5.7553962900505891
 20
97.3891699456623741
 10
5.7553962900505891
 20
96.0048716507401281
  0
LWPOLYLINE
  5
117
100
AcDbEntity
  8
VectorEngraving
 62
256
370
-1
 48
1.0
  6
BYLAYER
100
AcDbPolyline
 90
8
 70
129
 10
7.7422803072887376
 20
95.9666479295484436
 42
-0.2591303879110436
 10
7.187286865280119
 20
96.234588720254834
 42
-0.1527047570207372
 10
6.9991661982387097
 20
96.9968146899007024
 42
-0.1520552001394108
 10
7.187286865280119
 20
97.7494847292486497
 42
-0.2609893822229528
 10
7.7422803072887376
 20
98.0206108300543519
 42
-0.2598887638007979
 10
8.2925894697395535
 20
97.7494847292486497
 42
-0.1532357876440829
 10
8.4823964774217711
 20
96.9968146899007024
 42
-0.1538924925182065
 10
8.2925894697395535
 20
96.234588720254834
 42
-0.2580459804199772
  0
LWPOLYLINE
  5
118
100
AcDbEntity
  8
VectorEngraving
 62
256
370
-1
 48
1.0
  6
BYLAYER
100
AcDbPolyline
 90
8
 70
129
 10
7.7422803072887376
 20
96.2600712010492856
 42
0.2924199676809674
 10
8.0229623383923538
 20
96.4435075885328956
 42
0.1214329083418501
 10
8.1248922615701691
 20
97.0001873711823208
 42
0.120267306439566
 10
8.0229623383923538
 20
97.5373805508712906
 42
0.2966022124947106
 10
7.7422803072887376
 20
97.7271875585535099
 42
0.2995688277753737
 10
7.4567266254450049
 20
97.5373805508712906
 42
0.1186384765761911
 10
7.3562956717256878
 20
97.0001873711823208
 42
0.1197837217357267
 10
7.4567266254450049
 20
96.4435075885328956
 42
0.2952609534183173
  0
LWPOLYLINE
  5
119
100
AcDbEntity
  8
VectorEngraving
 62
256
370
-1
 48
1.0
  6
BYLAYER
100
AcDbPolyline
 90
13
 70
129
 10
8.6510305415027169
 20
97.9921304103428952
 10
9.0272718755855337
 20
97.9921304103428952
 10
9.7003091624508144
 20
96.6842795578040182
 10
9.6811973018549722
 20
97.9921304103428952
 10
10.0323308975079613
 20
97.9921304103428952
 10
10.0323308975079613
 20
97.9632752482668252
 42
0.1276856979479448
 10
10.0113453250889997
 20
97.9201798763350268
 42
0.0454369266293715
 10
10.006473674348884
 20
97.8452314034101676
 10
10.006473674348884
 20
96.0048716507401281
 10
9.6718287427393648
 20
96.0048716507401281
 10
8.9763069139966269
 20
97.3989132471426018
 10
8.9763069139966269
 20
96.0048716507401281
 10
8.6510305415027169
 20
96.0048716507401281
  0
LWPOLYLINE
  5
11A
100
AcDbEntity
  8
VectorEngraving
 62
256
370
-1
 48
1.0
  6
BYLAYER
100
AcDbPolyline
 90
8
 70
129
 10
10.9313378302417057
 20
95.9666479295484436
 42
-0.2591303879110489
 10
10.3763443882330897
 20
96.234588720254834
 42
-0.1527047570207437
 10
10.1882237211916795
 20
96.9968146899007024
 42
-0.15205520013941
 10
10.3763443882330897
 20
97.7494847292486497
 42
-0.2609893822229403
 10
10.9313378302417057
 20
98.0206108300543519
 42
-0.2598887638007968
 10
11.4816469926925215
 20
97.7494847292486497
 42
-0.1532357876440975
 10
11.6714540003747409
 20
96.9968146899007024
 42
-0.1538924925182105
 10
11.4816469926925215
 20
96.234588720254834
 42
-0.2580459804199774
  0
LWPOLYLINE
  5
11B
100
AcDbEntity
  8
VectorEngraving
 62
256
370
-1
 48
1.0
  6
BYLAYER
100
AcDbPolyline
 90
8
 70
129
 10
10.9313378302417057
 20
96.2600712010492714
 42
0.2924199676810055
 10
11.2120198613453219
 20
96.4435075885328956
 42
0.1214329083418498
 10
11.3139497845231389
 20
97.0001873711823208
 42
0.1202673064395705
 10
11.2120198613453219
 20
97.5373805508712906
 42
0.2966022124947031
 10
10.9313378302417057
 20
97.7271875585535099
 42
0.299568827775406
 10
10.6457841483979756
 20
97.5373805508712906
 42
0.1186384765761957
 10
10.5453531946786576
 20
97.0001873711823208
 42
0.1197837217357256
 10
10.6457841483979756
 20
96.4435075885328956
 42
0.2952609534183314
  0
LWPOLYLINE
  5
11C
100
AcDbEntity
  8
VectorEngraving
 62
256
370
-1
 48
1.0
  6
BYLAYER
100
AcDbPolyline
 90
9
 70
129
 10
13.4983230279183033
 20
97.9921304103428952
 10
13.8906782836799678
 20
97.9921304103428952
 10
13.8906782836799678
 20
97.9632752482668252
 42
0.1523096199735599
 10
13.8668821435263254
 20
97.9201798763350268
 42
0.0437068677127416
 10
13.8621978639685217
 20
97.8452314034101676
 10
13.8621978639685217
 20
96.2982949222409701
 10
14.7743207794641158
 20
96.2982949222409701
 10
14.7743207794641158
 20
96.0048716507401281
 10
13.4983230279183033
 20
96.0048716507401281
  0
LWPOLYLINE
  5
11D
100
AcDbEntity
  8
VectorEngraving
 62
256
370
-1
 48
1.0
  6
BYLAYER
100
AcDbPolyline
 90
7
 70
129
 10
15.6002529510961203
 20
95.9985010305415187
 10
14.9620667041409021
 20
97.9921304103428952
 10
15.3195709199925041
 20
97.9921304103428952
 10
15.7374086565486202
 20
96.5950908750234305
 10
16.1263912310286663
 20
97.9921304103428952
 10
16.474152145400037
 20
97.9921304103428952
 10
15.8423365186434317
 20
95.9985010305415187
  0
LWPOLYLINE
  5
11E
100
AcDbEntity
  8
VectorEngraving
 62
256
370
-1
 48
1.0
  6
BYLAYER
100
AcDbPolyline
 90
9
 70
129
 10
16.6873805508712749
 20
97.9921304103428952
 10
17.0797358066329394
 20
97.9921304103428952
 10
17.0797358066329394
 20
97.9632752482668252
 42
0.1523096199735892
 10
17.0559396664792935
 20
97.9201798763350268
 42
0.0437068677128363
 10
17.0512553869214898
 20
97.8452314034101676
 10
17.0512553869214898
 20
96.2982949222409701
 10
17.9633783024170874
 20
96.2982949222409701
 10
17.9633783024170874
 20
96.0048716507401281
 10
16.6873805508712749
 20
96.0048716507401281
  0
LWPOLYLINE
  5
11F
100
AcDbEntity
  8
VectorEngraving
 62
256
370
-1
 48
1.0
  6
BYLAYER
100
AcDbPolyline
 90
13
 70
129
 10
6.3038317406782829
 20
81.0063706201986093
 10
6.3038317406782829
 20
82.9936293798013764
 10
6.9322746861532689
 20
82.9936293798013764
 42
-0.1905232060051947
 10
7.4647835862844287
 20
82.8341765036537367
 42
-0.2148899109718613
 10
7.6337923927299975
 20
82.4097807757166976
 42
-0.1001913794401165
 10
7.5876990818812056
 20
82.1913059771407148
 42
-0.0965402896310625
 10
7.4569139966273177
 20
81.9951283492598861
 42
-0.1106023788063416
 10
7.2609237399287982
 20
81.8675285741052932
 10
7.6881300356005235
 20
81.0063706201986093
 10
7.3085160202360866
 20
81.0063706201986093
 10
6.9067922053588147
 20
81.8326775341952413
 10
6.6673318343638739
 20
81.8326775341952413
 10
6.6673318343638739
 20
81.0063706201986093
  0
LWPOLYLINE
  5
120
100
AcDbEntity
  8
VectorEngraving
 62
256
370
-1
 48
1.0
  6
BYLAYER
100
AcDbPolyline
 90
7
 70
129
 10
6.6673318343638739
 20
82.1324714258946926
 10
6.9577571669477223
 20
82.1324714258946926
 42
0.1918312228858888
 10
7.187286865280119
 20
82.2042345887202544
 42
0.2154606779080752
 10
7.2639216788457928
 20
82.4004122166010831
 42
0.1955098707729169
 10
7.187286865280119
 20
82.5980888139404072
 42
0.2146607426726567
 10
6.9577571669477223
 20
82.6810942477046922
 10
6.6673318343638739
 20
82.6810942477046922
  0
LWPOLYLINE
  5
121
100
AcDbEntity
  8
VectorEngraving
 62
256
370
-1
 48
1.0
  6
BYLAYER
100
AcDbPolyline
 90
9
 70
129
 10
9.5311129848229328
 20
82.9936293798013764
 10
9.9234682405845973
 20
82.9936293798013764
 10
9.9234682405845973
 20
82.9647742177253065
 42
0.1523096199735839
 10
9.8996721004309531
 20
82.9216788457935081
 42
0.0437068677127702
 10
9.8949878208731477
 20
82.8467303728686488
 10
9.8949878208731477
 20
81.2997938916994514
 10
10.8071107363687453
 20
81.2997938916994514
 10
10.8071107363687453
 20
81.0063706201986093
 10
9.5311129848229328
 20
81.0063706201986093
  0
LWPOLYLINE
  5
122
100
AcDbEntity
  8
VectorEngraving
 62
256
370
-1
 48
1.0
  6
BYLAYER
100
AcDbPolyline
 90
7
 70
129
 10
11.633042908000748
 20
81.0
 10
10.9948566610455298
 20
82.9936293798013764
 10
11.3523608768971318
 20
82.9936293798013764
 10
11.7701986134532497
 20
81.5965898444819118
 10
12.1591811879332941
 20
82.9936293798013764
 10
12.5069421023046647
 20
82.9936293798013764
 10
11.8751264755480594
 20
81.0
  0
LWPOLYLINE
  5
123
100
AcDbEntity
  8
VectorEngraving
 62
256
370
-1
 48
1.0
  6
BYLAYER
100
AcDbPolyline
 90
9
 70
129
 10
12.7201705077759026
 20
82.9936293798013764
 10
13.1125257635375672
 20
82.9936293798013764
 10
13.1125257635375672
 20
82.9647742177253065
 42
0.1523096199736196
 10
13.088729623383923
 20
82.9216788457935081
 42
0.0437068677127844
 10
13.0840453438261175
 20
82.8467303728686488
 10
13.0840453438261175
 20
81.2997938916994514
 10
13.9961682593217152
 20
81.2997938916994514
 10
13.9961682593217152
 20
81.0063706201986093
 10
12.7201705077759026
 20
81.0063706201986093
  0
LWPOLYLINE
  5
124
100
AcDbEntity
  8
VectorEngraving
 62
256
370
-1
 48
1.0
  6
BYLAYER
100
AcDbPolyline
 90
12
 70
129
 10
27.1059677721566459
 20
80.9999999999999858
 10
27.1059677721566459
 20
81.2904253325838368
 10
27.4949503466366885
 20
81.2904253325838368
 10
27.4949503466366885
 20
82.696833427018916
 10
27.1280775716694791
 20
82.696833427018916
 10
27.1280775716694791
 20
82.9872587596027529
 10
28.2253232152894924
 20
82.9872587596027529
 10
28.2253232152894924
 20
82.696833427018916
 10
27.8363406408094463
 20
82.696833427018916
 10
27.8363406408094463
 20
81.2904253325838368
 10
28.2414371369683366
 20
81.2904253325838368
 10
28.2414371369683366
 20
80.9999999999999858
  0
LWPOLYLINE
  5
125
100
AcDbEntity
  8
VectorEngraving
 62
256
370
-1
 48
1.0
  6
BYLAYER
100
AcDbPolyline
 90
13
 70
129
 10
28.5951939291736963
 20
82.9872587596027529
 10
28.9714352632565131
 20
82.9872587596027529
 10
29.6444725501217938
 20
81.6794079070638759
 10
29.6253606895259551
 20
82.9872587596027529
 10
29.9764942851789407
 20
82.9872587596027529
 10
29.9764942851789407
 20
82.9584035975266829
 42
0.1276856979480893
 10
29.9555087127599791
 20
82.9153082255948846
 42
0.0454369266293797
 10
29.9506370620198652
 20
82.8403597526700253
 10
29.9506370620198652
 20
80.9999999999999858
 10
29.6159921304103442
 20
80.9999999999999858
 10
28.9204703016676063
 20
82.3940415964024595
 10
28.9204703016676063
 20
80.9999999999999858
 10
28.5951939291736963
 20
80.9999999999999858
  0
LWPOLYLINE
  5
126
100
AcDbEntity
  8
VectorEngraving
 62
256
370
-1
 48
1.0
  6
BYLAYER
100
AcDbPolyline
 90
13
 70
129
 10
31.8097339329211195
 20
80.9999999999999858
 10
31.8097339329211195
 20
82.9872587596027529
 10
32.4381768783961064
 20
82.9872587596027529
 42
-0.1905232060052005
 10
32.9706857785272618
 20
82.8278058834551132
 42
-0.2148899109718467
 10
33.1396945849728368
 20
82.403410155518074
 42
-0.1001913794400719
 10
33.0936012741240404
 20
82.1849353569420913
 42
-0.0965402896310731
 10
32.962816188870157
 20
81.9887577290612626
 42
-0.1106023788063276
 10
32.7668259321716349
 20
81.8611579539066696
 10
33.1940322278433584
 20
80.9999999999999858
 10
32.8144182124789197
 20
80.9999999999999858
 10
32.4126943976016477
 20
81.8263069139966177
 10
32.1732340266067069
 20
81.8263069139966177
 10
32.1732340266067069
 20
80.9999999999999858
  0
LWPOLYLINE
  5
127
100
AcDbEntity
  8
VectorEngraving
 62
256
370
-1
 48
1.0
  6
BYLAYER
100
AcDbPolyline
 90
7
 70
129
 10
32.1732340266067069
 20
82.1261008056960691
 10
32.463659359190558
 20
82.1261008056960691
 42
0.1918312228859008
 10
32.6931890575229573
 20
82.1978639685216308
 42
0.2154606779080145
 10
32.7698238710886258
 20
82.3940415964024595
 42
0.1955098707729277
 10
32.6931890575229573
 20
82.5917181937417837
 42
0.2146607426726402
 10
32.463659359190558
 20
82.6747236275060686
 10
32.1732340266067069
 20
82.6747236275060686
  0
LWPOLYLINE
  5
128
100
AcDbEntity
  8
VectorEngraving
 62
256
370
-1
 48
1.0
  6
BYLAYER
100
AcDbPolyline
 90
12
 70
129
 10
23.1115889076260075
 20
96.0048716507401139
 10
23.1115889076260075
 20
96.2952969833239649
 10
23.5005714821060536
 20
96.2952969833239649
 10
23.5005714821060536
 20
97.7017050777590441
 10
23.1336987071388442
 20
97.7017050777590441
 10
23.1336987071388442
 20
97.992130410342881
 10
24.230944350758854
 20
97.992130410342881
 10
24.230944350758854
 20
97.7017050777590441
 10
23.8419617762788114
 20
97.7017050777590441
 10
23.8419617762788114
 20
96.2952969833239649
 10
24.2470582724377017
 20
96.2952969833239649
 10
24.2470582724377017
 20
96.0048716507401139
  0
LWPOLYLINE
  5
129
100
AcDbEntity
  8
VectorEngraving
 62
256
370
-1
 48
1.0
  6
BYLAYER
100
AcDbPolyline
 90
13
 70
129
 10
24.6008150646430614
 20
97.992130410342881
 10
24.9770563987258782
 20
97.992130410342881
 10
25.650093685591159
 20
96.684279557804004
 10
25.6309818249953167
 20
97.992130410342881
 10
25.9821154206483058
 20
97.992130410342881
 10
25.9821154206483058
 20
97.963275248266811
 42
0.1276856979475964
 10
25.9611298482293442
 20
97.9201798763350126
 42
0.0454369266294394
 10
25.9562581974892268
 20
97.8452314034101533
 10
25.9562581974892268
 20
96.0048716507401139
 10
25.6216132658797093
 20
96.0048716507401139
 10
24.9260914371369715
 20
97.3989132471425876
 10
24.9260914371369715
 20
96.0048716507401139
 10
24.6008150646430614
 20
96.0048716507401139
  0
LWPOLYLINE
  5
12A
100
AcDbEntity
  8
VectorEngraving
 62
256
370
-1
 48
1.0
  6
BYLAYER
100
AcDbPolyline
 90
9
 70
129
 10
27.8535787895821656
 20
97.992130410342881
 10
28.2459340453438301
 20
97.992130410342881
 10
28.2459340453438301
 20
97.963275248266811
 42
0.1523096199733654
 10
28.2221379051901842
 20
97.9201798763350126
 42
0.0437068677128358
 10
28.2174536256323805
 20
97.8452314034101533
 10
28.2174536256323805
 20
96.2982949222409559
 10
29.1295765411279781
 20
96.2982949222409559
 10
29.1295765411279781
 20
96.0048716507401139
 10
27.8535787895821656
 20
96.0048716507401139
  0
LWPOLYLINE
  5
12B
100
AcDbEntity
  8
VectorEngraving
 62
256
370
-1
 48
1.0
  6
BYLAYER
100
AcDbPolyline
 90
4
 70
129
 10
29.7449035038411118
 20
95.867715945287614
 10
29.4132565111485889
 20
96.0112422709387232
 10
30.3954562488289319
 20
98.132284054712386
 10
30.720732621322842
 20
97.9666479295484294
  0
LWPOLYLINE
  5
12C
100
AcDbEntity
  8
VectorEngraving
 62
256
370
-1
 48
1.0
  6
BYLAYER
100
AcDbPolyline
 90
13
 70
129
 10
30.9628161888701534
 20
96.0048716507401139
 10
30.9628161888701534
 20
97.992130410342881
 10
31.2787240022484561
 20
97.992130410342881
 10
31.6647086378115077
 20
97.0796327524826665
 10
32.0506932733745558
 20
97.9951283492598861
 10
32.3666010867528584
 20
97.9951283492598861
 10
32.3666010867528584
 20
96.0048716507401139
 10
32.0536912122915538
 20
96.0048716507401139
 10
32.0536912122915538
 20
97.3925426269439782
 10
31.7411560801948696
 20
96.6617950159265433
 10
31.5657766535506852
 20
96.6617950159265433
 10
31.2723533820498432
 20
97.3891699456623599
 10
31.2723533820498432
 20
96.0048716507401139
  0
LWPOLYLINE
  5
12D
100
AcDbEntity
  8
VectorEngraving
 62
256
370
-1
 48
1.0
  6
BYLAYER
100
AcDbPolyline
 90
8
 70
129
 10
33.2592373992879899
 20
95.9666479295484294
 42
-0.2591303879110878
 10
32.7042439572793739
 20
96.2345887202548198
 42
-0.1527047570207622
 10
32.5161232902379638
 20
96.9968146899006882
 42
-0.1520552001394138
 10
32.7042439572793739
 20
97.7494847292486355
 42
-0.2609893822229634
 10
33.2592373992879899
 20
98.0206108300543377
 42
-0.2598887638007952
 10
33.8095465617388058
 20
97.7494847292486355
 42
-0.1532357876440861
 10
33.9993535694210252
 20
96.9968146899006882
 42
-0.1538924925182222
 10
33.8095465617388058
 20
96.2345887202548198
 42
-0.2580459804200181
  0
LWPOLYLINE
  5
12E
100
AcDbEntity
  8
VectorEngraving
 62
256
370
-1
 48
1.0
  6
BYLAYER
100
AcDbPolyline
 90
8
 70
129
 10
33.2592373992879899
 20
96.2600712010492856
 42
0.2924199676809211
 10
33.5399194303916062
 20
96.4435075885328814
 42
0.1214329083418751
 10
33.6418493535694267
 20
97.0001873711823066
 42
0.1202673064395644
 10
33.5399194303916062
 20
97.5373805508712763
 42
0.2966022124947426
 10
33.2592373992879899
 20
97.7271875585534957
 42
0.2995688277754401
 10
32.9736837174442599
 20
97.5373805508712763
 42
0.1186384765761675
 10
32.8732527637249419
 20
97.0001873711823066
 42
0.1197837217357337
 10
32.9736837174442599
 20
96.4435075885328814
 42
0.2952609534182521
  0
LWPOLYLINE
  5
12F
100
AcDbEntity
  8
VectorEngraving
 62
256
370
-1
 48
1.0
  6
BYLAYER
100
AcDbPolyline
 90
13
 70
129
 10
34.1679876335019657
 20
97.992130410342881
 10
34.544228967584786
 20
97.992130410342881
 10
35.2172662544500668
 20
96.684279557804004
 10
35.1981543938542245
 20
97.992130410342881
 10
35.5492879895072136
 20
97.992130410342881
 10
35.5492879895072136
 20
97.963275248266811
 42
0.1276856979476582
 10
35.5283024170882555
 20
97.9201798763350126
 42
0.0454369266293937
 10
35.5234307663481417
 20
97.8452314034101533
 10
35.5234307663481417
 20
96.0048716507401139
 10
35.1887858347386171
 20
96.0048716507401139
 10
34.4932640059958828
 20
97.3989132471425876
 10
34.4932640059958828
 20
96.0048716507401139
 10
34.1679876335019657
 20
96.0048716507401139
  0
LWPOLYLINE
  5
130
100
AcDbEntity
  8
VectorEngraving
 62
256
370
-1
 48
1.0
  6
BYLAYER
100
AcDbPolyline
 90
8
 70
129
 10
36.4482949222409616
 20
95.9666479295484294
 42
-0.2591303879110909
 10
35.8933014802323385
 20
96.2345887202548198
 42
-0.1527047570207395
 10
35.7051808131909354
 20
96.9968146899006882
 42
-0.1520552001394072
 10
35.8933014802323385
 20
97.7494847292486355
 42
-0.2609893822229533
 10
36.4482949222409616
 20
98.0206108300543377
 42
-0.2598887638007965
 10
36.9986040846917774
 20
97.7494847292486355
 42
-0.1532357876440907
 10
37.1884110923739968
 20
96.9968146899006882
 42
-0.153892492518221
 10
36.9986040846917774
 20
96.2345887202548198
 42
-0.2580459804200169
  0
LWPOLYLINE
  5
131
100
AcDbEntity
  8
VectorEngraving
 62
256
370
-1
 48
1.0
  6
BYLAYER
100
AcDbPolyline
 90
8
 70
129
 10
36.4482949222409616
 20
96.2600712010492998
 42
0.2924199676809134
 10
36.7289769533445778
 20
96.4435075885328814
 42
0.121432908341846
 10
36.8309068765223913
 20
97.0001873711823066
 42
0.1202673064395426
 10
36.7289769533445778
 20
97.5373805508712763
 42
0.2966022124947389
 10
36.4482949222409616
 20
97.7271875585534957
 42
0.2995688277754249
 10
36.1627412403972315
 20
97.5373805508712763
 42
0.1186384765761928
 10
36.0623102866779135
 20
97.0001873711823066
 42
0.1197837217357609
 10
36.1627412403972315
 20
96.4435075885328814
 42
0.2952609534182634
  0
LWPOLYLINE
  5
132
100
AcDbEntity
  8
VectorEngraving
 62
256
370
-1
 48
1.0
  6
BYLAYER
100
AcDbPolyline
 90
39
 70
129
 10
4.5698988195615504
 20
29.4640247329960623
 42
-0.082458936378227
 10
4.0122821810005611
 20
29.5525576166385591
 42
-0.1239231858746572
 10
3.5794547498594724
 20
29.8232152894884734
 10
3.8425238898257454
 20
30.26784710511523
 10
3.8616357504215841
 20
30.306070826306911
 10
3.9049184935356926
 20
30.2824620573355787
 42
0.0468697015839747
 10
3.9310567734682387
 20
30.2082630691399636
 42
0.0914502355627895
 10
4.0049747048903868
 20
30.1194491287239998
 42
0.0681594634041891
 10
4.2705733558178753
 20
29.9713322091062366
 42
0.0950027158644989
 10
4.5890106801573918
 20
29.9137155705452464
 42
0.1544690761801741
 10
4.9549465992130415
 20
30.0118043844856643
 42
0.2606540762175748
 10
5.0960370994940973
 20
30.301573917931421
 42
0.1208512743437833
 10
5.0530354131534558
 20
30.4808881394041578
 42
0.1219613454319125
 10
4.8832771219786402
 20
30.6506464305789734
 42
0.038254059290397
 10
4.5075042158516023
 20
30.8518830803822368
 42
-0.05810748288491
 10
4.0218381112984813
 20
31.1219786396852136
 42
-0.120042775226777
 10
3.7660764474423836
 20
31.4187745924676776
 42
-0.1126833292539362
 10
3.6896290050590217
 20
31.7799325463743614
 42
-0.1592312928671685
 10
3.8116076447442389
 20
32.1722878021360259
 42
-0.1317713073948294
 10
4.148875772906127
 20
32.4449128724002236
 42
-0.1105525077854762
 10
4.6418493535694214
 20
32.5455311973018553
 42
-0.2184592046670057
 10
5.5457279370432815
 20
32.1627318718381119
 10
5.2298201236649806
 20
31.7990444069702072
 10
5.201152332771219
 20
31.7658797077009538
 10
5.1629286115795381
 20
31.7945474985947136
 42
0.0525272950835059
 10
5.1463462619449132
 20
31.8684654300168617
 42
0.0946983163544899
 10
5.0819842608206862
 20
31.9614952220348485
 42
0.1239145974077667
 10
4.888055087127599
 20
32.0767284991568289
 42
0.067480265751854
 10
4.6463462619449132
 20
32.1053962900505852
 42
0.1710695699774067
 10
4.3352164137155711
 20
32.0143338954468817
 42
0.2395241755843856
 10
4.2202641933670595
 20
31.8041034288926348
 42
0.1315107380141029
 10
4.2635469364811698
 20
31.6315345699831347
 42
0.1136957301831434
 10
4.4383642495784148
 20
31.4690837549184899
 42
0.0383547771664802
 10
4.8425238898257454
 20
31.26335019673974
 42
-0.0534254991441764
 10
5.3161045531197288
 20
30.9929735806632927
 42
-0.1275968227178091
 10
5.5578133783024164
 20
30.7034851039910031
 42
-0.1042366901074438
 10
5.6272344013490709
 20
30.3353007307476084
 42
-0.127980195942381
 10
5.5170601461495217
 20
29.918493535694207
 42
-0.1467899336018083
 10
5.1724845418774592
 20
29.59078133783024
 42
-0.1239665239213957
  0
LWPOLYLINE
  5
133
100
AcDbEntity
  8
VectorEngraving
 62
256
370
-1
 48
1.0
  6
BYLAYER
100
AcDbPolyline
 90
8
 70
129
 10
6.7177346824058457
 20
29.5168634064080919
 10
6.7177346824058457
 20
32.0430016863406379
 10
5.913912310286678
 20
32.0430016863406379
 10
5.913912310286678
 20
32.4977515458122497
 10
8.0814221472737486
 20
32.4977515458122497
 10
8.0814221472737486
 20
32.0430016863406379
 10
7.2343170320404724
 20
32.0430016863406379
 10
7.2343170320404724
 20
29.5168634064080919
  0
LWPOLYLINE
  5
134
100
AcDbEntity
  8
VectorEngraving
 62
256
370
-1
 48
1.0
  6
BYLAYER
100
AcDbPolyline
 90
12
 70
129
 10
8.4394884766722882
 20
29.5168634064080919
 10
8.4394884766722882
 20
32.4977515458122497
 10
10.3821528948847668
 20
32.4977515458122497
 10
10.3821528948847668
 20
32.0576166385609866
 10
8.9656267566048342
 20
32.0576166385609866
 10
8.9656267566048342
 20
31.2920179876334998
 10
10.1286396852164131
 20
31.2920179876334998
 10
10.1286396852164131
 20
30.8468240584598057
 10
8.9656267566048342
 20
30.8468240584598057
 10
8.9656267566048342
 20
29.9569983136593585
 10
10.3675379426644163
 20
29.9569983136593585
 10
10.3675379426644163
 20
29.5168634064080919
  0
LWPOLYLINE
  5
135
100
AcDbEntity
  8
VectorEngraving
 62
256
370
-1
 48
1.0
  6
BYLAYER
100
AcDbPolyline
 90
13
 70
129
 10
10.8026138279932535
 20
29.5168634064080919
 10
10.8026138279932535
 20
32.4977515458122497
 10
11.7452782462057321
 20
32.4977515458122497
 42
-0.1905232060051806
 10
12.5440415964024723
 20
32.2585722315907759
 42
-0.2148899109718831
 10
12.797554806070826
 20
31.6219786396852136
 42
-0.1001913794400981
 10
12.7284148397976384
 20
31.2942664418212466
 42
-0.0965402896310493
 10
12.5322372119168062
 20
30.9999999999999964
 42
-0.11060237880636
 10
12.2382518268690266
 20
30.8086003372681247
 10
12.8790612703766154
 20
29.5168634064080919
 10
12.3096402473299591
 20
29.5168634064080919
 10
11.7070545250140512
 20
30.7563237774030327
 10
11.34786396852164
 20
30.7563237774030327
 10
11.34786396852164
 20
29.5168634064080919
  0
LWPOLYLINE
  5
136
100
AcDbEntity
  8
VectorEngraving
 62
256
370
-1
 48
1.0
  6
BYLAYER
100
AcDbPolyline
 90
7
 70
129
 10
11.34786396852164
 20
31.2060146149522168
 10
11.7835019673974131
 20
31.2060146149522168
 42
0.1918312228859876
 10
12.1277965148960085
 20
31.3136593591905523
 42
0.2154606779080464
 10
12.2427487352445183
 20
31.6079258010118025
 42
0.1955098707729282
 10
12.1277965148960085
 20
31.9044406970207959
 42
0.2146607426726847
 10
11.7835019673974131
 20
32.0289488476672233
 10
11.34786396852164
 20
32.0289488476672233
  0
LWPOLYLINE
  5
137
100
AcDbEntity
  8
VectorEngraving
 62
256
370
-1
 48
1.0
  6
BYLAYER
100
AcDbPolyline
 90
12
 70
129
 10
13.2230747611017421
 20
29.5168634064080919
 10
13.2230747611017421
 20
32.4977515458122497
 10
15.1657391793142207
 20
32.4977515458122497
 10
15.1657391793142207
 20
32.0576166385609866
 10
13.7492130410342881
 20
32.0576166385609866
 10
13.7492130410342881
 20
31.2920179876334998
 10
14.9122259696458688
 20
31.2920179876334998
 10
14.9122259696458688
 20
30.8468240584598057
 10
13.7492130410342881
 20
30.8468240584598057
 10
13.7492130410342881
 20
29.9569983136593585
 10
15.151124227093872
 20
29.9569983136593585
 10
15.151124227093872
 20
29.5168634064080919
  0
LWPOLYLINE
  5
138
100
AcDbEntity
  8
VectorEngraving
 62
256
370
-1
 48
1.0
  6
BYLAYER
100
AcDbPolyline
 90
8
 70
129
 10
16.5766441821247881
 20
29.4595278246205723
 42
-0.2591303879110543
 10
15.7441540191118605
 20
29.8614390106801544
 42
-0.1527047570207497
 10
15.4619730185497453
 20
31.004777965148957
 42
-0.1520552001393969
 10
15.7441540191118605
 20
32.1337830241708815
 42
-0.2609893822229465
 10
16.5766441821247881
 20
32.5404721753794206
 42
-0.2598887638008171
 10
17.4021079258010118
 20
32.1337830241708815
 42
-0.1532357876440745
 10
17.6868184373243409
 20
31.004777965148957
 42
-0.1538924925182115
 10
17.4021079258010118
 20
29.8614390106801544
 42
-0.2580459804199817
  0
LWPOLYLINE
  5
139
100
AcDbEntity
  8
VectorEngraving
 62
256
370
-1
 48
1.0
  6
BYLAYER
100
AcDbPolyline
 90
8
 70
129
 10
16.5766441821247881
 20
29.8996627318718247
 42
0.2924199676809662
 10
16.9976672287802124
 20
30.1748173130972432
 42
0.1214329083418467
 10
17.1505621135469362
 20
31.009836987071381
 42
0.1202673064395502
 10
16.9976672287802124
 20
31.8156267566048321
 42
0.296602212494715
 10
16.5766441821247881
 20
32.1003372681281576
 42
0.2995688277754049
 10
16.1483136593591894
 20
31.8156267566048321
 42
0.1186384765761821
 10
15.9976672287802124
 20
31.0098369870713846
 42
0.1197837217357327
 10
16.1483136593591894
 20
30.1748173130972432
 42
0.295260953418297
  0
LWPOLYLINE
  5
13A
100
AcDbEntity
  8
VectorEngraving
 62
256
370
-1
 48
1.0
  6
BYLAYER
100
AcDbPolyline
 90
8
 70
129
 10
21.360230466554242
 20
29.4595278246205723
 42
-0.2591303879110543
 10
20.5277403035413144
 20
29.8614390106801544
 42
-0.1527047570207434
 10
20.2455593029791991
 20
31.0047779651489535
 42
-0.1520552001393945
 10
20.5277403035413144
 20
32.1337830241708815
 42
-0.2609893822229549
 10
21.360230466554242
 20
32.5404721753794206
 42
-0.2598887638008171
 10
22.1856942102304657
 20
32.1337830241708815
 42
-0.1532357876440713
 10
22.4704047217537912
 20
31.004777965148957
 42
-0.1538924925182067
 10
22.1856942102304657
 20
29.8614390106801544
 42
-0.2580459804199793
  0
LWPOLYLINE
  5
13B
100
AcDbEntity
  8
VectorEngraving
 62
256
370
-1
 48
1.0
  6
BYLAYER
100
AcDbPolyline
 90
8
 70
129
 10
21.360230466554242
 20
29.8996627318718353
 42
0.2924199676809667
 10
21.7812535132096663
 20
30.1748173130972432
 42
0.1214329083418487
 10
21.93414839797639
 20
31.0098369870713846
 42
0.1202673064395496
 10
21.7812535132096663
 20
31.8156267566048321
 42
0.296602212494725
 10
21.360230466554242
 20
32.1003372681281576
 42
0.2995688277754111
 10
20.9318999437886433
 20
31.8156267566048321
 42
0.1186384765761831
 10
20.7812535132096663
 20
31.0098369870713846
 42
0.1197837217357335
 10
20.9318999437886433
 20
30.1748173130972432
 42
0.2952609534182933
  0
LWPOLYLINE
  5
13C
100
AcDbEntity
  8
VectorEngraving
 62
256
370
-1
 48
1.0
  6
BYLAYER
100
AcDbPolyline
 90
17
 70
129
 10
23.7424676784710513
 20
29.4544688026981447
 42
-0.2187932598690943
 10
22.9838954468802683
 20
29.7464867903316446
 42
-0.1902783405960075
 10
22.7182967959527815
 20
30.5601461495221969
 10
22.7182967959527815
 20
32.4977515458122497
 10
23.2972737492973572
 20
32.4977515458122497
 10
23.2972737492973572
 20
32.4544688026981447
 42
0.124616546375815
 10
23.2663575042158506
 20
32.3898257448004472
 42
0.0454369266294268
 10
23.2590500281056762
 20
32.2774030354131511
 10
23.2590500281056762
 20
30.5550871275997729
 42
0.1333400107448155
 10
23.3644463181562685
 20
30.0716694772343978
 42
0.2785909262070658
 10
23.7469645868465449
 20
29.8946037099494077
 42
0.2726441709264422
 10
24.1348229342327159
 20
30.0716694772343978
 42
0.1376862884248656
 10
24.2449971894322616
 20
30.5697020798201216
 10
24.2449971894322616
 20
32.4977515458122497
 10
24.7711354693648111
 20
32.4977515458122497
 10
24.7711354693648111
 20
30.5741989881956115
 42
-0.2083302145650351
 10
24.4841765036537353
 20
29.7273749297358023
 42
-0.1989968553203961
  0
LWPOLYLINE
  5
13D
100
AcDbEntity
  8
VectorEngraving
 62
256
370
-1
 48
1.0
  6
BYLAYER
100
AcDbPolyline
 90
8
 70
129
 10
25.852079820123663
 20
29.5168634064080919
 10
25.852079820123663
 20
32.0430016863406379
 10
25.0482574480044953
 20
32.0430016863406379
 10
25.0482574480044953
 20
32.4977515458122497
 10
27.2157672849915677
 20
32.4977515458122497
 10
27.2157672849915677
 20
32.0430016863406379
 10
26.3686621697582915
 20
32.0430016863406379
 10
26.3686621697582915
 20
29.5168634064080919
  0
LWPOLYLINE
  5
13E
100
AcDbEntity
  8
VectorEngraving
 62
256
370
-1
 48
1.0
  6
BYLAYER
100
AcDbPolyline
 90
11
 70
129
 10
27.5597807757166926
 20
29.5168634064080919
 10
27.5597807757166926
 20
32.4977515458122497
 10
28.5738336143901037
 20
32.4977515458122497
 42
-0.1226157369347656
 10
29.1432546374367618
 20
32.3780213603147828
 42
-0.1499740507230544
 10
29.4757448004496894
 20
32.0598650927487299
 42
-0.1268020082315277
 10
29.5833895446880248
 20
31.6219786396852172
 42
-0.1268596194923115
 10
29.4782743114109032
 20
31.1939291736930855
 42
-0.1500081120373158
 10
29.1528105677346829
 20
30.8830803822372104
 42
-0.1226248171483351
 10
28.5980044969083735
 20
30.7658797077009538
 10
28.1095278246205709
 20
30.7658797077009538
 10
28.1095278246205709
 20
29.5168634064080919
  0
LWPOLYLINE
  5
13F
100
AcDbEntity
  8
VectorEngraving
 62
256
370
-1
 48
1.0
  6
BYLAYER
100
AcDbPolyline
 90
7
 70
129
 10
28.1095278246205709
 20
31.215570545250138
 10
28.5597807757166962
 20
31.215570545250138
 42
0.1964422541879279
 10
28.9088532883642486
 20
31.3302417088251808
 42
0.2132598586825664
 10
29.0285834738617226
 20
31.6219786396852136
 42
0.2129058125030552
 10
28.9088532883642486
 20
31.913996627318717
 42
0.19733022808167
 10
28.5642776840921861
 20
32.0289488476672233
 10
28.1095278246205709
 20
32.0289488476672233
  0
LWPOLYLINE
  5
140
100
AcDbEntity
  8
VectorEngraving
 62
256
370
-1
 48
1.0
  6
BYLAYER
100
AcDbPolyline
 90
17
 70
129
 10
30.9178471051152322
 20
29.4544688026981447
 42
-0.2187932598690943
 10
30.1592748735244491
 20
29.7464867903316446
 42
-0.1902783405960037
 10
29.8936762225969659
 20
30.5601461495222004
 10
29.8936762225969659
 20
32.4977515458122497
 10
30.4726531759415415
 20
32.4977515458122497
 10
30.4726531759415415
 20
32.4544688026981447
 42
0.124616546375918
 10
30.441736930860035
 20
32.3898257448004472
 42
0.0454369266294237
 10
30.4344294547498606
 20
32.2774030354131511
 10
30.4344294547498606
 20
30.5550871275997729
 42
0.1333400107448022
 10
30.5398257448004458
 20
30.0716694772343978
 42
0.2785909262070538
 10
30.9223440134907221
 20
29.8946037099494077
 42
0.2726441709264275
 10
31.3102023608769002
 20
30.0716694772343978
 42
0.1376862884248574
 10
31.4203766160764459
 20
30.5697020798201216
 10
31.4203766160764459
 20
32.4977515458122497
 10
31.946514896008992
 20
32.4977515458122497
 10
31.946514896008992
 20
30.5741989881956115
 42
-0.2083302145650365
 10
31.6595559302979197
 20
29.7273749297358023
 42
-0.1989968553203952
  0
LWPOLYLINE
  5
141
100
AcDbEntity
  8
VectorEngraving
 62
256
370
-1
 48
1.0
  6
BYLAYER
100
AcDbPolyline
 90
8
 70
129
 10
33.0274592467678474
 20
29.5168634064080919
 10
33.0274592467678474
 20
32.0430016863406379
 10
32.2236368746486761
 20
32.0430016863406379
 10
32.2236368746486761
 20
32.4977515458122497
 10
34.3911467116357485
 20
32.4977515458122497
 10
34.3911467116357485
 20
32.0430016863406379
 10
33.5440415964024723
 20
32.0430016863406379
 10
33.5440415964024723
 20
29.5168634064080919
  0
LWPOLYLINE
  5
142
100
AcDbEntity
  8
VectorEngraving
 62
256
370
-1
 48
1.0
  6
BYLAYER
100
AcDbPolyline
 90
39
 70
129
 10
35.6632096683530051
 20
29.4640247329960587
 42
-0.0824589363782335
 10
35.1055930297920185
 20
29.5525576166385591
 42
-0.1239231858746613
 10
34.6727655986509262
 20
29.8232152894884734
 10
34.9358347386172028
 20
30.26784710511523
 10
34.9549465992130379
 20
30.306070826306911
 10
34.99822934232715
 20
30.2824620573355787
 42
0.0468697015839509
 10
35.024367622259696
 20
30.2082630691399636
 42
0.0914502355628053
 10
35.0982855536818406
 20
30.1194491287239998
 42
0.0681594634041806
 10
35.3638842046093345
 20
29.9713322091062366
 42
0.0950027158645049
 10
35.6823215289488473
 20
29.9137155705452464
 42
0.1544690761801618
 10
36.0482574480044988
 20
30.0118043844856643
 42
0.2606540762175752
 10
36.1893479482855582
 20
30.301573917931421
 42
0.1208512743437538
 10
36.1463462619449132
 20
30.4808881394041578
 42
0.1219613454318959
 10
35.9765879707700975
 20
30.6506464305789734
 42
0.0382540592903829
 10
35.6008150646430579
 20
30.8518830803822368
 42
-0.0581074828849155
 10
35.1151489600899396
 20
31.1219786396852136
 42
-0.1200427752267682
 10
34.8593872962338338
 20
31.4187745924676776
 42
-0.1126833292539479
 10
34.782939853850479
 20
31.7799325463743578
 42
-0.1592312928671772
 10
34.9049184935356962
 20
32.1722878021360259
 42
-0.1317713073948476
 10
35.2421866216975843
 20
32.4449128724002236
 42
-0.110552507785482
 10
35.7351602023608734
 20
32.5455311973018553
 42
-0.2184592046670058
 10
36.6390387858347353
 20
32.1627318718381119
 10
36.3231309724564397
 20
31.7990444069702072
 10
36.2944631815626764
 20
31.7658797077009538
 10
36.2562394603709919
 20
31.7945474985947136
 42
0.0525272950837168
 10
36.239657110736367
 20
31.8684654300168617
 42
0.094698316354512
 10
36.1752951096121365
 20
31.9614952220348485
 42
0.1239145974077899
 10
35.9813659359190581
 20
32.0767284991568289
 42
0.067480265751847
 10
35.739657110736367
 20
32.1053962900505852
 42
0.1710695699774065
 10
35.4285272625070249
 20
32.0143338954468817
 42
0.2395241755844089
 10
35.3135750421585186
 20
31.8041034288926348
 42
0.1315107380140748
 10
35.3568577852726236
 20
31.6315345699831347
 42
0.1136957301831168
 10
35.5316750983698668
 20
31.4690837549184899
 42
0.0383547771664753
 10
35.9358347386171957
 20
31.26335019673974
 42
-0.0534254991441758
 10
36.4094154019111897
 20
30.9929735806632927
 42
-0.1275968227177974
 10
36.6511242270938737
 20
30.7034851039910031
 42
-0.1042366901074267
 10
36.7205452501405247
 20
30.3353007307476084
 42
-0.1279801959423749
 10
36.610370994940979
 20
29.918493535694207
 42
-0.1467899336018187
 10
36.265795390668913
 20
29.59078133783024
 42
-0.1239665239214002
  0
ENDSEC
  0
SECTION
  2
OBJECTS
  0
DICTIONARY
  5
C
100
AcDbDictionary
280
0
281
1
  3
ACAD_GROUP
350
D
  3
ACAD_LAYOUT
350
1A
  3
ACAD_MLINESTYLE
350
17
  3
ACAD_PLOTSETTINGS
350
19
  3
ACAD_PLOTSTYLENAME
350
E
  3
AcDbVariableDictionary
350
143
  3
QCAD_OBJECTS
350
144
  0
DICTIONARY
  5
D
100
AcDbDictionary
280
0
281
1
  0
ACDBDICTIONARYWDFLT
  5
E
100
AcDbDictionary
281
1
  3
Normal
350
F
100
AcDbDictionaryWithDefault
340
F
  0
ACDBPLACEHOLDER
  5
F
  0
DICTIONARY
  5
17
100
AcDbDictionary
280
0
281
1
  3
Standard
350
18
  0
MLINESTYLE
  5
18
100
AcDbMlineStyle
  2
STANDARD
 70
0
  3

 62
256
 51
90.0
 52
90.0
 71
2
 49
0.5
 62
256
  6
BYLAYER
 49
-0.5
 62
256
  6
BYLAYER
  0
DICTIONARY
  5
19
100
AcDbDictionary
280
0
281
1
  0
DICTIONARY
  5
1A
100
AcDbDictionary
281
1
  3
Layout1
350
1E
  3
Layout2
350
26
  3
Model
350
22
  0
LAYOUT
  5
1E
100
AcDbPlotSettings
  1

  2
none_device
  4

  6

 40
0.0
 41
0.0
 42
0.0
 43
0.0
 44
0.0
 45
0.0
 46
0.0
 47
0.0
 48
0.0
 49
0.0
140
0.0
141
0.0
142
1.0
143
1.0
 70
688
 72
0
 73
0
 74
5
  7

 75
16
147
1.0
148
0.0
149
0.0
100
AcDbLayout
  1
Layout1
 70
1
 71
1
 10
0.0
 20
0.0
 11
420.0
 21
297.0
 12
0.0
 22
0.0
 32
0.0
 14
100000000000000000000.0
 24
100000000000000000000.0
 34
100000000000000000000.0
 15
-100000000000000000000.0
 25
-100000000000000000000.0
 35
-100000000000000000000.0
146
0.0
 13
0.0
 23
0.0
 33
0.0
 16
1.0
 26
0.0
 36
0.0
 17
0.0
 27
1.0
 37
0.0
 76
0
330
1B
  0
LAYOUT
  5
22
100
AcDbPlotSettings
  1

  2
none_device
  4

  6

 40
0.0
 41
0.0
 42
0.0
 43
0.0
 44
0.0
 45
0.0
 46
0.0
 47
0.0
 48
0.0
 49
0.0
140
0.0
141
0.0
142
1.0
143
1.0
 70
1712
 72
0
 73
0
 74
0
  7

 75
0
147
1.0
148
0.0
149
0.0
100
AcDbLayout
  1
Model
 70
1
 71
0
 10
0.0
 20
0.0
 11
12.0
 21
9.0
 12
0.0
 22
0.0
 32
0.0
 14
0.0
 24
0.0
 34
0.0
 15
0.0
 25
0.0
 35
0.0
146
0.0
 13
0.0
 23
0.0
 33
0.0
 16
1.0
 26
0.0
 36
0.0
 17
0.0
 27
1.0
 37
0.0
 76
0
330
1F
  0
LAYOUT
  5
26
100
AcDbPlotSettings
  1

  2
none_device
  4

  6

 40
0.0
 41
0.0
 42
0.0
 43
0.0
 44
0.0
 45
0.0
 46
0.0
 47
0.0
 48
0.0
 49
0.0
140
0.0
141
0.0
142
1.0
143
1.0
 70
688
 72
0
 73
0
 74
5
  7

 75
16
147
1.0
148
0.0
149
0.0
100
AcDbLayout
  1
Layout2
 70
1
 71
2
 10
0.0
 20
0.0
 11
12.0
 21
9.0
 12
0.0
 22
0.0
 32
0.0
 14
0.0
 24
0.0
 34
0.0
 15
0.0
 25
0.0
 35
0.0
146
0.0
 13
0.0
 23
0.0
 33
0.0
 16
1.0
 26
0.0
 36
0.0
 17
0.0
 27
1.0
 37
0.0
 76
0
330
23
  0
DICTIONARY
  5
143
100
AcDbDictionary
281
1
  3
DIMASSOC
350
146
  3
HIDETEXT
350
145
  0
DICTIONARYVAR
  5
145
100
DictionaryVariables
280
0
  1
2
  0
DICTIONARYVAR
  5
146
100
DictionaryVariables
280
0
  1
1
  0
DICTIONARY
  5
144
100
AcDbDictionary
281
1
  3
ColorSettings/BackgroundColor
350
147
  3
ColorSettings/ColorMode
350
148
  3
Grid/DisplayGrid00
350
149
  3
Grid/DisplayGrid01
350
14A
  3
Grid/DisplayGrid02
350
14B
  3
Grid/DisplayGrid03
350
14C
  3
Grid/GridSpacingX00
350
14D
  3
Grid/GridSpacingX01
350
14E
  3
Grid/GridSpacingX02
350
14F
  3
Grid/GridSpacingX03
350
150
  3
Grid/GridSpacingY00
350
151
  3
Grid/GridSpacingY01
350
152
  3
Grid/GridSpacingY02
350
153
  3
Grid/GridSpacingY03
350
154
  3
Grid/IsometricGrid00
350
155
  3
Grid/IsometricGrid01
350
156
  3
Grid/IsometricGrid02
350
157
  3
Grid/IsometricGrid03
350
158
  3
Grid/IsometricProjection00
350
159
  3
Grid/IsometricProjection01
350
15A
  3
Grid/IsometricProjection02
350
15B
  3
Grid/IsometricProjection03
350
15C
  3
Grid/MetaGridSpacingX00
350
15D
  3
Grid/MetaGridSpacingX01
350
15E
  3
Grid/MetaGridSpacingX02
350
15F
  3
Grid/MetaGridSpacingX03
350
160
  3
Grid/MetaGridSpacingY00
350
161
  3
Grid/MetaGridSpacingY01
350
162
  3
Grid/MetaGridSpacingY02
350
163
  3
Grid/MetaGridSpacingY03
350
164
  3
MultiPageSettings/Columns
350
165
  3
MultiPageSettings/GlueMarginsBottom
350
166
  3
MultiPageSettings/GlueMarginsLeft
350
167
  3
MultiPageSettings/GlueMarginsRight
350
168
  3
MultiPageSettings/GlueMarginsTop
350
169
  3
MultiPageSettings/PrintCropMarks
350
16A
  3
MultiPageSettings/Rows
350
16B
  3
PageSettings/OffsetX
350
16C
  3
PageSettings/OffsetY
350
16D
  3
PageSettings/PageOrientation
350
16E
  3
PageSettings/PaperHeight
350
16F
  3
PageSettings/PaperWidth
350
170
  3
PageSettings/Scale
350
171
  3
PageSettings/ShowPaperBorders
350
172
  3
PageTagSettings/EnablePageTags
350
173
  3
PageTagSettings/TagAlignment
350
174
  3
PageTagSettings/TagFont
350
175
  3
PageTagSettings/TagPosition
350
176
  3
QCADVersion
350
177
  3
UnitSettings/PaperUnit
350
178
  3
ViewportCenter
350
179
  3
ViewportHeight
350
17A
  3
ViewportWidth
350
17B
  0
XRECORD
  5
147
330
144
100
AcDbXrecord
280
1
1000
White
  0
XRECORD
  5
148
330
144
100
AcDbXrecord
280
1
1000
FullColor
  0
XRECORD
  5
149
330
144
100
AcDbXrecord
280
1
290
1
  0
XRECORD
  5
14A
330
144
100
AcDbXrecord
280
1
290
1
  0
XRECORD
  5
14B
330
144
100
AcDbXrecord
280
1
290
1
  0
XRECORD
  5
14C
330
144
100
AcDbXrecord
280
1
290
1
  0
XRECORD
  5
14D
330
144
100
AcDbXrecord
280
1
1000
auto
  0
XRECORD
  5
14E
330
144
100
AcDbXrecord
280
1
1000
auto
  0
XRECORD
  5
14F
330
144
100
AcDbXrecord
280
1
1000
auto
  0
XRECORD
  5
150
330
144
100
AcDbXrecord
280
1
1000
auto
  0
XRECORD
  5
151
330
144
100
AcDbXrecord
280
1
1000
auto
  0
XRECORD
  5
152
330
144
100
AcDbXrecord
280
1
1000
auto
  0
XRECORD
  5
153
330
144
100
AcDbXrecord
280
1
1000
auto
  0
XRECORD
  5
154
330
144
100
AcDbXrecord
280
1
1000
auto
  0
XRECORD
  5
155
330
144
100
AcDbXrecord
280
1
290
0
  0
XRECORD
  5
156
330
144
100
AcDbXrecord
280
1
290
0
  0
XRECORD
  5
157
330
144
100
AcDbXrecord
280
1
290
0
  0
XRECORD
  5
158
330
144
100
AcDbXrecord
280
1
290
0
  0
XRECORD
  5
159
330
144
100
AcDbXrecord
280
1
 90
65537
  0
XRECORD
  5
15A
330
144
100
AcDbXrecord
280
1
 90
65537
  0
XRECORD
  5
15B
330
144
100
AcDbXrecord
280
1
 90
65537
  0
XRECORD
  5
15C
330
144
100
AcDbXrecord
280
1
 90
65537
  0
XRECORD
  5
15D
330
144
100
AcDbXrecord
280
1
1000
auto
  0
XRECORD
  5
15E
330
144
100
AcDbXrecord
280
1
1000
auto
  0
XRECORD
  5
15F
330
144
100
AcDbXrecord
280
1
1000
auto
  0
XRECORD
  5
160
330
144
100
AcDbXrecord
280
1
1000
auto
  0
XRECORD
  5
161
330
144
100
AcDbXrecord
280
1
1000
auto
  0
XRECORD
  5
162
330
144
100
AcDbXrecord
280
1
1000
auto
  0
XRECORD
  5
163
330
144
100
AcDbXrecord
280
1
1000
auto
  0
XRECORD
  5
164
330
144
100
AcDbXrecord
280
1
1000
auto
  0
XRECORD
  5
165
330
144
100
AcDbXrecord
280
1
 90
1
  0
XRECORD
  5
166
330
144
100
AcDbXrecord
280
1
 40
10.0
  0
XRECORD
  5
167
330
144
100
AcDbXrecord
280
1
 40
10.0
  0
XRECORD
  5
168
330
144
100
AcDbXrecord
280
1
 40
10.0
  0
XRECORD
  5
169
330
144
100
AcDbXrecord
280
1
 40
10.0
  0
XRECORD
  5
16A
330
144
100
AcDbXrecord
280
1
290
0
  0
XRECORD
  5
16B
330
144
100
AcDbXrecord
280
1
 90
1
  0
XRECORD
  5
16C
330
144
100
AcDbXrecord
280
1
 40
0.0
  0
XRECORD
  5
16D
330
144
100
AcDbXrecord
280
1
 40
0.0
  0
XRECORD
  5
16E
330
144
100
AcDbXrecord
280
1
1000
Portrait
  0
XRECORD
  5
16F
330
144
100
AcDbXrecord
280
1
 40
297.0
  0
XRECORD
  5
170
330
144
100
AcDbXrecord
280
1
 40
210.0
  0
XRECORD
  5
171
330
144
100
AcDbXrecord
280
1
1000
1:1
  0
XRECORD
  5
172
330
144
100
AcDbXrecord
280
1
290
1
  0
XRECORD
  5
173
330
144
100
AcDbXrecord
280
1
290
0
  0
XRECORD
  5
174
330
144
100
AcDbXrecord
280
1
1000
Inside
  0
XRECORD
  5
175
330
144
100
AcDbXrecord
280
1
1000
Arial,10,-1,5,50,0,0,0,0,0
  0
XRECORD
  5
176
330
144
100
AcDbXrecord
280
1
1000
TopLeft
  0
XRECORD
  5
177
330
144
100
AcDbXrecord
280
1
1000
3.27.6.7
  0
XRECORD
  5
178
330
144
100
AcDbXrecord
280
1
 90
4
  0
XRECORD
  5
17A
330
144
100
AcDbXrecord
280
1
 40
176.7096074186778765
  0
XRECORD
  5
17B
330
144
100
AcDbXrecord
280
1
 40
365.5344670599879464
  0
ENDSEC
  0
EOF
