<?xml version="1.0" standalone="no"?>
 <!DOCTYPE svg PUBLIC "-//W3C//DTD SVG 1.1//EN" 
 "http://www.w3.org/Graphics/SVG/1.1/DTD/svg11.dtd"> 
<svg
  xmlns:svg="http://www.w3.org/2000/svg"
  xmlns="http://www.w3.org/2000/svg"
  xmlns:xlink="http://www.w3.org/1999/xlink"
  version="1.1"
  width="5.062220cm" height="12.862560cm" viewBox="0 0 50622200 128625600">
<title>SVG Picture created as -F_Silkscreen.svg date 2022/10/19 20:11:13 </title>
  <desc>Picture generated by PCBNEW </desc>
<g style="fill:#000000; fill-opacity:1.000000;stroke:#000000; stroke-opacity:1.000000;
stroke-linecap:round; stroke-linejoin:round;"
 transform="translate(0 0) scale(1 1)">
</g>
<g style="fill:#000000; fill-opacity:0.0; 
stroke:#000000; stroke-width:0.000000; stroke-opacity:1; 
stroke-linecap:round; stroke-linejoin:round;">
<g >
</g>
<g >
</g>
<g >
</g>
</g>
<g style="fill:#000000; fill-opacity:0.0; 
stroke:#000000; stroke-width:0.000000; stroke-opacity:1; 
stroke-linecap:round; stroke-linejoin:round;">
</g>
<g style="fill:#000000; fill-opacity:0.0; 
stroke:#000000; stroke-width:130000.000000; stroke-opacity:1; 
stroke-linecap:round; stroke-linejoin:round;">
<path d="M44707543 9103505
L44344043 7878847
" />
<path d="M43973797 9103505
L44707543 9103505
" />
<path d="M44344043 7878847
L43973797 9103505
" />
<path d="M45862499 10545513
L45134749 10545513
" />
<path d="M44516424 6545513
L45862499 10545513
" />
<path d="M44171661 6545513
L44516424 6545513
" />
<path d="M42825586 10545513
L44171661 6545513
" />
<path d="M43539845 10545513
L42825586 10545513
" />
<path d="M43820902 9620649
L43539845 10545513
" />
<path d="M44860438 9620649
L43820902 9620649
" />
<path d="M45134749 10545513
L44860438 9620649
" />
<path d="M36734524 10545513
L36734524 10009632
" />
<path d="M39228809 10545513
L36734524 10545513
" />
<path d="M39228809 9894961
L39228809 10545513
" />
<path d="M39171848 9894961
L39228809 9894961
" />
<path d="M39085664.707419 9945950.510795 A189677.000000 189677.000000 0.0 0 0 39171848.267563 9894961.259144" />
<path d="M38935761.139556 9958662.832303 A637620.000000 637620.000000 0.0 0 0 39085657.902032 9945925.524078" />
<path d="M37678875 9958667
L38935761 9958667
" />
<path d="M38486070 9129362
L37678875 9958667
" />
<path d="M38486066.410239 9129358.467137 A3461840.000000 3461840.000000 0.0 0 0 39024948.788249 8417725.879086" />
<path d="M39024959.729839 8417731.903785 A1543211.000000 1543211.000000 0.0 0 0 39216067.747087 7662246.001894" />
<path d="M39216057.401741 7662245.724846 A1088324.000000 1088324.000000 0.0 0 0 39050432.194824 7056286.877969" />
<path d="M39050446.959608 7056277.283733 A1139765.000000 1139765.000000 0.0 0 0 38604113.993432 6657561.013143" />
<path d="M38604120.358207 6657548.322240 A1353593.000000 1353593.000000 0.0 0 0 37978669.003105 6514035.225577" />
<path d="M37978669.006604 6514034.056971 A1552104.000000 1552104.000000 0.0 0 0 37210072.162764 6711524.290970" />
<path d="M37210083.343277 6711544.276408 A1522894.000000 1522894.000000 0.0 0 0 36638590.359557 7272514.210014" />
<path d="M37136248 7655500
L36638590 7272514
" />
<path d="M37181217 7687728
L37136248 7655500
" />
<path d="M37219441 7642759
L37181217 7687728
" />
<path d="M37229185.869880 7547200.645872 A209811.000000 209811.000000 0.0 0 0 37219441.191988 7642758.975031" />
<path d="M37302636.580885 7413418.790025 A733064.000000 733064.000000 0.0 0 0 37229184.275265 7547200.115675" />
<path d="M37602053.118276 7183700.268905 A793670.000000 793670.000000 0.0 0 0 37302634.093027 7413417.074664" />
<path d="M37971922.896834 7113630.405321 A942061.000000 942061.000000 0.0 0 0 37602052.819972 7183699.560005" />
<path d="M37976300 7113631
L37971923 7113623
" />
<path d="M37980660 7113656
L37976300 7113631
" />
<path d="M37985003 7113698
L37980660 7113656
" />
<path d="M37989329 7113757
L37985003 7113698
" />
<path d="M37993638 7113832
L37989329 7113757
" />
<path d="M37997929 7113924
L37993638 7113832
" />
<path d="M38002203 7114033
L37997929 7113924
" />
<path d="M38006460 7114159
L38002203 7114033
" />
<path d="M38010700 7114301
L38006460 7114159
" />
<path d="M38014923 7114460
L38010700 7114301
" />
<path d="M38019129 7114636
L38014923 7114460
" />
<path d="M38023318 7114828
L38019129 7114636
" />
<path d="M38027489 7115038
L38023318 7114828
" />
<path d="M38031644 7115264
L38027489 7115038
" />
<path d="M38035781 7115506
L38031644 7115264
" />
<path d="M38039901 7115766
L38035781 7115506
" />
<path d="M38044004 7116042
L38039901 7115766
" />
<path d="M38048090 7116335
L38044004 7116042
" />
<path d="M38052159 7116645
L38048090 7116335
" />
<path d="M38056210 7116971
L38052159 7116645
" />
<path d="M38060245 7117315
L38056210 7116971
" />
<path d="M38064262 7117675
L38060245 7117315
" />
<path d="M38068262 7118051
L38064262 7117675
" />
<path d="M38072245 7118445
L38068262 7118051
" />
<path d="M38076211 7118855
L38072245 7118445
" />
<path d="M38080160 7119282
L38076211 7118855
" />
<path d="M38084092 7119726
L38080160 7119282
" />
<path d="M38088006 7120186
L38084092 7119726
" />
<path d="M38091904 7120663
L38088006 7120186
" />
<path d="M38095784 7121157
L38091904 7120663
" />
<path d="M38099647 7121668
L38095784 7121157
" />
<path d="M38103493 7122195
L38099647 7121668
" />
<path d="M38107322 7122739
L38103493 7122195
" />
<path d="M38111134 7123300
L38107322 7122739
" />
<path d="M38114928 7123878
L38111134 7123300
" />
<path d="M38118706 7124472
L38114928 7123878
" />
<path d="M38122466 7125083
L38118706 7124472
" />
<path d="M38126209 7125711
L38122466 7125083
" />
<path d="M38129935 7126356
L38126209 7125711
" />
<path d="M38133644 7127017
L38129935 7126356
" />
<path d="M38137336 7127695
L38133644 7127017
" />
<path d="M38141011 7128390
L38137336 7127695
" />
<path d="M38144669 7129101
L38141011 7128390
" />
<path d="M38148309 7129830
L38144669 7129101
" />
<path d="M38151932 7130575
L38148309 7129830
" />
<path d="M38155538 7131337
L38151932 7130575
" />
<path d="M38159128 7132115
L38155538 7131337
" />
<path d="M38162699 7132910
L38159128 7132115
" />
<path d="M38166254 7133722
L38162699 7132910
" />
<path d="M38169792 7134551
L38166254 7133722
" />
<path d="M38173312 7135397
L38169792 7134551
" />
<path d="M38176816 7136259
L38173312 7135397
" />
<path d="M38180302 7137138
L38176816 7136259
" />
<path d="M38183771 7138034
L38180302 7137138
" />
<path d="M38187223 7138946
L38183771 7138034
" />
<path d="M38190658 7139875
L38187223 7138946
" />
<path d="M38194076 7140821
L38190658 7139875
" />
<path d="M38197476 7141784
L38194076 7140821
" />
<path d="M38200860 7142763
L38197476 7141784
" />
<path d="M38204226 7143760
L38200860 7142763
" />
<path d="M38207575 7144773
L38204226 7143760
" />
<path d="M38210907 7145802
L38207575 7144773
" />
<path d="M38214222 7146849
L38210907 7145802
" />
<path d="M38217520 7147912
L38214222 7146849
" />
<path d="M38220801 7148992
L38217520 7147912
" />
<path d="M38224064 7150088
L38220801 7148992
" />
<path d="M38227311 7151202
L38224064 7150088
" />
<path d="M38230540 7152332
L38227311 7151202
" />
<path d="M38233752 7153479
L38230540 7152332
" />
<path d="M38236947 7154642
L38233752 7153479
" />
<path d="M38240125 7155823
L38236947 7154642
" />
<path d="M38243286 7157020
L38240125 7155823
" />
<path d="M38246430 7158234
L38243286 7157020
" />
<path d="M38249556 7159464
L38246430 7158234
" />
<path d="M38252665 7160711
L38249556 7159464
" />
<path d="M38255758 7161976
L38252665 7160711
" />
<path d="M38258833 7163256
L38255758 7161976
" />
<path d="M38261891 7164554
L38258833 7163256
" />
<path d="M38264931 7165868
L38261891 7164554
" />
<path d="M38267955 7167199
L38264931 7165868
" />
<path d="M38270962 7168547
L38267955 7167199
" />
<path d="M38273951 7169912
L38270962 7168547
" />
<path d="M38276924 7171293
L38273951 7169912
" />
<path d="M38279879 7172691
L38276924 7171293
" />
<path d="M38282817 7174106
L38279879 7172691
" />
<path d="M38285738 7175537
L38282817 7174106
" />
<path d="M38288641 7176985
L38285738 7175537
" />
<path d="M38291528 7178450
L38288641 7176985
" />
<path d="M38294398 7179932
L38291528 7178450
" />
<path d="M38297250 7181431
L38294398 7179932
" />
<path d="M38300085 7182946
L38297250 7181431
" />
<path d="M38302903 7184478
L38300085 7182946
" />
<path d="M38305704 7186026
L38302903 7184478
" />
<path d="M38308488 7187592
L38305704 7186026
" />
<path d="M38311255 7189174
L38308488 7187592
" />
<path d="M38314005 7190773
L38311255 7189174
" />
<path d="M38316737 7192389
L38314005 7190773
" />
<path d="M38319452 7194021
L38316737 7192389
" />
<path d="M38322151 7195670
L38319452 7194021
" />
<path d="M38324832 7197336
L38322151 7195670
" />
<path d="M38327496 7199019
L38324832 7197336
" />
<path d="M38330142 7200718
L38327496 7199019
" />
<path d="M38332772 7202434
L38330142 7200718
" />
<path d="M38335385 7204167
L38332772 7202434
" />
<path d="M38337980 7205917
L38335385 7204167
" />
<path d="M38340558 7207683
L38337980 7205917
" />
<path d="M38343120 7209466
L38340558 7207683
" />
<path d="M38345664 7211266
L38343120 7209466
" />
<path d="M38348190 7213082
L38345664 7211266
" />
<path d="M38350700 7214916
L38348190 7213082
" />
<path d="M38353193 7216766
L38350700 7214916
" />
<path d="M38355668 7218633
L38353193 7216766
" />
<path d="M38358127 7220516
L38355668 7218633
" />
<path d="M38360568 7222416
L38358127 7220516
" />
<path d="M38362992 7224334
L38360568 7222416
" />
<path d="M38365399 7226267
L38362992 7224334
" />
<path d="M38367789 7228218
L38365399 7226267
" />
<path d="M38370162 7230185
L38367789 7228218
" />
<path d="M38372517 7232169
L38370162 7230185
" />
<path d="M38374856 7234170
L38372517 7232169
" />
<path d="M38377177 7236187
L38374856 7234170
" />
<path d="M38379481 7238222
L38377177 7236187
" />
<path d="M38381768 7240273
L38379481 7238222
" />
<path d="M38384038 7242340
L38381768 7240273
" />
<path d="M38386291 7244425
L38384038 7242340
" />
<path d="M38388526 7246526
L38386291 7244425
" />
<path d="M38390745 7248644
L38388526 7246526
" />
<path d="M38392946 7250779
L38390745 7248644
" />
<path d="M38395131 7252930
L38392946 7250779
" />
<path d="M38397298 7255098
L38395131 7252930
" />
<path d="M38399448 7257283
L38397298 7255098
" />
<path d="M38401581 7259485
L38399448 7257283
" />
<path d="M38403696 7261703
L38401581 7259485
" />
<path d="M38405795 7263938
L38403696 7261703
" />
<path d="M38407876 7266190
L38405795 7263938
" />
<path d="M38409941 7268459
L38407876 7266190
" />
<path d="M38411988 7270744
L38409941 7268459
" />
<path d="M38414018 7273046
L38411988 7270744
" />
<path d="M38416031 7275365
L38414018 7273046
" />
<path d="M38418027 7277701
L38416031 7275365
" />
<path d="M38420006 7280053
L38418027 7277701
" />
<path d="M38421967 7282422
L38420006 7280053
" />
<path d="M38423912 7284808
L38421967 7282422
" />
<path d="M38425839 7287211
L38423912 7284808
" />
<path d="M38427749 7289630
L38425839 7287211
" />
<path d="M38429642 7292066
L38427749 7289630
" />
<path d="M38431518 7294519
L38429642 7292066
" />
<path d="M38433377 7296988
L38431518 7294519
" />
<path d="M38435218 7299474
L38433377 7296988
" />
<path d="M38437043 7301978
L38435218 7299474
" />
<path d="M38438850 7304497
L38437043 7301978
" />
<path d="M38440640 7307034
L38438850 7304497
" />
<path d="M38442414 7309587
L38440640 7307034
" />
<path d="M38444170 7312157
L38442414 7309587
" />
<path d="M38445908 7314744
L38444170 7312157
" />
<path d="M38447630 7317347
L38445908 7314744
" />
<path d="M38449335 7319967
L38447630 7317347
" />
<path d="M38451022 7322604
L38449335 7319967
" />
<path d="M38452692 7325258
L38451022 7322604
" />
<path d="M38454346 7327929
L38452692 7325258
" />
<path d="M38455982 7330616
L38454346 7327929
" />
<path d="M38457601 7333320
L38455982 7330616
" />
<path d="M38459202 7336040
L38457601 7333320
" />
<path d="M38460787 7338778
L38459202 7336040
" />
<path d="M38462355 7341532
L38460787 7338778
" />
<path d="M38463905 7344303
L38462355 7341532
" />
<path d="M38465438 7347091
L38463905 7344303
" />
<path d="M38466954 7349895
L38465438 7347091
" />
<path d="M38468453 7352716
L38466954 7349895
" />
<path d="M38469935 7355554
L38468453 7352716
" />
<path d="M38471400 7358409
L38469935 7355554
" />
<path d="M38472848 7361280
L38471400 7358409
" />
<path d="M38474278 7364168
L38472848 7361280
" />
<path d="M38475691 7367073
L38474278 7364168
" />
<path d="M38477088 7369994
L38475691 7367073
" />
<path d="M38478467 7372933
L38477088 7369994
" />
<path d="M38479829 7375888
L38478467 7372933
" />
<path d="M38481173 7378860
L38479829 7375888
" />
<path d="M38482501 7381848
L38481173 7378860
" />
<path d="M38483812 7384854
L38482501 7381848
" />
<path d="M38485105 7387876
L38483812 7384854
" />
<path d="M38486381 7390914
L38485105 7387876
" />
<path d="M38487641 7393970
L38486381 7390914
" />
<path d="M38488883 7397042
L38487641 7393970
" />
<path d="M38490108 7400131
L38488883 7397042
" />
<path d="M38491315 7403237
L38490108 7400131
" />
<path d="M38492506 7406360
L38491315 7403237
" />
<path d="M38493679 7409499
L38492506 7406360
" />
<path d="M38494836 7412655
L38493679 7409499
" />
<path d="M38495975 7415827
L38494836 7412655
" />
<path d="M38497097 7419017
L38495975 7415827
" />
<path d="M38498202 7422223
L38497097 7419017
" />
<path d="M38499290 7425446
L38498202 7422223
" />
<path d="M38500361 7428686
L38499290 7425446
" />
<path d="M38501414 7431942
L38500361 7428686
" />
<path d="M38502451 7435215
L38501414 7431942
" />
<path d="M38503470 7438505
L38502451 7435215
" />
<path d="M38504472 7441812
L38503470 7438505
" />
<path d="M38505457 7445135
L38504472 7441812
" />
<path d="M38506425 7448476
L38505457 7445135
" />
<path d="M38507376 7451833
L38506425 7448476
" />
<path d="M38508310 7455206
L38507376 7451833
" />
<path d="M38509226 7458597
L38508310 7455206
" />
<path d="M38510126 7462004
L38509226 7458597
" />
<path d="M38511008 7465428
L38510126 7462004
" />
<path d="M38511873 7468868
L38511008 7465428
" />
<path d="M38512721 7472326
L38511873 7468868
" />
<path d="M38513552 7475800
L38512721 7472326
" />
<path d="M38514366 7479290
L38513552 7475800
" />
<path d="M38515162 7482798
L38514366 7479290
" />
<path d="M38515942 7486322
L38515162 7482798
" />
<path d="M38516704 7489863
L38515942 7486322
" />
<path d="M38517449 7493421
L38516704 7489863
" />
<path d="M38518177 7496996
L38517449 7493421
" />
<path d="M38518888 7500587
L38518177 7496996
" />
<path d="M38519582 7504195
L38518888 7500587
" />
<path d="M38520259 7507820
L38519582 7504195
" />
<path d="M38520919 7511461
L38520259 7507820
" />
<path d="M38521561 7515120
L38520919 7511461
" />
<path d="M38522186 7518795
L38521561 7515120
" />
<path d="M38522794 7522486
L38522186 7518795
" />
<path d="M38523385 7526195
L38522794 7522486
" />
<path d="M38523959 7529920
L38523385 7526195
" />
<path d="M38524516 7533662
L38523959 7529920
" />
<path d="M38525056 7537421
L38524516 7533662
" />
<path d="M38525578 7541196
L38525056 7537421
" />
<path d="M38526084 7544989
L38525578 7541196
" />
<path d="M38526572 7548798
L38526084 7544989
" />
<path d="M38527043 7552623
L38526572 7548798
" />
<path d="M38527497 7556466
L38527043 7552623
" />
<path d="M38527934 7560325
L38527497 7556466
" />
<path d="M38528354 7564201
L38527934 7560325
" />
<path d="M38528756 7568093
L38528354 7564201
" />
<path d="M38529142 7572003
L38528756 7568093
" />
<path d="M38529510 7575929
L38529142 7572003
" />
<path d="M38529861 7579872
L38529510 7575929
" />
<path d="M38530195 7583831
L38529861 7579872
" />
<path d="M38530512 7587808
L38530195 7583831
" />
<path d="M38530812 7591801
L38530512 7587808
" />
<path d="M38531095 7595811
L38530812 7591801
" />
<path d="M38531360 7599837
L38531095 7595811
" />
<path d="M38531609 7603881
L38531360 7599837
" />
<path d="M38531840 7607941
L38531609 7603881
" />
<path d="M38532054 7612018
L38531840 7607941
" />
<path d="M38532251 7616111
L38532054 7612018
" />
<path d="M38532431 7620222
L38532251 7616111
" />
<path d="M38532594 7624349
L38532431 7620222
" />
<path d="M38532739 7628492
L38532594 7624349
" />
<path d="M38532868 7632653
L38532739 7628492
" />
<path d="M38532979 7636830
L38532868 7632653
" />
<path d="M38533073 7641024
L38532979 7636830
" />
<path d="M38533150 7645235
L38533073 7641024
" />
<path d="M38533210 7649463
L38533150 7645235
" />
<path d="M38533253 7653707
L38533210 7649463
" />
<path d="M38533279 7657968
L38533253 7653707
" />
<path d="M38533287 7662246
L38533279 7657968
" />
<path d="M38425000.893293 8156537.473698 A1157400.000000 1157400.000000 0.0 0 0 38533287.149521 7662245.999295" />
<path d="M38093346.852211 8647449.150127 A2163851.000000 2163851.000000 0.0 0 0 38424986.815076 8156530.909115" />
<path d="M37531976 9234290
L38093340 8647443
" />
<path d="M36734524 10009632
L37531976 9234290
" />
<path d="M34132313 10545513
L33360344 10545513
" />
<path d="M34770125 9601163
L34132313 10545513
" />
<path d="M35440164 10545513
L34770125 9601163
" />
<path d="M36218879 10545513
L35440164 10545513
" />
<path d="M35153111 9033803
L36218879 10545513
" />
<path d="M36090717 7579053
L35153111 9033803
" />
<path d="M35363717 7579053
L36090717 7579053
" />
<path d="M34770125 8497921
L35363717 7579053
" />
<path d="M34132313 7579053
L34770125 8497921
" />
<path d="M33373085 7579053
L34132313 7579053
" />
<path d="M34387887 9059285
L33373085 7579053
" />
<path d="M33360344 10545513
L34387887 9059285
" />
<path d="M31951313 9103505
L31587812 7878847
" />
<path d="M31217567 9103505
L31951313 9103505
" />
<path d="M31587812 7878847
L31217567 9103505
" />
<path d="M33106269 10545513
L32378519 10545513
" />
<path d="M31760194 6545513
L33106269 10545513
" />
<path d="M31415431 6545513
L31760194 6545513
" />
<path d="M30069356 10545513
L31415431 6545513
" />
<path d="M30783615 10545513
L30069356 10545513
" />
<path d="M31064672 9620649
L30783615 10545513
" />
<path d="M32104207 9620649
L31064672 9620649
" />
<path d="M32378519 10545513
L32104207 9620649
" />
<path d="M28583878.252957 10615954.286301 A1585396.000000 1585396.000000 0.0 0 0 29295139.176172 10466068.375191" />
<path d="M29295143.082172 10466075.638746 A1316811.000000 1316811.000000 0.0 0 0 29821276.569841 9951920.757226" />
<path d="M29323619 9582426
L29821277 9951921
" />
<path d="M29011073.365519 9920426.585037 A931679.000000 931679.000000 0.0 0 0 29323618.777959 9582425.879664" />
<path d="M28602615.199303 10022365.298005 A788029.000000 788029.000000 0.0 0 0 29011083.966608 9920442.940988" />
<path d="M27968187.136306 9630012.082256 A739712.000000 739712.000000 0.0 0 0 28602614.988860 10022373.438536" />
<path d="M27715997.758669 8548887.280974 A1987685.000000 1987685.000000 0.0 0 0 27968176.031591 9630017.982239" />
<path d="M27846747.022978 7748057.589539 A2137531.000000 2137531.000000 0.0 0 0 27715973.763030 8548886.006897" />
<path d="M28191129.417137 7260124.610978 A1146714.000000 1146714.000000 0.0 0 0 27846758.803121 7748061.927878" />
<path d="M28647584.166464 7094152.625109 A730684.000000 730684.000000 0.0 0 0 28191147.921850 7260146.904846" />
<path d="M28963116.046242 7154846.358615 A832571.000000 832571.000000 0.0 0 0 28647584.000032 7094136.007874" />
<path d="M29253930.479860 7381178.331917 A775279.000000 775279.000000 0.0 0 0 28963117.090804 7154843.797426" />
<path d="M29320627.261406 7518342.639278 A828710.000000 828710.000000 0.0 0 0 29253917.401896 7381188.756435" />
<path d="M29330371.232746 7611281.891726 A207430.000000 207430.000000 0.0 0 0 29320621.182856 7518344.937014" />
<path d="M29361843 7662246
L29330364 7611281
" />
<path d="M29412808 7630018
L29361843 7662246
" />
<path d="M29866246 7292000
L29412808 7630018
" />
<path d="M29866249.339788 7291998.561431 A1283122.000000 1283122.000000 0.0 0 0 29377956.931925 6717895.106695" />
<path d="M29377962.249462 6717886.357469 A1406490.000000 1406490.000000 0.0 0 0 28609360.010636 6514035.389024" />
<path d="M28609360.053669 6514045.055846 A1618878.000000 1618878.000000 0.0 0 0 28044623.048702 6618963.128593" />
<path d="M28044623.194333 6618963.511692 A1439200.000000 1439200.000000 0.0 0 0 27524856.026778 6959978.026094" />
<path d="M27524864.188648 6959985.769817 A1693149.000000 1693149.000000 0.0 0 0 27145241.624677 7594791.876140" />
<path d="M27145243.786430 7594792.582488 A2933574.000000 2933574.000000 0.0 0 0 27001714.884761 8580364.002993" />
<path d="M27001698.402911 8580363.412513 A2711999.000000 2711999.000000 0.0 0 0 27215319.135810 9735319.942393" />
<path d="M27215316.900155 9735320.910100 A1479172.000000 1479172.000000 0.0 0 0 27789423.928233 10401987.115007" />
<path d="M27789432.135381 10401973.297140 A1527635.000000 1527635.000000 0.0 0 0 28583878.004204 10615965.440503" />
<path d="M25477263 10558255
L24993096 10558255
" />
<path d="M26740895 6570996
L25477263 10558255
" />
<path d="M26045373 6570996
L26740895 6570996
" />
<path d="M25267408 9365075
L26045373 6570996
" />
<path d="M24431732 6570996
L25267408 9365075
" />
<path d="M23716724 6570996
L24431732 6570996
" />
<path d="M24993096 10558255
L23716724 6570996
" />
<path d="M18059613 10545513
L17440539 10545513
" />
<path d="M18059613 7776917
L18059613 10545513
" />
<path d="M18646460 9231667
L18059613 7776917
" />
<path d="M18997218 9231667
L18646460 9231667
" />
<path d="M19622289 7770171
L18997218 9231667
" />
<path d="M19622289 10545513
L19622289 7770171
" />
<path d="M20248108 10545513
L19622289 10545513
" />
<path d="M20248108 6565000
L20248108 10545513
" />
<path d="M19616293 6565000
L20248108 6565000
" />
<path d="M18844324 8395991
L19616293 6565000
" />
<path d="M18072354 6570996
L18844324 8395991
" />
<path d="M17440539 6570996
L18072354 6570996
" />
<path d="M17440539 10545513
L17440539 6570996
" />
<path d="M16943630 10545513
L14372898 10545513
" />
<path d="M16943630 9958667
L16943630 10545513
" />
<path d="M15074415 9958667
L16943630 9958667
" />
<path d="M15074415 8772233
L15074415 9958667
" />
<path d="M16625099 8772233
L15074415 8772233
" />
<path d="M16625099 8178641
L16625099 8772233
" />
<path d="M15074415 8178641
L16625099 8178641
" />
<path d="M15074415 7157842
L15074415 8178641
" />
<path d="M16963117 7157842
L15074415 7157842
" />
<path d="M16963117 6570996
L16963117 7157842
" />
<path d="M14372898 6570996
L16963117 6570996
" />
<path d="M14372898 10545513
L14372898 6570996
" />
<path d="M8721783 10545513
L8256353 10545513
" />
<path d="M9295888 8095448
L8721783 10545513
" />
<path d="M9858002 10545513
L9295888 8095448
" />
<path d="M10310690 10545513
L9858002 10545513
" />
<path d="M10827085 6570996
L10310690 10545513
" />
<path d="M10240239 6570996
L10827085 6570996
" />
<path d="M10029634 9059285
L10240239 6570996
" />
<path d="M9519235 6883531
L10029634 9059285
" />
<path d="M9136997 6883531
L9519235 6883531
" />
<path d="M8626598 9065281
L9136997 6883531
" />
<path d="M8358283 6570996
L8626598 9065281
" />
<path d="M7733212 6570996
L8358283 6570996
" />
<path d="M8256353 10545513
L7733212 6570996
" />
<path d="M5494502 7196066
L5494502 8293312
" />
<path d="M6075352 7196066
L5494502 7196066
" />
<path d="M6534391.318097 7362098.331866 A594743.000000 594743.000000 0.0 0 0 6075351.962520 7196065.506595" />
<path d="M6687682.142740 7757430.018638 A562927.000000 562927.000000 0.0 0 0 6534411.875063 7362077.117797" />
<path d="M6534405.242553 8149778.086182 A511472.000000 511472.000000 0.0 0 0 6687681.402140 7757429.979081" />
<path d="M6075351.186042 8293322.688462 A649899.000000 649899.000000 0.0 0 0 6534411.840930 8149784.804135" />
<path d="M5494502 8293312
L6075352 8293312
" />
<path d="M5494502 10545513
L4767501 10545513
" />
<path d="M5494502 8892900
L5494502 10545513
" />
<path d="M5973422 8892900
L5494502 8892900
" />
<path d="M6776870 10545513
L5973422 8892900
" />
<path d="M7536098 10545513
L6776870 10545513
" />
<path d="M6681685 8823197
L7536098 10545513
" />
<path d="M6681682.252947 8823189.630157 A1070187.000000 1070187.000000 0.0 0 0 7073665.959418 8567997.960381" />
<path d="M7073669.158694 8568001.127791 A1232481.000000 1232481.000000 0.0 0 0 7335236.136201 8175643.056865" />
<path d="M7335253.234203 8175650.441590 A1125461.000000 1125461.000000 0.0 0 0 7427423.454173 7738693.003710" />
<path d="M7427420.019514 7738692.867694 A1111974.000000 1111974.000000 0.0 0 0 7089405.248759 6889901.742675" />
<path d="M7086758 6887415
L7089405 6889902
" />
<path d="M7084100 6884938
L7086758 6887415
" />
<path d="M7081429 6882471
L7084100 6884938
" />
<path d="M7078747 6880014
L7081429 6882471
" />
<path d="M7076053 6877566
L7078747 6880014
" />
<path d="M7073347 6875128
L7076053 6877566
" />
<path d="M7070629 6872700
L7073347 6875128
" />
<path d="M7067899 6870281
L7070629 6872700
" />
<path d="M7065157 6867873
L7067899 6870281
" />
<path d="M7062404 6865474
L7065157 6867873
" />
<path d="M7059639 6863084
L7062404 6865474
" />
<path d="M7056861 6860705
L7059639 6863084
" />
<path d="M7054072 6858335
L7056861 6860705
" />
<path d="M7051271 6855975
L7054072 6858335
" />
<path d="M7048458 6853625
L7051271 6855975
" />
<path d="M7045633 6851284
L7048458 6853625
" />
<path d="M7042797 6848953
L7045633 6851284
" />
<path d="M7039948 6846632
L7042797 6848953
" />
<path d="M7037088 6844321
L7039948 6846632
" />
<path d="M7034216 6842019
L7037088 6844321
" />
<path d="M7031332 6839727
L7034216 6842019
" />
<path d="M7028436 6837445
L7031332 6839727
" />
<path d="M7025528 6835172
L7028436 6837445
" />
<path d="M7022608 6832910
L7025528 6835172
" />
<path d="M7019676 6830657
L7022608 6832910
" />
<path d="M7016733 6828413
L7019676 6830657
" />
<path d="M7013778 6826180
L7016733 6828413
" />
<path d="M7010810 6823956
L7013778 6826180
" />
<path d="M7007831 6821742
L7010810 6823956
" />
<path d="M7004840 6819538
L7007831 6821742
" />
<path d="M7001838 6817343
L7004840 6819538
" />
<path d="M6998823 6815158
L7001838 6817343
" />
<path d="M6995796 6812983
L6998823 6815158
" />
<path d="M6992758 6810818
L6995796 6812983
" />
<path d="M6989708 6808662
L6992758 6810818
" />
<path d="M6986645 6806516
L6989708 6808662
" />
<path d="M6983571 6804380
L6986645 6806516
" />
<path d="M6980485 6802253
L6983571 6804380
" />
<path d="M6977388 6800136
L6980485 6802253
" />
<path d="M6974278 6798029
L6977388 6800136
" />
<path d="M6971156 6795932
L6974278 6798029
" />
<path d="M6968023 6793845
L6971156 6795932
" />
<path d="M6964878 6791767
L6968023 6793845
" />
<path d="M6961721 6789699
L6964878 6791767
" />
<path d="M6958552 6787640
L6961721 6789699
" />
<path d="M6955371 6785592
L6958552 6787640
" />
<path d="M6952178 6783553
L6955371 6785592
" />
<path d="M6948973 6781524
L6952178 6783553
" />
<path d="M6945757 6779504
L6948973 6781524
" />
<path d="M6942528 6777494
L6945757 6779504
" />
<path d="M6939288 6775494
L6942528 6777494
" />
<path d="M6936036 6773504
L6939288 6775494
" />
<path d="M6932772 6771524
L6936036 6773504
" />
<path d="M6929496 6769553
L6932772 6771524
" />
<path d="M6926209 6767592
L6929496 6769553
" />
<path d="M6922909 6765641
L6926209 6767592
" />
<path d="M6919598 6763699
L6922909 6765641
" />
<path d="M6916274 6761767
L6919598 6763699
" />
<path d="M6912939 6759845
L6916274 6761767
" />
<path d="M6909592 6757933
L6912939 6759845
" />
<path d="M6906233 6756030
L6909592 6757933
" />
<path d="M6902862 6754137
L6906233 6756030
" />
<path d="M6899479 6752254
L6902862 6754137
" />
<path d="M6896085 6750380
L6899479 6752254
" />
<path d="M6892678 6748517
L6896085 6750380
" />
<path d="M6889260 6746663
L6892678 6748517
" />
<path d="M6885830 6744818
L6889260 6746663
" />
<path d="M6882388 6742984
L6885830 6744818
" />
<path d="M6878934 6741159
L6882388 6742984
" />
<path d="M6875468 6739344
L6878934 6741159
" />
<path d="M6871991 6737539
L6875468 6739344
" />
<path d="M6868501 6735743
L6871991 6737539
" />
<path d="M6865000 6733957
L6868501 6735743
" />
<path d="M6861486 6732181
L6865000 6733957
" />
<path d="M6857961 6730415
L6861486 6732181
" />
<path d="M6854424 6728658
L6857961 6730415
" />
<path d="M6850875 6726911
L6854424 6728658
" />
<path d="M6847315 6725174
L6850875 6726911
" />
<path d="M6843742 6723446
L6847315 6725174
" />
<path d="M6840158 6721729
L6843742 6723446
" />
<path d="M6836561 6720021
L6840158 6721729
" />
<path d="M6832953 6718322
L6836561 6720021
" />
<path d="M6829333 6716634
L6832953 6718322
" />
<path d="M6825701 6714955
L6829333 6716634
" />
<path d="M6822057 6713286
L6825701 6714955
" />
<path d="M6818401 6711627
L6822057 6713286
" />
<path d="M6814734 6709977
L6818401 6711627
" />
<path d="M6811054 6708337
L6814734 6709977
" />
<path d="M6807363 6706707
L6811054 6708337
" />
<path d="M6803660 6705087
L6807363 6706707
" />
<path d="M6799945 6703476
L6803660 6705087
" />
<path d="M6796218 6701875
L6799945 6703476
" />
<path d="M6792479 6700284
L6796218 6701875
" />
<path d="M6788728 6698702
L6792479 6700284
" />
<path d="M6784966 6697130
L6788728 6698702
" />
<path d="M6781191 6695568
L6784966 6697130
" />
<path d="M6777405 6694016
L6781191 6695568
" />
<path d="M6773607 6692474
L6777405 6694016
" />
<path d="M6769797 6690941
L6773607 6692474
" />
<path d="M6765975 6689418
L6769797 6690941
" />
<path d="M6762141 6687904
L6765975 6689418
" />
<path d="M6758295 6686401
L6762141 6687904
" />
<path d="M6754438 6684907
L6758295 6686401
" />
<path d="M6750568 6683423
L6754438 6684907
" />
<path d="M6746687 6681948
L6750568 6683423
" />
<path d="M6742794 6680483
L6746687 6681948
" />
<path d="M6738889 6679029
L6742794 6680483
" />
<path d="M6734972 6677583
L6738889 6679029
" />
<path d="M6731043 6676148
L6734972 6677583
" />
<path d="M6727103 6674722
L6731043 6676148
" />
<path d="M6723150 6673306
L6727103 6674722
" />
<path d="M6719186 6671900
L6723150 6673306
" />
<path d="M6715210 6670503
L6719186 6671900
" />
<path d="M6711222 6669116
L6715210 6670503
" />
<path d="M6707222 6667739
L6711222 6669116
" />
<path d="M6703210 6666372
L6707222 6667739
" />
<path d="M6699186 6665014
L6703210 6666372
" />
<path d="M6695151 6663666
L6699186 6665014
" />
<path d="M6691103 6662328
L6695151 6663666
" />
<path d="M6687044 6661000
L6691103 6662328
" />
<path d="M6682973 6659681
L6687044 6661000
" />
<path d="M6678890 6658372
L6682973 6659681
" />
<path d="M6674795 6657073
L6678890 6658372
" />
<path d="M6670688 6655783
L6674795 6657073
" />
<path d="M6666569 6654503
L6670688 6655783
" />
<path d="M6662439 6653233
L6666569 6654503
" />
<path d="M6658296 6651973
L6662439 6653233
" />
<path d="M6654142 6650722
L6658296 6651973
" />
<path d="M6649976 6649481
L6654142 6650722
" />
<path d="M6645798 6648250
L6649976 6649481
" />
<path d="M6641608 6647029
L6645798 6648250
" />
<path d="M6637406 6645817
L6641608 6647029
" />
<path d="M6633192 6644615
L6637406 6645817
" />
<path d="M6628967 6643423
L6633192 6644615
" />
<path d="M6624729 6642241
L6628967 6643423
" />
<path d="M6620480 6641068
L6624729 6642241
" />
<path d="M6616219 6639905
L6620480 6641068
" />
<path d="M6611946 6638752
L6616219 6639905
" />
<path d="M6607661 6637608
L6611946 6638752
" />
<path d="M6603364 6636474
L6607661 6637608
" />
<path d="M6599056 6635350
L6603364 6636474
" />
<path d="M6594735 6634236
L6599056 6635350
" />
<path d="M6590403 6633131
L6594735 6634236
" />
<path d="M6586059 6632036
L6590403 6633131
" />
<path d="M6581703 6630951
L6586059 6632036
" />
<path d="M6577335 6629876
L6581703 6630951
" />
<path d="M6572955 6628810
L6577335 6629876
" />
<path d="M6568563 6627754
L6572955 6628810
" />
<path d="M6564160 6626708
L6568563 6627754
" />
<path d="M6559744 6625672
L6564160 6626708
" />
<path d="M6555317 6624645
L6559744 6625672
" />
<path d="M6550878 6623628
L6555317 6624645
" />
<path d="M6546427 6622620
L6550878 6623628
" />
<path d="M6541964 6621623
L6546427 6622620
" />
<path d="M6537489 6620635
L6541964 6621623
" />
<path d="M6533002 6619657
L6537489 6620635
" />
<path d="M6528504 6618689
L6533002 6619657
" />
<path d="M6523993 6617730
L6528504 6618689
" />
<path d="M6519471 6616781
L6523993 6617730
" />
<path d="M6514937 6615842
L6519471 6616781
" />
<path d="M6510391 6614913
L6514937 6615842
" />
<path d="M6505833 6613993
L6510391 6614913
" />
<path d="M6501263 6613083
L6505833 6613993
" />
<path d="M6496681 6612183
L6501263 6613083
" />
<path d="M6492088 6611292
L6496681 6612183
" />
<path d="M6487483 6610411
L6492088 6611292
" />
<path d="M6482865 6609540
L6487483 6610411
" />
<path d="M6478236 6608679
L6482865 6609540
" />
<path d="M6473595 6607828
L6478236 6608679
" />
<path d="M6468942 6606986
L6473595 6607828
" />
<path d="M6464278 6606154
L6468942 6606986
" />
<path d="M6459601 6605331
L6464278 6606154
" />
<path d="M6454912 6604519
L6459601 6605331
" />
<path d="M6450212 6603716
L6454912 6604519
" />
<path d="M6445500 6602922
L6450212 6603716
" />
<path d="M6440776 6602139
L6445500 6602922
" />
<path d="M6436040 6601365
L6440776 6602139
" />
<path d="M6431292 6600601
L6436040 6601365
" />
<path d="M6426532 6599847
L6431292 6600601
" />
<path d="M6421761 6599103
L6426532 6599847
" />
<path d="M6416977 6598368
L6421761 6599103
" />
<path d="M6412182 6597643
L6416977 6598368
" />
<path d="M6407375 6596927
L6412182 6597643
" />
<path d="M6402556 6596222
L6407375 6596927
" />
<path d="M6397725 6595526
L6402556 6596222
" />
<path d="M6392882 6594840
L6397725 6595526
" />
<path d="M6388027 6594163
L6392882 6594840
" />
<path d="M6383161 6593497
L6388027 6594163
" />
<path d="M6378282 6592840
L6383161 6593497
" />
<path d="M6373392 6592193
L6378282 6592840
" />
<path d="M6368490 6591555
L6373392 6592193
" />
<path d="M6363576 6590927
L6368490 6591555
" />
<path d="M6358650 6590309
L6363576 6590927
" />
<path d="M6353712 6589701
L6358650 6590309
" />
<path d="M6348763 6589103
L6353712 6589701
" />
<path d="M6343801 6588514
L6348763 6589103
" />
<path d="M6338828 6587935
L6343801 6588514
" />
<path d="M6333843 6587365
L6338828 6587935
" />
<path d="M6328845 6586806
L6333843 6587365
" />
<path d="M6323836 6586256
L6328845 6586806
" />
<path d="M6318816 6585716
L6323836 6586256
" />
<path d="M6313783 6585185
L6318816 6585716
" />
<path d="M6308738 6584665
L6313783 6585185
" />
<path d="M6303682 6584154
L6308738 6584665
" />
<path d="M6298613 6583653
L6303682 6584154
" />
<path d="M6293533 6583161
L6298613 6583653
" />
<path d="M6288441 6582679
L6293533 6583161
" />
<path d="M6283337 6582207
L6288441 6582679
" />
<path d="M6278221 6581745
L6283337 6582207
" />
<path d="M6273094 6581293
L6278221 6581745
" />
<path d="M6267954 6580850
L6273094 6581293
" />
<path d="M6262803 6580417
L6267954 6580850
" />
<path d="M6257639 6579993
L6262803 6580417
" />
<path d="M6252464 6579580
L6257639 6579993
" />
<path d="M6247277 6579176
L6252464 6579580
" />
<path d="M6242078 6578782
L6247277 6579176
" />
<path d="M6236867 6578397
L6242078 6578782
" />
<path d="M6231645 6578023
L6236867 6578397
" />
<path d="M6226410 6577658
L6231645 6578023
" />
<path d="M6221164 6577302
L6226410 6577658
" />
<path d="M6215906 6576957
L6221164 6577302
" />
<path d="M6210635 6576621
L6215906 6576957
" />
<path d="M6205353 6576295
L6210635 6576621
" />
<path d="M6200059 6575979
L6205353 6576295
" />
<path d="M6194754 6575672
L6200059 6575979
" />
<path d="M6189436 6575375
L6194754 6575672
" />
<path d="M6184107 6575088
L6189436 6575375
" />
<path d="M6178765 6574811
L6184107 6575088
" />
<path d="M6173412 6574543
L6178765 6574811
" />
<path d="M6168047 6574285
L6173412 6574543
" />
<path d="M6162670 6574037
L6168047 6574285
" />
<path d="M6157281 6573799
L6162670 6574037
" />
<path d="M6151880 6573570
L6157281 6573799
" />
<path d="M6146468 6573351
L6151880 6573570
" />
<path d="M6141043 6573142
L6146468 6573351
" />
<path d="M6135607 6572942
L6141043 6573142
" />
<path d="M6130159 6572753
L6135607 6572942
" />
<path d="M6124699 6572572
L6130159 6572753
" />
<path d="M6119227 6572402
L6124699 6572572
" />
<path d="M6113743 6572242
L6119227 6572402
" />
<path d="M6108247 6572091
L6113743 6572242
" />
<path d="M6102740 6571950
L6108247 6572091
" />
<path d="M6097220 6571818
L6102740 6571950
" />
<path d="M6091689 6571697
L6097220 6571818
" />
<path d="M6086146 6571585
L6091689 6571697
" />
<path d="M6080591 6571482
L6086146 6571585
" />
<path d="M6075024 6571390
L6080591 6571482
" />
<path d="M6069445 6571307
L6075024 6571390
" />
<path d="M6063854 6571234
L6069445 6571307
" />
<path d="M6058252 6571171
L6063854 6571234
" />
<path d="M6052637 6571118
L6058252 6571171
" />
<path d="M6047011 6571074
L6052637 6571118
" />
<path d="M6041373 6571040
L6047011 6571074
" />
<path d="M6035723 6571015
L6041373 6571040
" />
<path d="M6030061 6571001
L6035723 6571015
" />
<path d="M6024387 6570996
L6030061 6571001
" />
<path d="M4767501 6570996
L6024387 6570996
" />
<path d="M4767501 10545513
L4767501 6570996
" />
<path d="M43073666 112552071
L42729278 112552071
" />
<path d="M43073666 110867979
L43073666 112552071
" />
<path d="M43638403 110867979
L43073666 110867979
" />
<path d="M43638403 110564813
L43638403 110867979
" />
<path d="M42193396 110564813
L43638403 110564813
" />
<path d="M42193396 110867979
L42193396 110564813
" />
<path d="M42729278 110867979
L42193396 110867979
" />
<path d="M42729278 112552071
L42729278 110867979
" />
<path d="M41322870.280310 112593661.049686 A688120.000000 688120.000000 0.0 0 0 41817341.676164 112411729.649182" />
<path d="M41817320.047374 112411710.054591 A746379.000000 746379.000000 0.0 0 0 42008647.589448 111847181.034566" />
<path d="M42008648 110564813
L42008648 111847181
" />
<path d="M41657889 110564813
L42008648 110564813
" />
<path d="M41657889 111850179
L41657889 110564813
" />
<path d="M41584464.621718 112182214.173290 A629176.000000 629176.000000 0.0 0 0 41657889.397051 111850178.977738" />
<path d="M41325869.644494 112300229.281846 A279949.000000 279949.000000 0.0 0 0 41584440.363316 112182201.253993" />
<path d="M41070863.623057 112182195.177115 A271780.000000 271780.000000 0.0 0 0 41325867.982580 112300244.841915" />
<path d="M41000605.703521 111859922.743305 A629397.000000 629397.000000 0.0 0 0 41070854.567589 112182201.224979" />
<path d="M41000591 110711712
L41000591 111859922
" />
<path d="M41005465.282421 110636763.358442 A414048.000000 414048.000000 0.0 0 0 41000590.590669 110711712.010594" />
<path d="M41026063.180001 110593659.001121 A97337.000000 97337.000000 0.0 0 0 41005462.769170 110636762.953714" />
<path d="M41026074 110564813
L41026074 110593668
" />
<path d="M40640089 110564813
L41026074 110564813
" />
<path d="M40640089 111856550
L40640089 110564813
" />
<path d="M40640120.069558 111856551.885223 A776806.000000 776806.000000 0.0 0 0 40817154.721719 112398989.230398" />
<path d="M40817139.793560 112399003.821702 A648869.000000 648869.000000 0.0 0 0 41322869.996080 112593667.938199" />
<path d="M39449173.844717 112113427.820256 A312374.000000 312374.000000 0.0 0 0 39734711.001178 112296872.363939" />
<path d="M39348729.029787 111556756.121824 A1197522.000000 1197522.000000 0.0 0 0 39449158.380658 112113434.831412" />
<path d="M39449153.339950 111019559.913431 A1167813.000000 1167813.000000 0.0 0 0 39348727.098129 111556755.994955" />
<path d="M39734711.142947 110829787.093064 A311816.000000 311816.000000 0.0 0 0 39449157.656115 111019561.853744" />
<path d="M40015343.336536 111019582.961860 A310696.000000 310696.000000 0.0 0 0 39734711.005960 110829754.670037" />
<path d="M40117339.426414 111556756.852490 A1152989.000000 1152989.000000 0.0 0 0 40015393.407845 111019561.814462" />
<path d="M40015375.078495 112113426.936185 A1182290.000000 1182290.000000 0.0 0 0 40117323.339832 111556755.979398" />
<path d="M39734711.274413 112296899.447616 A311215.000000 311215.000000 0.0 0 0 40015393.115960 112113435.052193" />
<path d="M39734712.026192 112590275.293168 A632431.000000 632431.000000 0.0 0 0 40285021.159639 112322354.112198" />
<path d="M40285021.333120 112322354.203981 A1306284.000000 1306284.000000 0.0 0 0 40474827.583528 111560128.025577" />
<path d="M40474835.948878 111560128.454120 A1296146.000000 1296146.000000 0.0 0 0 40285020.912553 110807458.053752" />
<path d="M40285037.539713 110807446.574817 A629981.000000 629981.000000 0.0 0 0 39734710.984201 110536331.689268" />
<path d="M39734709.511330 110536358.451039 A631940.000000 631940.000000 0.0 0 0 39179717.772153 110807457.842171" />
<path d="M39179703.499162 110807449.174976 A1305016.000000 1305016.000000 0.0 0 0 38991596.718137 111560128.016058" />
<path d="M38991567.900677 111560126.220707 A1315284.000000 1315284.000000 0.0 0 0 39179717.628974 112322354.224973" />
<path d="M39179734.796165 112322342.162487 A634535.000000 634535.000000 0.0 0 0 39734711.011836 112590295.206489" />
<path d="M31822963 112555257
L31822963 110567998
" />
<path d="M32148240 112555257
L31822963 112555257
" />
<path d="M32148240 111161215
L32148240 112555257
" />
<path d="M32843761 112555257
L32148240 111161215
" />
<path d="M33178406 112555257
L32843761 112555257
" />
<path d="M33178406 110714897
L33178406 112555257
" />
<path d="M33183281.356674 110639948.527032 A414232.000000 414232.000000 0.0 0 0 33178406.140962 110714896.996359" />
<path d="M33204252.719355 110596843.366134 A95403.000000 95403.000000 0.0 0 0 33183278.154020 110639948.031047" />
<path d="M33204264 110567998
L33204264 110596853
" />
<path d="M32853130 110567998
L33204264 110567998
" />
<path d="M32872242 111875849
L32853130 110567998
" />
<path d="M32199205 110567998
L32872242 111875849
" />
<path d="M31822963 110567998
L32199205 110567998
" />
<path d="M31469206 112555257
L30333737 112555257
" />
<path d="M31469206 112264831
L31469206 112555257
" />
<path d="M31064110 112264831
L31469206 112264831
" />
<path d="M31064110 110858423
L31064110 112264831
" />
<path d="M31453093 110858423
L31064110 110858423
" />
<path d="M31453093 110567998
L31453093 110858423
" />
<path d="M30355847 110567998
L31453093 110567998
" />
<path d="M30355847 110858423
L30355847 110567998
" />
<path d="M30722720 110858423
L30355847 110858423
" />
<path d="M30722720 112264831
L30722720 110858423
" />
<path d="M30333737 112264831
L30722720 112264831
" />
<path d="M30333737 112555257
L30333737 112264831
" />
<path d="M27852568 112561627
L27610484 112561627
" />
<path d="M28484384 110567998
L27852568 112561627
" />
<path d="M28136623 110567998
L28484384 110567998
" />
<path d="M27747640 111965037
L28136623 110567998
" />
<path d="M27329802 110567998
L27747640 111965037
" />
<path d="M26972298 110567998
L27329802 110567998
" />
<path d="M27610484 112561627
L26972298 110567998
" />
<path d="M26216817.815572 112590489.823332 A792710.000000 792710.000000 0.0 0 0 26572448.039744 112515534.084635" />
<path d="M26572446.256007 112515530.736579 A658455.000000 658455.000000 0.0 0 0 26835516.661565 112258460.808973" />
<path d="M26586688 112073713
L26835517 112258461
" />
<path d="M26430430.513246 112242736.680729 A465841.000000 465841.000000 0.0 0 0 26586688.120766 112073713.065430" />
<path d="M26226186.373515 112293672.595974 A394005.000000 394005.000000 0.0 0 0 26430421.183410 112242722.324168" />
<path d="M25908964.628272 112097510.260599 A369907.000000 369907.000000 0.0 0 0 26226185.995188 112293687.189019" />
<path d="M25782853.693390 111556942.337110 A993885.000000 993885.000000 0.0 0 0 25908967.285711 112097508.839355" />
<path d="M25848274.641754 111156537.129528 A1068685.000000 1068685.000000 0.0 0 0 25782865.961361 111556943.001123" />
<path d="M26020462.593227 110912585.560333 A573347.000000 573347.000000 0.0 0 0 25848258.315180 111156531.115494" />
<path d="M26248671.268425 110829595.022432 A365323.000000 365323.000000 0.0 0 0 26020453.093249 110912574.113552" />
<path d="M26406441.097447 110859911.864427 A416336.000000 416336.000000 0.0 0 0 26248670.998298 110829567.590201" />
<path d="M26551838.311297 110973092.962368 A387585.000000 387585.000000 0.0 0 0 26406437.012755 110859921.971545" />
<path d="M26585186.122200 111041673.084702 A414311.000000 414311.000000 0.0 0 0 26551837.236064 110973093.856960" />
<path d="M26590040.947591 111088137.518792 A103726.000000 103726.000000 0.0 0 0 26585189.242377 111041671.916658" />
<path d="M26605800 111113623
L26590061 111088140
" />
<path d="M26631283 111097509
L26605800 111113623
" />
<path d="M26858002 110928500
L26631283 111097509
" />
<path d="M26858011.280669 110928496.002332 A641550.000000 641550.000000 0.0 0 0 26613857.042606 110641446.933218" />
<path d="M26613865.196733 110641433.504378 A703245.000000 703245.000000 0.0 0 0 26229559.007361 110539518.268924" />
<path d="M26229558.998067 110539517.639637 A809494.000000 809494.000000 0.0 0 0 25947189.968153 110591980.915912" />
<path d="M25947187.647597 110591974.806481 A719615.000000 719615.000000 0.0 0 0 25687307.042172 110762489.041093" />
<path d="M25687315.782629 110762497.333810 A846547.000000 846547.000000 0.0 0 0 25497499.775203 111079895.925812" />
<path d="M25497502.251496 111079896.734144 A1466758.000000 1466758.000000 0.0 0 0 25425736.451816 111572681.988265" />
<path d="M25425750.443374 111572682.511777 A1356000.000000 1356000.000000 0.0 0 0 25532537.855608 112150160.061240" />
<path d="M25532541.984496 112150158.272956 A739666.000000 739666.000000 0.0 0 0 25819591.192317 112483493.691842" />
<path d="M25819587.984914 112483499.078852 A763817.000000 763817.000000 0.0 0 0 26216817.999453 112590481.942948" />
<path d="M17368963 112565000
L17368963 110577741
" />
<path d="M17694239 112565000
L17368963 112565000
" />
<path d="M17694239 111170958
L17694239 112565000
" />
<path d="M18389761 112565000
L17694239 111170958
" />
<path d="M18724406 112565000
L18389761 112565000
" />
<path d="M18724406 110724640
L18724406 112565000
" />
<path d="M18729276.017977 110649691.688863 A414033.000000 414033.000000 0.0 0 0 18724406.320817 110724639.991675" />
<path d="M18750272.085461 110606603.766174 A95414.000000 95414.000000 0.0 0 0 18729278.233973 110649692.047304" />
<path d="M18750263 110577741
L18750263 110606596
" />
<path d="M18399130 110577741
L18750263 110577741
" />
<path d="M18418242 111885592
L18399130 110577741
" />
<path d="M17745204 110577741
L18418242 111885592
" />
<path d="M17368963 110577741
L17745204 110577741
" />
<path d="M17015206 112565000
L15879737 112565000
" />
<path d="M17015206 112274575
L17015206 112565000
" />
<path d="M16610110 112274575
L17015206 112274575
" />
<path d="M16610110 110868167
L16610110 112274575
" />
<path d="M16999092 110868167
L16610110 110868167
" />
<path d="M16999092 110577741
L16999092 110868167
" />
<path d="M15901847 110577741
L16999092 110577741
" />
<path d="M15901847 110868167
L15901847 110577741
" />
<path d="M16268719 110868167
L15901847 110868167
" />
<path d="M16268719 112274575
L16268719 110868167
" />
<path d="M15879737 112274575
L16268719 112274575
" />
<path d="M15879737 112565000
L15879737 112274575
" />
<path d="M23465459 95555444
L23121071 95555444
" />
<path d="M23465459 93871352
L23465459 95555444
" />
<path d="M24030196 93871352
L23465459 93871352
" />
<path d="M24030196 93568185
L24030196 93871352
" />
<path d="M22585189 93568185
L24030196 93568185
" />
<path d="M22585189 93871352
L22585189 93568185
" />
<path d="M23121071 93871352
L22585189 93871352
" />
<path d="M23121071 95555444
L23121071 93871352
" />
<path d="M22365215 95555444
L21079849 95555444
" />
<path d="M22365215 95262021
L22365215 95555444
" />
<path d="M21430608 95262021
L22365215 95262021
" />
<path d="M21430608 94668804
L21430608 95262021
" />
<path d="M22205950 94668804
L21430608 94668804
" />
<path d="M22205950 94372008
L22205950 94668804
" />
<path d="M21430608 94372008
L22205950 94372008
" />
<path d="M21430608 93861609
L21430608 94372008
" />
<path d="M22374959 93861609
L21430608 93861609
" />
<path d="M22374959 93568185
L22374959 93861609
" />
<path d="M21079849 93568185
L22374959 93568185
" />
<path d="M21079849 95555444
L21079849 93568185
" />
<path d="M20094650.839300 95590674.084334 A840624.000000 840624.000000 0.0 0 0 20496375.022832 95506165.046786" />
<path d="M20496364.191414 95506143.655455 A551534.000000 551534.000000 0.0 0 0 20726092.133983 95287691.076545" />
<path d="M20726081.315721 95287684.981057 A570646.000000 570646.000000 0.0 0 0 20799541.685614 95009818.998777" />
<path d="M20799548.180629 95009819.131883 A605586.000000 605586.000000 0.0 0 0 20753260.941380 94764363.024378" />
<path d="M20753239.387200 94764373.221691 A500599.000000 500599.000000 0.0 0 0 20592121.982484 94571371.024464" />
<path d="M20592125.711563 94571365.861119 A1705919.000000 1705919.000000 0.0 0 0 20276401.950678 94391120.112866" />
<path d="M20006957.831817 94253970.836752 A1973549.000000 1973549.000000 0.0 0 0 20276401.946625 94391120.128330" />
<path d="M19890413.146219 94145665.611775 A354295.000000 354295.000000 0.0 0 0 20006961.770296 94253964.399086" />
<path d="M19861542.989626 94030616.702997 A229385.000000 229385.000000 0.0 0 0 19890416.915095 94145663.047205" />
<path d="M19938172.485983 93890428.205690 A176317.000000 176317.000000 0.0 0 0 19861562.165094 94030617.004949" />
<path d="M20145614.559204 93829781.552403 A325096.000000 325096.000000 0.0 0 0 19938196.983558 93890463.977136" />
<path d="M20306756.720364 93848864.211018 A604029.000000 604029.000000 0.0 0 0 20145616.003002 93829755.179801" />
<path d="M20436043.699149 93925688.291715 A308056.000000 308056.000000 0.0 0 0 20306755.868811 93848867.440350" />
<path d="M20478954.053668 93987707.206657 A200933.000000 200933.000000 0.0 0 0 20436041.730389 93925690.274335" />
<path d="M20489997.652521 94036988.853210 A241107.000000 241107.000000 0.0 0 0 20478950.315698 93987708.893467" />
<path d="M20515487 94056100
L20490005 94036988
" />
<path d="M20534599 94033990
L20515487 94056100
" />
<path d="M20745204 93791532
L20534599 94033990
" />
<path d="M20745200.460010 93791535.232452 A784611.000000 784611.000000 0.0 0 0 20142618.985564 93536331.511604" />
<path d="M20142618.729826 93536346.284992 A767791.000000 767791.000000 0.0 0 0 19813969.056591 93603411.126213" />
<path d="M19813970.872307 93603415.217811 A558083.000000 558083.000000 0.0 0 0 19589123.921909 93785160.943183" />
<path d="M19589136.726270 93785170.033530 A440940.000000 440940.000000 0.0 0 0 19507805.452380 94046730.993504" />
<path d="M19507814.533275 94046731.151199 A552955.000000 552955.000000 0.0 0 0 19558769.905514 94287503.043674" />
<path d="M19558797.232069 94287489.090937 A551790.000000 551790.000000 0.0 0 0 19729278.163202 94485366.771733" />
<path d="M19729272.414379 94485374.764703 A1599293.000000 1599293.000000 0.0 0 0 20053055.163017 94665430.605024" />
<path d="M20303566.892226 94799593.868209 A1859680.000000 1859680.000000 0.0 0 0 20053054.977530 94665431.050972" />
<path d="M20416732.899426 94912767.090567 A332959.000000 332959.000000 0.0 0 0 20303569.792495 94799589.344025" />
<path d="M20445424.704581 95032304.074318 A258028.000000 258028.000000 0.0 0 0 20416742.614218 94912761.198892" />
<path d="M20351342.651913 95225472.433551 A220065.000000 220065.000000 0.0 0 0 20445409.932196 95032304.003856" />
<path d="M20107393.774097 95290858.699995 A418477.000000 418477.000000 0.0 0 0 20351350.089098 95225483.139504" />
<path d="M19895100.173617 95252467.140535 A572807.000000 572807.000000 0.0 0 0 20107392.996320 95290875.648264" />
<path d="M19718043.249622 95153709.032347 A747042.000000 747042.000000 0.0 0 0 19895101.156321 95252464.600135" />
<path d="M19668748.894147 95094515.553766 A212368.000000 212368.000000 0.0 0 0 19718034.848170 95153720.182399" />
<path d="M19651331.036641 95045044.990836 A280449.000000 280449.000000 0.0 0 0 19668757.406268 95094510.812518" />
<path d="M19622476 95029306
L19651331 95045045
" />
<path d="M19609735 95054788
L19622476 95029306
" />
<path d="M19434355 95351209
L19609735 95054788
" />
<path d="M19434377.897321 95351187.006102 A697072.000000 697072.000000 0.0 0 0 19722906.964111 95531648.111146" />
<path d="M19722906.947739 95531648.156648 A1148899.000000 1148899.000000 0.0 0 0 20094651.000607 95590670.085515" />
<path d="M18260662 95555444
L17938759 95555444
" />
<path d="M18260662 94630580
L18260662 95555444
" />
<path d="M19004151 94630580
L18260662 94630580
" />
<path d="M19004151 94340155
L19004151 94630580
" />
<path d="M18260662 94340155
L19004151 94340155
" />
<path d="M18260662 93858611
L18260662 94340155
" />
<path d="M19176158 93858611
L18260662 93858611
" />
<path d="M19176158 93568185
L19176158 93858611
" />
<path d="M17938759 93568185
L19176158 93568185
" />
<path d="M17938759 95555444
L17938759 93568185
" />
<path d="M16666134 95555444
L16344230 95555444
" />
<path d="M16666134 94630580
L16666134 95555444
" />
<path d="M17409622 94630580
L16666134 94630580
" />
<path d="M17409622 94340155
L17409622 94630580
" />
<path d="M16666134 94340155
L17409622 94340155
" />
<path d="M16666134 93858611
L16666134 94340155
" />
<path d="M17581629 93858611
L16666134 93858611
" />
<path d="M17581629 93568185
L17581629 93858611
" />
<path d="M16344230 93568185
L17581629 93568185
" />
<path d="M16344230 95555444
L16344230 93568185
" />
<path d="M15057335.998643 95116821.149198 A312447.000000 312447.000000 0.0 0 0 15342918.001113 95300245.341592" />
<path d="M14956947.699166 94560128.822523 A1197505.000000 1197505.000000 0.0 0 0 15057365.075463 95116807.966580" />
<path d="M15057371.881138 94022938.081271 A1167805.000000 1167805.000000 0.0 0 0 14956933.670720 94560128.016920" />
<path d="M15342917.973683 93833122.063057 A311781.000000 311781.000000 0.0 0 0 15057364.650935 94022934.851626" />
<path d="M15623559.597643 94022952.056343 A310723.000000 310723.000000 0.0 0 0 15342918.003760 93833127.792098" />
<path d="M15725511.748730 94560127.051669 A1152965.000000 1152965.000000 0.0 0 0 15623600.275534 94022934.874673" />
<path d="M15623593.655459 95116805.145439 A1182298.000000 1182298.000000 0.0 0 0 15725529.659223 94560128.020667" />
<path d="M15342918.494790 95300294.375094 A311210.000000 311210.000000 0.0 0 0 15623599.840061 95116807.928029" />
<path d="M15342920.353424 95593622.790378 A632478.000000 632478.000000 0.0 0 0 15893227.251986 95325727.177134" />
<path d="M15893241.816267 95325736.072110 A1306292.000000 1306292.000000 0.0 0 0 16083033.938838 94563501.003757" />
<path d="M16083036.193913 94563501.125362 A1296127.000000 1296127.000000 0.0 0 0 15893226.686421 93810831.192749" />
<path d="M15893248.243464 93810816.324658 A630007.000000 630007.000000 0.0 0 0 15342918.015161 93539705.298262" />
<path d="M15342915.479793 93539749.772727 A631949.000000 631949.000000 0.0 0 0 14787925.282387 93810831.195625" />
<path d="M14787912.618624 93810823.465182 A1305107.000000 1305107.000000 0.0 0 0 14599804.031734 94563500.998193" />
<path d="M14599789.534549 94563500.115201 A1315264.000000 1315264.000000 0.0 0 0 14787924.642186 95325727.216954" />
<path d="M14787946.475661 95325711.865409 A634508.000000 634508.000000 0.0 0 0 15342917.986375 95593667.762344" />
<path d="M23465459 44555444
L23121071 44555444
" />
<path d="M23465459 42871352
L23465459 44555444
" />
<path d="M24030196 42871352
L23465459 42871352
" />
<path d="M24030196 42568185
L24030196 42871352
" />
<path d="M22585189 42568185
L24030196 42568185
" />
<path d="M22585189 42871352
L22585189 42568185
" />
<path d="M23121071 42871352
L22585189 42871352
" />
<path d="M23121071 44555444
L23121071 42871352
" />
<path d="M22365215 44555444
L21079849 44555444
" />
<path d="M22365215 44262021
L22365215 44555444
" />
<path d="M21430608 44262021
L22365215 44262021
" />
<path d="M21430608 43668804
L21430608 44262021
" />
<path d="M22205950 43668804
L21430608 43668804
" />
<path d="M22205950 43372008
L22205950 43668804
" />
<path d="M21430608 43372008
L22205950 43372008
" />
<path d="M21430608 42861609
L21430608 43372008
" />
<path d="M22374959 42861609
L21430608 42861609
" />
<path d="M22374959 42568185
L22374959 42861609
" />
<path d="M21079849 42568185
L22374959 42568185
" />
<path d="M21079849 44555444
L21079849 42568185
" />
<path d="M20094650.839300 44590674.084334 A840624.000000 840624.000000 0.0 0 0 20496375.022832 44506165.046786" />
<path d="M20496364.191414 44506143.655455 A551534.000000 551534.000000 0.0 0 0 20726092.133983 44287691.076545" />
<path d="M20726081.315721 44287684.981057 A570646.000000 570646.000000 0.0 0 0 20799541.685614 44009818.998777" />
<path d="M20799548.180629 44009819.131883 A605586.000000 605586.000000 0.0 0 0 20753260.941380 43764363.024378" />
<path d="M20753239.387200 43764373.221691 A500599.000000 500599.000000 0.0 0 0 20592121.982484 43571371.024464" />
<path d="M20592125.711563 43571365.861119 A1705919.000000 1705919.000000 0.0 0 0 20276401.950678 43391120.112866" />
<path d="M20006957.831817 43253970.836752 A1973549.000000 1973549.000000 0.0 0 0 20276401.946625 43391120.128330" />
<path d="M19890413.146219 43145665.611775 A354295.000000 354295.000000 0.0 0 0 20006961.770296 43253964.399086" />
<path d="M19861542.989626 43030616.702997 A229385.000000 229385.000000 0.0 0 0 19890416.915095 43145663.047205" />
<path d="M19938172.485983 42890428.205690 A176317.000000 176317.000000 0.0 0 0 19861562.165094 43030617.004949" />
<path d="M20145614.559204 42829781.552403 A325096.000000 325096.000000 0.0 0 0 19938196.983558 42890463.977136" />
<path d="M20306756.720364 42848864.211018 A604029.000000 604029.000000 0.0 0 0 20145616.003002 42829755.179801" />
<path d="M20436043.699149 42925688.291715 A308056.000000 308056.000000 0.0 0 0 20306755.868811 42848867.440350" />
<path d="M20478954.053668 42987707.206657 A200933.000000 200933.000000 0.0 0 0 20436041.730389 42925690.274335" />
<path d="M20489997.652521 43036988.853210 A241107.000000 241107.000000 0.0 0 0 20478950.315698 42987708.893467" />
<path d="M20515487 43056100
L20490005 43036988
" />
<path d="M20534599 43033990
L20515487 43056100
" />
<path d="M20745204 42791532
L20534599 43033990
" />
<path d="M20745200.460010 42791535.232452 A784611.000000 784611.000000 0.0 0 0 20142618.985564 42536331.511604" />
<path d="M20142618.729826 42536346.284992 A767791.000000 767791.000000 0.0 0 0 19813969.056591 42603411.126213" />
<path d="M19813970.872307 42603415.217811 A558083.000000 558083.000000 0.0 0 0 19589123.921909 42785160.943183" />
<path d="M19589136.726270 42785170.033530 A440940.000000 440940.000000 0.0 0 0 19507805.452380 43046730.993504" />
<path d="M19507814.533275 43046731.151199 A552955.000000 552955.000000 0.0 0 0 19558769.905514 43287503.043674" />
<path d="M19558797.232069 43287489.090937 A551790.000000 551790.000000 0.0 0 0 19729278.163202 43485366.771733" />
<path d="M19729272.414379 43485374.764703 A1599293.000000 1599293.000000 0.0 0 0 20053055.163017 43665430.605024" />
<path d="M20303566.892226 43799593.868209 A1859680.000000 1859680.000000 0.0 0 0 20053054.977530 43665431.050972" />
<path d="M20416732.899426 43912767.090567 A332959.000000 332959.000000 0.0 0 0 20303569.792495 43799589.344025" />
<path d="M20445424.704581 44032304.074318 A258028.000000 258028.000000 0.0 0 0 20416742.614218 43912761.198892" />
<path d="M20351342.651913 44225472.433551 A220065.000000 220065.000000 0.0 0 0 20445409.932196 44032304.003856" />
<path d="M20107393.774097 44290858.699995 A418477.000000 418477.000000 0.0 0 0 20351350.089098 44225483.139504" />
<path d="M19895100.173617 44252467.140535 A572807.000000 572807.000000 0.0 0 0 20107392.996320 44290875.648264" />
<path d="M19718043.249622 44153709.032347 A747042.000000 747042.000000 0.0 0 0 19895101.156321 44252464.600135" />
<path d="M19668748.894147 44094515.553766 A212368.000000 212368.000000 0.0 0 0 19718034.848170 44153720.182399" />
<path d="M19651331.036641 44045044.990836 A280449.000000 280449.000000 0.0 0 0 19668757.406268 44094510.812518" />
<path d="M19622476 44029306
L19651331 44045045
" />
<path d="M19609735 44054788
L19622476 44029306
" />
<path d="M19434355 44351209
L19609735 44054788
" />
<path d="M19434377.897321 44351187.006102 A697072.000000 697072.000000 0.0 0 0 19722906.964111 44531648.111146" />
<path d="M19722906.947739 44531648.156648 A1148899.000000 1148899.000000 0.0 0 0 20094651.000607 44590670.085515" />
<path d="M18260662 44555444
L17938759 44555444
" />
<path d="M18260662 43630580
L18260662 44555444
" />
<path d="M19004151 43630580
L18260662 43630580
" />
<path d="M19004151 43340155
L19004151 43630580
" />
<path d="M18260662 43340155
L19004151 43340155
" />
<path d="M18260662 42858611
L18260662 43340155
" />
<path d="M19176158 42858611
L18260662 42858611
" />
<path d="M19176158 42568185
L19176158 42858611
" />
<path d="M17938759 42568185
L19176158 42568185
" />
<path d="M17938759 44555444
L17938759 42568185
" />
<path d="M16666134 44555444
L16344230 44555444
" />
<path d="M16666134 43630580
L16666134 44555444
" />
<path d="M17409622 43630580
L16666134 43630580
" />
<path d="M17409622 43340155
L17409622 43630580
" />
<path d="M16666134 43340155
L17409622 43340155
" />
<path d="M16666134 42858611
L16666134 43340155
" />
<path d="M17581629 42858611
L16666134 42858611
" />
<path d="M17581629 42568185
L17581629 42858611
" />
<path d="M16344230 42568185
L17581629 42568185
" />
<path d="M16344230 44555444
L16344230 42568185
" />
<path d="M15057335.998643 44116821.149198 A312447.000000 312447.000000 0.0 0 0 15342918.001113 44300245.341592" />
<path d="M14956947.699166 43560128.822523 A1197505.000000 1197505.000000 0.0 0 0 15057365.075463 44116807.966580" />
<path d="M15057371.881138 43022938.081271 A1167805.000000 1167805.000000 0.0 0 0 14956933.670720 43560128.016920" />
<path d="M15342917.973683 42833122.063057 A311781.000000 311781.000000 0.0 0 0 15057364.650935 43022934.851626" />
<path d="M15623559.597643 43022952.056343 A310723.000000 310723.000000 0.0 0 0 15342918.003760 42833127.792098" />
<path d="M15725511.748730 43560127.051669 A1152965.000000 1152965.000000 0.0 0 0 15623600.275534 43022934.874673" />
<path d="M15623593.655459 44116805.145439 A1182298.000000 1182298.000000 0.0 0 0 15725529.659223 43560128.020667" />
<path d="M15342918.494790 44300294.375094 A311210.000000 311210.000000 0.0 0 0 15623599.840061 44116807.928029" />
<path d="M15342920.353424 44593622.790378 A632478.000000 632478.000000 0.0 0 0 15893227.251986 44325727.177134" />
<path d="M15893241.816267 44325736.072110 A1306292.000000 1306292.000000 0.0 0 0 16083033.938838 43563501.003757" />
<path d="M16083036.193913 43563501.125362 A1296127.000000 1296127.000000 0.0 0 0 15893226.686421 42810831.192749" />
<path d="M15893248.243464 42810816.324658 A630007.000000 630007.000000 0.0 0 0 15342918.015161 42539705.298262" />
<path d="M15342915.479793 42539749.772727 A631949.000000 631949.000000 0.0 0 0 14787925.282387 42810831.195625" />
<path d="M14787912.618624 42810823.465182 A1305107.000000 1305107.000000 0.0 0 0 14599804.031734 43563500.998193" />
<path d="M14599789.534549 43563500.115201 A1315264.000000 1315264.000000 0.0 0 0 14787924.642186 44325727.216954" />
<path d="M14787946.475661 44325711.865409 A634508.000000 634508.000000 0.0 0 0 15342917.986375 44593667.762344" />
<path d="M43073666 28552071
L42729278 28552071
" />
<path d="M43073666 26867979
L43073666 28552071
" />
<path d="M43638403 26867979
L43073666 26867979
" />
<path d="M43638403 26564813
L43638403 26867979
" />
<path d="M42193396 26564813
L43638403 26564813
" />
<path d="M42193396 26867979
L42193396 26564813
" />
<path d="M42729278 26867979
L42193396 26867979
" />
<path d="M42729278 28552071
L42729278 26867979
" />
<path d="M41322870.280310 28593661.049686 A688120.000000 688120.000000 0.0 0 0 41817341.676164 28411729.649182" />
<path d="M41817320.047374 28411710.054591 A746379.000000 746379.000000 0.0 0 0 42008647.589448 27847181.034566" />
<path d="M42008648 26564813
L42008648 27847181
" />
<path d="M41657889 26564813
L42008648 26564813
" />
<path d="M41657889 27850179
L41657889 26564813
" />
<path d="M41584464.621718 28182214.173290 A629176.000000 629176.000000 0.0 0 0 41657889.397051 27850178.977738" />
<path d="M41325869.644494 28300229.281846 A279949.000000 279949.000000 0.0 0 0 41584440.363316 28182201.253993" />
<path d="M41070863.623057 28182195.177115 A271780.000000 271780.000000 0.0 0 0 41325867.982580 28300244.841915" />
<path d="M41000605.703521 27859922.743305 A629397.000000 629397.000000 0.0 0 0 41070854.567589 28182201.224979" />
<path d="M41000591 26711712
L41000591 27859922
" />
<path d="M41005465.282421 26636763.358442 A414048.000000 414048.000000 0.0 0 0 41000590.590669 26711712.010594" />
<path d="M41026063.180001 26593659.001121 A97337.000000 97337.000000 0.0 0 0 41005462.769170 26636762.953714" />
<path d="M41026074 26564813
L41026074 26593668
" />
<path d="M40640089 26564813
L41026074 26564813
" />
<path d="M40640089 27856550
L40640089 26564813
" />
<path d="M40640120.069558 27856551.885223 A776806.000000 776806.000000 0.0 0 0 40817154.721719 28398989.230398" />
<path d="M40817139.793560 28399003.821702 A648869.000000 648869.000000 0.0 0 0 41322869.996080 28593667.938199" />
<path d="M39449173.844717 28113427.820256 A312374.000000 312374.000000 0.0 0 0 39734711.001178 28296872.363939" />
<path d="M39348729.029787 27556756.121824 A1197522.000000 1197522.000000 0.0 0 0 39449158.380658 28113434.831412" />
<path d="M39449153.339950 27019559.913431 A1167813.000000 1167813.000000 0.0 0 0 39348727.098129 27556755.994955" />
<path d="M39734711.142947 26829787.093064 A311816.000000 311816.000000 0.0 0 0 39449157.656115 27019561.853744" />
<path d="M40015343.336536 27019582.961860 A310696.000000 310696.000000 0.0 0 0 39734711.005960 26829754.670037" />
<path d="M40117339.426414 27556756.852490 A1152989.000000 1152989.000000 0.0 0 0 40015393.407845 27019561.814462" />
<path d="M40015375.078495 28113426.936185 A1182290.000000 1182290.000000 0.0 0 0 40117323.339832 27556755.979398" />
<path d="M39734711.274413 28296899.447616 A311215.000000 311215.000000 0.0 0 0 40015393.115960 28113435.052193" />
<path d="M39734712.026192 28590275.293168 A632431.000000 632431.000000 0.0 0 0 40285021.159639 28322354.112198" />
<path d="M40285021.333120 28322354.203981 A1306284.000000 1306284.000000 0.0 0 0 40474827.583528 27560128.025577" />
<path d="M40474835.948878 27560128.454120 A1296146.000000 1296146.000000 0.0 0 0 40285020.912553 26807458.053752" />
<path d="M40285037.539713 26807446.574817 A629981.000000 629981.000000 0.0 0 0 39734710.984201 26536331.689268" />
<path d="M39734709.511330 26536358.451039 A631940.000000 631940.000000 0.0 0 0 39179717.772153 26807457.842171" />
<path d="M39179703.499162 26807449.174976 A1305016.000000 1305016.000000 0.0 0 0 38991596.718137 27560128.016058" />
<path d="M38991567.900677 27560126.220707 A1315284.000000 1315284.000000 0.0 0 0 39179717.628974 28322354.224973" />
<path d="M39179734.796165 28322342.162487 A634535.000000 634535.000000 0.0 0 0 39734711.011836 28590295.206489" />
<path d="M31822963 28555257
L31822963 26567998
" />
<path d="M32148240 28555257
L31822963 28555257
" />
<path d="M32148240 27161215
L32148240 28555257
" />
<path d="M32843761 28555257
L32148240 27161215
" />
<path d="M33178406 28555257
L32843761 28555257
" />
<path d="M33178406 26714897
L33178406 28555257
" />
<path d="M33183281.356674 26639948.527032 A414232.000000 414232.000000 0.0 0 0 33178406.140962 26714896.996359" />
<path d="M33204252.719355 26596843.366134 A95403.000000 95403.000000 0.0 0 0 33183278.154020 26639948.031047" />
<path d="M33204264 26567998
L33204264 26596853
" />
<path d="M32853130 26567998
L33204264 26567998
" />
<path d="M32872242 27875849
L32853130 26567998
" />
<path d="M32199205 26567998
L32872242 27875849
" />
<path d="M31822963 26567998
L32199205 26567998
" />
<path d="M31469206 28555257
L30333737 28555257
" />
<path d="M31469206 28264831
L31469206 28555257
" />
<path d="M31064110 28264831
L31469206 28264831
" />
<path d="M31064110 26858423
L31064110 28264831
" />
<path d="M31453093 26858423
L31064110 26858423
" />
<path d="M31453093 26567998
L31453093 26858423
" />
<path d="M30355847 26567998
L31453093 26567998
" />
<path d="M30355847 26858423
L30355847 26567998
" />
<path d="M30722720 26858423
L30355847 26858423
" />
<path d="M30722720 28264831
L30722720 26858423
" />
<path d="M30333737 28264831
L30722720 28264831
" />
<path d="M30333737 28555257
L30333737 28264831
" />
<path d="M27852568 28561627
L27610484 28561627
" />
<path d="M28484384 26567998
L27852568 28561627
" />
<path d="M28136623 26567998
L28484384 26567998
" />
<path d="M27747640 27965037
L28136623 26567998
" />
<path d="M27329802 26567998
L27747640 27965037
" />
<path d="M26972298 26567998
L27329802 26567998
" />
<path d="M27610484 28561627
L26972298 26567998
" />
<path d="M26216817.815572 28590489.823332 A792710.000000 792710.000000 0.0 0 0 26572448.039744 28515534.084635" />
<path d="M26572446.256007 28515530.736579 A658455.000000 658455.000000 0.0 0 0 26835516.661565 28258460.808973" />
<path d="M26586688 28073713
L26835517 28258461
" />
<path d="M26430430.513246 28242736.680729 A465841.000000 465841.000000 0.0 0 0 26586688.120766 28073713.065430" />
<path d="M26226186.373515 28293672.595974 A394005.000000 394005.000000 0.0 0 0 26430421.183410 28242722.324168" />
<path d="M25908964.628272 28097510.260599 A369907.000000 369907.000000 0.0 0 0 26226185.995188 28293687.189019" />
<path d="M25782853.693390 27556942.337110 A993885.000000 993885.000000 0.0 0 0 25908967.285711 28097508.839355" />
<path d="M25848274.641754 27156537.129528 A1068685.000000 1068685.000000 0.0 0 0 25782865.961361 27556943.001123" />
<path d="M26020462.593227 26912585.560333 A573347.000000 573347.000000 0.0 0 0 25848258.315180 27156531.115494" />
<path d="M26248671.268425 26829595.022432 A365323.000000 365323.000000 0.0 0 0 26020453.093249 26912574.113552" />
<path d="M26406441.097447 26859911.864427 A416336.000000 416336.000000 0.0 0 0 26248670.998298 26829567.590201" />
<path d="M26551838.311297 26973092.962368 A387585.000000 387585.000000 0.0 0 0 26406437.012755 26859921.971545" />
<path d="M26585186.122200 27041673.084702 A414311.000000 414311.000000 0.0 0 0 26551837.236064 26973093.856960" />
<path d="M26590040.947591 27088137.518792 A103726.000000 103726.000000 0.0 0 0 26585189.242377 27041671.916658" />
<path d="M26605800 27113623
L26590061 27088140
" />
<path d="M26631283 27097509
L26605800 27113623
" />
<path d="M26858002 26928500
L26631283 27097509
" />
<path d="M26858011.280669 26928496.002332 A641550.000000 641550.000000 0.0 0 0 26613857.042606 26641446.933218" />
<path d="M26613865.196733 26641433.504378 A703245.000000 703245.000000 0.0 0 0 26229559.007361 26539518.268924" />
<path d="M26229558.998067 26539517.639637 A809494.000000 809494.000000 0.0 0 0 25947189.968153 26591980.915912" />
<path d="M25947187.647597 26591974.806481 A719615.000000 719615.000000 0.0 0 0 25687307.042172 26762489.041093" />
<path d="M25687315.782629 26762497.333810 A846547.000000 846547.000000 0.0 0 0 25497499.775203 27079895.925812" />
<path d="M25497502.251496 27079896.734144 A1466758.000000 1466758.000000 0.0 0 0 25425736.451816 27572681.988265" />
<path d="M25425750.443374 27572682.511777 A1356000.000000 1356000.000000 0.0 0 0 25532537.855608 28150160.061240" />
<path d="M25532541.984496 28150158.272956 A739666.000000 739666.000000 0.0 0 0 25819591.192317 28483493.691842" />
<path d="M25819587.984914 28483499.078852 A763817.000000 763817.000000 0.0 0 0 26216817.999453 28590481.942948" />
<path d="M17368963 28565000
L17368963 26577741
" />
<path d="M17694239 28565000
L17368963 28565000
" />
<path d="M17694239 27170958
L17694239 28565000
" />
<path d="M18389761 28565000
L17694239 27170958
" />
<path d="M18724406 28565000
L18389761 28565000
" />
<path d="M18724406 26724640
L18724406 28565000
" />
<path d="M18729276.017977 26649691.688863 A414033.000000 414033.000000 0.0 0 0 18724406.320817 26724639.991675" />
<path d="M18750272.085461 26606603.766174 A95414.000000 95414.000000 0.0 0 0 18729278.233973 26649692.047304" />
<path d="M18750263 26577741
L18750263 26606596
" />
<path d="M18399130 26577741
L18750263 26577741
" />
<path d="M18418242 27885592
L18399130 26577741
" />
<path d="M17745204 26577741
L18418242 27885592
" />
<path d="M17368963 26577741
L17745204 26577741
" />
<path d="M17015206 28565000
L15879737 28565000
" />
<path d="M17015206 28274575
L17015206 28565000
" />
<path d="M16610110 28274575
L17015206 28274575
" />
<path d="M16610110 26868167
L16610110 28274575
" />
<path d="M16999092 26868167
L16610110 26868167
" />
<path d="M16999092 26577741
L16999092 26868167
" />
<path d="M15901847 26577741
L16999092 26577741
" />
<path d="M15901847 26868167
L15901847 26577741
" />
<path d="M16268719 26868167
L15901847 26868167
" />
<path d="M16268719 28274575
L16268719 26868167
" />
<path d="M15879737 28274575
L16268719 28274575
" />
<path d="M15879737 28565000
L15879737 28274575
" />
<circle cx="41315000.000000" cy="20565000.000000" r="3200000.000000" /> 
<circle cx="29315000.000000" cy="20565000.000000" r="3200000.000000" /> 
<circle cx="17315000.000000" cy="20565000.000000" r="3200000.000000" /> 
<circle cx="19315000.000000" cy="36565000.000000" r="3200000.000000" /> 
<circle cx="19315000.000000" cy="87565000.000000" r="3200000.000000" /> 
<circle cx="41315000.000000" cy="104565000.000000" r="3200000.000000" /> 
<circle cx="29315000.000000" cy="104565000.000000" r="3200000.000000" /> 
<circle cx="17315000.000000" cy="104565000.000000" r="3200000.000000" /> 
<path d="M6565000.000000 123965000.000000 A1600000.000000 1600000.000000 0.0 0 0 6565000.000000 127165000.000000" />
<path d="M42065000.000000 123965000.000000 A1600000.000000 1600000.000000 0.0 0 0 42065000.000000 127165000.000000" />
<path d="M42065000.000000 1465000.000000 A1600000.000000 1600000.000000 0.0 0 0 42065000.000000 4665000.000000" />
<path d="M6565000.000000 1465000.000000 A1600000.000000 1600000.000000 0.0 0 0 6565000.000000 4665000.000000" />
<path d="M8565000.000000 127165000.000000 A1600000.000000 1600000.000000 0.0 0 0 8565000.000000 123965000.000000" />
<path d="M44065000.000000 127165000.000000 A1600000.000000 1600000.000000 0.0 0 0 44065000.000000 123965000.000000" />
<path d="M44065000.000000 4665000.000000 A1600000.000000 1600000.000000 0.0 0 0 44065000.000000 1465000.000000" />
<path d="M8565000.000000 4665000.000000 A1600000.000000 1600000.000000 0.0 0 0 8565000.000000 1465000.000000" />
<path d="M6565000 127165000
L8565000 127165000
" />
<path d="M42065000 127165000
L44065000 127165000
" />
<path d="M42065000 4665000
L44065000 4665000
" />
<path d="M6565000 4665000
L8565000 4665000
" />
<path d="M6565000 123965000
L8565000 123965000
" />
<path d="M42065000 123965000
L44065000 123965000
" />
<path d="M42065000 1465000
L44065000 1465000
" />
<path d="M6565000 1465000
L8565000 1465000
" />
<path d="M65000 65000
L65000 128565000
" />
<path d="M50565000 65000
L65000 65000
" />
<path d="M50565000 128565000
L50565000 65000
" />
<path d="M65000 128565000
L50565000 128565000
" />
<g >
</g>
<g >
</g>
<g >
</g>
</g> 
</svg>
