999
dxflib 3.26.4.0
  0
SECTION
  2
HEADER
  9
$ACADVER
  1
AC1015
  9
$HANDSEED
  5
FFFF
  9
$DIMADEC
 70
0
  9
$DIMASZ
 40
2.5
  9
$DIMATFIT
 70
0
  9
$DIMAUNIT
 70
0
  9
$DIMAZIN
 70
2
  9
$DIMBLK
  1
0
  9
$DIMBLK1
  1
0
  9
$DIMBLK2
  1
0
  9
$DIMDEC
 70
4
  9
$DIMDLI
 40
5.0
  9
$DIMDSEP
 70
46
  9
$DIMEXE
 40
1.25
  9
$DIMEXO
 40
0.625
  9
$DIMGAP
 40
0.625
  9
$DIMLFAC
 40
1.0
  9
$DIMLUNIT
 70
2
  9
$DIMSCALE
 40
1.0
  9
$DIMTAD
 70
1
  9
$DIMTIH
 70
0
  9
$DIMTSZ
 40
0.0
  9
$DIMTXT
 40
2.5
  9
$DIMZIN
 70
8
  9
$DWGCODEPAGE
  3
ANSI_1252
  9
$INSUNITS
 70
4
  9
$LTSCALE
 40
1.0
  9
$MAXACTVP
 70
64
  9
$MEASUREMENT
 70
1
  9
$MIRRTEXT
 70
0
  9
$PDMODE
 70
0
  9
$PDSIZE
 40
0.0
  0
ENDSEC
  0
SECTION
  2
TABLES
  0
TABLE
  2
VPORT
  5
8
100
AcDbSymbolTable
 70
1
  0
VPORT
  5
30
100
AcDbSymbolTableRecord
100
AcDbViewportTableRecord
  2
*Active
 70
0
 10
0.0
 20
0.0
 11
1.0
 21
1.0
 12
286.3055555555554861
 22
148.5
 13
0.0
 23
0.0
 14
10.0
 24
10.0
 15
10.0
 25
10.0
 16
0.0
 26
0.0
 36
1.0
 17
0.0
 27
0.0
 37
0.0
 40
297.0
 41
1.92798353909465
 42
50.0
 43
0.0
 44
0.0
 50
0.0
 51
0.0
 71
0
 72
100
 73
1
 74
3
 75
1
 76
1
 77
0
 78
0
281
0
 65
1
110
0.0
120
0.0
130
0.0
111
1.0
121
0.0
131
0.0
112
0.0
122
1.0
132
0.0
 79
0
146
0.0
  0
ENDTAB
  0
TABLE
  2
LTYPE
  5
5
100
AcDbSymbolTable
 70
41
  0
LTYPE
  5
16
100
AcDbSymbolTableRecord
100
AcDbLinetypeTableRecord
  2
Continuous
 70
0
  3
Solid line
 72
65
 73
0
 40
0.0
  0
LTYPE
  5
31
100
AcDbSymbolTableRecord
100
AcDbLinetypeTableRecord
  2
DIVIDE2
 70
0
  3
Divide (.5x) __..__..__..__..__..__..__..__.._
 72
65
 73
6
 40
15.8749999999999982
 49
6.3499999999999996
 74
0
 49
-3.125
 74
0
 49
0.1
 74
0
 49
-3.0750000000000002
 74
0
 49
0.1
 74
0
 49
-3.125
 74
0
  0
LTYPE
  5
32
100
AcDbSymbolTableRecord
100
AcDbLinetypeTableRecord
  2
DOT
 70
0
  3
Dot . . . . . . . . . . . . . . . . . . . . . . . .
 72
65
 73
2
 40
6.3499999999999996
 49
0.1
 74
0
 49
-6.25
 74
0
  0
LTYPE
  5
33
100
AcDbSymbolTableRecord
100
AcDbLinetypeTableRecord
  2
DASHDOTX2
 70
0
  3
Dash dot (2x) ____  .  ____  .  ____  .  ___
 72
65
 73
4
 40
50.7999999999999972
 49
25.3999999999999986
 74
0
 49
-12.6499999999999986
 74
0
 49
0.1
 74
0
 49
-12.6499999999999986
 74
0
  0
LTYPE
  5
34
100
AcDbSymbolTableRecord
100
AcDbLinetypeTableRecord
  2
DIVIDE
 70
0
  3
Divide ____ . . ____ . . ____ . . ____ . . ____
 72
65
 73
6
 40
31.7500000000000036
 49
12.6999999999999993
 74
0
 49
-6.2999999999999998
 74
0
 49
0.1
 74
0
 49
-6.25
 74
0
 49
0.1
 74
0
 49
-6.2999999999999998
 74
0
  0
LTYPE
  5
35
100
AcDbSymbolTableRecord
100
AcDbLinetypeTableRecord
  2
ACAD_ISO02W100
 70
0
  3
ISO dash __ __ __ __ __ __ __ __ __ __ __ __ __
 72
65
 73
2
 40
15.0
 49
12.0
 74
0
 49
-3.0
 74
0
  0
LTYPE
  5
36
100
AcDbSymbolTableRecord
100
AcDbLinetypeTableRecord
  2
PHANTOM
 70
0
  3
Phantom ______  __  __  ______  __  __  ______ 
 72
65
 73
6
 40
63.5000000000000071
 49
31.75
 74
0
 49
-6.3499999999999996
 74
0
 49
6.3499999999999996
 74
0
 49
-6.3499999999999996
 74
0
 49
6.3499999999999996
 74
0
 49
-6.3499999999999996
 74
0
  0
LTYPE
  5
37
100
AcDbSymbolTableRecord
100
AcDbLinetypeTableRecord
  2
HIDDEN2
 70
0
  3
Hidden (.5x) _ _ _ _ _ _ _ _ _ _ _ _ _ _ _ _ _ 
 72
65
 73
2
 40
4.7624999999999993
 49
3.1749999999999998
 74
0
 49
-1.5874999999999999
 74
0
  0
LTYPE
  5
38
100
AcDbSymbolTableRecord
100
AcDbLinetypeTableRecord
  2
ACAD_ISO10W100
 70
0
  3
ISO dash dot __ . __ . __ . __ . __ . __ . __ . 
 72
65
 73
4
 40
18.0
 49
12.0
 74
0
 49
-2.9500000000000002
 74
0
 49
0.1
 74
0
 49
-2.9500000000000002
 74
0
  0
LTYPE
  5
39
100
AcDbSymbolTableRecord
100
AcDbLinetypeTableRecord
  2
CENTER
 70
0
  3
Center ____ _ ____ _ ____ _ ____ _ ____ _ ____
 72
65
 73
4
 40
50.8000000000000043
 49
31.75
 74
0
 49
-6.3499999999999996
 74
0
 49
6.3499999999999996
 74
0
 49
-6.3499999999999996
 74
0
  0
LTYPE
  5
14
100
AcDbSymbolTableRecord
100
AcDbLinetypeTableRecord
  2
BYBLOCK
 70
0
  3

 72
65
 73
0
 40
0.0
  0
LTYPE
  5
3A
100
AcDbSymbolTableRecord
100
AcDbLinetypeTableRecord
  2
ACAD_ISO15W100
 70
0
  3
ISO double-dash triple-dot __ __ . . . __ __ . .
 72
65
 73
10
 40
39.0000000000000071
 49
12.0
 74
0
 49
-3.0
 74
0
 49
12.0
 74
0
 49
-2.9500000000000002
 74
0
 49
0.1
 74
0
 49
-2.9000000000000004
 74
0
 49
0.1
 74
0
 49
-2.9000000000000004
 74
0
 49
0.1
 74
0
 49
-2.9500000000000002
 74
0
  0
LTYPE
  5
3B
100
AcDbSymbolTableRecord
100
AcDbLinetypeTableRecord
  2
BORDER
 70
0
  3
Border __ __ . __ __ . __ __ . __ __ . __ __ .
 72
65
 73
6
 40
44.4499999999999957
 49
12.6999999999999993
 74
0
 49
-6.3499999999999996
 74
0
 49
12.6999999999999993
 74
0
 49
-6.2999999999999998
 74
0
 49
0.1
 74
0
 49
-6.2999999999999998
 74
0
  0
LTYPE
  5
3C
100
AcDbSymbolTableRecord
100
AcDbLinetypeTableRecord
  2
PHANTOM2
 70
0
  3
Phantom (.5x) ___ _ _ ___ _ _ ___ _ _ ___ _ _
 72
65
 73
6
 40
31.7500000000000036
 49
15.875
 74
0
 49
-3.1749999999999998
 74
0
 49
3.1749999999999998
 74
0
 49
-3.1749999999999998
 74
0
 49
3.1749999999999998
 74
0
 49
-3.1749999999999998
 74
0
  0
LTYPE
  5
3D
100
AcDbSymbolTableRecord
100
AcDbLinetypeTableRecord
  2
DASHED2
 70
0
  3
Dashed (.5x) _ _ _ _ _ _ _ _ _ _ _ _ _ _ _ _ _ 
 72
65
 73
2
 40
9.5249999999999986
 49
6.3499999999999996
 74
0
 49
-3.1749999999999998
 74
0
  0
LTYPE
  5
3E
100
AcDbSymbolTableRecord
100
AcDbLinetypeTableRecord
  2
CENTERX2
 70
0
  3
Center (2x) ________  __  ________  __  _____
 72
65
 73
4
 40
101.6000000000000085
 49
63.5
 74
0
 49
-12.6999999999999993
 74
0
 49
12.6999999999999993
 74
0
 49
-12.6999999999999993
 74
0
  0
LTYPE
  5
3F
100
AcDbSymbolTableRecord
100
AcDbLinetypeTableRecord
  2
CENTER2
 70
0
  3
Center (.5x) ___ _ ___ _ ___ _ ___ _ ___ _ ___
 72
65
 73
4
 40
28.5750000000000028
 49
19.0500000000000007
 74
0
 49
-3.1749999999999998
 74
0
 49
3.1749999999999998
 74
0
 49
-3.1749999999999998
 74
0
  0
LTYPE
  5
40
100
AcDbSymbolTableRecord
100
AcDbLinetypeTableRecord
  2
HIDDEN
 70
0
  3
Hidden __ __ __ __ __ __ __ __ __ __ __ __ __ __
 72
65
 73
2
 40
9.5249999999999986
 49
6.3499999999999996
 74
0
 49
-3.1749999999999998
 74
0
  0
LTYPE
  5
41
100
AcDbSymbolTableRecord
100
AcDbLinetypeTableRecord
  2
ACAD_ISO11W100
 70
0
  3
ISO double-dash dot __ __ . __ __ . __ __ . __ _
 72
65
 73
6
 40
33.0
 49
12.0
 74
0
 49
-3.0
 74
0
 49
12.0
 74
0
 49
-2.9500000000000002
 74
0
 49
0.1
 74
0
 49
-2.9500000000000002
 74
0
  0
LTYPE
  5
42
100
AcDbSymbolTableRecord
100
AcDbLinetypeTableRecord
  2
DOT2
 70
0
  3
Dot (.5x) ........................................
 72
65
 73
2
 40
3.1749999999999998
 49
0.1
 74
0
 49
-3.0749999999999997
 74
0
  0
LTYPE
  5
43
100
AcDbSymbolTableRecord
100
AcDbLinetypeTableRecord
  2
ACAD_ISO05W100
 70
0
  3
ISO long-dash double-dot ____ .. ____ .. ____ . 
 72
65
 73
6
 40
33.0000000000000071
 49
24.0
 74
0
 49
-2.9500000000000002
 74
0
 49
0.1
 74
0
 49
-2.9000000000000004
 74
0
 49
0.1
 74
0
 49
-2.9500000000000002
 74
0
  0
LTYPE
  5
44
100
AcDbSymbolTableRecord
100
AcDbLinetypeTableRecord
  2
ACAD_ISO04W100
 70
0
  3
ISO long-dash dot ____ . ____ . ____ . ____ . _
 72
65
 73
4
 40
30.0
 49
24.0
 74
0
 49
-2.9500000000000002
 74
0
 49
0.1
 74
0
 49
-2.9500000000000002
 74
0
  0
LTYPE
  5
45
100
AcDbSymbolTableRecord
100
AcDbLinetypeTableRecord
  2
DASHEDX2
 70
0
  3
Dashed (2x) ____  ____  ____  ____  ____  ___
 72
65
 73
2
 40
38.0999999999999943
 49
25.3999999999999986
 74
0
 49
-12.6999999999999993
 74
0
  0
LTYPE
  5
46
100
AcDbSymbolTableRecord
100
AcDbLinetypeTableRecord
  2
ACAD_ISO07W100
 70
0
  3
ISO dot . . . . . . . . . . . . . . . . . . . . 
 72
65
 73
2
 40
3.0
 49
0.1
 74
0
 49
-2.8999999999999999
 74
0
  0
LTYPE
  5
47
100
AcDbSymbolTableRecord
100
AcDbLinetypeTableRecord
  2
ACAD_ISO13W100
 70
0
  3
ISO double-dash double-dot __ __ . . __ __ . . _
 72
65
 73
8
 40
36.0000000000000071
 49
12.0
 74
0
 49
-3.0
 74
0
 49
12.0
 74
0
 49
-2.9500000000000002
 74
0
 49
0.1
 74
0
 49
-2.9000000000000004
 74
0
 49
0.1
 74
0
 49
-2.9500000000000002
 74
0
  0
LTYPE
  5
48
100
AcDbSymbolTableRecord
100
AcDbLinetypeTableRecord
  2
ACAD_ISO03W100
 70
0
  3
ISO dash space __    __    __    __    __    __
 72
65
 73
2
 40
30.0
 49
12.0
 74
0
 49
-18.0
 74
0
  0
LTYPE
  5
15
100
AcDbSymbolTableRecord
100
AcDbLinetypeTableRecord
  2
BYLAYER
 70
0
  3

 72
65
 73
0
 40
0.0
  0
LTYPE
  5
49
100
AcDbSymbolTableRecord
100
AcDbLinetypeTableRecord
  2
ACAD_ISO08W100
 70
0
  3
ISO long-dash short-dash ____ __ ____ __ ____ _
 72
65
 73
4
 40
36.0
 49
24.0
 74
0
 49
-3.0
 74
0
 49
6.0
 74
0
 49
-3.0
 74
0
  0
LTYPE
  5
4A
100
AcDbSymbolTableRecord
100
AcDbLinetypeTableRecord
  2
DASHED
 70
0
  3
Dashed __ __ __ __ __ __ __ __ __ __ __ __ __ _
 72
65
 73
2
 40
19.0499999999999972
 49
12.6999999999999993
 74
0
 49
-6.3499999999999996
 74
0
  0
LTYPE
  5
4B
100
AcDbSymbolTableRecord
100
AcDbLinetypeTableRecord
  2
DASHDOT
 70
0
  3
Dash dot __ . __ . __ . __ . __ . __ . __ . __
 72
65
 73
4
 40
25.4000000000000021
 49
12.6999999999999993
 74
0
 49
-6.2999999999999998
 74
0
 49
0.1
 74
0
 49
-6.2999999999999998
 74
0
  0
LTYPE
  5
4C
100
AcDbSymbolTableRecord
100
AcDbLinetypeTableRecord
  2
HIDDENX2
 70
0
  3
Hidden (2x) ____ ____ ____ ____ ____ ____ ____ 
 72
65
 73
2
 40
19.0499999999999972
 49
12.6999999999999993
 74
0
 49
-6.3499999999999996
 74
0
  0
LTYPE
  5
4D
100
AcDbSymbolTableRecord
100
AcDbLinetypeTableRecord
  2
BORDER2
 70
0
  3
Border (.5x) __.__.__.__.__.__.__.__.__.__.__.
 72
65
 73
6
 40
22.2250000000000014
 49
6.3499999999999996
 74
0
 49
-3.1749999999999998
 74
0
 49
6.3499999999999996
 74
0
 49
-3.125
 74
0
 49
0.1
 74
0
 49
-3.125
 74
0
  0
LTYPE
  5
4E
100
AcDbSymbolTableRecord
100
AcDbLinetypeTableRecord
  2
PHANTOMX2
 70
0
  3
Phantom (2x) ____________    ____    ____   _
 72
65
 73
6
 40
127.0000000000000142
 49
63.5
 74
0
 49
-12.6999999999999993
 74
0
 49
12.6999999999999993
 74
0
 49
-12.6999999999999993
 74
0
 49
12.6999999999999993
 74
0
 49
-12.6999999999999993
 74
0
  0
LTYPE
  5
4F
100
AcDbSymbolTableRecord
100
AcDbLinetypeTableRecord
  2
BORDERX2
 70
0
  3
Border (2x) ____  ____  .  ____  ____  .  ___
 72
65
 73
6
 40
88.8999999999999773
 49
25.3999999999999986
 74
0
 49
-12.6999999999999993
 74
0
 49
25.3999999999999986
 74
0
 49
-12.6499999999999986
 74
0
 49
0.1
 74
0
 49
-12.6499999999999986
 74
0
  0
LTYPE
  5
50
100
AcDbSymbolTableRecord
100
AcDbLinetypeTableRecord
  2
ACAD_ISO14W100
 70
0
  3
ISO dash triple-dot __ . . . __ . . . __ . . . _
 72
65
 73
8
 40
24.0000000000000036
 49
12.0
 74
0
 49
-2.9500000000000002
 74
0
 49
0.1
 74
0
 49
-2.9000000000000004
 74
0
 49
0.1
 74
0
 49
-2.9000000000000004
 74
0
 49
0.1
 74
0
 49
-2.9500000000000002
 74
0
  0
LTYPE
  5
51
100
AcDbSymbolTableRecord
100
AcDbLinetypeTableRecord
  2
ACAD_ISO06W100
 70
0
  3
ISO long-dash triple-dot ____ ... ____ ... ____
 72
65
 73
8
 40
36.0000000000000071
 49
24.0
 74
0
 49
-2.9500000000000002
 74
0
 49
0.1
 74
0
 49
-2.9000000000000004
 74
0
 49
0.1
 74
0
 49
-2.9000000000000004
 74
0
 49
0.1
 74
0
 49
-2.9500000000000002
 74
0
  0
LTYPE
  5
52
100
AcDbSymbolTableRecord
100
AcDbLinetypeTableRecord
  2
DASHDOT2
 70
0
  3
Dash dot (.5x) _._._._._._._._._._._._._._._.
 72
65
 73
4
 40
12.6999999999999993
 49
6.3499999999999996
 74
0
 49
-3.125
 74
0
 49
0.1
 74
0
 49
-3.125
 74
0
  0
LTYPE
  5
53
100
AcDbSymbolTableRecord
100
AcDbLinetypeTableRecord
  2
DIVIDEX2
 70
0
  3
Divide (2x) ________  .  .  ________  .  .  _
 72
65
 73
6
 40
63.5
 49
25.3999999999999986
 74
0
 49
-12.6499999999999986
 74
0
 49
0.1
 74
0
 49
-12.5999999999999979
 74
0
 49
0.1
 74
0
 49
-12.6499999999999986
 74
0
  0
LTYPE
  5
54
100
AcDbSymbolTableRecord
100
AcDbLinetypeTableRecord
  2
DOTX2
 70
0
  3
Dot (2x) .  .  .  .  .  .  .  .  .  .  .  .  .  .
 72
65
 73
2
 40
12.6999999999999993
 49
0.1
 74
0
 49
-12.5999999999999996
 74
0
  0
LTYPE
  5
55
100
AcDbSymbolTableRecord
100
AcDbLinetypeTableRecord
  2
ACAD_ISO09W100
 70
0
  3
ISO long-dash double-short-dash ____ __ __ ____
 72
65
 73
6
 40
45.0
 49
24.0
 74
0
 49
-3.0
 74
0
 49
6.0
 74
0
 49
-3.0
 74
0
 49
6.0
 74
0
 49
-3.0
 74
0
  0
LTYPE
  5
56
100
AcDbSymbolTableRecord
100
AcDbLinetypeTableRecord
  2
ACAD_ISO12W100
 70
0
  3
ISO dash double-dot __ . . __ . . __ . . __ . . 
 72
65
 73
6
 40
21.0
 49
12.0
 74
0
 49
-2.9500000000000002
 74
0
 49
0.1
 74
0
 49
-2.9000000000000004
 74
0
 49
0.1
 74
0
 49
-2.9500000000000002
 74
0
  0
ENDTAB
  0
TABLE
  2
LAYER
  5
2
100
AcDbSymbolTable
 70
5
  0
LAYER
  5
10
100
AcDbSymbolTableRecord
100
AcDbLayerTableRecord
  2
0
 70
0
 62
2
420
16776960
  6
Continuous
370
25
390
F
  0
LAYER
  5
57
100
AcDbSymbolTableRecord
100
AcDbLayerTableRecord
  2
Cuts
 70
0
 62
1
420
16711680
  6
Continuous
370
13
390
F
  0
LAYER
  5
58
100
AcDbSymbolTableRecord
100
AcDbLayerTableRecord
  2
AreaEngraving
 70
0
 62
3
420
65280
  6
Continuous
370
13
390
F
  0
LAYER
  5
59
100
AcDbSymbolTableRecord
100
AcDbLayerTableRecord
  2
UserDrawings
 70
0
 62
9
420
12632256
  6
Continuous
370
13
390
F
  0
LAYER
  5
5A
100
AcDbSymbolTableRecord
100
AcDbLayerTableRecord
  2
VectorEngraving
 70
0
 62
5
420
255
  6
Continuous
370
13
390
F
  0
ENDTAB
  0
TABLE
  2
STYLE
  5
3
100
AcDbSymbolTable
 70
1
  0
STYLE
  5
5B
100
AcDbSymbolTableRecord
100
AcDbTextStyleTableRecord
  2
Standard
 70
0
 40
0.0
 41
1.0
 50
0.0
 71
0
 42
2.5
  3

  4

1001
ACAD
1000
txt
1071
0
  0
ENDTAB
  0
TABLE
  2
VIEW
  5
6
100
AcDbSymbolTable
 70
0
  0
ENDTAB
  0
TABLE
  2
UCS
  5
7
100
AcDbSymbolTable
 70
0
  0
ENDTAB
  0
TABLE
  2
APPID
  5
9
100
AcDbSymbolTable
 70
1
  0
APPID
  5
12
100
AcDbSymbolTableRecord
100
AcDbRegAppTableRecord
  2
ACAD
 70
0
  0
APPID
  5
5C
100
AcDbSymbolTableRecord
100
AcDbRegAppTableRecord
  2
QCAD
 70
0
  0
ENDTAB
  0
TABLE
  2
DIMSTYLE
  5
A
100
AcDbSymbolTable
 70
1
100
AcDbDimStyleTable
 71
0
  0
DIMSTYLE
105
27
100
AcDbSymbolTableRecord
100
AcDbDimStyleTableRecord
  2
Standard
 41
2.5
 42
0.625
 43
3.75
 44
1.25
 70
0
 73
0
 74
0
 77
1
 78
8
140
2.5
141
2.5
143
0.03937007874016
147
0.625
171
3
172
1
271
2
272
2
274
3
278
44
283
0
284
8
340
5B
  0
ENDTAB
  0
TABLE
  2
BLOCK_RECORD
  5
1
100
AcDbSymbolTable
 70
1
  0
BLOCK_RECORD
  5
1F
100
AcDbSymbolTableRecord
100
AcDbBlockTableRecord
  2
*Model_Space
340
22
  0
BLOCK_RECORD
  5
1B
100
AcDbSymbolTableRecord
100
AcDbBlockTableRecord
  2
*Paper_Space
340
1E
  0
BLOCK_RECORD
  5
23
100
AcDbSymbolTableRecord
100
AcDbBlockTableRecord
  2
*Paper_Space0
340
26
  0
BLOCK_RECORD
  5
5D
100
AcDbSymbolTableRecord
100
AcDbBlockTableRecord
  2
LargePotGauge
340
0
  0
BLOCK_RECORD
  5
5E
100
AcDbSymbolTableRecord
100
AcDbBlockTableRecord
  2
Abacus_Logo
340
0
  0
BLOCK_RECORD
  5
5F
100
AcDbSymbolTableRecord
100
AcDbBlockTableRecord
  2
RW_Logo_Trans
340
0
  0
BLOCK_RECORD
  5
60
100
AcDbSymbolTableRecord
100
AcDbBlockTableRecord
  2
SmallPotGauge
340
0
  0
BLOCK_RECORD
  5
61
100
AcDbSymbolTableRecord
100
AcDbBlockTableRecord
  2
RW_Logo_Trans_Filled
340
0
  0
ENDTAB
  0
ENDSEC
  0
SECTION
  2
BLOCKS
  0
BLOCK
  5
20
100
AcDbEntity
  8
0
100
AcDbBlockBegin
  2
*Model_Space
 70
0
 10
0.0
 20
0.0
 30
0.0
  3
*Model_Space
  1

  0
ENDBLK
  5
21
100
AcDbEntity
  8
0
100
AcDbBlockEnd
  0
BLOCK
  5
1C
100
AcDbEntity
 67
1
  8
0
100
AcDbBlockBegin
  2
*Paper_Space
 70
0
 10
0.0
 20
0.0
 30
0.0
  3
*Paper_Space
  1

  0
ENDBLK
  5
1D
100
AcDbEntity
 67
1
  8
0
100
AcDbBlockEnd
  0
BLOCK
  5
24
100
AcDbEntity
  8
0
100
AcDbBlockBegin
  2
*Paper_Space0
 70
0
 10
0.0
 20
0.0
 30
0.0
  3
*Paper_Space0
  1

  0
ENDBLK
  5
25
100
AcDbEntity
  8
0
100
AcDbBlockEnd
  0
BLOCK
  5
62
100
AcDbEntity
  8
0
100
AcDbBlockBegin
  2
LargePotGauge
 70
0
 10
0.0
 20
0.0
 30
0.0
  3
LargePotGauge
  1

  0
LWPOLYLINE
  5
63
100
AcDbEntity
  8
0
 62
256
370
-1
 48
1.0
  6
BYLAYER
100
AcDbPolyline
 90
6
 70
128
 10
104.4709399999999988
 20
-100.6212699999999955
 10
104.4709399999999988
 20
-111.8190299999999979
 42
-0.0033072788336863
 10
104.9995899999999835
 20
-111.7958299999999809
 42
-0.0033077266184061
 10
105.5287599999999912
 20
-111.8038299999999481
 10
105.5287599999999912
 20
-100.6212699999999955
 10
104.4709399999999988
 20
-100.6212699999999955
  0
LWPOLYLINE
  5
64
100
AcDbEntity
  8
0
 62
256
370
-1
 48
1.0
  6
BYLAYER
100
AcDbPolyline
 90
5
 70
128
 10
93.3357019999999977
 20
-106.2219599999999957
 10
92.3140590000000003
 20
-106.4958400000000012
 10
94.1418529999999976
 20
-113.318160000000006
 42
-0.0066141399769513
 10
95.1640129999999687
 20
-113.0442799999999863
 10
93.3357019999999977
 20
-106.2219599999999957
  0
LWPOLYLINE
  5
65
100
AcDbEntity
  8
0
 62
256
370
-1
 48
1.0
  6
BYLAYER
100
AcDbPolyline
 90
5
 70
128
 10
116.6640000000000015
 20
-106.2219599999999957
 10
114.8398200000000031
 20
-113.0298099999999977
 42
-0.0066101756053528
 10
115.8614599999999371
 20
-113.3031799999999691
 10
117.6856400000000065
 20
-106.4958400000000012
 10
116.6640000000000015
 20
-106.2219599999999957
  0
LWPOLYLINE
  5
66
100
AcDbEntity
  8
0
 62
256
370
-1
 48
1.0
  6
BYLAYER
100
AcDbPolyline
 90
5
 70
128
 10
79.8703739999999982
 20
-107.2131100000000004
 10
78.9546679999999981
 20
-107.7417599999999993
 10
84.5538090000000011
 20
-117.4393599999999935
 42
-0.006608723992369
 10
85.4695150000000012
 20
-116.9107099999999804
 10
79.8703739999999982
 20
-107.2131100000000004
  0
LWPOLYLINE
  5
67
100
AcDbEntity
  8
0
 62
256
370
-1
 48
1.0
  6
BYLAYER
100
AcDbPolyline
 90
5
 70
128
 10
130.1288099999999872
 20
-107.2131100000000004
 10
124.5379299999999887
 20
-116.897270000000006
 42
-0.0066087456461917
 10
125.4536399999999077
 20
-117.4259199999999908
 10
131.045029999999997
 20
-107.7417599999999993
 10
130.1288099999999872
 20
-107.2131100000000004
  0
LWPOLYLINE
  5
68
100
AcDbEntity
  8
0
 62
256
370
-1
 48
1.0
  6
BYLAYER
100
AcDbPolyline
 90
5
 70
128
 10
72.1116739999999936
 20
-118.1597299999999962
 10
71.3633999999999986
 20
-118.9074899999999957
 10
76.3579270000000037
 20
-123.9020199999999932
 42
-0.0066118880942146
 10
77.1062009999999702
 20
-123.1542600000000078
 10
72.1116739999999936
 20
-118.1597299999999962
  0
LWPOLYLINE
  5
69
100
AcDbEntity
  8
0
 62
256
370
-1
 48
1.0
  6
BYLAYER
100
AcDbPolyline
 90
5
 70
128
 10
137.8880199999999832
 20
-118.1597299999999962
 10
132.9048699999999883
 20
-123.1428899999999942
 42
-0.0066118262234246
 10
133.6526199999998994
 20
-123.8911599999999709
 10
138.6357799999999827
 20
-118.9074899999999957
 10
137.8880199999999832
 20
-118.1597299999999962
  0
LWPOLYLINE
  5
6A
100
AcDbEntity
  8
0
 62
256
370
-1
 48
1.0
  6
BYLAYER
100
AcDbPolyline
 90
5
 70
128
 10
60.9459469999999897
 20
-125.750479999999996
 10
60.4167799999999886
 20
-126.6666999999999916
 10
70.1143779999999879
 20
-132.2653300000000058
 42
-0.0066131255020083
 10
70.6435459999999722
 20
-131.349109999999996
 10
60.9459469999999897
 20
-125.750479999999996
  0
LWPOLYLINE
  5
6B
100
AcDbEntity
  8
0
 62
256
370
-1
 48
1.0
  6
BYLAYER
100
AcDbPolyline
 90
5
 70
128
 10
149.0537499999999795
 20
-125.750479999999996
 10
139.3695899999999881
 20
-131.3413500000000056
 42
-0.0066115608445713
 10
139.8982400000000155
 20
-132.2575799999999617
 10
149.5823999999999785
 20
-126.6667000000000201
 10
149.0537499999999795
 20
-125.750479999999996
  0
LWPOLYLINE
  5
6C
100
AcDbEntity
  8
0
 62
256
370
-1
 48
1.0
  6
BYLAYER
100
AcDbPolyline
 90
5
 70
128
 10
59.6995009999999837
 20
-139.1103899999999953
 10
59.4256159999999838
 20
-140.1320299999999861
 10
66.2479409999999831
 20
-141.9603399999999738
 42
-0.006614144830355
 10
66.5218239999999241
 20
-140.9381800000000169
 10
59.6995009999999837
 20
-139.1103899999999953
  0
LWPOLYLINE
  5
6D
100
AcDbEntity
  8
0
 62
256
370
-1
 48
1.0
  6
BYLAYER
100
AcDbPolyline
 90
5
 70
128
 10
150.3001899999999864
 20
-139.1103899999999953
 10
143.4928499999999758
 20
-140.9345700000000079
 42
-0.006611016540262
 10
143.7667399999999986
 20
-141.9562100000000271
 10
150.5735499999999831
 20
-140.1320299999999861
 10
150.3001899999999864
 20
-139.1103899999999953
  0
LWPOLYLINE
  5
6E
100
AcDbEntity
  8
0
 62
256
370
-1
 48
1.0
  6
BYLAYER
100
AcDbPolyline
 90
6
 70
128
 10
53.8254509999999868
 20
-151.2672699999999963
 10
53.8254509999999868
 20
-152.3245699999999943
 10
65.0232169999999883
 20
-152.3245699999999943
 42
-0.003307292549862
 10
64.9999669999999981
 20
-151.7959200000000237
 42
-0.003307292549864
 10
65.0232169999999883
 20
-151.2672700000001669
 10
53.8254509999999868
 20
-151.2672699999999963
  0
LWPOLYLINE
  5
6F
100
AcDbEntity
  8
0
 62
256
370
-1
 48
1.0
  6
BYLAYER
100
AcDbPolyline
 90
6
 70
128
 10
144.9919799999999555
 20
-151.2672700000000532
 42
-0.003304476883546
 10
144.9999799999999937
 20
-151.7959199999996258
 42
-0.0033072788336863
 10
144.9767800000000193
 20
-152.3245700000001364
 10
156.1745499999999822
 20
-152.3245699999999943
 10
156.1745499999999822
 20
-151.2672699999999963
 10
144.9919799999999839
 20
-151.2672699999999963
  0
LWPOLYLINE
  5
70
100
AcDbEntity
  8
0
 62
256
370
-1
 48
1.0
  6
BYLAYER
100
AcDbPolyline
 90
6
 70
128
 10
66.2479499999999888
 20
-161.6314999999999884
 10
59.425625999999987
 20
-163.4598099999999761
 10
59.6995109999999869
 20
-164.4814499999999668
 10
66.5218329999999867
 20
-162.6536499999999705
 42
-0.0066140844520288
 10
66.247950000000003
 20
-161.6314999999999884
 10
66.2479499999999888
 20
-161.6314999999999884
  0
LWPOLYLINE
  5
71
100
AcDbEntity
  8
0
 62
256
370
-1
 48
1.0
  6
BYLAYER
100
AcDbPolyline
 90
5
 70
128
 10
143.7517499999999586
 20
-161.6320099999999798
 42
-0.0066110165402621
 10
143.4778599999999642
 20
-162.653649999999999
 10
150.3001899999999864
 20
-164.4814499999999668
 10
150.5735499999999831
 20
-163.4598099999999761
 10
143.751749999999987
 20
-161.6320099999999798
  0
LWPOLYLINE
  5
72
100
AcDbEntity
  8
0
 62
256
370
-1
 48
1.0
  6
BYLAYER
100
AcDbPolyline
 90
5
 70
128
 10
70.1143779999999879
 20
-171.3265099999999848
 10
60.4167799999999886
 20
-176.925139999999999
 10
60.9459469999999897
 20
-177.8413600000000088
 10
70.6435459999999864
 20
-172.2427299999999946
 42
-0.0066131255020083
 10
70.1143779999999879
 20
-171.3265099999999848
  0
LWPOLYLINE
  5
73
100
AcDbEntity
  8
0
 62
256
370
-1
 48
1.0
  6
BYLAYER
100
AcDbPolyline
 90
5
 70
128
 10
139.8853199999999788
 20
-171.3265099999999279
 42
-0.0066131317545044
 10
139.3561499999999569
 20
-172.2427299999999661
 10
149.0537499999999795
 20
-177.8413600000000088
 10
149.5823999999999785
 20
-176.925139999999999
 10
139.8853199999999788
 20
-171.3265099999999848
  0
LWPOLYLINE
  5
74
100
AcDbEntity
  8
0
 62
256
370
-1
 48
1.0
  6
BYLAYER
100
AcDbPolyline
 90
5
 70
128
 10
76.3579269999999894
 20
-179.6898199999999974
 10
71.3633989999999869
 20
-184.6843499999999949
 10
72.111670999999987
 20
-185.4321099999999944
 10
77.106199999999987
 20
-180.437579999999997
 42
-0.0066118836727005
 10
76.3579270000000179
 20
-179.689819999999969
  0
LWPOLYLINE
  5
75
100
AcDbEntity
  8
0
 62
256
370
-1
 48
1.0
  6
BYLAYER
100
AcDbPolyline
 90
5
 70
128
 10
133.6417699999999229
 20
-179.6898199999999974
 42
-0.0066118704081765
 10
132.8934999999999604
 20
-180.4375799999999685
 10
137.8880199999999832
 20
-185.4321099999999944
 10
138.6357799999999827
 20
-184.6843499999999949
 10
133.6417699999999797
 20
-179.6898199999999974
  0
LWPOLYLINE
  5
76
100
AcDbEntity
  8
0
 62
256
370
-1
 48
1.0
  6
BYLAYER
100
AcDbPolyline
 90
5
 70
128
 10
84.5532849999999883
 20
-186.1524799999999971
 10
78.9546609999999873
 20
-195.8500799999999913
 10
79.8703669999999875
 20
-196.3787299999999902
 10
85.4689919999999859
 20
-186.681129999999996
 42
-0.0066087294058223
 10
84.5532850000000025
 20
-186.1524799999999971
  0
LWPOLYLINE
  5
77
100
AcDbEntity
  8
0
 62
256
370
-1
 48
1.0
  6
BYLAYER
100
AcDbPolyline
 90
5
 70
128
 10
125.4458899999999915
 20
-186.1524800000000255
 42
-0.0066087456461919
 10
124.530179999999973
 20
-186.6811300000000244
 10
130.1288099999999872
 20
-196.3787299999999902
 10
131.045029999999997
 20
-195.8500799999999913
 10
125.4458899999999915
 20
-186.1524799999999971
  0
ENDBLK
  5
78
100
AcDbEntity
  8
0
100
AcDbBlockEnd
  0
BLOCK
  5
79
100
AcDbEntity
  8
0
100
AcDbBlockBegin
  2
Abacus_Logo
 70
0
 10
0.0
 20
0.0
 30
0.0
  3
Abacus_Logo
  1

  0
LINE
  5
7A
100
AcDbEntity
  8
0
 62
7
420
16777215
370
-1
 48
1.0
  6
BYLAYER
100
AcDbLine
 10
0.0
 20
-0.0000009999999975
 30
0.0
 11
132.099490000000003
 21
-0.0000009999999975
 31
0.0
  0
LINE
  5
7B
100
AcDbEntity
  8
0
 62
7
420
16777215
370
-1
 48
1.0
  6
BYLAYER
100
AcDbLine
 10
132.099490000000003
 20
-0.0000009999999975
 30
0.0
 11
132.099490000000003
 21
-79.9999930000000177
 31
0.0
  0
LINE
  5
7C
100
AcDbEntity
  8
0
 62
7
420
16777215
370
-1
 48
1.0
  6
BYLAYER
100
AcDbLine
 10
132.099490000000003
 20
-79.9999930000000177
 30
0.0
 11
0.0
 21
-79.9999930000000177
 31
0.0
  0
LINE
  5
7D
100
AcDbEntity
  8
0
 62
7
420
16777215
370
-1
 48
1.0
  6
BYLAYER
100
AcDbLine
 10
0.0
 20
-79.9999930000000177
 30
0.0
 11
0.0
 21
-0.0000009999999975
 31
0.0
  0
LWPOLYLINE
  5
7E
100
AcDbEntity
  8
0
 62
7
420
16777215
370
-1
 48
1.0
  6
BYLAYER
100
AcDbPolyline
 90
2
 70
128
 10
87.5345939999999985
 20
-43.9719970000000018
 10
88.7981340000000046
 20
-43.9719970000000018
  0
ARC
  5
7F
100
AcDbEntity
  8
0
 62
7
420
16777215
370
-1
 48
1.0
  6
BYLAYER
100
AcDbCircle
 10
88.7994930662790551
 20
-44.5915779337209202
 30
0.0
 40
0.6195824242920892
100
AcDbArc
 50
359.8743204757542458
 51
90.125679524240681
  0
LWPOLYLINE
  5
80
100
AcDbEntity
  8
0
 62
7
420
16777215
370
-1
 48
1.0
  6
BYLAYER
100
AcDbPolyline
 90
2
 70
128
 10
89.4190739999999948
 20
-44.5929370000000063
 10
89.4190739999999948
 20
-54.6212869999999953
  0
ARC
  5
81
100
AcDbEntity
  8
0
 62
7
420
16777215
370
-1
 48
1.0
  6
BYLAYER
100
AcDbCircle
 10
88.7994930662790694
 20
-54.6226460662790743
 30
0.0
 40
0.6195824242920608
100
AcDbArc
 50
269.8743204757553258
 51
0.1256795242457381
  0
LWPOLYLINE
  5
82
100
AcDbEntity
  8
0
 62
7
420
16777215
370
-1
 48
1.0
  6
BYLAYER
100
AcDbPolyline
 90
2
 70
128
 10
88.7981339999999761
 20
-55.2422269999999855
 10
87.53459399999997
 20
-55.2422269999999855
  0
ARC
  5
83
100
AcDbEntity
  8
0
 62
7
420
16777215
370
-1
 48
1.0
  6
BYLAYER
100
AcDbCircle
 10
87.5332349337208768
 20
-54.6226460662790885
 30
0.0
 40
0.6195824242920466
100
AcDbArc
 50
179.8743204757542458
 51
270.1256795242446742
  0
LWPOLYLINE
  5
84
100
AcDbEntity
  8
0
 62
7
420
16777215
370
-1
 48
1.0
  6
BYLAYER
100
AcDbPolyline
 90
2
 70
128
 10
86.9136539999999798
 20
-54.6212869999999953
 10
86.9136539999999798
 20
-44.5929369999999921
  0
ARC
  5
85
100
AcDbEntity
  8
0
 62
7
420
16777215
370
-1
 48
1.0
  6
BYLAYER
100
AcDbCircle
 10
87.533234933720891
 20
-44.5915779337208988
 30
0.0
 40
0.6195824242920607
100
AcDbArc
 50
89.87432047575669
 51
180.1256795242457258
  0
LWPOLYLINE
  5
86
100
AcDbEntity
  8
0
 62
7
420
16777215
370
-1
 48
1.0
  6
BYLAYER
100
AcDbPolyline
 90
2
 70
128
 10
87.53459399999997
 20
-43.9719969999999876
 10
87.5345939999999985
 20
-43.9719970000000018
  0
LWPOLYLINE
  5
87
100
AcDbEntity
  8
0
 62
7
420
16777215
370
-1
 48
1.0
  6
BYLAYER
100
AcDbPolyline
 90
2
 70
128
 10
81.0330439999999896
 20
-48.4866869999999892
 10
118.4790140000000065
 20
-48.4866869999999892
  0
ARC
  5
88
100
AcDbEntity
  8
0
 62
7
420
16777215
370
-1
 48
1.0
  6
BYLAYER
100
AcDbCircle
 10
118.4803730662790713
 20
-49.1062679337208863
 30
0.0
 40
0.619582424292075
100
AcDbArc
 50
359.8743204757542458
 51
90.1256795242419884
  0
LWPOLYLINE
  5
89
100
AcDbEntity
  8
0
 62
7
420
16777215
370
-1
 48
1.0
  6
BYLAYER
100
AcDbPolyline
 90
2
 70
128
 10
119.0999539999999968
 20
-49.1076269999999795
 10
119.0999539999999968
 20
-50.1065469999999777
  0
ARC
  5
8A
100
AcDbEntity
  8
0
 62
7
420
16777215
370
-1
 48
1.0
  6
BYLAYER
100
AcDbCircle
 10
118.4803730662790713
 20
-50.1079060662790639
 30
0.0
 40
0.6195824242920537
100
AcDbArc
 50
269.8743204757579974
 51
0.1256795242457381
  0
LWPOLYLINE
  5
8B
100
AcDbEntity
  8
0
 62
7
420
16777215
370
-1
 48
1.0
  6
BYLAYER
100
AcDbPolyline
 90
2
 70
128
 10
118.4790140000000065
 20
-50.727486999999968
 10
81.0330439999999896
 20
-50.727486999999968
  0
ARC
  5
8C
100
AcDbEntity
  8
0
 62
7
420
16777215
370
-1
 48
1.0
  6
BYLAYER
100
AcDbCircle
 10
81.0316849337208964
 20
-50.1079060662790425
 30
0.0
 40
0.6195824242920465
100
AcDbArc
 50
179.8743204757600722
 51
270.1256795242446174
  0
LWPOLYLINE
  5
8D
100
AcDbEntity
  8
0
 62
7
420
16777215
370
-1
 48
1.0
  6
BYLAYER
100
AcDbPolyline
 90
2
 70
128
 10
80.4121039999999994
 20
-50.1065469999999777
 10
80.4121039999999994
 20
-49.1076269999999795
  0
ARC
  5
8E
100
AcDbEntity
  8
0
 62
7
420
16777215
370
-1
 48
1.0
  6
BYLAYER
100
AcDbCircle
 10
81.0316849337208964
 20
-49.1062679337208863
 30
0.0
 40
0.6195824242920466
100
AcDbArc
 50
89.8743204757553826
 51
180.1256795242457258
  0
LWPOLYLINE
  5
8F
100
AcDbEntity
  8
0
 62
7
420
16777215
370
-1
 48
1.0
  6
BYLAYER
100
AcDbPolyline
 90
2
 70
128
 10
97.8041240000000016
 20
-34.6201269999999965
 10
99.0676640000000077
 20
-34.6201269999999965
  0
ARC
  5
90
100
AcDbEntity
  8
0
 62
7
420
16777215
370
-1
 48
1.0
  6
BYLAYER
100
AcDbCircle
 10
99.0690245384549399
 20
-35.2397164397146483
 30
0.0
 40
0.6195909334962733
100
AcDbArc
 50
359.8751087831928999
 51
90.1258139358805295
  0
LWPOLYLINE
  5
91
100
AcDbEntity
  8
0
 62
7
420
16777215
370
-1
 48
1.0
  6
BYLAYER
100
AcDbPolyline
 90
2
 70
128
 10
99.6886140000000012
 20
-35.241067000000001
 10
99.6886140000000012
 20
-45.2694070000000011
  0
ARC
  5
92
100
AcDbEntity
  8
0
 62
7
420
16777215
370
-1
 48
1.0
  6
BYLAYER
100
AcDbCircle
 10
99.0690160324612634
 20
-45.2707590324612212
 30
0.0
 40
0.6195994426804748
100
AcDbArc
 50
269.8749743625714359
 51
0.1250256374233243
  0
LWPOLYLINE
  5
93
100
AcDbEntity
  8
0
 62
7
420
16777215
370
-1
 48
1.0
  6
BYLAYER
100
AcDbPolyline
 90
2
 70
128
 10
99.0676640000000077
 20
-45.8903569999999945
 10
97.8041240000000016
 20
-45.8903569999999945
  0
ARC
  5
94
100
AcDbEntity
  8
0
 62
7
420
16777215
370
-1
 48
1.0
  6
BYLAYER
100
AcDbCircle
 10
97.8027734397146133
 20
-45.2707675384549333
 30
0.0
 40
0.6195909334962397
100
AcDbArc
 50
179.8741860641215737
 51
270.1248912168097718
  0
LWPOLYLINE
  5
95
100
AcDbEntity
  8
0
 62
7
420
16777215
370
-1
 48
1.0
  6
BYLAYER
100
AcDbPolyline
 90
2
 70
128
 10
97.1831840000000113
 20
-45.2694070000000011
 10
97.1831840000000113
 20
-35.241067000000001
  0
ARC
  5
96
100
AcDbEntity
  8
0
 62
7
420
16777215
370
-1
 48
1.0
  6
BYLAYER
100
AcDbCircle
 10
97.8027649337209368
 20
-35.239707933720922
 30
0.0
 40
0.619582424292075
100
AcDbArc
 50
89.8743204757580259
 51
180.1256795242457258
  0
LWPOLYLINE
  5
97
100
AcDbEntity
  8
0
 62
7
420
16777215
370
-1
 48
1.0
  6
BYLAYER
100
AcDbPolyline
 90
2
 70
128
 10
106.9354439999999897
 20
-34.6201269999999965
 10
108.198993999999999
 20
-34.6201269999999965
  0
ARC
  5
98
100
AcDbEntity
  8
0
 62
7
420
16777215
370
-1
 48
1.0
  6
BYLAYER
100
AcDbCircle
 10
108.200353066279078
 20
-35.2397079337209078
 30
0.0
 40
0.6195824242920608
100
AcDbArc
 50
359.8743204757542458
 51
90.12567952424331
  0
LWPOLYLINE
  5
99
100
AcDbEntity
  8
0
 62
7
420
16777215
370
-1
 48
1.0
  6
BYLAYER
100
AcDbPolyline
 90
2
 70
128
 10
108.8199339999999893
 20
-35.241067000000001
 10
108.8199339999999893
 20
-45.2694070000000011
  0
ARC
  5
9A
100
AcDbEntity
  8
0
 62
7
420
16777215
370
-1
 48
1.0
  6
BYLAYER
100
AcDbCircle
 10
108.2003445602853731
 20
-45.2707675384549475
 30
0.0
 40
0.619590933496259
100
AcDbArc
 50
269.8751087831914788
 51
0.1258139358784509
  0
LWPOLYLINE
  5
9B
100
AcDbEntity
  8
0
 62
7
420
16777215
370
-1
 48
1.0
  6
BYLAYER
100
AcDbPolyline
 90
2
 70
128
 10
108.198993999999999
 20
-45.8903569999999945
 10
106.9354439999999897
 20
-45.8903569999999945
  0
ARC
  5
9C
100
AcDbEntity
  8
0
 62
7
420
16777215
370
-1
 48
1.0
  6
BYLAYER
100
AcDbCircle
 10
106.934099807846323
 20
-45.2707611704257786
 30
0.0
 40
0.6195972876621397
100
AcDbArc
 50
179.8747762240836892
 51
270.1243010568433647
  0
LWPOLYLINE
  5
9D
100
AcDbEntity
  8
0
 62
7
420
16777215
370
-1
 48
1.0
  6
BYLAYER
100
AcDbPolyline
 90
2
 70
128
 10
106.3145039999999995
 20
-45.2694070000000011
 10
106.3145039999999995
 20
-35.241067000000001
  0
ARC
  5
9E
100
AcDbEntity
  8
0
 62
7
420
16777215
370
-1
 48
1.0
  6
BYLAYER
100
AcDbCircle
 10
106.9340913016777392
 20
-35.2397143016777363
 30
0.0
 40
0.619588778298198
100
AcDbArc
 50
89.8749106357250298
 51
180.1250893642757944
  0
LWPOLYLINE
  5
9F
100
AcDbEntity
  8
0
 62
7
420
16777215
370
-1
 48
1.0
  6
BYLAYER
100
AcDbPolyline
 90
2
 70
128
 10
74.5850639999999885
 20
-39.134877000000003
 10
112.0310439999999801
 20
-39.134877000000003
  0
ARC
  5
A0
100
AcDbEntity
  8
0
 62
7
420
16777215
370
-1
 48
1.0
  6
BYLAYER
100
AcDbCircle
 10
112.0324030662790449
 20
-39.7544579337209143
 30
0.0
 40
0.619582424292075
100
AcDbArc
 50
359.8743204757542458
 51
90.1256795242419884
  0
LWPOLYLINE
  5
A1
100
AcDbEntity
  8
0
 62
7
420
16777215
370
-1
 48
1.0
  6
BYLAYER
100
AcDbPolyline
 90
2
 70
128
 10
112.6519839999999704
 20
-39.7558170000000075
 10
112.6519839999999704
 20
-40.7547270000000026
  0
ARC
  5
A2
100
AcDbEntity
  8
0
 62
7
420
16777215
370
-1
 48
1.0
  6
BYLAYER
100
AcDbCircle
 10
112.0324030662790449
 20
-40.7560860662790745
 30
0.0
 40
0.619582424292082
100
AcDbArc
 50
269.8743204757579974
 51
0.1256795242457381
  0
LWPOLYLINE
  5
A3
100
AcDbEntity
  8
0
 62
7
420
16777215
370
-1
 48
1.0
  6
BYLAYER
100
AcDbPolyline
 90
2
 70
128
 10
112.0310439999999801
 20
-41.3756670000000071
 10
74.5850639999999885
 20
-41.3756670000000071
  0
ARC
  5
A4
100
AcDbEntity
  8
0
 62
7
420
16777215
370
-1
 48
1.0
  6
BYLAYER
100
AcDbCircle
 10
74.5837049337209521
 20
-40.7560860662790319
 30
0.0
 40
0.6195824242921317
100
AcDbArc
 50
179.8743204757600722
 51
270.1256795242393878
  0
LWPOLYLINE
  5
A5
100
AcDbEntity
  8
0
 62
7
420
16777215
370
-1
 48
1.0
  6
BYLAYER
100
AcDbPolyline
 90
2
 70
128
 10
73.9641239999999698
 20
-40.7547270000000026
 10
73.9641239999999698
 20
-39.7558170000000075
  0
ARC
  5
A6
100
AcDbEntity
  8
0
 62
7
420
16777215
370
-1
 48
1.0
  6
BYLAYER
100
AcDbCircle
 10
74.5837049337208953
 20
-39.7544579337209214
 30
0.0
 40
0.6195824242920679
100
AcDbArc
 50
89.8743204757553826
 51
180.1256795242457258
  0
LWPOLYLINE
  5
A7
100
AcDbEntity
  8
0
 62
7
420
16777215
370
-1
 48
1.0
  6
BYLAYER
100
AcDbPolyline
 90
2
 70
128
 10
90.8052239999999813
 20
-26.5169170000000065
 10
92.0687639999999874
 20
-26.5169170000000065
  0
ARC
  5
A8
100
AcDbEntity
  8
0
 62
7
420
16777215
370
-1
 48
1.0
  6
BYLAYER
100
AcDbCircle
 10
92.0701230662790664
 20
-27.1364979337209071
 30
0.0
 40
0.6195824242920608
100
AcDbArc
 50
359.8743204757542458
 51
90.12567952424331
  0
LWPOLYLINE
  5
A9
100
AcDbEntity
  8
0
 62
7
420
16777215
370
-1
 48
1.0
  6
BYLAYER
100
AcDbPolyline
 90
2
 70
128
 10
92.6897039999999777
 20
-27.137857000000011
 10
92.6897039999999777
 20
-37.166197000000011
  0
ARC
  5
AA
100
AcDbEntity
  8
0
 62
7
420
16777215
370
-1
 48
1.0
  6
BYLAYER
100
AcDbCircle
 10
92.0701230662790522
 20
-37.1675560662790758
 30
0.0
 40
0.6195824242920892
100
AcDbArc
 50
269.8743204757579974
 51
0.1256795242457381
  0
LWPOLYLINE
  5
AB
100
AcDbEntity
  8
0
 62
7
420
16777215
370
-1
 48
1.0
  6
BYLAYER
100
AcDbPolyline
 90
2
 70
128
 10
92.0687639999999874
 20
-37.7871370000000155
 10
90.8052239999999813
 20
-37.7871370000000155
  0
ARC
  5
AC
100
AcDbEntity
  8
0
 62
7
420
16777215
370
-1
 48
1.0
  6
BYLAYER
100
AcDbCircle
 10
90.8038649337209165
 20
-37.1675560662790971
 30
0.0
 40
0.619582424292075
100
AcDbArc
 50
179.8743204757542458
 51
270.1256795242420026
  0
LWPOLYLINE
  5
AD
100
AcDbEntity
  8
0
 62
7
420
16777215
370
-1
 48
1.0
  6
BYLAYER
100
AcDbPolyline
 90
2
 70
128
 10
90.184283999999991
 20
-37.166197000000011
 10
90.184283999999991
 20
-27.137857000000011
  0
ARC
  5
AE
100
AcDbEntity
  8
0
 62
7
420
16777215
370
-1
 48
1.0
  6
BYLAYER
100
AcDbCircle
 10
90.8038649337209165
 20
-27.1364979337209249
 30
0.0
 40
0.6195824242920679
100
AcDbArc
 50
89.8743204757580259
 51
180.1256795242457258
  0
LWPOLYLINE
  5
AF
100
AcDbEntity
  8
0
 62
7
420
16777215
370
-1
 48
1.0
  6
BYLAYER
100
AcDbPolyline
 90
2
 70
128
 10
68.1370839999999873
 20
-31.0316070000000082
 10
105.5830639999999789
 20
-31.0316070000000082
  0
ARC
  5
B0
100
AcDbEntity
  8
0
 62
7
420
16777215
370
-1
 48
1.0
  6
BYLAYER
100
AcDbCircle
 10
105.5844230662790579
 20
-31.6511879337209407
 30
0.0
 40
0.6195824242920607
100
AcDbArc
 50
359.8743204757600438
 51
90.12567952424331
  0
LWPOLYLINE
  5
B1
100
AcDbEntity
  8
0
 62
7
420
16777215
370
-1
 48
1.0
  6
BYLAYER
100
AcDbPolyline
 90
2
 70
128
 10
106.2040039999999692
 20
-31.6525470000000126
 10
106.2040039999999692
 20
-32.6514670000000109
  0
ARC
  5
B2
100
AcDbEntity
  8
0
 62
7
420
16777215
370
-1
 48
1.0
  6
BYLAYER
100
AcDbCircle
 10
105.5844230662790295
 20
-32.6528260662790899
 30
0.0
 40
0.6195824242920749
100
AcDbArc
 50
269.8743204757593048
 51
0.1256795242457381
  0
LWPOLYLINE
  5
B3
100
AcDbEntity
  8
0
 62
7
420
16777215
370
-1
 48
1.0
  6
BYLAYER
100
AcDbPolyline
 90
2
 70
128
 10
105.5830639999999789
 20
-33.2724070000000154
 10
68.1370839999999873
 20
-33.2724070000000154
  0
ARC
  5
B4
100
AcDbEntity
  8
0
 62
7
420
16777215
370
-1
 48
1.0
  6
BYLAYER
100
AcDbCircle
 10
68.135724933720951
 20
-32.6528260662790473
 30
0.0
 40
0.6195824242921317
100
AcDbArc
 50
179.8743204757600722
 51
270.1256795242393878
  0
LWPOLYLINE
  5
B5
100
AcDbEntity
  8
0
 62
7
420
16777215
370
-1
 48
1.0
  6
BYLAYER
100
AcDbPolyline
 90
2
 70
128
 10
67.5161439999999686
 20
-32.6514670000000109
 10
67.5161439999999686
 20
-31.6525570000000158
  0
ARC
  5
B6
100
AcDbEntity
  8
0
 62
7
420
16777215
370
-1
 48
1.0
  6
BYLAYER
100
AcDbCircle
 10
68.1357249337209083
 20
-31.6511979337209333
 30
0.0
 40
0.6195824242920713
100
AcDbArc
 50
89.87432047575669
 51
180.1256795242457258
  0
LWPOLYLINE
  5
B7
100
AcDbEntity
  8
0
 62
7
420
16777215
370
-1
 48
1.0
  6
BYLAYER
100
AcDbPolyline
 90
2
 70
128
 10
68.1370839999999873
 20
-31.0316170000000113
 10
68.1370839999999873
 20
-31.0316070000000082
  0
LWPOLYLINE
  5
B8
100
AcDbEntity
  8
0
 62
7
420
16777215
370
-1
 48
1.0
  6
BYLAYER
100
AcDbPolyline
 90
2
 70
128
 10
71.385563999999988
 20
-17.4045340000000124
 10
72.6491039999999941
 20
-17.4045340000000124
  0
ARC
  5
B9
100
AcDbEntity
  8
0
 62
7
420
16777215
370
-1
 48
1.0
  6
BYLAYER
100
AcDbCircle
 10
72.6504645628774171
 20
-18.0241134218239161
 30
0.0
 40
0.6195809156833321
100
AcDbArc
 50
359.8748276835821684
 51
90.1258182286071872
  0
LWPOLYLINE
  5
BA
100
AcDbEntity
  8
0
 62
7
420
16777215
370
-1
 48
1.0
  6
BYLAYER
100
AcDbPolyline
 90
2
 70
128
 10
73.2700439999999844
 20
-18.0254670000000061
 10
73.2700439999999844
 20
-28.0538070000000062
  0
ARC
  5
BB
100
AcDbEntity
  8
0
 62
7
420
16777215
370
-1
 48
1.0
  6
BYLAYER
100
AcDbCircle
 10
72.6504630662790873
 20
-28.0551660662790994
 30
0.0
 40
0.6195824242920608
100
AcDbArc
 50
269.8743204757553258
 51
0.1256795242457381
  0
LWPOLYLINE
  5
BC
100
AcDbEntity
  8
0
 62
7
420
16777215
370
-1
 48
1.0
  6
BYLAYER
100
AcDbPolyline
 90
2
 70
128
 10
72.6491039999999941
 20
-28.6747470000000106
 10
71.385563999999988
 20
-28.6747470000000106
  0
ARC
  5
BD
100
AcDbEntity
  8
0
 62
7
420
16777215
370
-1
 48
1.0
  6
BYLAYER
100
AcDbCircle
 10
71.3842049337209232
 20
-28.0551660662790567
 30
0.0
 40
0.6195824242921033
100
AcDbArc
 50
179.8743204757600722
 51
270.1256795242420026
  0
LWPOLYLINE
  5
BE
100
AcDbEntity
  8
0
 62
7
420
16777215
370
-1
 48
1.0
  6
BYLAYER
100
AcDbPolyline
 90
2
 70
128
 10
70.7646239999999693
 20
-28.0538070000000062
 10
70.7646239999999693
 20
-18.0254670000000061
  0
ARC
  5
BF
100
AcDbEntity
  8
0
 62
7
420
16777215
370
-1
 48
1.0
  6
BYLAYER
100
AcDbCircle
 10
71.3842034371225225
 20
-18.0241134218239196
 30
0.0
 40
0.6195809156833276
100
AcDbArc
 50
89.8741817713888764
 51
180.1251723164179168
  0
LWPOLYLINE
  5
C0
100
AcDbEntity
  8
0
 62
7
420
16777215
370
-1
 48
1.0
  6
BYLAYER
100
AcDbPolyline
 90
2
 70
128
 10
82.5967339999999695
 20
-17.4045340000000124
 10
83.8602639999999724
 20
-17.4045340000000124
  0
ARC
  5
C1
100
AcDbEntity
  8
0
 62
7
420
16777215
370
-1
 48
1.0
  6
BYLAYER
100
AcDbCircle
 10
83.861626035002601
 20
-18.0241219279400724
 30
0.0
 40
0.6195894250133891
100
AcDbArc
 50
359.8756159973074773
 51
90.1259526339583346
  0
LWPOLYLINE
  5
C2
100
AcDbEntity
  8
0
 62
7
420
16777215
370
-1
 48
1.0
  6
BYLAYER
100
AcDbPolyline
 90
2
 70
128
 10
84.4812139999999658
 20
-18.0254670000000061
 10
84.4812139999999658
 20
-28.0538070000000062
  0
ARC
  5
C3
100
AcDbEntity
  8
0
 62
7
420
16777215
370
-1
 48
1.0
  6
BYLAYER
100
AcDbCircle
 10
83.8616245384548904
 20
-28.055157560285366
 30
0.0
 40
0.6195909334962824
100
AcDbArc
 50
269.8741860641207495
 51
0.1248912168070956
  0
LWPOLYLINE
  5
C4
100
AcDbEntity
  8
0
 62
7
420
16777215
370
-1
 48
1.0
  6
BYLAYER
100
AcDbPolyline
 90
2
 70
128
 10
83.8602639999999724
 20
-28.6747470000000106
 10
82.5967339999999695
 20
-28.6747470000000106
  0
ARC
  5
C5
100
AcDbEntity
  8
0
 62
7
420
16777215
370
-1
 48
1.0
  6
BYLAYER
100
AcDbCircle
 10
82.5953734615450372
 20
-28.0551575602853696
 30
0.0
 40
0.6195909334962733
100
AcDbArc
 50
179.8751087831928999
 51
270.1258139358805579
  0
LWPOLYLINE
  5
C6
100
AcDbEntity
  8
0
 62
7
420
16777215
370
-1
 48
1.0
  6
BYLAYER
100
AcDbPolyline
 90
2
 70
128
 10
81.975783999999976
 20
-28.0538070000000062
 10
81.975783999999976
 20
-18.0254670000000061
  0
ARC
  5
C7
100
AcDbEntity
  8
0
 62
7
420
16777215
370
-1
 48
1.0
  6
BYLAYER
100
AcDbCircle
 10
82.5953719649973408
 20
-18.0241219279400902
 30
0.0
 40
0.6195894250133933
100
AcDbArc
 50
89.8740473660416797
 51
180.1243840026925227
  0
LWPOLYLINE
  5
C8
100
AcDbEntity
  8
0
 62
7
420
16777215
370
-1
 48
1.0
  6
BYLAYER
100
AcDbPolyline
 90
2
 70
128
 10
61.6891039999999791
 20
-21.9192270000000065
 10
99.1350839999999778
 20
-21.9192270000000065
  0
ARC
  5
C9
100
AcDbEntity
  8
0
 62
7
420
16777215
370
-1
 48
1.0
  6
BYLAYER
100
AcDbCircle
 10
99.1364430662790426
 20
-22.5388079337209106
 30
0.0
 40
0.619582424292075
100
AcDbArc
 50
359.8743204757542458
 51
90.1256795242419884
  0
LWPOLYLINE
  5
CA
100
AcDbEntity
  8
0
 62
7
420
16777215
370
-1
 48
1.0
  6
BYLAYER
100
AcDbPolyline
 90
2
 70
128
 10
99.7560239999999681
 20
-22.5401670000000109
 10
99.7560239999999681
 20
-23.539077000000006
  0
ARC
  5
CB
100
AcDbEntity
  8
0
 62
7
420
16777215
370
-1
 48
1.0
  6
BYLAYER
100
AcDbCircle
 10
99.136443066279071
 20
-23.5404360662790992
 30
0.0
 40
0.6195824242920608
100
AcDbArc
 50
269.8743204757553258
 51
0.1256795242457381
  0
LWPOLYLINE
  5
CC
100
AcDbEntity
  8
0
 62
7
420
16777215
370
-1
 48
1.0
  6
BYLAYER
100
AcDbPolyline
 90
2
 70
128
 10
99.1350839999999778
 20
-24.1600170000000105
 10
61.6891039999999791
 20
-24.1600170000000105
  0
ARC
  5
CD
100
AcDbEntity
  8
0
 62
7
420
16777215
370
-1
 48
1.0
  6
BYLAYER
100
AcDbCircle
 10
61.6877449337209143
 20
-23.5404360662790637
 30
0.0
 40
0.6195824242920891
100
AcDbArc
 50
179.8743204757600722
 51
270.1256795242420026
  0
LWPOLYLINE
  5
CE
100
AcDbEntity
  8
0
 62
7
420
16777215
370
-1
 48
1.0
  6
BYLAYER
100
AcDbPolyline
 90
2
 70
128
 10
61.0681639999999746
 20
-23.539077000000006
 10
61.0681639999999746
 20
-22.5401670000000109
  0
ARC
  5
CF
100
AcDbEntity
  8
0
 62
7
420
16777215
370
-1
 48
1.0
  6
BYLAYER
100
AcDbCircle
 10
61.6877449337209001
 20
-22.5388079337209355
 30
0.0
 40
0.6195824242920785
100
AcDbArc
 50
89.87432047575669
 51
180.1256795242457258
  0
LWPOLYLINE
  5
D0
100
AcDbEntity
  8
0
 62
7
420
16777215
370
-1
 48
1.0
  6
BYLAYER
100
AcDbPolyline
 90
5
 70
128
 10
46.0838629999999725
 20
-39.6259870000000092
 10
70.0490739999999619
 20
-39.6259870000000092
 10
66.9713239999999814
 20
-47.5370670000000075
 10
43.006112999999992
 20
-47.5370670000000075
 10
46.0838629999999725
 20
-39.6259870000000092
  0
LWPOLYLINE
  5
D1
100
AcDbEntity
  8
0
 62
7
420
16777215
370
-1
 48
1.0
  6
BYLAYER
100
AcDbPolyline
 90
2
 70
128
 10
88.3651339999999834
 20
-7.7359069999999974
 10
89.6286739999999895
 20
-7.7359069999999974
  0
ARC
  5
D2
100
AcDbEntity
  8
0
 62
7
420
16777215
370
-1
 48
1.0
  6
BYLAYER
100
AcDbCircle
 10
89.6300322156866258
 20
-8.3554887865015086
 30
0.0
 40
0.6195832752054029
100
AcDbArc
 50
359.8743070342547981
 51
90.1256006931664615
  0
LWPOLYLINE
  5
D3
100
AcDbEntity
  8
0
 62
7
420
16777215
370
-1
 48
1.0
  6
BYLAYER
100
AcDbPolyline
 90
2
 70
128
 10
90.2496139999999798
 20
-8.3568479999999994
 10
90.2496139999999798
 20
-18.3851870000000019
  0
ARC
  5
D4
100
AcDbEntity
  8
0
 62
7
420
16777215
370
-1
 48
1.0
  6
BYLAYER
100
AcDbCircle
 10
89.6300330662790685
 20
-18.3865460662790916
 30
0.0
 40
0.6195824242920643
100
AcDbArc
 50
269.87432047575669
 51
0.1256795242457381
  0
LWPOLYLINE
  5
D5
100
AcDbEntity
  8
0
 62
7
420
16777215
370
-1
 48
1.0
  6
BYLAYER
100
AcDbPolyline
 90
2
 70
128
 10
89.6286739999999895
 20
-19.0061270000000064
 10
88.3651339999999834
 20
-19.0061270000000064
  0
ARC
  5
D6
100
AcDbEntity
  8
0
 62
7
420
16777215
370
-1
 48
1.0
  6
BYLAYER
100
AcDbCircle
 10
88.3637749337209186
 20
-18.3865460662790632
 30
0.0
 40
0.6195824242921033
100
AcDbArc
 50
179.8743204757600722
 51
270.1256795242420026
  0
LWPOLYLINE
  5
D7
100
AcDbEntity
  8
0
 62
7
420
16777215
370
-1
 48
1.0
  6
BYLAYER
100
AcDbPolyline
 90
2
 70
128
 10
87.7441939999999647
 20
-18.3851870000000019
 10
87.7441939999999647
 20
-8.3568479999999994
  0
ARC
  5
D8
100
AcDbEntity
  8
0
 62
7
420
16777215
370
-1
 48
1.0
  6
BYLAYER
100
AcDbCircle
 10
88.3637757843133329
 20
-8.3554887865015175
 30
0.0
 40
0.6195832752054131
100
AcDbArc
 50
89.8743993068322311
 51
180.1256929657422745
  0
LWPOLYLINE
  5
D9
100
AcDbEntity
  8
0
 62
7
420
16777215
370
-1
 48
1.0
  6
BYLAYER
100
AcDbPolyline
 90
2
 70
128
 10
88.3651339999999834
 20
-7.7359069999999974
 10
88.3651339999999834
 20
-7.7359069999999974
  0
LWPOLYLINE
  5
DA
100
AcDbEntity
  8
0
 62
7
420
16777215
370
-1
 48
1.0
  6
BYLAYER
100
AcDbPolyline
 90
2
 70
128
 10
76.7879240000000038
 20
-7.7359069999999974
 10
78.0514739999999847
 20
-7.7359069999999974
  0
ARC
  5
DB
100
AcDbEntity
  8
0
 62
7
420
16777215
370
-1
 48
1.0
  6
BYLAYER
100
AcDbCircle
 10
78.052832215686621
 20
-8.3554887865015566
 30
0.0
 40
0.6195832752054312
100
AcDbArc
 50
359.8743070342576971
 51
90.1256006931664615
  0
LWPOLYLINE
  5
DC
100
AcDbEntity
  8
0
 62
7
420
16777215
370
-1
 48
1.0
  6
BYLAYER
100
AcDbPolyline
 90
2
 70
128
 10
78.6724140000000034
 20
-8.3568479999999994
 10
78.6724140000000034
 20
-18.3851870000000019
  0
ARC
  5
DD
100
AcDbEntity
  8
0
 62
7
420
16777215
370
-1
 48
1.0
  6
BYLAYER
100
AcDbCircle
 10
78.0528330662790921
 20
-18.3865460662790881
 30
0.0
 40
0.6195824242920679
100
AcDbArc
 50
269.8743204757540752
 51
0.1256795242457381
  0
LWPOLYLINE
  5
DE
100
AcDbEntity
  8
0
 62
7
420
16777215
370
-1
 48
1.0
  6
BYLAYER
100
AcDbPolyline
 90
2
 70
128
 10
78.0514739999999847
 20
-19.0061270000000064
 10
76.7879240000000038
 20
-19.0061270000000064
  0
ARC
  5
DF
100
AcDbEntity
  8
0
 62
7
420
16777215
370
-1
 48
1.0
  6
BYLAYER
100
AcDbCircle
 10
76.7865649337209533
 20
-18.3865460662790525
 30
0.0
 40
0.6195824242921175
100
AcDbArc
 50
179.8743204757600722
 51
270.1256795242406952
  0
LWPOLYLINE
  5
E0
100
AcDbEntity
  8
0
 62
7
420
16777215
370
-1
 48
1.0
  6
BYLAYER
100
AcDbPolyline
 90
2
 70
128
 10
76.1669839999999851
 20
-18.3851870000000019
 10
76.1669839999999851
 20
-8.3568479999999994
  0
ARC
  5
E1
100
AcDbEntity
  8
0
 62
7
420
16777215
370
-1
 48
1.0
  6
BYLAYER
100
AcDbCircle
 10
76.7865657843133391
 20
-8.3554887865015228
 30
0.0
 40
0.6195832752054184
100
AcDbArc
 50
89.8743993068309237
 51
180.1256929657422745
  0
LWPOLYLINE
  5
E2
100
AcDbEntity
  8
0
 62
7
420
16777215
370
-1
 48
1.0
  6
BYLAYER
100
AcDbPolyline
 90
2
 70
128
 10
64.8565140000000042
 20
-7.7359069999999974
 10
66.1200540000000103
 20
-7.7359069999999974
  0
ARC
  5
E3
100
AcDbEntity
  8
0
 62
7
420
16777215
370
-1
 48
1.0
  6
BYLAYER
100
AcDbCircle
 10
66.1214122156866466
 20
-8.3554887865015086
 30
0.0
 40
0.6195832752054029
100
AcDbArc
 50
359.8743070342547981
 51
90.1256006931664615
  0
LWPOLYLINE
  5
E4
100
AcDbEntity
  8
0
 62
7
420
16777215
370
-1
 48
1.0
  6
BYLAYER
100
AcDbPolyline
 90
2
 70
128
 10
66.7409940000000006
 20
-8.3568479999999994
 10
66.7409940000000006
 20
-18.3851870000000019
  0
ARC
  5
E5
100
AcDbEntity
  8
0
 62
7
420
16777215
370
-1
 48
1.0
  6
BYLAYER
100
AcDbCircle
 10
66.1214130662790751
 20
-18.3865460662790881
 30
0.0
 40
0.6195824242920679
100
AcDbArc
 50
269.8743204757579974
 51
0.1256795242457381
  0
LWPOLYLINE
  5
E6
100
AcDbEntity
  8
0
 62
7
420
16777215
370
-1
 48
1.0
  6
BYLAYER
100
AcDbPolyline
 90
2
 70
128
 10
66.1200540000000103
 20
-19.0061270000000064
 10
64.8565140000000042
 20
-19.0061270000000064
  0
ARC
  5
E7
100
AcDbEntity
  8
0
 62
7
420
16777215
370
-1
 48
1.0
  6
BYLAYER
100
AcDbCircle
 10
64.8551549337209536
 20
-18.3865460662790383
 30
0.0
 40
0.6195824242921175
100
AcDbArc
 50
179.8743204757600722
 51
270.1256795242406952
  0
LWPOLYLINE
  5
E8
100
AcDbEntity
  8
0
 62
7
420
16777215
370
-1
 48
1.0
  6
BYLAYER
100
AcDbPolyline
 90
2
 70
128
 10
64.2355739999999855
 20
-18.3851870000000019
 10
64.2355739999999855
 20
-8.3568479999999994
  0
ARC
  5
E9
100
AcDbEntity
  8
0
 62
7
420
16777215
370
-1
 48
1.0
  6
BYLAYER
100
AcDbCircle
 10
64.8551557843133537
 20
-8.3554887865015193
 30
0.0
 40
0.6195832752054149
100
AcDbArc
 50
89.8743993068322311
 51
180.1256929657422745
  0
LWPOLYLINE
  5
EA
100
AcDbEntity
  8
0
 62
7
420
16777215
370
-1
 48
1.0
  6
BYLAYER
100
AcDbPolyline
 90
2
 70
128
 10
55.2411269999999988
 20
-12.2506039999999956
 10
92.687104000000005
 20
-12.2506039999999956
  0
ARC
  5
EB
100
AcDbEntity
  8
0
 62
7
420
16777215
370
-1
 48
1.0
  6
BYLAYER
100
AcDbCircle
 10
92.6884630662790983
 20
-12.8701849337209016
 30
0.0
 40
0.6195824242920466
100
AcDbArc
 50
359.8743204757542458
 51
90.1256795242446316
  0
LWPOLYLINE
  5
EC
100
AcDbEntity
  8
0
 62
7
420
16777215
370
-1
 48
1.0
  6
BYLAYER
100
AcDbPolyline
 90
2
 70
128
 10
93.3080439999999953
 20
-12.8715440000000001
 10
93.3080439999999953
 20
-13.8704639999999984
  0
ARC
  5
ED
100
AcDbEntity
  8
0
 62
7
420
16777215
370
-1
 48
1.0
  6
BYLAYER
100
AcDbCircle
 10
92.688463066279084
 20
-13.8718230662790862
 30
0.0
 40
0.619582424292066
100
AcDbArc
 50
269.87432047575669
 51
0.1256795242457381
  0
LWPOLYLINE
  5
EE
100
AcDbEntity
  8
0
 62
7
420
16777215
370
-1
 48
1.0
  6
BYLAYER
100
AcDbPolyline
 90
2
 70
128
 10
92.687104000000005
 20
-14.4914040000000028
 10
55.2411269999999988
 20
-14.4914040000000028
  0
ARC
  5
EF
100
AcDbEntity
  8
0
 62
7
420
16777215
370
-1
 48
1.0
  6
BYLAYER
100
AcDbCircle
 10
55.2397673448457667
 20
-13.8718196639000375
 30
0.0
 40
0.6195858279549028
100
AcDbArc
 50
179.8746357996209042
 51
270.1257332897899346
  0
LWPOLYLINE
  5
F0
100
AcDbEntity
  8
0
 62
7
420
16777215
370
-1
 48
1.0
  6
BYLAYER
100
AcDbPolyline
 90
2
 70
128
 10
54.6201830000000044
 20
-13.8704639999999984
 10
54.6201830000000044
 20
-12.8715440000000001
  0
ARC
  5
F1
100
AcDbEntity
  8
0
 62
7
420
16777215
370
-1
 48
1.0
  6
BYLAYER
100
AcDbCircle
 10
55.2397673448457951
 20
-12.870188336099968
 30
0.0
 40
0.6195858279549186
100
AcDbArc
 50
89.8742667102126944
 51
180.1253642003791242
  0
LWPOLYLINE
  5
F2
100
AcDbEntity
  8
0
 62
7
420
16777215
370
-1
 48
1.0
  6
BYLAYER
100
AcDbPolyline
 90
5
 70
128
 10
37.8937129999999982
 20
-7.7843249999999955
 10
50.3093029999999928
 20
-7.7843249999999955
 10
25.4151189999999971
 20
-72.2640869999999893
 10
12.999533999999997
 20
-72.2640869999999893
 10
37.8937129999999982
 20
-7.7843249999999955
  0
ENDBLK
  5
F3
100
AcDbEntity
  8
0
100
AcDbBlockEnd
  0
BLOCK
  5
F4
100
AcDbEntity
  8
0
100
AcDbBlockBegin
  2
RW_Logo_Trans
 70
0
 10
0.0
 20
0.0
 30
0.0
  3
RW_Logo_Trans
  1

  0
LWPOLYLINE
  5
F5
100
AcDbEntity
  8
0
 62
256
370
-1
 48
1.0
  6
BYLAYER
100
AcDbPolyline
 90
20
 70
128
 10
56.6914060000000006
 20
0.0
 10
56.6914060000000006
 20
-15.8261719999999997
 10
37.7949219999999997
 20
-15.8261719999999997
 10
37.7949219999999997
 20
-47.4804689999999994
 10
56.6914060000000006
 20
-47.4804689999999994
 10
56.6914060000000006
 20
-141.2109399999999937
 10
37.7949219999999997
 20
-141.2109399999999937
 10
37.7949219999999997
 20
-172.8632800000000032
 10
56.6914060000000006
 20
-172.8632800000000032
 10
56.6914060000000006
 20
-188.6601599999999905
 10
56.6914060000000006
 20
-264.566410000000019
 10
144.8808599999999842
 20
-264.566410000000019
 10
144.8808599999999842
 20
-188.660160000000019
 10
165.4003899999999874
 20
-188.660160000000019
 10
193.027339999999981
 20
-264.566410000000019
 10
281.2167999999999779
 20
-264.566410000000019
 10
242.9043000000000063
 20
-159.3007800000000032
 42
0.1923579134144613
 10
268.9335900000000379
 20
-94.3300779999909622
 42
0.4142131276425501
 10
174.6035200025277163
 20
-0.0000000000000284
 10
56.6914060000000006
 20
0.0
  0
LWPOLYLINE
  5
F6
100
AcDbEntity
  8
0
 62
256
370
-1
 48
1.0
  6
BYLAYER
100
AcDbPolyline
 90
6
 70
128
 10
144.8808599999999842
 20
-63.2910159999999991
 10
166.6933599999999842
 20
-63.2910159999999991
 42
-0.4142108826965076
 10
197.7304699999999684
 20
-94.330078000010829
 42
-0.4141924816972828
 10
166.6933599999999842
 20
-125.3671899999999795
 10
144.8808599999999842
 20
-125.3671899999999937
 10
144.8808599999999842
 20
-63.2910159999999991
  0
LWPOLYLINE
  5
F7
100
AcDbEntity
  8
0
 62
256
370
-1
 48
1.0
  6
BYLAYER
100
AcDbPolyline
 90
5
 70
128
 10
476.0527299999999968
 20
0.0
 10
423.8535200000000032
 20
-143.4179699999999968
 10
467.9472700000000032
 20
-264.566410000000019
 10
520.1484400000000505
 20
-121.1484400000000221
 10
476.0527299999999968
 20
0.0
  0
LWPOLYLINE
  5
F8
100
AcDbEntity
  8
0
 62
256
370
-1
 48
1.0
  6
BYLAYER
100
AcDbPolyline
 90
5
 70
128
 10
283.464839999999981
 20
0.0
 10
379.7597700000000032
 20
-264.566410000000019
 10
467.9472700000000032
 20
-264.566410000000019
 10
371.6542999999999779
 20
0.0
 10
283.464839999999981
 20
0.0
  0
LWPOLYLINE
  5
F9
100
AcDbEntity
  8
0
 62
256
370
-1
 48
1.0
  6
BYLAYER
100
AcDbPolyline
 90
8
 70
128
 10
476.0527299999999968
 20
0.0
 10
572.347660000000019
 20
-264.566410000000019
 10
660.5371099999999842
 20
-264.566410000000019
 10
756.8320300000000316
 20
0.0
 10
668.6425799999999526
 20
0.0
 10
616.441410000000019
 20
-143.4179699999999968
 10
564.2421900000000505
 20
0.0
 10
476.0527299999999968
 20
0.0
  0
ENDBLK
  5
FA
100
AcDbEntity
  8
0
100
AcDbBlockEnd
  0
BLOCK
  5
FB
100
AcDbEntity
  8
0
100
AcDbBlockBegin
  2
SmallPotGauge
 70
0
 10
0.0
 20
0.0
 30
0.0
  3
SmallPotGauge
  1

  0
LWPOLYLINE
  5
FC
100
AcDbEntity
  8
0
 62
256
370
-1
 48
1.0
  6
BYLAYER
100
AcDbPolyline
 90
6
 70
128
 10
104.8679000000000059
 20
-139.9265100000000075
 10
104.8679000000000059
 20
-141.6826000000000079
 42
-0.0094312964636997
 10
104.9997900000000044
 20
-141.6765999999999792
 42
-0.0094282736998003
 10
105.1317400000000077
 20
-141.6795999999999935
 10
105.1317400000000077
 20
-139.926809999999989
 10
104.8679000000000059
 20
-139.9265100000000075
  0
LWPOLYLINE
  5
FD
100
AcDbEntity
  8
0
 62
256
370
-1
 48
1.0
  6
BYLAYER
100
AcDbPolyline
 90
5
 70
128
 10
102.4890800000000013
 20
-140.5638900000000149
 10
102.2605999999999966
 20
-140.6958300000000008
 10
103.137360000000001
 20
-142.2144000000000119
 42
-0.018850642653673
 10
103.3667400000000072
 20
-142.0840800000000002
 10
102.4890800000000013
 20
-140.5638900000000149
  0
LWPOLYLINE
  5
FE
100
AcDbEntity
  8
0
 62
256
370
-1
 48
1.0
  6
BYLAYER
100
AcDbPolyline
 90
5
 70
128
 10
107.5105999999999966
 20
-140.5638900000000149
 10
106.6341099999999926
 20
-142.0820000000000221
 42
-0.0188531870154901
 10
106.8627299999999991
 20
-142.2137200000000234
 10
107.7390800000000013
 20
-140.6958300000000293
 10
107.5105999999999966
 20
-140.5638900000000149
  0
LWPOLYLINE
  5
FF
100
AcDbEntity
  8
0
 62
256
370
-1
 48
1.0
  6
BYLAYER
100
AcDbPolyline
 90
5
 70
128
 10
100.5191599999999994
 20
-142.4372700000000123
 10
100.3872599999999977
 20
-142.6657500000000027
 10
101.9074099999999987
 20
-143.5434099999999944
 42
-0.0188520557002934
 10
102.0377699999999948
 20
-143.3140300000000025
 10
100.5191599999999994
 20
-142.4372700000000123
  0
LWPOLYLINE
  5
100
100
AcDbEntity
  8
0
 62
256
370
-1
 48
1.0
  6
BYLAYER
100
AcDbPolyline
 90
5
 70
128
 10
109.4805199999999985
 20
-142.4372700000000123
 10
107.9625800000000027
 20
-143.3136200000000144
 42
-0.0188549721058722
 10
108.0943500000000483
 20
-143.5422400000000209
 10
109.6124100000000112
 20
-142.6657500000000312
 10
109.4805199999999985
 20
-142.4372700000000123
  0
LWPOLYLINE
  5
101
100
AcDbEntity
  8
0
 62
256
370
-1
 48
1.0
  6
BYLAYER
100
AcDbPolyline
 90
6
 70
128
 10
99.7497970000000009
 20
-145.0446100000000058
 10
99.7497970000000009
 20
-145.3084499999999935
 10
101.5059300000000064
 20
-145.3084499999999935
 42
-0.0094348651562602
 10
101.4999299999999778
 20
-145.1765100000000075
 42
-0.00943201020193
 10
101.5059299999999922
 20
-145.0446100000000058
 10
99.7497970000000009
 20
-145.0446100000000058
  0
LWPOLYLINE
  5
102
100
AcDbEntity
  8
0
 62
256
370
-1
 48
1.0
  6
BYLAYER
100
AcDbPolyline
 90
6
 70
128
 10
108.4970499999999873
 20
-145.0446100000000058
 42
-0.009424702242363
 10
108.5000499999999874
 20
-145.1765099999999222
 42
-0.0094348651562611
 10
108.4940500000000156
 20
-145.3084499999999935
 10
110.2501400000000018
 20
-145.3084499999999935
 10
110.2501400000000018
 20
-145.0446100000000058
 10
108.4970500000000015
 20
-145.0446100000000058
  0
LWPOLYLINE
  5
103
100
AcDbEntity
  8
0
 62
256
370
-1
 48
1.0
  6
BYLAYER
100
AcDbPolyline
 90
5
 70
128
 10
108.0922199999999975
 20
-146.8095600000000047
 42
-0.0188551641205852
 10
107.9618600000000015
 20
-147.0389900000000125
 10
109.4805199999999985
 20
-147.9157500000000027
 10
109.612409999999997
 20
-147.6872700000000123
 10
108.0922199999999975
 20
-146.8095600000000047
  0
LWPOLYLINE
  5
104
100
AcDbEntity
  8
0
 62
256
370
-1
 48
1.0
  6
BYLAYER
100
AcDbPolyline
 90
5
 70
128
 10
101.9074099999999987
 20
-146.8096099999999922
 10
100.3872599999999977
 20
-147.6872699999999838
 10
100.5191599999999994
 20
-147.9157499999999743
 10
102.0377699999999948
 20
-147.0389899999999841
 42
-0.0188520557002923
 10
101.9074099999999845
 20
-146.8096099999999922
  0
LWPOLYLINE
  5
105
100
AcDbEntity
  8
0
 62
256
370
-1
 48
1.0
  6
BYLAYER
100
AcDbPolyline
 90
5
 70
128
 10
106.8623199999999969
 20
-148.1385799999999904
 42
-0.0188520557002944
 10
106.6329399999999907
 20
-148.2689399999999864
 10
107.5105999999999966
 20
-149.7891300000000001
 10
107.7390800000000013
 20
-149.6571900000000142
 10
106.8623199999999969
 20
-148.1385799999999904
  0
LWPOLYLINE
  5
106
100
AcDbEntity
  8
0
 62
256
370
-1
 48
1.0
  6
BYLAYER
100
AcDbPolyline
 90
6
 70
128
 10
103.137360000000001
 20
-148.1386200000000031
 10
102.2605999999999966
 20
-149.6571900000000142
 10
102.4890800000000013
 20
-149.7891300000000001
 10
103.3667400000000072
 20
-148.2689399999999864
 42
-0.0188506426536739
 10
103.137360000000001
 20
-148.1386199999999747
 10
103.137360000000001
 20
-148.1386200000000031
  0
ENDBLK
  5
107
100
AcDbEntity
  8
0
100
AcDbBlockEnd
  0
BLOCK
  5
108
100
AcDbEntity
  8
0
100
AcDbBlockBegin
  2
RW_Logo_Trans_Filled
 70
0
 10
0.0
 20
0.0
 30
0.0
  3
RW_Logo_Trans_Filled
  1

  0
LWPOLYLINE
  5
109
100
AcDbEntity
  8
0
 62
256
370
-1
 48
1.0
  6
BYLAYER
100
AcDbPolyline
 90
20
 70
128
 10
56.6914069999999981
 20
0.0
 10
56.6914069999999981
 20
-15.8261719999999997
 10
37.7949219999999997
 20
-15.8261719999999997
 10
37.7949219999999997
 20
-47.4804689999999994
 10
56.6914069999999981
 20
-47.4804689999999994
 10
56.6914069999999981
 20
-141.2109399999999937
 10
37.7949219999999997
 20
-141.2109399999999937
 10
37.7949219999999997
 20
-172.8632800000000032
 10
56.6914069999999981
 20
-172.8632800000000032
 10
56.6914069999999981
 20
-188.6601599999999905
 10
56.6914069999999981
 20
-264.566410000000019
 10
144.8808600000000126
 20
-264.566410000000019
 10
144.8808600000000126
 20
-188.6601599999999905
 10
165.4003899999999874
 20
-188.6601599999999905
 10
193.0273500000000126
 20
-264.566410000000019
 10
281.2167999999999779
 20
-264.566410000000019
 10
242.9043000000000063
 20
-159.3007800000000032
 42
0.1923579216735375
 10
268.9335999999999558
 20
-94.3300790000037637
 42
0.41421316177978
 10
174.6035199999999747
 20
0.0000000000000142
 10
56.6914069999999981
 20
0.0
  0
LWPOLYLINE
  5
10A
100
AcDbEntity
  8
0
 62
256
370
-1
 48
1.0
  6
BYLAYER
100
AcDbPolyline
 90
5
 70
128
 10
476.0527299999999968
 20
0.0
 10
423.8535200000000032
 20
-143.4179699999999968
 10
467.9472700000000032
 20
-264.566410000000019
 10
520.1484400000000505
 20
-121.1484400000000221
 10
476.0527299999999968
 20
0.0
  0
LWPOLYLINE
  5
10B
100
AcDbEntity
  8
0
 62
256
370
-1
 48
1.0
  6
BYLAYER
100
AcDbPolyline
 90
5
 70
128
 10
283.464839999999981
 20
0.0
 10
379.7597700000000032
 20
-264.566410000000019
 10
467.9472700000000032
 20
-264.566410000000019
 10
371.6542999999999779
 20
0.0
 10
283.464839999999981
 20
0.0
  0
LWPOLYLINE
  5
10C
100
AcDbEntity
  8
0
 62
256
370
-1
 48
1.0
  6
BYLAYER
100
AcDbPolyline
 90
8
 70
128
 10
476.0527299999999968
 20
0.0
 10
572.347660000000019
 20
-264.566410000000019
 10
660.5371099999999842
 20
-264.566410000000019
 10
756.8320300000000316
 20
0.0
 10
668.6425799999999526
 20
0.0
 10
616.441410000000019
 20
-143.4179699999999968
 10
564.2421900000000505
 20
0.0
 10
476.0527299999999968
 20
0.0
  0
ENDBLK
  5
10D
100
AcDbEntity
  8
0
100
AcDbBlockEnd
  0
ENDSEC
  0
SECTION
  2
ENTITIES
  0
LINE
  5
10E
100
AcDbEntity
  8
Cuts
 62
256
370
-1
 48
1.0
  6
BYLAYER
100
AcDbLine
 10
0.0
 20
0.0
 30
0.0
 11
50.5
 21
0.0
 31
0.0
  0
LINE
  5
10F
100
AcDbEntity
  8
Cuts
 62
256
370
-1
 48
1.0
  6
BYLAYER
100
AcDbLine
 10
50.5
 20
0.0
 30
0.0
 11
50.5
 21
128.5
 31
0.0
  0
LINE
  5
110
100
AcDbEntity
  8
Cuts
 62
256
370
-1
 48
1.0
  6
BYLAYER
100
AcDbLine
 10
50.5
 20
128.5
 30
0.0
 11
0.0
 21
128.5
 31
0.0
  0
LINE
  5
111
100
AcDbEntity
  8
Cuts
 62
256
370
-1
 48
1.0
  6
BYLAYER
100
AcDbLine
 10
0.0
 20
128.5
 30
0.0
 11
0.0
 21
0.0
 31
0.0
  0
DIMENSION
  5
112
100
AcDbEntity
  8
UserDrawings
 62
256
370
-1
 48
1.0
  6
BYLAYER
100
AcDbDimension
 10
-10.0
 20
0.0
 30
0.0
 11
-11.875
 21
64.25
 31
0.0
 70
0
 71
8
 72
2
 74
0
 75
0
 41
1.0
 42
0.0
  1

  3
Standard
100
AcDbAlignedDimension
 13
-0.0
 23
-0.0
 33
0.0
 14
0.0
 24
128.5
 34
0.0
 50
90.0
100
AcDbRotatedDimension
1001
ACAD
1000
DSTYLE
1002
{
1070
144
1040
1.0
1070
40
1040
1.0
1002
}
  0
DIMENSION
  5
113
100
AcDbEntity
  8
UserDrawings
 62
256
370
-1
 48
1.0
  6
BYLAYER
100
AcDbDimension
 10
0.0
 20
136.7913298366080426
 30
0.0
 11
25.25
 21
138.6663298366080426
 31
0.0
 70
0
 71
8
 72
2
 74
0
 75
0
 41
1.0
 42
0.0
  1

  3
Standard
100
AcDbAlignedDimension
 13
0.0
 23
128.5
 33
0.0
 14
50.5
 24
128.5
 34
0.0
 50
0.0
100
AcDbRotatedDimension
1001
ACAD
1000
DSTYLE
1002
{
1070
144
1040
1.0
1070
40
1040
1.0
1002
}
  0
LINE
  5
114
100
AcDbEntity
  8
Cuts
 62
256
370
-1
 48
1.0
  6
BYLAYER
100
AcDbLine
 10
6.5000000000000009
 20
127.0999999999999943
 30
0.0
 11
8.5
 21
127.0999999999999943
 31
0.0
  0
LINE
  5
115
100
AcDbEntity
  8
Cuts
 62
256
370
-1
 48
1.0
  6
BYLAYER
100
AcDbLine
 10
42.0
 20
127.1000000000000085
 30
0.0
 11
44.0
 21
127.1000000000000085
 31
0.0
  0
LINE
  5
116
100
AcDbEntity
  8
Cuts
 62
256
370
-1
 48
1.0
  6
BYLAYER
100
AcDbLine
 10
42.0000000000000071
 20
4.6000000000000227
 30
0.0
 11
44.0000000000000071
 21
4.6000000000000227
 31
0.0
  0
LINE
  5
117
100
AcDbEntity
  8
Cuts
 62
256
370
-1
 48
1.0
  6
BYLAYER
100
AcDbLine
 10
6.5000000000000071
 20
4.6000000000000227
 30
0.0
 11
8.5000000000000071
 21
4.6000000000000227
 31
0.0
  0
LINE
  5
118
100
AcDbEntity
  8
Cuts
 62
256
370
-1
 48
1.0
  6
BYLAYER
100
AcDbLine
 10
6.5000000000000009
 20
123.8999999999999915
 30
0.0
 11
8.5
 21
123.8999999999999915
 31
0.0
  0
LINE
  5
119
100
AcDbEntity
  8
Cuts
 62
256
370
-1
 48
1.0
  6
BYLAYER
100
AcDbLine
 10
42.0
 20
123.9000000000000057
 30
0.0
 11
44.0
 21
123.9000000000000057
 31
0.0
  0
LINE
  5
11A
100
AcDbEntity
  8
Cuts
 62
256
370
-1
 48
1.0
  6
BYLAYER
100
AcDbLine
 10
42.0000000000000071
 20
1.4000000000000199
 30
0.0
 11
44.0000000000000071
 21
1.4000000000000199
 31
0.0
  0
LINE
  5
11B
100
AcDbEntity
  8
Cuts
 62
256
370
-1
 48
1.0
  6
BYLAYER
100
AcDbLine
 10
6.5000000000000071
 20
1.4000000000000199
 30
0.0
 11
8.5000000000000071
 21
1.4000000000000199
 31
0.0
  0
ARC
  5
11C
100
AcDbEntity
  8
Cuts
 62
256
370
-1
 48
1.0
  6
BYLAYER
100
AcDbCircle
 10
8.5
 20
125.5
 30
0.0
 40
1.6000000000000085
100
AcDbArc
 50
270.0
 51
90.0
  0
ARC
  5
11D
100
AcDbEntity
  8
Cuts
 62
256
370
-1
 48
1.0
  6
BYLAYER
100
AcDbCircle
 10
44.0
 20
125.5000000000000142
 30
0.0
 40
1.6000000000000085
100
AcDbArc
 50
270.0
 51
90.0
  0
ARC
  5
11E
100
AcDbEntity
  8
Cuts
 62
256
370
-1
 48
1.0
  6
BYLAYER
100
AcDbCircle
 10
44.0000000000000071
 20
3.0000000000000284
 30
0.0
 40
1.6000000000000085
100
AcDbArc
 50
270.0
 51
90.0
  0
ARC
  5
11F
100
AcDbEntity
  8
Cuts
 62
256
370
-1
 48
1.0
  6
BYLAYER
100
AcDbCircle
 10
8.5000000000000071
 20
3.0000000000000284
 30
0.0
 40
1.6000000000000085
100
AcDbArc
 50
270.0
 51
90.0
  0
ARC
  5
120
100
AcDbEntity
  8
Cuts
 62
256
370
-1
 48
1.0
  6
BYLAYER
100
AcDbCircle
 10
6.5000000000000009
 20
125.5
 30
0.0
 40
1.6000000000000085
100
AcDbArc
 50
90.0
 51
270.0
  0
ARC
  5
121
100
AcDbEntity
  8
Cuts
 62
256
370
-1
 48
1.0
  6
BYLAYER
100
AcDbCircle
 10
42.0
 20
125.5000000000000142
 30
0.0
 40
1.6000000000000085
100
AcDbArc
 50
90.0
 51
270.0
  0
ARC
  5
122
100
AcDbEntity
  8
Cuts
 62
256
370
-1
 48
1.0
  6
BYLAYER
100
AcDbCircle
 10
42.0000000000000071
 20
3.0000000000000284
 30
0.0
 40
1.6000000000000085
100
AcDbArc
 50
90.0
 51
270.0
  0
ARC
  5
123
100
AcDbEntity
  8
Cuts
 62
256
370
-1
 48
1.0
  6
BYLAYER
100
AcDbCircle
 10
6.5000000000000071
 20
3.0000000000000284
 30
0.0
 40
1.6000000000000085
100
AcDbArc
 50
90.0
 51
270.0
  0
CIRCLE
  5
124
100
AcDbEntity
  8
Cuts
 62
256
370
-1
 48
1.0
  6
BYLAYER
100
AcDbCircle
 10
17.25
 20
24.0
 30
0.0
 40
3.2000000000000002
  0
CIRCLE
  5
125
100
AcDbEntity
  8
Cuts
 62
256
370
-1
 48
1.0
  6
BYLAYER
100
AcDbCircle
 10
29.25
 20
24.0
 30
0.0
 40
3.2000000000000002
  0
CIRCLE
  5
126
100
AcDbEntity
  8
Cuts
 62
256
370
-1
 48
1.0
  6
BYLAYER
100
AcDbCircle
 10
41.25
 20
24.0
 30
0.0
 40
3.2000000000000002
  0
CIRCLE
  5
127
100
AcDbEntity
  8
Cuts
 62
256
370
-1
 48
1.0
  6
BYLAYER
100
AcDbCircle
 10
19.25
 20
41.0
 30
0.0
 40
3.2000000000000002
  0
CIRCLE
  5
128
100
AcDbEntity
  8
Cuts
 62
256
370
-1
 48
1.0
  6
BYLAYER
100
AcDbCircle
 10
19.25
 20
92.0
 30
0.0
 40
3.2000000000000002
  0
CIRCLE
  5
129
100
AcDbEntity
  8
Cuts
 62
256
370
-1
 48
1.0
  6
BYLAYER
100
AcDbCircle
 10
17.25
 20
108.0
 30
0.0
 40
3.2000000000000002
  0
CIRCLE
  5
12A
100
AcDbEntity
  8
Cuts
 62
256
370
-1
 48
1.0
  6
BYLAYER
100
AcDbCircle
 10
29.25
 20
108.0
 30
0.0
 40
3.2000000000000002
  0
CIRCLE
  5
12B
100
AcDbEntity
  8
Cuts
 62
256
370
-1
 48
1.0
  6
BYLAYER
100
AcDbCircle
 10
41.25
 20
108.0
 30
0.0
 40
3.2000000000000002
  0
LWPOLYLINE
  5
12C
100
AcDbEntity
  8
VectorEngraving
 62
256
370
-1
 48
1.0
  6
BYLAYER
100
AcDbPolyline
 90
12
 70
129
 10
15.8147367434888579
 20
100.0
 10
15.8147367434888579
 20
100.2904253325838511
 10
16.2037193179689041
 20
100.2904253325838511
 10
16.2037193179689041
 20
101.6968334270189303
 10
15.8368465430016929
 20
101.6968334270189303
 10
15.8368465430016929
 20
101.9872587596027671
 10
16.9340921866217045
 20
101.9872587596027671
 10
16.9340921866217045
 20
101.6968334270189303
 10
16.5451096121416583
 20
101.6968334270189303
 10
16.5451096121416583
 20
100.2904253325838511
 10
16.9502061083005486
 20
100.2904253325838511
 10
16.9502061083005486
 20
100.0
  0
LWPOLYLINE
  5
12D
100
AcDbEntity
  8
VectorEngraving
 62
256
370
-1
 48
1.0
  6
BYLAYER
100
AcDbPolyline
 90
13
 70
129
 10
17.3039629005059084
 20
101.9872587596027671
 10
17.6802042345887287
 20
101.9872587596027671
 10
18.3532415214540059
 20
100.6794079070638901
 10
18.3341296608581672
 20
101.9872587596027671
 10
18.6852632565111563
 20
101.9872587596027671
 10
18.6852632565111563
 20
101.9584035975266971
 42
0.1276856979477792
 10
18.6642776840921947
 20
101.9153082255948988
 42
0.0454369266294602
 10
18.6594060333520773
 20
101.8403597526700395
 10
18.6594060333520773
 20
100.0
 10
18.3247611017425598
 20
100.0
 10
17.6292392729998184
 20
101.3940415964024737
 10
17.6292392729998184
 20
100.0
 10
17.3039629005059084
 20
100.0
  0
LWPOLYLINE
  5
12E
100
AcDbEntity
  8
VectorEngraving
 62
256
370
-1
 48
1.0
  6
BYLAYER
100
AcDbPolyline
 90
26
 70
129
 10
26.1518175004684288
 20
99.9745175192055484
 42
-0.1371812061519588
 10
25.7545905939666468
 20
100.0815064643057895
 42
-0.15213357739264
 10
25.4675379426644177
 20
100.414839797639118
 42
-0.1095731750364563
 10
25.3607363687464868
 20
100.9923177815252018
 42
-0.0854969824068648
 10
25.432499531572045
 20
101.4851039910061843
 42
-0.1105493068352896
 10
25.6223065392542608
 20
101.8025107738429824
 42
-0.1092743849584761
 10
25.8821903691212292
 20
101.9730185497470387
 42
-0.0894144458589096
 10
26.1645587408656546
 20
102.0254824807944516
 42
-0.1442794725259087
 10
26.548857035787897
 20
101.923552557616631
 42
-0.150150209901824
 10
26.7930016863406415
 20
101.6364999063143983
 10
26.5662825557429265
 20
101.4674910998688375
 10
26.5408000749484714
 20
101.4513771781899862
 10
26.5250608956342511
 20
101.4768596589844378
 42
0.1140804318626088
 10
26.5201892448941337
 20
101.5233277121978546
 42
0.0461095061683176
 10
26.4868371744425701
 20
101.5919055649241045
 42
0.1205634682736916
 10
26.3414371369683344
 20
101.7050777590406483
 42
0.0973965581777409
 10
26.1836706014614933
 20
101.735431890575228
 42
0.1710454528741133
 10
25.9554525014052828
 20
101.652426456810943
 42
0.132489401012444
 10
25.7832583848604102
 20
101.4084691774405087
 42
0.0957756120555091
 10
25.7178658422334649
 20
101.0080569608394114
 42
0.1424637919354493
 10
25.8439666479295482
 20
100.4674910998688375
 42
0.2705536969347889
 10
26.1611860595840362
 20
100.2713134719880088
 42
0.1360351973349678
 10
26.3654206483042906
 20
100.322278433576912
 42
0.1254759824622752
 10
26.5216882143526327
 20
100.4912872400224728
 10
26.7705171444631809
 20
100.3065392542626881
 42
-0.1424969433067557
 10
26.5074480044969079
 20
100.0494659921304077
 42
-0.1161683907371217
  0
LWPOLYLINE
  5
12F
100
AcDbEntity
  8
VectorEngraving
 62
256
370
-1
 48
1.0
  6
BYLAYER
100
AcDbPolyline
 90
7
 70
129
 10
27.5454843545062786
 20
100.0033726812816184
 10
26.9072981075510569
 20
101.9970020610829948
 10
27.2648023234026624
 20
101.9970020610829948
 10
27.6826400599587785
 20
100.5999625257635302
 10
28.0716226344388247
 20
101.9970020610829948
 10
28.4193835488101918
 20
101.9970020610829948
 10
27.7875679220535901
 20
100.0033726812816184
  0
LWPOLYLINE
  5
130
100
AcDbEntity
  8
VectorEngraving
 62
256
370
-1
 48
1.0
  6
BYLAYER
100
AcDbPolyline
 90
12
 70
129
 10
30.2687371182312148
 20
100.0097433014802277
 10
30.2687371182312148
 20
100.3001686340640788
 10
30.657719692711261
 20
100.3001686340640788
 10
30.657719692711261
 20
101.706576728499158
 10
30.2908469177440516
 20
101.706576728499158
 10
30.2908469177440516
 20
101.9970020610829948
 10
31.3880925613640613
 20
101.9970020610829948
 10
31.3880925613640613
 20
101.706576728499158
 10
30.9991099868840152
 20
101.706576728499158
 10
30.9991099868840152
 20
100.3001686340640788
 10
31.4042064830429091
 20
100.3001686340640788
 10
31.4042064830429091
 20
100.0097433014802277
  0
LWPOLYLINE
  5
131
100
AcDbEntity
  8
VectorEngraving
 62
256
370
-1
 48
1.0
  6
BYLAYER
100
AcDbPolyline
 90
13
 70
129
 10
31.7579632752482652
 20
101.9970020610829948
 10
32.1342046093310856
 20
101.9970020610829948
 10
32.8072418961963663
 20
100.6891512085441178
 10
32.7881300356005241
 20
101.9970020610829948
 10
33.1392636312535132
 20
101.9970020610829948
 10
33.1392636312535132
 20
101.9681468990069249
 42
0.1276856979478148
 10
33.118278058834548
 20
101.9250515270751265
 42
0.0454369266293926
 10
33.1134064080944341
 20
101.8501030541502672
 10
33.1134064080944341
 20
100.0097433014802277
 10
32.7787614764849167
 20
100.0097433014802277
 10
32.0832396477421753
 20
101.4037848978827014
 10
32.0832396477421753
 20
100.0097433014802277
 10
31.7579632752482652
 20
100.0097433014802277
  0
LWPOLYLINE
  5
132
100
AcDbEntity
  8
VectorEngraving
 62
256
370
-1
 48
1.0
  6
BYLAYER
100
AcDbPolyline
 90
8
 70
129
 10
39.669711448379239
 20
99.974704890387855
 42
-0.259130387911054
 10
39.114718006370623
 20
100.2426456810942454
 42
-0.1527047570207503
 10
38.9265973393292128
 20
101.0048716507401139
 42
-0.15205520013941
 10
39.114718006370623
 20
101.7575416900880612
 42
-0.2609893822229528
 10
39.669711448379239
 20
102.0286677908937634
 42
-0.2598887638008017
 10
40.2200206108300549
 20
101.7575416900880612
 42
-0.1532357876440831
 10
40.4098276185122742
 20
101.0048716507401139
 42
-0.1538924925182001
 10
40.2200206108300549
 20
100.2426456810942454
 42
-0.2580459804199817
  0
LWPOLYLINE
  5
133
100
AcDbEntity
  8
VectorEngraving
 62
256
370
-1
 48
1.0
  6
BYLAYER
100
AcDbPolyline
 90
8
 70
129
 10
39.669711448379239
 20
100.268128161888697
 42
0.2924199676809657
 10
39.9503934794828552
 20
100.4515645493723071
 42
0.1214329083418224
 10
40.0523234026606687
 20
101.0082443320217322
 42
0.1202673064395385
 10
39.9503934794828552
 20
101.545437511710702
 42
0.2966022124946824
 10
39.669711448379239
 20
101.7352445193929213
 42
0.2995688277753757
 10
39.3841577665355089
 20
101.545437511710702
 42
0.1186384765761902
 10
39.2837268128161909
 20
101.0082443320217322
 42
0.1197837217357293
 10
39.3841577665355089
 20
100.4515645493723071
 42
0.2952609534183118
  0
LWPOLYLINE
  5
134
100
AcDbEntity
  8
VectorEngraving
 62
256
370
-1
 48
1.0
  6
BYLAYER
100
AcDbPolyline
 90
17
 70
129
 10
41.2578695896571119
 20
99.9713322091062366
 42
-0.2187932598690518
 10
40.7521547685965899
 20
100.1660108675285699
 42
-0.1902783405959899
 10
40.5750890013115963
 20
100.7084504403222809
 10
40.5750890013115963
 20
102.0001873711823066
 10
40.9610736368746515
 20
102.0001873711823066
 10
40.9610736368746515
 20
101.9713322091062366
 42
0.1246165463762663
 10
40.9404628068203138
 20
101.9282368371744383
 42
0.0454369266294939
 10
40.9355911560801928
 20
101.853288364249579
 10
40.9355911560801928
 20
100.7050777590406625
 42
0.1333400107447686
 10
41.005855349447252
 20
100.3827993254637505
 42
0.2785909262070562
 10
41.2608675285741029
 20
100.2647554806070787
 42
0.2726441709264696
 10
41.5194397601648859
 20
100.3827993254637505
 42
0.1376862884249007
 10
41.5928892636312497
 20
100.7148210605208902
 10
41.5928892636312497
 20
102.0001873711823066
 10
41.9436481169196185
 20
102.0001873711823066
 10
41.9436481169196185
 20
100.7178189994378812
 42
-0.2083302145650265
 10
41.7523421397789036
 20
100.1532696271313512
 42
-0.1989968553204139
  0
LWPOLYLINE
  5
135
100
AcDbEntity
  8
VectorEngraving
 62
256
370
-1
 48
1.0
  6
BYLAYER
100
AcDbPolyline
 90
8
 70
129
 10
42.664277684092184
 20
100.0129286115795395
 10
42.664277684092184
 20
101.6970207982012369
 10
42.1283961026794103
 20
101.6970207982012369
 10
42.1283961026794103
 20
102.0001873711823066
 10
43.5734026606707872
 20
102.0001873711823066
 10
43.5734026606707872
 20
101.6970207982012369
 10
43.0086659171819363
 20
101.6970207982012369
 10
43.0086659171819363
 20
100.0129286115795395
  0
LWPOLYLINE
  5
136
100
AcDbEntity
  8
VectorEngraving
 62
256
370
-1
 48
1.0
  6
BYLAYER
100
AcDbPolyline
 90
8
 70
129
 10
15.2779183061645227
 20
83.9713322091062082
 42
-0.2591303879110547
 10
14.7229248641559032
 20
84.2392729998126129
 42
-0.1527047570207368
 10
14.5348041971144948
 20
85.0014989694584813
 42
-0.1520552001393968
 10
14.7229248641559032
 20
85.7541690088064286
 42
-0.2609893822229527
 10
15.2779183061645227
 20
86.0252951096121308
 42
-0.2598887638007974
 10
15.8282274686153386
 20
85.7541690088064286
 42
-0.1532357876440872
 10
16.0180344762975579
 20
85.0014989694584813
 42
-0.1538924925182031
 10
15.8282274686153386
 20
84.2392729998126129
 42
-0.2580459804199791
  0
LWPOLYLINE
  5
137
100
AcDbEntity
  8
VectorEngraving
 62
256
370
-1
 48
1.0
  6
BYLAYER
100
AcDbPolyline
 90
8
 70
129
 10
15.2779183061645227
 20
84.2647554806070644
 42
0.2924199676809794
 10
15.558600337268139
 20
84.4481918680906745
 42
0.1214329083418519
 10
15.6605302604459542
 20
85.0048716507400997
 42
0.1202673064395606
 10
15.558600337268139
 20
85.5420648304290694
 42
0.2966022124946852
 10
15.2779183061645227
 20
85.7318718381112888
 42
0.2995688277753735
 10
14.9923646243207909
 20
85.5420648304290694
 42
0.118638476576194
 10
14.8919336706014729
 20
85.0048716507400997
 42
0.1197837217357297
 10
14.9923646243207909
 20
84.4481918680906745
 42
0.2952609534183293
  0
LWPOLYLINE
  5
138
100
AcDbEntity
  8
VectorEngraving
 62
256
370
-1
 48
1.0
  6
BYLAYER
100
AcDbPolyline
 90
10
 70
129
 10
16.2792299044407081
 20
84.0095559302979069
 10
16.2792299044407081
 20
85.996814689900674
 10
17.5166291924302158
 20
85.996814689900674
 10
17.5166291924302158
 20
85.7063893573168372
 10
16.6011335956529997
 20
85.7063893573168372
 10
16.6011335956529997
 20
85.2248454187745779
 10
17.3446224470676533
 20
85.2248454187745779
 10
17.3446224470676533
 20
84.9344200861907268
 10
16.6011335956529997
 20
84.9344200861907268
 10
16.6011335956529997
 20
84.0095559302979069
  0
LWPOLYLINE
  5
139
100
AcDbEntity
  8
VectorEngraving
 62
256
370
-1
 48
1.0
  6
BYLAYER
100
AcDbPolyline
 90
10
 70
129
 10
17.8737586659171939
 20
84.0095559302979069
 10
17.8737586659171939
 20
85.996814689900674
 10
19.111157953906698
 20
85.996814689900674
 10
19.111157953906698
 20
85.7063893573168372
 10
18.1956623571294855
 20
85.7063893573168372
 10
18.1956623571294855
 20
85.2248454187745779
 10
18.9391512085441356
 20
85.2248454187745779
 10
18.9391512085441356
 20
84.9344200861907268
 10
18.1956623571294855
 20
84.9344200861907268
 10
18.1956623571294855
 20
84.0095559302979069
  0
LWPOLYLINE
  5
13A
100
AcDbEntity
  8
VectorEngraving
 62
256
370
-1
 48
1.0
  6
BYLAYER
100
AcDbPolyline
 90
39
 70
129
 10
20.0296514896009086
 20
83.9743301480232276
 42
-0.0824589363782455
 10
19.6579070638935853
 20
84.0333520704515564
 42
-0.1239231858747073
 10
19.3693554431328572
 20
84.2137905190181613
 10
19.544734869777038
 20
84.5102117294359942
 10
19.5574761101742673
 20
84.53569421023046
 10
19.5863312722503409
 20
84.5199550309162362
 42
0.0468697015841334
 10
19.6037567922053704
 20
84.4704890387858143
 42
0.0914502355628943
 10
19.6530354131534679
 20
84.4112797451751788
 42
0.0681594634042029
 10
19.8301011804384615
 20
84.3125351320966701
 42
0.0950027158645549
 10
20.0423927299981379
 20
84.274124039722679
 42
0.1544690761801004
 10
20.2863500093685687
 20
84.3395165823496171
 42
0.2606540762175956
 10
20.3804103428892738
 20
84.5326962713134549
 42
0.1208512743438385
 10
20.351742551995514
 20
84.6522390856286222
 42
0.121961345431857
 10
20.2385703578789702
 20
84.765411279745166
 42
0.0382540592904423
 10
19.9880550871276128
 20
84.8995690462806749
 42
-0.0581074828848471
 10
19.6642776840921982
 20
85.0796327524826523
 42
-0.120042775226765
 10
19.4937699081881313
 20
85.2774967210042973
 42
-0.1126833292539593
 10
19.4428049465992245
 20
85.5182686902754199
 42
-0.159231292867158
 10
19.5241240397227003
 20
85.779838860783201
 42
-0.1317713073949033
 10
19.7489694584972924
 20
85.9615889076259947
 42
-0.1105525077854739
 10
20.0776185122728243
 20
86.0286677908937492
 42
-0.2184592046669914
 10
20.6802042345887322
 20
85.7734682405845916
 10
20.469599025669865
 20
85.5310099306726528
 10
20.4504871650740228
 20
85.5089001311598196
 10
20.4250046842795676
 20
85.5280119917556476
 42
0.0525272950835499
 10
20.413949784523151
 20
85.5772906127037487
 42
0.0946983163545155
 10
20.3710417837736664
 20
85.6393104740490827
 42
0.1239145974077463
 10
20.2417556679782749
 20
85.7161326587970649
 42
0.0674802657518879
 10
20.0806164511898189
 20
85.7352445193929071
 42
0.1710695699774063
 10
19.8731965523702563
 20
85.674536256323762
 42
0.2395241755844651
 10
19.7965617388045843
 20
85.5343826119542712
 42
0.1315107380141031
 10
19.8254169008806542
 20
85.4193367060146045
 42
0.1136957301832026
 10
19.9419617762788199
 20
85.3110361626381746
 42
0.0383547771665589
 10
20.2114015364437059
 20
85.1738804571856747
 42
-0.0534254991441488
 10
20.5271219786396983
 20
84.9936293798013764
 42
-0.1275968227177304
 10
20.6882611954281543
 20
84.8006370620198453
 42
-0.104236690107415
 10
20.7345418774592574
 20
84.5551808131909155
 42
-0.1279801959423952
 10
20.66109237399289
 20
84.2773093498219907
 42
-0.1467899336018416
 10
20.4313753044781805
 20
84.058834551246008
 42
-0.1239665239214241
  0
LWPOLYLINE
  5
13B
100
AcDbEntity
  8
VectorEngraving
 62
256
370
-1
 48
1.0
  6
BYLAYER
100
AcDbPolyline
 90
12
 70
129
 10
21.0148491661982497
 20
84.0095559302979069
 10
21.0148491661982497
 20
85.996814689900674
 10
22.3099587783399009
 20
85.996814689900674
 10
22.3099587783399009
 20
85.703391418399832
 10
21.3656080194866149
 20
85.703391418399832
 10
21.3656080194866149
 20
85.1929923177815169
 10
22.140949971894333
 20
85.1929923177815169
 10
22.140949971894333
 20
84.8961963649990565
 10
21.3656080194866149
 20
84.8961963649990565
 10
21.3656080194866149
 20
84.3029792017987489
 10
22.3002154768596696
 20
84.3029792017987489
 10
22.3002154768596696
 20
84.0095559302979069
  0
LWPOLYLINE
  5
13C
100
AcDbEntity
  8
VectorEngraving
 62
256
370
-1
 48
1.0
  6
BYLAYER
100
AcDbPolyline
 90
8
 70
129
 10
23.0560708263069252
 20
84.0095559302979069
 10
23.0560708263069252
 20
85.6936481169196043
 10
22.5201892448941479
 20
85.6936481169196043
 10
22.5201892448941479
 20
85.996814689900674
 10
23.9651958028855248
 20
85.996814689900674
 10
23.9651958028855248
 20
85.6936481169196043
 10
23.4004590593966739
 20
85.6936481169196043
 10
23.4004590593966739
 20
84.0095559302979069
  0
LWPOLYLINE
  5
13D
100
AcDbEntity
  8
VectorEngraving
 62
256
370
-1
 48
1.0
  6
BYLAYER
100
AcDbPolyline
 90
8
 70
129
 10
15.2779183061645085
 20
32.9713322091062508
 42
-0.2591303879110575
 10
14.722924864155889
 20
33.2392729998126342
 42
-0.1527047570207445
 10
14.5348041971144806
 20
34.0014989694585026
 42
-0.1520552001393928
 10
14.722924864155889
 20
34.754169008806457
 42
-0.2609893822229646
 10
15.2779183061645085
 20
35.0252951096121521
 42
-0.2598887638008225
 10
15.8282274686153244
 20
34.754169008806457
 42
-0.1532357876440727
 10
16.0180344762975437
 20
34.0014989694585026
 42
-0.1538924925182133
 10
15.8282274686153244
 20
33.2392729998126342
 42
-0.258045980419984
  0
LWPOLYLINE
  5
13E
100
AcDbEntity
  8
VectorEngraving
 62
256
370
-1
 48
1.0
  6
BYLAYER
100
AcDbPolyline
 90
8
 70
129
 10
15.2779183061645085
 20
33.2647554806070858
 42
0.2924199676809404
 10
15.5586003372681247
 20
33.4481918680906958
 42
0.1214329083418532
 10
15.66053026044594
 20
34.004871650740121
 42
0.1202673064395552
 10
15.5586003372681247
 20
34.5420648304290907
 42
0.2966022124947473
 10
15.2779183061645085
 20
34.731871838111303
 42
0.29956882777545
 10
14.9923646243207767
 20
34.5420648304290907
 42
0.1186384765761846
 10
14.8919336706014587
 20
34.004871650740121
 42
0.1197837217357354
 10
14.9923646243207767
 20
33.4481918680906958
 42
0.2952609534182749
  0
LWPOLYLINE
  5
13F
100
AcDbEntity
  8
VectorEngraving
 62
256
370
-1
 48
1.0
  6
BYLAYER
100
AcDbPolyline
 90
10
 70
129
 10
16.2792299044406938
 20
33.0095559302979282
 10
16.2792299044406938
 20
34.9968146899007024
 10
17.5166291924302016
 20
34.9968146899007024
 10
17.5166291924302016
 20
34.7063893573168514
 10
16.6011335956529855
 20
34.7063893573168514
 10
16.6011335956529855
 20
34.2248454187745992
 10
17.3446224470676391
 20
34.2248454187745992
 10
17.3446224470676391
 20
33.9344200861907552
 10
16.6011335956529855
 20
33.9344200861907552
 10
16.6011335956529855
 20
33.0095559302979282
  0
LWPOLYLINE
  5
140
100
AcDbEntity
  8
VectorEngraving
 62
256
370
-1
 48
1.0
  6
BYLAYER
100
AcDbPolyline
 90
10
 70
129
 10
17.8737586659171797
 20
33.0095559302979282
 10
17.8737586659171797
 20
34.9968146899007024
 10
19.1111579539066838
 20
34.9968146899007024
 10
19.1111579539066838
 20
34.7063893573168514
 10
18.1956623571294713
 20
34.7063893573168514
 10
18.1956623571294713
 20
34.2248454187745992
 10
18.9391512085441214
 20
34.2248454187745992
 10
18.9391512085441214
 20
33.9344200861907552
 10
18.1956623571294713
 20
33.9344200861907552
 10
18.1956623571294713
 20
33.0095559302979282
  0
LWPOLYLINE
  5
141
100
AcDbEntity
  8
VectorEngraving
 62
256
370
-1
 48
1.0
  6
BYLAYER
100
AcDbPolyline
 90
39
 70
129
 10
20.0296514896008944
 20
32.9743301480232418
 42
-0.0824589363782075
 10
19.6579070638935711
 20
33.0333520704515706
 42
-0.1239231858746613
 10
19.369355443132843
 20
33.2137905190181826
 10
19.5447348697770238
 20
33.5102117294360227
 10
19.5574761101742531
 20
33.5356942102304743
 10
19.5863312722503267
 20
33.5199550309162504
 42
0.0468697015840577
 10
19.6037567922053562
 20
33.4704890387858427
 42
0.0914502355628236
 10
19.6530354131534537
 20
33.4112797451752002
 42
0.0681594634041969
 10
19.8301011804384473
 20
33.3125351320966914
 42
0.0950027158644881
 10
20.0423927299981237
 20
33.2741240397227003
 42
0.1544690761801964
 10
20.2863500093685545
 20
33.3395165823496455
 42
0.2606540762175918
 10
20.3804103428892596
 20
33.5326962713134833
 42
0.1208512743438533
 10
20.3517425519954998
 20
33.6522390856286364
 42
0.1219613454318505
 10
20.238570357878956
 20
33.7654112797451802
 42
0.0382540592904415
 10
19.9880550871275986
 20
33.8995690462806891
 42
-0.0581074828848663
 10
19.664277684092184
 20
34.0796327524826737
 42
-0.1200427752267312
 10
19.4937699081881171
 20
34.2774967210043187
 42
-0.1126833292539438
 10
19.4428049465992103
 20
34.5182686902754412
 42
-0.1592312928671453
 10
19.5241240397226861
 20
34.7798388607832223
 42
-0.1317713073948477
 10
19.7489694584972781
 20
34.961588907626016
 42
-0.1105525077854759
 10
20.0776185122728101
 20
35.0286677908937705
 42
-0.2184592046670084
 10
20.680204234588718
 20
34.7734682405846058
 10
20.4695990256698508
 20
34.5310099306726741
 10
20.4504871650740085
 20
34.5089001311598338
 10
20.4250046842795534
 20
34.528011991755676
 42
0.0525272950835505
 10
20.4139497845231368
 20
34.5772906127037771
 42
0.094698316354626
 10
20.3710417837736522
 20
34.6393104740490969
 42
0.1239145974077901
 10
20.2417556679782606
 20
34.7161326587970862
 42
0.0674802657518838
 10
20.0806164511898046
 20
34.7352445193929285
 42
0.1710695699774648
 10
19.8731965523702421
 20
34.6745362563237833
 42
0.2395241755844176
 10
19.79656173880457
 20
34.5343826119542925
 42
0.1315107380140824
 10
19.82541690088064
 20
34.4193367060146258
 42
0.1136957301831744
 10
19.9419617762788057
 20
34.3110361626381959
 42
0.0383547771665146
 10
20.2114015364436916
 20
34.173880457185696
 42
-0.0534254991441524
 10
20.5271219786396841
 20
33.9936293798013978
 42
-0.1275968227177649
 10
20.6882611954281401
 20
33.8006370620198666
 42
-0.1042366901074379
 10
20.7345418774592432
 20
33.5551808131909368
 42
-0.1279801959423771
 10
20.6610923739928758
 20
33.2773093498220049
 42
-0.1467899336018317
 10
20.4313753044781663
 20
33.0588345512460293
 42
-0.1239665239214024
  0
LWPOLYLINE
  5
142
100
AcDbEntity
  8
VectorEngraving
 62
256
370
-1
 48
1.0
  6
BYLAYER
100
AcDbPolyline
 90
12
 70
129
 10
21.0148491661982355
 20
33.0095559302979282
 10
21.0148491661982355
 20
34.9968146899007024
 10
22.3099587783398867
 20
34.9968146899007024
 10
22.3099587783398867
 20
34.7033914183998604
 10
21.3656080194866007
 20
34.7033914183998604
 10
21.3656080194866007
 20
34.1929923177815311
 10
22.1409499718943188
 20
34.1929923177815311
 10
22.1409499718943188
 20
33.8961963649990707
 10
21.3656080194866007
 20
33.8961963649990707
 10
21.3656080194866007
 20
33.3029792017987702
 10
22.3002154768596554
 20
33.3029792017987702
 10
22.3002154768596554
 20
33.0095559302979282
  0
LWPOLYLINE
  5
143
100
AcDbEntity
  8
VectorEngraving
 62
256
370
-1
 48
1.0
  6
BYLAYER
100
AcDbPolyline
 90
8
 70
129
 10
23.056070826306911
 20
33.0095559302979282
 10
23.056070826306911
 20
34.6936481169196256
 10
22.5201892448941337
 20
34.6936481169196256
 10
22.5201892448941337
 20
34.9968146899007024
 10
23.9651958028855105
 20
34.9968146899007024
 10
23.9651958028855105
 20
34.6936481169196256
 10
23.4004590593966597
 20
34.6936481169196256
 10
23.4004590593966597
 20
33.0095559302979282
  0
LWPOLYLINE
  5
144
100
AcDbEntity
  8
VectorEngraving
 62
256
370
-1
 48
1.0
  6
BYLAYER
100
AcDbPolyline
 90
12
 70
129
 10
15.8147367434888508
 20
16.0
 10
15.8147367434888508
 20
16.2904253325838475
 10
16.203719317968897
 20
16.2904253325838475
 10
16.203719317968897
 20
17.6968334270189231
 10
15.8368465430016858
 20
17.6968334270189231
 10
15.8368465430016858
 20
17.9872587596027742
 10
16.9340921866216974
 20
17.9872587596027742
 10
16.9340921866216974
 20
17.6968334270189231
 10
16.5451096121416512
 20
17.6968334270189231
 10
16.5451096121416512
 20
16.2904253325838475
 10
16.9502061083005415
 20
16.2904253325838475
 10
16.9502061083005415
 20
16.0
  0
LWPOLYLINE
  5
145
100
AcDbEntity
  8
VectorEngraving
 62
256
370
-1
 48
1.0
  6
BYLAYER
100
AcDbPolyline
 90
13
 70
129
 10
17.3039629005059012
 20
17.9872587596027742
 10
17.6802042345887216
 20
17.9872587596027742
 10
18.3532415214539988
 20
16.6794079070638936
 10
18.3341296608581601
 20
17.9872587596027742
 10
18.6852632565111492
 20
17.9872587596027742
 10
18.6852632565111492
 20
17.9584035975267007
 42
0.1276856979478643
 10
18.6642776840921876
 20
17.9153082255949023
 42
0.0454369266294439
 10
18.6594060333520702
 20
17.8403597526700395
 10
18.6594060333520702
 20
16.0
 10
18.3247611017425527
 20
16.0
 10
17.6292392729998113
 20
17.3940415964024737
 10
17.6292392729998113
 20
16.0
 10
17.3039629005059012
 20
16.0
  0
LWPOLYLINE
  5
146
100
AcDbEntity
  8
VectorEngraving
 62
256
370
-1
 48
1.0
  6
BYLAYER
100
AcDbPolyline
 90
26
 70
129
 10
26.1518175004684323
 20
15.9745175192055413
 42
-0.1371812061519283
 10
25.7545905939666504
 20
16.0815064643057859
 42
-0.1521335773926578
 10
25.4675379426644213
 20
16.414839797639118
 42
-0.109573175036429
 10
25.3607363687464904
 20
16.9923177815251982
 42
-0.0854969824068468
 10
25.4324995315720486
 20
17.4851039910061772
 42
-0.1105493068353021
 10
25.6223065392542679
 20
17.8025107738429789
 42
-0.1092743849584515
 10
25.8821903691212327
 20
17.9730185497470458
 42
-0.0894144458589461
 10
26.1645587408656581
 20
18.025482480794448
 42
-0.1442794725258777
 10
26.5488570357879006
 20
17.9235525576166346
 42
-0.1501502099017799
 10
26.7930016863406451
 20
17.6364999063144055
 10
26.5662825557429301
 20
17.467491099868834
 10
26.5408000749484785
 20
17.4513771781899898
 10
26.5250608956342546
 20
17.4768596589844449
 42
0.1140804318626054
 10
26.5201892448941408
 20
17.5233277121978581
 42
0.046109506168201
 10
26.4868371744425737
 20
17.5919055649241116
 42
0.1205634682736449
 10
26.341437136968338
 20
17.7050777590406554
 42
0.0973965581775403
 10
26.1836706014615004
 20
17.7354318905752244
 42
0.1710454528741449
 10
25.9554525014052864
 20
17.6524264568109395
 42
0.132489401012477
 10
25.7832583848604102
 20
17.4084691774405051
 42
0.095775612055514
 10
25.7178658422334685
 20
17.0080569608394221
 42
0.1424637919354504
 10
25.8439666479295518
 20
16.4674910998688375
 42
0.2705536969347364
 10
26.1611860595840398
 20
16.2713134719880053
 42
0.1360351973350067
 10
26.3654206483042941
 20
16.322278433576912
 42
0.1254759824622856
 10
26.5216882143526362
 20
16.4912872400224799
 10
26.7705171444631844
 20
16.3065392542626881
 42
-0.1424969433067677
 10
26.5074480044969114
 20
16.0494659921304077
 42
-0.1161683907371211
  0
LWPOLYLINE
  5
147
100
AcDbEntity
  8
VectorEngraving
 62
256
370
-1
 48
1.0
  6
BYLAYER
100
AcDbPolyline
 90
7
 70
129
 10
27.5454843545062786
 20
16.0033726812816148
 10
26.907298107551064
 20
17.9970020610830019
 10
27.2648023234026624
 20
17.9970020610830019
 10
27.6826400599587821
 20
16.5999625257635337
 10
28.0716226344388282
 20
17.9970020610830019
 10
28.4193835488101954
 20
17.9970020610830019
 10
27.7875679220535901
 20
16.0033726812816148
  0
LWPOLYLINE
  5
148
100
AcDbEntity
  8
VectorEngraving
 62
256
370
-1
 48
1.0
  6
BYLAYER
100
AcDbPolyline
 90
12
 70
129
 10
30.2687371182312184
 20
16.0097433014802277
 10
30.2687371182312184
 20
16.3001686340640752
 10
30.6577196927112645
 20
16.3001686340640752
 10
30.6577196927112645
 20
17.7065767284991509
 10
30.2908469177440551
 20
17.7065767284991509
 10
30.2908469177440551
 20
17.9970020610830019
 10
31.3880925613640649
 20
17.9970020610830019
 10
31.3880925613640649
 20
17.7065767284991509
 10
30.9991099868840223
 20
17.7065767284991509
 10
30.9991099868840223
 20
16.3001686340640752
 10
31.4042064830429126
 20
16.3001686340640752
 10
31.4042064830429126
 20
16.0097433014802277
  0
LWPOLYLINE
  5
149
100
AcDbEntity
  8
VectorEngraving
 62
256
370
-1
 48
1.0
  6
BYLAYER
100
AcDbPolyline
 90
13
 70
129
 10
31.7579632752482723
 20
17.9970020610830019
 10
32.1342046093310856
 20
17.9970020610830019
 10
32.8072418961963663
 20
16.6891512085441214
 10
32.7881300356005312
 20
17.9970020610830019
 10
33.1392636312535132
 20
17.9970020610830019
 10
33.1392636312535132
 20
17.9681468990069284
 42
0.1276856979479112
 10
33.1182780588345551
 20
17.9250515270751301
 42
0.0454369266293903
 10
33.1134064080944412
 20
17.8501030541502672
 10
33.1134064080944412
 20
16.0097433014802277
 10
32.7787614764849167
 20
16.0097433014802277
 10
32.0832396477421824
 20
17.4037848978827014
 10
32.0832396477421824
 20
16.0097433014802277
 10
31.7579632752482723
 20
16.0097433014802277
  0
LWPOLYLINE
  5
14A
100
AcDbEntity
  8
VectorEngraving
 62
256
370
-1
 48
1.0
  6
BYLAYER
100
AcDbPolyline
 90
8
 70
129
 10
39.669711448379239
 20
15.9747048903878586
 42
-0.259130387911063
 10
39.114718006370623
 20
16.2426456810942419
 42
-0.1527047570207509
 10
38.9265973393292128
 20
17.0048716507401103
 42
-0.1520552001394024
 10
39.114718006370623
 20
17.7575416900880576
 42
-0.2609893822229556
 10
39.669711448379239
 20
18.0286677908937527
 42
-0.2598887638008149
 10
40.2200206108300549
 20
17.7575416900880576
 42
-0.1532357876440779
 10
40.4098276185122742
 20
17.0048716507401103
 42
-0.1538924925182096
 10
40.2200206108300549
 20
16.2426456810942419
 42
-0.2580459804199923
  0
LWPOLYLINE
  5
14B
100
AcDbEntity
  8
VectorEngraving
 62
256
370
-1
 48
1.0
  6
BYLAYER
100
AcDbPolyline
 90
8
 70
129
 10
39.669711448379239
 20
16.2681281618886899
 42
0.2924199676809319
 10
39.9503934794828552
 20
16.4515645493723
 42
0.1214329083418259
 10
40.0523234026606687
 20
17.0082443320217322
 42
0.1202673064395234
 10
39.9503934794828552
 20
17.5454375117106913
 42
0.2966022124947078
 10
39.669711448379239
 20
17.7352445193929107
 42
0.2995688277754286
 10
39.3841577665355089
 20
17.5454375117106913
 42
0.1186384765761702
 10
39.2837268128161909
 20
17.0082443320217287
 42
0.1197837217357241
 10
39.3841577665355089
 20
16.4515645493723
 42
0.2952609534183042
  0
LWPOLYLINE
  5
14C
100
AcDbEntity
  8
VectorEngraving
 62
256
370
-1
 48
1.0
  6
BYLAYER
100
AcDbPolyline
 90
17
 70
129
 10
41.2578695896571119
 20
15.9713322091062313
 42
-0.218793259869095
 10
40.7521547685965899
 20
16.1660108675285663
 42
-0.1902783405960208
 10
40.5750890013115963
 20
16.7084504403222738
 10
40.5750890013115963
 20
18.0001873711823066
 10
40.9610736368746515
 20
18.0001873711823066
 10
40.9610736368746515
 20
17.9713322091062331
 42
0.1246165463758159
 10
40.9404628068203138
 20
17.9282368371744347
 42
0.0454369266295063
 10
40.9355911560801928
 20
17.8532883642495719
 10
40.9355911560801928
 20
16.7050777590406518
 42
0.1333400107447633
 10
41.005855349447252
 20
16.3827993254637363
 42
0.2785909262070341
 10
41.2608675285741029
 20
16.2647554806070751
 42
0.2726441709264356
 10
41.5194397601648859
 20
16.3827993254637363
 42
0.1376862884248864
 10
41.5928892636312497
 20
16.7148210605208867
 10
41.5928892636312497
 20
18.0001873711823066
 10
41.9436481169196185
 20
18.0001873711823066
 10
41.9436481169196185
 20
16.7178189994378812
 42
-0.2083302145650372
 10
41.7523421397789036
 20
16.1532696271313405
 42
-0.1989968553203871
  0
LWPOLYLINE
  5
14D
100
AcDbEntity
  8
VectorEngraving
 62
256
370
-1
 48
1.0
  6
BYLAYER
100
AcDbPolyline
 90
8
 70
129
 10
42.664277684092184
 20
16.0129286115795324
 10
42.664277684092184
 20
17.6970207982012298
 10
42.1283961026794103
 20
17.6970207982012298
 10
42.1283961026794103
 20
18.0001873711823066
 10
43.5734026606707872
 20
18.0001873711823066
 10
43.5734026606707872
 20
17.6970207982012298
 10
43.0086659171819363
 20
17.6970207982012298
 10
43.0086659171819363
 20
16.0129286115795324
  0
LWPOLYLINE
  5
14E
100
AcDbEntity
  8
VectorEngraving
 62
256
370
-1
 48
1.0
  6
BYLAYER
100
AcDbPolyline
 90
268
 70
129
 10
4.7025014052838614
 20
118.0194866029604697
 10
4.7025014052838614
 20
121.9940041221660181
 10
5.9593872962338352
 20
121.9940041221660181
 10
5.9650610497946195
 20
121.9939992560504152
 10
5.9707229325492985
 20
121.9939846577036064
 10
5.9763729444978706
 20
121.9939603271255777
 10
5.9820110856403375
 20
121.9939262643163289
 10
5.9876373559766973
 20
121.9938824692758885
 10
5.993251755506952
 20
121.9938289420042281
 10
5.9988542842311006
 20
121.9937656825013619
 10
6.0044449421491422
 20
121.9936926907672898
 10
6.0100237292610803
 20
121.993609966802012
 10
6.0155906455669115
 20
121.9935175106054999
 10
6.0211456910666348
 20
121.9934153221777962
 10
6.0266888657602538
 20
121.9933034015188866
 10
6.0322201696477675
 20
121.9931817486287713
 10
6.0377396027291743
 20
121.9930503635074217
 10
6.0432471650044741
 20
121.9929092461548663
 10
6.0487428564736687
 20
121.9927583965711051
 10
6.0542266771367608
 20
121.9925978147561381
 10
6.0596986269937423
 20
121.9924275007099652
 10
6.0651587060446195
 20
121.9922474544325723
 10
6.0706069142893897
 20
121.9920576759239879
 10
6.0760432517280556
 20
121.9918581651841691
 10
6.0814677183606145
 20
121.9916489222131588
 10
6.0868803141870682
 20
121.9914299470109285
 10
6.0922810392074149
 20
121.9912012395774781
 10
6.0976698934216556
 20
121.9909627999128219
 10
6.1030468768297919
 20
121.9907146280169741
 10
6.1084119894318221
 20
121.9904567238899062
 10
6.1137652312277453
 20
121.9901890875316184
 10
6.1191066022175624
 20
121.9899117189421389
 10
6.1244361024012726
 20
121.9896246181214394
 10
6.1297537317788802
 20
121.9893277850695199
 10
6.1350594903503799
 20
121.9890212197864088
 10
6.1403533781157726
 20
121.9887049222720634
 10
6.1456353950750611
 20
121.9883788925265264
 10
6.1509055412282425
 20
121.9880431305497837
 10
6.1561638165753179
 20
121.9876976363418208
 10
6.161410221116288
 20
121.9873424099026522
 10
6.166644754851152
 20
121.9869774512322635
 10
6.17186741777991
 20
121.9866027603306691
 10
6.1770782099025627
 20
121.9862183371978688
 10
6.1822771312191076
 20
121.9858241818338627
 10
6.187464181729549
 20
121.9854202942386223
 10
6.1926393614338826
 20
121.9850066744122046
 10
6.1978026703321101
 20
121.9845833223545526
 10
6.2029541084242332
 20
121.984150238065709
 10
6.2080936757102485
 20
121.9837074215456454
 10
6.2132213721901586
 20
121.9832548727943617
 10
6.2183371978639634
 20
121.9827925918118865
 10
6.2234411527316613
 20
121.9823205785982054
 10
6.2285332367932549
 20
121.9818388331532901
 10
6.2336134500487406
 20
121.981347355477169
 10
6.2386817924981219
 20
121.9808461455698421
 10
6.2437382641413963
 20
121.9803352034313093
 10
6.2487828649785646
 20
121.9798145290615565
 10
6.2538155950096268
 20
121.9792841224606121
 10
6.2588364542345847
 20
121.9787439836284477
 10
6.2638454426534338
 20
121.9781941125650775
 10
6.2688425602661777
 20
121.9776345092704872
 10
6.2738278070728182
 20
121.9770651737447054
 10
6.2788011830733499
 20
121.9764861059877035
 10
6.2837626882677773
 20
121.9758973059994673
 10
6.2887123226560986
 20
121.9752987737800254
 10
6.2936500862383129
 20
121.9746905093294203
 10
6.298575979014422
 20
121.9740725126475667
 10
6.303490000984425
 20
121.9734447837344931
 10
6.3083921521483219
 20
121.9728073225902563
 10
6.3132824325061137
 20
121.972160129214771
 10
6.3181608420577984
 20
121.97150320360808
 10
6.3230273808033779
 20
121.9708365457701689
 10
6.3278820487428522
 20
121.9701601557010804
 10
6.3327248458762186
 20
121.9694740334007577
 10
6.3375557722034799
 20
121.9687781788692149
 10
6.342374827724635
 20
121.9680725921064806
 10
6.3471820124396841
 20
121.9673572731125404
 10
6.3519773263486279
 20
121.9666322218873802
 10
6.3567607694514647
 20
121.9658974384310142
 10
6.3615323417481973
 20
121.9651529227434423
 10
6.3662920432388219
 20
121.9643986748246363
 10
6.3710398739233423
 20
121.9636346946746244
 10
6.3757758338017556
 20
121.9628609822934209
 10
6.3804999228740638
 20
121.9620775376810116
 10
6.3852121411402649
 20
121.961284360837368
 10
6.3899124886003609
 20
121.9604814517625471
 10
6.3946009652543507
 20
121.9596688104564919
 10
6.3992775711022354
 20
121.9588464369192309
 10
6.4039423061440122
 20
121.9580143311507783
 10
6.4085951703796837
 20
121.9571724931510914
 10
6.4132361638092501
 20
121.9563209229201846
 10
6.4178652864327113
 20
121.9554596204581003
 10
6.4224825382500637
 20
121.9545885857647818
 10
6.4270879192613135
 20
121.9537078188402575
 10
6.4316814294664546
 20
121.9528173196845273
 10
6.4362630688654914
 20
121.9519170882975914
 10
6.4408328374584212
 20
121.9510071246794354
 10
6.4453907352452458
 20
121.9500874288300736
 10
6.4499367622259642
 20
121.9491580007494917
 10
6.4544709184005766
 20
121.9482188404377041
 10
6.4589932037690829
 20
121.9472699478947391
 10
6.4635036183314822
 20
121.9463113231205114
 10
6.4680021620877781
 20
121.9453429661151063
 10
6.4724888350379661
 20
121.9443648768784669
 10
6.4769636371820489
 20
121.9433770554106218
 10
6.4814265685200247
 20
121.9423795017115992
 10
6.4858776290518954
 20
121.9413722157813424
 10
6.4903168187776608
 20
121.9403551976198798
 10
6.4947441376973192
 20
121.939328447227183
 10
6.4991595858108724
 20
121.9382919646033372
 10
6.5035631631183195
 20
121.9372457497482145
 10
6.5079548696196596
 20
121.9361898026619144
 10
6.5123347053148954
 20
121.9351241233444227
 10
6.5167026702040234
 20
121.9340487117956826
 10
6.5210587642870461
 20
121.9329635680157367
 10
6.5254029875639645
 20
121.9318686920045991
 10
6.5297353400347751
 20
121.9307640837622557
 10
6.5340558216994804
 20
121.9296497432886781
 10
6.5383644325580796
 20
121.9285256705838947
 10
6.5426611726105728
 20
121.9273918656479339
 10
6.5469460418569607
 20
121.9262483284807246
 10
6.5512190402972408
 20
121.9250950590823095
 10
6.5554801679314156
 20
121.9239320574527028
 10
6.5597294247594853
 20
121.9227593235918619
 10
6.5639668107814497
 20
121.9215768574998435
 10
6.5681923259973063
 20
121.920384659176591
 10
6.5724059704070577
 20
121.9191827286221326
 10
6.5766077440107029
 20
121.9179710658364542
 10
6.580797646808243
 20
121.9167496708195984
 10
6.5849756787996769
 20
121.9155185435714941
 10
6.5891418399850039
 20
121.914277684092184
 10
6.5932961303642266
 20
121.9130270923816965
 10
6.5974385499373422
 20
121.9117667684399748
 10
6.6015690987043527
 20
121.9104967122670473
 10
6.6056877766652544
 20
121.9092169238628998
 10
6.6097945838200527
 20
121.9079274032275606
 10
6.6138895201687458
 20
121.9066281503609872
 10
6.6179725857113318
 20
121.9053191652632222
 10
6.6220437804478109
 20
121.9040004479342372
 10
6.6261031043781848
 20
121.9026719983740463
 10
6.6301505575024535
 20
121.9013338165826497
 10
6.6341861398206152
 20
121.8999859025600472
 10
6.6382098513326717
 20
121.8986282563062105
 10
6.6422216920386221
 20
121.8972608778211963
 10
6.6462216619384655
 20
121.895883767104948
 10
6.6502097610322046
 20
121.8944969241574938
 10
6.6541859893198367
 20
121.8931003489788338
 10
6.6581503468013636
 20
121.891694041568968
 10
6.6621028334767836
 20
121.8902780019278822
 10
6.6660434493460983
 20
121.8888522300555621
 10
6.669972194409306
 20
121.8874167259520931
 10
6.6738890686664085
 20
121.8859714896173614
 10
6.6777940721174041
 20
121.8845165210514523
 10
6.6816872047622962
 20
121.8830518202543374
 10
6.6855684666010795
 20
121.881577387225974
 10
6.6894378576337594
 20
121.8800932219664332
 10
6.6932953778603315
 20
121.8785993244756582
 10
6.6971410272807983
 20
121.8770956947536774
 10
6.7009748058951599
 20
121.8755823328004908
 10
6.7047967137034146
 20
121.8740592386160984
 10
6.708606750705564
 20
121.8725264122005001
 10
6.7124049169016065
 20
121.870983853553696
 10
6.7161912122915437
 20
121.8694315626756719
 10
6.719965636875374
 20
121.867869539566442
 10
6.7237281906530999
 20
121.866297784225992
 10
6.7274788736247189
 20
121.8647162966543362
 10
6.7312176857902326
 20
121.8631250768514747
 10
6.7349446271496385
 20
121.8615241248174073
 10
6.7386596977029409
 20
121.859913440552134
 10
6.7423628974501355
 20
121.8582930240556266
 10
6.7460542263912249
 20
121.8566628753279133
 10
6.749733684526209
 20
121.8550229943689942
 10
6.7534012718550853
 20
121.8533733811788693
 10
6.7570569883778573
 20
121.8517140357575386
 10
6.7607008340945232
 20
121.8500449581049878
 10
6.764332809005082
 20
121.848366148221217
 10
6.7679529131095357
 20
121.8466776061062546
 10
6.7715611464078833
 20
121.8449793317600864
 10
6.7751575089001257
 20
121.8432713251826982
 10
6.7787420005862602
 20
121.8415535863740899
 10
6.7823146214662913
 20
121.8398261153342901
 10
6.7858753715402145
 20
121.8380889120632844
 10
6.7894242508080325
 20
121.8363419765610445
 10
6.7929612592697435
 20
121.8345853088276129
 10
6.7964863969253493
 20
121.8328189088629472
 10
6.7999996637748499
 20
121.8310427766670898
 10
6.8035010598182453
 20
121.8292569122400266
 10
6.8069905850555319
 20
121.8274613155817576
 10
6.8104682394867142
 20
121.8256559866922828
 10
6.8139340231117904
 20
121.8238409255715737
 10
6.8173879359307596
 20
121.8220161322196731
 10
6.8208299779436246
 20
121.820181606636524
 10
6.8242601491503825
 20
121.8183373488222117
 10
6.8276784495510343
 20
121.8164833587766651
 10
6.8310848791455818
 20
121.814619636499927
 10
6.8344794379340232
 20
121.8127461819919688
 10
6.8378621259163559
 20
121.8108629952527906
 10
6.8412329430925851
 20
121.8089700762824066
 10
6.8445918894627074
 20
121.8070674250808167
 10
6.8479389650267235
 20
121.8051550416479927
 10
6.8512741697846353
 20
121.8032329259839912
 10
6.8545975037364384
 20
121.8013010780887839
 10
6.8579089668821371
 20
121.7993594979623566
 10
6.8612085592217307
 20
121.7974081856046951
 10
6.8644962807552172
 20
121.7954471410158561
 10
6.8677721314825977
 20
121.7934763641957687
 10
6.871036111403872
 20
121.7914958551445324
 10
6.8742882205190412
 20
121.7895056138620333
 10
6.8775284588281043
 20
121.7875056403483285
 10
6.8807568263310621
 20
121.7854959346034462
 10
6.8839733230279121
 20
121.7834764966273156
 10
6.8871779489186578
 20
121.7814473264199933
 10
6.8903707040032964
 20
121.7794084239814651
 10
6.893551588281829
 20
121.7773597893117312
 10
6.8967206017542573
 20
121.7753014224107773
 10
6.8998777444205777
 20
121.7732333232786033
 10
6.9030230162807928
 20
121.7711554919152377
 10
6.9061564173349028
 20
121.7690679283206521
 10
6.9092779475829058
 20
121.7669706324948464
 10
6.9123876070248036
 20
121.7648636044378634
 10
6.9154853956605944
 20
121.7627468441496461
 10
6.9185713134902809
 20
121.7606203516302088
 10
6.9216453605138604
 20
121.7584841268795799
 10
6.9247075367313338
 20
121.7563381698977452
 10
6.9277578421427002
 20
121.7541824806846904
 10
6.9307962767479632
 20
121.7520170592403872
 10
6.9338228405471174
 20
121.7498419055649492
 10
6.9368375335401673
 20
121.7476570196582486
 10
6.9398403557271111
 20
121.7454624015203706
 10
6.9428313071079497
 20
121.7432580511512583
 10
6.9458103876826804
 20
121.7410439685509402
 10
6.9487775974513069
 20
121.7388201537194021
 10
6.9517329364138272
 20
121.7365866066566582
 10
6.9546764045702414
 20
121.7343433273627227
 10
6.9576080019205486
 20
121.7320903158375529
 10
6.9605277284647507
 20
121.7298275720811773
 10
6.9634355842028466
 20
121.7275550960936101
 10
6.9663315691348364
 20
121.7252728878748371
 10
6.9692156832607211
 20
121.7229809474248299
 10
6.9720879265804996
 20
121.720679274743631
 10
6.9749482990941711
 20
121.7183678698311979
 10
6.9777968008017375
 20
121.7160467326875875
 10
6.9806334317031986
 20
121.7137158633127285
 10
6.9834581917985528
 20
121.711375261706678
 10
6.9862710810878008
 20
121.7090249278694358
 10
6.9890720995709437
 20
121.7066648618009594
 10
6.9918612472479804
 20
121.7042950635012915
 10
6.9946385241189102
 20
121.7019155329703892
 10
6.9974039301837339
 20
121.6995262702082812
 10
7.0001574654424532
 20
121.6971272752149673
 10
7.0028991298950674
 20
121.6947185479904476
 10
7.0056289235415727
 20
121.6923000885347221
 10
7.0083468463819729
 20
121.6898718968477908
 10
7.0110528984162688
 20
121.6874339729296395
 10
7.0137470796444585
 20
121.6849863167802823
 10
7.0164293900665404
 20
121.6825289283997051
 10
7.0190998296825171
 20
121.6800618077879221
 10
7.0217583984923877
 20
121.6775849549449333
 10
7.0244050964961531
 20
121.6750983698707245
 42
-0.2148899109718704
 10
7.3624227093872925
 20
120.8263069139966319
 42
-0.1001913794401163
 10
7.2702360876897067
 20
120.3893573168446807
 42
-0.0965402896310242
 10
7.0086659171819328
 20
119.997002061083009
 42
-0.1106023788063957
 10
6.6166854037848921
 20
119.7418025107738515
 10
7.4710979951283427
 20
118.0194866029604697
 10
6.7118699643994688
 20
118.0194866029604697
 10
5.9084223346449249
 20
119.6721004309537193
 10
5.4295015926550434
 20
119.6721004309537193
 10
5.4295015926550434
 20
118.0194866029604697
  0
LWPOLYLINE
  5
14F
100
AcDbEntity
  8
VectorEngraving
 62
256
370
-1
 48
1.0
  6
BYLAYER
100
AcDbPolyline
 90
7
 70
129
 10
5.4295015926550434
 20
120.2716882143526362
 10
6.010352257822742
 20
120.2716882143526362
 42
0.1918312228859736
 10
6.4694116544875335
 20
120.4152145400037455
 42
0.2154606779080589
 10
6.6226812816188811
 20
120.8075697957654171
 42
0.1955098707729466
 10
6.4694116544875335
 20
121.2029229904440797
 42
0.2146607426726364
 10
6.010352257822742
 20
121.3689338579726495
 10
5.4295015926550434
 20
121.3689338579726495
  0
LWPOLYLINE
  5
150
100
AcDbEntity
  8
VectorEngraving
 62
256
370
-1
 48
1.0
  6
BYLAYER
100
AcDbPolyline
 90
13
 70
129
 10
8.1913528199362879
 20
118.0194866029604697
 10
7.6682124789207364
 20
121.9940041221660181
 10
8.293282743114105
 20
121.9940041221660181
 10
8.5615982761851193
 20
119.4997189432265401
 10
9.0719973768034414
 20
121.6814689900693338
 10
9.454234588720249
 20
121.6814689900693338
 10
9.964633689338573
 20
119.505714821060522
 10
10.1752388982574438
 20
121.9940041221660181
 10
10.7620854412591278
 20
121.9940041221660181
 10
10.2456904628068148
 20
118.0194866029604697
 10
9.7930016863406344
 20
118.0194866029604697
 10
9.2308881394041542
 20
120.4695521828742812
 10
8.656782836799696
 20
118.0194866029604697
  0
LWPOLYLINE
  5
151
100
AcDbEntity
  8
VectorEngraving
 62
256
370
-1
 48
1.0
  6
BYLAYER
100
AcDbPolyline
 90
12
 70
129
 10
14.3078976953344519
 20
118.0194866029604697
 10
14.3078976953344519
 20
121.9940041221660181
 10
16.8981169196177561
 20
121.9940041221660181
 10
16.8981169196177561
 20
121.407157579164334
 10
15.0094154019111805
 20
121.407157579164334
 10
15.0094154019111805
 20
120.3863593779276755
 10
16.5600993067266202
 20
120.3863593779276755
 10
16.5600993067266202
 20
119.7927674723627547
 10
15.0094154019111805
 20
119.7927674723627547
 10
15.0094154019111805
 20
118.6063331459621537
 10
16.8786303166572935
 20
118.6063331459621537
 10
16.8786303166572935
 20
118.0194866029604697
  0
LWPOLYLINE
  5
152
100
AcDbEntity
  8
VectorEngraving
 62
256
370
-1
 48
1.0
  6
BYLAYER
100
AcDbPolyline
 90
13
 70
129
 10
17.3755386921491422
 20
118.0194866029604697
 10
17.3755386921491422
 20
121.9940041221660181
 10
18.0073543189057474
 20
121.9940041221660181
 10
18.7793235900318471
 20
120.169008806445575
 10
19.5512928611579468
 20
122.0
 10
20.1831084879145521
 20
122.0
 10
20.1831084879145521
 20
118.0194866029604697
 10
19.5572887389919359
 20
118.0194866029604697
 10
19.5572887389919359
 20
120.7948285553681842
 10
18.9322184747985709
 20
119.3333333333333428
 10
18.5814596215102057
 20
119.3333333333333428
 10
17.9946130785085217
 20
120.7880831928049474
 10
17.9946130785085217
 20
118.0194866029604697
  0
LWPOLYLINE
  5
153
100
AcDbEntity
  8
VectorEngraving
 62
256
370
-1
 48
1.0
  6
BYLAYER
100
AcDbPolyline
 90
7
 70
129
 10
24.9280963087877012
 20
118.0067453625632368
 10
23.6517238148772648
 20
121.9940041221660181
 10
24.3667322465804688
 20
121.9940041221660181
 10
25.2024077196927045
 20
119.1999250515270745
 10
25.9803728686527933
 20
121.9940041221660181
 10
26.6758946973955346
 20
121.9940041221660181
 10
25.4122634438823241
 20
118.0067453625632368
  0
LWPOLYLINE
  5
154
100
AcDbEntity
  8
VectorEngraving
 62
256
370
-1
 48
1.0
  6
BYLAYER
100
AcDbPolyline
 90
26
 70
129
 10
28.5188776466179448
 20
117.9490350384110968
 42
-0.1371812061519622
 10
27.7244238336143844
 20
118.1630129286115789
 42
-0.1521335773926575
 10
27.1503185310099262
 20
118.8296795952782503
 42
-0.1095731750364419
 10
26.9367153831740609
 20
119.9846355630504036
 42
-0.085496982406844
 10
27.0802417088251772
 20
120.9702079820123686
 42
-0.1105493068353074
 10
27.4598557241896124
 20
121.6050215476859648
 42
-0.1092743849584199
 10
27.9796233839235455
 20
121.9460370994941059
 42
-0.0894144458589348
 10
28.5443601274123964
 20
122.0509649615889174
 42
-0.1442794725258741
 10
29.3129567172568812
 20
121.8471051152332763
 42
-0.150150209901808
 10
29.8012460183623702
 20
121.2729998126288251
 10
29.3478077571669402
 20
120.9349821997376893
 10
29.2968427955780335
 20
120.9027543563800009
 10
29.2653644369495893
 20
120.9537193179689041
 42
0.1140804318627138
 10
29.2556211354693581
 20
121.0466554243957376
 42
0.0461095061681456
 10
29.188916994566231
 20
121.1838111298482374
 42
0.1205634682736379
 10
28.8981169196177561
 20
121.410155518081325
 42
0.097396558177524
 10
28.5825838486040773
 20
121.4708637811504701
 42
0.1710454528741435
 10
28.1261476484916564
 20
121.304852913621886
 42
0.132489401012512
 10
27.7817594154019041
 20
120.8169383548810174
 42
0.0957756120555154
 10
27.6509743301480171
 20
120.0161139216788655
 42
0.1424637919354519
 10
27.9031759415401837
 20
118.9349821997376893
 42
0.2705536969347132
 10
28.5376147648491596
 20
118.5426269439760176
 42
0.1360351973350576
 10
28.9460839422896683
 20
118.6445568671538382
 42
0.1254759824622667
 10
29.2586190743863526
 20
118.9825744800449741
 10
29.7562769346074525
 20
118.6130785085253905
 42
-0.1424969433067643
 10
29.2301386546749065
 20
118.0989319842608296
 42
-0.1161683907371319
  0
LWPOLYLINE
  5
155
100
AcDbEntity
  8
VectorEngraving
 62
256
370
-1
 48
1.0
  6
BYLAYER
100
AcDbPolyline
 90
8
 70
129
 10
32.3135188308038153
 20
118.0194866029604697
 10
32.0392074198988155
 20
118.9443507588532896
 10
30.9996721004309457
 20
118.9443507588532896
 10
30.7186153269627056
 20
118.0194866029604697
 10
30.0043563799887529
 20
118.0194866029604697
 10
31.3504309537193109
 20
122.0194866029604697
 10
31.6951939291736871
 20
122.0194866029604697
 10
33.041268502904245
 20
118.0194866029604697
  0
LWPOLYLINE
  5
156
100
AcDbEntity
  8
VectorEngraving
 62
256
370
-1
 48
1.0
  6
BYLAYER
100
AcDbPolyline
 90
3
 70
129
 10
31.5228124414465007
 20
120.6861532696271411
 10
31.1525669851976694
 20
119.4614952220348556
 10
31.8863125351320917
 20
119.4614952220348556
  0
LWPOLYLINE
  5
157
100
AcDbEntity
  8
VectorEngraving
 62
256
370
-1
 48
1.0
  6
BYLAYER
100
AcDbPolyline
 90
12
 70
129
 10
33.2953438261195345
 20
118.0194866029604697
 10
34.3228873899194227
 20
119.505714821060522
 10
33.3080850665167674
 20
120.9859471613265924
 10
34.0673130972456377
 20
120.9859471613265924
 10
34.705124601836232
 20
120.0670788832677545
 10
35.2987165074011529
 20
120.9859471613265924
 10
36.025716694772342
 20
120.9859471613265924
 10
35.0881112984822892
 20
119.5311973018549736
 10
36.1538785834738547
 20
118.0194866029604697
 10
35.3751639497845218
 20
118.0194866029604697
 10
34.705124601836232
 20
118.9638373618137592
 10
34.0673130972456377
 20
118.0194866029604697
  0
LWPOLYLINE
  5
158
100
AcDbEntity
  8
VectorEngraving
 62
256
370
-1
 48
1.0
  6
BYLAYER
100
AcDbPolyline
 90
282
 70
129
 10
36.6695240771659883
 20
118.5553681843593949
 42
0.0000020552415272
 10
37.4669758290838217
 20
119.3307101367681753
 42
0.0211705168130036
 10
38.0283398913247055
 20
119.9175566797826491
 42
0.0687730442593135
 10
38.359986884017232
 20
120.4084691774405087
 42
0.1106394284851455
 10
38.4682874273936619
 20
120.9027543563800151
 10
38.4682788616578506
 20
120.9070321008554885
 10
38.4682531644504095
 20
120.9112931026911184
 10
38.4682103357713459
 20
120.915537361886976
 10
38.4681503756206666
 20
120.9197648784429617
 10
38.4680732839983435
 20
120.9239756523591183
 10
38.4679790609044119
 20
120.928169683635474
 10
38.4678677063388577
 20
120.9323469722720006
 10
38.4677392203016595
 20
120.9365075182687121
 10
38.4675936027928458
 20
120.9406513216255803
 10
38.4674308538124166
 20
120.9447783823426192
 10
38.4672509733603505
 20
120.9488887004198574
 10
38.4670539614366689
 20
120.9529822758572379
 10
38.4668398180413575
 20
120.9570591086548177
 10
38.4666085431744236
 20
120.961119198812554
 10
38.4663601368358457
 20
120.9651625463304612
 10
38.4660945990256664
 20
120.9691891512085533
 10
38.4658119297438574
 20
120.9731990134468163
 10
38.4655121289904116
 20
120.9771921330452642
 10
38.4651951967653503
 20
120.9811685100038545
 10
38.4648611330686663
 20
120.9851281443226725
 10
38.4645099379003454
 20
120.9890710360016044
 10
38.4641416112604162
 20
120.992997185040764
 10
38.4637561531488572
 20
120.9969065914400943
 10
38.4633535635656614
 20
121.0007992551995528
 10
38.4629338425108571
 20
121.0046751763192105
 10
38.4624969899844231
 20
121.0085343547990675
 10
38.4620430059863594
 20
121.012376790639081
 10
38.461571890516673
 20
121.0162024838392369
 10
38.4610836435753569
 20
121.0200114343996063
 10
38.4605782651624182
 20
121.0238036423201464
 10
38.4600557552778639
 20
121.0275791076008289
 10
38.4595161139216799
 20
121.0313378302417107
 10
38.4589593410938591
 20
121.0350798102427774
 10
38.4583854367944227
 20
121.0388050476040007
 10
38.4577944010233708
 20
121.0425135423253806
 10
38.4571862337806749
 20
121.046205294406974
 10
38.4565609350663635
 20
121.0498803038487381
 10
38.4559185048804295
 20
121.0535385706506446
 10
38.4552589432228729
 20
121.0571800948127503
 10
38.4545822500936794
 20
121.0608048763350411
 10
38.4538884254928703
 20
121.0644129152174742
 10
38.4531774694204387
 20
121.0680042114601065
 10
38.4524493818763631
 20
121.0715787650629096
 10
38.4517041628606862
 20
121.0751365760258551
 10
38.4509418123733724
 20
121.078677644349014
 10
38.450162330414436
 20
121.0822019700323295
 10
38.449365716983877
 20
121.0857095530758158
 10
38.4485519720816882
 20
121.0892003934795014
 10
38.4477210957078768
 20
121.0926744912433435
 10
38.4468730878624356
 20
121.0961318463673422
 10
38.446007948545379
 20
121.0995724588515401
 10
38.4451256777566996
 20
121.1029963286958946
 10
38.4442262754963835
 20
121.1064034559004199
 10
38.4433097417644518
 20
121.1097938404651586
 10
38.4423760765608904
 20
121.1131674823900397
 10
38.4414252798856992
 20
121.1165243816751058
 10
38.4404573517388854
 20
121.1198645383203569
 10
38.4394722921204561
 20
121.1231879523257504
 10
38.43847010103039
 20
121.1264946236913431
 10
38.4374507784687012
 20
121.1297845524171066
 10
38.4364143244353968
 20
121.1330577385030267
 10
38.4353607389304557
 20
121.1363141819491602
 10
38.434290021953899
 20
121.1395538827553935
 10
38.4332021735057126
 20
121.1427768409218686
 10
38.4320971935859035
 20
121.1459830564485003
 10
38.4309750821944647
 20
121.1491725293352886
 10
38.4298358393314032
 20
121.1523452595822761
 10
38.4286794649967192
 20
121.1555012471894486
 10
38.4275059591903982
 20
121.1586404921567635
 10
38.4263153219124689
 20
121.1617629944842633
 10
38.4251075531629098
 20
121.1648687541719767
 10
38.423882652941721
 20
121.1679577712197897
 10
38.4226406212489167
 20
121.1710300456278162
 10
38.4213814580844755
 20
121.1740855773960277
 10
38.4201051634484116
 20
121.1771243665243958
 10
38.4188117373407252
 20
121.1801464130129204
 10
38.4175011797614232
 20
121.1831517168616443
 10
38.4161734907104844
 20
121.186140278070539
 10
38.4148286701879229
 20
121.1891120966396045
 10
38.4134667181937317
 20
121.192067172568855
 10
38.412087634727925
 20
121.1950055058582905
 10
38.4106914197904885
 20
121.1979270965078683
 10
38.4092780733814294
 20
121.2008319445176312
 10
38.4078475955007406
 20
121.2037200498875791
 10
38.4063999861484362
 20
121.206591412617712
 10
38.4049352453245021
 20
121.2094460327080014
 10
38.4034533730289382
 20
121.2122839101584475
 10
38.4019543692617447
 20
121.2151050449690786
 10
38.4004382340229427
 20
121.2179094371398946
 10
38.3989049673125038
 20
121.2206970866708815
 10
38.3973545691304423
 20
121.2234679935620534
 10
38.3957870394767582
 20
121.2262221578133676
 10
38.3942023783514443
 20
121.2289595794248811
 10
38.3926005857545221
 20
121.2316802583965796
 10
38.3909816616859558
 20
121.2343841947284488
 10
38.389345606145767
 20
121.2370713884204605
 10
38.3876924191339555
 20
121.2397418394726856
 10
38.3860221006505213
 20
121.242395547885053
 10
38.3843346506954646
 20
121.2450325136576197
 10
38.3826300692687781
 20
121.2476527367903429
 10
38.3809083563704689
 20
121.250256217283237
 10
38.3791695120005301
 20
121.252842955136316
 10
38.3774135361589757
 20
121.2554129503495517
 10
38.3756404288457844
 20
121.2579662029230008
 10
38.3738501900609776
 20
121.260502712856578
 10
38.3720428198045411
 20
121.2630224801503687
 10
38.370218318076482
 20
121.2655255048043159
 10
38.3683766848768002
 20
121.2680117868184482
 10
38.3665179202054887
 20
121.2704813261927512
 10
38.3646420240625474
 20
121.2729341229272109
 10
38.3627489964479906
 20
121.2753701770218697
 10
38.3608388373618041
 20
121.2777894884766994
 10
38.358911546803995
 20
121.2801920572916572
 10
38.3569671247745703
 20
121.2825778834668426
 10
38.3550055712735087
 20
121.2849469670021847
 10
38.3530268863008175
 20
121.2872993078976833
 10
38.3510310698565178
 20
121.2896349061533954
 10
38.3490181219405741
 20
121.2919537617692498
 10
38.3469880425530221
 20
121.2942558747452892
 10
38.3449408316938332
 20
121.2965412450814995
 10
38.3428764893630216
 20
121.2988098727778947
 10
38.3407950155605874
 20
121.3010617578344608
 10
38.3386964102865306
 20
121.3032969002511834
 10
38.3365806735408512
 20
121.3055153000281052
 10
38.3344478053235349
 20
121.3077169571651979
 10
38.332297805634596
 20
121.3099018716624471
 10
38.3301306744740415
 20
121.3120700435198955
 10
38.3279464118418574
 20
121.3142214727375006
 10
38.3257450177380434
 20
121.3163561593152764
 10
38.323526492162614
 20
121.3184741032532372
 10
38.3212908351155477
 20
121.3205753045513688
 10
38.3190380465968659
 20
121.3226597632096855
 10
38.3167681266065614
 20
121.3247274792281587
 10
38.314481075144613
 20
121.3267784526068169
 10
38.3121768922110704
 20
121.3288126833456317
 10
38.3098555778058767
 20
121.3308301714446316
 10
38.3075171319290675
 20
121.3328309169038164
 10
38.3051615545806357
 20
121.3348149197231862
 10
38.3027888457605741
 20
121.3367821799026842
 10
38.3003990054688899
 20
121.3387326974423814
 10
38.297992033705583
 20
121.3406664723422637
 10
38.2955679304706536
 20
121.3425835046023167
 10
38.2931266957640872
 20
121.3444837942225263
 10
38.2906683295858983
 20
121.3463673412029209
 10
38.2881928319360938
 20
121.3482341455435005
 10
38.2857002028146596
 20
121.3500842072442509
 10
38.2831904422216027
 20
121.3519175263051579
 10
38.2806635501569161
 20
121.3537341027262642
 10
38.278119526620614
 20
121.355533936507527
 10
38.2755583716126822
 20
121.3573170276489464
 10
38.2729800851331134
 20
121.3590833761505792
 10
38.2703846671819292
 20
121.3608329820123686
 10
38.2677721177591224
 20
121.362565845234343
 10
38.2651424368646929
 20
121.364281965816474
 10
38.2624956244986336
 20
121.36598134375879
 10
38.2598316806609446
 20
121.3676639790612626
 10
38.2571506053516401
 20
121.3693298717239486
 10
38.2544523985707059
 20
121.370979021746777
 10
38.2517370603181419
 20
121.3726114291297904
 10
38.2490045905939553
 20
121.3742270938729746
 10
38.2462549893981461
 20
121.3758260159763154
 10
38.2434882567307142
 20
121.3774081954398554
 10
38.2407043925916668
 20
121.3789736322635662
 10
38.2379033969809754
 20
121.3805223264474478
 10
38.2350852698986614
 20
121.3820542779915002
 10
38.2322500113447319
 20
121.3835694868957233
 10
38.2293976213191797
 20
121.3850679531601315
 10
38.2265280998219907
 20
121.3865496767847105
 10
38.2236414468531791
 20
121.3880146577694461
 10
38.2207376624127519
 20
121.3894628961144093
 10
38.217816746500695
 20
121.3908943918195007
 10
38.2148786991170084
 20
121.3923091448847771
 10
38.2119235202616991
 20
121.3937071553102101
 10
38.2089512099347672
 20
121.3950884230958422
 10
38.2059617681362056
 20
121.396452948241631
 10
38.2029551948660284
 20
121.397800730747619
 10
38.1999314901242144
 20
121.3991317706137636
 10
38.1968906539107849
 20
121.400446067840079
 10
38.1938326862257256
 20
121.4017436224265793
 10
38.1907575870690366
 20
121.4030244343732363
 10
38.187665356440732
 20
121.4042885036800783
 10
38.1845559943407977
 20
121.4055358303471053
 10
38.1814295007692408
 20
121.4067664143743031
 10
38.1782858757260612
 20
121.4079802557616716
 10
38.175125119211252
 20
121.409177354509211
 10
38.1719472312248129
 20
121.4103577106169212
 10
38.1687522117667584
 20
121.4115213240848163
 10
38.1655400608370741
 20
121.4126681949128681
 10
38.1623107784357671
 20
121.4137983231011191
 10
38.1590643645628376
 20
121.4149117086495266
 10
38.1558008192182712
 20
121.4160083515581192
 10
38.1525201424020963
 20
121.4170882518268684
 10
38.1492223341142846
 20
121.4181514094558167
 10
38.1459073943548503
 20
121.4191978244449217
 10
38.1425753231237934
 20
121.4202274967941975
 10
38.1392261204211138
 20
121.4212404265036582
 10
38.1358597862468045
 20
121.4222366135732898
 10
38.1324763206008726
 20
121.4232160580030921
 10
38.1290757234833109
 20
121.4241787597930795
 10
38.1256579948941337
 20
121.4251247189432235
 10
38.1222231348333267
 20
121.4260539354535666
 10
38.11877114330089
 20
121.4269664093240664
 10
38.1153020202968307
 20
121.4278621405547511
 10
38.1118157658211558
 20
121.4287411291455925
 10
38.108312379873837
 20
121.4296033750966188
 10
38.1047918624549027
 20
121.430448878407816
 10
38.1012542135643528
 20
121.4312776390791839
 10
38.0976994332021661
 20
121.4320896571107369
 10
38.0941275213683639
 20
121.4328849325024748
 10
38.0905384780629248
 20
121.4336634652543694
 10
38.0869323032858702
 20
121.4344252553664347
 10
38.083308997037193
 20
121.4351703028386709
 10
38.0796685593168789
 20
121.435898607671092
 10
38.0760109901249493
 20
121.436610169863684
 10
38.0723362894613899
 20
121.4373049894164609
 10
38.068644457326215
 20
121.4379830663294086
 10
38.0649354937193962
 20
121.4386444006025272
 10
38.0612093986409761
 20
121.4392889922358165
 10
38.0574661720909049
 20
121.4399168412292767
 10
38.0537058140692324
 20
121.4405279475829076
 10
38.0499283245759301
 20
121.4411223112967377
 10
38.0461337036109839
 20
121.4416999323707245
 10
38.0423219511744293
 20
121.442260810804882
 10
38.0384930672662449
 20
121.4428049465992245
 10
38.034647051886445
 20
121.4433323397537237
 10
38.0307839050350083
 20
121.4438429902683936
 10
38.026903626711956
 20
121.4443368981432627
 10
38.0230062169172669
 20
121.4448140633783169
 10
38.0190916756509694
 20
121.4452744859735276
 10
38.015160002913035
 20
121.4457181659288949
 10
38.0112111987034709
 20
121.4461451032444614
 10
38.0072452630222912
 20
121.4465552979201846
 10
38.0032621958694818
 20
121.4469487499560785
 10
37.9992619972450569
 20
121.4473254593521858
 10
37.9952446671490023
 20
121.4476854261084355
 10
37.9912102055813179
 20
121.4480286502248418
 10
37.9871586125420109
 20
121.4483551317014616
 10
37.983089888031067
 20
121.4486648705382237
 10
37.9790040320485076
 20
121.448957866735185
 10
37.9749010445943327
 20
121.4492341202923171
 10
37.970780925668528
 20
121.44949363120962
 10
37.9666436752710936
 20
121.4497363994870796
 10
37.9624892934020437
 20
121.4499624251247241
 10
37.9583177800613569
 20
121.4501717081225394
 10
37.9541291352490546
 20
121.4503642484805397
 10
37.9499233589651297
 20
121.4505400461987108
 10
37.9457004512095679
 20
121.4506991012770527
 10
37.9414604119823835
 20
121.4508414137155796
 10
37.9372032412835694
 20
121.4509669835142773
 10
37.9329289391131326
 20
121.4510758106731316
 10
37.9286375054710874
 20
121.4511678951921851
 10
37.9243289403574124
 20
121.451243237071381
 10
37.9200032437721006
 20
121.4513018363107903
 10
37.9156604157151591
 20
121.451343692910342
 10
37.9113004561866092
 20
121.451368806870093
 10
37.9069233651864295
 20
121.4513771781900004
 42
0.1009095403054285
 10
37.5370526513022185
 20
121.381300356005255
 42
0.1206106730178912
 10
37.2376335019673945
 20
121.1515832864905491
 42
0.0521853136794606
 10
37.1641839985010307
 20
121.0178002623196676
 42
0.1159720545204765
 10
37.1544406970207888
 20
120.9222409593404564
 10
37.1162169758291043
 20
120.8772718755855351
 10
37.0712478920741972
 20
120.9094997189432377
 10
36.5735900318531009
 20
121.2924864155892806
 42
-0.1338122777668135
 10
37.1450721379051885
 20
121.8534757354318998
 42
-0.1299818763844264
 10
37.9136687277496662
 20
122.0509649615889174
 42
-0.1202334125707299
 10
38.5391137343076622
 20
121.9074386359377939
 42
-0.1336220583762507
 10
38.985431890575228
 20
121.5087127599775272
 42
-0.1474407756437601
 10
39.1510680157391704
 20
120.9027543563800009
 42
-0.1283216443726287
 10
38.9599494097807622
 20
120.1472737492973692
 42
-0.0647330011862683
 10
38.4210698894509903
 20
119.4356379988757766
 42
-0.003987711587335
 10
37.6138748360502007
 20
118.6063331459621395
 10
38.8707607270001745
 20
118.6063331459621537
 42
0.059194613331014
 10
39.0206576728499073
 20
118.6190743863593866
 42
0.1343623678602332
 10
39.106848416713504
 20
118.6700393479482898
 10
39.1638092561364033
 20
118.6700393479482898
 10
39.1638092561364033
 20
118.0194866029604697
 10
36.6695240771969253
 20
118.0194866029604697
  0
LWPOLYLINE
  5
159
100
AcDbEntity
  8
VectorEngraving
 62
256
370
-1
 48
1.0
  6
BYLAYER
100
AcDbPolyline
 90
8
 70
129
 10
45.0697489226157018
 20
118.0194866029604697
 10
44.7954375117106878
 20
118.9443507588532896
 10
43.7559021922428286
 20
118.9443507588532896
 10
43.4748454187745921
 20
118.0194866029604697
 10
42.7605864718006359
 20
118.0194866029604697
 10
44.1066610455311974
 20
122.0194866029604697
 10
44.45142402098557
 20
122.0194866029604697
 10
45.7974985947161315
 20
118.0194866029604697
  0
LWPOLYLINE
  5
15A
100
AcDbEntity
  8
VectorEngraving
 62
256
370
-1
 48
1.0
  6
BYLAYER
100
AcDbPolyline
 90
3
 70
129
 10
44.2790425332583766
 20
120.6861532696271411
 10
43.9087970770095524
 20
119.4614952220348556
 10
44.642542626943964
 20
119.4614952220348556
  0
ENDSEC
  0
SECTION
  2
OBJECTS
  0
DICTIONARY
  5
C
100
AcDbDictionary
280
0
281
1
  3
ACAD_GROUP
350
D
  3
ACAD_LAYOUT
350
1A
  3
ACAD_MLINESTYLE
350
17
  3
ACAD_PLOTSETTINGS
350
19
  3
ACAD_PLOTSTYLENAME
350
E
  3
AcDbVariableDictionary
350
15B
  3
QCAD_OBJECTS
350
15C
  0
DICTIONARY
  5
D
100
AcDbDictionary
280
0
281
1
  0
ACDBDICTIONARYWDFLT
  5
E
100
AcDbDictionary
281
1
  3
Normal
350
F
100
AcDbDictionaryWithDefault
340
F
  0
ACDBPLACEHOLDER
  5
F
  0
DICTIONARY
  5
17
100
AcDbDictionary
280
0
281
1
  3
Standard
350
18
  0
MLINESTYLE
  5
18
100
AcDbMlineStyle
  2
STANDARD
 70
0
  3

 62
256
 51
90.0
 52
90.0
 71
2
 49
0.5
 62
256
  6
BYLAYER
 49
-0.5
 62
256
  6
BYLAYER
  0
DICTIONARY
  5
19
100
AcDbDictionary
280
0
281
1
  0
DICTIONARY
  5
1A
100
AcDbDictionary
281
1
  3
Layout1
350
1E
  3
Layout2
350
26
  3
Model
350
22
  0
LAYOUT
  5
1E
100
AcDbPlotSettings
  1

  2
none_device
  4

  6

 40
0.0
 41
0.0
 42
0.0
 43
0.0
 44
0.0
 45
0.0
 46
0.0
 47
0.0
 48
0.0
 49
0.0
140
0.0
141
0.0
142
1.0
143
1.0
 70
688
 72
0
 73
0
 74
5
  7

 75
16
147
1.0
148
0.0
149
0.0
100
AcDbLayout
  1
Layout1
 70
1
 71
1
 10
0.0
 20
0.0
 11
420.0
 21
297.0
 12
0.0
 22
0.0
 32
0.0
 14
100000000000000000000.0
 24
100000000000000000000.0
 34
100000000000000000000.0
 15
-100000000000000000000.0
 25
-100000000000000000000.0
 35
-100000000000000000000.0
146
0.0
 13
0.0
 23
0.0
 33
0.0
 16
1.0
 26
0.0
 36
0.0
 17
0.0
 27
1.0
 37
0.0
 76
0
330
1B
  0
LAYOUT
  5
22
100
AcDbPlotSettings
  1

  2
none_device
  4

  6

 40
0.0
 41
0.0
 42
0.0
 43
0.0
 44
0.0
 45
0.0
 46
0.0
 47
0.0
 48
0.0
 49
0.0
140
0.0
141
0.0
142
1.0
143
1.0
 70
1712
 72
0
 73
0
 74
0
  7

 75
0
147
1.0
148
0.0
149
0.0
100
AcDbLayout
  1
Model
 70
1
 71
0
 10
0.0
 20
0.0
 11
12.0
 21
9.0
 12
0.0
 22
0.0
 32
0.0
 14
0.0
 24
0.0
 34
0.0
 15
0.0
 25
0.0
 35
0.0
146
0.0
 13
0.0
 23
0.0
 33
0.0
 16
1.0
 26
0.0
 36
0.0
 17
0.0
 27
1.0
 37
0.0
 76
0
330
1F
  0
LAYOUT
  5
26
100
AcDbPlotSettings
  1

  2
none_device
  4

  6

 40
0.0
 41
0.0
 42
0.0
 43
0.0
 44
0.0
 45
0.0
 46
0.0
 47
0.0
 48
0.0
 49
0.0
140
0.0
141
0.0
142
1.0
143
1.0
 70
688
 72
0
 73
0
 74
5
  7

 75
16
147
1.0
148
0.0
149
0.0
100
AcDbLayout
  1
Layout2
 70
1
 71
2
 10
0.0
 20
0.0
 11
12.0
 21
9.0
 12
0.0
 22
0.0
 32
0.0
 14
0.0
 24
0.0
 34
0.0
 15
0.0
 25
0.0
 35
0.0
146
0.0
 13
0.0
 23
0.0
 33
0.0
 16
1.0
 26
0.0
 36
0.0
 17
0.0
 27
1.0
 37
0.0
 76
0
330
23
  0
DICTIONARY
  5
15B
100
AcDbDictionary
281
1
  3
DIMASSOC
350
15E
  3
HIDETEXT
350
15D
  0
DICTIONARYVAR
  5
15D
100
DictionaryVariables
280
0
  1
2
  0
DICTIONARYVAR
  5
15E
100
DictionaryVariables
280
0
  1
1
  0
DICTIONARY
  5
15C
100
AcDbDictionary
281
1
  3
ColorSettings/BackgroundColor
350
15F
  3
ColorSettings/ColorMode
350
160
  3
Grid/DisplayGrid00
350
161
  3
Grid/DisplayGrid01
350
162
  3
Grid/DisplayGrid02
350
163
  3
Grid/DisplayGrid03
350
164
  3
Grid/GridSpacingX00
350
165
  3
Grid/GridSpacingX01
350
166
  3
Grid/GridSpacingX02
350
167
  3
Grid/GridSpacingX03
350
168
  3
Grid/GridSpacingY00
350
169
  3
Grid/GridSpacingY01
350
16A
  3
Grid/GridSpacingY02
350
16B
  3
Grid/GridSpacingY03
350
16C
  3
Grid/IsometricGrid00
350
16D
  3
Grid/IsometricGrid01
350
16E
  3
Grid/IsometricGrid02
350
16F
  3
Grid/IsometricGrid03
350
170
  3
Grid/IsometricProjection00
350
171
  3
Grid/IsometricProjection01
350
172
  3
Grid/IsometricProjection02
350
173
  3
Grid/IsometricProjection03
350
174
  3
Grid/MetaGridSpacingX00
350
175
  3
Grid/MetaGridSpacingX01
350
176
  3
Grid/MetaGridSpacingX02
350
177
  3
Grid/MetaGridSpacingX03
350
178
  3
Grid/MetaGridSpacingY00
350
179
  3
Grid/MetaGridSpacingY01
350
17A
  3
Grid/MetaGridSpacingY02
350
17B
  3
Grid/MetaGridSpacingY03
350
17C
  3
MultiPageSettings/Columns
350
17D
  3
MultiPageSettings/GlueMarginsBottom
350
17E
  3
MultiPageSettings/GlueMarginsLeft
350
17F
  3
MultiPageSettings/GlueMarginsRight
350
180
  3
MultiPageSettings/GlueMarginsTop
350
181
  3
MultiPageSettings/PrintCropMarks
350
182
  3
MultiPageSettings/Rows
350
183
  3
PageSettings/OffsetX
350
184
  3
PageSettings/OffsetY
350
185
  3
PageSettings/PageOrientation
350
186
  3
PageSettings/PaperHeight
350
187
  3
PageSettings/PaperWidth
350
188
  3
PageSettings/Scale
350
189
  3
PageSettings/ShowPaperBorders
350
18A
  3
PageTagSettings/EnablePageTags
350
18B
  3
PageTagSettings/TagAlignment
350
18C
  3
PageTagSettings/TagFont
350
18D
  3
PageTagSettings/TagPosition
350
18E
  3
QCADVersion
350
18F
  3
UnitSettings/PaperUnit
350
190
  3
ViewportCenter
350
191
  3
ViewportHeight
350
192
  3
ViewportWidth
350
193
  0
XRECORD
  5
15F
330
15C
100
AcDbXrecord
280
1
1000
White
  0
XRECORD
  5
160
330
15C
100
AcDbXrecord
280
1
1000
FullColor
  0
XRECORD
  5
161
330
15C
100
AcDbXrecord
280
1
290
1
  0
XRECORD
  5
162
330
15C
100
AcDbXrecord
280
1
290
1
  0
XRECORD
  5
163
330
15C
100
AcDbXrecord
280
1
290
1
  0
XRECORD
  5
164
330
15C
100
AcDbXrecord
280
1
290
1
  0
XRECORD
  5
165
330
15C
100
AcDbXrecord
280
1
1000
auto
  0
XRECORD
  5
166
330
15C
100
AcDbXrecord
280
1
1000
auto
  0
XRECORD
  5
167
330
15C
100
AcDbXrecord
280
1
1000
auto
  0
XRECORD
  5
168
330
15C
100
AcDbXrecord
280
1
1000
auto
  0
XRECORD
  5
169
330
15C
100
AcDbXrecord
280
1
1000
auto
  0
XRECORD
  5
16A
330
15C
100
AcDbXrecord
280
1
1000
auto
  0
XRECORD
  5
16B
330
15C
100
AcDbXrecord
280
1
1000
auto
  0
XRECORD
  5
16C
330
15C
100
AcDbXrecord
280
1
1000
auto
  0
XRECORD
  5
16D
330
15C
100
AcDbXrecord
280
1
290
0
  0
XRECORD
  5
16E
330
15C
100
AcDbXrecord
280
1
290
0
  0
XRECORD
  5
16F
330
15C
100
AcDbXrecord
280
1
290
0
  0
XRECORD
  5
170
330
15C
100
AcDbXrecord
280
1
290
0
  0
XRECORD
  5
171
330
15C
100
AcDbXrecord
280
1
 90
65537
  0
XRECORD
  5
172
330
15C
100
AcDbXrecord
280
1
 90
65537
  0
XRECORD
  5
173
330
15C
100
AcDbXrecord
280
1
 90
65537
  0
XRECORD
  5
174
330
15C
100
AcDbXrecord
280
1
 90
65537
  0
XRECORD
  5
175
330
15C
100
AcDbXrecord
280
1
1000
auto
  0
XRECORD
  5
176
330
15C
100
AcDbXrecord
280
1
1000
auto
  0
XRECORD
  5
177
330
15C
100
AcDbXrecord
280
1
1000
auto
  0
XRECORD
  5
178
330
15C
100
AcDbXrecord
280
1
1000
auto
  0
XRECORD
  5
179
330
15C
100
AcDbXrecord
280
1
1000
auto
  0
XRECORD
  5
17A
330
15C
100
AcDbXrecord
280
1
1000
auto
  0
XRECORD
  5
17B
330
15C
100
AcDbXrecord
280
1
1000
auto
  0
XRECORD
  5
17C
330
15C
100
AcDbXrecord
280
1
1000
auto
  0
XRECORD
  5
17D
330
15C
100
AcDbXrecord
280
1
 90
1
  0
XRECORD
  5
17E
330
15C
100
AcDbXrecord
280
1
 40
10.0
  0
XRECORD
  5
17F
330
15C
100
AcDbXrecord
280
1
 40
10.0
  0
XRECORD
  5
180
330
15C
100
AcDbXrecord
280
1
 40
10.0
  0
XRECORD
  5
181
330
15C
100
AcDbXrecord
280
1
 40
10.0
  0
XRECORD
  5
182
330
15C
100
AcDbXrecord
280
1
290
0
  0
XRECORD
  5
183
330
15C
100
AcDbXrecord
280
1
 90
1
  0
XRECORD
  5
184
330
15C
100
AcDbXrecord
280
1
 40
0.0
  0
XRECORD
  5
185
330
15C
100
AcDbXrecord
280
1
 40
0.0
  0
XRECORD
  5
186
330
15C
100
AcDbXrecord
280
1
1000
Portrait
  0
XRECORD
  5
187
330
15C
100
AcDbXrecord
280
1
 40
297.0
  0
XRECORD
  5
188
330
15C
100
AcDbXrecord
280
1
 40
210.0
  0
XRECORD
  5
189
330
15C
100
AcDbXrecord
280
1
1000
1:1
  0
XRECORD
  5
18A
330
15C
100
AcDbXrecord
280
1
290
1
  0
XRECORD
  5
18B
330
15C
100
AcDbXrecord
280
1
290
0
  0
XRECORD
  5
18C
330
15C
100
AcDbXrecord
280
1
1000
Inside
  0
XRECORD
  5
18D
330
15C
100
AcDbXrecord
280
1
1000
Arial,10,-1,5,50,0,0,0,0,0
  0
XRECORD
  5
18E
330
15C
100
AcDbXrecord
280
1
1000
TopLeft
  0
XRECORD
  5
18F
330
15C
100
AcDbXrecord
280
1
1000
3.27.6.7
  0
XRECORD
  5
190
330
15C
100
AcDbXrecord
280
1
 90
4
  0
XRECORD
  5
192
330
15C
100
AcDbXrecord
280
1
 40
161.9323086573926105
  0
XRECORD
  5
193
330
15C
100
AcDbXrecord
280
1
 40
334.9667344607377117
  0
ENDSEC
  0
EOF
