<?xml version="1.0" standalone="no"?>
 <!DOCTYPE svg PUBLIC "-//W3C//DTD SVG 1.1//EN" 
 "http://www.w3.org/Graphics/SVG/1.1/DTD/svg11.dtd"> 
<svg
  xmlns:svg="http://www.w3.org/2000/svg"
  xmlns="http://www.w3.org/2000/svg"
  xmlns:xlink="http://www.w3.org/1999/xlink"
  version="1.1"
  width="4.041140cm" height="12.862560cm" viewBox="0 0 40411400 128625600">
<title>SVG Picture created as untitled-F_Silkscreen.svg date 2022/09/21 23:17:41 </title>
  <desc>Picture generated by PCBNEW </desc>
<g style="fill:#000000; fill-opacity:1.000000;stroke:#000000; stroke-opacity:1.000000;
stroke-linecap:round; stroke-linejoin:round;"
 transform="translate(0 0) scale(1 1)">
</g>
<g style="fill:#000000; fill-opacity:0.0; 
stroke:#000000; stroke-width:0.000000; stroke-opacity:1; 
stroke-linecap:round; stroke-linejoin:round;">
<g >
</g>
<g >
</g>
<g >
</g>
</g>
<g style="fill:#000000; fill-opacity:0.0; 
stroke:#000000; stroke-width:0.000000; stroke-opacity:1; 
stroke-linecap:round; stroke-linejoin:round;">
</g>
<g style="fill:#000000; fill-opacity:0.0; 
stroke:#000000; stroke-width:130000.000000; stroke-opacity:1; 
stroke-linecap:round; stroke-linejoin:round;">
<path d="M10825924 110880533
L10825924 111422785
" />
<path d="M11129090 110880533
L10825924 110880533
" />
<path d="M11358780.946247 110957198.198814 A318694.000000 318694.000000 0.0 0 0 11129089.981739 110880532.730064" />
<path d="M11438643.747255 111151847.478711 A258263.000000 258263.000000 0.0 0 0 11358807.260239 110957167.727319" />
<path d="M11358817.487236 111346349.008391 A257651.000000 257651.000000 0.0 0 0 11438628.226571 111151846.993003" />
<path d="M11126091.739836 111422788.684194 A323793.000000 323793.000000 0.0 0 0 11358806.972727 111346337.967968" />
<path d="M10825924 111422785
L11126092 111422785
" />
<path d="M10825924 112555257
L10459426 112555257
" />
<path d="M10825924 111722579
L10825924 112555257
" />
<path d="M11151575 111722579
L10825924 111722579
" />
<path d="M11151574.754780 111722585.840607 A782288.000000 782288.000000 0.0 0 0 11521445.871859 111644444.736239" />
<path d="M11521460.348226 111644473.618370 A511303.000000 511303.000000 0.0 0 0 11738421.235661 111437213.131963" />
<path d="M11738435.302906 111437220.686962 A588338.000000 588338.000000 0.0 0 0 11808498.086535 111151846.998992" />
<path d="M11808498.204627 111151847.002293 A602236.000000 602236.000000 0.0 0 0 11736735.306240 110859921.835356" />
<path d="M11736753.988288 110859911.384264 A522945.000000 522945.000000 0.0 0 0 11515074.873318 110647818.252140" />
<path d="M11515082.862964 110647801.772476 A802846.000000 802846.000000 0.0 0 0 11135460.985152 110567997.596714" />
<path d="M10459426 110567998
L11135461 110567998
" />
<path d="M10459426 112555257
L10459426 110567998
" />
<path d="M10070443 112555257
L8934974 112555257
" />
<path d="M10070443 112264831
L10070443 112555257
" />
<path d="M9665347 112264831
L10070443 112264831
" />
<path d="M9665347 110858423
L9665347 112264831
" />
<path d="M10054329 110858423
L9665347 110858423
" />
<path d="M10054329 110567998
L10054329 110858423
" />
<path d="M8957084 110567998
L10054329 110567998
" />
<path d="M8957084 110858423
L8957084 110567998
" />
<path d="M9323956 110858423
L8957084 110858423
" />
<path d="M9323956 112264831
L9323956 110858423
" />
<path d="M8934974 112264831
L9323956 112264831
" />
<path d="M8934974 112555257
L8934974 112264831
" />
<path d="M7298849 112555257
L7298849 110567998
" />
<path d="M8574846 112555257
L7298849 112555257
" />
<path d="M8574846 112261833
L8574846 112555257
" />
<path d="M7662723 112261833
L8574846 112261833
" />
<path d="M7662723 110714897
L7662723 112261833
" />
<path d="M7667412.711652 110639948.711322 A430410.000000 430410.000000 0.0 0 0 7662722.947088 110714897.001315" />
<path d="M7691221.191386 110596870.958140 A82686.000000 82686.000000 0.0 0 0 7667408.110003 110639948.022617" />
<path d="M7691204 110567998
L7691204 110596853
" />
<path d="M7298849 110567998
L7691204 110567998
" />
<path d="M6412583.188896 112590474.002102 A792695.000000 792695.000000 0.0 0 0 6768212.987212 112515533.972766" />
<path d="M6768205.363064 112515519.707888 A658426.000000 658426.000000 0.0 0 0 7031283.191690 112258461.108204" />
<path d="M6782454 112073713
L7031283 112258461
" />
<path d="M6626189.548649 112242727.476990 A465811.000000 465811.000000 0.0 0 0 6782454.027592 112073713.014950" />
<path d="M6421950.503630 112293706.264348 A394037.000000 394037.000000 0.0 0 0 6626186.177435 112242722.313502" />
<path d="M6104680.715563 112097536.263663 A369905.000000 369905.000000 0.0 0 0 6421951.004104 112293686.837652" />
<path d="M5978630.341277 111556942.964497 A993840.000000 993840.000000 0.0 0 0 6104732.101497 112097508.942933" />
<path d="M6044037.737313 111156536.059586 A1068720.000000 1068720.000000 0.0 0 0 5978630.946599 111556943.001552" />
<path d="M6216221.431930 110912578.135257 A573379.000000 573379.000000 0.0 0 0 6044024.244078 111156531.089434" />
<path d="M6444436.053885 110829573.372824 A365345.000000 365345.000000 0.0 0 0 6216218.228599 110912574.278329" />
<path d="M6602197.447790 110859935.728314 A416335.000000 416335.000000 0.0 0 0 6444436.001300 110829568.325330" />
<path d="M6747584.894645 110973108.323696 A387612.000000 387612.000000 0.0 0 0 6602203.012272 110859921.972633" />
<path d="M6780946.732841 111041675.115533 A414367.000000 414367.000000 0.0 0 0 6747602.853289 110973094.088881" />
<path d="M6785808.661993 111088137.853932 A103694.000000 103694.000000 0.0 0 0 6780955.385873 111041671.867271" />
<path d="M6801565 111113623
L6785826 111088140
" />
<path d="M6827048 111097509
L6801565 111113623
" />
<path d="M7053767 110928500
L6827048 111097509
" />
<path d="M7053753.597611 110928505.772470 A641585.000000 641585.000000 0.0 0 0 6809622.062770 110641446.901632" />
<path d="M6809611.639775 110641464.054694 A703243.000000 703243.000000 0.0 0 0 6425324.013460 110539518.493423" />
<path d="M6425323.901761 110539499.829807 A809412.000000 809412.000000 0.0 0 0 6142956.155015 110591981.409194" />
<path d="M6142949.056831 110591962.722123 A719640.000000 719640.000000 0.0 0 0 5883072.090621 110762489.088297" />
<path d="M5883075.261926 110762492.095055 A846580.000000 846580.000000 0.0 0 0 5693265.000135 111079896.000045" />
<path d="M5693266.562935 111079896.509613 A1466792.000000 1466792.000000 0.0 0 0 5621502.440358 111572681.988563" />
<path d="M5621502.393947 111572682.013950 A1356007.000000 1356007.000000 0.0 0 0 5728302.957738 112150160.017926" />
<path d="M5728283.461133 112150168.469759 A739632.000000 739632.000000 0.0 0 0 6015355.974430 112483494.040979" />
<path d="M6015362.106206 112483483.715140 A763817.000000 763817.000000 0.0 0 0 6412583.002646 112590482.277460" />
<path d="M21973666 112552071
L21629278 112552071
" />
<path d="M21973666 110867979
L21973666 112552071
" />
<path d="M22538403 110867979
L21973666 110867979
" />
<path d="M22538403 110564813
L22538403 110867979
" />
<path d="M21093396 110564813
L22538403 110564813
" />
<path d="M21093396 110867979
L21093396 110564813
" />
<path d="M21629278 110867979
L21093396 110867979
" />
<path d="M21629278 112552071
L21629278 110867979
" />
<path d="M20222870.280310 112593661.049686 A688120.000000 688120.000000 0.0 0 0 20717341.676164 112411729.649182" />
<path d="M20717320.047374 112411710.054591 A746379.000000 746379.000000 0.0 0 0 20908647.589448 111847181.034566" />
<path d="M20908648 110564813
L20908648 111847181
" />
<path d="M20557889 110564813
L20908648 110564813
" />
<path d="M20557889 111850179
L20557889 110564813
" />
<path d="M20484464.621718 112182214.173290 A629176.000000 629176.000000 0.0 0 0 20557889.397051 111850178.977738" />
<path d="M20225869.644494 112300229.281846 A279949.000000 279949.000000 0.0 0 0 20484440.363316 112182201.253993" />
<path d="M19970863.623057 112182195.177115 A271780.000000 271780.000000 0.0 0 0 20225867.982580 112300244.841915" />
<path d="M19900605.703521 111859922.743305 A629397.000000 629397.000000 0.0 0 0 19970854.567589 112182201.224979" />
<path d="M19900591 110711712
L19900591 111859922
" />
<path d="M19905465.282421 110636763.358442 A414048.000000 414048.000000 0.0 0 0 19900590.590669 110711712.010594" />
<path d="M19926063.180001 110593659.001121 A97337.000000 97337.000000 0.0 0 0 19905462.769170 110636762.953714" />
<path d="M19926074 110564813
L19926074 110593668
" />
<path d="M19540089 110564813
L19926074 110564813
" />
<path d="M19540089 111856550
L19540089 110564813
" />
<path d="M19540120.069558 111856551.885223 A776806.000000 776806.000000 0.0 0 0 19717154.721719 112398989.230398" />
<path d="M19717139.793560 112399003.821702 A648869.000000 648869.000000 0.0 0 0 20222869.996080 112593667.938199" />
<path d="M18349173.844717 112113427.820256 A312374.000000 312374.000000 0.0 0 0 18634711.001178 112296872.363939" />
<path d="M18248729.029787 111556756.121824 A1197522.000000 1197522.000000 0.0 0 0 18349158.380658 112113434.831412" />
<path d="M18349153.339950 111019559.913431 A1167813.000000 1167813.000000 0.0 0 0 18248727.098129 111556755.994955" />
<path d="M18634711.142947 110829787.093064 A311816.000000 311816.000000 0.0 0 0 18349157.656115 111019561.853744" />
<path d="M18915343.336536 111019582.961860 A310696.000000 310696.000000 0.0 0 0 18634711.005960 110829754.670037" />
<path d="M19017339.426414 111556756.852490 A1152989.000000 1152989.000000 0.0 0 0 18915393.407845 111019561.814462" />
<path d="M18915375.078495 112113426.936185 A1182290.000000 1182290.000000 0.0 0 0 19017323.339832 111556755.979398" />
<path d="M18634711.274413 112296899.447616 A311215.000000 311215.000000 0.0 0 0 18915393.115960 112113435.052193" />
<path d="M18634712.026192 112590275.293168 A632431.000000 632431.000000 0.0 0 0 19185021.159639 112322354.112198" />
<path d="M19185021.333120 112322354.203981 A1306284.000000 1306284.000000 0.0 0 0 19374827.583528 111560128.025577" />
<path d="M19374835.948878 111560128.454120 A1296146.000000 1296146.000000 0.0 0 0 19185020.912553 110807458.053752" />
<path d="M19185037.539713 110807446.574817 A629981.000000 629981.000000 0.0 0 0 18634710.984201 110536331.689268" />
<path d="M18634709.511330 110536358.451039 A631940.000000 631940.000000 0.0 0 0 18079717.772153 110807457.842171" />
<path d="M18079703.499162 110807449.174976 A1305016.000000 1305016.000000 0.0 0 0 17891596.718137 111560128.016058" />
<path d="M17891567.900677 111560126.220707 A1315284.000000 1315284.000000 0.0 0 0 18079717.628974 112322354.224973" />
<path d="M18079734.796165 112322342.162487 A634535.000000 634535.000000 0.0 0 0 18634711.011836 112590295.206489" />
<path d="M36338103 112553758
L36338103 110566499
" />
<path d="M36701978 112553758
L36338103 112553758
" />
<path d="M36701978 111660747
L36701978 112553758
" />
<path d="M37314307 111660747
L36701978 111660747
" />
<path d="M37314307 112553758
L37314307 111660747
" />
<path d="M37681180 112553758
L37314307 112553758
" />
<path d="M37681180 110713398
L37681180 112553758
" />
<path d="M37684364.633445 110638449.962445 A629413.000000 629413.000000 0.0 0 0 37681179.630373 110713398.006342" />
<path d="M37706653.505955 110595345.035868 A73779.000000 73779.000000 0.0 0 0 37684364.818087 110638449.973972" />
<path d="M37706662 110566499
L37706662 110595354
" />
<path d="M37314307 110566499
L37706662 110566499
" />
<path d="M37314307 111373694
L37314307 110566499
" />
<path d="M36701978 111373694
L37314307 111373694
" />
<path d="M36701978 110713398
L36701978 111373694
" />
<path d="M36706668.003550 110638450.906448 A430355.000000 430355.000000 0.0 0 0 36701977.988923 110713398.000275" />
<path d="M36730465.578661 110595361.910183 A82731.000000 82731.000000 0.0 0 0 36706661.772570 110638449.953272" />
<path d="M36730458 110566499
L36730458 110595354
" />
<path d="M36338103 110566499
L36730458 110566499
" />
<path d="M35502801.996067 112588989.725936 A1161790.000000 1161790.000000 0.0 0 0 35828266.126226 112542703.433693" />
<path d="M35828264.611146 112542698.365032 A871888.000000 871888.000000 0.0 0 0 36131244.924000 112381375.907428" />
<path d="M36131245 111529962
L36131245 112381376
" />
<path d="M35477320 111529962
L36131245 111529962
" />
<path d="M35477320 111829755
L35477320 111529962
" />
<path d="M35805969 111829755
L35477320 111829755
" />
<path d="M35805969 112196628
L35805969 111829755
" />
<path d="M35660755.839010 112274761.412754 A367851.000000 367851.000000 0.0 0 0 35805969.082298 112196628.093892" />
<path d="M35502802.001971 112295565.966639 A611566.000000 611566.000000 0.0 0 0 35660755.981262 112274761.930008" />
<path d="M35182426.570146 112107235.360452 A369564.000000 369564.000000 0.0 0 0 35502801.999544 112295560.099159" />
<path d="M35059490.190949 111536332.552577 A1058811.000000 1058811.000000 0.0 0 0 35182396.682911 112107252.169720" />
<path d="M35121697.601230 111123181.999517 A1129175.000000 1129175.000000 0.0 0 0 35059481.706320 111536332.010757" />
<path d="M35287516.203752 110901523.489117 A455639.000000 455639.000000 0.0 0 0 35121688.719680 111123178.902837" />
<path d="M35509173.013067 110834463.064301 A400637.000000 400637.000000 0.0 0 0 35287513.081949 110901519.123200" />
<path d="M35695984.283677 110872658.205418 A396692.000000 396692.000000 0.0 0 0 35509173.001148 110834440.028040" />
<path d="M35821695.768007 110974978.203051 A423736.000000 423736.000000 0.0 0 0 35695981.972977 110872663.050577" />
<path d="M35861794.034056 111040177.550449 A243488.000000 243488.000000 0.0 0 0 35821708.022219 110974967.980940" />
<path d="M35873055.943413 111089637.955294 A273491.000000 273491.000000 0.0 0 0 35861805.194462 111040172.936308" />
<path d="M35895157 111112124
L35873048 111089639
" />
<path d="M35914269 111089639
L35895157 111112124
" />
<path d="M36124874 110882407
L35914269 111089639
" />
<path d="M36124863.461050 110882412.626976 A616756.000000 616756.000000 0.0 0 0 35864990.876508 110625521.237857" />
<path d="M35864991.214550 110625520.599901 A765562.000000 765562.000000 0.0 0 0 35499803.997925 110534645.532301" />
<path d="M35499804.266159 110534657.755313 A830355.000000 830355.000000 0.0 0 0 35253972.979387 110577740.938692" />
<path d="M35253970.026239 110577732.051365 A716425.000000 716425.000000 0.0 0 0 34990903.925055 110734008.919753" />
<path d="M34990896.093808 110734000.704684 A833285.000000 833285.000000 0.0 0 0 34783671.939738 111049728.977851" />
<path d="M34783687.187448 111049734.428638 A1406371.000000 1406371.000000 0.0 0 0 34702351.846310 111568185.004929" />
<path d="M34702339.357629 111568184.735616 A1387764.000000 1387764.000000 0.0 0 0 34797911.946516 112104067.020984" />
<path d="M34797914.944407 112104065.850316 A802446.000000 802446.000000 0.0 0 0 35073722.153323 112461383.788977" />
<path d="M35073715.023084 112461394.119007 A723321.000000 723321.000000 0.0 0 0 35502802.008381 112588984.327535" />
<path d="M33825455.506907 112595341.438245 A688101.000000 688101.000000 0.0 0 0 34319927.708976 112413416.684727" />
<path d="M34319911.305166 112413401.831650 A746367.000000 746367.000000 0.0 0 0 34511234.362642 111848866.969460" />
<path d="M34511234 110566499
L34511234 111848867
" />
<path d="M34160475 110566499
L34511234 110566499
" />
<path d="M34160475 111851865
L34160475 110566499
" />
<path d="M34087008.754553 112183878.305490 A629157.000000 629157.000000 0.0 0 0 34160475.183927 111851864.989713" />
<path d="M33828450.355864 112301956.354558 A280067.000000 280067.000000 0.0 0 0 34087024.592811 112183886.715288" />
<path d="M33573465.178416 112183870.675579 A271765.000000 271765.000000 0.0 0 0 33828453.043720 112301931.396943" />
<path d="M33503149.353155 111861607.606230 A629449.000000 629449.000000 0.0 0 0 33573440.671535 112183887.170943" />
<path d="M33503177 110713398
L33503177 111861609
" />
<path d="M33508054.095407 110638450.800340 A414061.000000 414061.000000 0.0 0 0 33503177.223820 110713397.994215" />
<path d="M33528651.628164 110595347.868771 A97353.000000 97353.000000 0.0 0 0 33508049.046791 110638450.009387" />
<path d="M33528659 110566499
L33528659 110595354
" />
<path d="M33142675 110566499
L33528659 110566499
" />
<path d="M33142675 111858236
L33142675 110566499
" />
<path d="M33142648.944895 111858234.421960 A776872.000000 776872.000000 0.0 0 0 33319740.030160 112400674.975026" />
<path d="M33319736.229749 112400678.674627 A648854.000000 648854.000000 0.0 0 0 33825454.991096 112595353.859553" />
<path d="M31951725.672714 112115129.856427 A312460.000000 312460.000000 0.0 0 0 32237297.001306 112298558.409374" />
<path d="M31851320.833008 111558442.470208 A1197531.000000 1197531.000000 0.0 0 0 31951742.878589 112115122.053769" />
<path d="M31951743.818714 111021249.366590 A1167826.000000 1167826.000000 0.0 0 0 31851313.360647 111558441.981464" />
<path d="M32237297.117670 110831468.155657 A311835.000000 311835.000000 0.0 0 0 31951742.556208 111021248.811242" />
<path d="M32517947.618117 111021262.247678 A310708.000000 310708.000000 0.0 0 0 32237296.992518 110831442.415289" />
<path d="M32619932.124112 111558443.199818 A1152981.000000 1152981.000000 0.0 0 0 32517978.825340 111021249.079460" />
<path d="M32517965.730608 112115116.029494 A1182277.000000 1182277.000000 0.0 0 0 32619909.466666 111558441.971703" />
<path d="M32237297.234763 112298581.586772 A311197.000000 311197.000000 0.0 0 0 32517979.209052 112115122.094089" />
<path d="M32237298.377676 112591954.555181 A632411.000000 632411.000000 0.0 0 0 32787605.952912 112324040.966906" />
<path d="M32787611.092682 112324044.118410 A1306270.000000 1306270.000000 0.0 0 0 32977412.758051 111561815.014861" />
<path d="M32977430.650075 111561816.008186 A1296140.000000 1296140.000000 0.0 0 0 32787605.887981 110809145.068858" />
<path d="M32787637.310327 110809123.370270 A629994.000000 629994.000000 0.0 0 0 32237297.019462 110538019.382631" />
<path d="M32237295.894284 110538038.654774 A631959.000000 631959.000000 0.0 0 0 31682303.699103 110809144.791569" />
<path d="M31682294.383545 110809139.147510 A1305029.000000 1305029.000000 0.0 0 0 31494182.955733 111561815.002521" />
<path d="M31494163.649847 111561813.816646 A1315289.000000 1315289.000000 0.0 0 0 31682303.826540 112324041.105174" />
<path d="M31682264.574451 112324068.789753 A634526.000000 634526.000000 0.0 0 0 32237297.014722 112591981.256230" />
<path d="M30345972 110879034
L30345972 111427657
" />
<path d="M30636398 110879034
L30345972 110879034
" />
<path d="M30865895.668524 110962072.305046 A297319.000000 297319.000000 0.0 0 0 30636397.979814 110879033.734046" />
<path d="M30942534.154899 111159715.543338 A281472.000000 281472.000000 0.0 0 0 30865927.288595 110962039.727984" />
<path d="M30865916.769836 111355883.531321 A255707.000000 255707.000000 0.0 0 0 30942561.715194 111159716.014816" />
<path d="M30636398.259219 111427653.600441 A324894.000000 324894.000000 0.0 0 0 30865927.191786 111355894.236137" />
<path d="M30345972 111427657
L30636398 111427657
" />
<path d="M30345972 112553758
L29982472 112553758
" />
<path d="M30345972 111727451
L30345972 112553758
" />
<path d="M30585433 111727451
L30345972 111727451
" />
<path d="M30987157 112553758
L30585433 111727451
" />
<path d="M31366771 112553758
L30987157 112553758
" />
<path d="M30939564 111692600
L31366771 112553758
" />
<path d="M30939558.801969 111692586.052461 A535074.000000 535074.000000 0.0 0 0 31135554.862567 111564999.865817" />
<path d="M31135552.097223 111564997.125432 A616215.000000 616215.000000 0.0 0 0 31266340.202571 111368822.084578" />
<path d="M31266331.433061 111368818.300185 A562752.000000 562752.000000 0.0 0 0 31312432.804815 111150347.998388" />
<path d="M31312440.369566 111150348.327033 A555987.000000 555987.000000 0.0 0 0 31143423.733041 110725952.276164" />
<path d="M31143408.063189 110725972.218787 A755865.000000 755865.000000 0.0 0 0 30610915.024881 110566499.290125" />
<path d="M29982472 110566499
L30610915 110566499
" />
<path d="M29982472 112553758
L29982472 110566499
" />
<path d="M28365459 112553758
L28365459 110566499
" />
<path d="M28729334 112553758
L28365459 112553758
" />
<path d="M28729334 111660747
L28729334 112553758
" />
<path d="M29341663 111660747
L28729334 111660747
" />
<path d="M29341663 112553758
L29341663 111660747
" />
<path d="M29708536 112553758
L29341663 112553758
" />
<path d="M29708536 110713398
L29708536 112553758
" />
<path d="M29711717.817746 110638449.674249 A629957.000000 629957.000000 0.0 0 0 29708535.550393 110713398.007708" />
<path d="M29734000.742769 110595335.803480 A73822.000000 73822.000000 0.0 0 0 29711721.369148 110638450.052787" />
<path d="M29734018 110566499
L29734018 110595354
" />
<path d="M29341663 110566499
L29734018 110566499
" />
<path d="M29341663 111373694
L29341663 110566499
" />
<path d="M28729334 111373694
L29341663 111373694
" />
<path d="M28729334 110713398
L28729334 111373694
" />
<path d="M28734024.624171 110638451.000284 A430299.000000 430299.000000 0.0 0 0 28729334.006225 110713397.999845" />
<path d="M28757832.823698 110595373.666363 A82676.000000 82676.000000 0.0 0 0 28734017.916166 110638449.982764" />
<path d="M28757814 110566499
L28757814 110595354
" />
<path d="M28365459 110566499
L28757814 110566499
" />
<path d="M27603608 112553758
L27259220 112553758
" />
<path d="M27603608 110869666
L27603608 112553758
" />
<path d="M28168345 110869666
L27603608 110869666
" />
<path d="M28168345 110566499
L28168345 110869666
" />
<path d="M26723338 110566499
L28168345 110566499
" />
<path d="M26723338 110869666
L26723338 110566499
" />
<path d="M27259220 110869666
L26723338 110869666
" />
<path d="M27259220 112553758
L27259220 110869666
" />
<path d="M35542525 31558629
L35542525 29571371
" />
<path d="M36818523 31558629
L35542525 31558629
" />
<path d="M36818523 31265206
L36818523 31558629
" />
<path d="M35906400 31265206
L36818523 31265206
" />
<path d="M35906400 29718270
L35906400 31265206
" />
<path d="M35911077.793727 29643320.063931 A430335.000000 430335.000000 0.0 0 0 35906399.791710 29718270.005215" />
<path d="M35934865.986404 29600211.385401 A82695.000000 82695.000000 0.0 0 0 35911083.955407 29643320.990875" />
<path d="M35934880 29571371
L35934880 29600226
" />
<path d="M35542525 29571371
L35934880 29571371
" />
<path d="M34697481 31565000
L34455397 31565000
" />
<path d="M35329296 29571371
L34697481 31565000
" />
<path d="M34981536 29571371
L35329296 29571371
" />
<path d="M34592553 30968410
L34981536 29571371
" />
<path d="M34174715 29571371
L34592553 30968410
" />
<path d="M33817211 29571371
L34174715 29571371
" />
<path d="M34455397 31565000
L33817211 29571371
" />
<path d="M32353467 31558629
L32353467 29571371
" />
<path d="M33629465 31558629
L32353467 31558629
" />
<path d="M33629465 31265206
L33629465 31558629
" />
<path d="M32717342 31265206
L33629465 31265206
" />
<path d="M32717342 29718270
L32717342 31265206
" />
<path d="M32722020.258253 29643320.133908 A430293.000000 430293.000000 0.0 0 0 32717341.804863 29718270.004886" />
<path d="M32745816.771695 29600219.499696 A82654.000000 82654.000000 0.0 0 0 32722025.811547 29643320.961415" />
<path d="M32745823 29571371
L32745823 29600226
" />
<path d="M32353467 29571371
L32745823 29571371
" />
<path d="M29100704 31558629
L29100704 29571371
" />
<path d="M29425980 31558629
L29100704 31558629
" />
<path d="M29425980 30164588
L29425980 31558629
" />
<path d="M30121502 31558629
L29425980 30164588
" />
<path d="M30456147 31558629
L30121502 31558629
" />
<path d="M30456147 29718270
L30456147 31558629
" />
<path d="M30461009.666021 29643319.692840 A414193.000000 414193.000000 0.0 0 0 30456147.046412 29718269.998793" />
<path d="M30482008.784097 29600230.089738 A95369.000000 95369.000000 0.0 0 0 30461018.281640 29643321.056878" />
<path d="M30482004 29571371
L30482004 29600226
" />
<path d="M30130870 29571371
L30482004 29571371
" />
<path d="M30149982 30879221
L30130870 29571371
" />
<path d="M29476945 29571371
L30149982 30879221
" />
<path d="M29100704 29571371
L29476945 29571371
" />
<path d="M28746947 31558629
L27611477 31558629
" />
<path d="M28746947 31268204
L28746947 31558629
" />
<path d="M28341850 31268204
L28746947 31268204
" />
<path d="M28341850 29861796
L28341850 31268204
" />
<path d="M28730833 29861796
L28341850 29861796
" />
<path d="M28730833 29571371
L28730833 29861796
" />
<path d="M27633587 29571371
L28730833 29571371
" />
<path d="M27633587 29861796
L27633587 29571371
" />
<path d="M28000460 29861796
L27633587 29861796
" />
<path d="M28000460 31268204
L28000460 29861796
" />
<path d="M27611477 31268204
L28000460 31268204
" />
<path d="M27611477 31558629
L27611477 31268204
" />
<path d="M20268963 31565000
L20268963 29577741
" />
<path d="M20594239 31565000
L20268963 31565000
" />
<path d="M20594239 30170958
L20594239 31565000
" />
<path d="M21289761 31565000
L20594239 30170958
" />
<path d="M21624406 31565000
L21289761 31565000
" />
<path d="M21624406 29724640
L21624406 31565000
" />
<path d="M21629276.017977 29649691.688863 A414033.000000 414033.000000 0.0 0 0 21624406.320817 29724639.991675" />
<path d="M21650272.085461 29606603.766174 A95414.000000 95414.000000 0.0 0 0 21629278.233973 29649692.047304" />
<path d="M21650263 29577741
L21650263 29606596
" />
<path d="M21299130 29577741
L21650263 29577741
" />
<path d="M21318242 30885592
L21299130 29577741
" />
<path d="M20645204 29577741
L21318242 30885592
" />
<path d="M20268963 29577741
L20645204 29577741
" />
<path d="M19915206 31565000
L18779737 31565000
" />
<path d="M19915206 31274575
L19915206 31565000
" />
<path d="M19510110 31274575
L19915206 31274575
" />
<path d="M19510110 29868167
L19510110 31274575
" />
<path d="M19899092 29868167
L19510110 29868167
" />
<path d="M19899092 29577741
L19899092 29868167
" />
<path d="M18801847 29577741
L19899092 29577741
" />
<path d="M18801847 29868167
L18801847 29577741
" />
<path d="M19168719 29868167
L18801847 29868167
" />
<path d="M19168719 31274575
L19168719 29868167
" />
<path d="M18779737 31274575
L19168719 31274575
" />
<path d="M18779737 31565000
L18779737 31274575
" />
<path d="M36418485 9122991
L36054985 7898333
" />
<path d="M35684740 9122991
L36418485 9122991
" />
<path d="M36054985 7898333
L35684740 9122991
" />
<path d="M37573441 10565000
L36845691 10565000
" />
<path d="M36227366 6565000
L37573441 10565000
" />
<path d="M35882604 6565000
L36227366 6565000
" />
<path d="M34536529 10565000
L35882604 6565000
" />
<path d="M35250788 10565000
L34536529 10565000
" />
<path d="M35531845 9640136
L35250788 10565000
" />
<path d="M36571380 9640136
L35531845 9640136
" />
<path d="M36845691 10565000
L36571380 9640136
" />
<path d="M29146984 10565000
L28503177 10565000
" />
<path d="M29146984 8715272
L29146984 10565000
" />
<path d="M30633962 8715272
L29146984 8715272
" />
<path d="M30633962 8134421
L30633962 8715272
" />
<path d="M29146984 8134421
L30633962 8134421
" />
<path d="M29146984 7171333
L29146984 8134421
" />
<path d="M30977975 7171333
L29146984 7171333
" />
<path d="M30977975 6590482
L30977975 7171333
" />
<path d="M28503177 6590482
L30977975 6590482
" />
<path d="M28503177 10565000
L28503177 6590482
" />
<path d="M25945185 10565000
L25479755 10565000
" />
<path d="M26519291 8114934
L25945185 10565000
" />
<path d="M27081404 10565000
L26519291 8114934
" />
<path d="M27534093 10565000
L27081404 10565000
" />
<path d="M28050488 6590482
L27534093 10565000
" />
<path d="M27463642 6590482
L28050488 6590482
" />
<path d="M27253036 9078772
L27463642 6590482
" />
<path d="M26742637 6903018
L27253036 9078772
" />
<path d="M26360400 6903018
L26742637 6903018
" />
<path d="M25850001 9084768
L26360400 6903018
" />
<path d="M25581685 6590482
L25850001 9084768
" />
<path d="M24956615 6590482
L25581685 6590482
" />
<path d="M25479755 10565000
L24956615 6590482
" />
<path d="M22673685 7164588
L22673685 10003636
" />
<path d="M22973479 7164588
L22673685 7164588
" />
<path d="M23598548.742893 7343340.365925 A991734.000000 991734.000000 0.0 0 0 22973478.994260 7164587.896517" />
<path d="M23920439.636845 7847371.354930 A943849.000000 943849.000000 0.0 0 0 23598549.006596 7343339.991845" />
<path d="M24013011.773070 8612591.961913 A2812323.000000 2812323.000000 0.0 0 0 23920453.277172 7847367.926906" />
<path d="M23911097.159767 9346342.255313 A2130650.000000 2130650.000000 0.0 0 0 24013014.157930 8612591.994199" />
<path d="M23556954.651647 9831257.707072 A956983.000000 956983.000000 0.0 0 0 23911084.467961 9346338.150752" />
<path d="M22903027.130593 10003633.383745 A1116722.000000 1116722.000000 0.0 0 0 23556952.077635 9831254.122367" />
<path d="M22673685 10003636
L22903027 10003636
" />
<path d="M22922514 10565000
L21971417 10565000
" />
<path d="M22922514.738781 10564983.105040 A1965960.000000 1965960.000000 0.0 0 0 23945935.166553 10328912.306981" />
<path d="M23945932.773860 10328908.299286 A1397241.000000 1397241.000000 0.0 0 0 24523412.610642 9649503.844611" />
<path d="M24523407.391487 9649501.795278 A2854177.000000 2854177.000000 0.0 0 0 24721276.705762 8606595.999866" />
<path d="M24721282.801501 8606596.073709 A2864914.000000 2864914.000000 0.0 0 0 24609603.682515 7777292.091441" />
<path d="M24609589.076951 7777296.290166 A2076418.000000 2076418.000000 0.0 0 0 24300067.056941 7139104.959073" />
<path d="M24300060.697636 7139109.720527 A1361803.000000 1361803.000000 0.0 0 0 23812152.087170 6734008.823142" />
<path d="M23812144.515420 6734026.831271 A1869468.000000 1869468.000000 0.0 0 0 22998961.013599 6590482.283289" />
<path d="M21971417 6590482
L22998961 6590482
" />
<path d="M21971417 10565000
L21971417 6590482
" />
<path d="M16148671 10565000
L15529596 10565000
" />
<path d="M16148671 7796403
L16148671 10565000
" />
<path d="M16735517 9251153
L16148671 7796403
" />
<path d="M17086276 9251153
L16735517 9251153
" />
<path d="M17711346 7789658
L17086276 9251153
" />
<path d="M17711346 10565000
L17711346 7789658
" />
<path d="M18337166 10565000
L17711346 10565000
" />
<path d="M18337166 6584487
L18337166 10565000
" />
<path d="M17705350 6584487
L18337166 6584487
" />
<path d="M16933381 8415478
L17705350 6584487
" />
<path d="M16161412 6590482
L16933381 8415478
" />
<path d="M15529596 6590482
L16161412 6590482
" />
<path d="M15529596 10565000
L15529596 6590482
" />
<path d="M15032688 10565000
L12461955 10565000
" />
<path d="M15032688 9978153
L15032688 10565000
" />
<path d="M13163473 9978153
L15032688 9978153
" />
<path d="M13163473 8791719
L13163473 9978153
" />
<path d="M14714157 8791719
L13163473 8791719
" />
<path d="M14714157 8198127
L14714157 8791719
" />
<path d="M13163473 8198127
L14714157 8198127
" />
<path d="M13163473 7177329
L13163473 8198127
" />
<path d="M15052174 7177329
L13163473 7177329
" />
<path d="M15052174 6590482
L15052174 7177329
" />
<path d="M12461955 6590482
L15052174 6590482
" />
<path d="M12461955 10565000
L12461955 6590482
" />
<path d="M6810840 10565000
L6345410 10565000
" />
<path d="M7384946 8114934
L6810840 10565000
" />
<path d="M7947059 10565000
L7384946 8114934
" />
<path d="M8399748 10565000
L7947059 10565000
" />
<path d="M8916143 6590482
L8399748 10565000
" />
<path d="M8329296 6590482
L8916143 6590482
" />
<path d="M8118691 9078772
L8329296 6590482
" />
<path d="M7608292 6903018
L8118691 9078772
" />
<path d="M7226055 6903018
L7608292 6903018
" />
<path d="M6715656 9084768
L7226055 6903018
" />
<path d="M6447340 6590482
L6715656 9084768
" />
<path d="M5822270 6590482
L6447340 6590482
" />
<path d="M6345410 10565000
L5822270 6590482
" />
<path d="M3583559 7215553
L3583559 8312798
" />
<path d="M4164410 7215553
L3583559 7215553
" />
<path d="M4623473.792233 7381559.056500 A594759.000000 594759.000000 0.0 0 0 4164409.973501 7215552.651476" />
<path d="M4776735.028957 7776916.935183 A562920.000000 562920.000000 0.0 0 0 4623468.864027 7381564.128201" />
<path d="M4623460.392263 8169263.192330 A511430.000000 511430.000000 0.0 0 0 4776738.670870 7776917.017131" />
<path d="M4164411.178866 8312782.533245 A649862.000000 649862.000000 0.0 0 0 4623468.966388 8169271.958609" />
<path d="M3583559 8312798
L4164410 8312798
" />
<path d="M3583559 10565000
L2856559 10565000
" />
<path d="M3583559 8912386
L3583559 10565000
" />
<path d="M4062480 8912386
L3583559 8912386
" />
<path d="M4865927 10565000
L4062480 8912386
" />
<path d="M5625156 10565000
L4865927 10565000
" />
<path d="M4770743 8842684
L5625156 10565000
" />
<path d="M4770748.609011 8842699.045423 A1070219.000000 1070219.000000 0.0 0 0 5162723.169967 8587485.165919" />
<path d="M5162737.985640 8587499.837841 A1232529.000000 1232529.000000 0.0 0 0 5424294.016982 8195129.007090" />
<path d="M5424283.378988 8195124.413306 A1125518.000000 1125518.000000 0.0 0 0 5516479.742138 7758179.997874" />
<path d="M5516481.145537 7758180.050848 A1111975.000000 1111975.000000 0.0 0 0 5178462.911097 6909388.091965" />
<path d="M5175816 6906902
L5178463 6909388
" />
<path d="M5173157 6904425
L5175816 6906902
" />
<path d="M5170487 6901958
L5173157 6904425
" />
<path d="M5167805 6899500
L5170487 6901958
" />
<path d="M5165110 6897053
L5167805 6899500
" />
<path d="M5162404 6894615
L5165110 6897053
" />
<path d="M5159686 6892187
L5162404 6894615
" />
<path d="M5156957 6889768
L5159686 6892187
" />
<path d="M5154215 6887359
L5156957 6889768
" />
<path d="M5151461 6884960
L5154215 6887359
" />
<path d="M5148696 6882571
L5151461 6884960
" />
<path d="M5145919 6880192
L5148696 6882571
" />
<path d="M5143130 6877822
L5145919 6880192
" />
<path d="M5140329 6875462
L5143130 6877822
" />
<path d="M5137516 6873111
L5140329 6875462
" />
<path d="M5134691 6870771
L5137516 6873111
" />
<path d="M5131854 6868440
L5134691 6870771
" />
<path d="M5129006 6866119
L5131854 6868440
" />
<path d="M5126145 6863807
L5129006 6866119
" />
<path d="M5123273 6861506
L5126145 6863807
" />
<path d="M5120389 6859214
L5123273 6861506
" />
<path d="M5117493 6856932
L5120389 6859214
" />
<path d="M5114585 6854659
L5117493 6856932
" />
<path d="M5111666 6852396
L5114585 6854659
" />
<path d="M5108734 6850143
L5111666 6852396
" />
<path d="M5105790 6847900
L5108734 6850143
" />
<path d="M5102835 6845666
L5105790 6847900
" />
<path d="M5099868 6843443
L5102835 6845666
" />
<path d="M5096889 6841229
L5099868 6843443
" />
<path d="M5093898 6839024
L5096889 6841229
" />
<path d="M5090895 6836830
L5093898 6839024
" />
<path d="M5087880 6834645
L5090895 6836830
" />
<path d="M5084854 6832470
L5087880 6834645
" />
<path d="M5081815 6830304
L5084854 6832470
" />
<path d="M5078765 6828148
L5081815 6830304
" />
<path d="M5075703 6826002
L5078765 6828148
" />
<path d="M5072629 6823866
L5075703 6826002
" />
<path d="M5069543 6821740
L5072629 6823866
" />
<path d="M5066445 6819623
L5069543 6821740
" />
<path d="M5063335 6817516
L5066445 6819623
" />
<path d="M5060214 6815419
L5063335 6817516
" />
<path d="M5057081 6813331
L5060214 6815419
" />
<path d="M5053935 6811253
L5057081 6813331
" />
<path d="M5050778 6809185
L5053935 6811253
" />
<path d="M5047609 6807127
L5050778 6809185
" />
<path d="M5044428 6805078
L5047609 6807127
" />
<path d="M5041235 6803039
L5044428 6805078
" />
<path d="M5038031 6801010
L5041235 6803039
" />
<path d="M5034814 6798991
L5038031 6801010
" />
<path d="M5031586 6796981
L5034814 6798991
" />
<path d="M5028346 6794981
L5031586 6796981
" />
<path d="M5025094 6792991
L5028346 6794981
" />
<path d="M5021830 6791010
L5025094 6792991
" />
<path d="M5018554 6789039
L5021830 6791010
" />
<path d="M5015266 6787078
L5018554 6789039
" />
<path d="M5011966 6785127
L5015266 6787078
" />
<path d="M5008655 6783186
L5011966 6785127
" />
<path d="M5005332 6781254
L5008655 6783186
" />
<path d="M5001996 6779332
L5005332 6781254
" />
<path d="M4998649 6777419
L5001996 6779332
" />
<path d="M4995290 6775517
L4998649 6777419
" />
<path d="M4991920 6773624
L4995290 6775517
" />
<path d="M4988537 6771740
L4991920 6773624
" />
<path d="M4985142 6769867
L4988537 6771740
" />
<path d="M4981736 6768003
L4985142 6769867
" />
<path d="M4978318 6766149
L4981736 6768003
" />
<path d="M4974888 6764305
L4978318 6766149
" />
<path d="M4971445 6762470
L4974888 6764305
" />
<path d="M4967992 6760646
L4971445 6762470
" />
<path d="M4964526 6758831
L4967992 6760646
" />
<path d="M4961048 6757025
L4964526 6758831
" />
<path d="M4957559 6755230
L4961048 6757025
" />
<path d="M4954057 6753444
L4957559 6755230
" />
<path d="M4950544 6751668
L4954057 6753444
" />
<path d="M4947019 6749901
L4950544 6751668
" />
<path d="M4943482 6748145
L4947019 6749901
" />
<path d="M4939933 6746398
L4943482 6748145
" />
<path d="M4936372 6744660
L4939933 6746398
" />
<path d="M4932800 6742933
L4936372 6744660
" />
<path d="M4929215 6741215
L4932800 6742933
" />
<path d="M4925619 6739507
L4929215 6741215
" />
<path d="M4922010 6737809
L4925619 6739507
" />
<path d="M4918390 6736120
L4922010 6737809
" />
<path d="M4914758 6734442
L4918390 6736120
" />
<path d="M4911115 6732773
L4914758 6734442
" />
<path d="M4907459 6731113
L4911115 6732773
" />
<path d="M4903791 6729464
L4907459 6731113
" />
<path d="M4900112 6727824
L4903791 6729464
" />
<path d="M4896420 6726194
L4900112 6727824
" />
<path d="M4892717 6724573
L4896420 6726194
" />
<path d="M4889002 6722962
L4892717 6724573
" />
<path d="M4885275 6721362
L4889002 6722962
" />
<path d="M4881536 6719770
L4885275 6721362
" />
<path d="M4877786 6718189
L4881536 6719770
" />
<path d="M4874023 6716617
L4877786 6718189
" />
<path d="M4870249 6715055
L4874023 6716617
" />
<path d="M4866462 6713503
L4870249 6715055
" />
<path d="M4862664 6711960
L4866462 6713503
" />
<path d="M4858854 6710427
L4862664 6711960
" />
<path d="M4855032 6708904
L4858854 6710427
" />
<path d="M4851199 6707391
L4855032 6708904
" />
<path d="M4847353 6705887
L4851199 6707391
" />
<path d="M4843495 6704393
L4847353 6705887
" />
<path d="M4839626 6702909
L4843495 6704393
" />
<path d="M4835745 6701435
L4839626 6702909
" />
<path d="M4831852 6699970
L4835745 6701435
" />
<path d="M4827947 6698515
L4831852 6699970
" />
<path d="M4824030 6697070
L4827947 6698515
" />
<path d="M4820101 6695634
L4824030 6697070
" />
<path d="M4816160 6694209
L4820101 6695634
" />
<path d="M4812208 6692793
L4816160 6694209
" />
<path d="M4808244 6691386
L4812208 6692793
" />
<path d="M4804267 6689990
L4808244 6691386
" />
<path d="M4800279 6688603
L4804267 6689990
" />
<path d="M4796279 6687226
L4800279 6688603
" />
<path d="M4792267 6685858
L4796279 6687226
" />
<path d="M4788244 6684501
L4792267 6685858
" />
<path d="M4784208 6683153
L4788244 6684501
" />
<path d="M4780161 6681815
L4784208 6683153
" />
<path d="M4776101 6680486
L4780161 6681815
" />
<path d="M4772030 6679167
L4776101 6680486
" />
<path d="M4767947 6677858
L4772030 6679167
" />
<path d="M4763852 6676559
L4767947 6677858
" />
<path d="M4759745 6675270
L4763852 6676559
" />
<path d="M4755627 6673990
L4759745 6675270
" />
<path d="M4751496 6672720
L4755627 6673990
" />
<path d="M4747354 6671460
L4751496 6672720
" />
<path d="M4743199 6670209
L4747354 6671460
" />
<path d="M4739033 6668968
L4743199 6670209
" />
<path d="M4734855 6667737
L4739033 6668968
" />
<path d="M4730665 6666516
L4734855 6667737
" />
<path d="M4726463 6665304
L4730665 6666516
" />
<path d="M4722250 6664102
L4726463 6665304
" />
<path d="M4718024 6662910
L4722250 6664102
" />
<path d="M4713787 6661727
L4718024 6662910
" />
<path d="M4709538 6660555
L4713787 6661727
" />
<path d="M4705277 6659392
L4709538 6660555
" />
<path d="M4701004 6658238
L4705277 6659392
" />
<path d="M4696719 6657095
L4701004 6658238
" />
<path d="M4692422 6655961
L4696719 6657095
" />
<path d="M4688113 6654837
L4692422 6655961
" />
<path d="M4683793 6653723
L4688113 6654837
" />
<path d="M4679461 6652618
L4683793 6653723
" />
<path d="M4675116 6651523
L4679461 6652618
" />
<path d="M4670760 6650438
L4675116 6651523
" />
<path d="M4666392 6649362
L4670760 6650438
" />
<path d="M4662012 6648297
L4666392 6649362
" />
<path d="M4657621 6647241
L4662012 6648297
" />
<path d="M4653217 6646195
L4657621 6647241
" />
<path d="M4648802 6645158
L4653217 6646195
" />
<path d="M4644374 6644131
L4648802 6645158
" />
<path d="M4639935 6643114
L4644374 6644131
" />
<path d="M4635484 6642107
L4639935 6643114
" />
<path d="M4631021 6641110
L4635484 6642107
" />
<path d="M4626546 6640122
L4631021 6641110
" />
<path d="M4622060 6639144
L4626546 6640122
" />
<path d="M4617561 6638175
L4622060 6639144
" />
<path d="M4613051 6637217
L4617561 6638175
" />
<path d="M4608528 6636268
L4613051 6637217
" />
<path d="M4603994 6635329
L4608528 6636268
" />
<path d="M4599448 6634399
L4603994 6635329
" />
<path d="M4594890 6633479
L4599448 6634399
" />
<path d="M4590321 6632570
L4594890 6633479
" />
<path d="M4585739 6631669
L4590321 6632570
" />
<path d="M4581145 6630779
L4585739 6631669
" />
<path d="M4576540 6629898
L4581145 6630779
" />
<path d="M4571923 6629027
L4576540 6629898
" />
<path d="M4567294 6628166
L4571923 6629027
" />
<path d="M4562653 6627314
L4567294 6628166
" />
<path d="M4558000 6626472
L4562653 6627314
" />
<path d="M4553335 6625640
L4558000 6626472
" />
<path d="M4548658 6624818
L4553335 6625640
" />
<path d="M4543970 6624005
L4548658 6624818
" />
<path d="M4539270 6623202
L4543970 6624005
" />
<path d="M4534557 6622409
L4539270 6623202
" />
<path d="M4529833 6621626
L4534557 6622409
" />
<path d="M4525097 6620852
L4529833 6621626
" />
<path d="M4520350 6620088
L4525097 6620852
" />
<path d="M4515590 6619334
L4520350 6620088
" />
<path d="M4510818 6618589
L4515590 6619334
" />
<path d="M4506035 6617854
L4510818 6618589
" />
<path d="M4501240 6617129
L4506035 6617854
" />
<path d="M4496432 6616414
L4501240 6617129
" />
<path d="M4491613 6615708
L4496432 6616414
" />
<path d="M4486782 6615013
L4491613 6615708
" />
<path d="M4481940 6614326
L4486782 6615013
" />
<path d="M4477085 6613650
L4481940 6614326
" />
<path d="M4472218 6612983
L4477085 6613650
" />
<path d="M4467340 6612326
L4472218 6612983
" />
<path d="M4462450 6611679
L4467340 6612326
" />
<path d="M4457548 6611042
L4462450 6611679
" />
<path d="M4452634 6610414
L4457548 6611042
" />
<path d="M4447708 6609796
L4452634 6610414
" />
<path d="M4442770 6609188
L4447708 6609796
" />
<path d="M4437820 6608589
L4442770 6609188
" />
<path d="M4432859 6608000
L4437820 6608589
" />
<path d="M4427885 6607421
L4432859 6608000
" />
<path d="M4422900 6606852
L4427885 6607421
" />
<path d="M4417903 6606292
L4422900 6606852
" />
<path d="M4412894 6605743
L4417903 6606292
" />
<path d="M4407873 6605202
L4412894 6605743
" />
<path d="M4402840 6604672
L4407873 6605202
" />
<path d="M4397796 6604151
L4402840 6604672
" />
<path d="M4392739 6603640
L4397796 6604151
" />
<path d="M4387671 6603139
L4392739 6603640
" />
<path d="M4382591 6602648
L4387671 6603139
" />
<path d="M4377499 6602166
L4382591 6602648
" />
<path d="M4372395 6601694
L4377499 6602166
" />
<path d="M4367279 6601232
L4372395 6601694
" />
<path d="M4362151 6600779
L4367279 6601232
" />
<path d="M4357012 6600336
L4362151 6600779
" />
<path d="M4351860 6599903
L4357012 6600336
" />
<path d="M4346697 6599480
L4351860 6599903
" />
<path d="M4341522 6599066
L4346697 6599480
" />
<path d="M4336335 6598662
L4341522 6599066
" />
<path d="M4331136 6598268
L4336335 6598662
" />
<path d="M4325925 6597884
L4331136 6598268
" />
<path d="M4320702 6597509
L4325925 6597884
" />
<path d="M4315468 6597144
L4320702 6597509
" />
<path d="M4310221 6596789
L4315468 6597144
" />
<path d="M4304963 6596443
L4310221 6596789
" />
<path d="M4299693 6596108
L4304963 6596443
" />
<path d="M4294411 6595782
L4299693 6596108
" />
<path d="M4289117 6595465
L4294411 6595782
" />
<path d="M4283811 6595159
L4289117 6595465
" />
<path d="M4278494 6594862
L4283811 6595159
" />
<path d="M4273164 6594575
L4278494 6594862
" />
<path d="M4267823 6594298
L4273164 6594575
" />
<path d="M4262470 6594030
L4267823 6594298
" />
<path d="M4257104 6593772
L4262470 6594030
" />
<path d="M4251727 6593524
L4257104 6593772
" />
<path d="M4246339 6593285
L4251727 6593524
" />
<path d="M4240938 6593057
L4246339 6593285
" />
<path d="M4235525 6592838
L4240938 6593057
" />
<path d="M4230101 6592628
L4235525 6592838
" />
<path d="M4224664 6592429
L4230101 6592628
" />
<path d="M4219216 6592239
L4224664 6592429
" />
<path d="M4213756 6592059
L4219216 6592239
" />
<path d="M4208284 6591889
L4213756 6592059
" />
<path d="M4202800 6591728
L4208284 6591889
" />
<path d="M4197305 6591577
L4202800 6591728
" />
<path d="M4191797 6591436
L4197305 6591577
" />
<path d="M4186278 6591305
L4191797 6591436
" />
<path d="M4180746 6591183
L4186278 6591305
" />
<path d="M4175203 6591071
L4180746 6591183
" />
<path d="M4169648 6590969
L4175203 6591071
" />
<path d="M4164081 6590877
L4169648 6590969
" />
<path d="M4158502 6590794
L4164081 6590877
" />
<path d="M4152912 6590721
L4158502 6590794
" />
<path d="M4147309 6590658
L4152912 6590721
" />
<path d="M4141695 6590604
L4147309 6590658
" />
<path d="M4136069 6590560
L4141695 6590604
" />
<path d="M4130430 6590526
L4136069 6590560
" />
<path d="M4124780 6590502
L4130430 6590526
" />
<path d="M4119119 6590487
L4124780 6590502
" />
<path d="M4113445 6590482
L4119119 6590487
" />
<path d="M2856559 6590482
L4113445 6590482
" />
<path d="M2856559 10565000
L2856559 6590482
" />
</g>
<g style="fill:#000000; fill-opacity:1.0; 
stroke:#000000; stroke-width:1.000000; stroke-opacity:1; 
stroke-linecap:round; stroke-linejoin:round;">
<circle cx="30360273.000000" cy="25511491.000000" r="65000.000000" /> 
</g>
<g style="fill:#000000; fill-opacity:1.0; 
stroke:#000000; stroke-width:130000.000000; stroke-opacity:1; 
stroke-linecap:round; stroke-linejoin:round;">
</g>
<g style="fill:#000000; fill-opacity:0.0; 
stroke:#000000; stroke-width:130000.000000; stroke-opacity:1; 
stroke-linecap:round; stroke-linejoin:round;">
<path d="M30589653 25641811
L30360273 25511491
" />
<path d="M29711993 27162001
L30589653 25641811
" />
<path d="M29483513 27030061
L29711993 27162001
" />
<path d="M30360273 25511491
L29483513 27030061
" />
<path d="M34961993 27030061
L34085233 25511451
" />
<path d="M34733513 27162001
L34961993 27030061
" />
<path d="M33855853 25641811
L34733513 27162001
" />
<path d="M34085233 25511451
L33855853 25641811
" />
<path d="M29260683 24411861
L29130323 24182481
" />
<path d="M27742073 25288621
L29260683 24411861
" />
<path d="M27610173 25060141
L27742073 25288621
" />
<path d="M29130323 24182481
L27610173 25060141
" />
<path d="M36835323 25060141
L35315133 24182431
" />
<path d="M36703433 25288621
L36835323 25060141
" />
<path d="M35184773 24411861
L36703433 25288621
" />
<path d="M35315133 24182431
L35184773 24411861
" />
<path d="M37473053 22417481
L35719963 22417481
" />
<path d="M37473053 22681321
L37473053 22417481
" />
<path d="M35716963 22681321
L37473053 22681321
" />
<path d="M35722963 22549381
L35716963 22681321
" />
<path d="M35719963 22417481
L35722963 22549381
" />
<path d="M28728843 22417481
L26972710 22417481
" />
<path d="M28722843 22549381
L28728843 22417481
" />
<path d="M28728843 22681321
L28722843 22549381
" />
<path d="M26972710 22681321
L28728843 22681321
" />
<path d="M26972710 22417481
L26972710 22681321
" />
<path d="M36835323 20038621
L36703433 19810141
" />
<path d="M35317263 20915111
L36835323 20038621
" />
<path d="M35185493 20686491
L35317263 20915111
" />
<path d="M36703433 19810141
L35185493 20686491
" />
<path d="M29260683 20686901
L27742073 19810141
" />
<path d="M29130323 20916281
L29260683 20686901
" />
<path d="M27610173 20038621
L29130323 20916281
" />
<path d="M27742073 19810141
L27610173 20038621
" />
<path d="M34961993 18068701
L34733513 17936761
" />
<path d="M34085643 19586591
L34961993 18068701
" />
<path d="M33857023 19454871
L34085643 19586591
" />
<path d="M34733513 17936761
L33857023 19454871
" />
<path d="M30589653 19456951
L29711993 17936761
" />
<path d="M30360273 19587271
L30589653 19456951
" />
<path d="M29483513 18068701
L30360273 19587271
" />
<path d="M29711993 17936761
L29483513 18068701
" />
<path d="M32354653 17299681
L32090813 17299381
" />
<path d="M32354653 19052471
L32354653 17299681
" />
<path d="M32222703 19049471
L32354653 19052471
" />
<path d="M32090813 19055471
L32222703 19049471
" />
<path d="M32090813 17299381
L32090813 19055471
" />
</g>
<g style="fill:#000000; fill-opacity:1.0; 
stroke:#000000; stroke-width:1.000000; stroke-opacity:1; 
stroke-linecap:round; stroke-linejoin:round;">
<circle cx="30360273.000000" cy="106511491.000000" r="65000.000000" /> 
</g>
<g style="fill:#000000; fill-opacity:1.0; 
stroke:#000000; stroke-width:130000.000000; stroke-opacity:1; 
stroke-linecap:round; stroke-linejoin:round;">
</g>
<g style="fill:#000000; fill-opacity:0.0; 
stroke:#000000; stroke-width:130000.000000; stroke-opacity:1; 
stroke-linecap:round; stroke-linejoin:round;">
<path d="M30589653 106641811
L30360273 106511491
" />
<path d="M29711993 108162001
L30589653 106641811
" />
<path d="M29483513 108030061
L29711993 108162001
" />
<path d="M30360273 106511491
L29483513 108030061
" />
<path d="M34961993 108030061
L34085233 106511451
" />
<path d="M34733513 108162001
L34961993 108030061
" />
<path d="M33855853 106641811
L34733513 108162001
" />
<path d="M34085233 106511451
L33855853 106641811
" />
<path d="M29260683 105411861
L29130323 105182481
" />
<path d="M27742073 106288621
L29260683 105411861
" />
<path d="M27610173 106060141
L27742073 106288621
" />
<path d="M29130323 105182481
L27610173 106060141
" />
<path d="M36835323 106060141
L35315133 105182431
" />
<path d="M36703433 106288621
L36835323 106060141
" />
<path d="M35184773 105411861
L36703433 106288621
" />
<path d="M35315133 105182431
L35184773 105411861
" />
<path d="M37473053 103417481
L35719963 103417481
" />
<path d="M37473053 103681321
L37473053 103417481
" />
<path d="M35716963 103681321
L37473053 103681321
" />
<path d="M35722963 103549381
L35716963 103681321
" />
<path d="M35719963 103417481
L35722963 103549381
" />
<path d="M28728843 103417481
L26972710 103417481
" />
<path d="M28722843 103549381
L28728843 103417481
" />
<path d="M28728843 103681321
L28722843 103549381
" />
<path d="M26972710 103681321
L28728843 103681321
" />
<path d="M26972710 103417481
L26972710 103681321
" />
<path d="M36835323 101038621
L36703433 100810141
" />
<path d="M35317263 101915111
L36835323 101038621
" />
<path d="M35185493 101686491
L35317263 101915111
" />
<path d="M36703433 100810141
L35185493 101686491
" />
<path d="M29260683 101686901
L27742073 100810141
" />
<path d="M29130323 101916281
L29260683 101686901
" />
<path d="M27610173 101038621
L29130323 101916281
" />
<path d="M27742073 100810141
L27610173 101038621
" />
<path d="M34961993 99068701
L34733513 98936761
" />
<path d="M34085643 100586591
L34961993 99068701
" />
<path d="M33857023 100454871
L34085643 100586591
" />
<path d="M34733513 98936761
L33857023 100454871
" />
<path d="M30589653 100456951
L29711993 98936761
" />
<path d="M30360273 100587271
L30589653 100456951
" />
<path d="M29483513 99068701
L30360273 100587271
" />
<path d="M29711993 98936761
L29483513 99068701
" />
<path d="M32354653 98299681
L32090813 98299381
" />
<path d="M32354653 100052471
L32354653 98299681
" />
<path d="M32222703 100049471
L32354653 100052471
" />
<path d="M32090813 100055471
L32222703 100049471
" />
<path d="M32090813 98299381
L32090813 100055471
" />
<circle cx="32215000.000000" cy="22565000.000000" r="3200000.000000" /> 
<circle cx="32215000.000000" cy="103565000.000000" r="3200000.000000" /> 
<circle cx="20215000.000000" cy="22565000.000000" r="3200000.000000" /> 
<circle cx="8715000.000000" cy="103565000.000000" r="2600000.000000" /> 
<circle cx="20215000.000000" cy="103565000.000000" r="3200000.000000" /> 
<path d="M31865000.000000 123965000.000000 A1600000.000000 1600000.000000 0.0 0 0 31865000.000000 127165000.000000" />
<path d="M6565000.000000 123965000.000000 A1600000.000000 1600000.000000 0.0 0 0 6565000.000000 127165000.000000" />
<path d="M31865000.000000 1465000.000000 A1600000.000000 1600000.000000 0.0 0 0 31865000.000000 4665000.000000" />
<path d="M6565000.000000 1465000.000000 A1600000.000000 1600000.000000 0.0 0 0 6565000.000000 4665000.000000" />
<path d="M33865000.000000 127165000.000000 A1600000.000000 1600000.000000 0.0 0 0 33865000.000000 123965000.000000" />
<path d="M8565000.000000 127165000.000000 A1600000.000000 1600000.000000 0.0 0 0 8565000.000000 123965000.000000" />
<path d="M33865000.000000 4665000.000000 A1600000.000000 1600000.000000 0.0 0 0 33865000.000000 1465000.000000" />
<path d="M8565000.000000 4665000.000000 A1600000.000000 1600000.000000 0.0 0 0 8565000.000000 1465000.000000" />
<path d="M31865000 127165000
L33865000 127165000
" />
<path d="M6565000 127165000
L8565000 127165000
" />
<path d="M31865000 4665000
L33865000 4665000
" />
<path d="M6565000 4665000
L8565000 4665000
" />
<path d="M31865000 123965000
L33865000 123965000
" />
<path d="M6565000 123965000
L8565000 123965000
" />
<path d="M31865000 1465000
L33865000 1465000
" />
<path d="M6565000 1465000
L8565000 1465000
" />
<path d="M65000 65000
L65000 128565000
" />
<path d="M40365000 65000
L65000 65000
" />
<path d="M40365000 128565000
L40365000 65000
" />
<path d="M65000 128565000
L40365000 128565000
" />
<path d="M23374200 121969965
L21990882 125770505
" />
<path d="M20822397 122560071
L22205677 118759495
" />
<path d="M24542697 118759495
L22205677 118759495
" />
<path d="M25925977 122560071
L24542697 118759495
" />
<path d="M27309308 118759495
L25925977 122560071
" />
<path d="M29646328 118759495
L27309308 118759495
" />
<path d="M27094513 125770505
L29646328 118759495
" />
<path d="M24757492 125770505
L27094513 125770505
" />
<path d="M22205677 118759495
L24757492 125770505
" />
<path d="M19439118 118759495
L17102097 118759495
" />
<path d="M21990882 125770505
L19439118 118759495
" />
<path d="M19653913 125770505
L21990882 125770505
" />
<path d="M17102097 118759495
L19653913 125770505
" />
<path d="M13429622 122081726
L13429622 120436707
" />
<path d="M14007653 122081726
L13429622 122081726
" />
<path d="M14007653.000709 122081736.998292 A822537.000000 822537.000000 0.0 0 0 14830136.998928 121259242.000000" />
<path d="M14830092.998928 121259241.997753 A822493.000000 822493.000000 0.0 0 0 14007653.000000 120436707.001708" />
<path d="M13429622 120436707
L14007653 120436707
" />
<path d="M14217272 118759495
L11092601 118759495
" />
<path d="M16717014.999999 121259241.999997 A2499745.000000 2499745.000000 0.0 0 0 14217272.000000 118759495.000001" />
<path d="M16027236.920098 122980960.208237 A2499720.000000 2499720.000000 0.0 0 0 16717018.807194 121259241.999812" />
<path d="M17042524 125770505
L16027243 122980966
" />
<path d="M14705504 125770505
L17042524 125770505
" />
<path d="M13973390 123758989
L14705504 125770505
" />
<path d="M13429622 123758989
L13973390 123758989
" />
<path d="M13429622 125770505
L13429622 123758989
" />
<path d="M11092601 125770505
L13429622 125770505
" />
<path d="M11092601 123758989
L11092601 125770505
" />
<path d="M11092601 123340372
L11092601 123758989
" />
<path d="M10591845 123340372
L11092601 123340372
" />
<path d="M10591845 122501585
L10591845 123340372
" />
<path d="M11092601 122501585
L10591845 122501585
" />
<path d="M11092601 120017727
L11092601 122501585
" />
<path d="M10591845 120017727
L11092601 120017727
" />
<path d="M10591845 119178889
L10591845 120017727
" />
<path d="M11092601 119178889
L10591845 119178889
" />
<path d="M11092601 118759495
L11092601 119178889
" />
<g >
</g>
<g >
</g>
<g >
</g>
</g> 
</svg>
