999
dxflib 3.26.4.0
  0
SECTION
  2
HEADER
  9
$ACADVER
  1
AC1015
  9
$HANDSEED
  5
FFFF
  9
$DIMADEC
 70
0
  9
$DIMASZ
 40
2.5
  9
$DIMATFIT
 70
0
  9
$DIMAUNIT
 70
0
  9
$DIMAZIN
 70
2
  9
$DIMBLK
  1
0
  9
$DIMBLK1
  1
0
  9
$DIMBLK2
  1
0
  9
$DIMDEC
 70
4
  9
$DIMDLI
 40
5.0
  9
$DIMDSEP
 70
46
  9
$DIMEXE
 40
1.25
  9
$DIMEXO
 40
0.625
  9
$DIMGAP
 40
0.625
  9
$DIMLFAC
 40
1.0
  9
$DIMLUNIT
 70
2
  9
$DIMSCALE
 40
1.0
  9
$DIMTAD
 70
1
  9
$DIMTIH
 70
0
  9
$DIMTSZ
 40
0.0
  9
$DIMTXT
 40
2.5
  9
$DIMZIN
 70
8
  9
$DWGCODEPAGE
  3
ANSI_1252
  9
$INSUNITS
 70
4
  9
$LTSCALE
 40
1.0
  9
$MAXACTVP
 70
64
  9
$MEASUREMENT
 70
1
  9
$MIRRTEXT
 70
0
  9
$PDMODE
 70
0
  9
$PDSIZE
 40
0.0
  0
ENDSEC
  0
SECTION
  2
TABLES
  0
TABLE
  2
VPORT
  5
8
100
AcDbSymbolTable
 70
1
  0
VPORT
  5
30
100
AcDbSymbolTableRecord
100
AcDbViewportTableRecord
  2
*Active
 70
0
 10
0.0
 20
0.0
 11
1.0
 21
1.0
 12
286.3055555555554861
 22
148.5
 13
0.0
 23
0.0
 14
10.0
 24
10.0
 15
10.0
 25
10.0
 16
0.0
 26
0.0
 36
1.0
 17
0.0
 27
0.0
 37
0.0
 40
297.0
 41
1.92798353909465
 42
50.0
 43
0.0
 44
0.0
 50
0.0
 51
0.0
 71
0
 72
100
 73
1
 74
3
 75
1
 76
1
 77
0
 78
0
281
0
 65
1
110
0.0
120
0.0
130
0.0
111
1.0
121
0.0
131
0.0
112
0.0
122
1.0
132
0.0
 79
0
146
0.0
  0
ENDTAB
  0
TABLE
  2
LTYPE
  5
5
100
AcDbSymbolTable
 70
41
  0
LTYPE
  5
16
100
AcDbSymbolTableRecord
100
AcDbLinetypeTableRecord
  2
Continuous
 70
0
  3
Solid line
 72
65
 73
0
 40
0.0
  0
LTYPE
  5
31
100
AcDbSymbolTableRecord
100
AcDbLinetypeTableRecord
  2
CENTER
 70
0
  3
Center ____ _ ____ _ ____ _ ____ _ ____ _ ____
 72
65
 73
4
 40
50.8000000000000043
 49
31.75
 74
0
 49
-6.3499999999999996
 74
0
 49
6.3499999999999996
 74
0
 49
-6.3499999999999996
 74
0
  0
LTYPE
  5
14
100
AcDbSymbolTableRecord
100
AcDbLinetypeTableRecord
  2
BYBLOCK
 70
0
  3

 72
65
 73
0
 40
0.0
  0
LTYPE
  5
32
100
AcDbSymbolTableRecord
100
AcDbLinetypeTableRecord
  2
DIVIDE
 70
0
  3
Divide ____ . . ____ . . ____ . . ____ . . ____
 72
65
 73
6
 40
31.7500000000000036
 49
12.6999999999999993
 74
0
 49
-6.2999999999999998
 74
0
 49
0.1
 74
0
 49
-6.25
 74
0
 49
0.1
 74
0
 49
-6.2999999999999998
 74
0
  0
LTYPE
  5
15
100
AcDbSymbolTableRecord
100
AcDbLinetypeTableRecord
  2
BYLAYER
 70
0
  3

 72
65
 73
0
 40
0.0
  0
LTYPE
  5
33
100
AcDbSymbolTableRecord
100
AcDbLinetypeTableRecord
  2
BORDER2
 70
0
  3
Border (.5x) __.__.__.__.__.__.__.__.__.__.__.
 72
65
 73
6
 40
22.2250000000000014
 49
6.3499999999999996
 74
0
 49
-3.1749999999999998
 74
0
 49
6.3499999999999996
 74
0
 49
-3.125
 74
0
 49
0.1
 74
0
 49
-3.125
 74
0
  0
LTYPE
  5
34
100
AcDbSymbolTableRecord
100
AcDbLinetypeTableRecord
  2
DASHED2
 70
0
  3
Dashed (.5x) _ _ _ _ _ _ _ _ _ _ _ _ _ _ _ _ _ 
 72
65
 73
2
 40
9.5249999999999986
 49
6.3499999999999996
 74
0
 49
-3.1749999999999998
 74
0
  0
LTYPE
  5
35
100
AcDbSymbolTableRecord
100
AcDbLinetypeTableRecord
  2
ACAD_ISO09W100
 70
0
  3
ISO long-dash double-short-dash ____ __ __ ____
 72
65
 73
6
 40
45.0
 49
24.0
 74
0
 49
-3.0
 74
0
 49
6.0
 74
0
 49
-3.0
 74
0
 49
6.0
 74
0
 49
-3.0
 74
0
  0
LTYPE
  5
36
100
AcDbSymbolTableRecord
100
AcDbLinetypeTableRecord
  2
DASHEDX2
 70
0
  3
Dashed (2x) ____  ____  ____  ____  ____  ___
 72
65
 73
2
 40
38.0999999999999943
 49
25.3999999999999986
 74
0
 49
-12.6999999999999993
 74
0
  0
LTYPE
  5
37
100
AcDbSymbolTableRecord
100
AcDbLinetypeTableRecord
  2
ACAD_ISO03W100
 70
0
  3
ISO dash space __    __    __    __    __    __
 72
65
 73
2
 40
30.0
 49
12.0
 74
0
 49
-18.0
 74
0
  0
LTYPE
  5
38
100
AcDbSymbolTableRecord
100
AcDbLinetypeTableRecord
  2
ACAD_ISO15W100
 70
0
  3
ISO double-dash triple-dot __ __ . . . __ __ . .
 72
65
 73
10
 40
39.0000000000000071
 49
12.0
 74
0
 49
-3.0
 74
0
 49
12.0
 74
0
 49
-2.9500000000000002
 74
0
 49
0.1
 74
0
 49
-2.9000000000000004
 74
0
 49
0.1
 74
0
 49
-2.9000000000000004
 74
0
 49
0.1
 74
0
 49
-2.9500000000000002
 74
0
  0
LTYPE
  5
39
100
AcDbSymbolTableRecord
100
AcDbLinetypeTableRecord
  2
ACAD_ISO14W100
 70
0
  3
ISO dash triple-dot __ . . . __ . . . __ . . . _
 72
65
 73
8
 40
24.0000000000000036
 49
12.0
 74
0
 49
-2.9500000000000002
 74
0
 49
0.1
 74
0
 49
-2.9000000000000004
 74
0
 49
0.1
 74
0
 49
-2.9000000000000004
 74
0
 49
0.1
 74
0
 49
-2.9500000000000002
 74
0
  0
LTYPE
  5
3A
100
AcDbSymbolTableRecord
100
AcDbLinetypeTableRecord
  2
ACAD_ISO12W100
 70
0
  3
ISO dash double-dot __ . . __ . . __ . . __ . . 
 72
65
 73
6
 40
21.0
 49
12.0
 74
0
 49
-2.9500000000000002
 74
0
 49
0.1
 74
0
 49
-2.9000000000000004
 74
0
 49
0.1
 74
0
 49
-2.9500000000000002
 74
0
  0
LTYPE
  5
3B
100
AcDbSymbolTableRecord
100
AcDbLinetypeTableRecord
  2
DASHDOT2
 70
0
  3
Dash dot (.5x) _._._._._._._._._._._._._._._.
 72
65
 73
4
 40
12.6999999999999993
 49
6.3499999999999996
 74
0
 49
-3.125
 74
0
 49
0.1
 74
0
 49
-3.125
 74
0
  0
LTYPE
  5
3C
100
AcDbSymbolTableRecord
100
AcDbLinetypeTableRecord
  2
ACAD_ISO13W100
 70
0
  3
ISO double-dash double-dot __ __ . . __ __ . . _
 72
65
 73
8
 40
36.0000000000000071
 49
12.0
 74
0
 49
-3.0
 74
0
 49
12.0
 74
0
 49
-2.9500000000000002
 74
0
 49
0.1
 74
0
 49
-2.9000000000000004
 74
0
 49
0.1
 74
0
 49
-2.9500000000000002
 74
0
  0
LTYPE
  5
3D
100
AcDbSymbolTableRecord
100
AcDbLinetypeTableRecord
  2
PHANTOMX2
 70
0
  3
Phantom (2x) ____________    ____    ____   _
 72
65
 73
6
 40
127.0000000000000142
 49
63.5
 74
0
 49
-12.6999999999999993
 74
0
 49
12.6999999999999993
 74
0
 49
-12.6999999999999993
 74
0
 49
12.6999999999999993
 74
0
 49
-12.6999999999999993
 74
0
  0
LTYPE
  5
3E
100
AcDbSymbolTableRecord
100
AcDbLinetypeTableRecord
  2
DIVIDE2
 70
0
  3
Divide (.5x) __..__..__..__..__..__..__..__.._
 72
65
 73
6
 40
15.8749999999999982
 49
6.3499999999999996
 74
0
 49
-3.125
 74
0
 49
0.1
 74
0
 49
-3.0750000000000002
 74
0
 49
0.1
 74
0
 49
-3.125
 74
0
  0
LTYPE
  5
3F
100
AcDbSymbolTableRecord
100
AcDbLinetypeTableRecord
  2
DOT2
 70
0
  3
Dot (.5x) ........................................
 72
65
 73
2
 40
3.1749999999999998
 49
0.1
 74
0
 49
-3.0749999999999997
 74
0
  0
LTYPE
  5
40
100
AcDbSymbolTableRecord
100
AcDbLinetypeTableRecord
  2
ACAD_ISO10W100
 70
0
  3
ISO dash dot __ . __ . __ . __ . __ . __ . __ . 
 72
65
 73
4
 40
18.0
 49
12.0
 74
0
 49
-2.9500000000000002
 74
0
 49
0.1
 74
0
 49
-2.9500000000000002
 74
0
  0
LTYPE
  5
41
100
AcDbSymbolTableRecord
100
AcDbLinetypeTableRecord
  2
BORDERX2
 70
0
  3
Border (2x) ____  ____  .  ____  ____  .  ___
 72
65
 73
6
 40
88.8999999999999773
 49
25.3999999999999986
 74
0
 49
-12.6999999999999993
 74
0
 49
25.3999999999999986
 74
0
 49
-12.6499999999999986
 74
0
 49
0.1
 74
0
 49
-12.6499999999999986
 74
0
  0
LTYPE
  5
42
100
AcDbSymbolTableRecord
100
AcDbLinetypeTableRecord
  2
ACAD_ISO11W100
 70
0
  3
ISO double-dash dot __ __ . __ __ . __ __ . __ _
 72
65
 73
6
 40
33.0
 49
12.0
 74
0
 49
-3.0
 74
0
 49
12.0
 74
0
 49
-2.9500000000000002
 74
0
 49
0.1
 74
0
 49
-2.9500000000000002
 74
0
  0
LTYPE
  5
43
100
AcDbSymbolTableRecord
100
AcDbLinetypeTableRecord
  2
ACAD_ISO08W100
 70
0
  3
ISO long-dash short-dash ____ __ ____ __ ____ _
 72
65
 73
4
 40
36.0
 49
24.0
 74
0
 49
-3.0
 74
0
 49
6.0
 74
0
 49
-3.0
 74
0
  0
LTYPE
  5
44
100
AcDbSymbolTableRecord
100
AcDbLinetypeTableRecord
  2
ACAD_ISO06W100
 70
0
  3
ISO long-dash triple-dot ____ ... ____ ... ____
 72
65
 73
8
 40
36.0000000000000071
 49
24.0
 74
0
 49
-2.9500000000000002
 74
0
 49
0.1
 74
0
 49
-2.9000000000000004
 74
0
 49
0.1
 74
0
 49
-2.9000000000000004
 74
0
 49
0.1
 74
0
 49
-2.9500000000000002
 74
0
  0
LTYPE
  5
45
100
AcDbSymbolTableRecord
100
AcDbLinetypeTableRecord
  2
DASHDOTX2
 70
0
  3
Dash dot (2x) ____  .  ____  .  ____  .  ___
 72
65
 73
4
 40
50.7999999999999972
 49
25.3999999999999986
 74
0
 49
-12.6499999999999986
 74
0
 49
0.1
 74
0
 49
-12.6499999999999986
 74
0
  0
LTYPE
  5
46
100
AcDbSymbolTableRecord
100
AcDbLinetypeTableRecord
  2
BORDER
 70
0
  3
Border __ __ . __ __ . __ __ . __ __ . __ __ .
 72
65
 73
6
 40
44.4499999999999957
 49
12.6999999999999993
 74
0
 49
-6.3499999999999996
 74
0
 49
12.6999999999999993
 74
0
 49
-6.2999999999999998
 74
0
 49
0.1
 74
0
 49
-6.2999999999999998
 74
0
  0
LTYPE
  5
47
100
AcDbSymbolTableRecord
100
AcDbLinetypeTableRecord
  2
ACAD_ISO07W100
 70
0
  3
ISO dot . . . . . . . . . . . . . . . . . . . . 
 72
65
 73
2
 40
3.0
 49
0.1
 74
0
 49
-2.8999999999999999
 74
0
  0
LTYPE
  5
48
100
AcDbSymbolTableRecord
100
AcDbLinetypeTableRecord
  2
HIDDEN
 70
0
  3
Hidden __ __ __ __ __ __ __ __ __ __ __ __ __ __
 72
65
 73
2
 40
9.5249999999999986
 49
6.3499999999999996
 74
0
 49
-3.1749999999999998
 74
0
  0
LTYPE
  5
49
100
AcDbSymbolTableRecord
100
AcDbLinetypeTableRecord
  2
PHANTOM
 70
0
  3
Phantom ______  __  __  ______  __  __  ______ 
 72
65
 73
6
 40
63.5000000000000071
 49
31.75
 74
0
 49
-6.3499999999999996
 74
0
 49
6.3499999999999996
 74
0
 49
-6.3499999999999996
 74
0
 49
6.3499999999999996
 74
0
 49
-6.3499999999999996
 74
0
  0
LTYPE
  5
4A
100
AcDbSymbolTableRecord
100
AcDbLinetypeTableRecord
  2
ACAD_ISO04W100
 70
0
  3
ISO long-dash dot ____ . ____ . ____ . ____ . _
 72
65
 73
4
 40
30.0
 49
24.0
 74
0
 49
-2.9500000000000002
 74
0
 49
0.1
 74
0
 49
-2.9500000000000002
 74
0
  0
LTYPE
  5
4B
100
AcDbSymbolTableRecord
100
AcDbLinetypeTableRecord
  2
CENTER2
 70
0
  3
Center (.5x) ___ _ ___ _ ___ _ ___ _ ___ _ ___
 72
65
 73
4
 40
28.5750000000000028
 49
19.0500000000000007
 74
0
 49
-3.1749999999999998
 74
0
 49
3.1749999999999998
 74
0
 49
-3.1749999999999998
 74
0
  0
LTYPE
  5
4C
100
AcDbSymbolTableRecord
100
AcDbLinetypeTableRecord
  2
CENTERX2
 70
0
  3
Center (2x) ________  __  ________  __  _____
 72
65
 73
4
 40
101.6000000000000085
 49
63.5
 74
0
 49
-12.6999999999999993
 74
0
 49
12.6999999999999993
 74
0
 49
-12.6999999999999993
 74
0
  0
LTYPE
  5
4D
100
AcDbSymbolTableRecord
100
AcDbLinetypeTableRecord
  2
ACAD_ISO05W100
 70
0
  3
ISO long-dash double-dot ____ .. ____ .. ____ . 
 72
65
 73
6
 40
33.0000000000000071
 49
24.0
 74
0
 49
-2.9500000000000002
 74
0
 49
0.1
 74
0
 49
-2.9000000000000004
 74
0
 49
0.1
 74
0
 49
-2.9500000000000002
 74
0
  0
LTYPE
  5
4E
100
AcDbSymbolTableRecord
100
AcDbLinetypeTableRecord
  2
PHANTOM2
 70
0
  3
Phantom (.5x) ___ _ _ ___ _ _ ___ _ _ ___ _ _
 72
65
 73
6
 40
31.7500000000000036
 49
15.875
 74
0
 49
-3.1749999999999998
 74
0
 49
3.1749999999999998
 74
0
 49
-3.1749999999999998
 74
0
 49
3.1749999999999998
 74
0
 49
-3.1749999999999998
 74
0
  0
LTYPE
  5
4F
100
AcDbSymbolTableRecord
100
AcDbLinetypeTableRecord
  2
ACAD_ISO02W100
 70
0
  3
ISO dash __ __ __ __ __ __ __ __ __ __ __ __ __
 72
65
 73
2
 40
15.0
 49
12.0
 74
0
 49
-3.0
 74
0
  0
LTYPE
  5
50
100
AcDbSymbolTableRecord
100
AcDbLinetypeTableRecord
  2
DOT
 70
0
  3
Dot . . . . . . . . . . . . . . . . . . . . . . . .
 72
65
 73
2
 40
6.3499999999999996
 49
0.1
 74
0
 49
-6.25
 74
0
  0
LTYPE
  5
51
100
AcDbSymbolTableRecord
100
AcDbLinetypeTableRecord
  2
DOTX2
 70
0
  3
Dot (2x) .  .  .  .  .  .  .  .  .  .  .  .  .  .
 72
65
 73
2
 40
12.6999999999999993
 49
0.1
 74
0
 49
-12.5999999999999996
 74
0
  0
LTYPE
  5
52
100
AcDbSymbolTableRecord
100
AcDbLinetypeTableRecord
  2
DASHDOT
 70
0
  3
Dash dot __ . __ . __ . __ . __ . __ . __ . __
 72
65
 73
4
 40
25.4000000000000021
 49
12.6999999999999993
 74
0
 49
-6.2999999999999998
 74
0
 49
0.1
 74
0
 49
-6.2999999999999998
 74
0
  0
LTYPE
  5
53
100
AcDbSymbolTableRecord
100
AcDbLinetypeTableRecord
  2
HIDDENX2
 70
0
  3
Hidden (2x) ____ ____ ____ ____ ____ ____ ____ 
 72
65
 73
2
 40
19.0499999999999972
 49
12.6999999999999993
 74
0
 49
-6.3499999999999996
 74
0
  0
LTYPE
  5
54
100
AcDbSymbolTableRecord
100
AcDbLinetypeTableRecord
  2
DIVIDEX2
 70
0
  3
Divide (2x) ________  .  .  ________  .  .  _
 72
65
 73
6
 40
63.5
 49
25.3999999999999986
 74
0
 49
-12.6499999999999986
 74
0
 49
0.1
 74
0
 49
-12.5999999999999979
 74
0
 49
0.1
 74
0
 49
-12.6499999999999986
 74
0
  0
LTYPE
  5
55
100
AcDbSymbolTableRecord
100
AcDbLinetypeTableRecord
  2
HIDDEN2
 70
0
  3
Hidden (.5x) _ _ _ _ _ _ _ _ _ _ _ _ _ _ _ _ _ 
 72
65
 73
2
 40
4.7624999999999993
 49
3.1749999999999998
 74
0
 49
-1.5874999999999999
 74
0
  0
LTYPE
  5
56
100
AcDbSymbolTableRecord
100
AcDbLinetypeTableRecord
  2
DASHED
 70
0
  3
Dashed __ __ __ __ __ __ __ __ __ __ __ __ __ _
 72
65
 73
2
 40
19.0499999999999972
 49
12.6999999999999993
 74
0
 49
-6.3499999999999996
 74
0
  0
ENDTAB
  0
TABLE
  2
LAYER
  5
2
100
AcDbSymbolTable
 70
5
  0
LAYER
  5
10
100
AcDbSymbolTableRecord
100
AcDbLayerTableRecord
  2
0
 70
0
 62
2
420
16776960
  6
Continuous
370
13
390
F
  0
LAYER
  5
57
100
AcDbSymbolTableRecord
100
AcDbLayerTableRecord
  2
UserDrawings
 70
0
 62
9
420
12632256
  6
Continuous
370
13
390
F
  0
LAYER
  5
58
100
AcDbSymbolTableRecord
100
AcDbLayerTableRecord
  2
VectorEngraving
 70
0
 62
5
420
255
  6
Continuous
370
13
390
F
  0
LAYER
  5
59
100
AcDbSymbolTableRecord
100
AcDbLayerTableRecord
  2
AreaEngraving
 70
0
 62
3
420
65280
  6
Continuous
370
13
390
F
  0
LAYER
  5
5A
100
AcDbSymbolTableRecord
100
AcDbLayerTableRecord
  2
Cuts
 70
0
 62
1
420
16711680
  6
Continuous
370
13
390
F
  0
ENDTAB
  0
TABLE
  2
STYLE
  5
3
100
AcDbSymbolTable
 70
1
  0
STYLE
  5
5B
100
AcDbSymbolTableRecord
100
AcDbTextStyleTableRecord
  2
Standard
 70
0
 40
0.0
 41
1.0
 50
0.0
 71
0
 42
2.5
  3

  4

1001
ACAD
1000
txt
1071
0
  0
ENDTAB
  0
TABLE
  2
VIEW
  5
6
100
AcDbSymbolTable
 70
0
  0
ENDTAB
  0
TABLE
  2
UCS
  5
7
100
AcDbSymbolTable
 70
0
  0
ENDTAB
  0
TABLE
  2
APPID
  5
9
100
AcDbSymbolTable
 70
1
  0
APPID
  5
12
100
AcDbSymbolTableRecord
100
AcDbRegAppTableRecord
  2
ACAD
 70
0
  0
APPID
  5
5C
100
AcDbSymbolTableRecord
100
AcDbRegAppTableRecord
  2
QCAD
 70
0
  0
ENDTAB
  0
TABLE
  2
DIMSTYLE
  5
A
100
AcDbSymbolTable
 70
1
100
AcDbDimStyleTable
 71
0
  0
DIMSTYLE
105
27
100
AcDbSymbolTableRecord
100
AcDbDimStyleTableRecord
  2
Standard
 41
2.5
 42
0.625
 43
3.75
 44
1.25
 70
0
 73
0
 74
0
 77
1
 78
8
140
2.5
141
2.5
143
0.03937007874016
147
0.625
171
3
172
1
271
2
272
2
274
3
278
44
283
0
284
8
340
5B
  0
ENDTAB
  0
TABLE
  2
BLOCK_RECORD
  5
1
100
AcDbSymbolTable
 70
1
  0
BLOCK_RECORD
  5
1F
100
AcDbSymbolTableRecord
100
AcDbBlockTableRecord
  2
*Model_Space
340
22
  0
BLOCK_RECORD
  5
1B
100
AcDbSymbolTableRecord
100
AcDbBlockTableRecord
  2
*Paper_Space
340
1E
  0
BLOCK_RECORD
  5
23
100
AcDbSymbolTableRecord
100
AcDbBlockTableRecord
  2
*Paper_Space0
340
26
  0
BLOCK_RECORD
  5
5D
100
AcDbSymbolTableRecord
100
AcDbBlockTableRecord
  2
block 7
340
0
  0
BLOCK_RECORD
  5
5E
100
AcDbSymbolTableRecord
100
AcDbBlockTableRecord
  2
block 4
340
0
  0
BLOCK_RECORD
  5
5F
100
AcDbSymbolTableRecord
100
AcDbBlockTableRecord
  2
block 1
340
0
  0
BLOCK_RECORD
  5
60
100
AcDbSymbolTableRecord
100
AcDbBlockTableRecord
  2
block 8
340
0
  0
BLOCK_RECORD
  5
61
100
AcDbSymbolTableRecord
100
AcDbBlockTableRecord
  2
block 6
340
0
  0
BLOCK_RECORD
  5
62
100
AcDbSymbolTableRecord
100
AcDbBlockTableRecord
  2
block 3
340
0
  0
BLOCK_RECORD
  5
63
100
AcDbSymbolTableRecord
100
AcDbBlockTableRecord
  2
block 2
340
0
  0
BLOCK_RECORD
  5
64
100
AcDbSymbolTableRecord
100
AcDbBlockTableRecord
  2
block 10
340
0
  0
BLOCK_RECORD
  5
65
100
AcDbSymbolTableRecord
100
AcDbBlockTableRecord
  2
block 9
340
0
  0
BLOCK_RECORD
  5
66
100
AcDbSymbolTableRecord
100
AcDbBlockTableRecord
  2
block 5
340
0
  0
ENDTAB
  0
ENDSEC
  0
SECTION
  2
BLOCKS
  0
BLOCK
  5
20
100
AcDbEntity
  8
0
100
AcDbBlockBegin
  2
*Model_Space
 70
0
 10
0.0
 20
0.0
 30
0.0
  3
*Model_Space
  1

  0
ENDBLK
  5
21
100
AcDbEntity
  8
0
100
AcDbBlockEnd
  0
BLOCK
  5
1C
100
AcDbEntity
 67
1
  8
0
100
AcDbBlockBegin
  2
*Paper_Space
 70
0
 10
0.0
 20
0.0
 30
0.0
  3
*Paper_Space
  1

  0
ENDBLK
  5
1D
100
AcDbEntity
 67
1
  8
0
100
AcDbBlockEnd
  0
BLOCK
  5
24
100
AcDbEntity
  8
0
100
AcDbBlockBegin
  2
*Paper_Space0
 70
0
 10
0.0
 20
0.0
 30
0.0
  3
*Paper_Space0
  1

  0
ENDBLK
  5
25
100
AcDbEntity
  8
0
100
AcDbBlockEnd
  0
BLOCK
  5
67
100
AcDbEntity
  8
0
100
AcDbBlockBegin
  2
block 7
 70
0
 10
0.0
 20
0.0
 30
0.0
  3
block 7
  1

  0
LWPOLYLINE
  5
68
100
AcDbEntity
  8
VectorEngraving
 62
3
420
65280
370
-1
 48
1.0
  6
BYLAYER
100
AcDbPolyline
 90
6
 70
128
 10
-0.1447316216625225
 20
5.2278271675010188
 10
-0.1447316216625225
 20
3.4717371675010185
 42
-0.0094312964636997
 10
-0.012841621662524
 20
3.4777371675010471
 42
-0.0094282736998003
 10
0.1191083783374793
 20
3.4747371675010328
 10
0.1191083783374793
 20
5.2275271675010373
 10
-0.1447316216625225
 20
5.2278271675010188
  0
LWPOLYLINE
  5
69
100
AcDbEntity
  8
VectorEngraving
 62
3
420
65280
370
-1
 48
1.0
  6
BYLAYER
100
AcDbPolyline
 90
5
 70
128
 10
-2.5235516216625271
 20
4.5904471675010114
 10
-2.7520316216625318
 20
4.4585071675010255
 10
-1.8752716216625274
 20
2.9399371675010144
 42
-0.018850642653673
 10
-1.6458916216625212
 20
3.0702571675010262
 10
-2.5235516216625271
 20
4.5904471675010114
  0
LWPOLYLINE
  5
6A
100
AcDbEntity
  8
VectorEngraving
 62
3
420
65280
370
-1
 48
1.0
  6
BYLAYER
100
AcDbPolyline
 90
5
 70
128
 10
2.4979683783374682
 20
4.5904471675010114
 10
1.6214783783374642
 20
3.0723371675010043
 42
-0.0188531870154901
 10
1.8500983783374707
 20
2.9406171675010029
 10
2.7264483783374729
 20
4.4585071675009971
 10
2.4979683783374682
 20
4.5904471675010114
  0
LWPOLYLINE
  5
6B
100
AcDbEntity
  8
VectorEngraving
 62
3
420
65280
370
-1
 48
1.0
  6
BYLAYER
100
AcDbPolyline
 90
5
 70
128
 10
-4.493471621662529
 20
2.7170671675010141
 10
-4.6253716216625307
 20
2.4885871675010236
 10
-3.1052216216625297
 20
1.6109271675010319
 42
-0.0188520557002934
 10
-2.9748616216625337
 20
1.8403071675010239
 10
-4.493471621662529
 20
2.7170671675010141
  0
LWPOLYLINE
  5
6C
100
AcDbEntity
  8
VectorEngraving
 62
3
420
65280
370
-1
 48
1.0
  6
BYLAYER
100
AcDbPolyline
 90
5
 70
128
 10
4.4678883783374701
 20
2.7170671675010141
 10
2.9499483783374743
 20
1.8407171675010119
 42
-0.0188549721058722
 10
3.0817183783375199
 20
1.6120971675010054
 10
4.5997783783374828
 20
2.4885871675009952
 10
4.4678883783374701
 20
2.7170671675010141
  0
LWPOLYLINE
  5
6D
100
AcDbEntity
  8
VectorEngraving
 62
3
420
65280
370
-1
 48
1.0
  6
BYLAYER
100
AcDbPolyline
 90
6
 70
128
 10
-5.2628346216625275
 20
0.1097271675010205
 10
-5.2628346216625275
 20
-0.1541128324989671
 10
-3.506701621662522
 20
-0.1541128324989671
 42
-0.0094348651562602
 10
-3.5127016216625506
 20
-0.0221728324989812
 42
-0.00943201020193
 10
-3.5067016216625362
 20
0.1097271675010205
 10
-5.2628346216625275
 20
0.1097271675010205
  0
LWPOLYLINE
  5
6E
100
AcDbEntity
  8
VectorEngraving
 62
3
420
65280
370
-1
 48
1.0
  6
BYLAYER
100
AcDbPolyline
 90
6
 70
128
 10
3.4844183783374589
 20
0.1097271675010205
 42
-0.009424702242363
 10
3.487418378337459
 20
-0.0221728324988959
 42
-0.0094348651562611
 10
3.4814183783374872
 20
-0.1541128324989671
 10
5.2375083783374734
 20
-0.1541128324989671
 10
5.2375083783374734
 20
0.1097271675010205
 10
3.4844183783374731
 20
0.1097271675010205
  0
LWPOLYLINE
  5
6F
100
AcDbEntity
  8
VectorEngraving
 62
3
420
65280
370
-1
 48
1.0
  6
BYLAYER
100
AcDbPolyline
 90
5
 70
128
 10
3.0795883783374691
 20
-1.6552228324989784
 42
-0.0188551641205852
 10
2.9492283783374731
 20
-1.8846528324989862
 10
4.4678883783374701
 20
-2.7614128324989764
 10
4.5997783783374686
 20
-2.5329328324989859
 10
3.0795883783374691
 20
-1.6552228324989784
  0
LWPOLYLINE
  5
70
100
AcDbEntity
  8
VectorEngraving
 62
3
420
65280
370
-1
 48
1.0
  6
BYLAYER
100
AcDbPolyline
 90
5
 70
128
 10
-3.1052216216625297
 20
-1.6552728324989658
 10
-4.6253716216625307
 20
-2.5329328324989575
 10
-4.493471621662529
 20
-2.761412832498948
 10
-2.9748616216625337
 20
-1.8846528324989578
 42
-0.0188520557002923
 10
-3.1052216216625439
 20
-1.6552728324989658
  0
LWPOLYLINE
  5
71
100
AcDbEntity
  8
VectorEngraving
 62
3
420
65280
370
-1
 48
1.0
  6
BYLAYER
100
AcDbPolyline
 90
5
 70
128
 10
1.8496883783374685
 20
-2.984242832498964
 42
-0.0188520557002944
 10
1.6203083783374623
 20
-3.1146028324989601
 10
2.4979683783374682
 20
-4.6347928324989738
 10
2.7264483783374729
 20
-4.5028528324989878
 10
1.8496883783374685
 20
-2.984242832498964
  0
LWPOLYLINE
  5
72
100
AcDbEntity
  8
VectorEngraving
 62
3
420
65280
370
-1
 48
1.0
  6
BYLAYER
100
AcDbPolyline
 90
6
 70
128
 10
-1.8752716216625274
 20
-2.9842828324989767
 10
-2.7520316216625318
 20
-4.5028528324989878
 10
-2.5235516216625271
 20
-4.6347928324989738
 10
-1.6458916216625212
 20
-3.1146028324989601
 42
-0.0188506426536739
 10
-1.8752716216625274
 20
-2.9842828324989483
 10
-1.8752716216625274
 20
-2.9842828324989767
  0
ENDBLK
  5
73
100
AcDbEntity
  8
0
100
AcDbBlockEnd
  0
BLOCK
  5
74
100
AcDbEntity
  8
0
100
AcDbBlockBegin
  2
block 4
 70
0
 10
0.0
 20
0.0
 30
0.0
  3
block 4
  1

  0
LWPOLYLINE
  5
75
100
AcDbEntity
  8
VectorEngraving
 62
256
370
-1
 48
1.0
  6
BYLAYER
100
AcDbPolyline
 90
6
 70
128
 10
-0.1447316216625225
 20
5.2278271675010188
 10
-0.1447316216625225
 20
3.4717371675010185
 42
-0.0094312964636997
 10
-0.012841621662524
 20
3.4777371675010471
 42
-0.0094282736998003
 10
0.1191083783374793
 20
3.4747371675010328
 10
0.1191083783374793
 20
5.2275271675010373
 10
-0.1447316216625225
 20
5.2278271675010188
  0
LWPOLYLINE
  5
76
100
AcDbEntity
  8
VectorEngraving
 62
256
370
-1
 48
1.0
  6
BYLAYER
100
AcDbPolyline
 90
5
 70
128
 10
-2.5235516216625271
 20
4.5904471675010114
 10
-2.7520316216625318
 20
4.4585071675010255
 10
-1.8752716216625274
 20
2.9399371675010144
 42
-0.018850642653673
 10
-1.6458916216625212
 20
3.0702571675010262
 10
-2.5235516216625271
 20
4.5904471675010114
  0
LWPOLYLINE
  5
77
100
AcDbEntity
  8
VectorEngraving
 62
256
370
-1
 48
1.0
  6
BYLAYER
100
AcDbPolyline
 90
5
 70
128
 10
2.4979683783374682
 20
4.5904471675010114
 10
1.6214783783374642
 20
3.0723371675010043
 42
-0.0188531870154901
 10
1.8500983783374707
 20
2.9406171675010029
 10
2.7264483783374729
 20
4.4585071675009971
 10
2.4979683783374682
 20
4.5904471675010114
  0
LWPOLYLINE
  5
78
100
AcDbEntity
  8
VectorEngraving
 62
256
370
-1
 48
1.0
  6
BYLAYER
100
AcDbPolyline
 90
5
 70
128
 10
-4.493471621662529
 20
2.7170671675010141
 10
-4.6253716216625307
 20
2.4885871675010236
 10
-3.1052216216625297
 20
1.6109271675010319
 42
-0.0188520557002934
 10
-2.9748616216625337
 20
1.8403071675010239
 10
-4.493471621662529
 20
2.7170671675010141
  0
LWPOLYLINE
  5
79
100
AcDbEntity
  8
VectorEngraving
 62
256
370
-1
 48
1.0
  6
BYLAYER
100
AcDbPolyline
 90
5
 70
128
 10
4.4678883783374701
 20
2.7170671675010141
 10
2.9499483783374743
 20
1.8407171675010119
 42
-0.0188549721058722
 10
3.0817183783375199
 20
1.6120971675010054
 10
4.5997783783374828
 20
2.4885871675009952
 10
4.4678883783374701
 20
2.7170671675010141
  0
LWPOLYLINE
  5
7A
100
AcDbEntity
  8
VectorEngraving
 62
256
370
-1
 48
1.0
  6
BYLAYER
100
AcDbPolyline
 90
6
 70
128
 10
-5.2628346216625275
 20
0.1097271675010205
 10
-5.2628346216625275
 20
-0.1541128324989671
 10
-3.506701621662522
 20
-0.1541128324989671
 42
-0.0094348651562602
 10
-3.5127016216625506
 20
-0.0221728324989812
 42
-0.00943201020193
 10
-3.5067016216625362
 20
0.1097271675010205
 10
-5.2628346216625275
 20
0.1097271675010205
  0
LWPOLYLINE
  5
7B
100
AcDbEntity
  8
VectorEngraving
 62
256
370
-1
 48
1.0
  6
BYLAYER
100
AcDbPolyline
 90
6
 70
128
 10
3.4844183783374589
 20
0.1097271675010205
 42
-0.009424702242363
 10
3.487418378337459
 20
-0.0221728324988959
 42
-0.0094348651562611
 10
3.4814183783374872
 20
-0.1541128324989671
 10
5.2375083783374734
 20
-0.1541128324989671
 10
5.2375083783374734
 20
0.1097271675010205
 10
3.4844183783374731
 20
0.1097271675010205
  0
LWPOLYLINE
  5
7C
100
AcDbEntity
  8
VectorEngraving
 62
256
370
-1
 48
1.0
  6
BYLAYER
100
AcDbPolyline
 90
5
 70
128
 10
3.0795883783374691
 20
-1.6552228324989784
 42
-0.0188551641205852
 10
2.9492283783374731
 20
-1.8846528324989862
 10
4.4678883783374701
 20
-2.7614128324989764
 10
4.5997783783374686
 20
-2.5329328324989859
 10
3.0795883783374691
 20
-1.6552228324989784
  0
LWPOLYLINE
  5
7D
100
AcDbEntity
  8
VectorEngraving
 62
256
370
-1
 48
1.0
  6
BYLAYER
100
AcDbPolyline
 90
5
 70
128
 10
-3.1052216216625297
 20
-1.6552728324989658
 10
-4.6253716216625307
 20
-2.5329328324989575
 10
-4.493471621662529
 20
-2.761412832498948
 10
-2.9748616216625337
 20
-1.8846528324989578
 42
-0.0188520557002923
 10
-3.1052216216625439
 20
-1.6552728324989658
  0
LWPOLYLINE
  5
7E
100
AcDbEntity
  8
VectorEngraving
 62
256
370
-1
 48
1.0
  6
BYLAYER
100
AcDbPolyline
 90
5
 70
128
 10
1.8496883783374685
 20
-2.984242832498964
 42
-0.0188520557002944
 10
1.6203083783374623
 20
-3.1146028324989601
 10
2.4979683783374682
 20
-4.6347928324989738
 10
2.7264483783374729
 20
-4.5028528324989878
 10
1.8496883783374685
 20
-2.984242832498964
  0
LWPOLYLINE
  5
7F
100
AcDbEntity
  8
VectorEngraving
 62
256
370
-1
 48
1.0
  6
BYLAYER
100
AcDbPolyline
 90
6
 70
128
 10
-1.8752716216625274
 20
-2.9842828324989767
 10
-2.7520316216625318
 20
-4.5028528324989878
 10
-2.5235516216625271
 20
-4.6347928324989738
 10
-1.6458916216625212
 20
-3.1146028324989601
 42
-0.0188506426536739
 10
-1.8752716216625274
 20
-2.9842828324989483
 10
-1.8752716216625274
 20
-2.9842828324989767
  0
ENDBLK
  5
80
100
AcDbEntity
  8
0
100
AcDbBlockEnd
  0
BLOCK
  5
81
100
AcDbEntity
  8
0
100
AcDbBlockBegin
  2
block 1
 70
0
 10
0.0
 20
0.0
 30
0.0
  3
block 1
  1

  0
ENDBLK
  5
82
100
AcDbEntity
  8
0
100
AcDbBlockEnd
  0
BLOCK
  5
83
100
AcDbEntity
  8
0
100
AcDbBlockBegin
  2
block 8
 70
0
 10
0.0
 20
0.0
 30
0.0
  3
block 8
  1

  0
LWPOLYLINE
  5
84
100
AcDbEntity
  8
AreaEngraving
 62
3
420
65280
370
-1
 48
1.0
  6
BYLAYER
100
AcDbPolyline
 90
6
 70
128
 10
-0.6863584872871229
 20
53.6120564188048263
 10
-0.6863584872871229
 20
42.4142964188048239
 42
-0.0033072788336863
 10
-0.1577084872871239
 20
42.4374964188048409
 42
-0.0033077266184061
 10
0.3714615127128695
 20
42.4294964188048738
 10
0.3714615127128695
 20
53.6120564188048263
 10
-0.6863584872871229
 20
53.6120564188048263
  0
LWPOLYLINE
  5
85
100
AcDbEntity
  8
AreaEngraving
 62
3
420
65280
370
-1
 48
1.0
  6
BYLAYER
100
AcDbPolyline
 90
5
 70
128
 10
-11.8215964872871098
 20
48.0113664188048261
 10
-12.8432394872871214
 20
47.7374864188048207
 10
-11.0154454872871099
 20
40.9151664188048159
 42
-0.0066141399769513
 10
-9.993285487287153
 20
41.1890464188048355
 10
-11.8215964872871098
 20
48.0113664188048261
  0
LWPOLYLINE
  5
86
100
AcDbEntity
  8
AreaEngraving
 62
3
420
65280
370
-1
 48
1.0
  6
BYLAYER
100
AcDbPolyline
 90
5
 70
128
 10
11.5067015127128798
 20
48.0113664188048261
 10
9.6825215127128956
 20
41.2035164188048242
 42
-0.0066101756053528
 10
10.7041615127128296
 20
40.9301464188048527
 10
12.528341512712899
 20
47.7374864188048207
 10
11.5067015127128798
 20
48.0113664188048261
  0
LWPOLYLINE
  5
87
100
AcDbEntity
  8
AreaEngraving
 62
3
420
65280
370
-1
 48
1.0
  6
BYLAYER
100
AcDbPolyline
 90
5
 70
128
 10
-25.2869244872871093
 20
47.0202164188048215
 10
-26.2026304872871094
 20
46.4915664188048225
 10
-20.6034894872871064
 20
36.7939664188048283
 42
-0.006608723992369
 10
-19.6877834872871063
 20
37.3226164188048415
 10
-25.2869244872871093
 20
47.0202164188048215
  0
LWPOLYLINE
  5
88
100
AcDbEntity
  8
AreaEngraving
 62
3
420
65280
370
-1
 48
1.0
  6
BYLAYER
100
AcDbPolyline
 90
5
 70
128
 10
24.9715115127128797
 20
47.0202164188048215
 10
19.3806315127128812
 20
37.3360564188048158
 42
-0.0066087456461917
 10
20.296341512712786
 20
36.8074064188048311
 10
25.8877315127128895
 20
46.4915664188048225
 10
24.9715115127128797
 20
47.0202164188048215
  0
LWPOLYLINE
  5
89
100
AcDbEntity
  8
AreaEngraving
 62
3
420
65280
370
-1
 48
1.0
  6
BYLAYER
100
AcDbPolyline
 90
5
 70
128
 10
-33.0456244872871139
 20
36.0735964188048257
 10
-33.7938984872870947
 20
35.3258364188048262
 10
-28.7993714872870896
 20
30.3313064188048287
 42
-0.0066118880942146
 10
-28.0510974872871373
 20
31.079066418804814
 10
-33.0456244872871139
 20
36.0735964188048257
  0
LWPOLYLINE
  5
8A
100
AcDbEntity
  8
AreaEngraving
 62
3
420
65280
370
-1
 48
1.0
  6
BYLAYER
100
AcDbPolyline
 90
5
 70
128
 10
32.7307215127128757
 20
36.0735964188048257
 10
27.7475715127128808
 20
31.0904364188048277
 42
-0.0066118262234246
 10
28.4953215127127919
 20
30.342166418804851
 10
33.4784815127128752
 20
35.3258364188048262
 10
32.7307215127128757
 20
36.0735964188048257
  0
LWPOLYLINE
  5
8B
100
AcDbEntity
  8
AreaEngraving
 62
3
420
65280
370
-1
 48
1.0
  6
BYLAYER
100
AcDbPolyline
 90
5
 70
128
 10
-44.2113514872871178
 20
28.4828464188048258
 10
-44.7405184872871189
 20
27.5666264188048302
 10
-35.0429204872871196
 20
21.9679964188048302
 42
-0.0066131255020083
 10
-34.5137524872871495
 20
22.8842164188048258
 10
-44.2113514872871178
 20
28.4828464188048258
  0
LWPOLYLINE
  5
8C
100
AcDbEntity
  8
AreaEngraving
 62
3
420
65280
370
-1
 48
1.0
  6
BYLAYER
100
AcDbPolyline
 90
5
 70
128
 10
43.896451512712872
 20
28.4828464188048258
 10
34.2122915127128806
 20
22.8919764188048163
 42
-0.0066115608445713
 10
34.740941512712908
 20
21.9757464188048743
 10
44.4251015127128994
 20
27.5666264188048018
 10
43.896451512712872
 20
28.4828464188048258
  0
LWPOLYLINE
  5
8D
100
AcDbEntity
  8
AreaEngraving
 62
3
420
65280
370
-1
 48
1.0
  6
BYLAYER
100
AcDbPolyline
 90
5
 70
128
 10
-45.4577974872871096
 20
15.1229364188048407
 10
-45.7316824872871166
 20
14.10129641880485
 10
-38.9093574872871386
 20
12.2729864188048623
 42
-0.006614144830355
 10
-38.6354744872871834
 20
13.2951464188047908
 10
-45.4577974872871096
 20
15.1229364188048407
  0
LWPOLYLINE
  5
8E
100
AcDbEntity
  8
AreaEngraving
 62
3
420
65280
370
-1
 48
1.0
  6
BYLAYER
100
AcDbPolyline
 90
5
 70
128
 10
45.1428915127128789
 20
15.1229364188048407
 10
38.3355515127128683
 20
13.2987564188048282
 42
-0.006611016540262
 10
38.6094415127129196
 20
12.2771164188047806
 10
45.4162515127128472
 20
14.10129641880485
 10
45.1428915127128789
 20
15.1229364188048407
  0
LWPOLYLINE
  5
8F
100
AcDbEntity
  8
AreaEngraving
 62
3
420
65280
370
-1
 48
1.0
  6
BYLAYER
100
AcDbPolyline
 90
6
 70
128
 10
-51.3318474872871207
 20
2.9660564188048397
 10
-51.3318474872871207
 20
1.9087564188048418
 10
-40.1340814872871192
 20
1.9087564188048418
 42
-0.003307292549862
 10
-40.1573314872871094
 20
2.4374064188048123
 42
-0.003307292549864
 10
-40.1340814872871192
 20
2.9660564188046692
 10
-51.3318474872871207
 20
2.9660564188048397
  0
LWPOLYLINE
  5
90
100
AcDbEntity
  8
AreaEngraving
 62
3
420
65280
370
-1
 48
1.0
  6
BYLAYER
100
AcDbPolyline
 90
6
 70
128
 10
39.834681512712848
 20
2.9660564188047829
 42
-0.003304476883546
 10
39.8426815127128862
 20
2.4374064188052103
 42
-0.0033072788336863
 10
39.8194815127129118
 20
1.9087564188046713
 10
51.0172515127128463
 20
1.9087564188048418
 10
51.0172515127128463
 20
2.9660564188048397
 10
39.8346815127129048
 20
2.9660564188048397
  0
LWPOLYLINE
  5
91
100
AcDbEntity
  8
AreaEngraving
 62
3
420
65280
370
-1
 48
1.0
  6
BYLAYER
100
AcDbPolyline
 90
6
 70
128
 10
-38.9093484872871045
 20
-7.3981735811951808
 10
-45.7316724872871134
 20
-9.2264835811951684
 10
-45.4577874872871348
 20
-10.2481235811951592
 10
-38.6354654872871208
 20
-8.4203235811951345
 42
-0.0066140844520288
 10
-38.9093484872871045
 20
-7.3981735811951808
 10
-38.9093484872871045
 20
-7.3981735811951808
  0
LWPOLYLINE
  5
92
100
AcDbEntity
  8
AreaEngraving
 62
3
420
65280
370
-1
 48
1.0
  6
BYLAYER
100
AcDbPolyline
 90
5
 70
128
 10
38.5944515127128511
 20
-7.3986835811951437
 42
-0.0066110165402621
 10
38.3205615127128567
 20
-8.4203235811951913
 10
45.1428915127128789
 20
-10.2481235811951592
 10
45.4162515127128472
 20
-9.2264835811951684
 10
38.594451512712908
 20
-7.3986835811951437
  0
LWPOLYLINE
  5
93
100
AcDbEntity
  8
AreaEngraving
 62
3
420
65280
370
-1
 48
1.0
  6
BYLAYER
100
AcDbPolyline
 90
5
 70
128
 10
-35.0429204872871196
 20
-17.0931835811951487
 10
-44.7405184872871189
 20
-22.6918135811951629
 10
-44.2113514872871178
 20
-23.6080335811951727
 10
-34.5137524872871211
 20
-18.0094035811951585
 42
-0.0066131255020083
 10
-35.0429204872871196
 20
-17.0931835811951487
  0
LWPOLYLINE
  5
94
100
AcDbEntity
  8
AreaEngraving
 62
3
420
65280
370
-1
 48
1.0
  6
BYLAYER
100
AcDbPolyline
 90
5
 70
128
 10
34.7280215127128713
 20
-17.0931835811950918
 42
-0.0066131317545044
 10
34.1988515127128494
 20
-18.0094035811951585
 10
43.896451512712872
 20
-23.6080335811951727
 10
44.4251015127128994
 20
-22.6918135811951629
 10
34.7280215127128713
 20
-17.0931835811951487
  0
LWPOLYLINE
  5
95
100
AcDbEntity
  8
AreaEngraving
 62
3
420
65280
370
-1
 48
1.0
  6
BYLAYER
100
AcDbPolyline
 90
5
 70
128
 10
-28.799371487287118
 20
-25.4564935811951614
 10
-33.7938994872871206
 20
-30.4510235811951588
 10
-33.0456274872871063
 20
-31.1987835811951868
 10
-28.0510984872871063
 20
-26.2042535811951893
 42
-0.0066118836727005
 10
-28.7993714872870896
 20
-25.4564935811951614
  0
LWPOLYLINE
  5
96
100
AcDbEntity
  8
AreaEngraving
 62
3
420
65280
370
-1
 48
1.0
  6
BYLAYER
100
AcDbPolyline
 90
5
 70
128
 10
28.4844715127128154
 20
-25.4564935811951614
 42
-0.0066118704081765
 10
27.7362015127128529
 20
-26.2042535811951325
 10
32.7307215127128757
 20
-31.1987835811951868
 10
33.4784815127128752
 20
-30.4510235811951588
 10
28.4844715127128723
 20
-25.4564935811951614
  0
LWPOLYLINE
  5
97
100
AcDbEntity
  8
AreaEngraving
 62
3
420
65280
370
-1
 48
1.0
  6
BYLAYER
100
AcDbPolyline
 90
5
 70
128
 10
-20.6040134872871192
 20
-31.9191535811951894
 10
-26.2026374872871202
 20
-41.6167535811951552
 10
-25.28693148728712
 20
-42.1454035811951826
 10
-19.6883064872871216
 20
-32.4478035811951599
 42
-0.0066087294058223
 10
-20.6040134872870908
 20
-31.9191535811951894
  0
LWPOLYLINE
  5
98
100
AcDbEntity
  8
AreaEngraving
 62
3
420
65280
370
-1
 48
1.0
  6
BYLAYER
100
AcDbPolyline
 90
5
 70
128
 10
20.288591512712884
 20
-31.9191535811951894
 42
-0.0066087456461919
 10
19.3728815127128655
 20
-32.4478035811952168
 10
24.9715115127128797
 20
-42.1454035811951826
 10
25.8877315127128895
 20
-41.6167535811951552
 10
20.288591512712884
 20
-31.9191535811951894
  0
ENDBLK
  5
99
100
AcDbEntity
  8
0
100
AcDbBlockEnd
  0
BLOCK
  5
9A
100
AcDbEntity
  8
0
100
AcDbBlockBegin
  2
block 6
 70
0
 10
0.0
 20
0.0
 30
0.0
  3
block 6
  1

  0
LWPOLYLINE
  5
9B
100
AcDbEntity
  8
VectorEngraving
 62
256
370
-1
 48
1.0
  6
BYLAYER
100
AcDbPolyline
 90
20
 70
128
 10
-9.6223985434999992
 20
3.5055049324999992
 10
-9.6223985434999992
 20
3.0861113744999997
 10
-10.1231553694999992
 20
3.0861113744999997
 10
-10.1231553694999992
 20
2.2472725039999997
 10
-9.6223985434999992
 20
2.2472725039999997
 10
-9.6223985434999992
 20
-0.2365849774999997
 10
-10.1231553694999992
 20
-0.2365849774999997
 10
-10.1231553694999992
 20
-1.0753719874999996
 10
-9.6223985434999992
 20
-1.0753719874999996
 10
-9.6223985434999992
 20
-1.4939893074999997
 10
-9.6223985434999992
 20
-3.5055049325000001
 10
-7.2853780124999989
 20
-3.5055049325000001
 10
-7.2853780124999989
 20
-1.4939893074999997
 10
-6.7416104674999993
 20
-1.4939893074999997
 10
-6.0094962924999997
 20
-3.5055049325000001
 10
-3.6724756024999996
 20
-3.5055049325000001
 10
-4.6877568524999997
 20
-0.7159657374999995
 42
0.1923579134144613
 10
-3.9979806674999985
 20
1.0057578655002395
 42
0.4142131276425501
 10
-6.4977275224330144
 20
3.5055049324999992
 10
-9.6223985434999992
 20
3.5055049324999992
  0
LWPOLYLINE
  5
9C
100
AcDbEntity
  8
VectorEngraving
 62
256
370
-1
 48
1.0
  6
BYLAYER
100
AcDbPolyline
 90
6
 70
128
 10
-7.2853780124999989
 20
1.8282930085000011
 10
-6.7073467624999994
 20
1.8282930085000011
 42
-0.4142108826965076
 10
-5.8848633474999996
 20
1.0057578654997137
 42
-0.4141924816972828
 10
-6.7073467624999994
 20
0.1832743975000009
 10
-7.2853780124999989
 20
0.1832743975
 10
-7.2853780124999989
 20
1.8282930085000011
  0
LWPOLYLINE
  5
9D
100
AcDbEntity
  8
VectorEngraving
 62
256
370
-1
 48
1.0
  6
BYLAYER
100
AcDbPolyline
 90
5
 70
128
 10
-3.6129025424999988
 20
3.5055049324999992
 10
-1.0610868974999992
 20
-3.5055049325000001
 10
1.2758818524999995
 20
-3.5055049325000001
 10
-1.2758818524999995
 20
3.5055049324999992
 10
-3.6129025424999988
 20
3.5055049324999992
  0
LWPOLYLINE
  5
9E
100
AcDbEntity
  8
VectorEngraving
 62
256
370
-1
 48
1.0
  6
BYLAYER
100
AcDbPolyline
 90
8
 70
128
 10
1.4906765424999993
 20
3.5055049324999992
 10
4.0424921874999988
 20
-3.5055049325000001
 10
6.379512612500001
 20
-3.5055049325000001
 10
8.9313279925000018
 20
3.5055049324999992
 10
6.5943075675000031
 20
3.5055049324999992
 10
5.2109765625000009
 20
-0.2950712724999995
 10
3.8276972325000003
 20
3.5055049324999992
 10
1.4906765424999993
 20
3.5055049324999992
  0
LINE
  5
9F
100
AcDbEntity
  8
VectorEngraving
 62
256
370
-1
 48
1.0
  6
BYLAYER
100
AcDbLine
 10
0.1073974775000028
 20
-0.2950712724999986
 30
0.0
 11
1.490676542500001
 21
3.5055049325000009
 31
0.0
  0
LINE
  5
A0
100
AcDbEntity
  8
VectorEngraving
 62
256
370
-1
 48
1.0
  6
BYLAYER
100
AcDbLine
 10
2.6591996787320564
 20
0.2950350650328817
 30
0.0
 11
1.2758818546243074
 21
-3.505504934606535
 31
0.0
  0
ENDBLK
  5
A1
100
AcDbEntity
  8
0
100
AcDbBlockEnd
  0
BLOCK
  5
A2
100
AcDbEntity
  8
0
100
AcDbBlockBegin
  2
block 3
 70
0
 10
0.0
 20
0.0
 30
0.0
  3
block 3
  1

  0
ENDBLK
  5
A3
100
AcDbEntity
  8
0
100
AcDbBlockEnd
  0
BLOCK
  5
A4
100
AcDbEntity
  8
0
100
AcDbBlockBegin
  2
block 2
 70
0
 10
0.0
 20
0.0
 30
0.0
  3
block 2
  1

  0
INSERT
  5
A5
100
AcDbEntity
  8
VectorEngraving
 62
256
370
-1
 48
1.0
  6
BYLAYER
100
AcDbBlockReference
  2
block 1
 10
-269.800785000000019
 20
132.2832050000000095
 30
0.0
  0
ENDBLK
  5
A6
100
AcDbEntity
  8
0
100
AcDbBlockEnd
  0
BLOCK
  5
A7
100
AcDbEntity
  8
0
100
AcDbBlockBegin
  2
block 10
 70
0
 10
0.0
 20
0.0
 30
0.0
  3
block 10
  1

  0
LWPOLYLINE
  5
A8
100
AcDbEntity
  8
AreaEngraving
 62
3
420
65280
370
-1
 48
1.0
  6
BYLAYER
100
AcDbPolyline
 90
6
 70
128
 10
-0.1241871991868777
 20
5.2656190505156095
 10
-0.1241871991868777
 20
3.5095290505156091
 42
-0.0094312964636997
 10
0.0077028008131208
 20
3.5155290505156378
 42
-0.0094282736998003
 10
0.1396528008131099
 20
3.5125290505156235
 10
0.1396528008131099
 20
5.265319050515628
 10
-0.1241871991868777
 20
5.2656190505156095
  0
LWPOLYLINE
  5
A9
100
AcDbEntity
  8
AreaEngraving
 62
3
420
65280
370
-1
 48
1.0
  6
BYLAYER
100
AcDbPolyline
 90
5
 70
128
 10
-2.5030071991868965
 20
4.6282390505156021
 10
-2.731487199186887
 20
4.4962990505156162
 10
-1.8547271991868968
 20
2.9777290505156051
 42
-0.018850642653673
 10
-1.6253471991869048
 20
3.1080490505156169
 10
-2.5030071991868965
 20
4.6282390505156021
  0
LWPOLYLINE
  5
AA
100
AcDbEntity
  8
AreaEngraving
 62
3
420
65280
370
-1
 48
1.0
  6
BYLAYER
100
AcDbPolyline
 90
5
 70
128
 10
2.518512800813113
 20
4.6282390505156021
 10
1.6420228008130948
 20
3.110129050515595
 42
-0.0188531870154901
 10
1.8706428008131013
 20
2.9784090505155936
 10
2.7469928008131035
 20
4.4962990505155878
 10
2.518512800813113
 20
4.6282390505156021
  0
LWPOLYLINE
  5
AB
100
AcDbEntity
  8
AreaEngraving
 62
3
420
65280
370
-1
 48
1.0
  6
BYLAYER
100
AcDbPolyline
 90
5
 70
128
 10
-4.4729271991868984
 20
2.7548590505156048
 10
-4.6048271991869001
 20
2.5263790505156143
 10
-3.0846771991868991
 20
1.6487190505156226
 42
-0.0188520557002934
 10
-2.9543171991869031
 20
1.8780990505156145
 10
-4.4729271991868984
 20
2.7548590505156048
  0
LWPOLYLINE
  5
AC
100
AcDbEntity
  8
AreaEngraving
 62
3
420
65280
370
-1
 48
1.0
  6
BYLAYER
100
AcDbPolyline
 90
5
 70
128
 10
4.4884328008131149
 20
2.7548590505156048
 10
2.9704928008131049
 20
1.8785090505156026
 42
-0.0188549721058722
 10
3.1022628008131505
 20
1.6498890505155961
 10
4.6203228008131134
 20
2.5263790505155859
 10
4.4884328008131149
 20
2.7548590505156048
  0
LWPOLYLINE
  5
AD
100
AcDbEntity
  8
AreaEngraving
 62
3
420
65280
370
-1
 48
1.0
  6
BYLAYER
100
AcDbPolyline
 90
6
 70
128
 10
-5.2422901991868969
 20
0.1475190505156112
 10
-5.2422901991868969
 20
-0.1163209494843764
 10
-3.4861571991868914
 20
-0.1163209494843764
 42
-0.0094348651562602
 10
-3.49215719918692
 20
0.0156190505156095
 42
-0.00943201020193
 10
-3.4861571991869198
 20
0.1475190505156112
 10
-5.2422901991868969
 20
0.1475190505156112
  0
LWPOLYLINE
  5
AE
100
AcDbEntity
  8
AreaEngraving
 62
3
420
65280
370
-1
 48
1.0
  6
BYLAYER
100
AcDbPolyline
 90
6
 70
128
 10
3.5049628008131037
 20
0.1475190505156112
 42
-0.009424702242363
 10
3.5079628008130896
 20
0.0156190505156948
 42
-0.0094348651562611
 10
3.5019628008131178
 20
-0.1163209494843764
 10
5.2580528008130898
 20
-0.1163209494843764
 10
5.2580528008130898
 20
0.1475190505156112
 10
3.5049628008131037
 20
0.1475190505156112
  0
LWPOLYLINE
  5
AF
100
AcDbEntity
  8
AreaEngraving
 62
3
420
65280
370
-1
 48
1.0
  6
BYLAYER
100
AcDbPolyline
 90
5
 70
128
 10
3.1001328008130997
 20
-1.6174309494843877
 42
-0.0188551641205852
 10
2.9697728008131037
 20
-1.8468609494843955
 10
4.4884328008131149
 20
-2.7236209494843857
 10
4.6203228008131134
 20
-2.4951409494843952
 10
3.1001328008130997
 20
-1.6174309494843877
  0
LWPOLYLINE
  5
B0
100
AcDbEntity
  8
AreaEngraving
 62
3
420
65280
370
-1
 48
1.0
  6
BYLAYER
100
AcDbPolyline
 90
5
 70
128
 10
-3.0846771991868991
 20
-1.6174809494843752
 10
-4.6048271991869001
 20
-2.4951409494843668
 10
-4.4729271991868984
 20
-2.7236209494843573
 10
-2.9543171991869031
 20
-1.8468609494843671
 42
-0.0188520557002923
 10
-3.0846771991869275
 20
-1.6174809494843752
  0
LWPOLYLINE
  5
B1
100
AcDbEntity
  8
AreaEngraving
 62
3
420
65280
370
-1
 48
1.0
  6
BYLAYER
100
AcDbPolyline
 90
5
 70
128
 10
1.8702328008131133
 20
-2.9464509494843734
 42
-0.0188520557002944
 10
1.6408528008130929
 20
-3.0768109494843694
 10
2.518512800813113
 20
-4.5970009494843831
 10
2.7469928008131035
 20
-4.4650609494843971
 10
1.8702328008131133
 20
-2.9464509494843734
  0
LWPOLYLINE
  5
B2
100
AcDbEntity
  8
AreaEngraving
 62
3
420
65280
370
-1
 48
1.0
  6
BYLAYER
100
AcDbPolyline
 90
6
 70
128
 10
-1.8547271991868968
 20
-2.9464909494843861
 10
-2.731487199186887
 20
-4.4650609494843971
 10
-2.5030071991868965
 20
-4.5970009494843831
 10
-1.6253471991869048
 20
-3.0768109494843694
 42
-0.0188506426536739
 10
-1.8547271991868968
 20
-2.9464909494843576
 10
-1.8547271991868968
 20
-2.9464909494843861
  0
ENDBLK
  5
B3
100
AcDbEntity
  8
0
100
AcDbBlockEnd
  0
BLOCK
  5
B4
100
AcDbEntity
  8
0
100
AcDbBlockBegin
  2
block 9
 70
0
 10
0.0
 20
0.0
 30
0.0
  3
block 9
  1

  0
LWPOLYLINE
  5
B5
100
AcDbEntity
  8
AreaEngraving
 62
3
420
65280
370
-1
 48
1.0
  6
BYLAYER
100
AcDbPolyline
 90
6
 70
128
 10
-0.6863584872871513
 20
51.1120564188048405
 10
-0.6863584872871513
 20
39.9142964188048381
 42
-0.0033072788336863
 10
-0.1577084872871524
 20
39.9374964188048551
 42
-0.0033077266184061
 10
0.3714615127128411
 20
39.929496418804888
 10
0.3714615127128411
 20
51.1120564188048405
 10
-0.6863584872871513
 20
51.1120564188048405
  0
LWPOLYLINE
  5
B6
100
AcDbEntity
  8
AreaEngraving
 62
3
420
65280
370
-1
 48
1.0
  6
BYLAYER
100
AcDbPolyline
 90
5
 70
128
 10
-11.8215964872871382
 20
45.5113664188048404
 10
-12.8432394872871498
 20
45.2374864188048349
 10
-11.0154454872871383
 20
38.4151664188048301
 42
-0.0066141399769513
 10
-9.9932854872871815
 20
38.6890464188048497
 10
-11.8215964872871382
 20
45.5113664188048404
  0
LWPOLYLINE
  5
B7
100
AcDbEntity
  8
AreaEngraving
 62
3
420
65280
370
-1
 48
1.0
  6
BYLAYER
100
AcDbPolyline
 90
5
 70
128
 10
11.5067015127128514
 20
45.5113664188048404
 10
9.6825215127128672
 20
38.7035164188048384
 42
-0.0066101756053528
 10
10.7041615127128011
 20
38.4301464188048669
 10
12.5283415127128706
 20
45.2374864188048349
 10
11.5067015127128514
 20
45.5113664188048404
  0
LWPOLYLINE
  5
B8
100
AcDbEntity
  8
AreaEngraving
 62
3
420
65280
370
-1
 48
1.0
  6
BYLAYER
100
AcDbPolyline
 90
5
 70
128
 10
-25.2869244872871377
 20
44.5202164188048357
 10
-26.2026304872871378
 20
43.9915664188048368
 10
-20.6034894872871348
 20
34.2939664188048425
 42
-0.006608723992369
 10
-19.6877834872871347
 20
34.8226164188048557
 10
-25.2869244872871377
 20
44.5202164188048357
  0
LWPOLYLINE
  5
B9
100
AcDbEntity
  8
AreaEngraving
 62
3
420
65280
370
-1
 48
1.0
  6
BYLAYER
100
AcDbPolyline
 90
5
 70
128
 10
24.9715115127128513
 20
44.5202164188048357
 10
19.3806315127128528
 20
34.8360564188048301
 42
-0.0066087456461917
 10
20.2963415127127575
 20
34.3074064188048453
 10
25.8877315127128611
 20
43.9915664188048368
 10
24.9715115127128513
 20
44.5202164188048357
  0
LWPOLYLINE
  5
BA
100
AcDbEntity
  8
AreaEngraving
 62
3
420
65280
370
-1
 48
1.0
  6
BYLAYER
100
AcDbPolyline
 90
5
 70
128
 10
-33.0456244872871423
 20
33.5735964188048399
 10
-33.7938984872871231
 20
32.8258364188048404
 10
-28.799371487287118
 20
27.8313064188048429
 42
-0.0066118880942146
 10
-28.0510974872871657
 20
28.5790664188048282
 10
-33.0456244872871423
 20
33.5735964188048399
  0
LWPOLYLINE
  5
BB
100
AcDbEntity
  8
AreaEngraving
 62
3
420
65280
370
-1
 48
1.0
  6
BYLAYER
100
AcDbPolyline
 90
5
 70
128
 10
32.7307215127128472
 20
33.5735964188048399
 10
27.7475715127128524
 20
28.5904364188048419
 42
-0.0066118262234246
 10
28.4953215127127635
 20
27.8421664188048652
 10
33.4784815127128468
 20
32.8258364188048404
 10
32.7307215127128472
 20
33.5735964188048399
  0
LWPOLYLINE
  5
BC
100
AcDbEntity
  8
AreaEngraving
 62
3
420
65280
370
-1
 48
1.0
  6
BYLAYER
100
AcDbPolyline
 90
5
 70
128
 10
-44.2113514872871463
 20
25.98284641880484
 10
-44.7405184872871473
 20
25.0666264188048444
 10
-35.042920487287148
 20
19.4679964188048444
 42
-0.0066131255020083
 10
-34.5137524872871779
 20
20.38421641880484
 10
-44.2113514872871463
 20
25.98284641880484
  0
LWPOLYLINE
  5
BD
100
AcDbEntity
  8
AreaEngraving
 62
3
420
65280
370
-1
 48
1.0
  6
BYLAYER
100
AcDbPolyline
 90
5
 70
128
 10
43.8964515127128436
 20
25.98284641880484
 10
34.2122915127128522
 20
20.3919764188048305
 42
-0.0066115608445713
 10
34.7409415127128796
 20
19.4757464188048885
 10
44.425101512712871
 20
25.066626418804816
 10
43.8964515127128436
 20
25.98284641880484
  0
LWPOLYLINE
  5
BE
100
AcDbEntity
  8
AreaEngraving
 62
3
420
65280
370
-1
 48
1.0
  6
BYLAYER
100
AcDbPolyline
 90
5
 70
128
 10
-45.457797487287138
 20
12.622936418804855
 10
-45.731682487287145
 20
11.6012964188048642
 10
-38.909357487287167
 20
9.7729864188048765
 42
-0.006614144830355
 10
-38.6354744872872118
 20
10.795146418804805
 10
-45.457797487287138
 20
12.622936418804855
  0
LWPOLYLINE
  5
BF
100
AcDbEntity
  8
AreaEngraving
 62
3
420
65280
370
-1
 48
1.0
  6
BYLAYER
100
AcDbPolyline
 90
5
 70
128
 10
45.1428915127128505
 20
12.622936418804855
 10
38.3355515127128399
 20
10.7987564188048424
 42
-0.006611016540262
 10
38.6094415127128912
 20
9.7771164188047948
 10
45.4162515127128188
 20
11.6012964188048642
 10
45.1428915127128505
 20
12.622936418804855
  0
LWPOLYLINE
  5
C0
100
AcDbEntity
  8
AreaEngraving
 62
3
420
65280
370
-1
 48
1.0
  6
BYLAYER
100
AcDbPolyline
 90
6
 70
128
 10
-51.3318474872871491
 20
0.4660564188048539
 10
-51.3318474872871491
 20
-0.591243581195144
 10
-40.1340814872871476
 20
-0.591243581195144
 42
-0.003307292549862
 10
-40.1573314872871379
 20
-0.0625935811951734
 42
-0.003307292549864
 10
-40.1340814872871476
 20
0.4660564188046834
 10
-51.3318474872871491
 20
0.4660564188048539
  0
LWPOLYLINE
  5
C1
100
AcDbEntity
  8
AreaEngraving
 62
3
420
65280
370
-1
 48
1.0
  6
BYLAYER
100
AcDbPolyline
 90
6
 70
128
 10
39.8346815127128195
 20
0.4660564188047971
 42
-0.003304476883546
 10
39.8426815127128577
 20
-0.0625935811947755
 42
-0.0033072788336863
 10
39.8194815127128834
 20
-0.5912435811953145
 10
51.0172515127128179
 20
-0.591243581195144
 10
51.0172515127128179
 20
0.4660564188048539
 10
39.8346815127128764
 20
0.4660564188048539
  0
LWPOLYLINE
  5
C2
100
AcDbEntity
  8
AreaEngraving
 62
3
420
65280
370
-1
 48
1.0
  6
BYLAYER
100
AcDbPolyline
 90
6
 70
128
 10
-38.9093484872871329
 20
-9.8981735811951665
 10
-45.7316724872871418
 20
-11.7264835811951542
 10
-45.4577874872871632
 20
-12.748123581195145
 10
-38.6354654872871492
 20
-10.9203235811951203
 42
-0.0066140844520288
 10
-38.9093484872871329
 20
-9.8981735811951665
 10
-38.9093484872871329
 20
-9.8981735811951665
  0
LWPOLYLINE
  5
C3
100
AcDbEntity
  8
AreaEngraving
 62
3
420
65280
370
-1
 48
1.0
  6
BYLAYER
100
AcDbPolyline
 90
5
 70
128
 10
38.5944515127128227
 20
-9.8986835811951295
 42
-0.0066110165402621
 10
38.3205615127128283
 20
-10.9203235811951771
 10
45.1428915127128505
 20
-12.748123581195145
 10
45.4162515127128188
 20
-11.7264835811951542
 10
38.5944515127128795
 20
-9.8986835811951295
  0
LWPOLYLINE
  5
C4
100
AcDbEntity
  8
AreaEngraving
 62
3
420
65280
370
-1
 48
1.0
  6
BYLAYER
100
AcDbPolyline
 90
5
 70
128
 10
-35.042920487287148
 20
-19.5931835811951345
 10
-44.7405184872871473
 20
-25.1918135811951487
 10
-44.2113514872871463
 20
-26.1080335811951585
 10
-34.5137524872871495
 20
-20.5094035811951443
 42
-0.0066131255020083
 10
-35.042920487287148
 20
-19.5931835811951345
  0
LWPOLYLINE
  5
C5
100
AcDbEntity
  8
AreaEngraving
 62
3
420
65280
370
-1
 48
1.0
  6
BYLAYER
100
AcDbPolyline
 90
5
 70
128
 10
34.7280215127128429
 20
-19.5931835811950776
 42
-0.0066131317545044
 10
34.198851512712821
 20
-20.5094035811951443
 10
43.8964515127128436
 20
-26.1080335811951585
 10
44.425101512712871
 20
-25.1918135811951487
 10
34.7280215127128429
 20
-19.5931835811951345
  0
LWPOLYLINE
  5
C6
100
AcDbEntity
  8
AreaEngraving
 62
3
420
65280
370
-1
 48
1.0
  6
BYLAYER
100
AcDbPolyline
 90
5
 70
128
 10
-28.7993714872871465
 20
-27.9564935811951472
 10
-33.793899487287149
 20
-32.9510235811951588
 10
-33.0456274872871347
 20
-33.6987835811951868
 10
-28.0510984872871347
 20
-28.7042535811951893
 42
-0.0066118836727005
 10
-28.799371487287118
 20
-27.9564935811951472
  0
LWPOLYLINE
  5
C7
100
AcDbEntity
  8
AreaEngraving
 62
3
420
65280
370
-1
 48
1.0
  6
BYLAYER
100
AcDbPolyline
 90
5
 70
128
 10
28.484471512712787
 20
-27.9564935811951472
 42
-0.0066118704081765
 10
27.7362015127128245
 20
-28.7042535811951325
 10
32.7307215127128472
 20
-33.6987835811951868
 10
33.4784815127128468
 20
-32.9510235811951588
 10
28.4844715127128438
 20
-27.9564935811951472
  0
LWPOLYLINE
  5
C8
100
AcDbEntity
  8
AreaEngraving
 62
3
420
65280
370
-1
 48
1.0
  6
BYLAYER
100
AcDbPolyline
 90
5
 70
128
 10
-20.6040134872871477
 20
-34.4191535811951894
 10
-26.2026374872871486
 20
-44.1167535811951552
 10
-25.2869314872871485
 20
-44.6454035811951826
 10
-19.68830648728715
 20
-34.9478035811951599
 42
-0.0066087294058223
 10
-20.6040134872871192
 20
-34.4191535811951894
  0
LWPOLYLINE
  5
C9
100
AcDbEntity
  8
AreaEngraving
 62
3
420
65280
370
-1
 48
1.0
  6
BYLAYER
100
AcDbPolyline
 90
5
 70
128
 10
20.2885915127128555
 20
-34.4191535811951894
 42
-0.0066087456461919
 10
19.3728815127128371
 20
-34.9478035811952168
 10
24.9715115127128513
 20
-44.6454035811951826
 10
25.8877315127128611
 20
-44.1167535811951552
 10
20.2885915127128555
 20
-34.4191535811951894
  0
ENDBLK
  5
CA
100
AcDbEntity
  8
0
100
AcDbBlockEnd
  0
BLOCK
  5
CB
100
AcDbEntity
  8
0
100
AcDbBlockBegin
  2
block 5
 70
0
 10
0.0
 20
0.0
 30
0.0
  3
block 5
  1

  0
LWPOLYLINE
  5
CC
100
AcDbEntity
  8
0
 62
256
370
-1
 48
1.0
  6
BYLAYER
100
AcDbPolyline
 90
20
 70
128
 10
-363.1093789999999899
 20
132.2832050000000095
 10
-363.1093789999999899
 20
116.4570330000000098
 10
-382.0058629999999766
 20
116.4570330000000098
 10
-382.0058629999999766
 20
84.8027360000000101
 10
-363.1093789999999899
 20
84.8027360000000101
 10
-363.1093789999999899
 20
-8.9277349999999842
 10
-382.0058629999999766
 20
-8.9277349999999842
 10
-382.0058629999999766
 20
-40.5800749999999937
 10
-363.1093789999999899
 20
-40.5800749999999937
 10
-363.1093789999999899
 20
-56.3769549999999811
 10
-363.1093789999999899
 20
-132.2832050000000095
 10
-274.9199249999999779
 20
-132.2832050000000095
 10
-274.9199249999999779
 20
-56.3769550000000095
 10
-254.4003949999999747
 20
-56.3769550000000095
 10
-226.7734449999999811
 20
-132.2832050000000095
 10
-138.5839849999999842
 20
-132.2832050000000095
 10
-176.8964849999999842
 20
-27.0175749999999937
 42
0.1923579134144613
 10
-150.8671949999999242
 20
37.9531270000090473
 42
0.4142131276425501
 10
-245.1972649974722458
 20
132.2832049999999811
 10
-363.1093789999999899
 20
132.2832050000000095
  0
LWPOLYLINE
  5
CD
100
AcDbEntity
  8
0
 62
256
370
-1
 48
1.0
  6
BYLAYER
100
AcDbPolyline
 90
6
 70
128
 10
-274.9199249999999779
 20
68.9921890000000104
 10
-253.1074249999999779
 20
68.9921890000000104
 42
-0.4142108826965076
 10
-222.0703149999999937
 20
37.9531269999891805
 42
-0.4141924816972828
 10
-253.1074249999999779
 20
6.91601500000003
 10
-274.9199249999999779
 20
6.9160150000000158
 10
-274.9199249999999779
 20
68.9921890000000104
  0
LWPOLYLINE
  5
CE
100
AcDbEntity
  8
0
 62
256
370
-1
 48
1.0
  6
BYLAYER
100
AcDbPolyline
 90
5
 70
128
 10
56.2519449999999779
 20
132.2832050000000095
 10
4.0527350000000411
 20
-11.1347649999999874
 10
48.1464849999999842
 20
-132.2832050000000095
 10
100.3476550000000316
 20
11.1347649999999874
 10
56.2519449999999779
 20
132.2832050000000095
  0
LWPOLYLINE
  5
CF
100
AcDbEntity
  8
0
 62
256
370
-1
 48
1.0
  6
BYLAYER
100
AcDbPolyline
 90
5
 70
128
 10
-136.3359449999999811
 20
132.2832050000000095
 10
-40.0410149999999589
 20
-132.2832050000000095
 10
48.1464849999999842
 20
-132.2832050000000095
 10
-48.1464849999999842
 20
132.2832050000000095
 10
-136.3359449999999811
 20
132.2832050000000095
  0
LWPOLYLINE
  5
D0
100
AcDbEntity
  8
0
 62
256
370
-1
 48
1.0
  6
BYLAYER
100
AcDbPolyline
 90
8
 70
128
 10
56.2519449999999779
 20
132.2832050000000095
 10
152.546875
 20
-132.2832050000000095
 10
240.7363250000000789
 20
-132.2832050000000095
 10
337.0312450000001263
 20
132.2832050000000095
 10
248.8417950000000474
 20
132.2832050000000095
 10
196.640625
 20
-11.1347649999999874
 10
144.4414050000000316
 20
132.2832050000000095
 10
56.2519449999999779
 20
132.2832050000000095
  0
ENDBLK
  5
D1
100
AcDbEntity
  8
0
100
AcDbBlockEnd
  0
ENDSEC
  0
SECTION
  2
ENTITIES
  0
LWPOLYLINE
  5
D2
100
AcDbEntity
  8
VectorEngraving
 62
5
420
255
370
-1
 48
1.0
  6
BYLAYER
100
AcDbPolyline
 90
20
 70
128
 10
11.0276014564999976
 20
9.8055049324999999
 10
11.0276014564999976
 20
9.3861113745000004
 10
10.5268446304999976
 20
9.3861113745000004
 10
10.5268446304999976
 20
8.5472725039999986
 10
11.0276014564999976
 20
8.5472725039999986
 10
11.0276014564999976
 20
6.0634150225000001
 10
10.5268446304999976
 20
6.0634150225000001
 10
10.5268446304999976
 20
5.2246280125000002
 10
11.0276014564999976
 20
5.2246280125000002
 10
11.0276014564999976
 20
4.8060106925000001
 10
11.0276014564999976
 20
2.7944950674999998
 10
13.3646219874999979
 20
2.7944950674999998
 10
13.3646219874999979
 20
4.8060106925000001
 10
13.9083895324999958
 20
4.8060106925000001
 10
14.6405037074999953
 20
2.7944950674999998
 10
16.9775243974999981
 20
2.7944950674999998
 10
15.9622431474999971
 20
5.5840342625000003
 42
0.1923579134144613
 10
16.6520193324999966
 20
7.3057578655002393
 42
0.4142131276425501
 10
14.1522724775669815
 20
9.8055049324999999
 10
11.0276014564999976
 20
9.8055049324999999
  0
LWPOLYLINE
  5
D3
100
AcDbEntity
  8
VectorEngraving
 62
5
420
255
370
-1
 48
1.0
  6
BYLAYER
100
AcDbPolyline
 90
6
 70
128
 10
13.3646219874999979
 20
8.1282930085000018
 10
13.9426532374999965
 20
8.1282930085000018
 42
-0.4142108826965076
 10
14.7651366524999972
 20
7.3057578654997135
 42
-0.4141924816972828
 10
13.9426532374999965
 20
6.4832743975000007
 10
13.3646219874999979
 20
6.4832743974999998
 10
13.3646219874999979
 20
8.1282930085000018
  0
LWPOLYLINE
  5
D4
100
AcDbEntity
  8
VectorEngraving
 62
5
420
255
370
-1
 48
1.0
  6
BYLAYER
100
AcDbPolyline
 90
5
 70
128
 10
17.0370974574999963
 20
9.8055049324999999
 10
19.5889131024999976
 20
2.7944950674999998
 10
21.9258818524999981
 20
2.7944950674999998
 10
19.3741181474999991
 20
9.8055049324999999
 10
17.0370974574999963
 20
9.8055049324999999
  0
LWPOLYLINE
  5
D5
100
AcDbEntity
  8
VectorEngraving
 62
5
420
255
370
-1
 48
1.0
  6
BYLAYER
100
AcDbPolyline
 90
8
 70
128
 10
22.1406765424999961
 20
9.8055049324999999
 10
24.6924921874999939
 20
2.7944950674999998
 10
27.0295126124999996
 20
2.7944950674999998
 10
29.5813279925000003
 20
9.8055049324999999
 10
27.2443075675000017
 20
9.8055049324999999
 10
25.8609765624999994
 20
6.0049287275000003
 10
24.4776972324999988
 20
9.8055049324999999
 10
22.1406765424999961
 20
9.8055049324999999
  0
LINE
  5
D6
100
AcDbEntity
  8
VectorEngraving
 62
5
420
255
370
-1
 48
1.0
  6
BYLAYER
100
AcDbLine
 10
20.7573974774999996
 20
6.0049287275000012
 30
0.0
 11
22.1406765424999961
 21
9.8055049324999999
 31
0.0
  0
LINE
  5
D7
100
AcDbEntity
  8
VectorEngraving
 62
5
420
255
370
-1
 48
1.0
  6
BYLAYER
100
AcDbLine
 10
23.3091996787320568
 20
6.5950350650328815
 30
0.0
 11
21.9258818546243042
 21
2.7944950653934648
 31
0.0
  0
LINE
  5
D8
100
AcDbEntity
  8
Cuts
 62
1
420
16711680
370
-1
 48
1.0
  6
BYLAYER
100
AcDbLine
 10
0.0
 20
0.0
 30
0.0
 11
40.2999999999999972
 21
0.0
 31
0.0
  0
LINE
  5
D9
100
AcDbEntity
  8
Cuts
 62
1
420
16711680
370
-1
 48
1.0
  6
BYLAYER
100
AcDbLine
 10
40.2999999999999972
 20
0.0
 30
0.0
 11
40.2999999999999972
 21
128.5
 31
0.0
  0
LINE
  5
DA
100
AcDbEntity
  8
Cuts
 62
1
420
16711680
370
-1
 48
1.0
  6
BYLAYER
100
AcDbLine
 10
40.2999999999999972
 20
128.5
 30
0.0
 11
0.0
 21
128.5
 31
0.0
  0
LINE
  5
DB
100
AcDbEntity
  8
Cuts
 62
1
420
16711680
370
-1
 48
1.0
  6
BYLAYER
100
AcDbLine
 10
0.0
 20
128.5
 30
0.0
 11
0.0
 21
0.0
 31
0.0
  0
DIMENSION
  5
DC
100
AcDbEntity
  8
UserDrawings
 62
256
370
-1
 48
1.0
  6
BYLAYER
100
AcDbDimension
 10
-10.0
 20
0.0
 30
0.0
 11
-11.875
 21
64.25
 31
0.0
 70
0
 71
8
 72
2
 74
0
 75
0
 41
1.0
 42
0.0
  1

  3
Standard
100
AcDbAlignedDimension
 13
-0.0
 23
-0.0
 33
0.0
 14
0.0
 24
128.5
 34
0.0
 50
90.0
100
AcDbRotatedDimension
1001
ACAD
1000
DSTYLE
1002
{
1070
144
1040
1.0
1070
40
1040
1.0
1002
}
  0
DIMENSION
  5
DD
100
AcDbEntity
  8
UserDrawings
 62
256
370
-1
 48
1.0
  6
BYLAYER
100
AcDbDimension
 10
0.0
 20
136.7913298366080426
 30
0.0
 11
20.1499999999999986
 21
138.6663298366080426
 31
0.0
 70
0
 71
8
 72
2
 74
0
 75
0
 41
1.0
 42
0.0
  1

  3
Standard
100
AcDbAlignedDimension
 13
0.0
 23
128.5
 33
0.0
 14
40.2999999999999972
 24
128.5
 34
0.0
 50
0.0
100
AcDbRotatedDimension
1001
ACAD
1000
DSTYLE
1002
{
1070
144
1040
1.0
1070
40
1040
1.0
1002
}
  0
LINE
  5
DE
100
AcDbEntity
  8
Cuts
 62
1
420
16711680
370
-1
 48
1.0
  6
BYLAYER
100
AcDbLine
 10
6.5000000000000107
 20
127.1000000000000369
 30
0.0
 11
8.5000000000000107
 21
127.1000000000000369
 31
0.0
  0
LINE
  5
DF
100
AcDbEntity
  8
Cuts
 62
1
420
16711680
370
-1
 48
1.0
  6
BYLAYER
100
AcDbLine
 10
31.8000000000000078
 20
127.1000000000000512
 30
0.0
 11
33.8000000000000114
 21
127.1000000000000512
 31
0.0
  0
LINE
  5
E0
100
AcDbEntity
  8
Cuts
 62
1
420
16711680
370
-1
 48
1.0
  6
BYLAYER
100
AcDbLine
 10
6.5000000000000107
 20
4.6000000000000227
 30
0.0
 11
8.5000000000000107
 21
4.6000000000000227
 31
0.0
  0
LINE
  5
E1
100
AcDbEntity
  8
Cuts
 62
1
420
16711680
370
-1
 48
1.0
  6
BYLAYER
100
AcDbLine
 10
31.8000000000000078
 20
4.6000000000000227
 30
0.0
 11
33.8000000000000114
 21
4.6000000000000227
 31
0.0
  0
LINE
  5
E2
100
AcDbEntity
  8
Cuts
 62
1
420
16711680
370
-1
 48
1.0
  6
BYLAYER
100
AcDbLine
 10
6.5000000000000107
 20
123.9000000000000341
 30
0.0
 11
8.5000000000000107
 21
123.9000000000000341
 31
0.0
  0
LINE
  5
E3
100
AcDbEntity
  8
Cuts
 62
1
420
16711680
370
-1
 48
1.0
  6
BYLAYER
100
AcDbLine
 10
31.8000000000000078
 20
123.9000000000000483
 30
0.0
 11
33.8000000000000114
 21
123.9000000000000483
 31
0.0
  0
LINE
  5
E4
100
AcDbEntity
  8
Cuts
 62
1
420
16711680
370
-1
 48
1.0
  6
BYLAYER
100
AcDbLine
 10
6.5000000000000107
 20
1.4000000000000203
 30
0.0
 11
8.5000000000000107
 21
1.4000000000000203
 31
0.0
  0
LINE
  5
E5
100
AcDbEntity
  8
Cuts
 62
1
420
16711680
370
-1
 48
1.0
  6
BYLAYER
100
AcDbLine
 10
31.8000000000000078
 20
1.4000000000000208
 30
0.0
 11
33.8000000000000114
 21
1.4000000000000208
 31
0.0
  0
ARC
  5
E6
100
AcDbEntity
  8
Cuts
 62
1
420
16711680
370
-1
 48
1.0
  6
BYLAYER
100
AcDbCircle
 10
8.5000000000000107
 20
125.5000000000000426
 30
0.0
 40
1.6000000000000085
100
AcDbArc
 50
270.0
 51
90.0
  0
ARC
  5
E7
100
AcDbEntity
  8
Cuts
 62
1
420
16711680
370
-1
 48
1.0
  6
BYLAYER
100
AcDbCircle
 10
33.8000000000000114
 20
125.5000000000000568
 30
0.0
 40
1.6000000000000085
100
AcDbArc
 50
270.0
 51
90.0
  0
ARC
  5
E8
100
AcDbEntity
  8
Cuts
 62
1
420
16711680
370
-1
 48
1.0
  6
BYLAYER
100
AcDbCircle
 10
8.5000000000000107
 20
3.0000000000000289
 30
0.0
 40
1.6000000000000085
100
AcDbArc
 50
270.0
 51
90.0
  0
ARC
  5
E9
100
AcDbEntity
  8
Cuts
 62
1
420
16711680
370
-1
 48
1.0
  6
BYLAYER
100
AcDbCircle
 10
33.8000000000000114
 20
3.0000000000000293
 30
0.0
 40
1.6000000000000085
100
AcDbArc
 50
270.0
 51
90.0
  0
ARC
  5
EA
100
AcDbEntity
  8
Cuts
 62
1
420
16711680
370
-1
 48
1.0
  6
BYLAYER
100
AcDbCircle
 10
6.5000000000000107
 20
125.5000000000000426
 30
0.0
 40
1.6000000000000085
100
AcDbArc
 50
90.0
 51
270.0
  0
ARC
  5
EB
100
AcDbEntity
  8
Cuts
 62
1
420
16711680
370
-1
 48
1.0
  6
BYLAYER
100
AcDbCircle
 10
31.8000000000000078
 20
125.5000000000000568
 30
0.0
 40
1.6000000000000085
100
AcDbArc
 50
90.0
 51
270.0
  0
ARC
  5
EC
100
AcDbEntity
  8
Cuts
 62
1
420
16711680
370
-1
 48
1.0
  6
BYLAYER
100
AcDbCircle
 10
6.5000000000000107
 20
3.0000000000000289
 30
0.0
 40
1.6000000000000085
100
AcDbArc
 50
90.0
 51
270.0
  0
ARC
  5
ED
100
AcDbEntity
  8
Cuts
 62
1
420
16711680
370
-1
 48
1.0
  6
BYLAYER
100
AcDbCircle
 10
31.8000000000000078
 20
3.0000000000000293
 30
0.0
 40
1.6000000000000085
100
AcDbArc
 50
90.0
 51
270.0
  0
CIRCLE
  5
EE
100
AcDbEntity
  8
Cuts
 62
1
420
16711680
370
-1
 48
1.0
  6
BYLAYER
100
AcDbCircle
 10
20.1499999999999986
 20
25.0
 30
0.0
 40
3.2000000000000002
  0
CIRCLE
  5
EF
100
AcDbEntity
  8
Cuts
 62
1
420
16711680
370
-1
 48
1.0
  6
BYLAYER
100
AcDbCircle
 10
8.6499999999999986
 20
25.0
 30
0.0
 40
2.6000000000000001
  0
CIRCLE
  5
F0
100
AcDbEntity
  8
Cuts
 62
1
420
16711680
370
-1
 48
1.0
  6
BYLAYER
100
AcDbCircle
 10
20.1499999999999986
 20
106.0
 30
0.0
 40
3.2000000000000002
  0
CIRCLE
  5
F1
100
AcDbEntity
  8
Cuts
 62
1
420
16711680
370
-1
 48
1.0
  6
BYLAYER
100
AcDbCircle
 10
32.1499999999999986
 20
25.0
 30
0.0
 40
3.2000000000000002
  0
CIRCLE
  5
F2
100
AcDbEntity
  8
Cuts
 62
1
420
16711680
370
-1
 48
1.0
  6
BYLAYER
100
AcDbCircle
 10
32.1499999999999986
 20
106.0
 30
0.0
 40
3.2000000000000002
  0
INSERT
  5
F3
100
AcDbEntity
  8
VectorEngraving
 62
256
370
-1
 48
1.0
  6
BYLAYER
100
AcDbBlockReference
  2
block 10
 10
32.1499999999999986
 20
25.0
 30
0.0
  0
INSERT
  5
F4
100
AcDbEntity
  8
VectorEngraving
 62
256
370
-1
 48
1.0
  6
BYLAYER
100
AcDbBlockReference
  2
block 10
 10
32.1499999999999986
 20
106.0
 30
0.0
  0
LWPOLYLINE
  5
F5
100
AcDbEntity
  8
VectorEngraving
 62
5
420
255
370
-1
 48
1.0
  6
BYLAYER
100
AcDbPolyline
 90
268
 70
129
 10
2.7915589282368281
 20
118.0
 10
2.7915589282368281
 20
121.9745175192055484
 10
4.0484448191868019
 20
121.9745175192055484
 10
4.0541185727475852
 20
121.9745126530899455
 10
4.0597804555022652
 20
121.9744980547431368
 10
4.0654304674508372
 20
121.974473724165108
 10
4.0710686085933032
 20
121.9744396613558592
 10
4.076694878929664
 20
121.9743958663154189
 10
4.0823092784599186
 20
121.9743423390437727
 10
4.0879118071840672
 20
121.9742790795409064
 10
4.0935024651021106
 20
121.9742060878068344
 10
4.099081252214047
 20
121.9741233638415423
 10
4.1046481685198764
 20
121.9740309076450444
 10
4.1102032140196023
 20
121.9739287192173407
 10
4.1157463887132204
 20
121.973816798558417
 10
4.1212776926007342
 20
121.9736951456683016
 10
4.126797125682141
 20
121.9735637605469378
 10
4.1323046879574417
 20
121.9734226431944109
 10
4.1378003794266371
 20
121.9732717936106496
 10
4.1432842000897248
 20
121.9731112117956826
 10
4.148756149946708
 20
121.9729408977494955
 10
4.1542162289975861
 20
121.9727608514721169
 10
4.1596644372423572
 20
121.9725710729634898
 10
4.1651007746810231
 20
121.9723715622236995
 10
4.170525241313582
 20
121.9721623192526749
 10
4.1759378371400349
 20
121.9719433440504588
 10
4.1813385621603816
 20
121.9717146366170084
 10
4.1867274163746231
 20
121.9714761969523664
 10
4.1921043997827585
 20
121.9712280250565186
 10
4.1974695123847887
 20
121.9709701209294366
 10
4.2028227541807119
 20
121.9707024845711771
 10
4.2081641251705291
 20
121.9704251159816693
 10
4.213493625354241
 20
121.9701380151609698
 10
4.2188112547318468
 20
121.9698411821090502
 10
4.2241170133033457
 20
121.9695346168259249
 10
4.2294109010687402
 20
121.969218319311608
 10
4.2346929180280277
 20
121.968892289566071
 10
4.2399630641812092
 20
121.9685565275892998
 10
4.2452213395282845
 20
121.9682110333813512
 10
4.2504677440692546
 20
121.9678558069421683
 10
4.2557022778041187
 20
121.9674908482718081
 10
4.2609249407328766
 20
121.9671161573701994
 10
4.2661357328555294
 20
121.9667317342373849
 10
4.2713346541720743
 20
121.9663375788733788
 10
4.2765217046825139
 20
121.9659336912781669
 10
4.2816968843868484
 20
121.9655200714517207
 10
4.2868601932850767
 20
121.9650967193940829
 10
4.292011631377199
 20
121.9646636351052393
 10
4.2971511986632152
 20
121.9642208185851757
 10
4.3022788951431261
 20
121.9637682698339063
 10
4.3073947208169301
 20
121.9633059888514168
 10
4.312498675684628
 20
121.9628339756377216
 10
4.3175907597462206
 20
121.9623522301928062
 10
4.3226709730017072
 20
121.9618607525166851
 10
4.3277393154510886
 20
121.9613595426093866
 10
4.3327957870943621
 20
121.9608486004708539
 10
4.3378403879315304
 20
121.9603279261011011
 10
4.3428731179625935
 20
121.9597975195001425
 10
4.3478939771875496
 20
121.9592573806679923
 10
4.3529029656064013
 20
121.9587075096046078
 10
4.3579000832191452
 20
121.9581479063100176
 10
4.3628853300257839
 20
121.9575785707842215
 10
4.3678587060263165
 20
121.9569995030272196
 10
4.3728202112207439
 20
121.9564107030390119
 10
4.3777698456090643
 20
121.9558121708195699
 10
4.3827076091912796
 20
121.9552039063689506
 10
4.3876335019673895
 20
121.9545859096870828
 10
4.3925475239373926
 20
121.9539581807740376
 10
4.3974496751012895
 20
121.9533207196297724
 10
4.4023399554590803
 20
121.9526735262543014
 10
4.407218365010765
 20
121.9520166006475961
 10
4.4120849037563445
 20
121.9513499428097134
 10
4.416939571695818
 20
121.9506735527405965
 10
4.4217823688291853
 20
121.9499874304402738
 10
4.4266132951564465
 20
121.9492915759087452
 10
4.4314323506776017
 20
121.9485859891460251
 10
4.4362395353926507
 20
121.9478706701520707
 10
4.4410348493015945
 20
121.9471456189269105
 10
4.4458182924044323
 20
121.9464108354705303
 10
4.4505898647011639
 20
121.9456663197829585
 10
4.4553495661917895
 20
121.9449120718641666
 10
4.4600973968763098
 20
121.9441480917141547
 10
4.4648333567547223
 20
121.9433743793329654
 10
4.4695574458270295
 20
121.9425909347205419
 10
4.4742696640932316
 20
121.9417977578769126
 10
4.4789700115533275
 20
121.9409948488020632
 10
4.4836584882073174
 20
121.9401822074960364
 10
4.4883350940552003
 20
121.9393598339587612
 10
4.4929998290969788
 20
121.9385277281902802
 10
4.4976526933326513
 20
121.9376858901906076
 10
4.5022936867622168
 20
121.9368343199597291
 10
4.506922809385677
 20
121.9359730174976164
 10
4.5115400612030312
 20
121.9351019828043121
 10
4.5161454422142793
 20
121.9342212158797736
 10
4.5207389524194213
 20
121.9333307167240577
 10
4.5253205918184571
 20
121.9324304853371075
 10
4.5298903604113878
 20
121.9315205217189515
 10
4.5344482581982124
 20
121.9306008258695897
 10
4.53899428517893
 20
121.9296713977890221
 10
4.5435284413535424
 20
121.9287322374772344
 10
4.5480507267220496
 20
121.927783344934241
 10
4.5525611412844498
 20
121.9268247201600275
 10
4.5570596850407448
 20
121.9258563631546366
 10
4.5615463579909328
 20
121.9248782739179973
 10
4.5660211601350147
 20
121.9238904524501805
 10
4.5704840914729914
 20
121.9228928987511296
 10
4.5749351520048629
 20
121.921885612820887
 10
4.5793743417306274
 20
121.9208685946594244
 10
4.5838016606502858
 20
121.9198418442667275
 10
4.588217108763839
 20
121.9188053616428533
 10
4.5926206860712853
 20
121.9177591467877591
 10
4.5970123925726272
 20
121.916703199701459
 10
4.6013922282678621
 20
121.9156375203839389
 10
4.6057601931569909
 20
121.9145621088352129
 10
4.6101162872400128
 20
121.9134769650552812
 10
4.6144605105169312
 20
121.9123820890441152
 10
4.6187928629877417
 20
121.9112774808017718
 10
4.6231133446524471
 20
121.9101631403282227
 10
4.6274219555110463
 20
121.9090390676234108
 10
4.6317186955635394
 20
121.90790526268745
 10
4.6360035648099265
 20
121.9067617255202407
 10
4.6402765632502074
 20
121.905608456121854
 10
4.6445376908843823
 20
121.9044454544922473
 10
4.6487869477124519
 20
121.9032727206314064
 10
4.6530243337344164
 20
121.9020902545393596
 10
4.6572498489502738
 20
121.9008980562161071
 10
4.6614634933600243
 20
121.8996961256616487
 10
4.6656652669636696
 20
121.8984844628759845
 10
4.6698551697612096
 20
121.8972630678591145
 10
4.6740332017526445
 20
121.8960319406110102
 10
4.6781993629379706
 20
121.8947910811317286
 10
4.6823536533171932
 20
121.8935404894212127
 10
4.6864960728903089
 20
121.892280165479491
 10
4.6906266216573194
 20
121.8910101093065776
 10
4.6947452996182211
 20
121.8897303209024159
 10
4.6988521067730193
 20
121.8884408002670767
 10
4.7029470431217124
 20
121.8871415474005175
 10
4.7070301086642985
 20
121.8858325623027525
 10
4.7111013034007785
 20
121.8845138449737817
 10
4.7151606273311515
 20
121.8831853954135767
 10
4.7192080804554202
 20
121.8818472136221658
 10
4.7232436627735819
 20
121.8804992995995633
 10
4.7272673742856384
 20
121.879141653345755
 10
4.7312792149915879
 20
121.8777742748607125
 10
4.7352791848914322
 20
121.8763971641444783
 10
4.7392672839851713
 20
121.8750103211970384
 10
4.7432435122728025
 20
121.8736137460183642
 10
4.7472078697543303
 20
121.8722074386085126
 10
4.7511603564297502
 20
121.8707913989674125
 10
4.755100972299064
 20
121.8693656270951351
 10
4.7590297173622726
 20
121.8679301229916234
 10
4.7629465916193761
 20
121.8664848866569059
 10
4.7668515950703725
 20
121.8650299180909826
 10
4.7707447277152628
 20
121.8635652172938535
 10
4.7746259895540479
 20
121.8620907842655043
 10
4.7784953805867261
 20
121.8606066190059778
 10
4.7823529008132981
 20
121.8591127215151886
 10
4.7861985502337658
 20
121.857609091793222
 10
4.7900323288481266
 20
121.8560957298400353
 10
4.7938542366563812
 20
121.8545726356556429
 10
4.7976642736585298
 20
121.8530398092400446
 10
4.8014624398545731
 20
121.8514972505932121
 10
4.8052487352445095
 20
121.8499449597152022
 10
4.8090231598283415
 20
121.8483829366059581
 10
4.8127857136060674
 20
121.8468111812655366
 10
4.8165363965776855
 20
121.8452296936938666
 10
4.8202752087431993
 20
121.8436384738909908
 10
4.824002150102606
 20
121.8420375218569234
 10
4.8277172206559076
 20
121.8404268375916502
 10
4.831420420403103
 20
121.8388064210951427
 10
4.8351117493441915
 20
121.8371762723674294
 10
4.8387912074791748
 20
121.8355363914085103
 10
4.842458794808052
 20
121.8338867782183996
 10
4.8461145113308239
 20
121.8322274327970547
 10
4.8497583570474898
 20
121.8305583551445181
 10
4.8533903319580487
 20
121.8288795452607616
 10
4.8570104360625024
 20
121.8271910031457992
 10
4.86061866936085
 20
121.8254927287996168
 10
4.8642150318530915
 20
121.8237847222222285
 10
4.8677995235392277
 20
121.8220669834136203
 10
4.871372144419257
 20
121.8203395123738062
 10
4.8749328944931811
 20
121.8186023091028005
 10
4.8784817737609991
 20
121.8168553736005748
 10
4.8820187822227119
 20
121.8150987058671291
 10
4.8855439198783159
 20
121.8133323059024917
 10
4.8890571867278174
 20
121.8115561737066344
 10
4.8925585827712101
 20
121.809770309279557
 10
4.8960481080084985
 20
121.8079747126212879
 10
4.8995257624396809
 20
121.8061693837317989
 10
4.9029915460647562
 20
121.8043543226110899
 10
4.9064454588837272
 20
121.802529529259175
 10
4.9098875008965912
 20
121.8006950036760685
 10
4.91331767210335
 20
121.798850745861742
 10
4.9167359725040019
 20
121.7969967558161812
 10
4.9201424020985485
 20
121.7951330335394431
 10
4.923536960886989
 20
121.7932595790314849
 10
4.9269196488693225
 20
121.7913763922923209
 10
4.9302904660455509
 20
121.7894834733219227
 10
4.933649412415674
 20
121.7875808221203471
 10
4.936996487979691
 20
121.7856684386875372
 10
4.9403316927376011
 20
121.7837463230235358
 10
4.9436550266894059
 20
121.7818144751283143
 10
4.9469664898351047
 20
121.7798728950018869
 10
4.9502660821746964
 20
121.7779215826442396
 10
4.9535538037081839
 20
121.7759605380553865
 10
4.9568296544355643
 20
121.7739897612353275
 10
4.9600936343568396
 20
121.7720092521840485
 10
4.9633457434720087
 20
121.7700190109015637
 10
4.9665859817810709
 20
121.768019037387873
 10
4.9698143492840288
 20
121.7660093316429766
 10
4.9730308459808787
 20
121.7639898936668601
 10
4.9762354718716235
 20
121.7619607234595236
 10
4.9794282269562631
 20
121.7599218210210097
 10
4.9826091112347957
 20
121.7578731863512473
 10
4.985778124707223
 20
121.7558148194503076
 10
4.9889352673735443
 20
121.753746720318162
 10
4.9920805392337604
 20
121.7516688889547822
 10
4.9952139402878695
 20
121.7495813253601682
 10
4.9983354705358733
 20
121.747484029534391
 10
5.0014451299777694
 20
121.7453770014773795
 10
5.004542918613561
 20
121.7432602411891622
 10
5.0076288364432466
 20
121.7411337486697533
 10
5.0107028834668261
 20
121.7389975239191102
 10
5.0137650596843004
 20
121.7368515669372613
 10
5.0168153650956668
 20
121.7346958777242065
 10
5.0198537997009289
 20
121.732530456279946
 10
5.0228803635000849
 20
121.7303553026044796
 10
5.0258950564931339
 20
121.7281704166977789
 10
5.0288978786800778
 20
121.7259757985598725
 10
5.0318888300609155
 20
121.7237714481907602
 10
5.034867910635648
 20
121.7215573655904564
 10
5.0378351204042735
 20
121.7193335507589325
 10
5.0407904593667929
 20
121.7171000036961885
 10
5.0437339275232072
 20
121.7148567244022388
 10
5.0466655248735144
 20
121.712603712877069
 10
5.0495852514177173
 20
121.7103409691207361
 10
5.0524931071558132
 20
121.7080684931331405
 10
5.0553890920878031
 20
121.7057862849143532
 10
5.0582732062136877
 20
121.7034943444643602
 10
5.0611454495334662
 20
121.7011926717831471
 10
5.0640058220471387
 20
121.6988812668707283
 10
5.0668543237547041
 20
121.6965601297271036
 10
5.0696909546561653
 20
121.6942292603522588
 10
5.0725157147515194
 20
121.6918886587462225
 10
5.0753286040407675
 20
121.6895383249089662
 10
5.0781296225239094
 20
121.6871782588404756
 10
5.0809187702009471
 20
121.6848084605408076
 10
5.0836960470718777
 20
121.6824289300099196
 10
5.0864614531367023
 20
121.6800396672478257
 10
5.0892149883954207
 20
121.6776406722544976
 10
5.0919566528480331
 20
121.6752319450299922
 10
5.0946864464945394
 20
121.6728134855742525
 10
5.0974043693349396
 20
121.6703852938873069
 10
5.1001104213692345
 20
121.6679473699691556
 10
5.1028046025974234
 20
121.6654997138197842
 10
5.1054869130195071
 20
121.6630423254392497
 10
5.1081573526354838
 20
121.6605752048274525
 10
5.1108159214453543
 20
121.6580983519844636
 10
5.1134626194491197
 20
121.6556117669102548
 42
-0.2148899109718799
 10
5.4514802323402574
 20
120.8068203110361623
 42
-0.1001913794401367
 10
5.3592936106426752
 20
120.369870713884211
 42
-0.0965402896310504
 10
5.0977234401348994
 20
119.9775154581225394
 42
-0.1106023788064011
 10
4.7057429267378588
 20
119.7223159078133818
 10
5.5601555180813094
 20
118.0
 10
4.8009274873524372
 20
118.0
 10
3.9974798575978916
 20
119.6526138279932496
 10
3.51855911560801
 20
119.6526138279932496
 10
3.51855911560801
 20
118.0
  0
LWPOLYLINE
  5
F6
100
AcDbEntity
  8
VectorEngraving
 62
5
420
255
370
-1
 48
1.0
  6
BYLAYER
100
AcDbPolyline
 90
7
 70
129
 10
3.51855911560801
 20
120.2522016113921666
 10
4.0994097807757086
 20
120.2522016113921666
 42
0.1918312228860026
 10
4.5584691774405002
 20
120.39572793704329
 42
0.2154606779080963
 10
4.7117388045718478
 20
120.7880831928049474
 42
0.1955098707729319
 10
4.5584691774405002
 20
121.18343638748361
 42
0.2146607426727106
 10
4.0994097807757086
 20
121.3494472550121799
 10
3.51855911560801
 20
121.3494472550121799
  0
LWPOLYLINE
  5
F7
100
AcDbEntity
  8
VectorEngraving
 62
5
420
255
370
-1
 48
1.0
  6
BYLAYER
100
AcDbPolyline
 90
13
 70
129
 10
6.2804103428892546
 20
118.0
 10
5.7572700018737031
 20
121.9745175192055484
 10
6.3823402660670698
 20
121.9745175192055484
 10
6.6506557991380841
 20
119.4802323402660704
 10
7.1610548997564081
 20
121.6619823871088641
 10
7.5432921116732157
 20
121.6619823871088641
 10
8.0536912122915396
 20
119.4862282181000523
 10
8.2642964212104104
 20
121.9745175192055484
 10
8.8511429642120945
 20
121.9745175192055484
 10
8.3347479857597815
 20
118.0
 10
7.882059209293601
 20
118.0
 10
7.3199456623571209
 20
120.4500655799138116
 10
6.7458403597526626
 20
118.0
  0
LWPOLYLINE
  5
F8
100
AcDbEntity
  8
VectorEngraving
 62
5
420
255
370
-1
 48
1.0
  6
BYLAYER
100
AcDbPolyline
 90
12
 70
129
 10
12.3969552182874185
 20
118.0
 10
12.3969552182874185
 20
121.9745175192055484
 10
14.9871744425707245
 20
121.9745175192055484
 10
14.9871744425707245
 20
121.3876709762038644
 10
13.0984729248641472
 20
121.3876709762038644
 10
13.0984729248641472
 20
120.3668727749672058
 10
14.6491568296795869
 20
120.3668727749672058
 10
14.6491568296795869
 20
119.773280869402285
 10
13.0984729248641472
 20
119.773280869402285
 10
13.0984729248641472
 20
118.586846543001684
 10
14.9676878396102584
 20
118.586846543001684
 10
14.9676878396102584
 20
118.0
  0
LWPOLYLINE
  5
F9
100
AcDbEntity
  8
VectorEngraving
 62
5
420
255
370
-1
 48
1.0
  6
BYLAYER
100
AcDbPolyline
 90
13
 70
129
 10
15.4645962151021088
 20
118.0
 10
15.4645962151021088
 20
121.9745175192055484
 10
16.0964118418587105
 20
121.9745175192055484
 10
16.8683811129848138
 20
120.1495222034851054
 10
17.640350384110917
 20
121.9805133970395303
 10
18.2721660108675188
 20
121.9805133970395303
 10
18.2721660108675188
 20
118.0
 10
17.6463462619449061
 20
118.0
 10
17.6463462619449061
 20
120.7753419524077145
 10
17.0212759977515375
 20
119.3138467303728731
 10
16.6705171444631723
 20
119.3138467303728731
 10
16.0836706014614848
 20
120.7685965898444778
 10
16.0836706014614848
 20
118.0
  0
LWPOLYLINE
  5
FA
100
AcDbEntity
  8
VectorEngraving
 62
5
420
255
370
-1
 48
1.0
  6
BYLAYER
100
AcDbPolyline
 90
10
 70
129
 10
21.906417462994181
 20
118.0
 10
21.906417462994181
 20
121.9745175192055484
 10
22.9339610267940692
 20
121.9745175192055484
 42
-0.1118089991174207
 10
23.7471519580288444
 20
121.830991193554425
 42
-0.1180376728833643
 10
24.235066516769713
 20
121.4258946973955346
 42
-0.0860317353694479
 10
24.5446037099493992
 20
120.78770845044032
 42
-0.0734144486327197
 10
24.6562769346074475
 20
119.9584035975266829
 42
-0.0937972774119917
 10
24.4584129660858061
 20
118.9154955967772196
 42
-0.1638286356081164
 10
23.8809349821997294
 20
118.2360876897133153
 42
-0.136034302757939
 10
22.8575135844107074
 20
118.0
  0
LWPOLYLINE
  5
FB
100
AcDbEntity
  8
VectorEngraving
 62
5
420
255
370
-1
 48
1.0
  6
BYLAYER
100
AcDbPolyline
 90
9
 70
129
 10
22.6086846543001592
 20
118.5613640622072325
 10
22.8380269814502448
 20
118.5613640622072325
 42
0.1550328994721509
 10
23.4919524077196833
 20
118.7337455499344259
 42
0.1609236696386703
 10
23.8460839422896669
 20
119.2186621697582893
 42
0.0875887959747039
 10
23.9480138654674803
 20
119.9524077196927152
 42
0.0688444510862875
 10
23.8554525014052743
 20
120.7176316282555746
 42
0.1625887306929341
 10
23.5335488101929826
 20
121.2216601086752803
 42
0.1685507963356868
 10
22.9084785459996176
 20
121.4004122166010831
 10
22.6086846543001592
 20
121.4004122166010831
  0
LWPOLYLINE
  5
FC
100
AcDbEntity
  8
VectorEngraving
 62
5
420
255
370
-1
 48
1.0
  6
BYLAYER
100
AcDbPolyline
 90
13
 70
129
 10
25.4147554806070737
 20
118.0
 10
24.8916151395915222
 20
121.9745175192055484
 10
25.5166854037848871
 20
121.9745175192055484
 10
25.7850009368559014
 20
119.4802323402660704
 10
26.2954000374742272
 20
121.6619823871088641
 10
26.677637249391033
 20
121.6619823871088641
 10
27.1880363500093587
 20
119.4862282181000523
 10
27.3986415589282259
 20
121.9745175192055484
 10
27.9854881019299135
 20
121.9745175192055484
 10
27.4690931234775988
 20
118.0
 10
27.0164043470114201
 20
118.0
 10
26.4542908000749399
 20
120.4500655799138116
 10
25.8801854974704781
 20
118.0
  0
LWPOLYLINE
  5
FD
100
AcDbEntity
  8
VectorEngraving
 62
5
420
255
370
-1
 48
1.0
  6
BYLAYER
100
AcDbPolyline
 90
10
 70
129
 10
28.4381768783960922
 20
118.0
 10
28.4381768783960922
 20
121.9745175192055484
 10
30.9129754543751076
 20
121.9745175192055484
 10
30.9129754543751076
 20
121.3936668540378463
 10
29.0819842608206756
 20
121.3936668540378463
 10
29.0819842608206756
 20
120.4305789769533419
 10
30.5689619636499827
 20
120.4305789769533419
 10
30.5689619636499827
 20
119.849728311785654
 10
29.0819842608206756
 20
119.849728311785654
 10
29.0819842608206756
 20
118.0
  0
LWPOLYLINE
  5
FE
100
AcDbEntity
  8
VectorEngraving
 62
5
420
255
370
-1
 48
1.0
  6
BYLAYER
100
AcDbPolyline
 90
8
 70
129
 10
36.7806913996627216
 20
118.0
 10
36.5063799887577218
 20
118.9248641558928199
 10
35.4668446692898556
 20
118.9248641558928199
 10
35.1857878958216119
 20
118.0
 10
34.4715289488476557
 20
118.0
 10
35.8176035225782172
 20
122.0
 10
36.1623664980325898
 20
122.0
 10
37.5084410717631513
 20
118.0
  0
LWPOLYLINE
  5
FF
100
AcDbEntity
  8
VectorEngraving
 62
5
420
255
370
-1
 48
1.0
  6
BYLAYER
100
AcDbPolyline
 90
3
 70
129
 10
35.9899850103054035
 20
120.6666666666666714
 10
35.6197395540565793
 20
119.4420086190743859
 10
36.3534851039909981
 20
119.4420086190743859
  0
LWPOLYLINE
  5
100
100
AcDbEntity
  8
VectorEngraving
 62
256
370
-1
 48
1.0
  6
BYLAYER
100
AcDbPolyline
 90
12
 70
129
 10
18.7147367434888388
 20
97.0
 10
18.7147367434888388
 20
97.2904253325838511
 10
19.1037193179688849
 20
97.2904253325838511
 10
19.1037193179688849
 20
98.6968334270189303
 10
18.7368465430016755
 20
98.6968334270189303
 10
18.7368465430016755
 20
98.9872587596027671
 10
19.8340921866216853
 20
98.9872587596027671
 10
19.8340921866216853
 20
98.6968334270189303
 10
19.4451096121416391
 20
98.6968334270189303
 10
19.4451096121416391
 20
97.2904253325838511
 10
19.850206108300533
 20
97.2904253325838511
 10
19.850206108300533
 20
97.0
  0
LWPOLYLINE
  5
101
100
AcDbEntity
  8
VectorEngraving
 62
256
370
-1
 48
1.0
  6
BYLAYER
100
AcDbPolyline
 90
13
 70
129
 10
20.2039629005058892
 20
98.9872587596027671
 10
20.5802042345887095
 20
98.9872587596027671
 10
21.2532415214539867
 20
97.6794079070638901
 10
21.234129660858148
 20
98.9872587596027671
 10
21.5852632565111371
 20
98.9872587596027671
 10
21.5852632565111371
 20
98.9584035975266971
 42
0.127685697947754
 10
21.5642776840921755
 20
98.9153082255948988
 42
0.045436926629316
 10
21.5594060333520581
 20
98.8403597526700395
 10
21.5594060333520581
 20
97.0
 10
21.2247611017425406
 20
97.0
 10
20.5292392729997992
 20
98.3940415964024737
 10
20.5292392729997992
 20
97.0
 10
20.2039629005058892
 20
97.0
  0
LWPOLYLINE
  5
102
100
AcDbEntity
  8
VectorEngraving
 62
256
370
-1
 48
1.0
  6
BYLAYER
100
AcDbPolyline
 90
12
 70
129
 10
27.5464774217725363
 20
97.0063706201986093
 10
27.5464774217725363
 20
97.2967959527824604
 10
27.9354599962525825
 20
97.2967959527824604
 10
27.9354599962525825
 20
98.7032040472175396
 10
27.5685872212853731
 20
98.7032040472175396
 10
27.5685872212853731
 20
98.9936293798013764
 10
28.6658328649053828
 20
98.9936293798013764
 10
28.6658328649053828
 20
98.7032040472175396
 10
28.2768502904253367
 20
98.7032040472175396
 10
28.2768502904253367
 20
97.2967959527824604
 10
28.6819467865842306
 20
97.2967959527824604
 10
28.6819467865842306
 20
97.0063706201986093
  0
LWPOLYLINE
  5
103
100
AcDbEntity
  8
VectorEngraving
 62
256
370
-1
 48
1.0
  6
BYLAYER
100
AcDbPolyline
 90
13
 70
129
 10
29.0357035787895867
 20
98.9936293798013764
 10
29.4119449128724071
 20
98.9936293798013764
 10
30.0849821997376878
 20
97.6857785272624994
 10
30.0658703391418456
 20
98.9936293798013764
 10
30.4170039347948347
 20
98.9936293798013764
 10
30.4170039347948347
 20
98.9647742177253065
 42
0.1276856979481317
 10
30.3960183623758731
 20
98.9216788457935081
 42
0.0454369266294426
 10
30.3911467116357557
 20
98.8467303728686488
 10
30.3911467116357557
 20
97.0063706201986093
 10
30.0565017800262382
 20
97.0063706201986093
 10
29.3609799512834968
 20
98.4004122166010831
 10
29.3609799512834968
 20
97.0063706201986093
 10
29.0357035787895867
 20
97.0063706201986093
  0
LWPOLYLINE
  5
104
100
AcDbEntity
  8
VectorEngraving
 62
256
370
-1
 48
1.0
  6
BYLAYER
100
AcDbPolyline
 90
9
 70
129
 10
32.2884673037286944
 20
98.9936293798013764
 10
32.680822559490359
 20
98.9936293798013764
 10
32.680822559490359
 20
98.9647742177253065
 42
0.1523096199735788
 10
32.6570264193367095
 20
98.9216788457935081
 42
0.0437068677126906
 10
32.6523421397789093
 20
98.8467303728686488
 10
32.6523421397789093
 20
97.2997938916994514
 10
33.5644650552745034
 20
97.2997938916994514
 10
33.5644650552745034
 20
97.0063706201986093
 10
32.2884673037286944
 20
97.0063706201986093
  0
LWPOLYLINE
  5
105
100
AcDbEntity
  8
VectorEngraving
 62
256
370
-1
 48
1.0
  6
BYLAYER
100
AcDbPolyline
 90
7
 70
129
 10
34.3903972269065079
 20
97.0
 10
33.7522109799512862
 20
98.9936293798013764
 10
34.1097151958028917
 20
98.9936293798013764
 10
34.5275529323590078
 20
97.5965898444819118
 10
34.9165355068390539
 20
98.9936293798013764
 10
35.2642964212104246
 20
98.9936293798013764
 10
34.6324807944538193
 20
97.0
  0
LWPOLYLINE
  5
106
100
AcDbEntity
  8
VectorEngraving
 62
256
370
-1
 48
1.0
  6
BYLAYER
100
AcDbPolyline
 90
9
 70
129
 10
35.477524826681659
 20
98.9936293798013764
 10
35.8698800824433235
 20
98.9936293798013764
 10
35.8698800824433235
 20
98.9647742177253065
 42
0.152309619973447
 10
35.8460839422896811
 20
98.9216788457935081
 42
0.0437068677126817
 10
35.8413996627318809
 20
98.8467303728686488
 10
35.8413996627318809
 20
97.2997938916994514
 10
36.753522578227475
 20
97.2997938916994514
 10
36.753522578227475
 20
97.0063706201986093
 10
35.477524826681659
 20
97.0063706201986093
  0
LWPOLYLINE
  5
107
100
AcDbEntity
  8
VectorEngraving
 62
256
370
-1
 48
1.0
  6
BYLAYER
100
AcDbPolyline
 90
8
 70
129
 10
27.1942195990256685
 20
16.0112422709387268
 10
27.1942195990256685
 20
17.6953344575604241
 10
26.6583380176128912
 20
17.6953344575604241
 10
26.6583380176128912
 20
17.998501030541501
 10
28.1033445756042717
 20
17.998501030541501
 10
28.1033445756042717
 20
17.6953344575604241
 10
27.5386078321154173
 20
17.6953344575604241
 10
27.5386078321154173
 20
16.0112422709387268
  0
LWPOLYLINE
  5
108
100
AcDbEntity
  8
VectorEngraving
 62
256
370
-1
 48
1.0
  6
BYLAYER
100
AcDbPolyline
 90
18
 70
129
 10
28.3004590593966654
 20
17.998501030541501
 10
28.6928143151583264
 20
17.998501030541501
 10
28.6928143151583264
 20
17.9696458684654274
 42
0.1523096199731024
 10
28.669018175004684
 20
17.9265504965336291
 42
0.0437068677128434
 10
28.6643338954468803
 20
17.8516020236087662
 10
28.6643338954468803
 20
17.1913059771407148
 10
29.2766629192430194
 20
17.1913059771407148
 10
29.2766629192430194
 20
17.998501030541501
 10
29.669018175004684
 20
17.998501030541501
 10
29.669018175004684
 20
17.9696458684654274
 42
0.1689875292192004
 10
29.6467210043095371
 20
17.9265504965336291
 42
0.0297994704279076
 10
29.6435356942102288
 20
17.8516020236087662
 10
29.6435356942102288
 20
16.0112422709387268
 10
29.2766629192430194
 20
16.0112422709387268
 10
29.2766629192430194
 20
16.9042533258384822
 10
28.6643338954468803
 20
16.9042533258384822
 10
28.6643338954468803
 20
16.0112422709387268
 10
28.3004590593966654
 20
16.0112422709387268
  0
LWPOLYLINE
  5
109
100
AcDbEntity
  8
VectorEngraving
 62
256
370
-1
 48
1.0
  6
BYLAYER
100
AcDbPolyline
 90
13
 70
129
 10
29.9174723627506083
 20
16.0112422709387268
 10
29.9174723627506083
 20
17.998501030541501
 10
30.5459153082255952
 20
17.998501030541501
 42
-0.1905232060051807
 10
31.0784242083567541
 20
17.8390481543938506
 42
-0.2148899109718813
 10
31.247433014802322
 20
17.4146524264568079
 42
-0.1001913794400911
 10
31.2013397039535292
 20
17.1961776278808287
 42
-0.0965402896310486
 10
31.0705546186996422
 20
16.9999999999999964
 42
-0.1106023788063894
 10
30.8745643620011236
 20
16.8724002248454141
 10
31.3017706576728472
 20
16.0112422709387268
 10
30.922156642308412
 20
16.0112422709387268
 10
30.5204328274311401
 20
16.8375491849353551
 10
30.2809724564361993
 20
16.8375491849353551
 10
30.2809724564361993
 20
16.0112422709387268
  0
LWPOLYLINE
  5
10A
100
AcDbEntity
  8
VectorEngraving
 62
256
370
-1
 48
1.0
  6
BYLAYER
100
AcDbPolyline
 90
7
 70
129
 10
30.2809724564361993
 20
17.13734307663481
 10
30.5713977890200468
 20
17.13734307663481
 42
0.1918312228859883
 10
30.8009274873524426
 20
17.2091062394603682
 42
0.2154606779080573
 10
30.8775623009181182
 20
17.4052838673412005
 42
0.1955098707729584
 10
30.8009274873524426
 20
17.6029604646805282
 42
0.214660742672682
 10
30.5713977890200468
 20
17.6859658984448167
 10
30.2809724564361993
 20
17.6859658984448167
  0
LWPOLYLINE
  5
10B
100
AcDbEntity
  8
VectorEngraving
 62
256
370
-1
 48
1.0
  6
BYLAYER
100
AcDbPolyline
 90
8
 70
129
 10
32.1722971706951455
 20
15.9730185497470494
 42
-0.2591303879110573
 10
31.6173037286865259
 20
16.2409593404534363
 42
-0.1527047570207376
 10
31.4291830616451193
 20
17.0031853100993047
 42
-0.1520552001393854
 10
31.6173037286865259
 20
17.755855349447252
 42
-0.2609893822229368
 10
32.1722971706951455
 20
18.0269814502529471
 42
-0.2598887638007992
 10
32.7226063331459613
 20
17.755855349447252
 42
-0.1532357876440759
 10
32.9124133408281807
 20
17.0031853100993047
 42
-0.153892492518211
 10
32.7226063331459613
 20
16.2409593404534363
 42
-0.2580459804199767
  0
LWPOLYLINE
  5
10C
100
AcDbEntity
  8
VectorEngraving
 62
256
370
-1
 48
1.0
  6
BYLAYER
100
AcDbPolyline
 90
8
 70
129
 10
32.1722971706951455
 20
16.2664418212478914
 42
0.2924199676809572
 10
32.4529792017987617
 20
16.4498782087314943
 42
0.121432908341853
 10
32.5549091249765752
 20
17.0065579913809231
 42
0.1202673064395523
 10
32.4529792017987617
 20
17.5437511710698857
 42
0.2966022124947228
 10
32.1722971706951455
 20
17.7335581787521051
 42
0.2995688277754108
 10
31.8867434888514119
 20
17.5437511710698857
 42
0.1186384765761797
 10
31.7863125351320974
 20
17.0065579913809231
 42
0.1197837217357325
 10
31.8867434888514119
 20
16.4498782087314943
 42
0.2952609534182849
  0
LWPOLYLINE
  5
10D
100
AcDbEntity
  8
VectorEngraving
 62
256
370
-1
 48
1.0
  6
BYLAYER
100
AcDbPolyline
 90
17
 70
129
 10
33.7604553119730184
 20
15.9696458684654239
 42
-0.2187932598690909
 10
33.2547404909124964
 20
16.1643245268877607
 42
-0.1902783405960038
 10
33.0776747236275028
 20
16.7067640996814646
 10
33.0776747236275028
 20
17.998501030541501
 10
33.463659359190558
 20
17.998501030541501
 10
33.463659359190558
 20
17.9696458684654274
 42
0.1246165463760133
 10
33.4430485291362203
 20
17.9265504965336291
 42
0.0454369266295033
 10
33.4381768783960993
 20
17.8516020236087662
 10
33.4381768783960993
 20
16.7033914183998462
 42
0.1333400107448066
 10
33.5084410717631584
 20
16.3811129848229307
 42
0.2785909262070601
 10
33.7634532508900094
 20
16.2630691399662695
 42
0.2726441709264303
 10
34.0220254824807924
 20
16.3811129848229307
 42
0.1376862884248613
 10
34.0954749859471633
 20
16.713134719880081
 10
34.0954749859471633
 20
17.998501030541501
 10
34.446233839235525
 20
17.998501030541501
 10
34.446233839235525
 20
16.7161326587970755
 42
-0.2083302145650161
 10
34.2549278620948101
 20
16.1515832864905349
 42
-0.1989968553203841
  0
LWPOLYLINE
  5
10E
100
AcDbEntity
  8
VectorEngraving
 62
256
370
-1
 48
1.0
  6
BYLAYER
100
AcDbPolyline
 90
30
 70
129
 10
35.437802136031479
 20
15.9760164886640403
 42
-0.1586089452901661
 10
35.0087221285366326
 20
16.1036162638186227
 42
-0.1435269886225745
 10
34.7329117481731302
 20
16.4609331084879109
 42
-0.0990234869126298
 10
34.6373524451939261
 20
16.9968146899006918
 42
-0.0941134427108262
 10
34.7186715383174018
 20
17.5152707513584396
 42
-0.1147907923108717
 10
34.9259040659546542
 20
17.8309911935544285
 42
-0.108028326073609
 10
35.1889732059209308
 20
17.9872587596027707
 42
-0.0755668809636787
 10
35.4348041971144809
 20
18.0303541315345655
 42
-0.1248023965008234
 10
35.7999906314408847
 20
17.9394791081131686
 42
-0.1515255901720681
 10
36.0598744613078495
 20
17.6825932171631983
 10
35.8492692523889787
 20
17.4753606895259495
 10
35.8301573917931435
 20
17.4528761476484888
 10
35.8080475922803032
 20
17.4753606895259495
 42
0.0464973731753067
 10
35.7968053213415729
 20
17.5248266816563572
 42
0.0790744500631925
 10
35.7567078883267726
 20
17.5900318531009887
 42
0.0965291984036458
 10
35.6309818249953167
 20
17.6923365186434296
 42
0.1219445896065919
 10
35.4441727562300883
 20
17.7305602398351105
 42
0.1476595164001049
 10
35.2225126475548009
 20
17.6634813565673561
 42
0.155579340630153
 10
35.0566891512085448
 20
17.4418212478920722
 42
0.0933033501345583
 10
34.9944819186809042
 20
17.0286677908937598
 42
0.1406135625353544
 10
35.1173974142776828
 20
16.4577477983886062
 42
0.2696925324160873
 10
35.437802136031479
 20
16.2694397601648824
 42
0.0654059016375881
 10
35.5957560427206303
 20
16.2902379614015338
 42
0.1135031983046132
 10
35.7409687090125487
 20
16.3683717444257049
 10
35.7409687090125487
 20
16.7352445193929142
 10
35.4123196552370203
 20
16.7352445193929142
 10
35.4123196552370203
 20
17.0350384110923727
 10
36.0662450815064659
 20
17.0350384110923727
 10
36.0662450815064659
 20
16.1836237586659131
 42
-0.0993875771290776
 10
35.7632658797077028
 20
16.0222971706951434
 42
-0.0710946541308141
  0
LWPOLYLINE
  5
10F
100
AcDbEntity
  8
VectorEngraving
 62
256
370
-1
 48
1.0
  6
BYLAYER
100
AcDbPolyline
 90
18
 70
129
 10
36.2731028667790909
 20
17.998501030541501
 10
36.6654581225407483
 20
17.998501030541501
 10
36.6654581225407483
 20
17.9696458684654274
 42
0.1523096199730352
 10
36.6416619823871059
 20
17.9265504965336291
 42
0.0437068677126909
 10
36.6369777028293058
 20
17.8516020236087662
 10
36.6369777028293058
 20
17.1913059771407148
 10
37.2493067266254414
 20
17.1913059771407148
 10
37.2493067266254414
 20
17.998501030541501
 10
37.6416619823871059
 20
17.998501030541501
 10
37.6416619823871059
 20
17.9696458684654274
 42
0.1689875292190403
 10
37.619364811691959
 20
17.9265504965336291
 42
0.029799470427752
 10
37.6161795015926543
 20
17.8516020236087627
 10
37.6161795015926543
 20
16.0112422709387268
 10
37.2493067266254414
 20
16.0112422709387268
 10
37.2493067266254414
 20
16.9042533258384822
 10
36.6369777028293058
 20
16.9042533258384822
 10
36.6369777028293058
 20
16.0112422709387268
 10
36.2731028667790909
 20
16.0112422709387268
  0
LWPOLYLINE
  5
110
100
AcDbEntity
  8
VectorEngraving
 62
256
370
-1
 48
1.0
  6
BYLAYER
100
AcDbPolyline
 90
8
 70
129
 10
18.5697114483792376
 20
15.9747048903878532
 42
-0.2591303879110589
 10
18.014718006370618
 20
16.242645681094249
 42
-0.1527047570207372
 10
17.8265973393292114
 20
17.0048716507401139
 42
-0.1520552001393871
 10
18.014718006370618
 20
17.7575416900880647
 42
-0.2609893822229459
 10
18.5697114483792376
 20
18.0286677908937598
 42
-0.2598887638008156
 10
19.1200206108300534
 20
17.7575416900880647
 42
-0.1532357876440786
 10
19.3098276185122728
 20
17.004871650740121
 42
-0.1538924925182101
 10
19.1200206108300534
 20
16.242645681094249
 42
-0.2580459804199923
  0
LWPOLYLINE
  5
111
100
AcDbEntity
  8
VectorEngraving
 62
256
370
-1
 48
1.0
  6
BYLAYER
100
AcDbPolyline
 90
8
 70
129
 10
18.5697114483792376
 20
16.2681281618887006
 42
0.2924199676809748
 10
18.8503934794828538
 20
16.4515645493723071
 42
0.1214329083418462
 10
18.9523234026606708
 20
17.0082443320217358
 42
0.1202673064395417
 10
18.8503934794828538
 20
17.5454375117106984
 42
0.2966022124947276
 10
18.5697114483792376
 20
17.7352445193929178
 42
0.2995688277754081
 10
18.284157766535504
 20
17.5454375117106984
 42
0.1186384765761697
 10
18.183726812816186
 20
17.0082443320217358
 42
0.1197837217357229
 10
18.284157766535504
 20
16.4515645493723071
 42
0.2952609534182887
  0
LWPOLYLINE
  5
112
100
AcDbEntity
  8
VectorEngraving
 62
256
370
-1
 48
1.0
  6
BYLAYER
100
AcDbPolyline
 90
17
 70
129
 10
20.1578695896571105
 20
15.971332209106242
 42
-0.2187932598690954
 10
19.6521547685965885
 20
16.1660108675285734
 42
-0.190278340596006
 10
19.4750890013115985
 20
16.7084504403222809
 10
19.4750890013115985
 20
18.0001873711823137
 10
19.8610736368746466
 20
18.0001873711823137
 10
19.8610736368746466
 20
17.9713322091062402
 42
0.1246165463758321
 10
19.8404628068203088
 20
17.9282368371744418
 42
0.0454369266293846
 10
19.835591156080195
 20
17.853288364249579
 10
19.835591156080195
 20
16.7050777590406589
 42
0.1333400107447832
 10
19.9058553494472541
 20
16.3827993254637434
 42
0.2785909262070537
 10
20.160867528574105
 20
16.2647554806070822
 42
0.2726441709264098
 10
20.4194397601648845
 20
16.3827993254637434
 42
0.1376862884248789
 10
20.4928892636312519
 20
16.7148210605208938
 10
20.4928892636312519
 20
18.0001873711823137
 10
20.8436481169196171
 20
18.0001873711823137
 10
20.8436481169196171
 20
16.7178189994378883
 42
-0.2083302145650316
 10
20.6523421397789022
 20
16.1532696271313476
 42
-0.1989968553203859
  0
LWPOLYLINE
  5
113
100
AcDbEntity
  8
VectorEngraving
 62
256
370
-1
 48
1.0
  6
BYLAYER
100
AcDbPolyline
 90
8
 70
129
 10
21.5642776840921861
 20
16.0129286115795395
 10
21.5642776840921861
 20
17.6970207982012369
 10
21.0283961026794053
 20
17.6970207982012369
 10
21.0283961026794053
 20
18.0001873711823137
 10
22.4734026606707857
 20
18.0001873711823137
 10
22.4734026606707857
 20
17.6970207982012369
 10
21.9086659171819349
 20
17.6970207982012369
 10
21.9086659171819349
 20
16.0129286115795395
  0
LWPOLYLINE
  5
114
100
AcDbEntity
  8
VectorEngraving
 62
256
370
-1
 48
1.0
  6
BYLAYER
100
AcDbPolyline
 90
26
 70
129
 10
6.3475829117481721
 20
15.9745175192055449
 42
-0.13718120615195
 10
5.9503560052463929
 20
16.0815064643057895
 42
-0.1521335773926469
 10
5.6633033539441637
 20
16.4148397976391216
 42
-0.1095731750364333
 10
5.5565017800262329
 20
16.9923177815252018
 42
-0.0854969824068509
 10
5.6282649428517892
 20
17.4851039910061807
 42
-0.1105493068353122
 10
5.8180719505340086
 20
17.8025107738429824
 42
-0.109274384958425
 10
6.0779557804009752
 20
17.9730185497470494
 42
-0.0894144458589277
 10
6.3603241521454006
 20
18.0254824807944516
 42
-0.1442794725258938
 10
6.7446224470676412
 20
17.9235525576166381
 42
-0.1501502099017847
 10
6.9887670976203866
 20
17.636499906314409
 10
6.7620479670226725
 20
17.4674910998688375
 10
6.7365654862282183
 20
17.4513771781899933
 10
6.7208263069139971
 20
17.4768596589844485
 42
0.1140804318625379
 10
6.7159546561738805
 20
17.5233277121978617
 42
0.0461095061682823
 10
6.6826025857223161
 20
17.5919055649241152
 42
0.1205634682736176
 10
6.5372025482480796
 20
17.7050777590406589
 42
0.0973965581775451
 10
6.3794360127412411
 20
17.735431890575228
 42
0.1710454528741633
 10
6.1512179126850288
 20
17.652426456810943
 42
0.1324894010124626
 10
5.9790237961401544
 20
17.4084691774405087
 42
0.0957756120555077
 10
5.9136312535132101
 20
17.0080569608394185
 42
0.1424637919354472
 10
6.0397320592092942
 20
16.4674910998688375
 42
0.2705536969347359
 10
6.3569514708637813
 20
16.2713134719880088
 42
0.1360351973350422
 10
6.5611860595840366
 20
16.3222784335769155
 42
0.1254759824622888
 10
6.7174536256323778
 20
16.4912872400224835
 10
6.9662825557429269
 20
16.3065392542626952
 42
-0.1424969433067407
 10
6.7032134157766539
 20
16.0494659921304077
 42
-0.1161683907371258
  0
LWPOLYLINE
  5
115
100
AcDbEntity
  8
VectorEngraving
 62
256
370
-1
 48
1.0
  6
BYLAYER
100
AcDbPolyline
 90
9
 70
129
 10
7.2338486040846917
 20
17.9970020610830055
 10
7.6262038598463562
 20
17.9970020610830055
 10
7.6262038598463562
 20
17.968146899006932
 42
0.152309619973162
 10
7.602407719692712
 20
17.9250515270751336
 42
0.0437068677127868
 10
7.5977234401349074
 20
17.8501030541502708
 10
7.5977234401349074
 20
16.3031665729810733
 10
8.5098463556305042
 20
16.3031665729810733
 10
8.5098463556305042
 20
16.0097433014802313
 10
7.2338486040846917
 20
16.0097433014802313
  0
LWPOLYLINE
  5
116
100
AcDbEntity
  8
VectorEngraving
 62
256
370
-1
 48
1.0
  6
BYLAYER
100
AcDbPolyline
 90
12
 70
129
 10
8.8699737680344768
 20
16.0097433014802313
 10
8.8699737680344768
 20
16.3001686340640788
 10
9.2589563425145212
 20
16.3001686340640788
 10
9.2589563425145212
 20
17.7065767284991544
 10
8.8920835675473118
 20
17.7065767284991544
 10
8.8920835675473118
 20
17.9970020610830055
 10
9.9893292111673233
 20
17.9970020610830055
 10
9.9893292111673233
 20
17.7065767284991544
 10
9.6003466366872772
 20
17.7065767284991544
 10
9.6003466366872772
 20
16.3001686340640788
 10
10.0054431328461693
 20
16.3001686340640788
 10
10.0054431328461693
 20
16.0097433014802313
  0
LWPOLYLINE
  5
117
100
AcDbEntity
  8
VectorEngraving
 62
256
370
-1
 48
1.0
  6
BYLAYER
100
AcDbPolyline
 90
11
 70
129
 10
10.3944257073262136
 20
16.0097433014802313
 10
10.3944257073262136
 20
17.9970020610830055
 10
11.0704609331084889
 20
17.9970020610830055
 42
-0.1226157369347599
 10
11.4500749484729258
 20
17.9171819374180252
 42
-0.1499740507230619
 10
11.6717350571482115
 20
17.7050777590406589
 42
-0.1268020082315337
 10
11.7434982199737679
 20
17.4131534569983124
 42
-0.1268596194923095
 10
11.6734213977890207
 20
17.1277871463368925
 42
-0.1500081120373292
 10
11.4564455686715387
 20
16.9205546186996436
 42
-0.1226248171483344
 10
11.0865748547873331
 20
16.8424208356754725
 10
10.7609237399287991
 20
16.8424208356754725
 10
10.7609237399287991
 20
16.0097433014802313
  0
LWPOLYLINE
  5
118
100
AcDbEntity
  8
VectorEngraving
 62
256
370
-1
 48
1.0
  6
BYLAYER
100
AcDbPolyline
 90
7
 70
129
 10
10.7609237399287991
 20
17.1422147273749275
 10
11.0610923739928797
 20
17.1422147273749275
 42
0.1964422541879277
 10
11.2938073824245837
 20
17.2186621697582893
 42
0.2132598586825585
 10
11.373627506089564
 20
17.4131534569983124
 42
0.212905812503058
 10
11.2938073824245837
 20
17.6078321154206492
 42
0.1973302280816538
 10
11.0640903129098742
 20
17.6844669289863212
 10
10.7609237399287991
 20
17.6844669289863212
  0
ENDSEC
  0
SECTION
  2
OBJECTS
  0
DICTIONARY
  5
C
100
AcDbDictionary
280
0
281
1
  3
ACAD_GROUP
350
D
  3
ACAD_LAYOUT
350
1A
  3
ACAD_MLINESTYLE
350
17
  3
ACAD_PLOTSETTINGS
350
19
  3
ACAD_PLOTSTYLENAME
350
E
  3
AcDbVariableDictionary
350
119
  3
QCAD_OBJECTS
350
11A
  0
DICTIONARY
  5
D
100
AcDbDictionary
280
0
281
1
  0
ACDBDICTIONARYWDFLT
  5
E
100
AcDbDictionary
281
1
  3
Normal
350
F
100
AcDbDictionaryWithDefault
340
F
  0
ACDBPLACEHOLDER
  5
F
  0
DICTIONARY
  5
17
100
AcDbDictionary
280
0
281
1
  3
Standard
350
18
  0
MLINESTYLE
  5
18
100
AcDbMlineStyle
  2
STANDARD
 70
0
  3

 62
256
 51
90.0
 52
90.0
 71
2
 49
0.5
 62
256
  6
BYLAYER
 49
-0.5
 62
256
  6
BYLAYER
  0
DICTIONARY
  5
19
100
AcDbDictionary
280
0
281
1
  0
DICTIONARY
  5
1A
100
AcDbDictionary
281
1
  3
Layout1
350
1E
  3
Layout2
350
26
  3
Model
350
22
  0
LAYOUT
  5
1E
100
AcDbPlotSettings
  1

  2
none_device
  4

  6

 40
0.0
 41
0.0
 42
0.0
 43
0.0
 44
0.0
 45
0.0
 46
0.0
 47
0.0
 48
0.0
 49
0.0
140
0.0
141
0.0
142
1.0
143
1.0
 70
688
 72
0
 73
0
 74
5
  7

 75
16
147
1.0
148
0.0
149
0.0
100
AcDbLayout
  1
Layout1
 70
1
 71
1
 10
0.0
 20
0.0
 11
420.0
 21
297.0
 12
0.0
 22
0.0
 32
0.0
 14
100000000000000000000.0
 24
100000000000000000000.0
 34
100000000000000000000.0
 15
-100000000000000000000.0
 25
-100000000000000000000.0
 35
-100000000000000000000.0
146
0.0
 13
0.0
 23
0.0
 33
0.0
 16
1.0
 26
0.0
 36
0.0
 17
0.0
 27
1.0
 37
0.0
 76
0
330
1B
  0
LAYOUT
  5
22
100
AcDbPlotSettings
  1

  2
none_device
  4

  6

 40
0.0
 41
0.0
 42
0.0
 43
0.0
 44
0.0
 45
0.0
 46
0.0
 47
0.0
 48
0.0
 49
0.0
140
0.0
141
0.0
142
1.0
143
1.0
 70
1712
 72
0
 73
0
 74
0
  7

 75
0
147
1.0
148
0.0
149
0.0
100
AcDbLayout
  1
Model
 70
1
 71
0
 10
0.0
 20
0.0
 11
12.0
 21
9.0
 12
0.0
 22
0.0
 32
0.0
 14
0.0
 24
0.0
 34
0.0
 15
0.0
 25
0.0
 35
0.0
146
0.0
 13
0.0
 23
0.0
 33
0.0
 16
1.0
 26
0.0
 36
0.0
 17
0.0
 27
1.0
 37
0.0
 76
0
330
1F
  0
LAYOUT
  5
26
100
AcDbPlotSettings
  1

  2
none_device
  4

  6

 40
0.0
 41
0.0
 42
0.0
 43
0.0
 44
0.0
 45
0.0
 46
0.0
 47
0.0
 48
0.0
 49
0.0
140
0.0
141
0.0
142
1.0
143
1.0
 70
688
 72
0
 73
0
 74
5
  7

 75
16
147
1.0
148
0.0
149
0.0
100
AcDbLayout
  1
Layout2
 70
1
 71
2
 10
0.0
 20
0.0
 11
12.0
 21
9.0
 12
0.0
 22
0.0
 32
0.0
 14
0.0
 24
0.0
 34
0.0
 15
0.0
 25
0.0
 35
0.0
146
0.0
 13
0.0
 23
0.0
 33
0.0
 16
1.0
 26
0.0
 36
0.0
 17
0.0
 27
1.0
 37
0.0
 76
0
330
23
  0
DICTIONARY
  5
119
100
AcDbDictionary
281
1
  3
DIMASSOC
350
11C
  3
HIDETEXT
350
11B
  0
DICTIONARYVAR
  5
11B
100
DictionaryVariables
280
0
  1
2
  0
DICTIONARYVAR
  5
11C
100
DictionaryVariables
280
0
  1
1
  0
DICTIONARY
  5
11A
100
AcDbDictionary
281
1
  3
ColorSettings/BackgroundColor
350
11D
  3
ColorSettings/ColorMode
350
11E
  3
Grid/DisplayGrid00
350
11F
  3
Grid/DisplayGrid01
350
120
  3
Grid/DisplayGrid02
350
121
  3
Grid/DisplayGrid03
350
122
  3
Grid/GridSpacingX00
350
123
  3
Grid/GridSpacingX01
350
124
  3
Grid/GridSpacingX02
350
125
  3
Grid/GridSpacingX03
350
126
  3
Grid/GridSpacingY00
350
127
  3
Grid/GridSpacingY01
350
128
  3
Grid/GridSpacingY02
350
129
  3
Grid/GridSpacingY03
350
12A
  3
Grid/IsometricGrid00
350
12B
  3
Grid/IsometricGrid01
350
12C
  3
Grid/IsometricGrid02
350
12D
  3
Grid/IsometricGrid03
350
12E
  3
Grid/IsometricProjection00
350
12F
  3
Grid/IsometricProjection01
350
130
  3
Grid/IsometricProjection02
350
131
  3
Grid/IsometricProjection03
350
132
  3
Grid/MetaGridSpacingX00
350
133
  3
Grid/MetaGridSpacingX01
350
134
  3
Grid/MetaGridSpacingX02
350
135
  3
Grid/MetaGridSpacingX03
350
136
  3
Grid/MetaGridSpacingY00
350
137
  3
Grid/MetaGridSpacingY01
350
138
  3
Grid/MetaGridSpacingY02
350
139
  3
Grid/MetaGridSpacingY03
350
13A
  3
MultiPageSettings/Columns
350
13B
  3
MultiPageSettings/GlueMarginsBottom
350
13C
  3
MultiPageSettings/GlueMarginsLeft
350
13D
  3
MultiPageSettings/GlueMarginsRight
350
13E
  3
MultiPageSettings/GlueMarginsTop
350
13F
  3
MultiPageSettings/PrintCropMarks
350
140
  3
MultiPageSettings/Rows
350
141
  3
PageSettings/OffsetX
350
142
  3
PageSettings/OffsetY
350
143
  3
PageSettings/PageOrientation
350
144
  3
PageSettings/PaperHeight
350
145
  3
PageSettings/PaperWidth
350
146
  3
PageSettings/Scale
350
147
  3
PageSettings/ShowPaperBorders
350
148
  3
PageTagSettings/EnablePageTags
350
149
  3
PageTagSettings/TagAlignment
350
14A
  3
PageTagSettings/TagFont
350
14B
  3
PageTagSettings/TagPosition
350
14C
  3
QCADVersion
350
14D
  3
UnitSettings/PaperUnit
350
14E
  3
ViewportCenter
350
14F
  3
ViewportHeight
350
150
  3
ViewportWidth
350
151
  0
XRECORD
  5
11D
330
11A
100
AcDbXrecord
280
1
1000
White
  0
XRECORD
  5
11E
330
11A
100
AcDbXrecord
280
1
1000
FullColor
  0
XRECORD
  5
11F
330
11A
100
AcDbXrecord
280
1
290
1
  0
XRECORD
  5
120
330
11A
100
AcDbXrecord
280
1
290
1
  0
XRECORD
  5
121
330
11A
100
AcDbXrecord
280
1
290
1
  0
XRECORD
  5
122
330
11A
100
AcDbXrecord
280
1
290
1
  0
XRECORD
  5
123
330
11A
100
AcDbXrecord
280
1
1000
auto
  0
XRECORD
  5
124
330
11A
100
AcDbXrecord
280
1
1000
auto
  0
XRECORD
  5
125
330
11A
100
AcDbXrecord
280
1
1000
auto
  0
XRECORD
  5
126
330
11A
100
AcDbXrecord
280
1
1000
auto
  0
XRECORD
  5
127
330
11A
100
AcDbXrecord
280
1
1000
auto
  0
XRECORD
  5
128
330
11A
100
AcDbXrecord
280
1
1000
auto
  0
XRECORD
  5
129
330
11A
100
AcDbXrecord
280
1
1000
auto
  0
XRECORD
  5
12A
330
11A
100
AcDbXrecord
280
1
1000
auto
  0
XRECORD
  5
12B
330
11A
100
AcDbXrecord
280
1
290
0
  0
XRECORD
  5
12C
330
11A
100
AcDbXrecord
280
1
290
0
  0
XRECORD
  5
12D
330
11A
100
AcDbXrecord
280
1
290
0
  0
XRECORD
  5
12E
330
11A
100
AcDbXrecord
280
1
290
0
  0
XRECORD
  5
12F
330
11A
100
AcDbXrecord
280
1
 90
65537
  0
XRECORD
  5
130
330
11A
100
AcDbXrecord
280
1
 90
65537
  0
XRECORD
  5
131
330
11A
100
AcDbXrecord
280
1
 90
65537
  0
XRECORD
  5
132
330
11A
100
AcDbXrecord
280
1
 90
65537
  0
XRECORD
  5
133
330
11A
100
AcDbXrecord
280
1
1000
auto
  0
XRECORD
  5
134
330
11A
100
AcDbXrecord
280
1
1000
auto
  0
XRECORD
  5
135
330
11A
100
AcDbXrecord
280
1
1000
auto
  0
XRECORD
  5
136
330
11A
100
AcDbXrecord
280
1
1000
auto
  0
XRECORD
  5
137
330
11A
100
AcDbXrecord
280
1
1000
auto
  0
XRECORD
  5
138
330
11A
100
AcDbXrecord
280
1
1000
auto
  0
XRECORD
  5
139
330
11A
100
AcDbXrecord
280
1
1000
auto
  0
XRECORD
  5
13A
330
11A
100
AcDbXrecord
280
1
1000
auto
  0
XRECORD
  5
13B
330
11A
100
AcDbXrecord
280
1
 90
1
  0
XRECORD
  5
13C
330
11A
100
AcDbXrecord
280
1
 40
10.0
  0
XRECORD
  5
13D
330
11A
100
AcDbXrecord
280
1
 40
10.0
  0
XRECORD
  5
13E
330
11A
100
AcDbXrecord
280
1
 40
10.0
  0
XRECORD
  5
13F
330
11A
100
AcDbXrecord
280
1
 40
10.0
  0
XRECORD
  5
140
330
11A
100
AcDbXrecord
280
1
290
0
  0
XRECORD
  5
141
330
11A
100
AcDbXrecord
280
1
 90
1
  0
XRECORD
  5
142
330
11A
100
AcDbXrecord
280
1
 40
0.0
  0
XRECORD
  5
143
330
11A
100
AcDbXrecord
280
1
 40
0.0
  0
XRECORD
  5
144
330
11A
100
AcDbXrecord
280
1
1000
Portrait
  0
XRECORD
  5
145
330
11A
100
AcDbXrecord
280
1
 40
297.0
  0
XRECORD
  5
146
330
11A
100
AcDbXrecord
280
1
 40
210.0
  0
XRECORD
  5
147
330
11A
100
AcDbXrecord
280
1
1000
1:1
  0
XRECORD
  5
148
330
11A
100
AcDbXrecord
280
1
290
1
  0
XRECORD
  5
149
330
11A
100
AcDbXrecord
280
1
290
0
  0
XRECORD
  5
14A
330
11A
100
AcDbXrecord
280
1
1000
Inside
  0
XRECORD
  5
14B
330
11A
100
AcDbXrecord
280
1
1000
Arial,10,-1,5,50,0,0,0,0,0
  0
XRECORD
  5
14C
330
11A
100
AcDbXrecord
280
1
1000
TopLeft
  0
XRECORD
  5
14D
330
11A
100
AcDbXrecord
280
1
1000
3.27.6.7
  0
XRECORD
  5
14E
330
11A
100
AcDbXrecord
280
1
 90
4
  0
XRECORD
  5
150
330
11A
100
AcDbXrecord
280
1
 40
176.7096074186778765
  0
XRECORD
  5
151
330
11A
100
AcDbXrecord
280
1
 40
365.5344670599879464
  0
ENDSEC
  0
EOF
