999
dxflib 3.26.4.0
  0
SECTION
  2
HEADER
  9
$ACADVER
  1
AC1015
  9
$HANDSEED
  5
FFFF
  9
$DIMADEC
 70
0
  9
$DIMASZ
 40
2.5
  9
$DIMATFIT
 70
0
  9
$DIMAUNIT
 70
0
  9
$DIMAZIN
 70
2
  9
$DIMBLK
  1
0
  9
$DIMBLK1
  1
0
  9
$DIMBLK2
  1
0
  9
$DIMDEC
 70
4
  9
$DIMDLI
 40
5.0
  9
$DIMDSEP
 70
46
  9
$DIMEXE
 40
1.25
  9
$DIMEXO
 40
0.625
  9
$DIMGAP
 40
0.625
  9
$DIMLFAC
 40
1.0
  9
$DIMLUNIT
 70
2
  9
$DIMSCALE
 40
1.0
  9
$DIMTAD
 70
1
  9
$DIMTIH
 70
0
  9
$DIMTSZ
 40
0.0
  9
$DIMTXT
 40
2.5
  9
$DIMZIN
 70
8
  9
$DWGCODEPAGE
  3
ANSI_1252
  9
$INSUNITS
 70
4
  9
$LTSCALE
 40
1.0
  9
$MAXACTVP
 70
64
  9
$MEASUREMENT
 70
1
  9
$MIRRTEXT
 70
0
  9
$PDMODE
 70
0
  9
$PDSIZE
 40
0.0
  0
ENDSEC
  0
SECTION
  2
TABLES
  0
TABLE
  2
VPORT
  5
8
100
AcDbSymbolTable
 70
1
  0
VPORT
  5
30
100
AcDbSymbolTableRecord
100
AcDbViewportTableRecord
  2
*Active
 70
0
 10
0.0
 20
0.0
 11
1.0
 21
1.0
 12
286.3055555555554861
 22
148.5
 13
0.0
 23
0.0
 14
10.0
 24
10.0
 15
10.0
 25
10.0
 16
0.0
 26
0.0
 36
1.0
 17
0.0
 27
0.0
 37
0.0
 40
297.0
 41
1.92798353909465
 42
50.0
 43
0.0
 44
0.0
 50
0.0
 51
0.0
 71
0
 72
100
 73
1
 74
3
 75
1
 76
1
 77
0
 78
0
281
0
 65
1
110
0.0
120
0.0
130
0.0
111
1.0
121
0.0
131
0.0
112
0.0
122
1.0
132
0.0
 79
0
146
0.0
  0
ENDTAB
  0
TABLE
  2
LTYPE
  5
5
100
AcDbSymbolTable
 70
41
  0
LTYPE
  5
16
100
AcDbSymbolTableRecord
100
AcDbLinetypeTableRecord
  2
Continuous
 70
0
  3
Solid line
 72
65
 73
0
 40
0.0
  0
LTYPE
  5
31
100
AcDbSymbolTableRecord
100
AcDbLinetypeTableRecord
  2
ACAD_ISO06W100
 70
0
  3
ISO long-dash triple-dot ____ ... ____ ... ____
 72
65
 73
8
 40
36.0000000000000071
 49
24.0
 74
0
 49
-2.9500000000000002
 74
0
 49
0.1
 74
0
 49
-2.9000000000000004
 74
0
 49
0.1
 74
0
 49
-2.9000000000000004
 74
0
 49
0.1
 74
0
 49
-2.9500000000000002
 74
0
  0
LTYPE
  5
32
100
AcDbSymbolTableRecord
100
AcDbLinetypeTableRecord
  2
ACAD_ISO03W100
 70
0
  3
ISO dash space __    __    __    __    __    __
 72
65
 73
2
 40
30.0
 49
12.0
 74
0
 49
-18.0
 74
0
  0
LTYPE
  5
33
100
AcDbSymbolTableRecord
100
AcDbLinetypeTableRecord
  2
DIVIDEX2
 70
0
  3
Divide (2x) ________  .  .  ________  .  .  _
 72
65
 73
6
 40
63.5
 49
25.3999999999999986
 74
0
 49
-12.6499999999999986
 74
0
 49
0.1
 74
0
 49
-12.5999999999999979
 74
0
 49
0.1
 74
0
 49
-12.6499999999999986
 74
0
  0
LTYPE
  5
34
100
AcDbSymbolTableRecord
100
AcDbLinetypeTableRecord
  2
DASHDOT2
 70
0
  3
Dash dot (.5x) _._._._._._._._._._._._._._._.
 72
65
 73
4
 40
12.6999999999999993
 49
6.3499999999999996
 74
0
 49
-3.125
 74
0
 49
0.1
 74
0
 49
-3.125
 74
0
  0
LTYPE
  5
35
100
AcDbSymbolTableRecord
100
AcDbLinetypeTableRecord
  2
DASHEDX2
 70
0
  3
Dashed (2x) ____  ____  ____  ____  ____  ___
 72
65
 73
2
 40
38.0999999999999943
 49
25.3999999999999986
 74
0
 49
-12.6999999999999993
 74
0
  0
LTYPE
  5
36
100
AcDbSymbolTableRecord
100
AcDbLinetypeTableRecord
  2
ACAD_ISO07W100
 70
0
  3
ISO dot . . . . . . . . . . . . . . . . . . . . 
 72
65
 73
2
 40
3.0
 49
0.1
 74
0
 49
-2.8999999999999999
 74
0
  0
LTYPE
  5
37
100
AcDbSymbolTableRecord
100
AcDbLinetypeTableRecord
  2
CENTERX2
 70
0
  3
Center (2x) ________  __  ________  __  _____
 72
65
 73
4
 40
101.6000000000000085
 49
63.5
 74
0
 49
-12.6999999999999993
 74
0
 49
12.6999999999999993
 74
0
 49
-12.6999999999999993
 74
0
  0
LTYPE
  5
38
100
AcDbSymbolTableRecord
100
AcDbLinetypeTableRecord
  2
HIDDEN2
 70
0
  3
Hidden (.5x) _ _ _ _ _ _ _ _ _ _ _ _ _ _ _ _ _ 
 72
65
 73
2
 40
4.7624999999999993
 49
3.1749999999999998
 74
0
 49
-1.5874999999999999
 74
0
  0
LTYPE
  5
39
100
AcDbSymbolTableRecord
100
AcDbLinetypeTableRecord
  2
DOT2
 70
0
  3
Dot (.5x) ........................................
 72
65
 73
2
 40
3.1749999999999998
 49
0.1
 74
0
 49
-3.0749999999999997
 74
0
  0
LTYPE
  5
3A
100
AcDbSymbolTableRecord
100
AcDbLinetypeTableRecord
  2
PHANTOM
 70
0
  3
Phantom ______  __  __  ______  __  __  ______ 
 72
65
 73
6
 40
63.5000000000000071
 49
31.75
 74
0
 49
-6.3499999999999996
 74
0
 49
6.3499999999999996
 74
0
 49
-6.3499999999999996
 74
0
 49
6.3499999999999996
 74
0
 49
-6.3499999999999996
 74
0
  0
LTYPE
  5
3B
100
AcDbSymbolTableRecord
100
AcDbLinetypeTableRecord
  2
HIDDENX2
 70
0
  3
Hidden (2x) ____ ____ ____ ____ ____ ____ ____ 
 72
65
 73
2
 40
19.0499999999999972
 49
12.6999999999999993
 74
0
 49
-6.3499999999999996
 74
0
  0
LTYPE
  5
3C
100
AcDbSymbolTableRecord
100
AcDbLinetypeTableRecord
  2
DASHED2
 70
0
  3
Dashed (.5x) _ _ _ _ _ _ _ _ _ _ _ _ _ _ _ _ _ 
 72
65
 73
2
 40
9.5249999999999986
 49
6.3499999999999996
 74
0
 49
-3.1749999999999998
 74
0
  0
LTYPE
  5
3D
100
AcDbSymbolTableRecord
100
AcDbLinetypeTableRecord
  2
DIVIDE2
 70
0
  3
Divide (.5x) __..__..__..__..__..__..__..__.._
 72
65
 73
6
 40
15.8749999999999982
 49
6.3499999999999996
 74
0
 49
-3.125
 74
0
 49
0.1
 74
0
 49
-3.0750000000000002
 74
0
 49
0.1
 74
0
 49
-3.125
 74
0
  0
LTYPE
  5
3E
100
AcDbSymbolTableRecord
100
AcDbLinetypeTableRecord
  2
ACAD_ISO04W100
 70
0
  3
ISO long-dash dot ____ . ____ . ____ . ____ . _
 72
65
 73
4
 40
30.0
 49
24.0
 74
0
 49
-2.9500000000000002
 74
0
 49
0.1
 74
0
 49
-2.9500000000000002
 74
0
  0
LTYPE
  5
3F
100
AcDbSymbolTableRecord
100
AcDbLinetypeTableRecord
  2
CENTER
 70
0
  3
Center ____ _ ____ _ ____ _ ____ _ ____ _ ____
 72
65
 73
4
 40
50.8000000000000043
 49
31.75
 74
0
 49
-6.3499999999999996
 74
0
 49
6.3499999999999996
 74
0
 49
-6.3499999999999996
 74
0
  0
LTYPE
  5
40
100
AcDbSymbolTableRecord
100
AcDbLinetypeTableRecord
  2
DASHED
 70
0
  3
Dashed __ __ __ __ __ __ __ __ __ __ __ __ __ _
 72
65
 73
2
 40
19.0499999999999972
 49
12.6999999999999993
 74
0
 49
-6.3499999999999996
 74
0
  0
LTYPE
  5
14
100
AcDbSymbolTableRecord
100
AcDbLinetypeTableRecord
  2
BYBLOCK
 70
0
  3

 72
65
 73
0
 40
0.0
  0
LTYPE
  5
41
100
AcDbSymbolTableRecord
100
AcDbLinetypeTableRecord
  2
ACAD_ISO08W100
 70
0
  3
ISO long-dash short-dash ____ __ ____ __ ____ _
 72
65
 73
4
 40
36.0
 49
24.0
 74
0
 49
-3.0
 74
0
 49
6.0
 74
0
 49
-3.0
 74
0
  0
LTYPE
  5
42
100
AcDbSymbolTableRecord
100
AcDbLinetypeTableRecord
  2
DOT
 70
0
  3
Dot . . . . . . . . . . . . . . . . . . . . . . . .
 72
65
 73
2
 40
6.3499999999999996
 49
0.1
 74
0
 49
-6.25
 74
0
  0
LTYPE
  5
43
100
AcDbSymbolTableRecord
100
AcDbLinetypeTableRecord
  2
ACAD_ISO12W100
 70
0
  3
ISO dash double-dot __ . . __ . . __ . . __ . . 
 72
65
 73
6
 40
21.0
 49
12.0
 74
0
 49
-2.9500000000000002
 74
0
 49
0.1
 74
0
 49
-2.9000000000000004
 74
0
 49
0.1
 74
0
 49
-2.9500000000000002
 74
0
  0
LTYPE
  5
44
100
AcDbSymbolTableRecord
100
AcDbLinetypeTableRecord
  2
BORDER
 70
0
  3
Border __ __ . __ __ . __ __ . __ __ . __ __ .
 72
65
 73
6
 40
44.4499999999999957
 49
12.6999999999999993
 74
0
 49
-6.3499999999999996
 74
0
 49
12.6999999999999993
 74
0
 49
-6.2999999999999998
 74
0
 49
0.1
 74
0
 49
-6.2999999999999998
 74
0
  0
LTYPE
  5
45
100
AcDbSymbolTableRecord
100
AcDbLinetypeTableRecord
  2
ACAD_ISO13W100
 70
0
  3
ISO double-dash double-dot __ __ . . __ __ . . _
 72
65
 73
8
 40
36.0000000000000071
 49
12.0
 74
0
 49
-3.0
 74
0
 49
12.0
 74
0
 49
-2.9500000000000002
 74
0
 49
0.1
 74
0
 49
-2.9000000000000004
 74
0
 49
0.1
 74
0
 49
-2.9500000000000002
 74
0
  0
LTYPE
  5
46
100
AcDbSymbolTableRecord
100
AcDbLinetypeTableRecord
  2
BORDERX2
 70
0
  3
Border (2x) ____  ____  .  ____  ____  .  ___
 72
65
 73
6
 40
88.8999999999999773
 49
25.3999999999999986
 74
0
 49
-12.6999999999999993
 74
0
 49
25.3999999999999986
 74
0
 49
-12.6499999999999986
 74
0
 49
0.1
 74
0
 49
-12.6499999999999986
 74
0
  0
LTYPE
  5
47
100
AcDbSymbolTableRecord
100
AcDbLinetypeTableRecord
  2
CENTER2
 70
0
  3
Center (.5x) ___ _ ___ _ ___ _ ___ _ ___ _ ___
 72
65
 73
4
 40
28.5750000000000028
 49
19.0500000000000007
 74
0
 49
-3.1749999999999998
 74
0
 49
3.1749999999999998
 74
0
 49
-3.1749999999999998
 74
0
  0
LTYPE
  5
48
100
AcDbSymbolTableRecord
100
AcDbLinetypeTableRecord
  2
DASHDOTX2
 70
0
  3
Dash dot (2x) ____  .  ____  .  ____  .  ___
 72
65
 73
4
 40
50.7999999999999972
 49
25.3999999999999986
 74
0
 49
-12.6499999999999986
 74
0
 49
0.1
 74
0
 49
-12.6499999999999986
 74
0
  0
LTYPE
  5
49
100
AcDbSymbolTableRecord
100
AcDbLinetypeTableRecord
  2
ACAD_ISO11W100
 70
0
  3
ISO double-dash dot __ __ . __ __ . __ __ . __ _
 72
65
 73
6
 40
33.0
 49
12.0
 74
0
 49
-3.0
 74
0
 49
12.0
 74
0
 49
-2.9500000000000002
 74
0
 49
0.1
 74
0
 49
-2.9500000000000002
 74
0
  0
LTYPE
  5
4A
100
AcDbSymbolTableRecord
100
AcDbLinetypeTableRecord
  2
PHANTOMX2
 70
0
  3
Phantom (2x) ____________    ____    ____   _
 72
65
 73
6
 40
127.0000000000000142
 49
63.5
 74
0
 49
-12.6999999999999993
 74
0
 49
12.6999999999999993
 74
0
 49
-12.6999999999999993
 74
0
 49
12.6999999999999993
 74
0
 49
-12.6999999999999993
 74
0
  0
LTYPE
  5
4B
100
AcDbSymbolTableRecord
100
AcDbLinetypeTableRecord
  2
PHANTOM2
 70
0
  3
Phantom (.5x) ___ _ _ ___ _ _ ___ _ _ ___ _ _
 72
65
 73
6
 40
31.7500000000000036
 49
15.875
 74
0
 49
-3.1749999999999998
 74
0
 49
3.1749999999999998
 74
0
 49
-3.1749999999999998
 74
0
 49
3.1749999999999998
 74
0
 49
-3.1749999999999998
 74
0
  0
LTYPE
  5
4C
100
AcDbSymbolTableRecord
100
AcDbLinetypeTableRecord
  2
DIVIDE
 70
0
  3
Divide ____ . . ____ . . ____ . . ____ . . ____
 72
65
 73
6
 40
31.7500000000000036
 49
12.6999999999999993
 74
0
 49
-6.2999999999999998
 74
0
 49
0.1
 74
0
 49
-6.25
 74
0
 49
0.1
 74
0
 49
-6.2999999999999998
 74
0
  0
LTYPE
  5
4D
100
AcDbSymbolTableRecord
100
AcDbLinetypeTableRecord
  2
ACAD_ISO09W100
 70
0
  3
ISO long-dash double-short-dash ____ __ __ ____
 72
65
 73
6
 40
45.0
 49
24.0
 74
0
 49
-3.0
 74
0
 49
6.0
 74
0
 49
-3.0
 74
0
 49
6.0
 74
0
 49
-3.0
 74
0
  0
LTYPE
  5
15
100
AcDbSymbolTableRecord
100
AcDbLinetypeTableRecord
  2
BYLAYER
 70
0
  3

 72
65
 73
0
 40
0.0
  0
LTYPE
  5
4E
100
AcDbSymbolTableRecord
100
AcDbLinetypeTableRecord
  2
ACAD_ISO02W100
 70
0
  3
ISO dash __ __ __ __ __ __ __ __ __ __ __ __ __
 72
65
 73
2
 40
15.0
 49
12.0
 74
0
 49
-3.0
 74
0
  0
LTYPE
  5
4F
100
AcDbSymbolTableRecord
100
AcDbLinetypeTableRecord
  2
HIDDEN
 70
0
  3
Hidden __ __ __ __ __ __ __ __ __ __ __ __ __ __
 72
65
 73
2
 40
9.5249999999999986
 49
6.3499999999999996
 74
0
 49
-3.1749999999999998
 74
0
  0
LTYPE
  5
50
100
AcDbSymbolTableRecord
100
AcDbLinetypeTableRecord
  2
ACAD_ISO10W100
 70
0
  3
ISO dash dot __ . __ . __ . __ . __ . __ . __ . 
 72
65
 73
4
 40
18.0
 49
12.0
 74
0
 49
-2.9500000000000002
 74
0
 49
0.1
 74
0
 49
-2.9500000000000002
 74
0
  0
LTYPE
  5
51
100
AcDbSymbolTableRecord
100
AcDbLinetypeTableRecord
  2
DOTX2
 70
0
  3
Dot (2x) .  .  .  .  .  .  .  .  .  .  .  .  .  .
 72
65
 73
2
 40
12.6999999999999993
 49
0.1
 74
0
 49
-12.5999999999999996
 74
0
  0
LTYPE
  5
52
100
AcDbSymbolTableRecord
100
AcDbLinetypeTableRecord
  2
DASHDOT
 70
0
  3
Dash dot __ . __ . __ . __ . __ . __ . __ . __
 72
65
 73
4
 40
25.4000000000000021
 49
12.6999999999999993
 74
0
 49
-6.2999999999999998
 74
0
 49
0.1
 74
0
 49
-6.2999999999999998
 74
0
  0
LTYPE
  5
53
100
AcDbSymbolTableRecord
100
AcDbLinetypeTableRecord
  2
ACAD_ISO05W100
 70
0
  3
ISO long-dash double-dot ____ .. ____ .. ____ . 
 72
65
 73
6
 40
33.0000000000000071
 49
24.0
 74
0
 49
-2.9500000000000002
 74
0
 49
0.1
 74
0
 49
-2.9000000000000004
 74
0
 49
0.1
 74
0
 49
-2.9500000000000002
 74
0
  0
LTYPE
  5
54
100
AcDbSymbolTableRecord
100
AcDbLinetypeTableRecord
  2
BORDER2
 70
0
  3
Border (.5x) __.__.__.__.__.__.__.__.__.__.__.
 72
65
 73
6
 40
22.2250000000000014
 49
6.3499999999999996
 74
0
 49
-3.1749999999999998
 74
0
 49
6.3499999999999996
 74
0
 49
-3.125
 74
0
 49
0.1
 74
0
 49
-3.125
 74
0
  0
LTYPE
  5
55
100
AcDbSymbolTableRecord
100
AcDbLinetypeTableRecord
  2
ACAD_ISO14W100
 70
0
  3
ISO dash triple-dot __ . . . __ . . . __ . . . _
 72
65
 73
8
 40
24.0000000000000036
 49
12.0
 74
0
 49
-2.9500000000000002
 74
0
 49
0.1
 74
0
 49
-2.9000000000000004
 74
0
 49
0.1
 74
0
 49
-2.9000000000000004
 74
0
 49
0.1
 74
0
 49
-2.9500000000000002
 74
0
  0
LTYPE
  5
56
100
AcDbSymbolTableRecord
100
AcDbLinetypeTableRecord
  2
ACAD_ISO15W100
 70
0
  3
ISO double-dash triple-dot __ __ . . . __ __ . .
 72
65
 73
10
 40
39.0000000000000071
 49
12.0
 74
0
 49
-3.0
 74
0
 49
12.0
 74
0
 49
-2.9500000000000002
 74
0
 49
0.1
 74
0
 49
-2.9000000000000004
 74
0
 49
0.1
 74
0
 49
-2.9000000000000004
 74
0
 49
0.1
 74
0
 49
-2.9500000000000002
 74
0
  0
ENDTAB
  0
TABLE
  2
LAYER
  5
2
100
AcDbSymbolTable
 70
5
  0
LAYER
  5
57
100
AcDbSymbolTableRecord
100
AcDbLayerTableRecord
  2
UserDrawings
 70
0
 62
9
420
12632256
  6
Continuous
370
13
390
F
  0
LAYER
  5
58
100
AcDbSymbolTableRecord
100
AcDbLayerTableRecord
  2
AreaEngraving
 70
0
 62
3
420
65280
  6
Continuous
370
13
390
F
  0
LAYER
  5
10
100
AcDbSymbolTableRecord
100
AcDbLayerTableRecord
  2
0
 70
0
 62
2
420
16776960
  6
Continuous
370
13
390
F
  0
LAYER
  5
59
100
AcDbSymbolTableRecord
100
AcDbLayerTableRecord
  2
Cuts
 70
0
 62
1
420
16711680
  6
Continuous
370
13
390
F
  0
LAYER
  5
5A
100
AcDbSymbolTableRecord
100
AcDbLayerTableRecord
  2
VectorEngraving
 70
0
 62
5
420
255
  6
Continuous
370
13
390
F
  0
ENDTAB
  0
TABLE
  2
STYLE
  5
3
100
AcDbSymbolTable
 70
1
  0
STYLE
  5
5B
100
AcDbSymbolTableRecord
100
AcDbTextStyleTableRecord
  2
Standard
 70
0
 40
0.0
 41
1.0
 50
0.0
 71
0
 42
2.5
  3

  4

1001
ACAD
1000
txt
1071
0
  0
ENDTAB
  0
TABLE
  2
VIEW
  5
6
100
AcDbSymbolTable
 70
0
  0
ENDTAB
  0
TABLE
  2
UCS
  5
7
100
AcDbSymbolTable
 70
0
  0
ENDTAB
  0
TABLE
  2
APPID
  5
9
100
AcDbSymbolTable
 70
1
  0
APPID
  5
12
100
AcDbSymbolTableRecord
100
AcDbRegAppTableRecord
  2
ACAD
 70
0
  0
APPID
  5
5C
100
AcDbSymbolTableRecord
100
AcDbRegAppTableRecord
  2
QCAD
 70
0
  0
ENDTAB
  0
TABLE
  2
DIMSTYLE
  5
A
100
AcDbSymbolTable
 70
1
100
AcDbDimStyleTable
 71
0
  0
DIMSTYLE
105
27
100
AcDbSymbolTableRecord
100
AcDbDimStyleTableRecord
  2
Standard
 41
2.5
 42
0.625
 43
3.75
 44
1.25
 70
0
 73
0
 74
0
 77
1
 78
8
140
2.5
141
2.5
143
0.03937007874016
147
0.625
171
3
172
1
271
2
272
2
274
3
278
44
283
0
284
8
340
5B
  0
ENDTAB
  0
TABLE
  2
BLOCK_RECORD
  5
1
100
AcDbSymbolTable
 70
1
  0
BLOCK_RECORD
  5
1F
100
AcDbSymbolTableRecord
100
AcDbBlockTableRecord
  2
*Model_Space
340
22
  0
BLOCK_RECORD
  5
1B
100
AcDbSymbolTableRecord
100
AcDbBlockTableRecord
  2
*Paper_Space
340
1E
  0
BLOCK_RECORD
  5
23
100
AcDbSymbolTableRecord
100
AcDbBlockTableRecord
  2
*Paper_Space0
340
26
  0
BLOCK_RECORD
  5
5D
100
AcDbSymbolTableRecord
100
AcDbBlockTableRecord
  2
block 4
340
0
  0
BLOCK_RECORD
  5
5E
100
AcDbSymbolTableRecord
100
AcDbBlockTableRecord
  2
LargePotGauge
340
0
  0
BLOCK_RECORD
  5
5F
100
AcDbSymbolTableRecord
100
AcDbBlockTableRecord
  2
block 5
340
0
  0
BLOCK_RECORD
  5
60
100
AcDbSymbolTableRecord
100
AcDbBlockTableRecord
  2
block 1
340
0
  0
BLOCK_RECORD
  5
61
100
AcDbSymbolTableRecord
100
AcDbBlockTableRecord
  2
block 6
340
0
  0
BLOCK_RECORD
  5
62
100
AcDbSymbolTableRecord
100
AcDbBlockTableRecord
  2
block 3
340
0
  0
BLOCK_RECORD
  5
63
100
AcDbSymbolTableRecord
100
AcDbBlockTableRecord
  2
Abacus_Logo
340
0
  0
BLOCK_RECORD
  5
64
100
AcDbSymbolTableRecord
100
AcDbBlockTableRecord
  2
block 2
340
0
  0
BLOCK_RECORD
  5
65
100
AcDbSymbolTableRecord
100
AcDbBlockTableRecord
  2
RW_Logo_Trans_Filled
340
0
  0
BLOCK_RECORD
  5
66
100
AcDbSymbolTableRecord
100
AcDbBlockTableRecord
  2
SmallPotGauge
340
0
  0
BLOCK_RECORD
  5
67
100
AcDbSymbolTableRecord
100
AcDbBlockTableRecord
  2
RW_Logo_Trans
340
0
  0
ENDTAB
  0
ENDSEC
  0
SECTION
  2
BLOCKS
  0
BLOCK
  5
20
100
AcDbEntity
  8
0
100
AcDbBlockBegin
  2
*Model_Space
 70
0
 10
0.0
 20
0.0
 30
0.0
  3
*Model_Space
  1

  0
ENDBLK
  5
21
100
AcDbEntity
  8
0
100
AcDbBlockEnd
  0
BLOCK
  5
1C
100
AcDbEntity
 67
1
  8
0
100
AcDbBlockBegin
  2
*Paper_Space
 70
0
 10
0.0
 20
0.0
 30
0.0
  3
*Paper_Space
  1

  0
ENDBLK
  5
1D
100
AcDbEntity
 67
1
  8
0
100
AcDbBlockEnd
  0
BLOCK
  5
24
100
AcDbEntity
  8
0
100
AcDbBlockBegin
  2
*Paper_Space0
 70
0
 10
0.0
 20
0.0
 30
0.0
  3
*Paper_Space0
  1

  0
ENDBLK
  5
25
100
AcDbEntity
  8
0
100
AcDbBlockEnd
  0
BLOCK
  5
68
100
AcDbEntity
  8
0
100
AcDbBlockBegin
  2
block 4
 70
0
 10
0.0
 20
0.0
 30
0.0
  3
block 4
  1

  0
LWPOLYLINE
  5
69
100
AcDbEntity
  8
VectorEngraving
 62
256
370
-1
 48
1.0
  6
BYLAYER
100
AcDbPolyline
 90
6
 70
128
 10
-0.1447316216625225
 20
5.2278271675010188
 10
-0.1447316216625225
 20
3.4717371675010185
 42
-0.0094312964636997
 10
-0.012841621662524
 20
3.4777371675010471
 42
-0.0094282736998003
 10
0.1191083783374793
 20
3.4747371675010328
 10
0.1191083783374793
 20
5.2275271675010373
 10
-0.1447316216625225
 20
5.2278271675010188
  0
LWPOLYLINE
  5
6A
100
AcDbEntity
  8
VectorEngraving
 62
256
370
-1
 48
1.0
  6
BYLAYER
100
AcDbPolyline
 90
5
 70
128
 10
-2.5235516216625271
 20
4.5904471675010114
 10
-2.7520316216625318
 20
4.4585071675010255
 10
-1.8752716216625274
 20
2.9399371675010144
 42
-0.018850642653673
 10
-1.6458916216625212
 20
3.0702571675010262
 10
-2.5235516216625271
 20
4.5904471675010114
  0
LWPOLYLINE
  5
6B
100
AcDbEntity
  8
VectorEngraving
 62
256
370
-1
 48
1.0
  6
BYLAYER
100
AcDbPolyline
 90
5
 70
128
 10
2.4979683783374682
 20
4.5904471675010114
 10
1.6214783783374642
 20
3.0723371675010043
 42
-0.0188531870154901
 10
1.8500983783374707
 20
2.9406171675010029
 10
2.7264483783374729
 20
4.4585071675009971
 10
2.4979683783374682
 20
4.5904471675010114
  0
LWPOLYLINE
  5
6C
100
AcDbEntity
  8
VectorEngraving
 62
256
370
-1
 48
1.0
  6
BYLAYER
100
AcDbPolyline
 90
5
 70
128
 10
-4.493471621662529
 20
2.7170671675010141
 10
-4.6253716216625307
 20
2.4885871675010236
 10
-3.1052216216625297
 20
1.6109271675010319
 42
-0.0188520557002934
 10
-2.9748616216625337
 20
1.8403071675010239
 10
-4.493471621662529
 20
2.7170671675010141
  0
LWPOLYLINE
  5
6D
100
AcDbEntity
  8
VectorEngraving
 62
256
370
-1
 48
1.0
  6
BYLAYER
100
AcDbPolyline
 90
5
 70
128
 10
4.4678883783374701
 20
2.7170671675010141
 10
2.9499483783374743
 20
1.8407171675010119
 42
-0.0188549721058722
 10
3.0817183783375199
 20
1.6120971675010054
 10
4.5997783783374828
 20
2.4885871675009952
 10
4.4678883783374701
 20
2.7170671675010141
  0
LWPOLYLINE
  5
6E
100
AcDbEntity
  8
VectorEngraving
 62
256
370
-1
 48
1.0
  6
BYLAYER
100
AcDbPolyline
 90
6
 70
128
 10
-5.2628346216625275
 20
0.1097271675010205
 10
-5.2628346216625275
 20
-0.1541128324989671
 10
-3.506701621662522
 20
-0.1541128324989671
 42
-0.0094348651562602
 10
-3.5127016216625506
 20
-0.0221728324989812
 42
-0.00943201020193
 10
-3.5067016216625362
 20
0.1097271675010205
 10
-5.2628346216625275
 20
0.1097271675010205
  0
LWPOLYLINE
  5
6F
100
AcDbEntity
  8
VectorEngraving
 62
256
370
-1
 48
1.0
  6
BYLAYER
100
AcDbPolyline
 90
6
 70
128
 10
3.4844183783374589
 20
0.1097271675010205
 42
-0.009424702242363
 10
3.487418378337459
 20
-0.0221728324988959
 42
-0.0094348651562611
 10
3.4814183783374872
 20
-0.1541128324989671
 10
5.2375083783374734
 20
-0.1541128324989671
 10
5.2375083783374734
 20
0.1097271675010205
 10
3.4844183783374731
 20
0.1097271675010205
  0
LWPOLYLINE
  5
70
100
AcDbEntity
  8
VectorEngraving
 62
256
370
-1
 48
1.0
  6
BYLAYER
100
AcDbPolyline
 90
5
 70
128
 10
3.0795883783374691
 20
-1.6552228324989784
 42
-0.0188551641205852
 10
2.9492283783374731
 20
-1.8846528324989862
 10
4.4678883783374701
 20
-2.7614128324989764
 10
4.5997783783374686
 20
-2.5329328324989859
 10
3.0795883783374691
 20
-1.6552228324989784
  0
LWPOLYLINE
  5
71
100
AcDbEntity
  8
VectorEngraving
 62
256
370
-1
 48
1.0
  6
BYLAYER
100
AcDbPolyline
 90
5
 70
128
 10
-3.1052216216625297
 20
-1.6552728324989658
 10
-4.6253716216625307
 20
-2.5329328324989575
 10
-4.493471621662529
 20
-2.761412832498948
 10
-2.9748616216625337
 20
-1.8846528324989578
 42
-0.0188520557002923
 10
-3.1052216216625439
 20
-1.6552728324989658
  0
LWPOLYLINE
  5
72
100
AcDbEntity
  8
VectorEngraving
 62
256
370
-1
 48
1.0
  6
BYLAYER
100
AcDbPolyline
 90
5
 70
128
 10
1.8496883783374685
 20
-2.984242832498964
 42
-0.0188520557002944
 10
1.6203083783374623
 20
-3.1146028324989601
 10
2.4979683783374682
 20
-4.6347928324989738
 10
2.7264483783374729
 20
-4.5028528324989878
 10
1.8496883783374685
 20
-2.984242832498964
  0
LWPOLYLINE
  5
73
100
AcDbEntity
  8
VectorEngraving
 62
256
370
-1
 48
1.0
  6
BYLAYER
100
AcDbPolyline
 90
6
 70
128
 10
-1.8752716216625274
 20
-2.9842828324989767
 10
-2.7520316216625318
 20
-4.5028528324989878
 10
-2.5235516216625271
 20
-4.6347928324989738
 10
-1.6458916216625212
 20
-3.1146028324989601
 42
-0.0188506426536739
 10
-1.8752716216625274
 20
-2.9842828324989483
 10
-1.8752716216625274
 20
-2.9842828324989767
  0
ENDBLK
  5
74
100
AcDbEntity
  8
0
100
AcDbBlockEnd
  0
BLOCK
  5
75
100
AcDbEntity
  8
0
100
AcDbBlockBegin
  2
LargePotGauge
 70
0
 10
0.0
 20
0.0
 30
0.0
  3
LargePotGauge
  1

  0
LWPOLYLINE
  5
76
100
AcDbEntity
  8
0
 62
256
370
-1
 48
1.0
  6
BYLAYER
100
AcDbPolyline
 90
6
 70
128
 10
104.4709399999999988
 20
-100.6212699999999955
 10
104.4709399999999988
 20
-111.8190299999999979
 42
-0.0033072788336863
 10
104.9995899999999835
 20
-111.7958299999999809
 42
-0.0033077266184061
 10
105.5287599999999912
 20
-111.8038299999999481
 10
105.5287599999999912
 20
-100.6212699999999955
 10
104.4709399999999988
 20
-100.6212699999999955
  0
LWPOLYLINE
  5
77
100
AcDbEntity
  8
0
 62
256
370
-1
 48
1.0
  6
BYLAYER
100
AcDbPolyline
 90
5
 70
128
 10
93.3357019999999977
 20
-106.2219599999999957
 10
92.3140590000000003
 20
-106.4958400000000012
 10
94.1418529999999976
 20
-113.318160000000006
 42
-0.0066141399769513
 10
95.1640129999999687
 20
-113.0442799999999863
 10
93.3357019999999977
 20
-106.2219599999999957
  0
LWPOLYLINE
  5
78
100
AcDbEntity
  8
0
 62
256
370
-1
 48
1.0
  6
BYLAYER
100
AcDbPolyline
 90
5
 70
128
 10
116.6640000000000015
 20
-106.2219599999999957
 10
114.8398200000000031
 20
-113.0298099999999977
 42
-0.0066101756053528
 10
115.8614599999999371
 20
-113.3031799999999691
 10
117.6856400000000065
 20
-106.4958400000000012
 10
116.6640000000000015
 20
-106.2219599999999957
  0
LWPOLYLINE
  5
79
100
AcDbEntity
  8
0
 62
256
370
-1
 48
1.0
  6
BYLAYER
100
AcDbPolyline
 90
5
 70
128
 10
79.8703739999999982
 20
-107.2131100000000004
 10
78.9546679999999981
 20
-107.7417599999999993
 10
84.5538090000000011
 20
-117.4393599999999935
 42
-0.006608723992369
 10
85.4695150000000012
 20
-116.9107099999999804
 10
79.8703739999999982
 20
-107.2131100000000004
  0
LWPOLYLINE
  5
7A
100
AcDbEntity
  8
0
 62
256
370
-1
 48
1.0
  6
BYLAYER
100
AcDbPolyline
 90
5
 70
128
 10
130.1288099999999872
 20
-107.2131100000000004
 10
124.5379299999999887
 20
-116.897270000000006
 42
-0.0066087456461917
 10
125.4536399999999077
 20
-117.4259199999999908
 10
131.045029999999997
 20
-107.7417599999999993
 10
130.1288099999999872
 20
-107.2131100000000004
  0
LWPOLYLINE
  5
7B
100
AcDbEntity
  8
0
 62
256
370
-1
 48
1.0
  6
BYLAYER
100
AcDbPolyline
 90
5
 70
128
 10
72.1116739999999936
 20
-118.1597299999999962
 10
71.3633999999999986
 20
-118.9074899999999957
 10
76.3579270000000037
 20
-123.9020199999999932
 42
-0.0066118880942146
 10
77.1062009999999702
 20
-123.1542600000000078
 10
72.1116739999999936
 20
-118.1597299999999962
  0
LWPOLYLINE
  5
7C
100
AcDbEntity
  8
0
 62
256
370
-1
 48
1.0
  6
BYLAYER
100
AcDbPolyline
 90
5
 70
128
 10
137.8880199999999832
 20
-118.1597299999999962
 10
132.9048699999999883
 20
-123.1428899999999942
 42
-0.0066118262234246
 10
133.6526199999998994
 20
-123.8911599999999709
 10
138.6357799999999827
 20
-118.9074899999999957
 10
137.8880199999999832
 20
-118.1597299999999962
  0
LWPOLYLINE
  5
7D
100
AcDbEntity
  8
0
 62
256
370
-1
 48
1.0
  6
BYLAYER
100
AcDbPolyline
 90
5
 70
128
 10
60.9459469999999897
 20
-125.750479999999996
 10
60.4167799999999886
 20
-126.6666999999999916
 10
70.1143779999999879
 20
-132.2653300000000058
 42
-0.0066131255020083
 10
70.6435459999999722
 20
-131.349109999999996
 10
60.9459469999999897
 20
-125.750479999999996
  0
LWPOLYLINE
  5
7E
100
AcDbEntity
  8
0
 62
256
370
-1
 48
1.0
  6
BYLAYER
100
AcDbPolyline
 90
5
 70
128
 10
149.0537499999999795
 20
-125.750479999999996
 10
139.3695899999999881
 20
-131.3413500000000056
 42
-0.0066115608445713
 10
139.8982400000000155
 20
-132.2575799999999617
 10
149.5823999999999785
 20
-126.6667000000000201
 10
149.0537499999999795
 20
-125.750479999999996
  0
LWPOLYLINE
  5
7F
100
AcDbEntity
  8
0
 62
256
370
-1
 48
1.0
  6
BYLAYER
100
AcDbPolyline
 90
5
 70
128
 10
59.6995009999999837
 20
-139.1103899999999953
 10
59.4256159999999838
 20
-140.1320299999999861
 10
66.2479409999999831
 20
-141.9603399999999738
 42
-0.006614144830355
 10
66.5218239999999241
 20
-140.9381800000000169
 10
59.6995009999999837
 20
-139.1103899999999953
  0
LWPOLYLINE
  5
80
100
AcDbEntity
  8
0
 62
256
370
-1
 48
1.0
  6
BYLAYER
100
AcDbPolyline
 90
5
 70
128
 10
150.3001899999999864
 20
-139.1103899999999953
 10
143.4928499999999758
 20
-140.9345700000000079
 42
-0.006611016540262
 10
143.7667399999999986
 20
-141.9562100000000271
 10
150.5735499999999831
 20
-140.1320299999999861
 10
150.3001899999999864
 20
-139.1103899999999953
  0
LWPOLYLINE
  5
81
100
AcDbEntity
  8
0
 62
256
370
-1
 48
1.0
  6
BYLAYER
100
AcDbPolyline
 90
6
 70
128
 10
53.8254509999999868
 20
-151.2672699999999963
 10
53.8254509999999868
 20
-152.3245699999999943
 10
65.0232169999999883
 20
-152.3245699999999943
 42
-0.003307292549862
 10
64.9999669999999981
 20
-151.7959200000000237
 42
-0.003307292549864
 10
65.0232169999999883
 20
-151.2672700000001669
 10
53.8254509999999868
 20
-151.2672699999999963
  0
LWPOLYLINE
  5
82
100
AcDbEntity
  8
0
 62
256
370
-1
 48
1.0
  6
BYLAYER
100
AcDbPolyline
 90
6
 70
128
 10
144.9919799999999555
 20
-151.2672700000000532
 42
-0.003304476883546
 10
144.9999799999999937
 20
-151.7959199999996258
 42
-0.0033072788336863
 10
144.9767800000000193
 20
-152.3245700000001364
 10
156.1745499999999822
 20
-152.3245699999999943
 10
156.1745499999999822
 20
-151.2672699999999963
 10
144.9919799999999839
 20
-151.2672699999999963
  0
LWPOLYLINE
  5
83
100
AcDbEntity
  8
0
 62
256
370
-1
 48
1.0
  6
BYLAYER
100
AcDbPolyline
 90
6
 70
128
 10
66.2479499999999888
 20
-161.6314999999999884
 10
59.425625999999987
 20
-163.4598099999999761
 10
59.6995109999999869
 20
-164.4814499999999668
 10
66.5218329999999867
 20
-162.6536499999999705
 42
-0.0066140844520288
 10
66.247950000000003
 20
-161.6314999999999884
 10
66.2479499999999888
 20
-161.6314999999999884
  0
LWPOLYLINE
  5
84
100
AcDbEntity
  8
0
 62
256
370
-1
 48
1.0
  6
BYLAYER
100
AcDbPolyline
 90
5
 70
128
 10
143.7517499999999586
 20
-161.6320099999999798
 42
-0.0066110165402621
 10
143.4778599999999642
 20
-162.653649999999999
 10
150.3001899999999864
 20
-164.4814499999999668
 10
150.5735499999999831
 20
-163.4598099999999761
 10
143.751749999999987
 20
-161.6320099999999798
  0
LWPOLYLINE
  5
85
100
AcDbEntity
  8
0
 62
256
370
-1
 48
1.0
  6
BYLAYER
100
AcDbPolyline
 90
5
 70
128
 10
70.1143779999999879
 20
-171.3265099999999848
 10
60.4167799999999886
 20
-176.925139999999999
 10
60.9459469999999897
 20
-177.8413600000000088
 10
70.6435459999999864
 20
-172.2427299999999946
 42
-0.0066131255020083
 10
70.1143779999999879
 20
-171.3265099999999848
  0
LWPOLYLINE
  5
86
100
AcDbEntity
  8
0
 62
256
370
-1
 48
1.0
  6
BYLAYER
100
AcDbPolyline
 90
5
 70
128
 10
139.8853199999999788
 20
-171.3265099999999279
 42
-0.0066131317545044
 10
139.3561499999999569
 20
-172.2427299999999661
 10
149.0537499999999795
 20
-177.8413600000000088
 10
149.5823999999999785
 20
-176.925139999999999
 10
139.8853199999999788
 20
-171.3265099999999848
  0
LWPOLYLINE
  5
87
100
AcDbEntity
  8
0
 62
256
370
-1
 48
1.0
  6
BYLAYER
100
AcDbPolyline
 90
5
 70
128
 10
76.3579269999999894
 20
-179.6898199999999974
 10
71.3633989999999869
 20
-184.6843499999999949
 10
72.111670999999987
 20
-185.4321099999999944
 10
77.106199999999987
 20
-180.437579999999997
 42
-0.0066118836727005
 10
76.3579270000000179
 20
-179.689819999999969
  0
LWPOLYLINE
  5
88
100
AcDbEntity
  8
0
 62
256
370
-1
 48
1.0
  6
BYLAYER
100
AcDbPolyline
 90
5
 70
128
 10
133.6417699999999229
 20
-179.6898199999999974
 42
-0.0066118704081765
 10
132.8934999999999604
 20
-180.4375799999999685
 10
137.8880199999999832
 20
-185.4321099999999944
 10
138.6357799999999827
 20
-184.6843499999999949
 10
133.6417699999999797
 20
-179.6898199999999974
  0
LWPOLYLINE
  5
89
100
AcDbEntity
  8
0
 62
256
370
-1
 48
1.0
  6
BYLAYER
100
AcDbPolyline
 90
5
 70
128
 10
84.5532849999999883
 20
-186.1524799999999971
 10
78.9546609999999873
 20
-195.8500799999999913
 10
79.8703669999999875
 20
-196.3787299999999902
 10
85.4689919999999859
 20
-186.681129999999996
 42
-0.0066087294058223
 10
84.5532850000000025
 20
-186.1524799999999971
  0
LWPOLYLINE
  5
8A
100
AcDbEntity
  8
0
 62
256
370
-1
 48
1.0
  6
BYLAYER
100
AcDbPolyline
 90
5
 70
128
 10
125.4458899999999915
 20
-186.1524800000000255
 42
-0.0066087456461919
 10
124.530179999999973
 20
-186.6811300000000244
 10
130.1288099999999872
 20
-196.3787299999999902
 10
131.045029999999997
 20
-195.8500799999999913
 10
125.4458899999999915
 20
-186.1524799999999971
  0
ENDBLK
  5
8B
100
AcDbEntity
  8
0
100
AcDbBlockEnd
  0
BLOCK
  5
8C
100
AcDbEntity
  8
0
100
AcDbBlockBegin
  2
block 5
 70
0
 10
0.0
 20
0.0
 30
0.0
  3
block 5
  1

  0
LWPOLYLINE
  5
8D
100
AcDbEntity
  8
0
 62
256
370
-1
 48
1.0
  6
BYLAYER
100
AcDbPolyline
 90
20
 70
128
 10
-363.1093789999999899
 20
132.2832050000000095
 10
-363.1093789999999899
 20
116.4570330000000098
 10
-382.0058629999999766
 20
116.4570330000000098
 10
-382.0058629999999766
 20
84.8027360000000101
 10
-363.1093789999999899
 20
84.8027360000000101
 10
-363.1093789999999899
 20
-8.9277349999999842
 10
-382.0058629999999766
 20
-8.9277349999999842
 10
-382.0058629999999766
 20
-40.5800749999999937
 10
-363.1093789999999899
 20
-40.5800749999999937
 10
-363.1093789999999899
 20
-56.3769549999999811
 10
-363.1093789999999899
 20
-132.2832050000000095
 10
-274.9199249999999779
 20
-132.2832050000000095
 10
-274.9199249999999779
 20
-56.3769550000000095
 10
-254.4003949999999747
 20
-56.3769550000000095
 10
-226.7734449999999811
 20
-132.2832050000000095
 10
-138.5839849999999842
 20
-132.2832050000000095
 10
-176.8964849999999842
 20
-27.0175749999999937
 42
0.1923579134144613
 10
-150.8671949999999242
 20
37.9531270000090473
 42
0.4142131276425501
 10
-245.1972649974722458
 20
132.2832049999999811
 10
-363.1093789999999899
 20
132.2832050000000095
  0
LWPOLYLINE
  5
8E
100
AcDbEntity
  8
0
 62
256
370
-1
 48
1.0
  6
BYLAYER
100
AcDbPolyline
 90
6
 70
128
 10
-274.9199249999999779
 20
68.9921890000000104
 10
-253.1074249999999779
 20
68.9921890000000104
 42
-0.4142108826965076
 10
-222.0703149999999937
 20
37.9531269999891805
 42
-0.4141924816972828
 10
-253.1074249999999779
 20
6.91601500000003
 10
-274.9199249999999779
 20
6.9160150000000158
 10
-274.9199249999999779
 20
68.9921890000000104
  0
LWPOLYLINE
  5
8F
100
AcDbEntity
  8
0
 62
256
370
-1
 48
1.0
  6
BYLAYER
100
AcDbPolyline
 90
5
 70
128
 10
56.2519449999999779
 20
132.2832050000000095
 10
4.0527350000000411
 20
-11.1347649999999874
 10
48.1464849999999842
 20
-132.2832050000000095
 10
100.3476550000000316
 20
11.1347649999999874
 10
56.2519449999999779
 20
132.2832050000000095
  0
LWPOLYLINE
  5
90
100
AcDbEntity
  8
0
 62
256
370
-1
 48
1.0
  6
BYLAYER
100
AcDbPolyline
 90
5
 70
128
 10
-136.3359449999999811
 20
132.2832050000000095
 10
-40.0410149999999589
 20
-132.2832050000000095
 10
48.1464849999999842
 20
-132.2832050000000095
 10
-48.1464849999999842
 20
132.2832050000000095
 10
-136.3359449999999811
 20
132.2832050000000095
  0
LWPOLYLINE
  5
91
100
AcDbEntity
  8
0
 62
256
370
-1
 48
1.0
  6
BYLAYER
100
AcDbPolyline
 90
8
 70
128
 10
56.2519449999999779
 20
132.2832050000000095
 10
152.546875
 20
-132.2832050000000095
 10
240.7363250000000789
 20
-132.2832050000000095
 10
337.0312450000001263
 20
132.2832050000000095
 10
248.8417950000000474
 20
132.2832050000000095
 10
196.640625
 20
-11.1347649999999874
 10
144.4414050000000316
 20
132.2832050000000095
 10
56.2519449999999779
 20
132.2832050000000095
  0
ENDBLK
  5
92
100
AcDbEntity
  8
0
100
AcDbBlockEnd
  0
BLOCK
  5
93
100
AcDbEntity
  8
0
100
AcDbBlockBegin
  2
block 1
 70
0
 10
0.0
 20
0.0
 30
0.0
  3
block 1
  1

  0
INSERT
  5
94
100
AcDbEntity
  8
VectorEngraving
 62
256
370
-1
 48
1.0
  6
BYLAYER
100
AcDbBlockReference
  2
RW_Logo_Trans_Filled
 10
-150.0
 20
0.0
 30
0.0
  0
ENDBLK
  5
95
100
AcDbEntity
  8
0
100
AcDbBlockEnd
  0
BLOCK
  5
96
100
AcDbEntity
  8
0
100
AcDbBlockBegin
  2
block 6
 70
0
 10
0.0
 20
0.0
 30
0.0
  3
block 6
  1

  0
LWPOLYLINE
  5
97
100
AcDbEntity
  8
VectorEngraving
 62
256
370
-1
 48
1.0
  6
BYLAYER
100
AcDbPolyline
 90
20
 70
128
 10
-9.6223985434999992
 20
3.5055049324999992
 10
-9.6223985434999992
 20
3.0861113744999997
 10
-10.1231553694999992
 20
3.0861113744999997
 10
-10.1231553694999992
 20
2.2472725039999997
 10
-9.6223985434999992
 20
2.2472725039999997
 10
-9.6223985434999992
 20
-0.2365849774999997
 10
-10.1231553694999992
 20
-0.2365849774999997
 10
-10.1231553694999992
 20
-1.0753719874999996
 10
-9.6223985434999992
 20
-1.0753719874999996
 10
-9.6223985434999992
 20
-1.4939893074999997
 10
-9.6223985434999992
 20
-3.5055049325000001
 10
-7.2853780124999989
 20
-3.5055049325000001
 10
-7.2853780124999989
 20
-1.4939893074999997
 10
-6.7416104674999993
 20
-1.4939893074999997
 10
-6.0094962924999997
 20
-3.5055049325000001
 10
-3.6724756024999996
 20
-3.5055049325000001
 10
-4.6877568524999997
 20
-0.7159657374999995
 42
0.1923579134144613
 10
-3.9979806674999985
 20
1.0057578655002395
 42
0.4142131276425501
 10
-6.4977275224330144
 20
3.5055049324999992
 10
-9.6223985434999992
 20
3.5055049324999992
  0
LWPOLYLINE
  5
98
100
AcDbEntity
  8
VectorEngraving
 62
256
370
-1
 48
1.0
  6
BYLAYER
100
AcDbPolyline
 90
6
 70
128
 10
-7.2853780124999989
 20
1.8282930085000011
 10
-6.7073467624999994
 20
1.8282930085000011
 42
-0.4142108826965076
 10
-5.8848633474999996
 20
1.0057578654997137
 42
-0.4141924816972828
 10
-6.7073467624999994
 20
0.1832743975000009
 10
-7.2853780124999989
 20
0.1832743975
 10
-7.2853780124999989
 20
1.8282930085000011
  0
LWPOLYLINE
  5
99
100
AcDbEntity
  8
VectorEngraving
 62
256
370
-1
 48
1.0
  6
BYLAYER
100
AcDbPolyline
 90
5
 70
128
 10
-3.6129025424999988
 20
3.5055049324999992
 10
-1.0610868974999992
 20
-3.5055049325000001
 10
1.2758818524999995
 20
-3.5055049325000001
 10
-1.2758818524999995
 20
3.5055049324999992
 10
-3.6129025424999988
 20
3.5055049324999992
  0
LWPOLYLINE
  5
9A
100
AcDbEntity
  8
VectorEngraving
 62
256
370
-1
 48
1.0
  6
BYLAYER
100
AcDbPolyline
 90
8
 70
128
 10
1.4906765424999993
 20
3.5055049324999992
 10
4.0424921874999988
 20
-3.5055049325000001
 10
6.379512612500001
 20
-3.5055049325000001
 10
8.9313279925000018
 20
3.5055049324999992
 10
6.5943075675000031
 20
3.5055049324999992
 10
5.2109765625000009
 20
-0.2950712724999995
 10
3.8276972325000003
 20
3.5055049324999992
 10
1.4906765424999993
 20
3.5055049324999992
  0
LINE
  5
9B
100
AcDbEntity
  8
VectorEngraving
 62
256
370
-1
 48
1.0
  6
BYLAYER
100
AcDbLine
 10
0.1073974775000028
 20
-0.2950712724999986
 30
0.0
 11
1.490676542500001
 21
3.5055049325000009
 31
0.0
  0
LINE
  5
9C
100
AcDbEntity
  8
VectorEngraving
 62
256
370
-1
 48
1.0
  6
BYLAYER
100
AcDbLine
 10
2.6591996787320564
 20
0.2950350650328817
 30
0.0
 11
1.2758818546243074
 21
-3.505504934606535
 31
0.0
  0
ENDBLK
  5
9D
100
AcDbEntity
  8
0
100
AcDbBlockEnd
  0
BLOCK
  5
9E
100
AcDbEntity
  8
0
100
AcDbBlockBegin
  2
block 3
 70
0
 10
0.0
 20
0.0
 30
0.0
  3
block 3
  1

  0
INSERT
  5
9F
100
AcDbEntity
  8
VectorEngraving
 62
256
370
-1
 48
1.0
  6
BYLAYER
100
AcDbBlockReference
  2
SmallPotGauge
 10
-105.0126316216625355
 20
145.1543371675010121
 30
0.0
  0
ENDBLK
  5
A0
100
AcDbEntity
  8
0
100
AcDbBlockEnd
  0
BLOCK
  5
A1
100
AcDbEntity
  8
0
100
AcDbBlockBegin
  2
Abacus_Logo
 70
0
 10
0.0
 20
0.0
 30
0.0
  3
Abacus_Logo
  1

  0
LINE
  5
A2
100
AcDbEntity
  8
0
 62
7
420
16777215
370
-1
 48
1.0
  6
BYLAYER
100
AcDbLine
 10
0.0
 20
-0.0000009999999975
 30
0.0
 11
132.099490000000003
 21
-0.0000009999999975
 31
0.0
  0
LINE
  5
A3
100
AcDbEntity
  8
0
 62
7
420
16777215
370
-1
 48
1.0
  6
BYLAYER
100
AcDbLine
 10
132.099490000000003
 20
-0.0000009999999975
 30
0.0
 11
132.099490000000003
 21
-79.9999930000000177
 31
0.0
  0
LINE
  5
A4
100
AcDbEntity
  8
0
 62
7
420
16777215
370
-1
 48
1.0
  6
BYLAYER
100
AcDbLine
 10
132.099490000000003
 20
-79.9999930000000177
 30
0.0
 11
0.0
 21
-79.9999930000000177
 31
0.0
  0
LINE
  5
A5
100
AcDbEntity
  8
0
 62
7
420
16777215
370
-1
 48
1.0
  6
BYLAYER
100
AcDbLine
 10
0.0
 20
-79.9999930000000177
 30
0.0
 11
0.0
 21
-0.0000009999999975
 31
0.0
  0
LWPOLYLINE
  5
A6
100
AcDbEntity
  8
0
 62
7
420
16777215
370
-1
 48
1.0
  6
BYLAYER
100
AcDbPolyline
 90
2
 70
128
 10
87.5345939999999985
 20
-43.9719970000000018
 10
88.7981340000000046
 20
-43.9719970000000018
  0
ARC
  5
A7
100
AcDbEntity
  8
0
 62
7
420
16777215
370
-1
 48
1.0
  6
BYLAYER
100
AcDbCircle
 10
88.7994930662790551
 20
-44.5915779337209202
 30
0.0
 40
0.6195824242920892
100
AcDbArc
 50
359.8743204757542458
 51
90.125679524240681
  0
LWPOLYLINE
  5
A8
100
AcDbEntity
  8
0
 62
7
420
16777215
370
-1
 48
1.0
  6
BYLAYER
100
AcDbPolyline
 90
2
 70
128
 10
89.4190739999999948
 20
-44.5929370000000063
 10
89.4190739999999948
 20
-54.6212869999999953
  0
ARC
  5
A9
100
AcDbEntity
  8
0
 62
7
420
16777215
370
-1
 48
1.0
  6
BYLAYER
100
AcDbCircle
 10
88.7994930662790694
 20
-54.6226460662790743
 30
0.0
 40
0.6195824242920608
100
AcDbArc
 50
269.8743204757553258
 51
0.1256795242457381
  0
LWPOLYLINE
  5
AA
100
AcDbEntity
  8
0
 62
7
420
16777215
370
-1
 48
1.0
  6
BYLAYER
100
AcDbPolyline
 90
2
 70
128
 10
88.7981339999999761
 20
-55.2422269999999855
 10
87.53459399999997
 20
-55.2422269999999855
  0
ARC
  5
AB
100
AcDbEntity
  8
0
 62
7
420
16777215
370
-1
 48
1.0
  6
BYLAYER
100
AcDbCircle
 10
87.5332349337208768
 20
-54.6226460662790885
 30
0.0
 40
0.6195824242920466
100
AcDbArc
 50
179.8743204757542458
 51
270.1256795242446742
  0
LWPOLYLINE
  5
AC
100
AcDbEntity
  8
0
 62
7
420
16777215
370
-1
 48
1.0
  6
BYLAYER
100
AcDbPolyline
 90
2
 70
128
 10
86.9136539999999798
 20
-54.6212869999999953
 10
86.9136539999999798
 20
-44.5929369999999921
  0
ARC
  5
AD
100
AcDbEntity
  8
0
 62
7
420
16777215
370
-1
 48
1.0
  6
BYLAYER
100
AcDbCircle
 10
87.533234933720891
 20
-44.5915779337208988
 30
0.0
 40
0.6195824242920607
100
AcDbArc
 50
89.87432047575669
 51
180.1256795242457258
  0
LWPOLYLINE
  5
AE
100
AcDbEntity
  8
0
 62
7
420
16777215
370
-1
 48
1.0
  6
BYLAYER
100
AcDbPolyline
 90
2
 70
128
 10
87.53459399999997
 20
-43.9719969999999876
 10
87.5345939999999985
 20
-43.9719970000000018
  0
LWPOLYLINE
  5
AF
100
AcDbEntity
  8
0
 62
7
420
16777215
370
-1
 48
1.0
  6
BYLAYER
100
AcDbPolyline
 90
2
 70
128
 10
81.0330439999999896
 20
-48.4866869999999892
 10
118.4790140000000065
 20
-48.4866869999999892
  0
ARC
  5
B0
100
AcDbEntity
  8
0
 62
7
420
16777215
370
-1
 48
1.0
  6
BYLAYER
100
AcDbCircle
 10
118.4803730662790713
 20
-49.1062679337208863
 30
0.0
 40
0.619582424292075
100
AcDbArc
 50
359.8743204757542458
 51
90.1256795242419884
  0
LWPOLYLINE
  5
B1
100
AcDbEntity
  8
0
 62
7
420
16777215
370
-1
 48
1.0
  6
BYLAYER
100
AcDbPolyline
 90
2
 70
128
 10
119.0999539999999968
 20
-49.1076269999999795
 10
119.0999539999999968
 20
-50.1065469999999777
  0
ARC
  5
B2
100
AcDbEntity
  8
0
 62
7
420
16777215
370
-1
 48
1.0
  6
BYLAYER
100
AcDbCircle
 10
118.4803730662790713
 20
-50.1079060662790639
 30
0.0
 40
0.6195824242920537
100
AcDbArc
 50
269.8743204757579974
 51
0.1256795242457381
  0
LWPOLYLINE
  5
B3
100
AcDbEntity
  8
0
 62
7
420
16777215
370
-1
 48
1.0
  6
BYLAYER
100
AcDbPolyline
 90
2
 70
128
 10
118.4790140000000065
 20
-50.727486999999968
 10
81.0330439999999896
 20
-50.727486999999968
  0
ARC
  5
B4
100
AcDbEntity
  8
0
 62
7
420
16777215
370
-1
 48
1.0
  6
BYLAYER
100
AcDbCircle
 10
81.0316849337208964
 20
-50.1079060662790425
 30
0.0
 40
0.6195824242920465
100
AcDbArc
 50
179.8743204757600722
 51
270.1256795242446174
  0
LWPOLYLINE
  5
B5
100
AcDbEntity
  8
0
 62
7
420
16777215
370
-1
 48
1.0
  6
BYLAYER
100
AcDbPolyline
 90
2
 70
128
 10
80.4121039999999994
 20
-50.1065469999999777
 10
80.4121039999999994
 20
-49.1076269999999795
  0
ARC
  5
B6
100
AcDbEntity
  8
0
 62
7
420
16777215
370
-1
 48
1.0
  6
BYLAYER
100
AcDbCircle
 10
81.0316849337208964
 20
-49.1062679337208863
 30
0.0
 40
0.6195824242920466
100
AcDbArc
 50
89.8743204757553826
 51
180.1256795242457258
  0
LWPOLYLINE
  5
B7
100
AcDbEntity
  8
0
 62
7
420
16777215
370
-1
 48
1.0
  6
BYLAYER
100
AcDbPolyline
 90
2
 70
128
 10
97.8041240000000016
 20
-34.6201269999999965
 10
99.0676640000000077
 20
-34.6201269999999965
  0
ARC
  5
B8
100
AcDbEntity
  8
0
 62
7
420
16777215
370
-1
 48
1.0
  6
BYLAYER
100
AcDbCircle
 10
99.0690245384549399
 20
-35.2397164397146483
 30
0.0
 40
0.6195909334962733
100
AcDbArc
 50
359.8751087831928999
 51
90.1258139358805295
  0
LWPOLYLINE
  5
B9
100
AcDbEntity
  8
0
 62
7
420
16777215
370
-1
 48
1.0
  6
BYLAYER
100
AcDbPolyline
 90
2
 70
128
 10
99.6886140000000012
 20
-35.241067000000001
 10
99.6886140000000012
 20
-45.2694070000000011
  0
ARC
  5
BA
100
AcDbEntity
  8
0
 62
7
420
16777215
370
-1
 48
1.0
  6
BYLAYER
100
AcDbCircle
 10
99.0690160324612634
 20
-45.2707590324612212
 30
0.0
 40
0.6195994426804748
100
AcDbArc
 50
269.8749743625714359
 51
0.1250256374233243
  0
LWPOLYLINE
  5
BB
100
AcDbEntity
  8
0
 62
7
420
16777215
370
-1
 48
1.0
  6
BYLAYER
100
AcDbPolyline
 90
2
 70
128
 10
99.0676640000000077
 20
-45.8903569999999945
 10
97.8041240000000016
 20
-45.8903569999999945
  0
ARC
  5
BC
100
AcDbEntity
  8
0
 62
7
420
16777215
370
-1
 48
1.0
  6
BYLAYER
100
AcDbCircle
 10
97.8027734397146133
 20
-45.2707675384549333
 30
0.0
 40
0.6195909334962397
100
AcDbArc
 50
179.8741860641215737
 51
270.1248912168097718
  0
LWPOLYLINE
  5
BD
100
AcDbEntity
  8
0
 62
7
420
16777215
370
-1
 48
1.0
  6
BYLAYER
100
AcDbPolyline
 90
2
 70
128
 10
97.1831840000000113
 20
-45.2694070000000011
 10
97.1831840000000113
 20
-35.241067000000001
  0
ARC
  5
BE
100
AcDbEntity
  8
0
 62
7
420
16777215
370
-1
 48
1.0
  6
BYLAYER
100
AcDbCircle
 10
97.8027649337209368
 20
-35.239707933720922
 30
0.0
 40
0.619582424292075
100
AcDbArc
 50
89.8743204757580259
 51
180.1256795242457258
  0
LWPOLYLINE
  5
BF
100
AcDbEntity
  8
0
 62
7
420
16777215
370
-1
 48
1.0
  6
BYLAYER
100
AcDbPolyline
 90
2
 70
128
 10
106.9354439999999897
 20
-34.6201269999999965
 10
108.198993999999999
 20
-34.6201269999999965
  0
ARC
  5
C0
100
AcDbEntity
  8
0
 62
7
420
16777215
370
-1
 48
1.0
  6
BYLAYER
100
AcDbCircle
 10
108.200353066279078
 20
-35.2397079337209078
 30
0.0
 40
0.6195824242920608
100
AcDbArc
 50
359.8743204757542458
 51
90.12567952424331
  0
LWPOLYLINE
  5
C1
100
AcDbEntity
  8
0
 62
7
420
16777215
370
-1
 48
1.0
  6
BYLAYER
100
AcDbPolyline
 90
2
 70
128
 10
108.8199339999999893
 20
-35.241067000000001
 10
108.8199339999999893
 20
-45.2694070000000011
  0
ARC
  5
C2
100
AcDbEntity
  8
0
 62
7
420
16777215
370
-1
 48
1.0
  6
BYLAYER
100
AcDbCircle
 10
108.2003445602853731
 20
-45.2707675384549475
 30
0.0
 40
0.619590933496259
100
AcDbArc
 50
269.8751087831914788
 51
0.1258139358784509
  0
LWPOLYLINE
  5
C3
100
AcDbEntity
  8
0
 62
7
420
16777215
370
-1
 48
1.0
  6
BYLAYER
100
AcDbPolyline
 90
2
 70
128
 10
108.198993999999999
 20
-45.8903569999999945
 10
106.9354439999999897
 20
-45.8903569999999945
  0
ARC
  5
C4
100
AcDbEntity
  8
0
 62
7
420
16777215
370
-1
 48
1.0
  6
BYLAYER
100
AcDbCircle
 10
106.934099807846323
 20
-45.2707611704257786
 30
0.0
 40
0.6195972876621397
100
AcDbArc
 50
179.8747762240836892
 51
270.1243010568433647
  0
LWPOLYLINE
  5
C5
100
AcDbEntity
  8
0
 62
7
420
16777215
370
-1
 48
1.0
  6
BYLAYER
100
AcDbPolyline
 90
2
 70
128
 10
106.3145039999999995
 20
-45.2694070000000011
 10
106.3145039999999995
 20
-35.241067000000001
  0
ARC
  5
C6
100
AcDbEntity
  8
0
 62
7
420
16777215
370
-1
 48
1.0
  6
BYLAYER
100
AcDbCircle
 10
106.9340913016777392
 20
-35.2397143016777363
 30
0.0
 40
0.619588778298198
100
AcDbArc
 50
89.8749106357250298
 51
180.1250893642757944
  0
LWPOLYLINE
  5
C7
100
AcDbEntity
  8
0
 62
7
420
16777215
370
-1
 48
1.0
  6
BYLAYER
100
AcDbPolyline
 90
2
 70
128
 10
74.5850639999999885
 20
-39.134877000000003
 10
112.0310439999999801
 20
-39.134877000000003
  0
ARC
  5
C8
100
AcDbEntity
  8
0
 62
7
420
16777215
370
-1
 48
1.0
  6
BYLAYER
100
AcDbCircle
 10
112.0324030662790449
 20
-39.7544579337209143
 30
0.0
 40
0.619582424292075
100
AcDbArc
 50
359.8743204757542458
 51
90.1256795242419884
  0
LWPOLYLINE
  5
C9
100
AcDbEntity
  8
0
 62
7
420
16777215
370
-1
 48
1.0
  6
BYLAYER
100
AcDbPolyline
 90
2
 70
128
 10
112.6519839999999704
 20
-39.7558170000000075
 10
112.6519839999999704
 20
-40.7547270000000026
  0
ARC
  5
CA
100
AcDbEntity
  8
0
 62
7
420
16777215
370
-1
 48
1.0
  6
BYLAYER
100
AcDbCircle
 10
112.0324030662790449
 20
-40.7560860662790745
 30
0.0
 40
0.619582424292082
100
AcDbArc
 50
269.8743204757579974
 51
0.1256795242457381
  0
LWPOLYLINE
  5
CB
100
AcDbEntity
  8
0
 62
7
420
16777215
370
-1
 48
1.0
  6
BYLAYER
100
AcDbPolyline
 90
2
 70
128
 10
112.0310439999999801
 20
-41.3756670000000071
 10
74.5850639999999885
 20
-41.3756670000000071
  0
ARC
  5
CC
100
AcDbEntity
  8
0
 62
7
420
16777215
370
-1
 48
1.0
  6
BYLAYER
100
AcDbCircle
 10
74.5837049337209521
 20
-40.7560860662790319
 30
0.0
 40
0.6195824242921317
100
AcDbArc
 50
179.8743204757600722
 51
270.1256795242393878
  0
LWPOLYLINE
  5
CD
100
AcDbEntity
  8
0
 62
7
420
16777215
370
-1
 48
1.0
  6
BYLAYER
100
AcDbPolyline
 90
2
 70
128
 10
73.9641239999999698
 20
-40.7547270000000026
 10
73.9641239999999698
 20
-39.7558170000000075
  0
ARC
  5
CE
100
AcDbEntity
  8
0
 62
7
420
16777215
370
-1
 48
1.0
  6
BYLAYER
100
AcDbCircle
 10
74.5837049337208953
 20
-39.7544579337209214
 30
0.0
 40
0.6195824242920679
100
AcDbArc
 50
89.8743204757553826
 51
180.1256795242457258
  0
LWPOLYLINE
  5
CF
100
AcDbEntity
  8
0
 62
7
420
16777215
370
-1
 48
1.0
  6
BYLAYER
100
AcDbPolyline
 90
2
 70
128
 10
90.8052239999999813
 20
-26.5169170000000065
 10
92.0687639999999874
 20
-26.5169170000000065
  0
ARC
  5
D0
100
AcDbEntity
  8
0
 62
7
420
16777215
370
-1
 48
1.0
  6
BYLAYER
100
AcDbCircle
 10
92.0701230662790664
 20
-27.1364979337209071
 30
0.0
 40
0.6195824242920608
100
AcDbArc
 50
359.8743204757542458
 51
90.12567952424331
  0
LWPOLYLINE
  5
D1
100
AcDbEntity
  8
0
 62
7
420
16777215
370
-1
 48
1.0
  6
BYLAYER
100
AcDbPolyline
 90
2
 70
128
 10
92.6897039999999777
 20
-27.137857000000011
 10
92.6897039999999777
 20
-37.166197000000011
  0
ARC
  5
D2
100
AcDbEntity
  8
0
 62
7
420
16777215
370
-1
 48
1.0
  6
BYLAYER
100
AcDbCircle
 10
92.0701230662790522
 20
-37.1675560662790758
 30
0.0
 40
0.6195824242920892
100
AcDbArc
 50
269.8743204757579974
 51
0.1256795242457381
  0
LWPOLYLINE
  5
D3
100
AcDbEntity
  8
0
 62
7
420
16777215
370
-1
 48
1.0
  6
BYLAYER
100
AcDbPolyline
 90
2
 70
128
 10
92.0687639999999874
 20
-37.7871370000000155
 10
90.8052239999999813
 20
-37.7871370000000155
  0
ARC
  5
D4
100
AcDbEntity
  8
0
 62
7
420
16777215
370
-1
 48
1.0
  6
BYLAYER
100
AcDbCircle
 10
90.8038649337209165
 20
-37.1675560662790971
 30
0.0
 40
0.619582424292075
100
AcDbArc
 50
179.8743204757542458
 51
270.1256795242420026
  0
LWPOLYLINE
  5
D5
100
AcDbEntity
  8
0
 62
7
420
16777215
370
-1
 48
1.0
  6
BYLAYER
100
AcDbPolyline
 90
2
 70
128
 10
90.184283999999991
 20
-37.166197000000011
 10
90.184283999999991
 20
-27.137857000000011
  0
ARC
  5
D6
100
AcDbEntity
  8
0
 62
7
420
16777215
370
-1
 48
1.0
  6
BYLAYER
100
AcDbCircle
 10
90.8038649337209165
 20
-27.1364979337209249
 30
0.0
 40
0.6195824242920679
100
AcDbArc
 50
89.8743204757580259
 51
180.1256795242457258
  0
LWPOLYLINE
  5
D7
100
AcDbEntity
  8
0
 62
7
420
16777215
370
-1
 48
1.0
  6
BYLAYER
100
AcDbPolyline
 90
2
 70
128
 10
68.1370839999999873
 20
-31.0316070000000082
 10
105.5830639999999789
 20
-31.0316070000000082
  0
ARC
  5
D8
100
AcDbEntity
  8
0
 62
7
420
16777215
370
-1
 48
1.0
  6
BYLAYER
100
AcDbCircle
 10
105.5844230662790579
 20
-31.6511879337209407
 30
0.0
 40
0.6195824242920607
100
AcDbArc
 50
359.8743204757600438
 51
90.12567952424331
  0
LWPOLYLINE
  5
D9
100
AcDbEntity
  8
0
 62
7
420
16777215
370
-1
 48
1.0
  6
BYLAYER
100
AcDbPolyline
 90
2
 70
128
 10
106.2040039999999692
 20
-31.6525470000000126
 10
106.2040039999999692
 20
-32.6514670000000109
  0
ARC
  5
DA
100
AcDbEntity
  8
0
 62
7
420
16777215
370
-1
 48
1.0
  6
BYLAYER
100
AcDbCircle
 10
105.5844230662790295
 20
-32.6528260662790899
 30
0.0
 40
0.6195824242920749
100
AcDbArc
 50
269.8743204757593048
 51
0.1256795242457381
  0
LWPOLYLINE
  5
DB
100
AcDbEntity
  8
0
 62
7
420
16777215
370
-1
 48
1.0
  6
BYLAYER
100
AcDbPolyline
 90
2
 70
128
 10
105.5830639999999789
 20
-33.2724070000000154
 10
68.1370839999999873
 20
-33.2724070000000154
  0
ARC
  5
DC
100
AcDbEntity
  8
0
 62
7
420
16777215
370
-1
 48
1.0
  6
BYLAYER
100
AcDbCircle
 10
68.135724933720951
 20
-32.6528260662790473
 30
0.0
 40
0.6195824242921317
100
AcDbArc
 50
179.8743204757600722
 51
270.1256795242393878
  0
LWPOLYLINE
  5
DD
100
AcDbEntity
  8
0
 62
7
420
16777215
370
-1
 48
1.0
  6
BYLAYER
100
AcDbPolyline
 90
2
 70
128
 10
67.5161439999999686
 20
-32.6514670000000109
 10
67.5161439999999686
 20
-31.6525570000000158
  0
ARC
  5
DE
100
AcDbEntity
  8
0
 62
7
420
16777215
370
-1
 48
1.0
  6
BYLAYER
100
AcDbCircle
 10
68.1357249337209083
 20
-31.6511979337209333
 30
0.0
 40
0.6195824242920713
100
AcDbArc
 50
89.87432047575669
 51
180.1256795242457258
  0
LWPOLYLINE
  5
DF
100
AcDbEntity
  8
0
 62
7
420
16777215
370
-1
 48
1.0
  6
BYLAYER
100
AcDbPolyline
 90
2
 70
128
 10
68.1370839999999873
 20
-31.0316170000000113
 10
68.1370839999999873
 20
-31.0316070000000082
  0
LWPOLYLINE
  5
E0
100
AcDbEntity
  8
0
 62
7
420
16777215
370
-1
 48
1.0
  6
BYLAYER
100
AcDbPolyline
 90
2
 70
128
 10
71.385563999999988
 20
-17.4045340000000124
 10
72.6491039999999941
 20
-17.4045340000000124
  0
ARC
  5
E1
100
AcDbEntity
  8
0
 62
7
420
16777215
370
-1
 48
1.0
  6
BYLAYER
100
AcDbCircle
 10
72.6504645628774171
 20
-18.0241134218239161
 30
0.0
 40
0.6195809156833321
100
AcDbArc
 50
359.8748276835821684
 51
90.1258182286071872
  0
LWPOLYLINE
  5
E2
100
AcDbEntity
  8
0
 62
7
420
16777215
370
-1
 48
1.0
  6
BYLAYER
100
AcDbPolyline
 90
2
 70
128
 10
73.2700439999999844
 20
-18.0254670000000061
 10
73.2700439999999844
 20
-28.0538070000000062
  0
ARC
  5
E3
100
AcDbEntity
  8
0
 62
7
420
16777215
370
-1
 48
1.0
  6
BYLAYER
100
AcDbCircle
 10
72.6504630662790873
 20
-28.0551660662790994
 30
0.0
 40
0.6195824242920608
100
AcDbArc
 50
269.8743204757553258
 51
0.1256795242457381
  0
LWPOLYLINE
  5
E4
100
AcDbEntity
  8
0
 62
7
420
16777215
370
-1
 48
1.0
  6
BYLAYER
100
AcDbPolyline
 90
2
 70
128
 10
72.6491039999999941
 20
-28.6747470000000106
 10
71.385563999999988
 20
-28.6747470000000106
  0
ARC
  5
E5
100
AcDbEntity
  8
0
 62
7
420
16777215
370
-1
 48
1.0
  6
BYLAYER
100
AcDbCircle
 10
71.3842049337209232
 20
-28.0551660662790567
 30
0.0
 40
0.6195824242921033
100
AcDbArc
 50
179.8743204757600722
 51
270.1256795242420026
  0
LWPOLYLINE
  5
E6
100
AcDbEntity
  8
0
 62
7
420
16777215
370
-1
 48
1.0
  6
BYLAYER
100
AcDbPolyline
 90
2
 70
128
 10
70.7646239999999693
 20
-28.0538070000000062
 10
70.7646239999999693
 20
-18.0254670000000061
  0
ARC
  5
E7
100
AcDbEntity
  8
0
 62
7
420
16777215
370
-1
 48
1.0
  6
BYLAYER
100
AcDbCircle
 10
71.3842034371225225
 20
-18.0241134218239196
 30
0.0
 40
0.6195809156833276
100
AcDbArc
 50
89.8741817713888764
 51
180.1251723164179168
  0
LWPOLYLINE
  5
E8
100
AcDbEntity
  8
0
 62
7
420
16777215
370
-1
 48
1.0
  6
BYLAYER
100
AcDbPolyline
 90
2
 70
128
 10
82.5967339999999695
 20
-17.4045340000000124
 10
83.8602639999999724
 20
-17.4045340000000124
  0
ARC
  5
E9
100
AcDbEntity
  8
0
 62
7
420
16777215
370
-1
 48
1.0
  6
BYLAYER
100
AcDbCircle
 10
83.861626035002601
 20
-18.0241219279400724
 30
0.0
 40
0.6195894250133891
100
AcDbArc
 50
359.8756159973074773
 51
90.1259526339583346
  0
LWPOLYLINE
  5
EA
100
AcDbEntity
  8
0
 62
7
420
16777215
370
-1
 48
1.0
  6
BYLAYER
100
AcDbPolyline
 90
2
 70
128
 10
84.4812139999999658
 20
-18.0254670000000061
 10
84.4812139999999658
 20
-28.0538070000000062
  0
ARC
  5
EB
100
AcDbEntity
  8
0
 62
7
420
16777215
370
-1
 48
1.0
  6
BYLAYER
100
AcDbCircle
 10
83.8616245384548904
 20
-28.055157560285366
 30
0.0
 40
0.6195909334962824
100
AcDbArc
 50
269.8741860641207495
 51
0.1248912168070956
  0
LWPOLYLINE
  5
EC
100
AcDbEntity
  8
0
 62
7
420
16777215
370
-1
 48
1.0
  6
BYLAYER
100
AcDbPolyline
 90
2
 70
128
 10
83.8602639999999724
 20
-28.6747470000000106
 10
82.5967339999999695
 20
-28.6747470000000106
  0
ARC
  5
ED
100
AcDbEntity
  8
0
 62
7
420
16777215
370
-1
 48
1.0
  6
BYLAYER
100
AcDbCircle
 10
82.5953734615450372
 20
-28.0551575602853696
 30
0.0
 40
0.6195909334962733
100
AcDbArc
 50
179.8751087831928999
 51
270.1258139358805579
  0
LWPOLYLINE
  5
EE
100
AcDbEntity
  8
0
 62
7
420
16777215
370
-1
 48
1.0
  6
BYLAYER
100
AcDbPolyline
 90
2
 70
128
 10
81.975783999999976
 20
-28.0538070000000062
 10
81.975783999999976
 20
-18.0254670000000061
  0
ARC
  5
EF
100
AcDbEntity
  8
0
 62
7
420
16777215
370
-1
 48
1.0
  6
BYLAYER
100
AcDbCircle
 10
82.5953719649973408
 20
-18.0241219279400902
 30
0.0
 40
0.6195894250133933
100
AcDbArc
 50
89.8740473660416797
 51
180.1243840026925227
  0
LWPOLYLINE
  5
F0
100
AcDbEntity
  8
0
 62
7
420
16777215
370
-1
 48
1.0
  6
BYLAYER
100
AcDbPolyline
 90
2
 70
128
 10
61.6891039999999791
 20
-21.9192270000000065
 10
99.1350839999999778
 20
-21.9192270000000065
  0
ARC
  5
F1
100
AcDbEntity
  8
0
 62
7
420
16777215
370
-1
 48
1.0
  6
BYLAYER
100
AcDbCircle
 10
99.1364430662790426
 20
-22.5388079337209106
 30
0.0
 40
0.619582424292075
100
AcDbArc
 50
359.8743204757542458
 51
90.1256795242419884
  0
LWPOLYLINE
  5
F2
100
AcDbEntity
  8
0
 62
7
420
16777215
370
-1
 48
1.0
  6
BYLAYER
100
AcDbPolyline
 90
2
 70
128
 10
99.7560239999999681
 20
-22.5401670000000109
 10
99.7560239999999681
 20
-23.539077000000006
  0
ARC
  5
F3
100
AcDbEntity
  8
0
 62
7
420
16777215
370
-1
 48
1.0
  6
BYLAYER
100
AcDbCircle
 10
99.136443066279071
 20
-23.5404360662790992
 30
0.0
 40
0.6195824242920608
100
AcDbArc
 50
269.8743204757553258
 51
0.1256795242457381
  0
LWPOLYLINE
  5
F4
100
AcDbEntity
  8
0
 62
7
420
16777215
370
-1
 48
1.0
  6
BYLAYER
100
AcDbPolyline
 90
2
 70
128
 10
99.1350839999999778
 20
-24.1600170000000105
 10
61.6891039999999791
 20
-24.1600170000000105
  0
ARC
  5
F5
100
AcDbEntity
  8
0
 62
7
420
16777215
370
-1
 48
1.0
  6
BYLAYER
100
AcDbCircle
 10
61.6877449337209143
 20
-23.5404360662790637
 30
0.0
 40
0.6195824242920891
100
AcDbArc
 50
179.8743204757600722
 51
270.1256795242420026
  0
LWPOLYLINE
  5
F6
100
AcDbEntity
  8
0
 62
7
420
16777215
370
-1
 48
1.0
  6
BYLAYER
100
AcDbPolyline
 90
2
 70
128
 10
61.0681639999999746
 20
-23.539077000000006
 10
61.0681639999999746
 20
-22.5401670000000109
  0
ARC
  5
F7
100
AcDbEntity
  8
0
 62
7
420
16777215
370
-1
 48
1.0
  6
BYLAYER
100
AcDbCircle
 10
61.6877449337209001
 20
-22.5388079337209355
 30
0.0
 40
0.6195824242920785
100
AcDbArc
 50
89.87432047575669
 51
180.1256795242457258
  0
LWPOLYLINE
  5
F8
100
AcDbEntity
  8
0
 62
7
420
16777215
370
-1
 48
1.0
  6
BYLAYER
100
AcDbPolyline
 90
5
 70
128
 10
46.0838629999999725
 20
-39.6259870000000092
 10
70.0490739999999619
 20
-39.6259870000000092
 10
66.9713239999999814
 20
-47.5370670000000075
 10
43.006112999999992
 20
-47.5370670000000075
 10
46.0838629999999725
 20
-39.6259870000000092
  0
LWPOLYLINE
  5
F9
100
AcDbEntity
  8
0
 62
7
420
16777215
370
-1
 48
1.0
  6
BYLAYER
100
AcDbPolyline
 90
2
 70
128
 10
88.3651339999999834
 20
-7.7359069999999974
 10
89.6286739999999895
 20
-7.7359069999999974
  0
ARC
  5
FA
100
AcDbEntity
  8
0
 62
7
420
16777215
370
-1
 48
1.0
  6
BYLAYER
100
AcDbCircle
 10
89.6300322156866258
 20
-8.3554887865015086
 30
0.0
 40
0.6195832752054029
100
AcDbArc
 50
359.8743070342547981
 51
90.1256006931664615
  0
LWPOLYLINE
  5
FB
100
AcDbEntity
  8
0
 62
7
420
16777215
370
-1
 48
1.0
  6
BYLAYER
100
AcDbPolyline
 90
2
 70
128
 10
90.2496139999999798
 20
-8.3568479999999994
 10
90.2496139999999798
 20
-18.3851870000000019
  0
ARC
  5
FC
100
AcDbEntity
  8
0
 62
7
420
16777215
370
-1
 48
1.0
  6
BYLAYER
100
AcDbCircle
 10
89.6300330662790685
 20
-18.3865460662790916
 30
0.0
 40
0.6195824242920643
100
AcDbArc
 50
269.87432047575669
 51
0.1256795242457381
  0
LWPOLYLINE
  5
FD
100
AcDbEntity
  8
0
 62
7
420
16777215
370
-1
 48
1.0
  6
BYLAYER
100
AcDbPolyline
 90
2
 70
128
 10
89.6286739999999895
 20
-19.0061270000000064
 10
88.3651339999999834
 20
-19.0061270000000064
  0
ARC
  5
FE
100
AcDbEntity
  8
0
 62
7
420
16777215
370
-1
 48
1.0
  6
BYLAYER
100
AcDbCircle
 10
88.3637749337209186
 20
-18.3865460662790632
 30
0.0
 40
0.6195824242921033
100
AcDbArc
 50
179.8743204757600722
 51
270.1256795242420026
  0
LWPOLYLINE
  5
FF
100
AcDbEntity
  8
0
 62
7
420
16777215
370
-1
 48
1.0
  6
BYLAYER
100
AcDbPolyline
 90
2
 70
128
 10
87.7441939999999647
 20
-18.3851870000000019
 10
87.7441939999999647
 20
-8.3568479999999994
  0
ARC
  5
100
100
AcDbEntity
  8
0
 62
7
420
16777215
370
-1
 48
1.0
  6
BYLAYER
100
AcDbCircle
 10
88.3637757843133329
 20
-8.3554887865015175
 30
0.0
 40
0.6195832752054131
100
AcDbArc
 50
89.8743993068322311
 51
180.1256929657422745
  0
LWPOLYLINE
  5
101
100
AcDbEntity
  8
0
 62
7
420
16777215
370
-1
 48
1.0
  6
BYLAYER
100
AcDbPolyline
 90
2
 70
128
 10
88.3651339999999834
 20
-7.7359069999999974
 10
88.3651339999999834
 20
-7.7359069999999974
  0
LWPOLYLINE
  5
102
100
AcDbEntity
  8
0
 62
7
420
16777215
370
-1
 48
1.0
  6
BYLAYER
100
AcDbPolyline
 90
2
 70
128
 10
76.7879240000000038
 20
-7.7359069999999974
 10
78.0514739999999847
 20
-7.7359069999999974
  0
ARC
  5
103
100
AcDbEntity
  8
0
 62
7
420
16777215
370
-1
 48
1.0
  6
BYLAYER
100
AcDbCircle
 10
78.052832215686621
 20
-8.3554887865015566
 30
0.0
 40
0.6195832752054312
100
AcDbArc
 50
359.8743070342576971
 51
90.1256006931664615
  0
LWPOLYLINE
  5
104
100
AcDbEntity
  8
0
 62
7
420
16777215
370
-1
 48
1.0
  6
BYLAYER
100
AcDbPolyline
 90
2
 70
128
 10
78.6724140000000034
 20
-8.3568479999999994
 10
78.6724140000000034
 20
-18.3851870000000019
  0
ARC
  5
105
100
AcDbEntity
  8
0
 62
7
420
16777215
370
-1
 48
1.0
  6
BYLAYER
100
AcDbCircle
 10
78.0528330662790921
 20
-18.3865460662790881
 30
0.0
 40
0.6195824242920679
100
AcDbArc
 50
269.8743204757540752
 51
0.1256795242457381
  0
LWPOLYLINE
  5
106
100
AcDbEntity
  8
0
 62
7
420
16777215
370
-1
 48
1.0
  6
BYLAYER
100
AcDbPolyline
 90
2
 70
128
 10
78.0514739999999847
 20
-19.0061270000000064
 10
76.7879240000000038
 20
-19.0061270000000064
  0
ARC
  5
107
100
AcDbEntity
  8
0
 62
7
420
16777215
370
-1
 48
1.0
  6
BYLAYER
100
AcDbCircle
 10
76.7865649337209533
 20
-18.3865460662790525
 30
0.0
 40
0.6195824242921175
100
AcDbArc
 50
179.8743204757600722
 51
270.1256795242406952
  0
LWPOLYLINE
  5
108
100
AcDbEntity
  8
0
 62
7
420
16777215
370
-1
 48
1.0
  6
BYLAYER
100
AcDbPolyline
 90
2
 70
128
 10
76.1669839999999851
 20
-18.3851870000000019
 10
76.1669839999999851
 20
-8.3568479999999994
  0
ARC
  5
109
100
AcDbEntity
  8
0
 62
7
420
16777215
370
-1
 48
1.0
  6
BYLAYER
100
AcDbCircle
 10
76.7865657843133391
 20
-8.3554887865015228
 30
0.0
 40
0.6195832752054184
100
AcDbArc
 50
89.8743993068309237
 51
180.1256929657422745
  0
LWPOLYLINE
  5
10A
100
AcDbEntity
  8
0
 62
7
420
16777215
370
-1
 48
1.0
  6
BYLAYER
100
AcDbPolyline
 90
2
 70
128
 10
64.8565140000000042
 20
-7.7359069999999974
 10
66.1200540000000103
 20
-7.7359069999999974
  0
ARC
  5
10B
100
AcDbEntity
  8
0
 62
7
420
16777215
370
-1
 48
1.0
  6
BYLAYER
100
AcDbCircle
 10
66.1214122156866466
 20
-8.3554887865015086
 30
0.0
 40
0.6195832752054029
100
AcDbArc
 50
359.8743070342547981
 51
90.1256006931664615
  0
LWPOLYLINE
  5
10C
100
AcDbEntity
  8
0
 62
7
420
16777215
370
-1
 48
1.0
  6
BYLAYER
100
AcDbPolyline
 90
2
 70
128
 10
66.7409940000000006
 20
-8.3568479999999994
 10
66.7409940000000006
 20
-18.3851870000000019
  0
ARC
  5
10D
100
AcDbEntity
  8
0
 62
7
420
16777215
370
-1
 48
1.0
  6
BYLAYER
100
AcDbCircle
 10
66.1214130662790751
 20
-18.3865460662790881
 30
0.0
 40
0.6195824242920679
100
AcDbArc
 50
269.8743204757579974
 51
0.1256795242457381
  0
LWPOLYLINE
  5
10E
100
AcDbEntity
  8
0
 62
7
420
16777215
370
-1
 48
1.0
  6
BYLAYER
100
AcDbPolyline
 90
2
 70
128
 10
66.1200540000000103
 20
-19.0061270000000064
 10
64.8565140000000042
 20
-19.0061270000000064
  0
ARC
  5
10F
100
AcDbEntity
  8
0
 62
7
420
16777215
370
-1
 48
1.0
  6
BYLAYER
100
AcDbCircle
 10
64.8551549337209536
 20
-18.3865460662790383
 30
0.0
 40
0.6195824242921175
100
AcDbArc
 50
179.8743204757600722
 51
270.1256795242406952
  0
LWPOLYLINE
  5
110
100
AcDbEntity
  8
0
 62
7
420
16777215
370
-1
 48
1.0
  6
BYLAYER
100
AcDbPolyline
 90
2
 70
128
 10
64.2355739999999855
 20
-18.3851870000000019
 10
64.2355739999999855
 20
-8.3568479999999994
  0
ARC
  5
111
100
AcDbEntity
  8
0
 62
7
420
16777215
370
-1
 48
1.0
  6
BYLAYER
100
AcDbCircle
 10
64.8551557843133537
 20
-8.3554887865015193
 30
0.0
 40
0.6195832752054149
100
AcDbArc
 50
89.8743993068322311
 51
180.1256929657422745
  0
LWPOLYLINE
  5
112
100
AcDbEntity
  8
0
 62
7
420
16777215
370
-1
 48
1.0
  6
BYLAYER
100
AcDbPolyline
 90
2
 70
128
 10
55.2411269999999988
 20
-12.2506039999999956
 10
92.687104000000005
 20
-12.2506039999999956
  0
ARC
  5
113
100
AcDbEntity
  8
0
 62
7
420
16777215
370
-1
 48
1.0
  6
BYLAYER
100
AcDbCircle
 10
92.6884630662790983
 20
-12.8701849337209016
 30
0.0
 40
0.6195824242920466
100
AcDbArc
 50
359.8743204757542458
 51
90.1256795242446316
  0
LWPOLYLINE
  5
114
100
AcDbEntity
  8
0
 62
7
420
16777215
370
-1
 48
1.0
  6
BYLAYER
100
AcDbPolyline
 90
2
 70
128
 10
93.3080439999999953
 20
-12.8715440000000001
 10
93.3080439999999953
 20
-13.8704639999999984
  0
ARC
  5
115
100
AcDbEntity
  8
0
 62
7
420
16777215
370
-1
 48
1.0
  6
BYLAYER
100
AcDbCircle
 10
92.688463066279084
 20
-13.8718230662790862
 30
0.0
 40
0.619582424292066
100
AcDbArc
 50
269.87432047575669
 51
0.1256795242457381
  0
LWPOLYLINE
  5
116
100
AcDbEntity
  8
0
 62
7
420
16777215
370
-1
 48
1.0
  6
BYLAYER
100
AcDbPolyline
 90
2
 70
128
 10
92.687104000000005
 20
-14.4914040000000028
 10
55.2411269999999988
 20
-14.4914040000000028
  0
ARC
  5
117
100
AcDbEntity
  8
0
 62
7
420
16777215
370
-1
 48
1.0
  6
BYLAYER
100
AcDbCircle
 10
55.2397673448457667
 20
-13.8718196639000375
 30
0.0
 40
0.6195858279549028
100
AcDbArc
 50
179.8746357996209042
 51
270.1257332897899346
  0
LWPOLYLINE
  5
118
100
AcDbEntity
  8
0
 62
7
420
16777215
370
-1
 48
1.0
  6
BYLAYER
100
AcDbPolyline
 90
2
 70
128
 10
54.6201830000000044
 20
-13.8704639999999984
 10
54.6201830000000044
 20
-12.8715440000000001
  0
ARC
  5
119
100
AcDbEntity
  8
0
 62
7
420
16777215
370
-1
 48
1.0
  6
BYLAYER
100
AcDbCircle
 10
55.2397673448457951
 20
-12.870188336099968
 30
0.0
 40
0.6195858279549186
100
AcDbArc
 50
89.8742667102126944
 51
180.1253642003791242
  0
LWPOLYLINE
  5
11A
100
AcDbEntity
  8
0
 62
7
420
16777215
370
-1
 48
1.0
  6
BYLAYER
100
AcDbPolyline
 90
5
 70
128
 10
37.8937129999999982
 20
-7.7843249999999955
 10
50.3093029999999928
 20
-7.7843249999999955
 10
25.4151189999999971
 20
-72.2640869999999893
 10
12.999533999999997
 20
-72.2640869999999893
 10
37.8937129999999982
 20
-7.7843249999999955
  0
ENDBLK
  5
11B
100
AcDbEntity
  8
0
100
AcDbBlockEnd
  0
BLOCK
  5
11C
100
AcDbEntity
  8
0
100
AcDbBlockBegin
  2
block 2
 70
0
 10
0.0
 20
0.0
 30
0.0
  3
block 2
  1

  0
INSERT
  5
11D
100
AcDbEntity
  8
VectorEngraving
 62
256
370
-1
 48
1.0
  6
BYLAYER
100
AcDbBlockReference
  2
block 1
 10
-269.800785000000019
 20
132.2832050000000095
 30
0.0
  0
ENDBLK
  5
11E
100
AcDbEntity
  8
0
100
AcDbBlockEnd
  0
BLOCK
  5
11F
100
AcDbEntity
  8
0
100
AcDbBlockBegin
  2
RW_Logo_Trans_Filled
 70
0
 10
0.0
 20
0.0
 30
0.0
  3
RW_Logo_Trans_Filled
  1

  0
LWPOLYLINE
  5
120
100
AcDbEntity
  8
0
 62
256
370
-1
 48
1.0
  6
BYLAYER
100
AcDbPolyline
 90
20
 70
128
 10
56.6914069999999981
 20
0.0
 10
56.6914069999999981
 20
-15.8261719999999997
 10
37.7949219999999997
 20
-15.8261719999999997
 10
37.7949219999999997
 20
-47.4804689999999994
 10
56.6914069999999981
 20
-47.4804689999999994
 10
56.6914069999999981
 20
-141.2109399999999937
 10
37.7949219999999997
 20
-141.2109399999999937
 10
37.7949219999999997
 20
-172.8632800000000032
 10
56.6914069999999981
 20
-172.8632800000000032
 10
56.6914069999999981
 20
-188.6601599999999905
 10
56.6914069999999981
 20
-264.566410000000019
 10
144.8808600000000126
 20
-264.566410000000019
 10
144.8808600000000126
 20
-188.6601599999999905
 10
165.4003899999999874
 20
-188.6601599999999905
 10
193.0273500000000126
 20
-264.566410000000019
 10
281.2167999999999779
 20
-264.566410000000019
 10
242.9043000000000063
 20
-159.3007800000000032
 42
0.1923579216735375
 10
268.9335999999999558
 20
-94.3300790000037637
 42
0.41421316177978
 10
174.6035199999999747
 20
0.0000000000000142
 10
56.6914069999999981
 20
0.0
  0
LWPOLYLINE
  5
121
100
AcDbEntity
  8
0
 62
256
370
-1
 48
1.0
  6
BYLAYER
100
AcDbPolyline
 90
5
 70
128
 10
476.0527299999999968
 20
0.0
 10
423.8535200000000032
 20
-143.4179699999999968
 10
467.9472700000000032
 20
-264.566410000000019
 10
520.1484400000000505
 20
-121.1484400000000221
 10
476.0527299999999968
 20
0.0
  0
LWPOLYLINE
  5
122
100
AcDbEntity
  8
0
 62
256
370
-1
 48
1.0
  6
BYLAYER
100
AcDbPolyline
 90
5
 70
128
 10
283.464839999999981
 20
0.0
 10
379.7597700000000032
 20
-264.566410000000019
 10
467.9472700000000032
 20
-264.566410000000019
 10
371.6542999999999779
 20
0.0
 10
283.464839999999981
 20
0.0
  0
LWPOLYLINE
  5
123
100
AcDbEntity
  8
0
 62
256
370
-1
 48
1.0
  6
BYLAYER
100
AcDbPolyline
 90
8
 70
128
 10
476.0527299999999968
 20
0.0
 10
572.347660000000019
 20
-264.566410000000019
 10
660.5371099999999842
 20
-264.566410000000019
 10
756.8320300000000316
 20
0.0
 10
668.6425799999999526
 20
0.0
 10
616.441410000000019
 20
-143.4179699999999968
 10
564.2421900000000505
 20
0.0
 10
476.0527299999999968
 20
0.0
  0
ENDBLK
  5
124
100
AcDbEntity
  8
0
100
AcDbBlockEnd
  0
BLOCK
  5
125
100
AcDbEntity
  8
0
100
AcDbBlockBegin
  2
SmallPotGauge
 70
0
 10
0.0
 20
0.0
 30
0.0
  3
SmallPotGauge
  1

  0
LWPOLYLINE
  5
126
100
AcDbEntity
  8
0
 62
256
370
-1
 48
1.0
  6
BYLAYER
100
AcDbPolyline
 90
6
 70
128
 10
104.8679000000000059
 20
-139.9265100000000075
 10
104.8679000000000059
 20
-141.6826000000000079
 42
-0.0094312964636997
 10
104.9997900000000044
 20
-141.6765999999999792
 42
-0.0094282736998003
 10
105.1317400000000077
 20
-141.6795999999999935
 10
105.1317400000000077
 20
-139.926809999999989
 10
104.8679000000000059
 20
-139.9265100000000075
  0
LWPOLYLINE
  5
127
100
AcDbEntity
  8
0
 62
256
370
-1
 48
1.0
  6
BYLAYER
100
AcDbPolyline
 90
5
 70
128
 10
102.4890800000000013
 20
-140.5638900000000149
 10
102.2605999999999966
 20
-140.6958300000000008
 10
103.137360000000001
 20
-142.2144000000000119
 42
-0.018850642653673
 10
103.3667400000000072
 20
-142.0840800000000002
 10
102.4890800000000013
 20
-140.5638900000000149
  0
LWPOLYLINE
  5
128
100
AcDbEntity
  8
0
 62
256
370
-1
 48
1.0
  6
BYLAYER
100
AcDbPolyline
 90
5
 70
128
 10
107.5105999999999966
 20
-140.5638900000000149
 10
106.6341099999999926
 20
-142.0820000000000221
 42
-0.0188531870154901
 10
106.8627299999999991
 20
-142.2137200000000234
 10
107.7390800000000013
 20
-140.6958300000000293
 10
107.5105999999999966
 20
-140.5638900000000149
  0
LWPOLYLINE
  5
129
100
AcDbEntity
  8
0
 62
256
370
-1
 48
1.0
  6
BYLAYER
100
AcDbPolyline
 90
5
 70
128
 10
100.5191599999999994
 20
-142.4372700000000123
 10
100.3872599999999977
 20
-142.6657500000000027
 10
101.9074099999999987
 20
-143.5434099999999944
 42
-0.0188520557002934
 10
102.0377699999999948
 20
-143.3140300000000025
 10
100.5191599999999994
 20
-142.4372700000000123
  0
LWPOLYLINE
  5
12A
100
AcDbEntity
  8
0
 62
256
370
-1
 48
1.0
  6
BYLAYER
100
AcDbPolyline
 90
5
 70
128
 10
109.4805199999999985
 20
-142.4372700000000123
 10
107.9625800000000027
 20
-143.3136200000000144
 42
-0.0188549721058722
 10
108.0943500000000483
 20
-143.5422400000000209
 10
109.6124100000000112
 20
-142.6657500000000312
 10
109.4805199999999985
 20
-142.4372700000000123
  0
LWPOLYLINE
  5
12B
100
AcDbEntity
  8
0
 62
256
370
-1
 48
1.0
  6
BYLAYER
100
AcDbPolyline
 90
6
 70
128
 10
99.7497970000000009
 20
-145.0446100000000058
 10
99.7497970000000009
 20
-145.3084499999999935
 10
101.5059300000000064
 20
-145.3084499999999935
 42
-0.0094348651562602
 10
101.4999299999999778
 20
-145.1765100000000075
 42
-0.00943201020193
 10
101.5059299999999922
 20
-145.0446100000000058
 10
99.7497970000000009
 20
-145.0446100000000058
  0
LWPOLYLINE
  5
12C
100
AcDbEntity
  8
0
 62
256
370
-1
 48
1.0
  6
BYLAYER
100
AcDbPolyline
 90
6
 70
128
 10
108.4970499999999873
 20
-145.0446100000000058
 42
-0.009424702242363
 10
108.5000499999999874
 20
-145.1765099999999222
 42
-0.0094348651562611
 10
108.4940500000000156
 20
-145.3084499999999935
 10
110.2501400000000018
 20
-145.3084499999999935
 10
110.2501400000000018
 20
-145.0446100000000058
 10
108.4970500000000015
 20
-145.0446100000000058
  0
LWPOLYLINE
  5
12D
100
AcDbEntity
  8
0
 62
256
370
-1
 48
1.0
  6
BYLAYER
100
AcDbPolyline
 90
5
 70
128
 10
108.0922199999999975
 20
-146.8095600000000047
 42
-0.0188551641205852
 10
107.9618600000000015
 20
-147.0389900000000125
 10
109.4805199999999985
 20
-147.9157500000000027
 10
109.612409999999997
 20
-147.6872700000000123
 10
108.0922199999999975
 20
-146.8095600000000047
  0
LWPOLYLINE
  5
12E
100
AcDbEntity
  8
0
 62
256
370
-1
 48
1.0
  6
BYLAYER
100
AcDbPolyline
 90
5
 70
128
 10
101.9074099999999987
 20
-146.8096099999999922
 10
100.3872599999999977
 20
-147.6872699999999838
 10
100.5191599999999994
 20
-147.9157499999999743
 10
102.0377699999999948
 20
-147.0389899999999841
 42
-0.0188520557002923
 10
101.9074099999999845
 20
-146.8096099999999922
  0
LWPOLYLINE
  5
12F
100
AcDbEntity
  8
0
 62
256
370
-1
 48
1.0
  6
BYLAYER
100
AcDbPolyline
 90
5
 70
128
 10
106.8623199999999969
 20
-148.1385799999999904
 42
-0.0188520557002944
 10
106.6329399999999907
 20
-148.2689399999999864
 10
107.5105999999999966
 20
-149.7891300000000001
 10
107.7390800000000013
 20
-149.6571900000000142
 10
106.8623199999999969
 20
-148.1385799999999904
  0
LWPOLYLINE
  5
130
100
AcDbEntity
  8
0
 62
256
370
-1
 48
1.0
  6
BYLAYER
100
AcDbPolyline
 90
6
 70
128
 10
103.137360000000001
 20
-148.1386200000000031
 10
102.2605999999999966
 20
-149.6571900000000142
 10
102.4890800000000013
 20
-149.7891300000000001
 10
103.3667400000000072
 20
-148.2689399999999864
 42
-0.0188506426536739
 10
103.137360000000001
 20
-148.1386199999999747
 10
103.137360000000001
 20
-148.1386200000000031
  0
ENDBLK
  5
131
100
AcDbEntity
  8
0
100
AcDbBlockEnd
  0
BLOCK
  5
132
100
AcDbEntity
  8
0
100
AcDbBlockBegin
  2
RW_Logo_Trans
 70
0
 10
0.0
 20
0.0
 30
0.0
  3
RW_Logo_Trans
  1

  0
LWPOLYLINE
  5
133
100
AcDbEntity
  8
0
 62
256
370
-1
 48
1.0
  6
BYLAYER
100
AcDbPolyline
 90
20
 70
128
 10
56.6914060000000006
 20
0.0
 10
56.6914060000000006
 20
-15.8261719999999997
 10
37.7949219999999997
 20
-15.8261719999999997
 10
37.7949219999999997
 20
-47.4804689999999994
 10
56.6914060000000006
 20
-47.4804689999999994
 10
56.6914060000000006
 20
-141.2109399999999937
 10
37.7949219999999997
 20
-141.2109399999999937
 10
37.7949219999999997
 20
-172.8632800000000032
 10
56.6914060000000006
 20
-172.8632800000000032
 10
56.6914060000000006
 20
-188.6601599999999905
 10
56.6914060000000006
 20
-264.566410000000019
 10
144.8808599999999842
 20
-264.566410000000019
 10
144.8808599999999842
 20
-188.660160000000019
 10
165.4003899999999874
 20
-188.660160000000019
 10
193.027339999999981
 20
-264.566410000000019
 10
281.2167999999999779
 20
-264.566410000000019
 10
242.9043000000000063
 20
-159.3007800000000032
 42
0.1923579134144613
 10
268.9335900000000379
 20
-94.3300779999909622
 42
0.4142131276425501
 10
174.6035200025277163
 20
-0.0000000000000284
 10
56.6914060000000006
 20
0.0
  0
LWPOLYLINE
  5
134
100
AcDbEntity
  8
0
 62
256
370
-1
 48
1.0
  6
BYLAYER
100
AcDbPolyline
 90
6
 70
128
 10
144.8808599999999842
 20
-63.2910159999999991
 10
166.6933599999999842
 20
-63.2910159999999991
 42
-0.4142108826965076
 10
197.7304699999999684
 20
-94.330078000010829
 42
-0.4141924816972828
 10
166.6933599999999842
 20
-125.3671899999999795
 10
144.8808599999999842
 20
-125.3671899999999937
 10
144.8808599999999842
 20
-63.2910159999999991
  0
LWPOLYLINE
  5
135
100
AcDbEntity
  8
0
 62
256
370
-1
 48
1.0
  6
BYLAYER
100
AcDbPolyline
 90
5
 70
128
 10
476.0527299999999968
 20
0.0
 10
423.8535200000000032
 20
-143.4179699999999968
 10
467.9472700000000032
 20
-264.566410000000019
 10
520.1484400000000505
 20
-121.1484400000000221
 10
476.0527299999999968
 20
0.0
  0
LWPOLYLINE
  5
136
100
AcDbEntity
  8
0
 62
256
370
-1
 48
1.0
  6
BYLAYER
100
AcDbPolyline
 90
5
 70
128
 10
283.464839999999981
 20
0.0
 10
379.7597700000000032
 20
-264.566410000000019
 10
467.9472700000000032
 20
-264.566410000000019
 10
371.6542999999999779
 20
0.0
 10
283.464839999999981
 20
0.0
  0
LWPOLYLINE
  5
137
100
AcDbEntity
  8
0
 62
256
370
-1
 48
1.0
  6
BYLAYER
100
AcDbPolyline
 90
8
 70
128
 10
476.0527299999999968
 20
0.0
 10
572.347660000000019
 20
-264.566410000000019
 10
660.5371099999999842
 20
-264.566410000000019
 10
756.8320300000000316
 20
0.0
 10
668.6425799999999526
 20
0.0
 10
616.441410000000019
 20
-143.4179699999999968
 10
564.2421900000000505
 20
0.0
 10
476.0527299999999968
 20
0.0
  0
ENDBLK
  5
138
100
AcDbEntity
  8
0
100
AcDbBlockEnd
  0
ENDSEC
  0
SECTION
  2
ENTITIES
  0
LWPOLYLINE
  5
139
100
AcDbEntity
  8
VectorEngraving
 62
5
420
255
370
-1
 48
1.0
  6
BYLAYER
100
AcDbPolyline
 90
20
 70
128
 10
1.377601456499999
 20
9.8055049324999999
 10
1.377601456499999
 20
9.3861113745000004
 10
0.8768446304999991
 20
9.3861113745000004
 10
0.8768446304999991
 20
8.5472725039999986
 10
1.377601456499999
 20
8.5472725039999986
 10
1.377601456499999
 20
6.0634150225000001
 10
0.8768446304999991
 20
6.0634150225000001
 10
0.8768446304999991
 20
5.2246280125000002
 10
1.377601456499999
 20
5.2246280125000002
 10
1.377601456499999
 20
4.8060106925000001
 10
1.377601456499999
 20
2.7944950674999998
 10
3.7146219874999993
 20
2.7944950674999998
 10
3.7146219874999993
 20
4.8060106925000001
 10
4.258389532499999
 20
4.8060106925000001
 10
4.9905037074999985
 20
2.7944950674999998
 10
7.3275243974999986
 20
2.7944950674999998
 10
6.3122431474999985
 20
5.5840342625000003
 42
0.1923579134144613
 10
7.0020193324999997
 20
7.3057578655002393
 42
0.4142131276425501
 10
4.5022724775669838
 20
9.8055049324999999
 10
1.377601456499999
 20
9.8055049324999999
  0
LWPOLYLINE
  5
13A
100
AcDbEntity
  8
VectorEngraving
 62
5
420
255
370
-1
 48
1.0
  6
BYLAYER
100
AcDbPolyline
 90
6
 70
128
 10
3.7146219874999993
 20
8.1282930085000018
 10
4.2926532374999988
 20
8.1282930085000018
 42
-0.4142108826965076
 10
5.1151366524999986
 20
7.3057578654997135
 42
-0.4141924816972828
 10
4.2926532374999988
 20
6.4832743975000007
 10
3.7146219874999993
 20
6.4832743974999998
 10
3.7146219874999993
 20
8.1282930085000018
  0
LWPOLYLINE
  5
13B
100
AcDbEntity
  8
VectorEngraving
 62
5
420
255
370
-1
 48
1.0
  6
BYLAYER
100
AcDbPolyline
 90
5
 70
128
 10
7.3870974574999995
 20
9.8055049324999999
 10
9.938913102499999
 20
2.7944950674999998
 10
12.2758818524999977
 20
2.7944950674999998
 10
9.7241181474999987
 20
9.8055049324999999
 10
7.3870974574999995
 20
9.8055049324999999
  0
LWPOLYLINE
  5
13C
100
AcDbEntity
  8
VectorEngraving
 62
5
420
255
370
-1
 48
1.0
  6
BYLAYER
100
AcDbPolyline
 90
8
 70
128
 10
12.4906765424999975
 20
9.8055049324999999
 10
15.0424921874999971
 20
2.7944950674999998
 10
17.379512612500001
 20
2.7944950674999998
 10
19.9313279925000018
 20
9.8055049324999999
 10
17.5943075675000031
 20
9.8055049324999999
 10
16.2109765625000009
 20
6.0049287275000003
 10
14.8276972324999985
 20
9.8055049324999999
 10
12.4906765424999975
 20
9.8055049324999999
  0
LINE
  5
13D
100
AcDbEntity
  8
VectorEngraving
 62
5
420
255
370
-1
 48
1.0
  6
BYLAYER
100
AcDbLine
 10
11.1073974775000011
 20
6.0049287275000012
 30
0.0
 11
12.4906765424999993
 21
9.8055049324999999
 31
0.0
  0
LINE
  5
13E
100
AcDbEntity
  8
VectorEngraving
 62
5
420
255
370
-1
 48
1.0
  6
BYLAYER
100
AcDbLine
 10
13.6591996787320547
 20
6.5950350650328815
 30
0.0
 11
12.2758818546243056
 21
2.7944950653934648
 31
0.0
  0
LWPOLYLINE
  5
13F
100
AcDbEntity
  8
VectorEngraving
 62
3
420
65280
370
-1
 48
1.0
  6
BYLAYER
100
AcDbPolyline
 90
6
 70
128
 10
9.8552683783374775
 20
113.2278271675010188
 10
9.8552683783374775
 20
111.4717371675010185
 42
-0.0094312964636997
 10
9.987158378337476
 20
111.4777371675010471
 42
-0.0094282736998003
 10
10.1191083783374793
 20
111.4747371675010328
 10
10.1191083783374793
 20
113.2275271675010373
 10
9.8552683783374775
 20
113.2278271675010188
  0
LWPOLYLINE
  5
140
100
AcDbEntity
  8
VectorEngraving
 62
3
420
65280
370
-1
 48
1.0
  6
BYLAYER
100
AcDbPolyline
 90
6
 70
128
 10
9.8552683783374775
 20
96.2278271675010188
 10
9.8552683783374775
 20
94.4717371675010185
 42
-0.0094312964636997
 10
9.987158378337476
 20
94.4777371675010471
 42
-0.0094282736998003
 10
10.1191083783374793
 20
94.4747371675010328
 10
10.1191083783374793
 20
96.2275271675010373
 10
9.8552683783374775
 20
96.2278271675010188
  0
LWPOLYLINE
  5
141
100
AcDbEntity
  8
VectorEngraving
 62
3
420
65280
370
-1
 48
1.0
  6
BYLAYER
100
AcDbPolyline
 90
6
 70
128
 10
9.8552683783374775
 20
79.2278271675010188
 10
9.8552683783374775
 20
77.4717371675010185
 42
-0.0094312964636997
 10
9.987158378337476
 20
77.4777371675010471
 42
-0.0094282736998003
 10
10.1191083783374793
 20
77.4747371675010328
 10
10.1191083783374793
 20
79.2275271675010373
 10
9.8552683783374775
 20
79.2278271675010188
  0
LWPOLYLINE
  5
142
100
AcDbEntity
  8
VectorEngraving
 62
3
420
65280
370
-1
 48
1.0
  6
BYLAYER
100
AcDbPolyline
 90
5
 70
128
 10
7.4764483783374729
 20
112.5904471675010114
 10
7.2479683783374682
 20
112.4585071675010255
 10
8.1247283783374726
 20
110.9399371675010144
 42
-0.018850642653673
 10
8.3541083783374788
 20
111.0702571675010262
 10
7.4764483783374729
 20
112.5904471675010114
  0
LWPOLYLINE
  5
143
100
AcDbEntity
  8
VectorEngraving
 62
3
420
65280
370
-1
 48
1.0
  6
BYLAYER
100
AcDbPolyline
 90
5
 70
128
 10
7.4764483783374729
 20
95.5904471675010114
 10
7.2479683783374682
 20
95.4585071675010255
 10
8.1247283783374726
 20
93.9399371675010144
 42
-0.018850642653673
 10
8.3541083783374788
 20
94.0702571675010262
 10
7.4764483783374729
 20
95.5904471675010114
  0
LWPOLYLINE
  5
144
100
AcDbEntity
  8
VectorEngraving
 62
3
420
65280
370
-1
 48
1.0
  6
BYLAYER
100
AcDbPolyline
 90
5
 70
128
 10
7.4764483783374729
 20
78.5904471675010114
 10
7.2479683783374682
 20
78.4585071675010255
 10
8.1247283783374726
 20
76.9399371675010144
 42
-0.018850642653673
 10
8.3541083783374788
 20
77.0702571675010262
 10
7.4764483783374729
 20
78.5904471675010114
  0
LWPOLYLINE
  5
145
100
AcDbEntity
  8
VectorEngraving
 62
3
420
65280
370
-1
 48
1.0
  6
BYLAYER
100
AcDbPolyline
 90
5
 70
128
 10
12.4979683783374682
 20
112.5904471675010114
 10
11.6214783783374642
 20
111.0723371675010043
 42
-0.0188531870154901
 10
11.8500983783374707
 20
110.9406171675010029
 10
12.7264483783374729
 20
112.4585071675009971
 10
12.4979683783374682
 20
112.5904471675010114
  0
LWPOLYLINE
  5
146
100
AcDbEntity
  8
VectorEngraving
 62
3
420
65280
370
-1
 48
1.0
  6
BYLAYER
100
AcDbPolyline
 90
5
 70
128
 10
12.4979683783374682
 20
95.5904471675010114
 10
11.6214783783374642
 20
94.0723371675010043
 42
-0.0188531870154901
 10
11.8500983783374707
 20
93.9406171675010029
 10
12.7264483783374729
 20
95.4585071675009971
 10
12.4979683783374682
 20
95.5904471675010114
  0
LWPOLYLINE
  5
147
100
AcDbEntity
  8
VectorEngraving
 62
3
420
65280
370
-1
 48
1.0
  6
BYLAYER
100
AcDbPolyline
 90
5
 70
128
 10
12.4979683783374682
 20
78.5904471675010114
 10
11.6214783783374642
 20
77.0723371675010043
 42
-0.0188531870154901
 10
11.8500983783374707
 20
76.9406171675010029
 10
12.7264483783374729
 20
78.4585071675009971
 10
12.4979683783374682
 20
78.5904471675010114
  0
LWPOLYLINE
  5
148
100
AcDbEntity
  8
VectorEngraving
 62
3
420
65280
370
-1
 48
1.0
  6
BYLAYER
100
AcDbPolyline
 90
5
 70
128
 10
5.506528378337471
 20
110.7170671675010141
 10
5.3746283783374693
 20
110.4885871675010236
 10
6.8947783783374703
 20
109.6109271675010319
 42
-0.0188520557002934
 10
7.0251383783374663
 20
109.8403071675010239
 10
5.506528378337471
 20
110.7170671675010141
  0
LWPOLYLINE
  5
149
100
AcDbEntity
  8
VectorEngraving
 62
3
420
65280
370
-1
 48
1.0
  6
BYLAYER
100
AcDbPolyline
 90
5
 70
128
 10
5.506528378337471
 20
93.7170671675010141
 10
5.3746283783374693
 20
93.4885871675010236
 10
6.8947783783374703
 20
92.6109271675010319
 42
-0.0188520557002934
 10
7.0251383783374663
 20
92.8403071675010239
 10
5.506528378337471
 20
93.7170671675010141
  0
LWPOLYLINE
  5
14A
100
AcDbEntity
  8
VectorEngraving
 62
3
420
65280
370
-1
 48
1.0
  6
BYLAYER
100
AcDbPolyline
 90
5
 70
128
 10
5.506528378337471
 20
76.7170671675010141
 10
5.3746283783374693
 20
76.4885871675010236
 10
6.8947783783374703
 20
75.6109271675010319
 42
-0.0188520557002934
 10
7.0251383783374663
 20
75.8403071675010239
 10
5.506528378337471
 20
76.7170671675010141
  0
LWPOLYLINE
  5
14B
100
AcDbEntity
  8
VectorEngraving
 62
3
420
65280
370
-1
 48
1.0
  6
BYLAYER
100
AcDbPolyline
 90
5
 70
128
 10
14.4678883783374701
 20
110.7170671675010141
 10
12.9499483783374743
 20
109.8407171675010119
 42
-0.0188549721058722
 10
13.0817183783375199
 20
109.6120971675010054
 10
14.5997783783374828
 20
110.4885871675009952
 10
14.4678883783374701
 20
110.7170671675010141
  0
LWPOLYLINE
  5
14C
100
AcDbEntity
  8
VectorEngraving
 62
3
420
65280
370
-1
 48
1.0
  6
BYLAYER
100
AcDbPolyline
 90
5
 70
128
 10
14.4678883783374701
 20
93.7170671675010141
 10
12.9499483783374743
 20
92.8407171675010119
 42
-0.0188549721058722
 10
13.0817183783375199
 20
92.6120971675010054
 10
14.5997783783374828
 20
93.4885871675009952
 10
14.4678883783374701
 20
93.7170671675010141
  0
LWPOLYLINE
  5
14D
100
AcDbEntity
  8
VectorEngraving
 62
3
420
65280
370
-1
 48
1.0
  6
BYLAYER
100
AcDbPolyline
 90
5
 70
128
 10
14.4678883783374701
 20
76.7170671675010141
 10
12.9499483783374743
 20
75.8407171675010119
 42
-0.0188549721058722
 10
13.0817183783375199
 20
75.6120971675010054
 10
14.5997783783374828
 20
76.4885871675009952
 10
14.4678883783374701
 20
76.7170671675010141
  0
LWPOLYLINE
  5
14E
100
AcDbEntity
  8
VectorEngraving
 62
3
420
65280
370
-1
 48
1.0
  6
BYLAYER
100
AcDbPolyline
 90
6
 70
128
 10
4.7371653783374725
 20
108.1097271675010205
 10
4.7371653783374725
 20
107.8458871675010329
 10
6.493298378337478
 20
107.8458871675010329
 42
-0.0094348651562602
 10
6.4872983783374494
 20
107.9778271675010188
 42
-0.00943201020193
 10
6.4932983783374638
 20
108.1097271675010205
 10
4.7371653783374725
 20
108.1097271675010205
  0
LWPOLYLINE
  5
14F
100
AcDbEntity
  8
VectorEngraving
 62
3
420
65280
370
-1
 48
1.0
  6
BYLAYER
100
AcDbPolyline
 90
6
 70
128
 10
4.7371653783374725
 20
91.1097271675010205
 10
4.7371653783374725
 20
90.8458871675010329
 10
6.493298378337478
 20
90.8458871675010329
 42
-0.0094348651562602
 10
6.4872983783374494
 20
90.9778271675010188
 42
-0.00943201020193
 10
6.4932983783374638
 20
91.1097271675010205
 10
4.7371653783374725
 20
91.1097271675010205
  0
LWPOLYLINE
  5
150
100
AcDbEntity
  8
VectorEngraving
 62
3
420
65280
370
-1
 48
1.0
  6
BYLAYER
100
AcDbPolyline
 90
6
 70
128
 10
4.7371653783374725
 20
74.1097271675010205
 10
4.7371653783374725
 20
73.8458871675010329
 10
6.493298378337478
 20
73.8458871675010329
 42
-0.0094348651562602
 10
6.4872983783374494
 20
73.9778271675010188
 42
-0.00943201020193
 10
6.4932983783374638
 20
74.1097271675010205
 10
4.7371653783374725
 20
74.1097271675010205
  0
LWPOLYLINE
  5
151
100
AcDbEntity
  8
VectorEngraving
 62
3
420
65280
370
-1
 48
1.0
  6
BYLAYER
100
AcDbPolyline
 90
6
 70
128
 10
13.4844183783374589
 20
108.1097271675010205
 42
-0.009424702242363
 10
13.487418378337459
 20
107.9778271675011041
 42
-0.0094348651562611
 10
13.4814183783374872
 20
107.8458871675010329
 10
15.2375083783374734
 20
107.8458871675010329
 10
15.2375083783374734
 20
108.1097271675010205
 10
13.4844183783374731
 20
108.1097271675010205
  0
LWPOLYLINE
  5
152
100
AcDbEntity
  8
VectorEngraving
 62
3
420
65280
370
-1
 48
1.0
  6
BYLAYER
100
AcDbPolyline
 90
6
 70
128
 10
13.4844183783374589
 20
91.1097271675010205
 42
-0.009424702242363
 10
13.487418378337459
 20
90.9778271675011041
 42
-0.0094348651562611
 10
13.4814183783374872
 20
90.8458871675010329
 10
15.2375083783374734
 20
90.8458871675010329
 10
15.2375083783374734
 20
91.1097271675010205
 10
13.4844183783374731
 20
91.1097271675010205
  0
LWPOLYLINE
  5
153
100
AcDbEntity
  8
VectorEngraving
 62
3
420
65280
370
-1
 48
1.0
  6
BYLAYER
100
AcDbPolyline
 90
6
 70
128
 10
13.4844183783374589
 20
74.1097271675010205
 42
-0.009424702242363
 10
13.487418378337459
 20
73.9778271675011041
 42
-0.0094348651562611
 10
13.4814183783374872
 20
73.8458871675010329
 10
15.2375083783374734
 20
73.8458871675010329
 10
15.2375083783374734
 20
74.1097271675010205
 10
13.4844183783374731
 20
74.1097271675010205
  0
LWPOLYLINE
  5
154
100
AcDbEntity
  8
VectorEngraving
 62
3
420
65280
370
-1
 48
1.0
  6
BYLAYER
100
AcDbPolyline
 90
5
 70
128
 10
13.0795883783374691
 20
106.3447771675010216
 42
-0.0188551641205852
 10
12.9492283783374731
 20
106.1153471675010138
 10
14.4678883783374701
 20
105.2385871675010236
 10
14.5997783783374686
 20
105.4670671675010141
 10
13.0795883783374691
 20
106.3447771675010216
  0
LWPOLYLINE
  5
155
100
AcDbEntity
  8
VectorEngraving
 62
3
420
65280
370
-1
 48
1.0
  6
BYLAYER
100
AcDbPolyline
 90
5
 70
128
 10
13.0795883783374691
 20
89.3447771675010216
 42
-0.0188551641205852
 10
12.9492283783374731
 20
89.1153471675010138
 10
14.4678883783374701
 20
88.2385871675010236
 10
14.5997783783374686
 20
88.4670671675010141
 10
13.0795883783374691
 20
89.3447771675010216
  0
LWPOLYLINE
  5
156
100
AcDbEntity
  8
VectorEngraving
 62
3
420
65280
370
-1
 48
1.0
  6
BYLAYER
100
AcDbPolyline
 90
5
 70
128
 10
13.0795883783374691
 20
72.3447771675010216
 42
-0.0188551641205852
 10
12.9492283783374731
 20
72.1153471675010138
 10
14.4678883783374701
 20
71.2385871675010236
 10
14.5997783783374686
 20
71.4670671675010141
 10
13.0795883783374691
 20
72.3447771675010216
  0
LWPOLYLINE
  5
157
100
AcDbEntity
  8
VectorEngraving
 62
3
420
65280
370
-1
 48
1.0
  6
BYLAYER
100
AcDbPolyline
 90
5
 70
128
 10
6.8947783783374703
 20
106.3447271675010342
 10
5.3746283783374693
 20
105.4670671675010425
 10
5.506528378337471
 20
105.238587167501052
 10
7.0251383783374663
 20
106.1153471675010422
 42
-0.0188520557002923
 10
6.8947783783374561
 20
106.3447271675010342
  0
LWPOLYLINE
  5
158
100
AcDbEntity
  8
VectorEngraving
 62
3
420
65280
370
-1
 48
1.0
  6
BYLAYER
100
AcDbPolyline
 90
5
 70
128
 10
6.8947783783374703
 20
89.3447271675010342
 10
5.3746283783374693
 20
88.4670671675010425
 10
5.506528378337471
 20
88.238587167501052
 10
7.0251383783374663
 20
89.1153471675010422
 42
-0.0188520557002923
 10
6.8947783783374561
 20
89.3447271675010342
  0
LWPOLYLINE
  5
159
100
AcDbEntity
  8
VectorEngraving
 62
3
420
65280
370
-1
 48
1.0
  6
BYLAYER
100
AcDbPolyline
 90
5
 70
128
 10
6.8947783783374703
 20
72.3447271675010342
 10
5.3746283783374693
 20
71.4670671675010425
 10
5.506528378337471
 20
71.238587167501052
 10
7.0251383783374663
 20
72.1153471675010422
 42
-0.0188520557002923
 10
6.8947783783374561
 20
72.3447271675010342
  0
LWPOLYLINE
  5
15A
100
AcDbEntity
  8
VectorEngraving
 62
3
420
65280
370
-1
 48
1.0
  6
BYLAYER
100
AcDbPolyline
 90
5
 70
128
 10
11.8496883783374685
 20
105.015757167501036
 42
-0.0188520557002944
 10
11.6203083783374623
 20
104.8853971675010399
 10
12.4979683783374682
 20
103.3652071675010262
 10
12.7264483783374729
 20
103.4971471675010122
 10
11.8496883783374685
 20
105.015757167501036
  0
LWPOLYLINE
  5
15B
100
AcDbEntity
  8
VectorEngraving
 62
3
420
65280
370
-1
 48
1.0
  6
BYLAYER
100
AcDbPolyline
 90
5
 70
128
 10
11.8496883783374685
 20
88.015757167501036
 42
-0.0188520557002944
 10
11.6203083783374623
 20
87.8853971675010399
 10
12.4979683783374682
 20
86.3652071675010262
 10
12.7264483783374729
 20
86.4971471675010122
 10
11.8496883783374685
 20
88.015757167501036
  0
LWPOLYLINE
  5
15C
100
AcDbEntity
  8
VectorEngraving
 62
3
420
65280
370
-1
 48
1.0
  6
BYLAYER
100
AcDbPolyline
 90
5
 70
128
 10
11.8496883783374685
 20
71.015757167501036
 42
-0.0188520557002944
 10
11.6203083783374623
 20
70.8853971675010399
 10
12.4979683783374682
 20
69.3652071675010262
 10
12.7264483783374729
 20
69.4971471675010122
 10
11.8496883783374685
 20
71.015757167501036
  0
LWPOLYLINE
  5
15D
100
AcDbEntity
  8
VectorEngraving
 62
3
420
65280
370
-1
 48
1.0
  6
BYLAYER
100
AcDbPolyline
 90
6
 70
128
 10
8.1247283783374726
 20
105.0157171675010233
 10
7.2479683783374682
 20
103.4971471675010122
 10
7.4764483783374729
 20
103.3652071675010262
 10
8.3541083783374788
 20
104.8853971675010399
 42
-0.0188506426536739
 10
8.1247283783374726
 20
105.0157171675010517
 10
8.1247283783374726
 20
105.0157171675010233
  0
LWPOLYLINE
  5
15E
100
AcDbEntity
  8
VectorEngraving
 62
3
420
65280
370
-1
 48
1.0
  6
BYLAYER
100
AcDbPolyline
 90
6
 70
128
 10
8.1247283783374726
 20
88.0157171675010233
 10
7.2479683783374682
 20
86.4971471675010122
 10
7.4764483783374729
 20
86.3652071675010262
 10
8.3541083783374788
 20
87.8853971675010399
 42
-0.0188506426536739
 10
8.1247283783374726
 20
88.0157171675010517
 10
8.1247283783374726
 20
88.0157171675010233
  0
LWPOLYLINE
  5
15F
100
AcDbEntity
  8
VectorEngraving
 62
3
420
65280
370
-1
 48
1.0
  6
BYLAYER
100
AcDbPolyline
 90
6
 70
128
 10
8.1247283783374726
 20
71.0157171675010233
 10
7.2479683783374682
 20
69.4971471675010122
 10
7.4764483783374729
 20
69.3652071675010262
 10
8.3541083783374788
 20
70.8853971675010399
 42
-0.0188506426536739
 10
8.1247283783374726
 20
71.0157171675010517
 10
8.1247283783374726
 20
71.0157171675010233
  0
LINE
  5
160
100
AcDbEntity
  8
Cuts
 62
1
420
16711680
370
-1
 48
1.0
  6
BYLAYER
100
AcDbLine
 10
0.0
 20
0.0
 30
0.0
 11
29.9999999999999964
 21
0.0
 31
0.0
  0
LINE
  5
161
100
AcDbEntity
  8
Cuts
 62
1
420
16711680
370
-1
 48
1.0
  6
BYLAYER
100
AcDbLine
 10
29.9999999999999964
 20
0.0
 30
0.0
 11
29.9999999999999964
 21
128.5
 31
0.0
  0
LINE
  5
162
100
AcDbEntity
  8
Cuts
 62
1
420
16711680
370
-1
 48
1.0
  6
BYLAYER
100
AcDbLine
 10
29.9999999999999964
 20
128.5
 30
0.0
 11
0.0
 21
128.5
 31
0.0
  0
LINE
  5
163
100
AcDbEntity
  8
Cuts
 62
1
420
16711680
370
-1
 48
1.0
  6
BYLAYER
100
AcDbLine
 10
0.0
 20
128.5
 30
0.0
 11
0.0
 21
0.0
 31
0.0
  0
DIMENSION
  5
164
100
AcDbEntity
  8
UserDrawings
 62
256
370
-1
 48
1.0
  6
BYLAYER
100
AcDbDimension
 10
-10.0
 20
0.0
 30
0.0
 11
-11.875
 21
64.25
 31
0.0
 70
0
 71
8
 72
2
 74
0
 75
0
 41
1.0
 42
0.0
  1

  3
Standard
100
AcDbAlignedDimension
 13
-0.0
 23
-0.0
 33
0.0
 14
0.0
 24
128.5
 34
0.0
 50
90.0
100
AcDbRotatedDimension
1001
ACAD
1000
DSTYLE
1002
{
1070
144
1040
1.0
1070
40
1040
1.0
1002
}
  0
DIMENSION
  5
165
100
AcDbEntity
  8
UserDrawings
 62
256
370
-1
 48
1.0
  6
BYLAYER
100
AcDbDimension
 10
0.0
 20
136.7913298366080426
 30
0.0
 11
14.9999999999999982
 21
138.6663298366080426
 31
0.0
 70
0
 71
8
 72
2
 74
0
 75
0
 41
1.0
 42
0.0
  1

  3
Standard
100
AcDbAlignedDimension
 13
0.0
 23
128.5
 33
0.0
 14
29.9999999999999964
 24
128.5
 34
0.0
 50
0.0
100
AcDbRotatedDimension
1001
ACAD
1000
DSTYLE
1002
{
1070
144
1040
1.0
1070
40
1040
1.0
1002
}
  0
LINE
  5
166
100
AcDbEntity
  8
Cuts
 62
1
420
16711680
370
-1
 48
1.0
  6
BYLAYER
100
AcDbLine
 10
21.5000000000000071
 20
127.1000000000000227
 30
0.0
 11
23.5000000000000071
 21
127.1000000000000227
 31
0.0
  0
LINE
  5
167
100
AcDbEntity
  8
Cuts
 62
1
420
16711680
370
-1
 48
1.0
  6
BYLAYER
100
AcDbLine
 10
21.5000000000000071
 20
4.6000000000000227
 30
0.0
 11
23.5000000000000071
 21
4.6000000000000227
 31
0.0
  0
LINE
  5
168
100
AcDbEntity
  8
Cuts
 62
1
420
16711680
370
-1
 48
1.0
  6
BYLAYER
100
AcDbLine
 10
21.5000000000000071
 20
123.9000000000000199
 30
0.0
 11
23.5000000000000071
 21
123.9000000000000199
 31
0.0
  0
LINE
  5
169
100
AcDbEntity
  8
Cuts
 62
1
420
16711680
370
-1
 48
1.0
  6
BYLAYER
100
AcDbLine
 10
21.5000000000000071
 20
1.4000000000000199
 30
0.0
 11
23.5000000000000071
 21
1.4000000000000199
 31
0.0
  0
ARC
  5
16A
100
AcDbEntity
  8
Cuts
 62
1
420
16711680
370
-1
 48
1.0
  6
BYLAYER
100
AcDbCircle
 10
23.5000000000000071
 20
125.5000000000000284
 30
0.0
 40
1.6000000000000085
100
AcDbArc
 50
270.0
 51
90.0
  0
ARC
  5
16B
100
AcDbEntity
  8
Cuts
 62
1
420
16711680
370
-1
 48
1.0
  6
BYLAYER
100
AcDbCircle
 10
23.5000000000000071
 20
3.0000000000000284
 30
0.0
 40
1.6000000000000085
100
AcDbArc
 50
270.0
 51
90.0
  0
ARC
  5
16C
100
AcDbEntity
  8
Cuts
 62
1
420
16711680
370
-1
 48
1.0
  6
BYLAYER
100
AcDbCircle
 10
21.5000000000000071
 20
125.5000000000000284
 30
0.0
 40
1.6000000000000085
100
AcDbArc
 50
90.0
 51
270.0
  0
ARC
  5
16D
100
AcDbEntity
  8
Cuts
 62
1
420
16711680
370
-1
 48
1.0
  6
BYLAYER
100
AcDbCircle
 10
21.5000000000000071
 20
3.0000000000000284
 30
0.0
 40
1.6000000000000085
100
AcDbArc
 50
90.0
 51
270.0
  0
CIRCLE
  5
16E
100
AcDbEntity
  8
Cuts
 62
1
420
16711680
370
-1
 48
1.0
  6
BYLAYER
100
AcDbCircle
 10
24.0
 20
24.0
 30
0.0
 40
3.2000000000000002
  0
CIRCLE
  5
16F
100
AcDbEntity
  8
Cuts
 62
1
420
16711680
370
-1
 48
1.0
  6
BYLAYER
100
AcDbCircle
 10
24.0
 20
41.0
 30
0.0
 40
3.2000000000000002
  0
CIRCLE
  5
170
100
AcDbEntity
  8
Cuts
 62
1
420
16711680
370
-1
 48
1.0
  6
BYLAYER
100
AcDbCircle
 10
24.0
 20
74.0
 30
0.0
 40
3.2000000000000002
  0
CIRCLE
  5
171
100
AcDbEntity
  8
Cuts
 62
1
420
16711680
370
-1
 48
1.0
  6
BYLAYER
100
AcDbCircle
 10
24.0
 20
91.0
 30
0.0
 40
3.2000000000000002
  0
CIRCLE
  5
172
100
AcDbEntity
  8
Cuts
 62
1
420
16711680
370
-1
 48
1.0
  6
BYLAYER
100
AcDbCircle
 10
24.0
 20
108.0
 30
0.0
 40
3.2000000000000002
  0
CIRCLE
  5
173
100
AcDbEntity
  8
Cuts
 62
1
420
16711680
370
-1
 48
1.0
  6
BYLAYER
100
AcDbCircle
 10
10.0
 20
74.0
 30
0.0
 40
3.2000000000000002
  0
CIRCLE
  5
174
100
AcDbEntity
  8
Cuts
 62
1
420
16711680
370
-1
 48
1.0
  6
BYLAYER
100
AcDbCircle
 10
10.0
 20
91.0
 30
0.0
 40
3.2000000000000002
  0
CIRCLE
  5
175
100
AcDbEntity
  8
Cuts
 62
1
420
16711680
370
-1
 48
1.0
  6
BYLAYER
100
AcDbCircle
 10
10.0
 20
108.0
 30
0.0
 40
3.2000000000000002
  0
LWPOLYLINE
  5
176
100
AcDbEntity
  8
VectorEngraving
 62
5
420
255
370
-1
 48
1.0
  6
BYLAYER
100
AcDbPolyline
 90
268
 70
129
 10
2.0
 20
123.0
 10
2.0
 20
126.9745175192055484
 10
3.2568858909499721
 20
126.9745175192055484
 10
3.2625596445107559
 20
126.9745126530899455
 10
3.2682215272654354
 20
126.9744980547431368
 10
3.273871539214007
 20
126.974473724165108
 10
3.2795096803564743
 20
126.9744396613558592
 10
3.2851359506928342
 20
126.9743958663154189
 10
3.2907503502230893
 20
126.9743423390437727
 10
3.2963528789472378
 20
126.9742790795409064
 10
3.3019435368652803
 20
126.9742060878068344
 10
3.3075223239772167
 20
126.9741233638415423
 10
3.3130892402830479
 20
126.9740309076450444
 10
3.3186442857827729
 20
126.9739287192173407
 10
3.324187460476391
 20
126.973816798558417
 10
3.3297187643639043
 20
126.9736951456683016
 10
3.3352381974453111
 20
126.9735637605469378
 10
3.3407457597206118
 20
126.9734226431944109
 10
3.3462414511898073
 20
126.9732717936106496
 10
3.3517252718528958
 20
126.9731112117956826
 10
3.3571972217098796
 20
126.9729408977494955
 10
3.3626573007607563
 20
126.9727608514721169
 10
3.3681055090055274
 20
126.9725710729634898
 10
3.3735418464441933
 20
126.9723715622236995
 10
3.3789663130767518
 20
126.9721623192526749
 10
3.384378908903205
 20
126.9719433440504588
 10
3.3897796339235517
 20
126.9717146366170084
 10
3.3951684881377941
 20
126.9714761969523664
 10
3.4005454715459291
 20
126.9712280250565186
 10
3.4059105841479589
 20
126.9709701209294366
 10
3.4112638259438821
 20
126.9707024845711771
 10
3.4166051969337001
 20
126.9704251159816693
 10
3.4219346971174116
 20
126.9701380151609698
 10
3.4272523264950165
 20
126.9698411821090502
 10
3.4325580850665167
 20
126.9695346168259249
 10
3.4378519728319104
 20
126.969218319311608
 10
3.4431339897911988
 20
126.968892289566071
 10
3.4484041359443793
 20
126.9685565275892998
 10
3.453662411291456
 20
126.9682110333813512
 10
3.4589088158324257
 20
126.9678558069421683
 10
3.4641433495672889
 20
126.9674908482718081
 10
3.4693660124960473
 20
126.9671161573701994
 10
3.4745768046186996
 20
126.9667317342373849
 10
3.4797757259352453
 20
126.9663375788733788
 10
3.4849627764456863
 20
126.9659336912781669
 10
3.4901379561500194
 20
126.9655200714517207
 10
3.4953012650482478
 20
126.9650967193940829
 10
3.50045270314037
 20
126.9646636351052393
 10
3.5055922704263862
 20
126.9642208185851757
 10
3.5107199669062963
 20
126.9637682698339063
 10
3.5158357925801011
 20
126.9633059888514168
 10
3.5209397474477995
 20
126.9628339756377216
 10
3.5260318315093917
 20
126.9623522301928062
 10
3.5311120447648783
 20
126.9618607525166851
 10
3.5361803872142588
 20
126.9613595426093866
 10
3.5412368588575331
 20
126.9608486004708539
 10
3.5462814596947014
 20
126.9603279261011011
 10
3.5513141897257645
 20
126.9597975195001425
 10
3.5563350489507215
 20
126.9592573806679923
 10
3.5613440373695719
 20
126.9587075096046078
 10
3.5663411549823163
 20
126.9581479063100176
 10
3.5713264017889559
 20
126.9575785707842215
 10
3.576299777789488
 20
126.9569995030272196
 10
3.581261282983915
 20
126.9564107030390119
 10
3.5862109173722363
 20
126.9558121708195699
 10
3.5911486809544511
 20
126.9552039063689506
 10
3.5960745737305606
 20
126.9545859096870828
 10
3.6009885957005632
 20
126.9539581807740376
 10
3.6058907468644605
 20
126.9533207196297724
 10
3.6107810272222514
 20
126.9526735262542871
 10
3.6156594367739361
 20
126.9520166006475961
 10
3.6205259755195156
 20
126.9513499428097134
 10
3.625380643458989
 20
126.9506735527405965
 10
3.6302234405923559
 20
126.9499874304402738
 10
3.6350543669196171
 20
126.9492915759087452
 10
3.6398734224407727
 20
126.9485859891460251
 10
3.6446806071558226
 20
126.9478706701520707
 10
3.6494759210647656
 20
126.9471456189269105
 10
3.6542593641676033
 20
126.9464108354705303
 10
3.6590309364643341
 20
126.9456663197829585
 10
3.6637906379549605
 20
126.9449120718641666
 10
3.66853846863948
 20
126.9441480917141547
 10
3.6732744285178933
 20
126.9433743793329654
 10
3.6779985175902015
 20
126.9425909347205419
 10
3.6827107358564031
 20
126.9417977578769126
 10
3.6874110833164986
 20
126.9409948488020632
 10
3.6920995599704889
 20
126.9401822074960364
 10
3.6967761658183731
 20
126.9393598339587612
 10
3.7014409008601508
 20
126.9385277281902802
 10
3.7060937650958223
 20
126.9376858901906076
 10
3.7107347585253887
 20
126.9368343199597291
 10
3.7153638811488481
 20
126.9359730174976164
 10
3.7199811329662031
 20
126.9351019828043121
 10
3.7245865139774503
 20
126.9342212158797736
 10
3.7291800241825928
 20
126.9333307167240577
 10
3.7337616635816286
 20
126.9324304853371075
 10
3.7383314321745593
 20
126.9315205217189515
 10
3.7428893299613835
 20
126.9306008258695897
 10
3.7474353569421019
 20
126.9296713977890221
 10
3.7519695131167143
 20
126.9287322374772344
 10
3.7564917984852206
 20
126.927783344934241
 10
3.7610022130476213
 20
126.9268247201600275
 10
3.7655007568039158
 20
126.9258563631546366
 10
3.7699874297541047
 20
126.9248782739179973
 10
3.7744622318981866
 20
126.9238904524501805
 10
3.7789251632361638
 20
126.9228928987511296
 10
3.783376223768034
 20
126.921885612820887
 10
3.7878154134937989
 20
126.9208685946594244
 10
3.7922427324134578
 20
126.9198418442667275
 10
3.7966581805270101
 20
126.9188053616428533
 10
3.8010617578344572
 20
126.9177591467877591
 10
3.8054534643357978
 20
126.916703199701459
 10
3.8098333000310332
 20
126.9156375203839389
 10
3.814201264920162
 20
126.9145621088352129
 10
3.8185573590031852
 20
126.9134769650552812
 10
3.8229015822801022
 20
126.9123820890441152
 10
3.8272339347509128
 20
126.9112774808017718
 10
3.8315544164156181
 20
126.9101631403282227
 10
3.8358630272742174
 20
126.9090390676234108
 10
3.8401597673267105
 20
126.90790526268745
 10
3.8444446365730975
 20
126.9067617255202407
 10
3.8487176350133794
 20
126.905608456121854
 10
3.8529787626475547
 20
126.9044454544922473
 10
3.8572280194756239
 20
126.9032727206314064
 10
3.8614654054975874
 20
126.9020902545393596
 10
3.8656909207134449
 20
126.9008980562161213
 10
3.8699045651231962
 20
126.8996961256616487
 10
3.8741063387268415
 20
126.8984844628759845
 10
3.8782962415243816
 20
126.8972630678591145
 10
3.8824742735158151
 20
126.8960319406110102
 10
3.8866404347011425
 20
126.8947910811317286
 10
3.8907947250803643
 20
126.8935404894212127
 10
3.8949371446534804
 20
126.892280165479491
 10
3.89906769342049
 20
126.8910101093065634
 10
3.9031863713813935
 20
126.8897303209024159
 10
3.9072931785361922
 20
126.8884408002670909
 10
3.9113881148848835
 20
126.8871415474005175
 10
3.9154711804274696
 20
126.8858325623027525
 10
3.91954237516395
 20
126.8845138449737817
 10
3.9236016990943234
 20
126.8831853954135767
 10
3.9276491522185912
 20
126.8818472136221658
 10
3.9316847345367538
 20
126.8804992995995633
 10
3.9357084460488094
 20
126.879141653345755
 10
3.9397202867547603
 20
126.8777742748607125
 10
3.9437202566546041
 20
126.8763971641444783
 10
3.9477083557483428
 20
126.8750103211970384
 10
3.9516845840359753
 20
126.8736137460183642
 10
3.9556489415175018
 20
126.8722074386085126
 10
3.9596014281929222
 20
126.8707913989674125
 10
3.9635420440622369
 20
126.8693656270951351
 10
3.9674707891254446
 20
126.8679301229916234
 10
3.971387663382548
 20
126.8664848866569059
 10
3.9752926668335435
 20
126.8650299180909826
 10
3.9791857994784343
 20
126.8635652172938535
 10
3.983067061317219
 20
126.8620907842655043
 10
3.986936452349898
 20
126.8606066190059778
 10
3.9907939725764705
 20
126.8591127215151886
 10
3.9946396219969378
 20
126.857609091793222
 10
3.9984734006112985
 20
126.8560957298400353
 10
4.0022953084195532
 20
126.8545726356556429
 10
4.0061053454217017
 20
126.8530398092400446
 10
4.0099035116177451
 20
126.8514972505932121
 10
4.0136898070076823
 20
126.8499449597152022
 10
4.0174642315915126
 20
126.8483829366059581
 10
4.0212267853692385
 20
126.8468111812655366
 10
4.0249774683408575
 20
126.8452296936938666
 10
4.0287162805063703
 20
126.8436384738909908
 10
4.032443221865778
 20
126.8420375218569234
 10
4.0361582924190786
 20
126.8404268375916502
 10
4.0398614921662741
 20
126.8388064210951427
 10
4.0435528211073635
 20
126.8371762723674294
 10
4.0472322792423476
 20
126.8355363914085103
 10
4.0508998665712239
 20
126.8338867782183996
 10
4.0545555830939968
 20
126.8322274327970547
 10
4.0581994288106618
 20
126.8305583551445181
 10
4.0618314037212206
 20
126.8288795452607616
 10
4.0654515078256743
 20
126.8271910031457992
 10
4.0690597411240219
 20
126.8254927287996168
 10
4.0726561036162634
 20
126.8237847222222285
 10
4.0762405953023997
 20
126.8220669834136203
 10
4.079813216182429
 20
126.8203395123738062
 10
4.0833739662563531
 20
126.8186023091028005
 10
4.0869228455241711
 20
126.8168553736005748
 10
4.090459853985883
 20
126.8150987058671291
 10
4.0939849916414879
 20
126.8133323059024917
 10
4.0974982584909885
 20
126.8115561737066344
 10
4.1009996545343821
 20
126.809770309279557
 10
4.1044891797716705
 20
126.8079747126212879
 10
4.1079668342028519
 20
126.8061693837317989
 10
4.1114326178279281
 20
126.8043543226110899
 10
4.1148865306468982
 20
126.802529529259175
 10
4.1183285726597632
 20
126.8006950036760685
 10
4.121758743866522
 20
126.798850745861742
 10
4.1251770442671738
 20
126.7969967558161954
 10
4.1285834738617204
 20
126.7951330335394431
 10
4.1319780326501601
 20
126.7932595790314849
 10
4.1353607206324945
 20
126.7913763922923209
 10
4.1387315378087228
 20
126.7894834733219227
 10
4.142090484178846
 20
126.7875808221203471
 10
4.1454375597428621
 20
126.7856684386875372
 10
4.1487727645007739
 20
126.7837463230235358
 10
4.1520960984525779
 20
126.7818144751283143
 10
4.1554075615982766
 20
126.7798728950018869
 10
4.1587071539378684
 20
126.7779215826442396
 10
4.1619948754713549
 20
126.7759605380553865
 10
4.1652707261987363
 20
126.7739897612353275
 10
4.1685347061200115
 20
126.7720092521840485
 10
4.1717868152351807
 20
126.7700190109015637
 10
4.1750270535442437
 20
126.768019037387873
 10
4.1782554210471998
 20
126.7660093316429766
 10
4.1814719177440507
 20
126.7639898936668601
 10
4.1846765436347964
 20
126.7619607234595236
 10
4.187869298719435
 20
126.7599218210210097
 10
4.1910501829979685
 20
126.7578731863512473
 10
4.194219196470395
 20
126.7558148194503076
 10
4.1973763391367163
 20
126.753746720318162
 10
4.2005216109969323
 20
126.7516688889547822
 10
4.2036550120510414
 20
126.7495813253601682
 10
4.2067765422990453
 20
126.747484029534391
 10
4.2098862017409413
 20
126.7453770014773795
 10
4.212983990376733
 20
126.7432602411891622
 10
4.2160699082064186
 20
126.7411337486697533
 10
4.2191439552299981
 20
126.7389975239191102
 10
4.2222061314474715
 20
126.7368515669372613
 10
4.2252564368588388
 20
126.7346958777242065
 10
4.2282948714641018
 20
126.732530456279946
 10
4.231321435263256
 20
126.7303553026044796
 10
4.2343361282563059
 20
126.7281704166977789
 10
4.2373389504432506
 20
126.7259757985598725
 10
4.2403299018240883
 20
126.7237714481907602
 10
4.2433089823988199
 20
126.7215573655904564
 10
4.2462761921674463
 20
126.7193335507589325
 10
4.2492315311299658
 20
126.7171000036961885
 10
4.2521749992863791
 20
126.7148567244022388
 10
4.2551065966366881
 20
126.712603712877069
 10
4.2580263231808892
 20
126.7103409691207361
 10
4.2609341789189852
 20
126.7080684931331405
 10
4.2638301638509759
 20
126.7057862849143532
 10
4.2667142779768596
 20
126.7034943444643602
 10
4.2695865212966382
 20
126.7011926717831471
 10
4.2724468938103097
 20
126.6988812668707283
 10
4.2752953955178761
 20
126.6965601297271036
 10
4.2781320264193363
 20
126.6942292603522588
 10
4.2809567865146914
 20
126.6918886587462225
 10
4.2837696758039394
 20
126.6895383249089662
 10
4.2865706942870823
 20
126.6871782588404756
 10
4.2893598419641181
 20
126.6848084605408076
 10
4.2921371188350488
 20
126.6824289300099196
 10
4.2949025248998742
 20
126.6800396672478257
 10
4.2976560601585927
 20
126.6776406722544976
 10
4.3003977246112051
 20
126.6752319450299922
 10
4.3031275182577122
 20
126.6728134855742525
 10
4.3058454410981115
 20
126.6703852938873069
 10
4.3085514931324065
 20
126.6679473699691556
 10
4.3112456743605962
 20
126.6654997138197842
 10
4.313927984782679
 20
126.6630423254392497
 10
4.3165984243986557
 20
126.6605752048274525
 10
4.3192569932085272
 20
126.6580983519844636
 10
4.3219036912122917
 20
126.6556117669102548
 42
-0.2148899109718755
 10
4.6599213041034293
 20
125.8068203110361623
 42
-0.1001913794401302
 10
4.5677346824058462
 20
125.369870713884211
 42
-0.0965402896310529
 10
4.3061645118980696
 20
124.9775154581225394
 42
-0.1106023788064041
 10
3.9141839985010307
 20
124.7223159078133818
 10
4.7685965898444813
 20
123.0
 10
4.0093685591156083
 20
123.0
 10
3.2059209293610644
 20
124.6526138279932496
 10
2.727000187371182
 20
124.6526138279932496
 10
2.727000187371182
 20
123.0
  0
LWPOLYLINE
  5
177
100
AcDbEntity
  8
VectorEngraving
 62
5
420
255
370
-1
 48
1.0
  6
BYLAYER
100
AcDbPolyline
 90
7
 70
129
 10
2.727000187371182
 20
125.2522016113921666
 10
3.3078508525388797
 20
125.2522016113921666
 42
0.1918312228859984
 10
3.7669102492036721
 20
125.39572793704329
 42
0.2154606779080808
 10
3.9201798763350197
 20
125.7880831928049474
 42
0.1955098707729328
 10
3.7669102492036721
 20
126.18343638748361
 42
0.2146607426727061
 10
3.3078508525388797
 20
126.3494472550121799
 10
2.727000187371182
 20
126.3494472550121799
  0
LWPOLYLINE
  5
178
100
AcDbEntity
  8
VectorEngraving
 62
5
420
255
370
-1
 48
1.0
  6
BYLAYER
100
AcDbPolyline
 90
13
 70
129
 10
5.4888514146524265
 20
123.0
 10
4.965711073636875
 20
126.9745175192055484
 10
5.5907813378302418
 20
126.9745175192055484
 10
5.8590968709012561
 20
124.4802323402660704
 10
6.36949597151958
 20
126.6619823871088641
 10
6.7517331834363867
 20
126.6619823871088641
 10
7.2621322840547116
 20
124.4862282181000523
 10
7.4727374929735806
 20
126.9745175192055484
 10
8.0595840359752664
 20
126.9745175192055484
 10
7.5431890575229525
 20
123.0
 10
7.090500281056773
 20
123.0
 10
6.5283867341202919
 20
125.4500655799138116
 10
5.9542814315158328
 20
123.0
  0
LWPOLYLINE
  5
179
100
AcDbEntity
  8
VectorEngraving
 62
5
420
255
370
-1
 48
1.0
  6
BYLAYER
100
AcDbPolyline
 90
12
 70
129
 10
11.6053962900505905
 20
123.0
 10
11.6053962900505905
 20
126.9745175192055484
 10
14.1956155143338965
 20
126.9745175192055484
 10
14.1956155143338965
 20
126.3876709762038644
 10
12.3069139966273191
 20
126.3876709762038644
 10
12.3069139966273191
 20
125.3668727749672058
 10
13.8575979014427588
 20
125.3668727749672058
 10
13.8575979014427588
 20
124.773280869402285
 10
12.3069139966273191
 20
124.773280869402285
 10
12.3069139966273191
 20
123.586846543001684
 10
14.1761289113734303
 20
123.586846543001684
 10
14.1761289113734303
 20
123.0
  0
LWPOLYLINE
  5
17A
100
AcDbEntity
  8
VectorEngraving
 62
5
420
255
370
-1
 48
1.0
  6
BYLAYER
100
AcDbPolyline
 90
13
 70
129
 10
14.6730372868652807
 20
123.0
 10
14.6730372868652807
 20
126.9745175192055484
 10
15.3048529136218843
 20
126.9745175192055484
 10
16.0768221847479857
 20
125.1495222034851054
 10
16.8487914558740854
 20
126.9805133970395303
 10
17.4806070826306907
 20
126.9805133970395303
 10
17.4806070826306907
 20
123.0
 10
16.8547873337080745
 20
123.0
 10
16.8547873337080745
 20
125.7753419524077145
 10
16.2297170695147095
 20
124.3138467303728731
 10
15.8789582162263443
 20
124.3138467303728731
 10
15.2921116732246585
 20
125.7685965898444778
 10
15.2921116732246585
 20
123.0
  0
LWPOLYLINE
  5
17B
100
AcDbEntity
  8
VectorEngraving
 62
5
420
255
370
-1
 48
1.0
  6
BYLAYER
100
AcDbPolyline
 90
13
 70
129
 10
2.0
 20
118.0
 10
2.0
 20
121.9745175192055484
 10
2.6318156267566049
 20
121.9745175192055484
 10
3.4037848978827059
 20
120.1495222034851054
 10
4.1757541690088065
 20
121.9805133970395303
 10
4.8075697957654118
 20
121.9805133970395303
 10
4.8075697957654118
 20
118.0
 10
4.1817500468427955
 20
118.0
 10
4.1817500468427955
 20
120.7753419524077145
 10
3.5566797826494287
 20
119.3138467303728731
 10
3.2059209293610644
 20
119.3138467303728731
 10
2.6190743863593777
 20
120.7685965898444778
 10
2.6190743863593777
 20
118.0
  0
LWPOLYLINE
  5
17C
100
AcDbEntity
  8
VectorEngraving
 62
5
420
255
370
-1
 48
1.0
  6
BYLAYER
100
AcDbPolyline
 90
12
 70
129
 10
5.431890575229529
 20
118.0
 10
5.431890575229529
 20
118.5808506651677021
 10
6.2098557241896195
 20
118.5808506651677021
 10
6.2098557241896195
 20
121.3936668540378463
 10
5.476110174255199
 20
121.3936668540378463
 10
5.476110174255199
 20
121.9745175192055484
 10
7.670601461495222
 20
121.9745175192055484
 10
7.670601461495222
 20
121.3936668540378463
 10
6.8926363125351315
 20
121.3936668540378463
 10
6.8926363125351315
 20
118.5808506651677021
 10
7.7028293048529131
 20
118.5808506651677021
 10
7.7028293048529131
 20
118.0
  0
LWPOLYLINE
  5
17D
100
AcDbEntity
  8
VectorEngraving
 62
5
420
255
370
-1
 48
1.0
  6
BYLAYER
100
AcDbPolyline
 90
12
 70
129
 10
8.3593779276747231
 20
118.0
 10
9.3989132471425894
 20
120.02885516207607
 10
8.3721191680719507
 20
121.9745175192055484
 10
9.1118605958403585
 20
121.9745175192055484
 10
9.7818999437886447
 20
120.6666666666666714
 10
10.4324526887764666
 20
121.9745175192055484
 10
11.1339703953531952
 20
121.9745175192055484
 10
10.1776278808319276
 20
120.0348510399100661
 10
11.2621322840547116
 20
118.0
 10
10.4961588907626009
 20
118.0
 10
9.7878958216226337
 20
119.3715570545250131
 10
9.0991193554431327
 20
118.0
  0
LWPOLYLINE
  5
17E
100
AcDbEntity
  8
VectorEngraving
 62
5
420
255
370
-1
 48
1.0
  6
BYLAYER
100
AcDbPolyline
 90
12
 70
129
 10
11.6885890949971891
 20
118.0
 10
11.6885890949971891
 20
121.9745175192055484
 10
14.2788083192804951
 20
121.9745175192055484
 10
14.2788083192804951
 20
121.3876709762038644
 10
12.3901068015739177
 20
121.3876709762038644
 10
12.3901068015739177
 20
120.3668727749672058
 10
13.9407907063893575
 20
120.3668727749672058
 10
13.9407907063893575
 20
119.773280869402285
 10
12.3901068015739177
 20
119.773280869402285
 10
12.3901068015739177
 20
118.586846543001684
 10
14.259321716320029
 20
118.586846543001684
 10
14.259321716320029
 20
118.0
  0
LWPOLYLINE
  5
17F
100
AcDbEntity
  8
VectorEngraving
 62
5
420
255
370
-1
 48
1.0
  6
BYLAYER
100
AcDbPolyline
 90
268
 70
129
 10
14.839422896758478
 20
118.0
 10
14.839422896758478
 20
121.9745175192055484
 10
16.0963087877084519
 20
121.9745175192055484
 10
16.1019825412692335
 20
121.9745126530899455
 10
16.1076444240239169
 20
121.9744980547431368
 10
16.1132944359724881
 20
121.974473724165108
 10
16.1189325771149541
 20
121.9744396613558592
 10
16.1245588474513148
 20
121.9743958663154189
 10
16.1301732469815668
 20
121.9743423390437727
 10
16.1357757757057172
 20
121.9742790795409064
 10
16.1413664336237588
 20
121.9742060878068344
 10
16.1469452207356987
 20
121.9741233638415423
 10
16.1525121370415299
 20
121.9740309076450444
 10
16.1580671825412523
 20
121.9739287192173407
 10
16.163610357234873
 20
121.973816798558417
 10
16.1691416611223815
 20
121.9736951456683016
 10
16.1746610942037883
 20
121.9735637605469378
 10
16.1801686564790934
 20
121.9734226431944109
 10
16.1856643479482898
 20
121.9732717936106496
 10
16.1911481686113774
 20
121.9731112117956826
 10
16.1966201184683598
 20
121.9729408977494955
 10
16.2020801975192335
 20
121.9727608514721169
 10
16.207528405764009
 20
121.9725710729634898
 10
16.2129647432026687
 20
121.9723715622236995
 10
16.2183892098352302
 20
121.9721623192526749
 10
16.2238018056616831
 20
121.9719433440504588
 10
16.2292025306820307
 20
121.9717146366170084
 10
16.2345913848962731
 20
121.9714761969523664
 10
16.2399683683044103
 20
121.9712280250565186
 10
16.2453334809064387
 20
121.9709701209294366
 10
16.2506867227023619
 20
121.9707024845711771
 10
16.2560280936921799
 20
121.9704251159816693
 10
16.2613575938758927
 20
121.9701380151609698
 10
16.2666752232534968
 20
121.9698411821090502
 10
16.2719809818249956
 20
121.9695346168259249
 10
16.2772748695903893
 20
121.969218319311608
 10
16.2825568865496813
 20
121.968892289566071
 10
16.2878270327028574
 20
121.9685565275892998
 10
16.2930853080499318
 20
121.9682110333813512
 10
16.2983317125909011
 20
121.9678558069421683
 10
16.3035662463257687
 20
121.9674908482718081
 10
16.3087889092545311
 20
121.9671161573701994
 10
16.3139997013771776
 20
121.9667317342373849
 10
16.319198622693726
 20
121.9663375788733788
 10
16.3243856732041621
 20
121.9659336912781669
 10
16.3295608529085001
 20
121.9655200714517207
 10
16.3347241618067258
 20
121.9650967193940829
 10
16.3398755998988463
 20
121.9646636351052393
 10
16.3450151671848616
 20
121.9642208185851757
 10
16.3501428636647752
 20
121.9637682698339063
 10
16.3552586893385765
 20
121.9633059888514168
 10
16.3603626442062762
 20
121.9628339756377216
 10
16.3654547282678706
 20
121.9623522301928062
 10
16.3705349415233563
 20
121.9618607525166851
 10
16.3756032839727368
 20
121.9613595426093866
 10
16.3806597556160121
 20
121.9608486004708539
 10
16.3857043564531786
 20
121.9603279261011011
 10
16.3907370864842434
 20
121.9597975195001425
 10
16.3957579457091995
 20
121.9592573806679923
 10
16.4007669341280504
 20
121.9587075096046078
 10
16.4057640517407961
 20
121.9581479063100176
 10
16.4107492985474366
 20
121.9575785707842215
 10
16.4157226745479683
 20
121.9569995030272196
 10
16.4206841797423948
 20
121.9564107030390119
 10
16.4256338141307126
 20
121.9558121708195699
 10
16.4305715777129322
 20
121.9552039063689506
 10
16.4354974704890395
 20
121.9545859096870828
 10
16.4404114924590452
 20
121.9539581807740376
 10
16.4453136436229386
 20
121.9533207196297724
 10
16.4502039239807303
 20
121.9526735262543014
 10
16.4550823335324132
 20
121.9520166006475961
 10
16.4599488722779945
 20
121.9513499428097134
 10
16.4648035402174671
 20
121.9506735527405965
 10
16.4696463373508344
 20
121.9499874304402738
 10
16.4744772636780965
 20
121.9492915759087452
 10
16.4792963191992499
 20
121.9485859891460251
 10
16.4841035039143016
 20
121.9478706701520707
 10
16.4888988178232445
 20
121.9471456189269105
 10
16.4936822609260787
 20
121.9464108354705303
 10
16.4984538332228112
 20
121.9456663197829585
 10
16.5032135347134385
 20
121.9449120718641666
 10
16.5079613653979607
 20
121.9441480917141547
 10
16.5126973252763705
 20
121.9433743793329654
 10
16.5174214143486822
 20
121.9425909347205419
 10
16.5221336326148815
 20
121.9417977578769126
 10
16.5268339800749793
 20
121.9409948488020632
 10
16.5315224567289647
 20
121.9401822074960364
 10
16.536199062576852
 20
121.9393598339587612
 10
16.540863797618627
 20
121.9385277281902802
 10
16.5455166618543004
 20
121.9376858901906076
 10
16.5501576552838685
 20
121.9368343199597291
 10
16.5547867779073243
 20
121.9359730174976164
 10
16.5594040297246821
 20
121.9351019828043121
 10
16.5640094107359275
 20
121.9342212158797736
 10
16.5686029209410712
 20
121.9333307167240577
 10
16.5731845603401062
 20
121.9324304853371075
 10
16.577754328933036
 20
121.9315205217189515
 10
16.5823122267198606
 20
121.9306008258695897
 10
16.58685825370058
 20
121.9296713977890221
 10
16.5913924098751941
 20
121.9287322374772344
 10
16.5959146952436996
 20
121.927783344934241
 10
16.6004251098060998
 20
121.9268247201600275
 10
16.6049236535623947
 20
121.9258563631546366
 10
16.6094103265125845
 20
121.9248782739179973
 10
16.6138851286566691
 20
121.9238904524501805
 10
16.6183480599946414
 20
121.9228928987511296
 10
16.622799120526512
 20
121.921885612820887
 10
16.6272383102522774
 20
121.9208685946594244
 10
16.631665629171934
 20
121.9198418442667275
 10
16.636081077285489
 20
121.9188053616428533
 10
16.6404846545929352
 20
121.9177591467877591
 10
16.6448763610942763
 20
121.916703199701459
 10
16.6492561967895121
 20
121.9156375203839389
 10
16.6536241616786427
 20
121.9145621088352129
 10
16.6579802557616645
 20
121.9134769650552812
 10
16.6623244790385812
 20
121.9123820890441152
 10
16.6666568315093926
 20
121.9112774808017718
 10
16.6709773131740988
 20
121.9101631403282227
 10
16.6752859240326963
 20
121.9090390676234108
 10
16.6795826640851885
 20
121.90790526268745
 10
16.683867533331572
 20
121.9067617255202407
 10
16.6881405317718574
 20
121.905608456121854
 10
16.692401659406034
 20
121.9044454544922473
 10
16.6966509162341055
 20
121.9032727206314064
 10
16.7008883022560681
 20
121.9020902545393596
 10
16.7051138174719256
 20
121.9008980562161071
 10
16.7093274618816778
 20
121.8996961256616487
 10
16.7135292354853213
 20
121.8984844628759845
 10
16.7177191382828632
 20
121.8972630678591145
 10
16.7218971702742927
 20
121.8960319406110102
 10
16.7260633314596205
 20
121.8947910811317286
 10
16.7302176218388396
 20
121.8935404894212127
 10
16.7343600414119607
 20
121.892280165479491
 10
16.7384905901789693
 20
121.8910101093065776
 10
16.7426092681398728
 20
121.8897303209024159
 10
16.7467160752946711
 20
121.8884408002670767
 10
16.7508110116433606
 20
121.8871415474005175
 10
16.7548940771859485
 20
121.8858325623027525
 10
16.7589652719224276
 20
121.8845138449737817
 10
16.7630245958528015
 20
121.8831853954135767
 10
16.7670720489770666
 20
121.8818472136221658
 10
16.7711076312952301
 20
121.8804992995995633
 10
16.7751313428072919
 20
121.879141653345755
 10
16.7791431835132414
 20
121.8777742748607125
 10
16.7831431534130822
 20
121.8763971641444783
 10
16.7871312525068213
 20
121.8750103211970384
 10
16.7911074807944516
 20
121.8736137460183642
 10
16.7950718382759803
 20
121.8722074386085126
 10
16.7990243249514002
 20
121.8707913989674125
 10
16.8029649408207149
 20
121.8693656270951351
 10
16.8068936858839244
 20
121.8679301229916234
 10
16.8108105601410251
 20
121.8664848866569059
 10
16.8147155635920242
 20
121.8650299180909826
 10
16.818608696236911
 20
121.8635652172938535
 10
16.8224899580756961
 20
121.8620907842655043
 10
16.8263593491083761
 20
121.8606066190059778
 10
16.8302168693349472
 20
121.8591127215151886
 10
16.8340625187554167
 20
121.857609091793222
 10
16.8378962973697774
 20
121.8560957298400353
 10
16.841718205178033
 20
121.8545726356556429
 10
16.8455282421801797
 20
121.8530398092400446
 10
16.8493264083762249
 20
121.8514972505932121
 10
16.8531127037661577
 20
121.8499449597152022
 10
16.8568871283499924
 20
121.8483829366059581
 10
16.8606496821277183
 20
121.8468111812655366
 10
16.8644003650993319
 20
121.8452296936938666
 10
16.8681391772648475
 20
121.8436384738909908
 10
16.8718661186242542
 20
121.8420375218569234
 10
16.8755811891775558
 20
121.8404268375916502
 10
16.8792843889247521
 20
121.8388064210951427
 10
16.8829757178658433
 20
121.8371762723674294
 10
16.8866551760008221
 20
121.8355363914085103
 10
16.8903227633296993
 20
121.8338867782183996
 10
16.8939784798524748
 20
121.8322274327970547
 10
16.8976223255691416
 20
121.8305583551445181
 10
16.901254300479696
 20
121.8288795452607616
 10
16.9048744045841524
 20
121.8271910031457992
 10
16.9084826378824999
 20
121.8254927287996168
 10
16.9120790003747459
 20
121.8237847222222285
 10
16.9156634920608795
 20
121.8220669834136203
 10
16.9192361129409079
 20
121.8203395123738062
 10
16.9227968630148311
 20
121.8186023091028005
 10
16.9263457422826455
 20
121.8168553736005748
 10
16.9298827507443619
 20
121.8150987058671291
 10
16.9334078883999624
 20
121.8133323059024917
 10
16.9369211552494683
 20
121.8115561737066344
 10
16.9404225512928619
 20
121.809770309279557
 10
16.9439120765301503
 20
121.8079747126212879
 10
16.9473897309613335
 20
121.8061693837317989
 10
16.9508555145864079
 20
121.8043543226110899
 10
16.9543094274053772
 20
121.802529529259175
 10
16.9577514694182412
 20
121.8006950036760685
 10
16.961181640625
 20
121.798850745861742
 10
16.9645999410256536
 20
121.7969967558161812
 10
16.9680063706201985
 20
121.7951330335394431
 10
16.9714009294086416
 20
121.7932595790314849
 10
16.9747836173909725
 20
121.7913763922923209
 10
16.9781544345672017
 20
121.7894834733219227
 10
16.9815133809373222
 20
121.7875808221203471
 10
16.9848604565013446
 20
121.7856684386875372
 10
16.9881956612592511
 20
121.7837463230235358
 10
16.9915189952110524
 20
121.7818144751283143
 10
16.9948304583567555
 20
121.7798728950018869
 10
16.9981300506963464
 20
121.7779215826442396
 10
17.0014177722298321
 20
121.7759605380553865
 10
17.0046936229572161
 20
121.7739897612353275
 10
17.0079576028784878
 20
121.7720092521840485
 10
17.0112097119936578
 20
121.7700190109015637
 10
17.0144499503027191
 20
121.768019037387873
 10
17.0176783178056787
 20
121.7660093316429766
 10
17.0208948145025261
 20
121.7639898936668601
 10
17.0240994403932717
 20
121.7619607234595236
 10
17.0272921954779122
 20
121.7599218210210097
 10
17.0304730797564474
 20
121.7578731863512473
 10
17.0336420932288775
 20
121.7558148194503076
 10
17.0367992358951987
 20
121.753746720318162
 10
17.0399445077554113
 20
121.7516688889547822
 10
17.0430779088095186
 20
121.7495813253601682
 10
17.0461994390575242
 20
121.747484029534391
 10
17.0493090984994176
 20
121.7453770014773795
 10
17.0524068871352128
 20
121.7432602411891622
 10
17.0554928049648993
 20
121.7411337486697533
 10
17.0585668519884734
 20
121.7389975239191102
 10
17.0616290282059495
 20
121.7368515669372613
 10
17.0646793336173168
 20
121.7346958777242065
 10
17.0677177682225789
 20
121.732530456279946
 10
17.0707443320217358
 20
121.7303553026044796
 10
17.0737590250147839
 20
121.7281704166977789
 10
17.0767618472017269
 20
121.7259757985598725
 10
17.0797527985825681
 20
121.7237714481907602
 10
17.0827318791573006
 20
121.7215573655904564
 10
17.0856990889259244
 20
121.7193335507589325
 10
17.0886544278884429
 20
121.7171000036961885
 10
17.0915978960448598
 20
121.7148567244022388
 10
17.0945294933951679
 20
121.712603712877069
 10
17.0974492199393673
 20
121.7103409691207361
 10
17.100357075677465
 20
121.7080684931331405
 10
17.1032530606094575
 20
121.7057862849143532
 10
17.1061371747353377
 20
121.7034943444643602
 10
17.1090094180551162
 20
121.7011926717831471
 10
17.1118697905687931
 20
121.6988812668707283
 10
17.1147182922763506
 20
121.6965601297271036
 10
17.1175549231778135
 20
121.6942292603522588
 10
17.1203796832731712
 20
121.6918886587462225
 10
17.1231925725624166
 20
121.6895383249089662
 10
17.1259935910455603
 20
121.6871782588404756
 10
17.1287827387225988
 20
121.6848084605408076
 10
17.1315600155935286
 20
121.6824289300099196
 10
17.1343254216583496
 20
121.6800396672478257
 10
17.137078956917069
 20
121.6776406722544976
 10
17.1398206213696866
 20
121.6752319450299922
 10
17.1425504150161885
 20
121.6728134855742525
 10
17.1452683378565887
 20
121.6703852938873069
 10
17.1479743898908907
 20
121.6679473699691556
 10
17.1506685711190734
 20
121.6654997138197842
 10
17.1533508815411544
 20
121.6630423254392497
 10
17.1560213211571337
 20
121.6605752048274525
 10
17.1586798899670043
 20
121.6580983519844636
 10
17.1613265879707697
 20
121.6556117669102548
 42
-0.2148899109718894
 10
17.4993442008619056
 20
120.8068203110361623
 42
-0.1001913794401187
 10
17.4071575791643234
 20
120.369870713884211
 42
-0.0965402896310361
 10
17.1455874086565458
 20
119.9775154581225394
 42
-0.1106023788064094
 10
16.7536068952595087
 20
119.7223159078133818
 10
17.6080194866029593
 20
118.0
 10
16.8487914558740854
 20
118.0
 10
16.0453438261195416
 20
119.6526138279932496
 10
15.56642308412966
 20
119.6526138279932496
 10
15.56642308412966
 20
118.0
  0
LWPOLYLINE
  5
180
100
AcDbEntity
  8
VectorEngraving
 62
5
420
255
370
-1
 48
1.0
  6
BYLAYER
100
AcDbPolyline
 90
7
 70
129
 10
15.56642308412966
 20
120.2522016113921666
 10
16.147273749297355
 20
120.2522016113921666
 42
0.1918312228860033
 10
16.6063331459621502
 20
120.39572793704329
 42
0.2154606779080722
 10
16.7596027730934978
 20
120.7880831928049474
 42
0.1955098707729312
 10
16.6063331459621502
 20
121.18343638748361
 42
0.214660742672707
 10
16.147273749297355
 20
121.3494472550121799
 10
15.56642308412966
 20
121.3494472550121799
  0
LWPOLYLINE
  5
181
100
AcDbEntity
  8
VectorEngraving
 62
5
420
255
370
-1
 48
1.0
  6
BYLAYER
100
AcDbPolyline
 90
8
 70
129
 10
23.3160951845606128
 20
118.0
 10
23.0417837736556095
 20
118.9248641558928199
 10
22.0022484541877468
 20
118.9248641558928199
 10
21.7211916807195031
 20
118.0
 10
21.0069327337455505
 20
118.0
 10
22.3530073074761084
 20
122.0
 10
22.6977702829304846
 20
122.0
 10
24.0438448566610461
 20
118.0
  0
LWPOLYLINE
  5
182
100
AcDbEntity
  8
VectorEngraving
 62
5
420
255
370
-1
 48
1.0
  6
BYLAYER
100
AcDbPolyline
 90
3
 70
129
 10
22.5253887952032983
 20
120.6666666666666714
 10
22.155143338954467
 20
119.4420086190743859
 10
22.8888888888888893
 20
119.4420086190743859
  0
LWPOLYLINE
  5
183
100
AcDbEntity
  8
VectorEngraving
 62
5
420
255
370
-1
 48
1.0
  6
BYLAYER
100
AcDbPolyline
 90
12
 70
129
 10
20.981450252951106
 20
99.0112422709387232
 10
20.981450252951106
 20
99.3016676035225743
 10
21.3704328274311521
 20
99.3016676035225743
 10
21.3704328274311521
 20
100.7080756979576535
 10
21.0035600524639428
 20
100.7080756979576535
 10
21.0035600524639428
 20
100.9985010305414903
 10
22.1008056960839525
 20
100.9985010305414903
 10
22.1008056960839525
 20
100.7080756979576535
 10
21.7118231216039064
 20
100.7080756979576535
 10
21.7118231216039064
 20
99.3016676035225743
 10
22.1169196177628002
 20
99.3016676035225743
 10
22.1169196177628002
 20
99.0112422709387232
  0
LWPOLYLINE
  5
184
100
AcDbEntity
  8
VectorEngraving
 62
5
420
255
370
-1
 48
1.0
  6
BYLAYER
100
AcDbPolyline
 90
13
 70
129
 10
22.4706764099681564
 20
100.9985010305414903
 10
22.8469177440509768
 20
100.9985010305414903
 10
23.5199550309162575
 20
99.6906501780026133
 10
23.5008431703204153
 20
100.9985010305414903
 10
23.8519767659734043
 20
100.9985010305414903
 10
23.8519767659734043
 20
100.9696458684654203
 42
0.1276856979482259
 10
23.8309911935544427
 20
100.926550496533622
 42
0.0454369266294499
 10
23.8261195428143253
 20
100.8516020236087627
 10
23.8261195428143253
 20
99.0112422709387232
 10
23.4914746112048078
 20
99.0112422709387232
 10
22.7959527824620665
 20
100.4052838673411969
 10
22.7959527824620665
 20
99.0112422709387232
 10
22.4706764099681564
 20
99.0112422709387232
  0
LWPOLYLINE
  5
185
100
AcDbEntity
  8
VectorEngraving
 62
5
420
255
370
-1
 48
1.0
  6
BYLAYER
100
AcDbPolyline
 90
8
 70
129
 10
26.3391418399850217
 20
98.9730185497470387
 42
-0.261806122186549
 10
25.8431703204047309
 20
99.2377740303541316
 42
-0.1508035127937532
 10
25.659733932921128
 20
99.9938167509836973
 42
-0.1473654879670561
 10
25.8431703204047309
 20
100.7526700393479473
 42
-0.2669587402895108
 10
26.3391418399850217
 20
101.0269814502529471
 42
-0.2669587402895158
 10
26.8351133595653089
 20
100.7526700393479473
 42
-0.1473654879670503
 10
27.0185497470489153
 20
99.9938167509836973
 42
-0.1508035127937517
 10
26.8351133595653089
 20
99.2377740303541316
 42
-0.2618061221865413
  0
LWPOLYLINE
  5
186
100
AcDbEntity
  8
VectorEngraving
 62
5
420
255
370
-1
 48
1.0
  6
BYLAYER
100
AcDbPolyline
 90
5
 70
129
 10
25.9947536068952694
 20
99.9938167509837115
 42
0.0283088866191578
 10
26.0074948472924987
 20
99.7513584410717584
 10
26.6198238710886379
 20
100.4783586284429333
 42
0.3501942715204426
 10
26.3391418399850217
 20
100.7369308600337234
 42
0.3230366028417451
 10
26.0807569795765524
 20
100.5407532321528947
 42
0.0999785685814392
  0
LWPOLYLINE
  5
187
100
AcDbEntity
  8
VectorEngraving
 62
5
420
255
370
-1
 48
1.0
  6
BYLAYER
100
AcDbPolyline
 90
5
 70
129
 10
26.3391418399850217
 20
99.2503278995690295
 42
0.3213611323087809
 10
26.597526700393491
 20
99.4433202173505606
 42
0.1008322000318641
 10
26.6835300730747704
 20
99.9938167509836973
 42
0.0292151006518177
 10
26.6707888326775446
 20
100.2265317594153942
 10
26.0584598088814055
 20
99.5025295109612102
 42
0.3487215780140868
  0
LWPOLYLINE
  5
188
100
AcDbEntity
  8
VectorEngraving
 62
5
420
255
370
-1
 48
1.0
  6
BYLAYER
100
AcDbPolyline
 90
12
 70
129
 10
3.8019486602960466
 20
99.0112422709387232
 10
3.8019486602960466
 20
99.3016676035225743
 10
4.1909312347760919
 20
99.3016676035225743
 10
4.1909312347760919
 20
100.7080756979576535
 10
3.8240584598088816
 20
100.7080756979576535
 10
3.8240584598088816
 20
100.9985010305414903
 10
4.9213041034288931
 20
100.9985010305414903
 10
4.9213041034288931
 20
100.7080756979576535
 10
4.5323215289488479
 20
100.7080756979576535
 10
4.5323215289488479
 20
99.3016676035225743
 10
4.9374180251077391
 20
99.3016676035225743
 10
4.9374180251077391
 20
99.0112422709387232
  0
LWPOLYLINE
  5
189
100
AcDbEntity
  8
VectorEngraving
 62
5
420
255
370
-1
 48
1.0
  6
BYLAYER
100
AcDbPolyline
 90
13
 70
129
 10
5.2911748173130979
 20
100.9985010305414903
 10
5.6674161513959156
 20
100.9985010305414903
 10
6.3404534382611963
 20
99.6906501780026133
 10
6.3213415776653559
 20
100.9985010305414903
 10
6.6724751733183441
 20
100.9985010305414903
 10
6.6724751733183441
 20
100.9696458684654203
 42
0.1276856979480817
 10
6.6514896008993816
 20
100.926550496533622
 42
0.0454369266294125
 10
6.6466179501592659
 20
100.8516020236087627
 10
6.6466179501592659
 20
99.0112422709387232
 10
6.3119730185497476
 20
99.0112422709387232
 10
5.616451189807008
 20
100.4052838673411969
 10
5.616451189807008
 20
99.0112422709387232
 10
5.2911748173130979
 20
99.0112422709387232
  0
LWPOLYLINE
  5
18A
100
AcDbEntity
  8
VectorEngraving
 62
5
420
255
370
-1
 48
1.0
  6
BYLAYER
100
AcDbPolyline
 90
8
 70
129
 10
9.1596402473299605
 20
98.9730185497470529
 42
-0.2618061221865293
 10
8.6636687277496733
 20
99.2377740303541316
 42
-0.1508035127937498
 10
8.4802323402660669
 20
99.9938167509836973
 42
-0.1473654879670444
 10
8.6636687277496733
 20
100.7526700393479473
 42
-0.2669587402895079
 10
9.1596402473299605
 20
101.0269814502529471
 42
-0.2669587402895154
 10
9.6556117669102495
 20
100.7526700393479473
 42
-0.1473654879670421
 10
9.8390481543938542
 20
99.9938167509836973
 42
-0.1508035127937474
 10
9.6556117669102495
 20
99.2377740303541316
 42
-0.261806122186542
  0
LWPOLYLINE
  5
18B
100
AcDbEntity
  8
VectorEngraving
 62
5
420
255
370
-1
 48
1.0
  6
BYLAYER
100
AcDbPolyline
 90
5
 70
129
 10
8.8152520142402135
 20
99.9938167509837683
 42
0.0283088866191663
 10
8.8279932546374376
 20
99.7513584410717584
 10
9.4403222784335767
 20
100.4783586284429333
 42
0.3501942715204264
 10
9.1596402473299605
 20
100.7369308600337234
 42
0.323036602841762
 10
8.9012553869214912
 20
100.5407532321528947
 42
0.0999785685814301
  0
LWPOLYLINE
  5
18C
100
AcDbEntity
  8
VectorEngraving
 62
5
420
255
370
-1
 48
1.0
  6
BYLAYER
100
AcDbPolyline
 90
5
 70
129
 10
9.1596402473299605
 20
99.2503278995690295
 42
0.3213611323087824
 10
9.4180251077384298
 20
99.4433202173505606
 42
0.1008322000318765
 10
9.5040284804197128
 20
99.9938167509836973
 42
0.0292151006518262
 10
9.4912872400224852
 20
100.2265317594153942
 10
8.8789582162263443
 20
99.5025295109612102
 42
0.3487215780141074
  0
LWPOLYLINE
  5
18D
100
AcDbEntity
  8
VectorEngraving
 62
5
420
255
370
-1
 48
1.0
  6
BYLAYER
100
AcDbPolyline
 90
9
 70
129
 10
11.732996065205171
 20
100.9985010305414903
 10
12.1253513209668355
 20
100.9985010305414903
 10
12.1253513209668355
 20
100.9696458684654203
 42
0.1523096199734694
 10
12.1015551808131914
 20
100.926550496533622
 42
0.0437068677127724
 10
12.0968709012553877
 20
100.8516020236087627
 10
12.0968709012553877
 20
99.3046655424395652
 10
13.0089938167509835
 20
99.3046655424395652
 10
13.0089938167509835
 20
99.0112422709387232
 10
11.732996065205171
 20
99.0112422709387232
  0
LWPOLYLINE
  5
18E
100
AcDbEntity
  8
VectorEngraving
 62
5
420
255
370
-1
 48
1.0
  6
BYLAYER
100
AcDbPolyline
 90
7
 70
129
 10
13.8349259883829863
 20
99.0048716507401139
 10
13.1967397414277681
 20
100.9985010305414903
 10
13.55424395727937
 20
100.9985010305414903
 10
13.9720816938354879
 20
99.6014614952220256
 10
14.3610642683155323
 20
100.9985010305414903
 10
14.708825182686903
 20
100.9985010305414903
 10
14.0770095559302977
 20
99.0048716507401139
  0
LWPOLYLINE
  5
18F
100
AcDbEntity
  8
VectorEngraving
 62
5
420
255
370
-1
 48
1.0
  6
BYLAYER
100
AcDbPolyline
 90
9
 70
129
 10
14.9220535881581409
 20
100.9985010305414903
 10
15.3144088439198054
 20
100.9985010305414903
 10
15.3144088439198054
 20
100.9696458684654203
 42
0.1523096199735882
 10
15.2906127037661612
 20
100.926550496533622
 42
0.0437068677127306
 10
15.2859284242083575
 20
100.8516020236087627
 10
15.2859284242083575
 20
99.3046655424395652
 10
16.1980513397039516
 20
99.3046655424395652
 10
16.1980513397039516
 20
99.0112422709387232
 10
14.9220535881581409
 20
99.0112422709387232
  0
LWPOLYLINE
  5
190
100
AcDbEntity
  8
VectorEngraving
 62
5
420
255
370
-1
 48
1.0
  6
BYLAYER
100
AcDbPolyline
 90
12
 70
129
 10
21.2079820123665073
 20
82.0
 10
21.2079820123665073
 20
82.2904253325838511
 10
21.5969645868465498
 20
82.2904253325838511
 10
21.5969645868465498
 20
83.6968334270189303
 10
21.2300918118793405
 20
83.6968334270189303
 10
21.2300918118793405
 20
83.9872587596027671
 10
22.3273374554993502
 20
83.9872587596027671
 10
22.3273374554993502
 20
83.6968334270189303
 10
21.9383548810193076
 20
83.6968334270189303
 10
21.9383548810193076
 20
82.2904253325838511
 10
22.343451377178198
 20
82.2904253325838511
 10
22.343451377178198
 20
82.0
  0
LWPOLYLINE
  5
191
100
AcDbEntity
  8
VectorEngraving
 62
5
420
255
370
-1
 48
1.0
  6
BYLAYER
100
AcDbPolyline
 90
13
 70
129
 10
22.6972081693835577
 20
83.9872587596027671
 10
23.0734495034663745
 20
83.9872587596027671
 10
23.7464867903316552
 20
82.6794079070638901
 10
23.727374929735813
 20
83.9872587596027671
 10
24.078508525388802
 20
83.9872587596027671
 10
24.078508525388802
 20
83.9584035975266971
 42
0.1276856979476686
 10
24.0575229529698404
 20
83.9153082255948988
 42
0.0454369266293274
 10
24.052651302229723
 20
83.8403597526700395
 10
24.052651302229723
 20
82.0
 10
23.7180063706202056
 20
82.0
 10
23.0224845418774677
 20
83.3940415964024737
 10
23.0224845418774677
 20
82.0
 10
22.6972081693835577
 20
82.0
  0
LWPOLYLINE
  5
192
100
AcDbEntity
  8
VectorEngraving
 62
5
420
255
370
-1
 48
1.0
  6
BYLAYER
100
AcDbPolyline
 90
7
 70
129
 10
26.431515832864914
 20
82.0
 10
26.431515832864914
 20
83.5949035038411097
 10
26.0713884204609414
 20
83.4671163575042101
 10
25.9945662357129557
 20
83.706576728499158
 10
26.5240771969271201
 20
83.9872587596027671
 10
26.7920179876335105
 20
83.9872587596027671
 10
26.7920179876335105
 20
82.0
  0
LWPOLYLINE
  5
193
100
AcDbEntity
  8
VectorEngraving
 62
5
420
255
370
-1
 48
1.0
  6
BYLAYER
100
AcDbPolyline
 90
12
 70
129
 10
3.8019486602960466
 20
82.0063706201986093
 10
3.8019486602960466
 20
82.2967959527824604
 10
4.1909312347760919
 20
82.2967959527824604
 10
4.1909312347760919
 20
83.7032040472175396
 10
3.8240584598088816
 20
83.7032040472175396
 10
3.8240584598088816
 20
83.9936293798013764
 10
4.9213041034288931
 20
83.9936293798013764
 10
4.9213041034288931
 20
83.7032040472175396
 10
4.5323215289488479
 20
83.7032040472175396
 10
4.5323215289488479
 20
82.2967959527824604
 10
4.9374180251077391
 20
82.2967959527824604
 10
4.9374180251077391
 20
82.0063706201986093
  0
LWPOLYLINE
  5
194
100
AcDbEntity
  8
VectorEngraving
 62
5
420
255
370
-1
 48
1.0
  6
BYLAYER
100
AcDbPolyline
 90
13
 70
129
 10
5.2911748173130979
 20
83.9936293798013764
 10
5.6674161513959156
 20
83.9936293798013764
 10
6.3404534382611963
 20
82.6857785272624994
 10
6.3213415776653559
 20
83.9936293798013764
 10
6.6724751733183441
 20
83.9936293798013764
 10
6.6724751733183441
 20
83.9647742177253065
 42
0.1276856979479967
 10
6.6514896008993816
 20
83.9216788457935081
 42
0.0454369266294128
 10
6.6466179501592659
 20
83.8467303728686488
 10
6.6466179501592659
 20
82.0063706201986093
 10
6.3119730185497476
 20
82.0063706201986093
 10
5.616451189807008
 20
83.4004122166010831
 10
5.616451189807008
 20
82.0063706201986093
 10
5.2911748173130979
 20
82.0063706201986093
  0
LWPOLYLINE
  5
195
100
AcDbEntity
  8
VectorEngraving
 62
5
420
255
370
-1
 48
1.0
  6
BYLAYER
100
AcDbPolyline
 90
7
 70
129
 10
9.0254824807944551
 20
82.0063706201986093
 10
9.0254824807944551
 20
83.601274124039719
 10
8.6653550683904825
 20
83.4734869777028194
 10
8.5885328836424968
 20
83.7129473486977673
 10
9.1180438448566612
 20
83.9936293798013764
 10
9.3859846355630516
 20
83.9936293798013764
 10
9.3859846355630516
 20
82.0063706201986093
  0
LWPOLYLINE
  5
196
100
AcDbEntity
  8
VectorEngraving
 62
5
420
255
370
-1
 48
1.0
  6
BYLAYER
100
AcDbPolyline
 90
9
 70
129
 10
11.732996065205171
 20
83.9936293798013764
 10
12.1253513209668355
 20
83.9936293798013764
 10
12.1253513209668355
 20
83.9647742177253065
 42
0.152309619973534
 10
12.1015551808131914
 20
83.9216788457935081
 42
0.0437068677127878
 10
12.0968709012553877
 20
83.8467303728686488
 10
12.0968709012553877
 20
82.2997938916994514
 10
13.0089938167509835
 20
82.2997938916994514
 10
13.0089938167509835
 20
82.0063706201986093
 10
11.732996065205171
 20
82.0063706201986093
  0
LWPOLYLINE
  5
197
100
AcDbEntity
  8
VectorEngraving
 62
5
420
255
370
-1
 48
1.0
  6
BYLAYER
100
AcDbPolyline
 90
7
 70
129
 10
13.8349259883829863
 20
82.0
 10
13.1967397414277681
 20
83.9936293798013764
 10
13.55424395727937
 20
83.9936293798013764
 10
13.9720816938354879
 20
82.5965898444819118
 10
14.3610642683155323
 20
83.9936293798013764
 10
14.708825182686903
 20
83.9936293798013764
 10
14.0770095559302977
 20
82.0
  0
LWPOLYLINE
  5
198
100
AcDbEntity
  8
VectorEngraving
 62
5
420
255
370
-1
 48
1.0
  6
BYLAYER
100
AcDbPolyline
 90
9
 70
129
 10
14.9220535881581409
 20
83.9936293798013764
 10
15.3144088439198054
 20
83.9936293798013764
 10
15.3144088439198054
 20
83.9647742177253065
 42
0.1523096199735882
 10
15.2906127037661612
 20
83.9216788457935081
 42
0.0437068677127475
 10
15.2859284242083575
 20
83.8467303728686488
 10
15.2859284242083575
 20
82.2997938916994514
 10
16.1980513397039516
 20
82.2997938916994514
 10
16.1980513397039516
 20
82.0063706201986093
 10
14.9220535881581409
 20
82.0063706201986093
  0
LWPOLYLINE
  5
199
100
AcDbEntity
  8
VectorEngraving
 62
5
420
255
370
-1
 48
1.0
  6
BYLAYER
100
AcDbPolyline
 90
12
 70
129
 10
21.005433764287055
 20
64.9921304103428952
 10
21.005433764287055
 20
65.2825557429267462
 10
21.3944163387670976
 20
65.2825557429267462
 10
21.3944163387670976
 20
66.6889638373618254
 10
21.0275435637998882
 20
66.6889638373618254
 10
21.0275435637998882
 20
66.9793891699456623
 10
22.124789207419898
 20
66.9793891699456623
 10
22.124789207419898
 20
66.6889638373618254
 10
21.7358066329398554
 20
66.6889638373618254
 10
21.7358066329398554
 20
65.2825557429267462
 10
22.1409031290987457
 20
65.2825557429267462
 10
22.1409031290987457
 20
64.9921304103428952
  0
LWPOLYLINE
  5
19A
100
AcDbEntity
  8
VectorEngraving
 62
5
420
255
370
-1
 48
1.0
  6
BYLAYER
100
AcDbPolyline
 90
13
 70
129
 10
22.4946599213041054
 20
66.9793891699456623
 10
22.8709012553869222
 20
66.9793891699456623
 10
23.543938542252203
 20
65.6715383174067853
 10
23.5248266816563607
 20
66.9793891699456623
 10
23.8759602773093498
 20
66.9793891699456623
 10
23.8759602773093498
 20
66.9505340078695923
 42
0.1276856979477027
 10
23.8549747048903882
 20
66.9074386359377939
 42
0.0454369266293438
 10
23.8501030541502708
 20
66.8324901630129347
 10
23.8501030541502708
 20
64.9921304103428952
 10
23.5154581225407533
 20
64.9921304103428952
 10
22.8199362937980155
 20
66.3861720067453689
 10
22.8199362937980155
 20
64.9921304103428952
 10
22.4946599213041054
 20
64.9921304103428952
  0
LWPOLYLINE
  5
19B
100
AcDbEntity
  8
VectorEngraving
 62
5
420
255
370
-1
 48
1.0
  6
BYLAYER
100
AcDbPolyline
 90
27
 70
129
 10
25.7474236462439876
 20
65.2600712010389543
 42
0.0000020552415159
 10
26.1461495222029043
 20
65.6477421772433445
 42
0.0211705168130402
 10
26.4268315533071032
 20
65.941165448753992
 42
0.0687730442593089
 10
26.5926550496533629
 20
66.1866216975829218
 42
0.1106394284851605
 10
26.6468053213415779
 20
66.4337642870526537
 42
0.499920942830119
 10
26.3661232902379616
 20
66.7080756979576535
 42
0.1009095403055878
 10
26.1811879332958597
 20
66.6730372868652807
 42
0.1206106730178634
 10
26.0314783586284442
 20
66.5581787521079349
 42
0.0521853136794635
 10
25.9947536068952587
 20
66.491287240022487
 42
0.1159720545204189
 10
25.9898819561551448
 20
66.4435075885328956
 10
25.9707700955593026
 20
66.421023046655435
 10
25.9482855536818455
 20
66.4371369683342721
 10
25.6994566235712938
 20
66.6286303166573077
 42
-0.1338122777667806
 10
25.9851976765973411
 20
66.9091249765786102
 42
-0.1299818763844127
 10
26.36949597151958
 20
67.007869589657119
 42
-0.1202334125707258
 10
26.682218474798578
 20
66.9361064268315573
 42
-0.1336220583763196
 10
26.9053775529323609
 20
66.7367434888514168
 42
-0.1474407756437315
 10
26.9881956155143357
 20
66.4337642870526537
 42
-0.1283216443726357
 10
26.8926363125351315
 20
66.0560239835113379
 42
-0.0647330011862781
 10
26.6231965523702456
 20
65.7002061083005486
 42
-0.0039877115873083
 10
26.2195990256698543
 20
65.2855536818437372
 10
26.8480419711448377
 20
65.2855536818437372
 42
0.0591946133307049
 10
26.9229904440697041
 20
65.2919243020423465
 42
0.1343623678599662
 10
26.9660858160014989
 20
65.3174067828368123
 10
26.9945662357129486
 20
65.3174067828368123
 10
26.9945662357129486
 20
64.9921304103428952
 10
25.7474236462432096
 20
64.9921304103428952
  0
LWPOLYLINE
  5
19C
100
AcDbEntity
  8
VectorEngraving
 62
5
420
255
370
-1
 48
1.0
  6
BYLAYER
100
AcDbPolyline
 90
12
 70
129
 10
3.8019486602960466
 20
64.9953157204421927
 10
3.8019486602960466
 20
65.2857410530260438
 10
4.1909312347760919
 20
65.2857410530260438
 10
4.1909312347760919
 20
66.692149147461123
 10
3.8240584598088816
 20
66.692149147461123
 10
3.8240584598088816
 20
66.9825744800449598
 10
4.9213041034288931
 20
66.9825744800449598
 10
4.9213041034288931
 20
66.692149147461123
 10
4.5323215289488479
 20
66.692149147461123
 10
4.5323215289488479
 20
65.2857410530260438
 10
4.9374180251077391
 20
65.2857410530260438
 10
4.9374180251077391
 20
64.9953157204421927
  0
LWPOLYLINE
  5
19D
100
AcDbEntity
  8
VectorEngraving
 62
5
420
255
370
-1
 48
1.0
  6
BYLAYER
100
AcDbPolyline
 90
13
 70
129
 10
5.2911748173130979
 20
66.9825744800449598
 10
5.6674161513959156
 20
66.9825744800449598
 10
6.3404534382611963
 20
65.6747236275060828
 10
6.3213415776653559
 20
66.9825744800449598
 10
6.6724751733183441
 20
66.9825744800449598
 10
6.6724751733183441
 20
66.9537193179688899
 42
0.1276856979476605
 10
6.6514896008993816
 20
66.9106239460370915
 42
0.0454369266293956
 10
6.6466179501592659
 20
66.8356754731122322
 10
6.6466179501592659
 20
64.9953157204421927
 10
6.3119730185497476
 20
64.9953157204421927
 10
5.616451189807008
 20
66.3893573168446665
 10
5.616451189807008
 20
64.9953157204421927
 10
5.2911748173130979
 20
64.9953157204421927
  0
LWPOLYLINE
  5
19E
100
AcDbEntity
  8
VectorEngraving
 62
5
420
255
370
-1
 48
1.0
  6
BYLAYER
100
AcDbPolyline
 90
27
 70
129
 10
8.5439385422432679
 20
65.2632565111489384
 42
0.0000020552415159
 10
8.9426644182094606
 20
65.6509274873460527
 42
0.0211705168130411
 10
9.2233464493160966
 20
65.9443507588532896
 42
0.0687730442593222
 10
9.3891699456623563
 20
66.1898070076822194
 42
0.1106394284851493
 10
9.4433202173505713
 20
66.4369495971519655
 42
0.499920942830137
 10
9.162638186246955
 20
66.711261008056951
 42
0.1009095403055907
 10
8.9777028293048531
 20
66.6762225969645783
 42
0.120610673017872
 10
8.8279932546374376
 20
66.5613640622072325
 42
0.0521853136794742
 10
8.7912685029042539
 20
66.4944725501217846
 42
0.1159720545203779
 10
8.7863968521641382
 20
66.4466928986321932
 10
8.767284991568296
 20
66.4242083567547326
 10
8.7448004496908389
 20
66.4403222784335696
 10
8.495971519580289
 20
66.6318156267566053
 42
-0.1338122777667812
 10
8.7817125726063345
 20
66.9123102866779078
 42
-0.1299818763844174
 10
9.1660108675285734
 20
67.0110548997564166
 42
-0.1202334125707285
 10
9.4787333708075714
 20
66.9392917369308549
 42
-0.1336220583763138
 10
9.7018924489413543
 20
66.7399287989507144
 42
-0.1474407756437415
 10
9.784710511523329
 20
66.4369495971519513
 42
-0.1283216443726312
 10
9.6891512085441249
 20
66.0592092936106354
 42
-0.0647330011862763
 10
9.419711448379239
 20
65.7033914183998462
 42
-0.0039877115873079
 10
9.0161139216788229
 20
65.2887389919430063
 10
9.6445568671538311
 20
65.2887389919430348
 42
0.0591946133307022
 10
9.7195053400786975
 20
65.2951096121416441
 42
0.134362367860011
 10
9.7626007120104923
 20
65.3205920929361099
 10
9.7910811317219419
 20
65.3205920929361099
 10
9.7910811317219419
 20
64.9953157204421927
 10
8.543938542252203
 20
64.9953157204421927
  0
LWPOLYLINE
  5
19F
100
AcDbEntity
  8
VectorEngraving
 62
5
420
255
370
-1
 48
1.0
  6
BYLAYER
100
AcDbPolyline
 90
9
 70
129
 10
11.732996065205171
 20
66.9825744800449598
 10
12.1253513209668355
 20
66.9825744800449598
 10
12.1253513209668355
 20
66.9537193179688899
 42
0.1523096199731704
 10
12.1015551808131914
 20
66.9106239460370915
 42
0.0437068677127718
 10
12.0968709012553877
 20
66.8356754731122322
 10
12.0968709012553877
 20
65.2887389919430348
 10
13.0089938167509835
 20
65.2887389919430348
 10
13.0089938167509835
 20
64.9953157204421927
 10
11.732996065205171
 20
64.9953157204421927
  0
LWPOLYLINE
  5
1A0
100
AcDbEntity
  8
VectorEngraving
 62
5
420
255
370
-1
 48
1.0
  6
BYLAYER
100
AcDbPolyline
 90
7
 70
129
 10
13.8349259883829863
 20
64.9889451002435834
 10
13.1967397414277681
 20
66.9825744800449598
 10
13.55424395727937
 20
66.9825744800449598
 10
13.9720816938354879
 20
65.5855349447254952
 10
14.3610642683155323
 20
66.9825744800449598
 10
14.708825182686903
 20
66.9825744800449598
 10
14.0770095559302977
 20
64.9889451002435834
  0
LWPOLYLINE
  5
1A1
100
AcDbEntity
  8
VectorEngraving
 62
5
420
255
370
-1
 48
1.0
  6
BYLAYER
100
AcDbPolyline
 90
9
 70
129
 10
14.9220535881581409
 20
66.9825744800449598
 10
15.3144088439198054
 20
66.9825744800449598
 10
15.3144088439198054
 20
66.9537193179688899
 42
0.1523096199731533
 10
15.2906127037661612
 20
66.9106239460370915
 42
0.0437068677127306
 10
15.2859284242083575
 20
66.8356754731122322
 10
15.2859284242083575
 20
65.2887389919430348
 10
16.1980513397039516
 20
65.2887389919430348
 10
16.1980513397039516
 20
64.9953157204421927
 10
14.9220535881581409
 20
64.9953157204421927
  0
LWPOLYLINE
  5
1A2
100
AcDbEntity
  8
VectorEngraving
 62
5
420
255
370
-1
 48
1.0
  6
BYLAYER
100
AcDbPolyline
 90
8
 70
129
 10
22.419711448379239
 20
14.9747048903878568
 42
-0.2591303879110595
 10
21.8647180063706195
 20
15.242645681094249
 42
-0.1527047570207368
 10
21.6765973393292128
 20
16.0048716507401174
 42
-0.1520552001393898
 10
21.8647180063706195
 20
16.7575416900880647
 42
-0.26098938222295
 10
22.419711448379239
 20
17.0286677908937598
 42
-0.259888763800813
 10
22.9700206108300549
 20
16.7575416900880647
 42
-0.1532357876440791
 10
23.1598276185122742
 20
16.0048716507401139
 42
-0.1538924925182105
 10
22.9700206108300549
 20
15.242645681094249
 42
-0.2580459804199852
  0
LWPOLYLINE
  5
1A3
100
AcDbEntity
  8
VectorEngraving
 62
5
420
255
370
-1
 48
1.0
  6
BYLAYER
100
AcDbPolyline
 90
8
 70
129
 10
22.419711448379239
 20
15.268128161888697
 42
0.2924199676809681
 10
22.7003934794828552
 20
15.4515645493723071
 42
0.1214329083418456
 10
22.8023234026606723
 20
16.0082443320217358
 42
0.1202673064395433
 10
22.7003934794828552
 20
16.5454375117106984
 42
0.2966022124947332
 10
22.419711448379239
 20
16.7352445193929178
 42
0.2995688277754175
 10
22.1341577665355054
 20
16.5454375117106984
 42
0.1186384765761691
 10
22.0337268128161874
 20
16.0082443320217358
 42
0.1197837217357247
 10
22.1341577665355054
 20
15.4515645493723071
 42
0.2952609534183027
  0
LWPOLYLINE
  5
1A4
100
AcDbEntity
  8
VectorEngraving
 62
5
420
255
370
-1
 48
1.0
  6
BYLAYER
100
AcDbPolyline
 90
17
 70
129
 10
24.0078695896571119
 20
14.9713322091062402
 42
-0.2187932598690913
 10
23.5021547685965899
 20
15.1660108675285752
 42
-0.1902783405960122
 10
23.3250890013115999
 20
15.7084504403222791
 10
23.3250890013115999
 20
17.0001873711823137
 10
23.711073636874648
 20
17.0001873711823137
 10
23.711073636874648
 20
16.9713322091062402
 42
0.1246165463758198
 10
23.6904628068203102
 20
16.9282368371744418
 42
0.0454369266293846
 10
23.6855911560801964
 20
16.853288364249579
 10
23.6855911560801964
 20
15.7050777590406607
 42
0.1333400107447857
 10
23.7558553494472555
 20
15.3827993254637434
 42
0.2785909262070666
 10
24.0108675285741064
 20
15.2647554806070822
 42
0.2726441709264393
 10
24.2694397601648859
 20
15.3827993254637434
 42
0.1376862884248783
 10
24.3428892636312533
 20
15.714821060520892
 10
24.3428892636312533
 20
17.0001873711823137
 10
24.6936481169196185
 20
17.0001873711823137
 10
24.6936481169196185
 20
15.7178189994378865
 42
-0.2083302145650356
 10
24.5023421397789036
 20
15.1532696271313476
 42
-0.1989968553203995
  0
LWPOLYLINE
  5
1A5
100
AcDbEntity
  8
VectorEngraving
 62
5
420
255
370
-1
 48
1.0
  6
BYLAYER
100
AcDbPolyline
 90
8
 70
129
 10
25.4142776840921876
 20
15.0129286115795395
 10
25.4142776840921876
 20
16.6970207982012369
 10
24.8783961026794067
 20
16.6970207982012369
 10
24.8783961026794067
 20
17.0001873711823137
 10
26.3234026606707872
 20
17.0001873711823137
 10
26.3234026606707872
 20
16.6970207982012369
 10
25.7586659171819363
 20
16.6970207982012369
 10
25.7586659171819363
 20
15.0129286115795395
  0
LWPOLYLINE
  5
1A6
100
AcDbEntity
  8
VectorEngraving
 62
5
420
255
370
-1
 48
1.0
  6
BYLAYER
100
AcDbPolyline
 90
12
 70
129
 10
18.568858909499717
 20
32.0129286115795395
 10
18.568858909499717
 20
32.3033539441633906
 10
18.9578414839797631
 20
32.3033539441633906
 10
18.9578414839797631
 20
33.7097620385984627
 10
18.5909687090125537
 20
33.7097620385984627
 10
18.5909687090125537
 20
34.0001873711823137
 10
19.6882143526325635
 20
34.0001873711823137
 10
19.6882143526325635
 20
33.7097620385984627
 10
19.2992317781525209
 20
33.7097620385984627
 10
19.2992317781525209
 20
32.3033539441633906
 10
19.7043282743114112
 20
32.3033539441633906
 10
19.7043282743114112
 20
32.0129286115795395
  0
LWPOLYLINE
  5
1A7
100
AcDbEntity
  8
VectorEngraving
 62
5
420
255
370
-1
 48
1.0
  6
BYLAYER
100
AcDbPolyline
 90
13
 70
129
 10
20.0580850665167709
 20
34.0001873711823137
 10
20.4343264005995877
 20
34.0001873711823137
 10
21.1073636874648685
 20
32.6923365186434296
 10
21.0882518268690262
 20
34.0001873711823137
 10
21.4393854225220153
 20
34.0001873711823137
 10
21.4393854225220153
 20
33.9713322091062366
 42
0.1276856979476204
 10
21.4183998501030537
 20
33.9282368371744454
 42
0.0454369266294377
 10
21.4135281993629363
 20
33.853288364249579
 10
21.4135281993629363
 20
32.0129286115795395
 10
21.0788832677534188
 20
32.0129286115795395
 10
20.383361439010681
 20
33.4069702079820132
 10
20.383361439010681
 20
32.0129286115795395
 10
20.0580850665167709
 20
32.0129286115795395
  0
LWPOLYLINE
  5
1A8
100
AcDbEntity
  8
VectorEngraving
 62
5
420
255
370
-1
 48
1.0
  6
BYLAYER
100
AcDbPolyline
 90
7
 70
129
 10
22.2237211916807205
 20
32.0065579913809231
 10
21.5855349447255023
 20
34.0001873711823137
 10
21.9430391605771042
 20
34.0001873711823137
 10
22.3608768971332204
 20
32.6031478358628419
 10
22.7498594716132665
 20
34.0001873711823137
 10
23.0976203859846336
 20
34.0001873711823137
 10
22.4658047592280319
 20
32.0065579913809231
  0
LWPOLYLINE
  5
1A9
100
AcDbEntity
  8
VectorEngraving
 62
5
420
255
370
-1
 48
1.0
  6
BYLAYER
100
AcDbPolyline
 90
8
 70
129
 10
25.5274498782087313
 20
31.9747048903878621
 42
-0.2591303879110614
 10
24.9724564362001118
 20
32.2426456810942454
 42
-0.1527047570207415
 10
24.7843357691587016
 20
33.0048716507401139
 42
-0.1520552001393953
 10
24.9724564362001118
 20
33.7575416900880683
 42
-0.2609893822229485
 10
25.5274498782087313
 20
34.0286677908937634
 42
-0.2598887638008052
 10
26.0777590406595472
 20
33.7575416900880683
 42
-0.15323578764408
 10
26.267566048341763
 20
33.0048716507401139
 42
-0.1538924925182142
 10
26.0777590406595472
 20
32.2426456810942454
 42
-0.2580459804199795
  0
LWPOLYLINE
  5
1AA
100
AcDbEntity
  8
VectorEngraving
 62
5
420
255
370
-1
 48
1.0
  6
BYLAYER
100
AcDbPolyline
 90
8
 70
129
 10
25.5274498782087313
 20
32.2681281618887041
 42
0.2924199676809674
 10
25.8081319093123476
 20
32.4515645493723071
 42
0.1214329083418429
 10
25.9100618324901646
 20
33.0082443320217322
 42
0.120267306439543
 10
25.8081319093123476
 20
33.545437511710702
 42
0.296602212494705
 10
25.5274498782087313
 20
33.7352445193929213
 42
0.2995688277754204
 10
25.2418961963649977
 20
33.545437511710702
 42
0.1186384765761822
 10
25.1414652426456797
 20
33.0082443320217322
 42
0.119783721735744
 10
25.2418961963649977
 20
32.4515645493723071
 42
0.2952609534183074
  0
LWPOLYLINE
  5
1AB
100
AcDbEntity
  8
VectorEngraving
 62
5
420
255
370
-1
 48
1.0
  6
BYLAYER
100
AcDbPolyline
 90
17
 70
129
 10
27.1156080194866007
 20
31.9713322091062402
 42
-0.218793259869093
 10
26.6098931984260823
 20
32.166010867528577
 42
-0.1902783405960192
 10
26.4328274311410922
 20
32.7084504403222809
 10
26.4328274311410922
 20
34.0001873711823137
 10
26.8188120667041403
 20
34.0001873711823137
 10
26.8188120667041403
 20
33.9713322091062366
 42
0.1246165463760194
 10
26.7982012366498026
 20
33.9282368371744454
 42
0.0454369266293786
 10
26.7933295859096887
 20
33.853288364249579
 10
26.7933295859096887
 20
32.7050777590406625
 42
0.1333400107448164
 10
26.8635937792767479
 20
32.3827993254637434
 42
0.2785909262070667
 10
27.1186059584035988
 20
32.2647554806070858
 42
0.2726441709264439
 10
27.3771781899943782
 20
32.3827993254637434
 42
0.1376862884248561
 10
27.4506276934607456
 20
32.7148210605208902
 10
27.4506276934607456
 20
34.0001873711823137
 10
27.8013865467491073
 20
34.0001873711823137
 10
27.8013865467491073
 20
32.7178189994378883
 42
-0.2083302145650474
 10
27.6100805696083924
 20
32.1532696271313512
 42
-0.1989968553203915
  0
LWPOLYLINE
  5
1AC
100
AcDbEntity
  8
VectorEngraving
 62
5
420
255
370
-1
 48
1.0
  6
BYLAYER
100
AcDbPolyline
 90
8
 70
129
 10
28.5220161139216799
 20
32.0129286115795395
 10
28.5220161139216799
 20
33.6970207982012369
 10
27.986134532508899
 20
33.6970207982012369
 10
27.986134532508899
 20
34.0001873711823137
 10
29.431141090500283
 20
34.0001873711823137
 10
29.431141090500283
 20
33.6970207982012369
 10
28.8664043470114287
 20
33.6970207982012369
 10
28.8664043470114287
 20
32.0129286115795395
  0
ENDSEC
  0
SECTION
  2
OBJECTS
  0
DICTIONARY
  5
C
100
AcDbDictionary
280
0
281
1
  3
ACAD_GROUP
350
D
  3
ACAD_LAYOUT
350
1A
  3
ACAD_MLINESTYLE
350
17
  3
ACAD_PLOTSETTINGS
350
19
  3
ACAD_PLOTSTYLENAME
350
E
  3
AcDbVariableDictionary
350
1AD
  3
QCAD_OBJECTS
350
1AE
  0
DICTIONARY
  5
D
100
AcDbDictionary
280
0
281
1
  0
ACDBDICTIONARYWDFLT
  5
E
100
AcDbDictionary
281
1
  3
Normal
350
F
100
AcDbDictionaryWithDefault
340
F
  0
ACDBPLACEHOLDER
  5
F
  0
DICTIONARY
  5
17
100
AcDbDictionary
280
0
281
1
  3
Standard
350
18
  0
MLINESTYLE
  5
18
100
AcDbMlineStyle
  2
STANDARD
 70
0
  3

 62
256
 51
90.0
 52
90.0
 71
2
 49
0.5
 62
256
  6
BYLAYER
 49
-0.5
 62
256
  6
BYLAYER
  0
DICTIONARY
  5
19
100
AcDbDictionary
280
0
281
1
  0
DICTIONARY
  5
1A
100
AcDbDictionary
281
1
  3
Layout1
350
1E
  3
Layout2
350
26
  3
Model
350
22
  0
LAYOUT
  5
1E
100
AcDbPlotSettings
  1

  2
none_device
  4

  6

 40
0.0
 41
0.0
 42
0.0
 43
0.0
 44
0.0
 45
0.0
 46
0.0
 47
0.0
 48
0.0
 49
0.0
140
0.0
141
0.0
142
1.0
143
1.0
 70
688
 72
0
 73
0
 74
5
  7

 75
16
147
1.0
148
0.0
149
0.0
100
AcDbLayout
  1
Layout1
 70
1
 71
1
 10
0.0
 20
0.0
 11
420.0
 21
297.0
 12
0.0
 22
0.0
 32
0.0
 14
100000000000000000000.0
 24
100000000000000000000.0
 34
100000000000000000000.0
 15
-100000000000000000000.0
 25
-100000000000000000000.0
 35
-100000000000000000000.0
146
0.0
 13
0.0
 23
0.0
 33
0.0
 16
1.0
 26
0.0
 36
0.0
 17
0.0
 27
1.0
 37
0.0
 76
0
330
1B
  0
LAYOUT
  5
22
100
AcDbPlotSettings
  1

  2
none_device
  4

  6

 40
0.0
 41
0.0
 42
0.0
 43
0.0
 44
0.0
 45
0.0
 46
0.0
 47
0.0
 48
0.0
 49
0.0
140
0.0
141
0.0
142
1.0
143
1.0
 70
1712
 72
0
 73
0
 74
0
  7

 75
0
147
1.0
148
0.0
149
0.0
100
AcDbLayout
  1
Model
 70
1
 71
0
 10
0.0
 20
0.0
 11
12.0
 21
9.0
 12
0.0
 22
0.0
 32
0.0
 14
0.0
 24
0.0
 34
0.0
 15
0.0
 25
0.0
 35
0.0
146
0.0
 13
0.0
 23
0.0
 33
0.0
 16
1.0
 26
0.0
 36
0.0
 17
0.0
 27
1.0
 37
0.0
 76
0
330
1F
  0
LAYOUT
  5
26
100
AcDbPlotSettings
  1

  2
none_device
  4

  6

 40
0.0
 41
0.0
 42
0.0
 43
0.0
 44
0.0
 45
0.0
 46
0.0
 47
0.0
 48
0.0
 49
0.0
140
0.0
141
0.0
142
1.0
143
1.0
 70
688
 72
0
 73
0
 74
5
  7

 75
16
147
1.0
148
0.0
149
0.0
100
AcDbLayout
  1
Layout2
 70
1
 71
2
 10
0.0
 20
0.0
 11
12.0
 21
9.0
 12
0.0
 22
0.0
 32
0.0
 14
0.0
 24
0.0
 34
0.0
 15
0.0
 25
0.0
 35
0.0
146
0.0
 13
0.0
 23
0.0
 33
0.0
 16
1.0
 26
0.0
 36
0.0
 17
0.0
 27
1.0
 37
0.0
 76
0
330
23
  0
DICTIONARY
  5
1AD
100
AcDbDictionary
281
1
  3
DIMASSOC
350
1B0
  3
HIDETEXT
350
1AF
  0
DICTIONARYVAR
  5
1AF
100
DictionaryVariables
280
0
  1
2
  0
DICTIONARYVAR
  5
1B0
100
DictionaryVariables
280
0
  1
1
  0
DICTIONARY
  5
1AE
100
AcDbDictionary
281
1
  3
ColorSettings/BackgroundColor
350
1B1
  3
ColorSettings/ColorMode
350
1B2
  3
Grid/DisplayGrid00
350
1B3
  3
Grid/DisplayGrid01
350
1B4
  3
Grid/DisplayGrid02
350
1B5
  3
Grid/DisplayGrid03
350
1B6
  3
Grid/GridSpacingX00
350
1B7
  3
Grid/GridSpacingX01
350
1B8
  3
Grid/GridSpacingX02
350
1B9
  3
Grid/GridSpacingX03
350
1BA
  3
Grid/GridSpacingY00
350
1BB
  3
Grid/GridSpacingY01
350
1BC
  3
Grid/GridSpacingY02
350
1BD
  3
Grid/GridSpacingY03
350
1BE
  3
Grid/IsometricGrid00
350
1BF
  3
Grid/IsometricGrid01
350
1C0
  3
Grid/IsometricGrid02
350
1C1
  3
Grid/IsometricGrid03
350
1C2
  3
Grid/IsometricProjection00
350
1C3
  3
Grid/IsometricProjection01
350
1C4
  3
Grid/IsometricProjection02
350
1C5
  3
Grid/IsometricProjection03
350
1C6
  3
Grid/MetaGridSpacingX00
350
1C7
  3
Grid/MetaGridSpacingX01
350
1C8
  3
Grid/MetaGridSpacingX02
350
1C9
  3
Grid/MetaGridSpacingX03
350
1CA
  3
Grid/MetaGridSpacingY00
350
1CB
  3
Grid/MetaGridSpacingY01
350
1CC
  3
Grid/MetaGridSpacingY02
350
1CD
  3
Grid/MetaGridSpacingY03
350
1CE
  3
MultiPageSettings/Columns
350
1CF
  3
MultiPageSettings/GlueMarginsBottom
350
1D0
  3
MultiPageSettings/GlueMarginsLeft
350
1D1
  3
MultiPageSettings/GlueMarginsRight
350
1D2
  3
MultiPageSettings/GlueMarginsTop
350
1D3
  3
MultiPageSettings/PrintCropMarks
350
1D4
  3
MultiPageSettings/Rows
350
1D5
  3
PageSettings/OffsetX
350
1D6
  3
PageSettings/OffsetY
350
1D7
  3
PageSettings/PageOrientation
350
1D8
  3
PageSettings/PaperHeight
350
1D9
  3
PageSettings/PaperWidth
350
1DA
  3
PageSettings/Scale
350
1DB
  3
PageSettings/ShowPaperBorders
350
1DC
  3
PageTagSettings/EnablePageTags
350
1DD
  3
PageTagSettings/TagAlignment
350
1DE
  3
PageTagSettings/TagFont
350
1DF
  3
PageTagSettings/TagPosition
350
1E0
  3
QCADVersion
350
1E1
  3
UnitSettings/PaperUnit
350
1E2
  3
ViewportCenter
350
1E3
  3
ViewportHeight
350
1E4
  3
ViewportWidth
350
1E5
  0
XRECORD
  5
1B1
330
1AE
100
AcDbXrecord
280
1
1000
White
  0
XRECORD
  5
1B2
330
1AE
100
AcDbXrecord
280
1
1000
FullColor
  0
XRECORD
  5
1B3
330
1AE
100
AcDbXrecord
280
1
290
1
  0
XRECORD
  5
1B4
330
1AE
100
AcDbXrecord
280
1
290
1
  0
XRECORD
  5
1B5
330
1AE
100
AcDbXrecord
280
1
290
1
  0
XRECORD
  5
1B6
330
1AE
100
AcDbXrecord
280
1
290
1
  0
XRECORD
  5
1B7
330
1AE
100
AcDbXrecord
280
1
1000
auto
  0
XRECORD
  5
1B8
330
1AE
100
AcDbXrecord
280
1
1000
auto
  0
XRECORD
  5
1B9
330
1AE
100
AcDbXrecord
280
1
1000
auto
  0
XRECORD
  5
1BA
330
1AE
100
AcDbXrecord
280
1
1000
auto
  0
XRECORD
  5
1BB
330
1AE
100
AcDbXrecord
280
1
1000
auto
  0
XRECORD
  5
1BC
330
1AE
100
AcDbXrecord
280
1
1000
auto
  0
XRECORD
  5
1BD
330
1AE
100
AcDbXrecord
280
1
1000
auto
  0
XRECORD
  5
1BE
330
1AE
100
AcDbXrecord
280
1
1000
auto
  0
XRECORD
  5
1BF
330
1AE
100
AcDbXrecord
280
1
290
0
  0
XRECORD
  5
1C0
330
1AE
100
AcDbXrecord
280
1
290
0
  0
XRECORD
  5
1C1
330
1AE
100
AcDbXrecord
280
1
290
0
  0
XRECORD
  5
1C2
330
1AE
100
AcDbXrecord
280
1
290
0
  0
XRECORD
  5
1C3
330
1AE
100
AcDbXrecord
280
1
 90
65537
  0
XRECORD
  5
1C4
330
1AE
100
AcDbXrecord
280
1
 90
65537
  0
XRECORD
  5
1C5
330
1AE
100
AcDbXrecord
280
1
 90
65537
  0
XRECORD
  5
1C6
330
1AE
100
AcDbXrecord
280
1
 90
65537
  0
XRECORD
  5
1C7
330
1AE
100
AcDbXrecord
280
1
1000
auto
  0
XRECORD
  5
1C8
330
1AE
100
AcDbXrecord
280
1
1000
auto
  0
XRECORD
  5
1C9
330
1AE
100
AcDbXrecord
280
1
1000
auto
  0
XRECORD
  5
1CA
330
1AE
100
AcDbXrecord
280
1
1000
auto
  0
XRECORD
  5
1CB
330
1AE
100
AcDbXrecord
280
1
1000
auto
  0
XRECORD
  5
1CC
330
1AE
100
AcDbXrecord
280
1
1000
auto
  0
XRECORD
  5
1CD
330
1AE
100
AcDbXrecord
280
1
1000
auto
  0
XRECORD
  5
1CE
330
1AE
100
AcDbXrecord
280
1
1000
auto
  0
XRECORD
  5
1CF
330
1AE
100
AcDbXrecord
280
1
 90
1
  0
XRECORD
  5
1D0
330
1AE
100
AcDbXrecord
280
1
 40
10.0
  0
XRECORD
  5
1D1
330
1AE
100
AcDbXrecord
280
1
 40
10.0
  0
XRECORD
  5
1D2
330
1AE
100
AcDbXrecord
280
1
 40
10.0
  0
XRECORD
  5
1D3
330
1AE
100
AcDbXrecord
280
1
 40
10.0
  0
XRECORD
  5
1D4
330
1AE
100
AcDbXrecord
280
1
290
0
  0
XRECORD
  5
1D5
330
1AE
100
AcDbXrecord
280
1
 90
1
  0
XRECORD
  5
1D6
330
1AE
100
AcDbXrecord
280
1
 40
0.0
  0
XRECORD
  5
1D7
330
1AE
100
AcDbXrecord
280
1
 40
0.0
  0
XRECORD
  5
1D8
330
1AE
100
AcDbXrecord
280
1
1000
Portrait
  0
XRECORD
  5
1D9
330
1AE
100
AcDbXrecord
280
1
 40
297.0
  0
XRECORD
  5
1DA
330
1AE
100
AcDbXrecord
280
1
 40
210.0
  0
XRECORD
  5
1DB
330
1AE
100
AcDbXrecord
280
1
1000
1:1
  0
XRECORD
  5
1DC
330
1AE
100
AcDbXrecord
280
1
290
1
  0
XRECORD
  5
1DD
330
1AE
100
AcDbXrecord
280
1
290
0
  0
XRECORD
  5
1DE
330
1AE
100
AcDbXrecord
280
1
1000
Inside
  0
XRECORD
  5
1DF
330
1AE
100
AcDbXrecord
280
1
1000
Arial,10,-1,5,50,0,0,0,0,0
  0
XRECORD
  5
1E0
330
1AE
100
AcDbXrecord
280
1
1000
TopLeft
  0
XRECORD
  5
1E1
330
1AE
100
AcDbXrecord
280
1
1000
3.27.6.7
  0
XRECORD
  5
1E2
330
1AE
100
AcDbXrecord
280
1
 90
4
  0
XRECORD
  5
1E4
330
1AE
100
AcDbXrecord
280
1
 40
65.0769630342530689
  0
XRECORD
  5
1E5
330
1AE
100
AcDbXrecord
280
1
 40
134.6156179513638449
  0
ENDSEC
  0
EOF
