<?xml version="1.0" standalone="no"?>
 <!DOCTYPE svg PUBLIC "-//W3C//DTD SVG 1.1//EN" 
 "http://www.w3.org/Graphics/SVG/1.1/DTD/svg11.dtd"> 
<svg
  xmlns:svg="http://www.w3.org/2000/svg"
  xmlns="http://www.w3.org/2000/svg"
  xmlns:xlink="http://www.w3.org/1999/xlink"
  version="1.1"
  width="3.012440cm" height="12.862560cm" viewBox="0 0 30124400 128625600">
<title>SVG Picture created as RW_EM_MIXER_A_PANEL-F_Silkscreen.svg date 2022/09/16 21:56:42 </title>
  <desc>Picture generated by PCBNEW </desc>
<g style="fill:#000000; fill-opacity:1.000000;stroke:#000000; stroke-opacity:1.000000;
stroke-linecap:round; stroke-linejoin:round;"
 transform="translate(0 0) scale(1 1)">
</g>
<g style="fill:#000000; fill-opacity:0.0; 
stroke:#000000; stroke-width:0.000000; stroke-opacity:1; 
stroke-linecap:round; stroke-linejoin:round;">
<g >
</g>
<g >
</g>
<g >
</g>
</g>
<g style="fill:#000000; fill-opacity:0.0; 
stroke:#000000; stroke-width:0.000000; stroke-opacity:1; 
stroke-linecap:round; stroke-linejoin:round;">
</g>
<g style="fill:#000000; fill-opacity:0.0; 
stroke:#000000; stroke-width:130000.000000; stroke-opacity:1; 
stroke-linecap:round; stroke-linejoin:round;">
<path d="M13724200 121969965
L12340882 125770505
" />
<path d="M11172397 122560071
L12555677 118759495
" />
<path d="M14892697 118759495
L12555677 118759495
" />
<path d="M16275977 122560071
L14892697 118759495
" />
<path d="M17659308 118759495
L16275977 122560071
" />
<path d="M19996328 118759495
L17659308 118759495
" />
<path d="M17444513 125770505
L19996328 118759495
" />
<path d="M15107492 125770505
L17444513 125770505
" />
<path d="M12555677 118759495
L15107492 125770505
" />
<path d="M9789118 118759495
L7452097 118759495
" />
<path d="M12340882 125770505
L9789118 118759495
" />
<path d="M10003913 125770505
L12340882 125770505
" />
<path d="M7452097 118759495
L10003913 125770505
" />
<path d="M3779622 122081726
L3779622 120436707
" />
<path d="M4357653 122081726
L3779622 122081726
" />
<path d="M4357653.000040 122081726.999338 A822517.000000 822517.000000 0.0 0 0 5180136.999378 121259242.000000" />
<path d="M5180132.999706 121259241.999893 A822513.000000 822513.000000 0.0 0 0 4357653.000000 120436707.000662" />
<path d="M3779622 120436707
L4357653 120436707
" />
<path d="M4567272 118759495
L1442601 118759495
" />
<path d="M7067018.999999 121259242.000000 A2499749.000000 2499749.000000 0.0 0 0 4567272.000000 118759495.000001" />
<path d="M6377236.920098 122980960.208237 A2499720.000000 2499720.000000 0.0 0 0 7067018.807194 121259241.999812" />
<path d="M7392524 125770505
L6377243 122980966
" />
<path d="M5055504 125770505
L7392524 125770505
" />
<path d="M4323390 123758989
L5055504 125770505
" />
<path d="M3779622 123758989
L4323390 123758989
" />
<path d="M3779622 125770505
L3779622 123758989
" />
<path d="M1442601 125770505
L3779622 125770505
" />
<path d="M1442601 123758989
L1442601 125770505
" />
<path d="M1442601 123340372
L1442601 123758989
" />
<path d="M941845 123340372
L1442601 123340372
" />
<path d="M941845 122501585
L941845 123340372
" />
<path d="M1442601 122501585
L941845 122501585
" />
<path d="M1442601 120017727
L1442601 122501585
" />
<path d="M941845 120017727
L1442601 120017727
" />
<path d="M941845 119178889
L941845 120017727
" />
<path d="M1442601 119178889
L941845 119178889
" />
<path d="M1442601 118759495
L1442601 119178889
" />
</g>
<g style="fill:#000000; fill-opacity:1.0; 
stroke:#000000; stroke-width:1.000000; stroke-opacity:1; 
stroke-linecap:round; stroke-linejoin:round;">
<circle cx="8189728.000000" cy="57549283.000000" r="65000.000000" /> 
</g>
<g style="fill:#000000; fill-opacity:1.0; 
stroke:#000000; stroke-width:130000.000000; stroke-opacity:1; 
stroke-linecap:round; stroke-linejoin:round;">
</g>
<g style="fill:#000000; fill-opacity:0.0; 
stroke:#000000; stroke-width:130000.000000; stroke-opacity:1; 
stroke-linecap:round; stroke-linejoin:round;">
<path d="M8419108 57679603
L8189728 57549283
" />
<path d="M7541448 59199793
L8419108 57679603
" />
<path d="M7312968 59067853
L7541448 59199793
" />
<path d="M8189728 57549283
L7312968 59067853
" />
<path d="M12791448 59067853
L11914688 57549243
" />
<path d="M12562968 59199793
L12791448 59067853
" />
<path d="M11685308 57679603
L12562968 59199793
" />
<path d="M11914688 57549243
L11685308 57679603
" />
<path d="M7090138 56449653
L6959778 56220273
" />
<path d="M5571528 57326413
L7090138 56449653
" />
<path d="M5439628 57097933
L5571528 57326413
" />
<path d="M6959778 56220273
L5439628 57097933
" />
<path d="M14664778 57097933
L13144588 56220223
" />
<path d="M14532888 57326413
L14664778 57097933
" />
<path d="M13014228 56449653
L14532888 57326413
" />
<path d="M13144588 56220223
L13014228 56449653
" />
<path d="M15302508 54455273
L13549418 54455273
" />
<path d="M15302508 54719113
L15302508 54455273
" />
<path d="M13546418 54719113
L15302508 54719113
" />
<path d="M13552418 54587173
L13546418 54719113
" />
<path d="M13549418 54455273
L13552418 54587173
" />
<path d="M6558298 54455273
L4802165 54455273
" />
<path d="M6552298 54587173
L6558298 54455273
" />
<path d="M6558298 54719113
L6552298 54587173
" />
<path d="M4802165 54719113
L6558298 54719113
" />
<path d="M4802165 54455273
L4802165 54719113
" />
<path d="M14664778 52076413
L14532888 51847933
" />
<path d="M13146718 52952903
L14664778 52076413
" />
<path d="M13014948 52724283
L13146718 52952903
" />
<path d="M14532888 51847933
L13014948 52724283
" />
<path d="M7090138 52724693
L5571528 51847933
" />
<path d="M6959778 52954073
L7090138 52724693
" />
<path d="M5439628 52076413
L6959778 52954073
" />
<path d="M5571528 51847933
L5439628 52076413
" />
<path d="M12791448 50106493
L12562968 49974553
" />
<path d="M11915098 51624383
L12791448 50106493
" />
<path d="M11686478 51492663
L11915098 51624383
" />
<path d="M12562968 49974553
L11686478 51492663
" />
<path d="M8419108 51494743
L7541448 49974553
" />
<path d="M8189728 51625063
L8419108 51494743
" />
<path d="M7312968 50106493
L8189728 51625063
" />
<path d="M7541448 49974553
L7312968 50106493
" />
<path d="M10184108 49337473
L9920268 49337173
" />
<path d="M10184108 51090263
L10184108 49337473
" />
<path d="M10052158 51087263
L10184108 51090263
" />
<path d="M9920268 51093263
L10052158 51087263
" />
<path d="M9920268 49337173
L9920268 51093263
" />
</g>
<g style="fill:#000000; fill-opacity:1.0; 
stroke:#000000; stroke-width:1.000000; stroke-opacity:1; 
stroke-linecap:round; stroke-linejoin:round;">
<circle cx="8189728.000000" cy="40549283.000000" r="65000.000000" /> 
</g>
<g style="fill:#000000; fill-opacity:1.0; 
stroke:#000000; stroke-width:130000.000000; stroke-opacity:1; 
stroke-linecap:round; stroke-linejoin:round;">
</g>
<g style="fill:#000000; fill-opacity:0.0; 
stroke:#000000; stroke-width:130000.000000; stroke-opacity:1; 
stroke-linecap:round; stroke-linejoin:round;">
<path d="M8419108 40679603
L8189728 40549283
" />
<path d="M7541448 42199793
L8419108 40679603
" />
<path d="M7312968 42067853
L7541448 42199793
" />
<path d="M8189728 40549283
L7312968 42067853
" />
<path d="M12791448 42067853
L11914688 40549243
" />
<path d="M12562968 42199793
L12791448 42067853
" />
<path d="M11685308 40679603
L12562968 42199793
" />
<path d="M11914688 40549243
L11685308 40679603
" />
<path d="M7090138 39449653
L6959778 39220273
" />
<path d="M5571528 40326413
L7090138 39449653
" />
<path d="M5439628 40097933
L5571528 40326413
" />
<path d="M6959778 39220273
L5439628 40097933
" />
<path d="M14664778 40097933
L13144588 39220223
" />
<path d="M14532888 40326413
L14664778 40097933
" />
<path d="M13014228 39449653
L14532888 40326413
" />
<path d="M13144588 39220223
L13014228 39449653
" />
<path d="M15302508 37455273
L13549418 37455273
" />
<path d="M15302508 37719113
L15302508 37455273
" />
<path d="M13546418 37719113
L15302508 37719113
" />
<path d="M13552418 37587173
L13546418 37719113
" />
<path d="M13549418 37455273
L13552418 37587173
" />
<path d="M6558298 37455273
L4802165 37455273
" />
<path d="M6552298 37587173
L6558298 37455273
" />
<path d="M6558298 37719113
L6552298 37587173
" />
<path d="M4802165 37719113
L6558298 37719113
" />
<path d="M4802165 37455273
L4802165 37719113
" />
<path d="M14664778 35076413
L14532888 34847933
" />
<path d="M13146718 35952903
L14664778 35076413
" />
<path d="M13014948 35724283
L13146718 35952903
" />
<path d="M14532888 34847933
L13014948 35724283
" />
<path d="M7090138 35724693
L5571528 34847933
" />
<path d="M6959778 35954073
L7090138 35724693
" />
<path d="M5439628 35076413
L6959778 35954073
" />
<path d="M5571528 34847933
L5439628 35076413
" />
<path d="M12791448 33106493
L12562968 32974553
" />
<path d="M11915098 34624383
L12791448 33106493
" />
<path d="M11686478 34492663
L11915098 34624383
" />
<path d="M12562968 32974553
L11686478 34492663
" />
<path d="M8419108 34494743
L7541448 32974553
" />
<path d="M8189728 34625063
L8419108 34494743
" />
<path d="M7312968 33106493
L8189728 34625063
" />
<path d="M7541448 32974553
L7312968 33106493
" />
<path d="M10184108 32337473
L9920268 32337173
" />
<path d="M10184108 34090263
L10184108 32337473
" />
<path d="M10052158 34087263
L10184108 34090263
" />
<path d="M9920268 34093263
L10052158 34087263
" />
<path d="M9920268 32337173
L9920268 34093263
" />
</g>
<g style="fill:#000000; fill-opacity:1.0; 
stroke:#000000; stroke-width:1.000000; stroke-opacity:1; 
stroke-linecap:round; stroke-linejoin:round;">
<circle cx="8189728.000000" cy="23549283.000000" r="65000.000000" /> 
</g>
<g style="fill:#000000; fill-opacity:1.0; 
stroke:#000000; stroke-width:130000.000000; stroke-opacity:1; 
stroke-linecap:round; stroke-linejoin:round;">
</g>
<g style="fill:#000000; fill-opacity:0.0; 
stroke:#000000; stroke-width:130000.000000; stroke-opacity:1; 
stroke-linecap:round; stroke-linejoin:round;">
<path d="M8419108 23679603
L8189728 23549283
" />
<path d="M7541448 25199793
L8419108 23679603
" />
<path d="M7312968 25067853
L7541448 25199793
" />
<path d="M8189728 23549283
L7312968 25067853
" />
<path d="M12791448 25067853
L11914688 23549243
" />
<path d="M12562968 25199793
L12791448 25067853
" />
<path d="M11685308 23679603
L12562968 25199793
" />
<path d="M11914688 23549243
L11685308 23679603
" />
<path d="M7090138 22449653
L6959778 22220273
" />
<path d="M5571528 23326413
L7090138 22449653
" />
<path d="M5439628 23097933
L5571528 23326413
" />
<path d="M6959778 22220273
L5439628 23097933
" />
<path d="M14664778 23097933
L13144588 22220223
" />
<path d="M14532888 23326413
L14664778 23097933
" />
<path d="M13014228 22449653
L14532888 23326413
" />
<path d="M13144588 22220223
L13014228 22449653
" />
<path d="M15302508 20455273
L13549418 20455273
" />
<path d="M15302508 20719113
L15302508 20455273
" />
<path d="M13546418 20719113
L15302508 20719113
" />
<path d="M13552418 20587173
L13546418 20719113
" />
<path d="M13549418 20455273
L13552418 20587173
" />
<path d="M6558298 20455273
L4802165 20455273
" />
<path d="M6552298 20587173
L6558298 20455273
" />
<path d="M6558298 20719113
L6552298 20587173
" />
<path d="M4802165 20719113
L6558298 20719113
" />
<path d="M4802165 20455273
L4802165 20719113
" />
<path d="M14664778 18076413
L14532888 17847933
" />
<path d="M13146718 18952903
L14664778 18076413
" />
<path d="M13014948 18724283
L13146718 18952903
" />
<path d="M14532888 17847933
L13014948 18724283
" />
<path d="M7090138 18724693
L5571528 17847933
" />
<path d="M6959778 18954073
L7090138 18724693
" />
<path d="M5439628 18076413
L6959778 18954073
" />
<path d="M5571528 17847933
L5439628 18076413
" />
<path d="M12791448 16106493
L12562968 15974553
" />
<path d="M11915098 17624383
L12791448 16106493
" />
<path d="M11686478 17492663
L11915098 17624383
" />
<path d="M12562968 15974553
L11686478 17492663
" />
<path d="M8419108 17494743
L7541448 15974553
" />
<path d="M8189728 17625063
L8419108 17494743
" />
<path d="M7312968 16106493
L8189728 17625063
" />
<path d="M7541448 15974553
L7312968 16106493
" />
<path d="M10184108 15337473
L9920268 15337173
" />
<path d="M10184108 17090263
L10184108 15337473
" />
<path d="M10052158 17087263
L10184108 17090263
" />
<path d="M9920268 17093263
L10052158 17087263
" />
<path d="M9920268 15337173
L9920268 17093263
" />
<path d="M28931404 96552071
L28587016 96552071
" />
<path d="M28931404 94867979
L28931404 96552071
" />
<path d="M29496141 94867979
L28931404 94867979
" />
<path d="M29496141 94564813
L29496141 94867979
" />
<path d="M28051135 94564813
L29496141 94564813
" />
<path d="M28051135 94867979
L28051135 94564813
" />
<path d="M28587016 94867979
L28051135 94867979
" />
<path d="M28587016 96552071
L28587016 94867979
" />
<path d="M27180607.131793 96593689.556828 A688147.000000 688147.000000 0.0 0 0 27675081.046697 96411730.050584" />
<path d="M27675048.055826 96411700.064740 A746319.000000 746319.000000 0.0 0 0 27866387.371603 95847180.968711" />
<path d="M27866387 94564813
L27866387 95847181
" />
<path d="M27515628 94564813
L27866387 94564813
" />
<path d="M27515628 95850179
L27515628 94564813
" />
<path d="M27442197.036976 96182211.186439 A629115.000000 629115.000000 0.0 0 0 27515628.301538 95850178.983092" />
<path d="M27183604.010147 96300264.043953 A279980.000000 279980.000000 0.0 0 0 27442178.244609 96182201.170978" />
<path d="M26928572.524040 96182215.504564 A271784.000000 271784.000000 0.0 0 0 27183605.964490 96300244.678157" />
<path d="M26858340.758299 95859922.543897 A629362.000000 629362.000000 0.0 0 0 26928593.925009 96182201.039020" />
<path d="M26858330 94711712
L26858330 95859922
" />
<path d="M26863202.333336 94636763.209310 A414209.000000 414209.000000 0.0 0 0 26858329.536817 94711712.011983" />
<path d="M26883807.167997 94593663.979232 A97300.000000 97300.000000 0.0 0 0 26863200.516164 94636762.902943" />
<path d="M26883812 94564813
L26883812 94593668
" />
<path d="M26497827 94564813
L26883812 94564813
" />
<path d="M26497827 95856550
L26497827 94564813
" />
<path d="M26497872.928432 95856552.786600 A776853.000000 776853.000000 0.0 0 0 26674893.305083 96398988.747438" />
<path d="M26674856.876373 96399024.212542 A648871.000000 648871.000000 0.0 0 0 27180607.970336 96593667.532707" />
<path d="M25306880.318753 96113442.106619 A312374.000000 312374.000000 0.0 0 0 25592450.000791 96296872.235281" />
<path d="M25206471.909646 95556756.414682 A1197579.000000 1197579.000000 0.0 0 0 25306896.096582 96113434.957227" />
<path d="M25306886.399315 95019557.701478 A1167875.000000 1167875.000000 0.0 0 0 25206465.016477 95556755.999153" />
<path d="M25592449.885483 94829730.371314 A311873.000000 311873.000000 0.0 0 0 25306895.706888 95019561.875365" />
<path d="M25873133.190460 95019561.497426 A310695.000000 310695.000000 0.0 0 0 25592450.007604 94829754.574409" />
<path d="M25975074.484134 95556756.647874 A1153024.000000 1153024.000000 0.0 0 0 25873131.953308 95019562.021241" />
<path d="M25873117.210285 96113428.345580 A1182329.000000 1182329.000000 0.0 0 0 25975062.411170 95556755.975074" />
<path d="M25592449.726085 96296844.054180 A311159.000000 311159.000000 0.0 0 0 25873131.773225 96113434.897907" />
<path d="M25592449.309530 96590308.275420 A632462.000000 632462.000000 0.0 0 0 26142759.086056 96322354.060478" />
<path d="M26142764.102803 96322357.124518 A1306322.000000 1306322.000000 0.0 0 0 26332565.654849 95560128.021196" />
<path d="M26332568.020405 95560128.115423 A1296178.000000 1296178.000000 0.0 0 0 26142758.594479 94807458.249257" />
<path d="M26142748.168667 94807465.481440 A629979.000000 629979.000000 0.0 0 0 25592449.985279 94536331.710112" />
<path d="M25592451.566838 94536304.112145 A631991.000000 631991.000000 0.0 0 0 25037455.745582 94807457.823787" />
<path d="M25037434.633539 94807444.997369 A1305077.000000 1305077.000000 0.0 0 0 24849335.619548 95560128.021674" />
<path d="M24849314.772263 95560126.702080 A1315337.000000 1315337.000000 0.0 0 0 25037455.642472 96322354.216776" />
<path d="M25037445.772871 96322361.208351 A634537.000000 634537.000000 0.0 0 0 25592449.998503 96590294.973917" />
<path d="M22530805 96558442
L22288721 96558442
" />
<path d="M23162620 94564813
L22530805 96558442
" />
<path d="M22814859 94564813
L23162620 94564813
" />
<path d="M22425877 95961852
L22814859 94564813
" />
<path d="M22008039 94564813
L22425877 95961852
" />
<path d="M21650535 94564813
L22008039 94564813
" />
<path d="M22288721 96558442
L21650535 94564813
" />
<path d="M20123085 96552071
L20123085 94564813
" />
<path d="M20448361 96552071
L20123085 96552071
" />
<path d="M20448361 95158030
L20448361 96552071
" />
<path d="M21143883 96552071
L20448361 95158030
" />
<path d="M21478528 96552071
L21143883 96552071
" />
<path d="M21478528 94711712
L21478528 96552071
" />
<path d="M21483402.725025 94636763.427989 A414011.000000 414011.000000 0.0 0 0 21478527.603050 94711712.010274" />
<path d="M21504372.419042 94593657.255135 A95379.000000 95379.000000 0.0 0 0 21483399.634761 94636762.926417" />
<path d="M21504385 94564813
L21504385 94593668
" />
<path d="M21153252 94564813
L21504385 94564813
" />
<path d="M21172364 95872663
L21153252 94564813
" />
<path d="M20499326 94564813
L21172364 95872663
" />
<path d="M20123085 94564813
L20499326 94564813
" />
<path d="M19769328 96552071
L18633859 96552071
" />
<path d="M19769328 96261646
L19769328 96552071
" />
<path d="M19364232 96261646
L19769328 96261646
" />
<path d="M19364232 94855238
L19364232 96261646
" />
<path d="M19753214 94855238
L19364232 94855238
" />
<path d="M19753214 94564813
L19753214 94855238
" />
<path d="M18655969 94564813
L19753214 94564813
" />
<path d="M18655969 94855238
L18655969 94564813
" />
<path d="M19022841 94855238
L18655969 94855238
" />
<path d="M19022841 96261646
L19022841 94855238
" />
<path d="M18633859 96261646
L19022841 96261646
" />
<path d="M18633859 96552071
L18633859 96261646
" />
<path d="M25823666 113552071
L25479278 113552071
" />
<path d="M25823666 111867979
L25823666 113552071
" />
<path d="M26388403 111867979
L25823666 111867979
" />
<path d="M26388403 111564813
L26388403 111867979
" />
<path d="M24943396 111564813
L26388403 111564813
" />
<path d="M24943396 111867979
L24943396 111564813
" />
<path d="M25479278 111867979
L24943396 111867979
" />
<path d="M25479278 113552071
L25479278 111867979
" />
<path d="M24072870.280310 113593661.049686 A688120.000000 688120.000000 0.0 0 0 24567341.676164 113411729.649182" />
<path d="M24567320.047374 113411710.054591 A746379.000000 746379.000000 0.0 0 0 24758647.589448 112847181.034566" />
<path d="M24758648 111564813
L24758648 112847181
" />
<path d="M24407889 111564813
L24758648 111564813
" />
<path d="M24407889 112850179
L24407889 111564813
" />
<path d="M24334464.621718 113182214.173290 A629176.000000 629176.000000 0.0 0 0 24407889.397051 112850178.977738" />
<path d="M24075869.644494 113300229.281846 A279949.000000 279949.000000 0.0 0 0 24334440.363316 113182201.253993" />
<path d="M23820863.623057 113182195.177115 A271780.000000 271780.000000 0.0 0 0 24075867.982580 113300244.841915" />
<path d="M23750605.703521 112859922.743305 A629397.000000 629397.000000 0.0 0 0 23820854.567589 113182201.224979" />
<path d="M23750591 111711712
L23750591 112859922
" />
<path d="M23755465.282421 111636763.358442 A414048.000000 414048.000000 0.0 0 0 23750590.590669 111711712.010594" />
<path d="M23776063.180001 111593659.001121 A97337.000000 97337.000000 0.0 0 0 23755462.769170 111636762.953714" />
<path d="M23776074 111564813
L23776074 111593668
" />
<path d="M23390089 111564813
L23776074 111564813
" />
<path d="M23390089 112856550
L23390089 111564813
" />
<path d="M23390120.069558 112856551.885223 A776806.000000 776806.000000 0.0 0 0 23567154.721719 113398989.230398" />
<path d="M23567139.793560 113399003.821702 A648869.000000 648869.000000 0.0 0 0 24072869.996080 113593667.938199" />
<path d="M22199173.844717 113113427.820256 A312374.000000 312374.000000 0.0 0 0 22484711.001178 113296872.363939" />
<path d="M22098729.029787 112556756.121824 A1197522.000000 1197522.000000 0.0 0 0 22199158.380658 113113434.831412" />
<path d="M22199153.339950 112019559.913431 A1167813.000000 1167813.000000 0.0 0 0 22098727.098129 112556755.994955" />
<path d="M22484711.142947 111829787.093064 A311816.000000 311816.000000 0.0 0 0 22199157.656115 112019561.853744" />
<path d="M22765343.336536 112019582.961860 A310696.000000 310696.000000 0.0 0 0 22484711.005960 111829754.670037" />
<path d="M22867339.426414 112556756.852490 A1152989.000000 1152989.000000 0.0 0 0 22765393.407845 112019561.814462" />
<path d="M22765375.078495 113113426.936185 A1182290.000000 1182290.000000 0.0 0 0 22867323.339832 112556755.979398" />
<path d="M22484711.274413 113296899.447616 A311215.000000 311215.000000 0.0 0 0 22765393.115960 113113435.052193" />
<path d="M22484712.026192 113590275.293168 A632431.000000 632431.000000 0.0 0 0 23035021.159639 113322354.112198" />
<path d="M23035021.333120 113322354.203981 A1306284.000000 1306284.000000 0.0 0 0 23224827.583528 112560128.025577" />
<path d="M23224835.948878 112560128.454120 A1296146.000000 1296146.000000 0.0 0 0 23035020.912553 111807458.053752" />
<path d="M23035037.539713 111807446.574817 A629981.000000 629981.000000 0.0 0 0 22484710.984201 111536331.689268" />
<path d="M22484709.511330 111536358.451039 A631940.000000 631940.000000 0.0 0 0 21929717.772153 111807457.842171" />
<path d="M21929703.499162 111807449.174976 A1305016.000000 1305016.000000 0.0 0 0 21741596.718137 112560128.016058" />
<path d="M21741567.900677 112560126.220707 A1315284.000000 1315284.000000 0.0 0 0 21929717.628974 113322354.224973" />
<path d="M21929734.796165 113322342.162487 A634535.000000 634535.000000 0.0 0 0 22484711.011836 113590295.206489" />
<path d="M14987054 63569684
L14987054 61582426
" />
<path d="M16263051 63569684
L14987054 63569684
" />
<path d="M16263051 63276261
L16263051 63569684
" />
<path d="M15350928 63276261
L16263051 63276261
" />
<path d="M15350928 61729325
L15350928 63276261
" />
<path d="M15355611.539323 61654375.779626 A430506.000000 430506.000000 0.0 0 0 15350927.614495 61729325.009607" />
<path d="M15379416.731472 61611289.073224 A82676.000000 82676.000000 0.0 0 0 15355612.588677 61654375.915569" />
<path d="M15379409 61582426
L15379409 61611281
" />
<path d="M14987054 61582426
L15379409 61582426
" />
<path d="M14142010 63576055
L13899926 63576055
" />
<path d="M14773825 61582426
L14142010 63576055
" />
<path d="M14426064 61582426
L14773825 61582426
" />
<path d="M14037082 62979465
L14426064 61582426
" />
<path d="M13619244 61582426
L14037082 62979465
" />
<path d="M13261740 61582426
L13619244 61582426
" />
<path d="M13899926 63576055
L13261740 61582426
" />
<path d="M11797996 63569684
L11797996 61582426
" />
<path d="M13073994 63569684
L11797996 63569684
" />
<path d="M13073994 63276261
L13073994 63569684
" />
<path d="M12161871 63276261
L13073994 63276261
" />
<path d="M12161871 61729325
L12161871 63276261
" />
<path d="M12166556.099897 61654376.165998 A430363.000000 430363.000000 0.0 0 0 12161870.658879 61729325.008504" />
<path d="M12190367.686195 61611298.436576 A82634.000000 82634.000000 0.0 0 0 12166555.429386 61654376.088185" />
<path d="M12190351 61582426
L12190351 61611281
" />
<path d="M11797996 61582426
L12190351 61582426
" />
<path d="M8608939 63569684
L8608939 63301743
" />
<path d="M9856081 63569684
L8608939 63569684
" />
<path d="M9856081 63244408
L9856081 63569684
" />
<path d="M9827601 63244408
L9856081 63244408
" />
<path d="M9784503.811879 63269885.652823 A94841.000000 94841.000000 0.0 0 0 9827601.049273 63244408.047759" />
<path d="M9709556.824353 63276266.257391 A318744.000000 318744.000000 0.0 0 0 9784505.002662 63269890.012923" />
<path d="M9081114 63276261
L9709557 63276261
" />
<path d="M9484711 62861609
L9081114 63276261
" />
<path d="M9484715.548675 62861613.476402 A1730932.000000 1730932.000000 0.0 0 0 9754150.804122 62505790.888155" />
<path d="M9754147.414773 62505789.027261 A771632.000000 771632.000000 0.0 0 0 9849710.575978 62128050.003160" />
<path d="M9849685.015591 62128049.324132 A544169.000000 544169.000000 0.0 0 0 9766891.726244 61825071.171444" />
<path d="M9766884.248585 61825076.033541 A569802.000000 569802.000000 0.0 0 0 9543732.797206 61625708.405767" />
<path d="M9543732.024033 61625709.945906 A676819.000000 676819.000000 0.0 0 0 9231010.996520 61553944.746474" />
<path d="M9231011.063701 61553935.863940 A776083.000000 776083.000000 0.0 0 0 8846712.802468 61652689.646886" />
<path d="M8846709.294410 61652683.376848 A761453.000000 761453.000000 0.0 0 0 8560972.390013 61933184.227779" />
<path d="M8809800 62124678
L8560972 61933184
" />
<path d="M8832285 62140792
L8809800 62124678
" />
<path d="M8851397 62118307
L8832285 62140792
" />
<path d="M8856280.796997 62070531.078628 A104876.000000 104876.000000 0.0 0 0 8851397.414545 62118306.946163" />
<path d="M8892988.579442 62003632.934682 A366543.000000 366543.000000 0.0 0 0 8856268.902712 62070526.959127" />
<path d="M9042696.111853 61888761.343051 A396837.000000 396837.000000 0.0 0 0 8892992.660948 62003635.727928" />
<path d="M9227638.008753 61853738.369329 A471107.000000 471107.000000 0.0 0 0 9042702.895783 61888776.745281" />
<path d="M9508361.112330 62128055.383717 A245338.000000 245338.000000 0.0 0 0 9227638.001158 61853739.007494" />
<path d="M9454188.261005 62375201.507657 A578727.000000 578727.000000 0.0 0 0 9508320.466216 62128049.997785" />
<path d="M9288351.204626 62620653.671349 A1081895.000000 1081895.000000 0.0 0 0 9454170.369507 62375193.181598" />
<path d="M9007664 62914073
L9288346 62620649
" />
<path d="M8608939 63301743
L9007664 62914073
" />
<path d="M5356175 63569684
L5356175 61582426
" />
<path d="M5681451 63569684
L5356175 63569684
" />
<path d="M5681451 62175643
L5681451 63569684
" />
<path d="M6376973 63569684
L5681451 62175643
" />
<path d="M6711618 63569684
L6376973 63569684
" />
<path d="M6711618 61729325
L6711618 63569684
" />
<path d="M6716490.613030 61654376.096260 A414021.000000 414021.000000 0.0 0 0 6711617.936145 61729325.001655" />
<path d="M6737456.456846 61611265.168583 A95386.000000 95386.000000 0.0 0 0 6716489.866803 61654375.973187" />
<path d="M6737475 61582426
L6737475 61611281
" />
<path d="M6386342 61582426
L6737475 61582426
" />
<path d="M6405453 62890276
L6386342 61582426
" />
<path d="M5732416 61582426
L6405453 62890276
" />
<path d="M5356175 61582426
L5732416 61582426
" />
<path d="M5002418 63569684
L3866949 63569684
" />
<path d="M5002418 63279259
L5002418 63569684
" />
<path d="M4597322 63279259
L5002418 63279259
" />
<path d="M4597322 61872851
L4597322 63279259
" />
<path d="M4986304 61872851
L4597322 61872851
" />
<path d="M4986304 61582426
L4986304 61872851
" />
<path d="M3889058 61582426
L4986304 61582426
" />
<path d="M3889058 61872851
L3889058 61582426
" />
<path d="M4255931 61872851
L3889058 61872851
" />
<path d="M4255931 63279259
L4255931 61872851
" />
<path d="M3866949 63279259
L4255931 63279259
" />
<path d="M3866949 63569684
L3866949 63279259
" />
<path d="M25812424 63572870
L25812424 63304929
" />
<path d="M27059566 63572870
L25812424 63572870
" />
<path d="M27059566 63247593
L27059566 63572870
" />
<path d="M27031086 63247593
L27059566 63247593
" />
<path d="M26987987.879130 63273068.236545 A94820.000000 94820.000000 0.0 0 0 27031086.200510 63247593.194347" />
<path d="M26913041.973035 63279446.806176 A318825.000000 318825.000000 0.0 0 0 26987989.960897 63273075.810067" />
<path d="M26284599 63279446
L26913042 63279446
" />
<path d="M26688197 62864794
L26284599 63279446
" />
<path d="M26688201.904891 62864798.826954 A1730912.000000 1730912.000000 0.0 0 0 26957636.206971 62508976.118179" />
<path d="M26957637.998417 62508977.099591 A771618.000000 771618.000000 0.0 0 0 27053196.471083 62131235.996481" />
<path d="M27053181.370523 62131235.619846 A544165.000000 544165.000000 0.0 0 0 26970378.094140 61828256.941039" />
<path d="M26970378.733221 61828256.523833 A569808.000000 569808.000000 0.0 0 0 26747217.878755 61628894.242620" />
<path d="M26747216.395099 61628897.199593 A676734.000000 676734.000000 0.0 0 0 26434495.999457 61557129.960520" />
<path d="M26434496.099016 61557115.759260 A776103.000000 776103.000000 0.0 0 0 26050198.004598 61655875.008220" />
<path d="M26050194.496712 61655868.738543 A761473.000000 761473.000000 0.0 0 0 25764457.401449 61936370.234461" />
<path d="M26013286 62127863
L25764457 61936370
" />
<path d="M26035770 62143977
L26013286 62127863
" />
<path d="M26054882 62121492
L26035770 62143977
" />
<path d="M26059771.232363 62073718.959353 A104889.000000 104889.000000 0.0 0 0 26054882.359594 62121491.953358" />
<path d="M26096481.825032 62006823.652815 A366693.000000 366693.000000 0.0 0 0 26059754.072198 62073713.030346" />
<path d="M26246180.247787 61891945.379979 A396858.000000 396858.000000 0.0 0 0 26096477.728755 62006820.782336" />
<path d="M26431123.053169 61856920.160268 A471125.000000 471125.000000 0.0 0 0 26246188.137245 61891963.335425" />
<path d="M26711879.518129 62131245.754566 A245355.000000 245355.000000 0.0 0 0 26431123.018701 61856924.120998" />
<path d="M26657677.731185 62378388.589932 A578712.000000 578712.000000 0.0 0 0 26711805.399351 62131235.998093" />
<path d="M26491837.033604 62623839.517841 A1081875.000000 1081875.000000 0.0 0 0 26657655.439629 62378378.216057" />
<path d="M26211150 62917258
L26491832 62623835
" />
<path d="M25812424 63304929
L26211150 62917258
" />
<path d="M22559660 63572870
L22559660 61585611
" />
<path d="M22884936 63572870
L22559660 63572870
" />
<path d="M22884936 62178828
L22884936 63572870
" />
<path d="M23580458 63572870
L22884936 62178828
" />
<path d="M23915103 63572870
L23580458 63572870
" />
<path d="M23915103 61732510
L23915103 63572870
" />
<path d="M23919977.732500 61657561.429150 A414036.000000 414036.000000 0.0 0 0 23915102.542962 61732510.011826" />
<path d="M23940943.850856 61614452.212006 A95404.000000 95404.000000 0.0 0 0 23919974.539303 61657560.907201" />
<path d="M23940960 61585611
L23940960 61614466
" />
<path d="M23589827 61585611
L23940960 61585611
" />
<path d="M23608939 62893462
L23589827 61585611
" />
<path d="M22935901 61585611
L23608939 62893462
" />
<path d="M22559660 61585611
L22935901 61585611
" />
<path d="M22205903 63572870
L21070434 63572870
" />
<path d="M22205903 63282444
L22205903 63572870
" />
<path d="M21800807 63282444
L22205903 63282444
" />
<path d="M21800807 61876036
L21800807 63282444
" />
<path d="M22189789 61876036
L21800807 61876036
" />
<path d="M22189789 61585611
L22189789 61876036
" />
<path d="M21092544 61585611
L22189789 61585611
" />
<path d="M21092544 61876036
L21092544 61585611
" />
<path d="M21459416 61876036
L21092544 61876036
" />
<path d="M21459416 63282444
L21459416 61876036
" />
<path d="M21070434 63282444
L21459416 63282444
" />
<path d="M21070434 63572870
L21070434 63282444
" />
<path d="M14987054 46558629
L14987054 44571371
" />
<path d="M16263051 46558629
L14987054 46558629
" />
<path d="M16263051 46265206
L16263051 46558629
" />
<path d="M15350928 46265206
L16263051 46265206
" />
<path d="M15350928 44718270
L15350928 46265206
" />
<path d="M15355603.914530 44643319.630223 A430507.000000 430507.000000 0.0 0 0 15350927.737874 44718270.006560" />
<path d="M15379400.478102 44600217.108116 A82667.000000 82667.000000 0.0 0 0 15355612.552750 44643320.908443" />
<path d="M15379409 44571371
L15379409 44600226
" />
<path d="M14987054 44571371
L15379409 44571371
" />
<path d="M14142010 46565000
L13899926 46565000
" />
<path d="M14773825 44571371
L14142010 46565000
" />
<path d="M14426064 44571371
L14773825 44571371
" />
<path d="M14037082 45968410
L14426064 44571371
" />
<path d="M13619244 44571371
L14037082 45968410
" />
<path d="M13261740 44571371
L13619244 44571371
" />
<path d="M13899926 46565000
L13261740 44571371
" />
<path d="M11797996 46558629
L11797996 44571371
" />
<path d="M13073994 46558629
L11797996 46558629
" />
<path d="M13073994 46265206
L13073994 46558629
" />
<path d="M12161871 46265206
L13073994 46265206
" />
<path d="M12161871 44718270
L12161871 46265206
" />
<path d="M12166548.473035 44643320.015629 A430364.000000 430364.000000 0.0 0 0 12161870.782630 44718270.005441" />
<path d="M12190351.434676 44600226.453881 A82625.000000 82625.000000 0.0 0 0 12166555.389143 44643321.079704" />
<path d="M12190351 44571371
L12190351 44600226
" />
<path d="M11797996 44571371
L12190351 44571371
" />
<path d="M9450985 46558629
L9090482 46558629
" />
<path d="M9450985 44571371
L9450985 46558629
" />
<path d="M9183044 44571371
L9450985 44571371
" />
<path d="M8653533 44852053
L9183044 44571371
" />
<path d="M8730355 45091513
L8653533 44852053
" />
<path d="M9090482 44963726
L8730355 45091513
" />
<path d="M9090482 46558629
L9090482 44963726
" />
<path d="M5356175 46558629
L5356175 44571371
" />
<path d="M5681451 46558629
L5356175 46558629
" />
<path d="M5681451 45164588
L5681451 46558629
" />
<path d="M6376973 46558629
L5681451 45164588
" />
<path d="M6711618 46558629
L6376973 46558629
" />
<path d="M6711618 44718270
L6711618 46558629
" />
<path d="M6716482.731362 44643319.859456 A414022.000000 414022.000000 0.0 0 0 6711618.104235 44718269.997288" />
<path d="M6737475.257772 44600226.220272 A95397.000000 95397.000000 0.0 0 0 6716489.738660 44643320.947237" />
<path d="M6737475 44571371
L6737475 44600226
" />
<path d="M6386342 44571371
L6737475 44571371
" />
<path d="M6405453 45879221
L6386342 44571371
" />
<path d="M5732416 44571371
L6405453 45879221
" />
<path d="M5356175 44571371
L5732416 44571371
" />
<path d="M5002418 46558629
L3866949 46558629
" />
<path d="M5002418 46268204
L5002418 46558629
" />
<path d="M4597322 46268204
L5002418 46268204
" />
<path d="M4597322 44861796
L4597322 46268204
" />
<path d="M4986304 44861796
L4597322 44861796
" />
<path d="M4986304 44571371
L4986304 44861796
" />
<path d="M3889058 44571371
L4986304 44571371
" />
<path d="M3889058 44861796
L3889058 44571371
" />
<path d="M4255931 44861796
L3889058 44861796
" />
<path d="M4255931 46268204
L4255931 44861796
" />
<path d="M3866949 46268204
L4255931 46268204
" />
<path d="M3866949 46558629
L3866949 46268204
" />
<path d="M26857018 46565000
L26496516 46565000
" />
<path d="M26857018 44577741
L26857018 46565000
" />
<path d="M26589077 44577741
L26857018 44577741
" />
<path d="M26059566 44858423
L26589077 44577741
" />
<path d="M26136388 45097884
L26059566 44858423
" />
<path d="M26496516 44970096
L26136388 45097884
" />
<path d="M26496516 46565000
L26496516 44970096
" />
<path d="M22762208 46565000
L22762208 44577741
" />
<path d="M23087485 46565000
L22762208 46565000
" />
<path d="M23087485 45170958
L23087485 46565000
" />
<path d="M23783006 46565000
L23087485 45170958
" />
<path d="M24117651 46565000
L23783006 46565000
" />
<path d="M24117651 44724640
L24117651 46565000
" />
<path d="M24122521.555868 44649691.773276 A413988.000000 413988.000000 0.0 0 0 24117651.335956 44724639.991281" />
<path d="M24143524.951539 44606609.643890 A95370.000000 95370.000000 0.0 0 0 24122523.128945 44649692.026082" />
<path d="M24143509 44577741
L24143509 44606596
" />
<path d="M23792375 44577741
L24143509 44577741
" />
<path d="M23811487 45885592
L23792375 44577741
" />
<path d="M23138450 44577741
L23811487 45885592
" />
<path d="M22762208 44577741
L23138450 44577741
" />
<path d="M22408451 46565000
L21272982 46565000
" />
<path d="M22408451 46274575
L22408451 46565000
" />
<path d="M22003355 46274575
L22408451 46274575
" />
<path d="M22003355 44868167
L22003355 46274575
" />
<path d="M22392337 44868167
L22003355 44868167
" />
<path d="M22392337 44577741
L22392337 44868167
" />
<path d="M21295092 44577741
L22392337 44577741
" />
<path d="M21295092 44868167
L21295092 44577741
" />
<path d="M21661965 44868167
L21295092 44868167
" />
<path d="M21661965 46274575
L21661965 44868167
" />
<path d="M21272982 46274575
L21661965 46274575
" />
<path d="M21272982 46565000
L21272982 46274575
" />
<path d="M14987054 29553758
L14987054 27566499
" />
<path d="M16263051 29553758
L14987054 29553758
" />
<path d="M16263051 29260334
L16263051 29553758
" />
<path d="M15350928 29260334
L16263051 29260334
" />
<path d="M15350928 27713398
L15350928 29260334
" />
<path d="M15355617.471840 27638450.675104 A430405.000000 430405.000000 0.0 0 0 15350927.973479 27713398.000659" />
<path d="M15379426.757848 27595372.551178 A82681.000000 82681.000000 0.0 0 0 15355612.815828 27638449.962136" />
<path d="M15379409 27566499
L15379409 27595354
" />
<path d="M14987054 27566499
L15379409 27566499
" />
<path d="M14142010 29560128
L13899926 29560128
" />
<path d="M14773825 27566499
L14142010 29560128
" />
<path d="M14426064 27566499
L14773825 27566499
" />
<path d="M14037082 28963539
L14426064 27566499
" />
<path d="M13619244 27566499
L14037082 28963539
" />
<path d="M13261740 27566499
L13619244 27566499
" />
<path d="M13899926 29560128
L13261740 27566499
" />
<path d="M11797996 29553758
L11797996 27566499
" />
<path d="M13073994 29553758
L11797996 29553758
" />
<path d="M13073994 29260334
L13073994 29553758
" />
<path d="M12161871 29260334
L13073994 29260334
" />
<path d="M12161871 27713398
L12161871 29260334
" />
<path d="M12166562.034311 27638451.062310 A430262.000000 430262.000000 0.0 0 0 12161871.017659 27713397.999561" />
<path d="M12190357.086703 27595360.352183 A82738.000000 82738.000000 0.0 0 0 12166554.632283 27638449.924456" />
<path d="M12190351 27566499
L12190351 27595354
" />
<path d="M11797996 27566499
L12190351 27566499
" />
<path d="M8943927.442929 29062475.175892 A303434.000000 303434.000000 0.0 0 0 9224640.002770 29314671.954559" />
<path d="M9556287 28338468
L8943958 29062470
" />
<path d="M9569033.345720 28571183.019773 A1996047.000000 1996047.000000 0.0 0 0 9556287.445922 28338467.949336" />
<path d="M9483038.217561 29121684.913848 A1395506.000000 1395506.000000 0.0 0 0 9569027.680800 28571183.014704" />
<path d="M9224639.656948 29314654.546478 A276808.000000 276808.000000 0.0 0 0 9483024.913644 29121679.972577" />
<path d="M8966249.035572 28024244.787232 A1398261.000000 1398261.000000 0.0 0 0 8880252.068046 28571182.997049" />
<path d="M9224641.374987 27828125.388903 A277257.000000 277257.000000 0.0 0 0 8966255.027223 28024247.008322" />
<path d="M9505332.731004 28086639.347375 A305897.000000 305897.000000 0.0 0 0 9224639.972000 27828069.394815" />
<path d="M8892993 28813642
L9505322 28086641
" />
<path d="M8880255.112141 28571183.012786 A2146063.000000 2146063.000000 0.0 0 0 8892993.217807 28813641.976146" />
<path d="M9224638.856193 29592033.644572 A573669.000000 573669.000000 0.0 0 0 9720612.385185 29327226.245943" />
<path d="M9720597.878305 29327217.584825 A1319026.000000 1319026.000000 0.0 0 0 9904047.835371 28571183.010106" />
<path d="M9904049.976761 28571183.109702 A1353229.000000 1353229.000000 0.0 0 0 9720611.755964 27812330.142919" />
<path d="M9720560.053114 27812361.403285 A568558.000000 568558.000000 0.0 0 0 9224640.000834 27538019.050645" />
<path d="M9224639.827768 27538029.371865 A568549.000000 568549.000000 0.0 0 0 8728669.329217 27812330.199054" />
<path d="M8728667.859306 27812329.331964 A1353247.000000 1353247.000000 0.0 0 0 8545231.989487 28571183.000583" />
<path d="M8545219.151548 28571182.211303 A1319059.000000 1319059.000000 0.0 0 0 8728668.794449 29327226.122486" />
<path d="M8728654.060876 29327235.540340 A573618.000000 573618.000000 0.0 0 0 9224639.998113 29591980.913694" />
<path d="M5356175 29553758
L5356175 27566499
" />
<path d="M5681451 29553758
L5356175 29553758
" />
<path d="M5681451 28159716
L5681451 29553758
" />
<path d="M6376973 29553758
L5681451 28159716
" />
<path d="M6711618 29553758
L6376973 29553758
" />
<path d="M6711618 27713398
L6711618 29553758
" />
<path d="M6716495.586018 27638450.877489 A414020.000000 414020.000000 0.0 0 0 6711618.237503 27713397.993861" />
<path d="M6737465.990563 27595346.304742 A95391.000000 95391.000000 0.0 0 0 6716489.998556 27638449.999709" />
<path d="M6737475 27566499
L6737475 27595354
" />
<path d="M6386342 27566499
L6737475 27566499
" />
<path d="M6405453 28874350
L6386342 27566499
" />
<path d="M5732416 27566499
L6405453 28874350
" />
<path d="M5356175 27566499
L5732416 27566499
" />
<path d="M5002418 29553758
L3866949 29553758
" />
<path d="M5002418 29263332
L5002418 29553758
" />
<path d="M4597322 29263332
L5002418 29263332
" />
<path d="M4597322 27856924
L4597322 29263332
" />
<path d="M4986304 27856924
L4597322 27856924
" />
<path d="M4986304 27566499
L4986304 27856924
" />
<path d="M3889058 27566499
L4986304 27566499
" />
<path d="M3889058 27856924
L3889058 27566499
" />
<path d="M4255931 27856924
L3889058 27856924
" />
<path d="M4255931 29263332
L4255931 27856924
" />
<path d="M3866949 29263332
L4255931 29263332
" />
<path d="M3866949 29553758
L3866949 29263332
" />
<path d="M26123427.498717 29062475.505248 A303434.000000 303434.000000 0.0 0 0 26404141.995368 29314672.076001" />
<path d="M26735789 28338468
L26123460 29062470
" />
<path d="M26748535.345734 28571183.019773 A1996049.000000 1996049.000000 0.0 0 0 26735789.458625 28338467.947893" />
<path d="M26662540.335063 29121684.957523 A1395508.000000 1395508.000000 0.0 0 0 26748529.682916 28571183.014607" />
<path d="M26404141.695366 29314656.506792 A276810.000000 276810.000000 0.0 0 0 26662527.003049 29121680.000968" />
<path d="M26145751.152659 28024244.830667 A1398259.000000 1398259.000000 0.0 0 0 26059754.069923 28571182.996968" />
<path d="M26404143.422131 27828127.339587 A277255.000000 277255.000000 0.0 0 0 26145757.110777 28024247.033864" />
<path d="M26684833.765689 28086639.496048 A305898.000000 305898.000000 0.0 0 0 26404142.032736 27828068.538457" />
<path d="M26072495 28813642
L26684824 28086641
" />
<path d="M26059753.117257 28571182.996372 A2145465.000000 2145465.000000 0.0 0 0 26072494.799603 28813642.021954" />
<path d="M26404140.855433 29592033.688006 A573669.000000 573669.000000 0.0 0 0 26900112.674801 29327225.792359" />
<path d="M26900099.858432 29327218.168894 A1319028.000000 1319028.000000 0.0 0 0 27083549.839122 28571183.009876" />
<path d="M27083550.981365 28571183.054462 A1353230.000000 1353230.000000 0.0 0 0 26900112.874262 27812330.073638" />
<path d="M26900135.264914 27812316.537523 A568560.000000 568560.000000 0.0 0 0 26404141.994551 27538018.672485" />
<path d="M26404141.827180 27538029.405070 A568549.000000 568549.000000 0.0 0 0 25908169.596925 27812329.756289" />
<path d="M25908169.840513 27812329.906598 A1353245.000000 1353245.000000 0.0 0 0 25724733.992555 28571183.000413" />
<path d="M25724720.157177 28571182.150263 A1319058.000000 1319058.000000 0.0 0 0 25908169.915536 29327226.050332" />
<path d="M25908154.350572 29327235.993971 A573618.000000 573618.000000 0.0 0 0 26404141.997156 29591980.869979" />
<path d="M22535676 29553758
L22535676 27566499
" />
<path d="M22860953 29553758
L22535676 29553758
" />
<path d="M22860953 28159716
L22860953 29553758
" />
<path d="M23556475 29553758
L22860953 28159716
" />
<path d="M23891120 29553758
L23556475 29553758
" />
<path d="M23891120 27713398
L23891120 29553758
" />
<path d="M23895996.389425 27638450.846402 A414118.000000 414118.000000 0.0 0 0 23891120.204801 27713397.994708" />
<path d="M23916967.594691 27595345.966393 A95390.000000 95390.000000 0.0 0 0 23895991.017886 27638450.003606" />
<path d="M23916977 27566499
L23916977 27595354
" />
<path d="M23565843 27566499
L23916977 27566499
" />
<path d="M23584955 28874350
L23565843 27566499
" />
<path d="M22911918 27566499
L23584955 28874350
" />
<path d="M22535676 27566499
L22911918 27566499
" />
<path d="M22181920 29553758
L21046450 29553758
" />
<path d="M22181920 29263332
L22181920 29553758
" />
<path d="M21776823 29263332
L22181920 29263332
" />
<path d="M21776823 27856924
L21776823 29263332
" />
<path d="M22165806 27856924
L21776823 27856924
" />
<path d="M22165806 27566499
L22165806 27856924
" />
<path d="M21068560 27566499
L22165806 27566499
" />
<path d="M21068560 27856924
L21068560 27566499
" />
<path d="M21435433 27856924
L21068560 27856924
" />
<path d="M21435433 29263332
L21435433 27856924
" />
<path d="M21046450 29263332
L21435433 29263332
" />
<path d="M21046450 29553758
L21046450 29263332
" />
<path d="M22953889 9122991
L22590389 7898333
" />
<path d="M22220143 9122991
L22953889 9122991
" />
<path d="M22590389 7898333
L22220143 9122991
" />
<path d="M24108845 10565000
L23381095 10565000
" />
<path d="M22762770 6565000
L24108845 10565000
" />
<path d="M22418007 6565000
L22762770 6565000
" />
<path d="M21071933 10565000
L22418007 6565000
" />
<path d="M21786192 10565000
L21071933 10565000
" />
<path d="M22067248 9640136
L21786192 10565000
" />
<path d="M23106784 9640136
L22067248 9640136
" />
<path d="M23381095 10565000
L23106784 9640136
" />
<path d="M15631423 7215553
L15631423 8312798
" />
<path d="M16212274 7215553
L15631423 7215553
" />
<path d="M16671356.623645 7381539.628552 A594761.000000 594761.000000 0.0 0 0 16212274.028892 7215553.379697" />
<path d="M16824590.533530 7776916.795837 A562866.000000 562866.000000 0.0 0 0 16671332.900060 7381564.094230" />
<path d="M16671316.817462 8169255.439920 A511394.000000 511394.000000 0.0 0 0 16824602.622269 7776917.019662" />
<path d="M16212271.772367 8312827.264521 A649902.000000 649902.000000 0.0 0 0 16671332.747553 8169271.689182" />
<path d="M15631423 8312798
L16212274 8312798
" />
<path d="M15631423 10565000
L14904423 10565000
" />
<path d="M15631423 8912386
L15631423 10565000
" />
<path d="M16110344 8912386
L15631423 8912386
" />
<path d="M16913791 10565000
L16110344 8912386
" />
<path d="M17673019 10565000
L16913791 10565000
" />
<path d="M16818607 8842684
L17673019 10565000
" />
<path d="M16818607.919308 8842686.466159 A1070193.000000 1070193.000000 0.0 0 0 17210586.998547 8587484.998582" />
<path d="M17210596.713785 8587494.618376 A1232496.000000 1232496.000000 0.0 0 0 17472158.221105 8195129.092308" />
<path d="M17472144.670589 8195123.243481 A1125482.000000 1125482.000000 0.0 0 0 17564343.740915 7758179.997864" />
<path d="M17564379.406403 7758181.570722 A1111972.000000 1111972.000000 0.0 0 0 17226327.224605 6909387.767640" />
<path d="M17223680 6906902
L17226327 6909388
" />
<path d="M17221021 6904425
L17223680 6906902
" />
<path d="M17218351 6901958
L17221021 6904425
" />
<path d="M17215669 6899500
L17218351 6901958
" />
<path d="M17212974 6897053
L17215669 6899500
" />
<path d="M17210268 6894615
L17212974 6897053
" />
<path d="M17207550 6892187
L17210268 6894615
" />
<path d="M17204821 6889768
L17207550 6892187
" />
<path d="M17202079 6887359
L17204821 6889768
" />
<path d="M17199325 6884960
L17202079 6887359
" />
<path d="M17196560 6882571
L17199325 6884960
" />
<path d="M17193783 6880192
L17196560 6882571
" />
<path d="M17190994 6877822
L17193783 6880192
" />
<path d="M17188193 6875462
L17190994 6877822
" />
<path d="M17185380 6873111
L17188193 6875462
" />
<path d="M17182555 6870771
L17185380 6873111
" />
<path d="M17179718 6868440
L17182555 6870771
" />
<path d="M17176870 6866119
L17179718 6868440
" />
<path d="M17174009 6863807
L17176870 6866119
" />
<path d="M17171137 6861506
L17174009 6863807
" />
<path d="M17168253 6859214
L17171137 6861506
" />
<path d="M17165357 6856932
L17168253 6859214
" />
<path d="M17162449 6854659
L17165357 6856932
" />
<path d="M17159529 6852396
L17162449 6854659
" />
<path d="M17156598 6850143
L17159529 6852396
" />
<path d="M17153654 6847900
L17156598 6850143
" />
<path d="M17150699 6845666
L17153654 6847900
" />
<path d="M17147732 6843443
L17150699 6845666
" />
<path d="M17144753 6841229
L17147732 6843443
" />
<path d="M17141762 6839024
L17144753 6841229
" />
<path d="M17138759 6836830
L17141762 6839024
" />
<path d="M17135744 6834645
L17138759 6836830
" />
<path d="M17132718 6832470
L17135744 6834645
" />
<path d="M17129679 6830304
L17132718 6832470
" />
<path d="M17126629 6828148
L17129679 6830304
" />
<path d="M17123567 6826002
L17126629 6828148
" />
<path d="M17120493 6823866
L17123567 6826002
" />
<path d="M17117407 6821740
L17120493 6823866
" />
<path d="M17114309 6819623
L17117407 6821740
" />
<path d="M17111199 6817516
L17114309 6819623
" />
<path d="M17108078 6815419
L17111199 6817516
" />
<path d="M17104945 6813331
L17108078 6815419
" />
<path d="M17101799 6811253
L17104945 6813331
" />
<path d="M17098642 6809185
L17101799 6811253
" />
<path d="M17095473 6807127
L17098642 6809185
" />
<path d="M17092292 6805078
L17095473 6807127
" />
<path d="M17089099 6803039
L17092292 6805078
" />
<path d="M17085895 6801010
L17089099 6803039
" />
<path d="M17082678 6798991
L17085895 6801010
" />
<path d="M17079450 6796981
L17082678 6798991
" />
<path d="M17076210 6794981
L17079450 6796981
" />
<path d="M17072958 6792991
L17076210 6794981
" />
<path d="M17069694 6791010
L17072958 6792991
" />
<path d="M17066418 6789039
L17069694 6791010
" />
<path d="M17063130 6787078
L17066418 6789039
" />
<path d="M17059830 6785127
L17063130 6787078
" />
<path d="M17056519 6783186
L17059830 6785127
" />
<path d="M17053196 6781254
L17056519 6783186
" />
<path d="M17049860 6779332
L17053196 6781254
" />
<path d="M17046513 6777419
L17049860 6779332
" />
<path d="M17043154 6775517
L17046513 6777419
" />
<path d="M17039784 6773624
L17043154 6775517
" />
<path d="M17036401 6771740
L17039784 6773624
" />
<path d="M17033006 6769867
L17036401 6771740
" />
<path d="M17029600 6768003
L17033006 6769867
" />
<path d="M17026182 6766149
L17029600 6768003
" />
<path d="M17022751 6764305
L17026182 6766149
" />
<path d="M17019309 6762470
L17022751 6764305
" />
<path d="M17015856 6760646
L17019309 6762470
" />
<path d="M17012390 6758831
L17015856 6760646
" />
<path d="M17008912 6757025
L17012390 6758831
" />
<path d="M17005423 6755230
L17008912 6757025
" />
<path d="M17001921 6753444
L17005423 6755230
" />
<path d="M16998408 6751668
L17001921 6753444
" />
<path d="M16994883 6749901
L16998408 6751668
" />
<path d="M16991346 6748145
L16994883 6749901
" />
<path d="M16987797 6746398
L16991346 6748145
" />
<path d="M16984236 6744660
L16987797 6746398
" />
<path d="M16980663 6742933
L16984236 6744660
" />
<path d="M16977079 6741215
L16980663 6742933
" />
<path d="M16973483 6739507
L16977079 6741215
" />
<path d="M16969874 6737809
L16973483 6739507
" />
<path d="M16966254 6736120
L16969874 6737809
" />
<path d="M16962622 6734442
L16966254 6736120
" />
<path d="M16958978 6732773
L16962622 6734442
" />
<path d="M16955323 6731113
L16958978 6732773
" />
<path d="M16951655 6729464
L16955323 6731113
" />
<path d="M16947976 6727824
L16951655 6729464
" />
<path d="M16944284 6726194
L16947976 6727824
" />
<path d="M16940581 6724573
L16944284 6726194
" />
<path d="M16936866 6722962
L16940581 6724573
" />
<path d="M16933139 6721362
L16936866 6722962
" />
<path d="M16929400 6719770
L16933139 6721362
" />
<path d="M16925650 6718189
L16929400 6719770
" />
<path d="M16921887 6716617
L16925650 6718189
" />
<path d="M16918113 6715055
L16921887 6716617
" />
<path d="M16914326 6713503
L16918113 6715055
" />
<path d="M16910528 6711960
L16914326 6713503
" />
<path d="M16906718 6710427
L16910528 6711960
" />
<path d="M16902896 6708904
L16906718 6710427
" />
<path d="M16899063 6707391
L16902896 6708904
" />
<path d="M16895217 6705887
L16899063 6707391
" />
<path d="M16891359 6704393
L16895217 6705887
" />
<path d="M16887490 6702909
L16891359 6704393
" />
<path d="M16883609 6701435
L16887490 6702909
" />
<path d="M16879716 6699970
L16883609 6701435
" />
<path d="M16875811 6698515
L16879716 6699970
" />
<path d="M16871894 6697070
L16875811 6698515
" />
<path d="M16867965 6695634
L16871894 6697070
" />
<path d="M16864024 6694209
L16867965 6695634
" />
<path d="M16860072 6692793
L16864024 6694209
" />
<path d="M16856107 6691386
L16860072 6692793
" />
<path d="M16852131 6689990
L16856107 6691386
" />
<path d="M16848143 6688603
L16852131 6689990
" />
<path d="M16844143 6687226
L16848143 6688603
" />
<path d="M16840131 6685858
L16844143 6687226
" />
<path d="M16836108 6684501
L16840131 6685858
" />
<path d="M16832072 6683153
L16836108 6684501
" />
<path d="M16828025 6681815
L16832072 6683153
" />
<path d="M16823965 6680486
L16828025 6681815
" />
<path d="M16819894 6679167
L16823965 6680486
" />
<path d="M16815811 6677858
L16819894 6679167
" />
<path d="M16811716 6676559
L16815811 6677858
" />
<path d="M16807609 6675270
L16811716 6676559
" />
<path d="M16803491 6673990
L16807609 6675270
" />
<path d="M16799360 6672720
L16803491 6673990
" />
<path d="M16795218 6671460
L16799360 6672720
" />
<path d="M16791063 6670209
L16795218 6671460
" />
<path d="M16786897 6668968
L16791063 6670209
" />
<path d="M16782719 6667737
L16786897 6668968
" />
<path d="M16778529 6666516
L16782719 6667737
" />
<path d="M16774327 6665304
L16778529 6666516
" />
<path d="M16770114 6664102
L16774327 6665304
" />
<path d="M16765888 6662910
L16770114 6664102
" />
<path d="M16761651 6661727
L16765888 6662910
" />
<path d="M16757402 6660555
L16761651 6661727
" />
<path d="M16753141 6659392
L16757402 6660555
" />
<path d="M16748868 6658238
L16753141 6659392
" />
<path d="M16744583 6657095
L16748868 6658238
" />
<path d="M16740286 6655961
L16744583 6657095
" />
<path d="M16735977 6654837
L16740286 6655961
" />
<path d="M16731657 6653723
L16735977 6654837
" />
<path d="M16727324 6652618
L16731657 6653723
" />
<path d="M16722980 6651523
L16727324 6652618
" />
<path d="M16718624 6650438
L16722980 6651523
" />
<path d="M16714256 6649362
L16718624 6650438
" />
<path d="M16709876 6648297
L16714256 6649362
" />
<path d="M16705485 6647241
L16709876 6648297
" />
<path d="M16701081 6646195
L16705485 6647241
" />
<path d="M16696666 6645158
L16701081 6646195
" />
<path d="M16692238 6644131
L16696666 6645158
" />
<path d="M16687799 6643114
L16692238 6644131
" />
<path d="M16683348 6642107
L16687799 6643114
" />
<path d="M16678885 6641110
L16683348 6642107
" />
<path d="M16674410 6640122
L16678885 6641110
" />
<path d="M16669924 6639144
L16674410 6640122
" />
<path d="M16665425 6638175
L16669924 6639144
" />
<path d="M16660915 6637217
L16665425 6638175
" />
<path d="M16656392 6636268
L16660915 6637217
" />
<path d="M16651858 6635329
L16656392 6636268
" />
<path d="M16647312 6634399
L16651858 6635329
" />
<path d="M16642754 6633479
L16647312 6634399
" />
<path d="M16638185 6632570
L16642754 6633479
" />
<path d="M16633603 6631669
L16638185 6632570
" />
<path d="M16629009 6630779
L16633603 6631669
" />
<path d="M16624404 6629898
L16629009 6630779
" />
<path d="M16619787 6629027
L16624404 6629898
" />
<path d="M16615158 6628166
L16619787 6629027
" />
<path d="M16610517 6627314
L16615158 6628166
" />
<path d="M16605864 6626472
L16610517 6627314
" />
<path d="M16601199 6625640
L16605864 6626472
" />
<path d="M16596522 6624818
L16601199 6625640
" />
<path d="M16591834 6624005
L16596522 6624818
" />
<path d="M16587134 6623202
L16591834 6624005
" />
<path d="M16582421 6622409
L16587134 6623202
" />
<path d="M16577697 6621626
L16582421 6622409
" />
<path d="M16572961 6620852
L16577697 6621626
" />
<path d="M16568214 6620088
L16572961 6620852
" />
<path d="M16563454 6619334
L16568214 6620088
" />
<path d="M16558682 6618589
L16563454 6619334
" />
<path d="M16553899 6617854
L16558682 6618589
" />
<path d="M16549104 6617129
L16553899 6617854
" />
<path d="M16544296 6616414
L16549104 6617129
" />
<path d="M16539477 6615708
L16544296 6616414
" />
<path d="M16534646 6615013
L16539477 6615708
" />
<path d="M16529804 6614326
L16534646 6615013
" />
<path d="M16524949 6613650
L16529804 6614326
" />
<path d="M16520082 6612983
L16524949 6613650
" />
<path d="M16515204 6612326
L16520082 6612983
" />
<path d="M16510314 6611679
L16515204 6612326
" />
<path d="M16505411 6611042
L16510314 6611679
" />
<path d="M16500497 6610414
L16505411 6611042
" />
<path d="M16495572 6609796
L16500497 6610414
" />
<path d="M16490634 6609188
L16495572 6609796
" />
<path d="M16485684 6608589
L16490634 6609188
" />
<path d="M16480723 6608000
L16485684 6608589
" />
<path d="M16475749 6607421
L16480723 6608000
" />
<path d="M16470764 6606852
L16475749 6607421
" />
<path d="M16465767 6606292
L16470764 6606852
" />
<path d="M16460758 6605743
L16465767 6606292
" />
<path d="M16455737 6605202
L16460758 6605743
" />
<path d="M16450704 6604672
L16455737 6605202
" />
<path d="M16445660 6604151
L16450704 6604672
" />
<path d="M16440603 6603640
L16445660 6604151
" />
<path d="M16435535 6603139
L16440603 6603640
" />
<path d="M16430455 6602648
L16435535 6603139
" />
<path d="M16425363 6602166
L16430455 6602648
" />
<path d="M16420259 6601694
L16425363 6602166
" />
<path d="M16415143 6601232
L16420259 6601694
" />
<path d="M16410015 6600779
L16415143 6601232
" />
<path d="M16404876 6600336
L16410015 6600779
" />
<path d="M16399724 6599903
L16404876 6600336
" />
<path d="M16394561 6599480
L16399724 6599903
" />
<path d="M16389386 6599066
L16394561 6599480
" />
<path d="M16384199 6598662
L16389386 6599066
" />
<path d="M16379000 6598268
L16384199 6598662
" />
<path d="M16373789 6597884
L16379000 6598268
" />
<path d="M16368566 6597509
L16373789 6597884
" />
<path d="M16363332 6597144
L16368566 6597509
" />
<path d="M16358085 6596789
L16363332 6597144
" />
<path d="M16352827 6596443
L16358085 6596789
" />
<path d="M16347557 6596108
L16352827 6596443
" />
<path d="M16342275 6595782
L16347557 6596108
" />
<path d="M16336981 6595465
L16342275 6595782
" />
<path d="M16331675 6595159
L16336981 6595465
" />
<path d="M16326358 6594862
L16331675 6595159
" />
<path d="M16321028 6594575
L16326358 6594862
" />
<path d="M16315687 6594298
L16321028 6594575
" />
<path d="M16310333 6594030
L16315687 6594298
" />
<path d="M16304968 6593772
L16310333 6594030
" />
<path d="M16299591 6593524
L16304968 6593772
" />
<path d="M16294203 6593285
L16299591 6593524
" />
<path d="M16288802 6593057
L16294203 6593285
" />
<path d="M16283389 6592838
L16288802 6593057
" />
<path d="M16277965 6592628
L16283389 6592838
" />
<path d="M16272528 6592429
L16277965 6592628
" />
<path d="M16267080 6592239
L16272528 6592429
" />
<path d="M16261620 6592059
L16267080 6592239
" />
<path d="M16256148 6591889
L16261620 6592059
" />
<path d="M16250664 6591728
L16256148 6591889
" />
<path d="M16245169 6591577
L16250664 6591728
" />
<path d="M16239661 6591436
L16245169 6591577
" />
<path d="M16234142 6591305
L16239661 6591436
" />
<path d="M16228610 6591183
L16234142 6591305
" />
<path d="M16223067 6591071
L16228610 6591183
" />
<path d="M16217512 6590969
L16223067 6591071
" />
<path d="M16211945 6590877
L16217512 6590969
" />
<path d="M16206366 6590794
L16211945 6590877
" />
<path d="M16200776 6590721
L16206366 6590794
" />
<path d="M16195173 6590658
L16200776 6590721
" />
<path d="M16189559 6590604
L16195173 6590658
" />
<path d="M16183933 6590560
L16189559 6590604
" />
<path d="M16178294 6590526
L16183933 6590560
" />
<path d="M16172644 6590502
L16178294 6590526
" />
<path d="M16166983 6590487
L16172644 6590502
" />
<path d="M16161309 6590482
L16166983 6590487
" />
<path d="M14904423 6590482
L16161309 6590482
" />
<path d="M14904423 10565000
L14904423 6590482
" />
<path d="M14324322 10565000
L11753589 10565000
" />
<path d="M14324322 9978153
L14324322 10565000
" />
<path d="M12455107 9978153
L14324322 9978153
" />
<path d="M12455107 8791719
L12455107 9978153
" />
<path d="M14005791 8791719
L12455107 8791719
" />
<path d="M14005791 8198127
L14005791 8791719
" />
<path d="M12455107 8198127
L14005791 8198127
" />
<path d="M12455107 7177329
L12455107 8198127
" />
<path d="M14343808 7177329
L12455107 7177329
" />
<path d="M14343808 6590482
L14343808 7177329
" />
<path d="M11753589 6590482
L14343808 6590482
" />
<path d="M11753589 10565000
L11753589 6590482
" />
<path d="M9164119 10565000
L8424378 10565000
" />
<path d="M9852896 9193443
L9164119 10565000
" />
<path d="M10561159 10565000
L9852896 9193443
" />
<path d="M11327132 10565000
L10561159 10565000
" />
<path d="M10242628 8530149
L11327132 10565000
" />
<path d="M11198970 6590482
L10242628 8530149
" />
<path d="M10497453 6590482
L11198970 6590482
" />
<path d="M9846900 7898333
L10497453 6590482
" />
<path d="M9176861 6590482
L9846900 7898333
" />
<path d="M8437119 6590482
L9176861 6590482
" />
<path d="M9463913 8536145
L8437119 6590482
" />
<path d="M8424378 10565000
L9463913 8536145
" />
<path d="M7767829 10565000
L5496891 10565000
" />
<path d="M7767829 9984149
L7767829 10565000
" />
<path d="M6957636 9984149
L7767829 9984149
" />
<path d="M6957636 7171333
L6957636 9984149
" />
<path d="M7735601 7171333
L6957636 7171333
" />
<path d="M7735601 6590482
L7735601 7171333
" />
<path d="M5541110 6590482
L7735601 6590482
" />
<path d="M5541110 7171333
L5541110 6590482
" />
<path d="M6274856 7171333
L5541110 7171333
" />
<path d="M6274856 9984149
L6274856 7171333
" />
<path d="M5496891 9984149
L6274856 9984149
" />
<path d="M5496891 10565000
L5496891 9984149
" />
<path d="M2684074 10565000
L2065000 10565000
" />
<path d="M2684074 7796403
L2684074 10565000
" />
<path d="M3270921 9251153
L2684074 7796403
" />
<path d="M3621680 9251153
L3270921 9251153
" />
<path d="M4246750 7789658
L3621680 9251153
" />
<path d="M4246750 10565000
L4246750 7789658
" />
<path d="M4872570 10565000
L4246750 10565000
" />
<path d="M4872570 6584487
L4872570 10565000
" />
<path d="M4240754 6584487
L4872570 6584487
" />
<path d="M3468785 8415478
L4240754 6584487
" />
<path d="M2696816 6590482
L3468785 8415478
" />
<path d="M2065000 6590482
L2696816 6590482
" />
<path d="M2065000 10565000
L2065000 6590482
" />
<path d="M15357112 5565000
L14738037 5565000
" />
<path d="M15357112 2796403
L15357112 5565000
" />
<path d="M15943958 4251153
L15357112 2796403
" />
<path d="M16294717 4251153
L15943958 4251153
" />
<path d="M16919787 2789658
L16294717 4251153
" />
<path d="M16919787 5565000
L16919787 2789658
" />
<path d="M17545607 5565000
L16919787 5565000
" />
<path d="M17545607 1584487
L17545607 5565000
" />
<path d="M16913791 1584487
L17545607 1584487
" />
<path d="M16141822 3415478
L16913791 1584487
" />
<path d="M15369853 1590482
L16141822 3415478
" />
<path d="M14738037 1590482
L15369853 1590482
" />
<path d="M14738037 5565000
L14738037 1590482
" />
<path d="M14241129 5565000
L11670396 5565000
" />
<path d="M14241129 4978153
L14241129 5565000
" />
<path d="M12371914 4978153
L14241129 4978153
" />
<path d="M12371914 3791719
L12371914 4978153
" />
<path d="M13922598 3791719
L12371914 3791719
" />
<path d="M13922598 3198127
L13922598 3791719
" />
<path d="M12371914 3198127
L13922598 3198127
" />
<path d="M12371914 2177329
L12371914 3198127
" />
<path d="M14260616 2177329
L12371914 2177329
" />
<path d="M14260616 1590482
L14260616 2177329
" />
<path d="M11670396 1590482
L14260616 1590482
" />
<path d="M11670396 5565000
L11670396 1590482
" />
<path d="M6019281 5565000
L5553851 5565000
" />
<path d="M6593387 3114934
L6019281 5565000
" />
<path d="M7155500 5565000
L6593387 3114934
" />
<path d="M7608189 5565000
L7155500 5565000
" />
<path d="M8124584 1590482
L7608189 5565000
" />
<path d="M7537737 1590482
L8124584 1590482
" />
<path d="M7327132 4078772
L7537737 1590482
" />
<path d="M6816733 1903018
L7327132 4078772
" />
<path d="M6434496 1903018
L6816733 1903018
" />
<path d="M5924097 4084768
L6434496 1903018
" />
<path d="M5655781 1590482
L5924097 4084768
" />
<path d="M5030711 1590482
L5655781 1590482
" />
<path d="M5553851 5565000
L5030711 1590482
" />
<path d="M2792000 2215553
L2792000 3312798
" />
<path d="M3372851 2215553
L2792000 2215553
" />
<path d="M3831909.338050 2381564.682779 A594709.000000 594709.000000 0.0 0 0 3372851.036158 2215553.475439" />
<path d="M3985176.029090 2776916.935186 A562921.000000 562921.000000 0.0 0 0 3831910.062226 2381563.941331" />
<path d="M3831910.018967 3169272.019405 A511471.000000 511471.000000 0.0 0 0 3985179.726212 2776917.014249" />
<path d="M3372849.967036 3312811.563778 A649888.000000 649888.000000 0.0 0 0 3831910.062889 3169272.077435" />
<path d="M2792000 3312798
L3372851 3312798
" />
<path d="M2792000 5565000
L2065000 5565000
" />
<path d="M2792000 3912386
L2792000 5565000
" />
<path d="M3270921 3912386
L2792000 3912386
" />
<path d="M4074369 5565000
L3270921 3912386
" />
<path d="M4833597 5565000
L4074369 5565000
" />
<path d="M3979184 3842684
L4833597 5565000
" />
<path d="M3979182.136774 3842679.001355 A1070177.000000 1070177.000000 0.0 0 0 4371164.814081 3587484.818495" />
<path d="M4371170.899870 3587490.842068 A1232475.000000 1232475.000000 0.0 0 0 4632735.428340 3195129.178829" />
<path d="M4632719.940152 3195122.496019 A1125459.000000 1125459.000000 0.0 0 0 4724920.740133 2758179.997857" />
<path d="M4724922.146520 2758180.050892 A1111976.000000 1111976.000000 0.0 0 0 4386904.123058 1909387.872704" />
<path d="M4384257 1906902
L4386904 1909388
" />
<path d="M4381598 1904425
L4384257 1906902
" />
<path d="M4378928 1901958
L4381598 1904425
" />
<path d="M4376246 1899500
L4378928 1901958
" />
<path d="M4373551 1897053
L4376246 1899500
" />
<path d="M4370845 1894615
L4373551 1897053
" />
<path d="M4368128 1892187
L4370845 1894615
" />
<path d="M4365398 1889768
L4368128 1892187
" />
<path d="M4362656 1887359
L4365398 1889768
" />
<path d="M4359903 1884960
L4362656 1887359
" />
<path d="M4357137 1882571
L4359903 1884960
" />
<path d="M4354360 1880192
L4357137 1882571
" />
<path d="M4351571 1877822
L4354360 1880192
" />
<path d="M4348770 1875462
L4351571 1877822
" />
<path d="M4345957 1873111
L4348770 1875462
" />
<path d="M4343132 1870771
L4345957 1873111
" />
<path d="M4340295 1868440
L4343132 1870771
" />
<path d="M4337447 1866119
L4340295 1868440
" />
<path d="M4334587 1863807
L4337447 1866119
" />
<path d="M4331714 1861506
L4334587 1863807
" />
<path d="M4328830 1859214
L4331714 1861506
" />
<path d="M4325934 1856932
L4328830 1859214
" />
<path d="M4323026 1854659
L4325934 1856932
" />
<path d="M4320107 1852396
L4323026 1854659
" />
<path d="M4317175 1850143
L4320107 1852396
" />
<path d="M4314232 1847900
L4317175 1850143
" />
<path d="M4311276 1845666
L4314232 1847900
" />
<path d="M4308309 1843443
L4311276 1845666
" />
<path d="M4305330 1841229
L4308309 1843443
" />
<path d="M4302339 1839024
L4305330 1841229
" />
<path d="M4299336 1836830
L4302339 1839024
" />
<path d="M4296321 1834645
L4299336 1836830
" />
<path d="M4293295 1832470
L4296321 1834645
" />
<path d="M4290256 1830304
L4293295 1832470
" />
<path d="M4287206 1828148
L4290256 1830304
" />
<path d="M4284144 1826002
L4287206 1828148
" />
<path d="M4281070 1823866
L4284144 1826002
" />
<path d="M4277984 1821740
L4281070 1823866
" />
<path d="M4274886 1819623
L4277984 1821740
" />
<path d="M4271777 1817516
L4274886 1819623
" />
<path d="M4268655 1815419
L4271777 1817516
" />
<path d="M4265522 1813331
L4268655 1815419
" />
<path d="M4262376 1811253
L4265522 1813331
" />
<path d="M4259219 1809185
L4262376 1811253
" />
<path d="M4256050 1807127
L4259219 1809185
" />
<path d="M4252869 1805078
L4256050 1807127
" />
<path d="M4249677 1803039
L4252869 1805078
" />
<path d="M4246472 1801010
L4249677 1803039
" />
<path d="M4243255 1798991
L4246472 1801010
" />
<path d="M4240027 1796981
L4243255 1798991
" />
<path d="M4236787 1794981
L4240027 1796981
" />
<path d="M4233535 1792991
L4236787 1794981
" />
<path d="M4230271 1791010
L4233535 1792991
" />
<path d="M4226995 1789039
L4230271 1791010
" />
<path d="M4223707 1787078
L4226995 1789039
" />
<path d="M4220408 1785127
L4223707 1787078
" />
<path d="M4217096 1783186
L4220408 1785127
" />
<path d="M4213773 1781254
L4217096 1783186
" />
<path d="M4210438 1779332
L4213773 1781254
" />
<path d="M4207090 1777419
L4210438 1779332
" />
<path d="M4203732 1775517
L4207090 1777419
" />
<path d="M4200361 1773624
L4203732 1775517
" />
<path d="M4196978 1771740
L4200361 1773624
" />
<path d="M4193583 1769867
L4196978 1771740
" />
<path d="M4190177 1768003
L4193583 1769867
" />
<path d="M4186759 1766149
L4190177 1768003
" />
<path d="M4183329 1764305
L4186759 1766149
" />
<path d="M4179887 1762470
L4183329 1764305
" />
<path d="M4176433 1760646
L4179887 1762470
" />
<path d="M4172967 1758831
L4176433 1760646
" />
<path d="M4169489 1757025
L4172967 1758831
" />
<path d="M4166000 1755230
L4169489 1757025
" />
<path d="M4162498 1753444
L4166000 1755230
" />
<path d="M4158985 1751668
L4162498 1753444
" />
<path d="M4155460 1749901
L4158985 1751668
" />
<path d="M4151923 1748145
L4155460 1749901
" />
<path d="M4148374 1746398
L4151923 1748145
" />
<path d="M4144813 1744660
L4148374 1746398
" />
<path d="M4141241 1742933
L4144813 1744660
" />
<path d="M4137656 1741215
L4141241 1742933
" />
<path d="M4134060 1739507
L4137656 1741215
" />
<path d="M4130452 1737809
L4134060 1739507
" />
<path d="M4126831 1736120
L4130452 1737809
" />
<path d="M4123199 1734442
L4126831 1736120
" />
<path d="M4119556 1732773
L4123199 1734442
" />
<path d="M4115900 1731113
L4119556 1732773
" />
<path d="M4112232 1729464
L4115900 1731113
" />
<path d="M4108553 1727824
L4112232 1729464
" />
<path d="M4104861 1726194
L4108553 1727824
" />
<path d="M4101158 1724573
L4104861 1726194
" />
<path d="M4097443 1722962
L4101158 1724573
" />
<path d="M4093716 1721362
L4097443 1722962
" />
<path d="M4089977 1719770
L4093716 1721362
" />
<path d="M4086227 1718189
L4089977 1719770
" />
<path d="M4082464 1716617
L4086227 1718189
" />
<path d="M4078690 1715055
L4082464 1716617
" />
<path d="M4074904 1713503
L4078690 1715055
" />
<path d="M4071105 1711960
L4074904 1713503
" />
<path d="M4067295 1710427
L4071105 1711960
" />
<path d="M4063473 1708904
L4067295 1710427
" />
<path d="M4059640 1707391
L4063473 1708904
" />
<path d="M4055794 1705887
L4059640 1707391
" />
<path d="M4051936 1704393
L4055794 1705887
" />
<path d="M4048067 1702909
L4051936 1704393
" />
<path d="M4044186 1701435
L4048067 1702909
" />
<path d="M4040293 1699970
L4044186 1701435
" />
<path d="M4036388 1698515
L4040293 1699970
" />
<path d="M4032471 1697070
L4036388 1698515
" />
<path d="M4028542 1695634
L4032471 1697070
" />
<path d="M4024601 1694209
L4028542 1695634
" />
<path d="M4020649 1692793
L4024601 1694209
" />
<path d="M4016685 1691386
L4020649 1692793
" />
<path d="M4012708 1689990
L4016685 1691386
" />
<path d="M4008720 1688603
L4012708 1689990
" />
<path d="M4004720 1687226
L4008720 1688603
" />
<path d="M4000708 1685858
L4004720 1687226
" />
<path d="M3996685 1684501
L4000708 1685858
" />
<path d="M3992649 1683153
L3996685 1684501
" />
<path d="M3988602 1681815
L3992649 1683153
" />
<path d="M3984542 1680486
L3988602 1681815
" />
<path d="M3980471 1679167
L3984542 1680486
" />
<path d="M3976388 1677858
L3980471 1679167
" />
<path d="M3972293 1676559
L3976388 1677858
" />
<path d="M3968186 1675270
L3972293 1676559
" />
<path d="M3964068 1673990
L3968186 1675270
" />
<path d="M3959937 1672720
L3964068 1673990
" />
<path d="M3955795 1671460
L3959937 1672720
" />
<path d="M3951640 1670209
L3955795 1671460
" />
<path d="M3947474 1668968
L3951640 1670209
" />
<path d="M3943296 1667737
L3947474 1668968
" />
<path d="M3939106 1666516
L3943296 1667737
" />
<path d="M3934905 1665304
L3939106 1666516
" />
<path d="M3930691 1664102
L3934905 1665304
" />
<path d="M3926465 1662910
L3930691 1664102
" />
<path d="M3922228 1661727
L3926465 1662910
" />
<path d="M3917979 1660555
L3922228 1661727
" />
<path d="M3913718 1659392
L3917979 1660555
" />
<path d="M3909445 1658238
L3913718 1659392
" />
<path d="M3905160 1657095
L3909445 1658238
" />
<path d="M3900863 1655961
L3905160 1657095
" />
<path d="M3896554 1654837
L3900863 1655961
" />
<path d="M3892234 1653723
L3896554 1654837
" />
<path d="M3887902 1652618
L3892234 1653723
" />
<path d="M3883557 1651523
L3887902 1652618
" />
<path d="M3879201 1650438
L3883557 1651523
" />
<path d="M3874833 1649362
L3879201 1650438
" />
<path d="M3870453 1648297
L3874833 1649362
" />
<path d="M3866062 1647241
L3870453 1648297
" />
<path d="M3861658 1646195
L3866062 1647241
" />
<path d="M3857243 1645158
L3861658 1646195
" />
<path d="M3852815 1644131
L3857243 1645158
" />
<path d="M3848376 1643114
L3852815 1644131
" />
<path d="M3843925 1642107
L3848376 1643114
" />
<path d="M3839462 1641110
L3843925 1642107
" />
<path d="M3834987 1640122
L3839462 1641110
" />
<path d="M3830501 1639144
L3834987 1640122
" />
<path d="M3826002 1638175
L3830501 1639144
" />
<path d="M3821492 1637217
L3826002 1638175
" />
<path d="M3816970 1636268
L3821492 1637217
" />
<path d="M3812435 1635329
L3816970 1636268
" />
<path d="M3807889 1634399
L3812435 1635329
" />
<path d="M3803331 1633479
L3807889 1634399
" />
<path d="M3798762 1632570
L3803331 1633479
" />
<path d="M3794180 1631669
L3798762 1632570
" />
<path d="M3789587 1630779
L3794180 1631669
" />
<path d="M3784981 1629898
L3789587 1630779
" />
<path d="M3780364 1629027
L3784981 1629898
" />
<path d="M3775735 1628166
L3780364 1629027
" />
<path d="M3771094 1627314
L3775735 1628166
" />
<path d="M3766441 1626472
L3771094 1627314
" />
<path d="M3761776 1625640
L3766441 1626472
" />
<path d="M3757100 1624818
L3761776 1625640
" />
<path d="M3752411 1624005
L3757100 1624818
" />
<path d="M3747711 1623202
L3752411 1624005
" />
<path d="M3742999 1622409
L3747711 1623202
" />
<path d="M3738274 1621626
L3742999 1622409
" />
<path d="M3733538 1620852
L3738274 1621626
" />
<path d="M3728791 1620088
L3733538 1620852
" />
<path d="M3724031 1619334
L3728791 1620088
" />
<path d="M3719259 1618589
L3724031 1619334
" />
<path d="M3714476 1617854
L3719259 1618589
" />
<path d="M3709681 1617129
L3714476 1617854
" />
<path d="M3704873 1616414
L3709681 1617129
" />
<path d="M3700054 1615708
L3704873 1616414
" />
<path d="M3695223 1615013
L3700054 1615708
" />
<path d="M3690381 1614326
L3695223 1615013
" />
<path d="M3685526 1613650
L3690381 1614326
" />
<path d="M3680659 1612983
L3685526 1613650
" />
<path d="M3675781 1612326
L3680659 1612983
" />
<path d="M3670891 1611679
L3675781 1612326
" />
<path d="M3665989 1611042
L3670891 1611679
" />
<path d="M3661075 1610414
L3665989 1611042
" />
<path d="M3656149 1609796
L3661075 1610414
" />
<path d="M3651211 1609188
L3656149 1609796
" />
<path d="M3646261 1608589
L3651211 1609188
" />
<path d="M3641300 1608000
L3646261 1608589
" />
<path d="M3636326 1607421
L3641300 1608000
" />
<path d="M3631341 1606852
L3636326 1607421
" />
<path d="M3626344 1606292
L3631341 1606852
" />
<path d="M3621335 1605743
L3626344 1606292
" />
<path d="M3616314 1605202
L3621335 1605743
" />
<path d="M3611281 1604672
L3616314 1605202
" />
<path d="M3606237 1604151
L3611281 1604672
" />
<path d="M3601180 1603640
L3606237 1604151
" />
<path d="M3596112 1603139
L3601180 1603640
" />
<path d="M3591032 1602648
L3596112 1603139
" />
<path d="M3585940 1602166
L3591032 1602648
" />
<path d="M3580836 1601694
L3585940 1602166
" />
<path d="M3575720 1601232
L3580836 1601694
" />
<path d="M3570592 1600779
L3575720 1601232
" />
<path d="M3565453 1600336
L3570592 1600779
" />
<path d="M3560301 1599903
L3565453 1600336
" />
<path d="M3555138 1599480
L3560301 1599903
" />
<path d="M3549963 1599066
L3555138 1599480
" />
<path d="M3544776 1598662
L3549963 1599066
" />
<path d="M3539577 1598268
L3544776 1598662
" />
<path d="M3534366 1597884
L3539577 1598268
" />
<path d="M3529143 1597509
L3534366 1597884
" />
<path d="M3523909 1597144
L3529143 1597509
" />
<path d="M3518662 1596789
L3523909 1597144
" />
<path d="M3513404 1596443
L3518662 1596789
" />
<path d="M3508134 1596108
L3513404 1596443
" />
<path d="M3502852 1595782
L3508134 1596108
" />
<path d="M3497558 1595465
L3502852 1595782
" />
<path d="M3492252 1595159
L3497558 1595465
" />
<path d="M3486935 1594862
L3492252 1595159
" />
<path d="M3481605 1594575
L3486935 1594862
" />
<path d="M3476264 1594298
L3481605 1594575
" />
<path d="M3470911 1594030
L3476264 1594298
" />
<path d="M3465545 1593772
L3470911 1594030
" />
<path d="M3460168 1593524
L3465545 1593772
" />
<path d="M3454780 1593285
L3460168 1593524
" />
<path d="M3449379 1593057
L3454780 1593285
" />
<path d="M3443966 1592838
L3449379 1593057
" />
<path d="M3438542 1592628
L3443966 1592838
" />
<path d="M3433106 1592429
L3438542 1592628
" />
<path d="M3427657 1592239
L3433106 1592429
" />
<path d="M3422197 1592059
L3427657 1592239
" />
<path d="M3416725 1591889
L3422197 1592059
" />
<path d="M3411241 1591728
L3416725 1591889
" />
<path d="M3405746 1591577
L3411241 1591728
" />
<path d="M3400238 1591436
L3405746 1591577
" />
<path d="M3394719 1591305
L3400238 1591436
" />
<path d="M3389187 1591183
L3394719 1591305
" />
<path d="M3383644 1591071
L3389187 1591183
" />
<path d="M3378089 1590969
L3383644 1591071
" />
<path d="M3372522 1590877
L3378089 1590969
" />
<path d="M3366944 1590794
L3372522 1590877
" />
<path d="M3361353 1590721
L3366944 1590794
" />
<path d="M3355750 1590658
L3361353 1590721
" />
<path d="M3350136 1590604
L3355750 1590658
" />
<path d="M3344510 1590560
L3350136 1590604
" />
<path d="M3338872 1590526
L3344510 1590560
" />
<path d="M3333222 1590502
L3338872 1590526
" />
<path d="M3327560 1590487
L3333222 1590502
" />
<path d="M3321886 1590482
L3327560 1590487
" />
<path d="M2065000 1590482
L3321886 1590482
" />
<path d="M2065000 5565000
L2065000 1590482
" />
<circle cx="10065000.000000" cy="20565000.000000" r="3200000.000000" /> 
<circle cx="10065000.000000" cy="37565000.000000" r="3200000.000000" /> 
<circle cx="10065000.000000" cy="54565000.000000" r="3200000.000000" /> 
<circle cx="24065000.000000" cy="20565000.000000" r="3200000.000000" /> 
<circle cx="24065000.000000" cy="37565000.000000" r="3200000.000000" /> 
<circle cx="24065000.000000" cy="54565000.000000" r="3200000.000000" /> 
<circle cx="24065000.000000" cy="87565000.000000" r="3200000.000000" /> 
<circle cx="24065000.000000" cy="104565000.000000" r="3200000.000000" /> 
<path d="M21565000.000000 123965000.000000 A1600000.000000 1600000.000000 0.0 0 0 21565000.000000 127165000.000000" />
<path d="M21565000.000000 1465000.000000 A1600000.000000 1600000.000000 0.0 0 0 21565000.000000 4665000.000000" />
<path d="M23565000.000000 127165000.000000 A1600000.000000 1600000.000000 0.0 0 0 23565000.000000 123965000.000000" />
<path d="M23565000.000000 4665000.000000 A1600000.000000 1600000.000000 0.0 0 0 23565000.000000 1465000.000000" />
<path d="M21565000 127165000
L23565000 127165000
" />
<path d="M21565000 4665000
L23565000 4665000
" />
<path d="M21565000 123965000
L23565000 123965000
" />
<path d="M21565000 1465000
L23565000 1465000
" />
<path d="M65000 65000
L65000 128565000
" />
<path d="M30065000 65000
L65000 65000
" />
<path d="M30065000 128565000
L30065000 65000
" />
<path d="M65000 128565000
L30065000 128565000
" />
<g >
</g>
<g >
</g>
<g >
</g>
</g> 
</svg>
